<?xml version="1.0" encoding="UTF-8"?>
<svg width="12.7mm" height="12.7mm" viewBox="0 0 500 500" version="1.2" baseProfile="tiny" xmlns:n1="http://www.w3.org/2000/svg" xmlns:xlink="http://www.w3.org/1999/xlink" xmlns:cpcb="http://www.danielwagenaar.net/cpcb-ns.html">
  <cpcb:part pkg="LED-IR-T1¾" xmlns="http://www.danielwagenaar.net/cpcb-ns.html">
    <group o="304800 355600" ref="D?">
      <trace p1="343662 90170" p2="343662 96520" w="2540" l="1"/>
      <trace p1="344170 114046" p2="344170 138938" w="2540" l="1"/>
      <arc p="366268 126492" r="25400" lw="2540" l="1" ang="300" rot="1"/>
      <hole p="355600 127000" id="8890" od="16510" sq="1" ref="A"/>
      <trace p1="343662 96520" p2="337312 96520" w="2540" l="1"/>
      <hole p="381000 127000" id="8890" od="16510" sq="0" ref="K"/>
      <trace p1="350012 96520" p2="343662 96520" w="2540" l="1"/>
      <trace p1="343662 96520" p2="343662 102870" w="2540" l="1"/>
    </group>
    <text p="693420 456438" fs="12700" l="1" ori="0 0" text="D?"/>
  </cpcb:part>
<n1:title>PCB Component</n1:title>
<n1:desc>Generated by CPCB</n1:desc>
<n1:defs>
</n1:defs>
<n1:g fill="none" stroke="black" stroke-width="1" fill-rule="evenodd" stroke-linecap="square" stroke-linejoin="bevel">

<n1:g fill="#000000" fill-opacity="1" stroke="none" transform="matrix(1,0,0,1,-2385,-1626.5)" font-family="Sans" font-size="152.778" font-weight="400" font-style="normal">
<n1:rect x="2385" y="1626.5" width="500" height="500"/>
</n1:g>

<n1:g fill="#00b400" fill-opacity="1" stroke="none" transform="matrix(1,0,0,1,-2385,-1626.5)" font-family="Sans" font-size="152.778" font-weight="400" font-style="normal">
<n1:rect x="2567.5" y="1867.5" width="65" height="65"/>
</n1:g>

<n1:g fill="#00b400" fill-opacity="1" stroke="none" transform="matrix(1,0,0,1,-2385,-1626.5)" font-family="Sans" font-size="152.778" font-weight="400" font-style="normal">
<n1:circle cx="2700" cy="1900" r="32.5"/>
</n1:g>

<n1:g fill="#ff0000" fill-opacity="1" stroke="none" transform="matrix(1,0,0,1,-2385,-1626.5)" font-family="Sans" font-size="152.778" font-weight="400" font-style="normal">
<n1:rect x="2567.5" y="1867.5" width="65" height="65"/>
</n1:g>

<n1:g fill="#ff0000" fill-opacity="1" stroke="none" transform="matrix(1,0,0,1,-2385,-1626.5)" font-family="Sans" font-size="152.778" font-weight="400" font-style="normal">
<n1:circle cx="2700" cy="1900" r="32.5"/>
</n1:g>

<n1:g fill="#000000" fill-opacity="1" stroke="none" transform="matrix(1,0,0,1,-2385,-1626.5)" font-family="Sans" font-size="152.778" font-weight="400" font-style="normal">
<n1:circle cx="2600" cy="1900" r="17.5"/>
</n1:g>

<n1:g fill="#000000" fill-opacity="1" stroke="none" transform="matrix(1,0,0,1,-2385,-1626.5)" font-family="Sans" font-size="152.778" font-weight="400" font-style="normal">
<n1:circle cx="2700" cy="1900" r="17.5"/>
</n1:g>

<n1:g fill="#000000" fill-opacity="1" stroke="#f0f000" stroke-opacity="1" stroke-width="10" stroke-linecap="round" stroke-linejoin="bevel" transform="matrix(1,0,0,1,-2385,-1626.5)" font-family="Sans" font-size="152.778" font-weight="400" font-style="normal">
<n1:polyline fill="none" vector-effect="none" points="2553,1755 2553,1780 "/>
<n1:polyline fill="none" vector-effect="none" points="2555,1849 2555,1947 "/>
</n1:g>

<n1:g fill="none" stroke="#f0f000" stroke-opacity="1" stroke-width="10" stroke-linecap="round" stroke-linejoin="bevel" transform="matrix(1,0,0,1,-2385,-1626.5)" font-family="Sans" font-size="152.778" font-weight="400" font-style="normal">
<n1:path vector-effect="none" fill-rule="evenodd" d="M2555.39,1948.02 C2572.68,1977.9 2604.99,1998 2642,1998 C2697.23,1998 2742,1953.23 2742,1898 C2742,1842.77 2697.23,1798 2642,1798 C2604.99,1798 2572.68,1818.1 2555.39,1847.99 "/>
<n1:polyline fill="none" vector-effect="none" points="2553,1780 2528,1780 "/>
<n1:polyline fill="none" vector-effect="none" points="2578,1780 2553,1780 "/>
<n1:polyline fill="none" vector-effect="none" points="2553,1780 2553,1805 "/>
</n1:g>
</n1:g>
</svg>
