<?xml version="1.0" encoding="UTF-8"?>
<svg width="128.245mm" height="715.239mm" viewBox="0 0 504.882 2815.91" version="1.2" baseProfile="tiny" xmlns:n1="http://www.w3.org/2000/svg" xmlns:xlink="http://www.w3.org/1999/xlink" xmlns:cpcb="http://www.danielwagenaar.net/cpcb-ns.html">
  <cpcb:part pkg="18650-C2979183" xmlns="http://www.danielwagenaar.net/cpcb-ns.html">
    <group ref="B1" pkg="18650-C2979183" nomrot="-90">
      <hole p="285000 44000" id="18000" od="25000" ref="+" rot="90"/>
      <hole p="260000 120000" id="18000" od="25000" ref="" rot="90"/>
      <trace p1="341500 710000" p2="341500 10000" w="2540" l="1"/>
      <trace p1="341500 10000" p2="228500 10000" w="2540" l="1"/>
      <trace p1="228500 710000" p2="341500 710000" w="2540" l="1"/>
      <hole p="260000 600000" id="18000" od="25000" ref="X?" rot="90"/>
      <hole p="310000 600000" id="18000" od="25000" ref="X?" rot="90"/>
      <hole p="310000 120000" id="18000" od="25000" ref="" rot="90"/>
      <trace p1="228500 10000" p2="228500 710000" w="2540" l="1"/>
      <hole p="285000 676000" id="18000" od="25000" ref="-" rot="90"/>
      <text p="285396 193605" fs="12700" l="1" rot="90" text="+"/>
      <text p="285396 523805" fs="12700" l="1" rot="90" text="-"/>
    </group>
    <text p="196883 17303" fs="12700" l="1" rot="0" text="B1"/>
  </cpcb:part>
<n1:title>PCB Component</n1:title>
<n1:desc>Generated by CPCB</n1:desc>
<n1:defs>
</n1:defs>
<n1:g fill="none" stroke="black" stroke-width="1" fill-rule="evenodd" stroke-linecap="square" stroke-linejoin="bevel">

<n1:g fill="#000000" fill-opacity="1" stroke="none" transform="matrix(1,0,0,1,-869.606,-9.37008)" font-family="Sans" font-size="152.778" font-weight="400" font-style="normal">
<n1:rect x="869.606" y="9.37008" width="504.882" height="2815.91"/>
</n1:g>

<n1:g fill="#00b400" fill-opacity="1" stroke="none" transform="matrix(1,0,0,1,-869.606,-9.37008)" font-family="Sans" font-size="152.778" font-weight="400" font-style="normal">
<n1:circle cx="1122.05" cy="173.228" r="49.2126"/>
</n1:g>

<n1:g fill="#00b400" fill-opacity="1" stroke="none" transform="matrix(1,0,0,1,-869.606,-9.37008)" font-family="Sans" font-size="152.778" font-weight="400" font-style="normal">
<n1:circle cx="1023.62" cy="472.441" r="49.2126"/>
</n1:g>

<n1:g fill="#00b400" fill-opacity="1" stroke="none" transform="matrix(1,0,0,1,-869.606,-9.37008)" font-family="Sans" font-size="152.778" font-weight="400" font-style="normal">
<n1:circle cx="1023.62" cy="2362.2" r="49.2126"/>
</n1:g>

<n1:g fill="#00b400" fill-opacity="1" stroke="none" transform="matrix(1,0,0,1,-869.606,-9.37008)" font-family="Sans" font-size="152.778" font-weight="400" font-style="normal">
<n1:circle cx="1220.47" cy="2362.2" r="49.2126"/>
</n1:g>

<n1:g fill="#00b400" fill-opacity="1" stroke="none" transform="matrix(1,0,0,1,-869.606,-9.37008)" font-family="Sans" font-size="152.778" font-weight="400" font-style="normal">
<n1:circle cx="1220.47" cy="472.441" r="49.2126"/>
</n1:g>

<n1:g fill="#00b400" fill-opacity="1" stroke="none" transform="matrix(1,0,0,1,-869.606,-9.37008)" font-family="Sans" font-size="152.778" font-weight="400" font-style="normal">
<n1:circle cx="1122.05" cy="2661.42" r="49.2126"/>
</n1:g>

<n1:g fill="#ff0000" fill-opacity="1" stroke="none" transform="matrix(1,0,0,1,-869.606,-9.37008)" font-family="Sans" font-size="152.778" font-weight="400" font-style="normal">
<n1:circle cx="1122.05" cy="173.228" r="49.2126"/>
</n1:g>

<n1:g fill="#ff0000" fill-opacity="1" stroke="none" transform="matrix(1,0,0,1,-869.606,-9.37008)" font-family="Sans" font-size="152.778" font-weight="400" font-style="normal">
<n1:circle cx="1023.62" cy="472.441" r="49.2126"/>
</n1:g>

<n1:g fill="#ff0000" fill-opacity="1" stroke="none" transform="matrix(1,0,0,1,-869.606,-9.37008)" font-family="Sans" font-size="152.778" font-weight="400" font-style="normal">
<n1:circle cx="1023.62" cy="2362.2" r="49.2126"/>
</n1:g>

<n1:g fill="#ff0000" fill-opacity="1" stroke="none" transform="matrix(1,0,0,1,-869.606,-9.37008)" font-family="Sans" font-size="152.778" font-weight="400" font-style="normal">
<n1:circle cx="1220.47" cy="2362.2" r="49.2126"/>
</n1:g>

<n1:g fill="#ff0000" fill-opacity="1" stroke="none" transform="matrix(1,0,0,1,-869.606,-9.37008)" font-family="Sans" font-size="152.778" font-weight="400" font-style="normal">
<n1:circle cx="1220.47" cy="472.441" r="49.2126"/>
</n1:g>

<n1:g fill="#ff0000" fill-opacity="1" stroke="none" transform="matrix(1,0,0,1,-869.606,-9.37008)" font-family="Sans" font-size="152.778" font-weight="400" font-style="normal">
<n1:circle cx="1122.05" cy="2661.42" r="49.2126"/>
</n1:g>

<n1:g fill="#000000" fill-opacity="1" stroke="none" transform="matrix(1,0,0,1,-869.606,-9.37008)" font-family="Sans" font-size="152.778" font-weight="400" font-style="normal">
<n1:circle cx="1122.05" cy="173.228" r="35.4331"/>
</n1:g>

<n1:g fill="#000000" fill-opacity="1" stroke="none" transform="matrix(1,0,0,1,-869.606,-9.37008)" font-family="Sans" font-size="152.778" font-weight="400" font-style="normal">
<n1:circle cx="1023.62" cy="472.441" r="35.4331"/>
</n1:g>

<n1:g fill="#000000" fill-opacity="1" stroke="none" transform="matrix(1,0,0,1,-869.606,-9.37008)" font-family="Sans" font-size="152.778" font-weight="400" font-style="normal">
<n1:circle cx="1023.62" cy="2362.2" r="35.4331"/>
</n1:g>

<n1:g fill="#000000" fill-opacity="1" stroke="none" transform="matrix(1,0,0,1,-869.606,-9.37008)" font-family="Sans" font-size="152.778" font-weight="400" font-style="normal">
<n1:circle cx="1220.47" cy="2362.2" r="35.4331"/>
</n1:g>

<n1:g fill="#000000" fill-opacity="1" stroke="none" transform="matrix(1,0,0,1,-869.606,-9.37008)" font-family="Sans" font-size="152.778" font-weight="400" font-style="normal">
<n1:circle cx="1220.47" cy="472.441" r="35.4331"/>
</n1:g>

<n1:g fill="#000000" fill-opacity="1" stroke="none" transform="matrix(1,0,0,1,-869.606,-9.37008)" font-family="Sans" font-size="152.778" font-weight="400" font-style="normal">
<n1:circle cx="1122.05" cy="2661.42" r="35.4331"/>
</n1:g>

<n1:g fill="#000000" fill-opacity="1" stroke="#f0f000" stroke-opacity="1" stroke-width="10" stroke-linecap="round" stroke-linejoin="bevel" transform="matrix(1,0,0,1,-869.606,-9.37008)" font-family="Sans" font-size="152.778" font-weight="400" font-style="normal">
<n1:polyline fill="none" vector-effect="none" points="1344.49,2795.28 1344.49,39.3701 "/>
<n1:polyline fill="none" vector-effect="none" points="1344.49,39.3701 899.606,39.3701 "/>
<n1:polyline fill="none" vector-effect="none" points="899.606,2795.28 1344.49,2795.28 "/>
<n1:polyline fill="none" vector-effect="none" points="899.606,39.3701 899.606,2795.28 "/>
</n1:g>

<n1:g fill="#000000" fill-opacity="1" stroke="#f0f000" stroke-opacity="1" stroke-width="3" stroke-linecap="round" stroke-linejoin="round" transform="matrix(0,2.5,2.5,0,254,752.854)" font-family="Sans" font-size="152.778" font-weight="400" font-style="normal">
<n1:polyline fill="none" vector-effect="none" points="6,-8 6,6 "/>
<n1:polyline fill="none" vector-effect="none" points="0,-1 12,-1 "/>
</n1:g>

<n1:g fill="#000000" fill-opacity="1" stroke="#f0f000" stroke-opacity="1" stroke-width="10" stroke-linecap="round" stroke-linejoin="bevel" transform="matrix(1,0,0,1,-869.606,-9.37008)" font-family="Sans" font-size="152.778" font-weight="400" font-style="normal">
</n1:g>

<n1:g fill="#000000" fill-opacity="1" stroke="#f0f000" stroke-opacity="1" stroke-width="3" stroke-linecap="round" stroke-linejoin="round" transform="matrix(0,2.5,2.5,0,254,2052.85)" font-family="Sans" font-size="152.778" font-weight="400" font-style="normal">
<n1:polyline fill="none" vector-effect="none" points="0,-1 12,-1 "/>
</n1:g>

<n1:g fill="#000000" fill-opacity="1" stroke="#f0f000" stroke-opacity="1" stroke-width="10" stroke-linecap="round" stroke-linejoin="bevel" transform="matrix(1,0,0,1,-869.606,-9.37008)" font-family="Sans" font-size="152.778" font-weight="400" font-style="normal">
</n1:g>
</n1:g>
</svg>
