<?xml version="1.0" encoding="UTF-8"?>
<svg width="91.44mm" height="218.44mm" viewBox="0 0 360 860" version="1.2" baseProfile="tiny" xmlns:n1="http://www.w3.org/2000/svg" xmlns:xlink="http://www.w3.org/1999/xlink" xmlns:cpcb="http://www.danielwagenaar.net/cpcb-ns.html">
  <cpcb:part pkg="DCDC" xmlns="http://www.danielwagenaar.net/cpcb-ns.html">
    <group ref="X?" pkg="DCDC">
      <trace p1="25400 50800" p2="25400 254000" w="2540" l="1"/>
      <trace p1="101600 50800" p2="25400 50800" w="2540" l="1"/>
      <hole p="76200 203200" id="10160" od="16510" ref="6/Vout+"/>
      <hole p="76200 177800" id="10160" od="16510" ref="5/Gnd"/>
      <trace p1="101600 254000" p2="101600 50800" w="2540" l="1"/>
      <trace p1="25400 254000" p2="101600 254000" w="2540" l="1"/>
      <hole p="76200 152400" id="10160" od="16510" ref="4/Vout-"/>
      <hole p="76200 101600" id="10160" od="16510" ref="2/Vin-"/>
      <hole p="76200 76200" id="10160" od="16510" ref="1/Vin+"/>
    </group>
    <text p="24130 36830" fs="12700" l="1" rot="0" text="X?"/>
  </cpcb:part>
<n1:title>PCB Component</n1:title>
<n1:desc>Generated by CPCB</n1:desc>
<n1:defs>
</n1:defs>
<n1:g fill="none" stroke="black" stroke-width="1" fill-rule="evenodd" stroke-linecap="square" stroke-linejoin="bevel">

<n1:g fill="#000000" fill-opacity="1" stroke="none" transform="matrix(1,0,0,1,-70,-170)" font-family="Ubuntu" font-size="152.778" font-weight="400" font-style="normal">
<n1:rect x="70" y="170" width="360" height="860"/>
</n1:g>

<n1:g fill="#00b400" fill-opacity="1" stroke="none" transform="matrix(1,0,0,1,-70,-170)" font-family="Ubuntu" font-size="152.778" font-weight="400" font-style="normal">
<n1:circle cx="300" cy="800" r="32.5"/>
</n1:g>

<n1:g fill="#00b400" fill-opacity="1" stroke="none" transform="matrix(1,0,0,1,-70,-170)" font-family="Ubuntu" font-size="152.778" font-weight="400" font-style="normal">
<n1:circle cx="300" cy="700" r="32.5"/>
</n1:g>

<n1:g fill="#00b400" fill-opacity="1" stroke="none" transform="matrix(1,0,0,1,-70,-170)" font-family="Ubuntu" font-size="152.778" font-weight="400" font-style="normal">
<n1:circle cx="300" cy="600" r="32.5"/>
</n1:g>

<n1:g fill="#00b400" fill-opacity="1" stroke="none" transform="matrix(1,0,0,1,-70,-170)" font-family="Ubuntu" font-size="152.778" font-weight="400" font-style="normal">
<n1:circle cx="300" cy="400" r="32.5"/>
</n1:g>

<n1:g fill="#00b400" fill-opacity="1" stroke="none" transform="matrix(1,0,0,1,-70,-170)" font-family="Ubuntu" font-size="152.778" font-weight="400" font-style="normal">
<n1:circle cx="300" cy="300" r="32.5"/>
</n1:g>

<n1:g fill="#ff0000" fill-opacity="1" stroke="none" transform="matrix(1,0,0,1,-70,-170)" font-family="Ubuntu" font-size="152.778" font-weight="400" font-style="normal">
<n1:circle cx="300" cy="800" r="32.5"/>
</n1:g>

<n1:g fill="#ff0000" fill-opacity="1" stroke="none" transform="matrix(1,0,0,1,-70,-170)" font-family="Ubuntu" font-size="152.778" font-weight="400" font-style="normal">
<n1:circle cx="300" cy="700" r="32.5"/>
</n1:g>

<n1:g fill="#ff0000" fill-opacity="1" stroke="none" transform="matrix(1,0,0,1,-70,-170)" font-family="Ubuntu" font-size="152.778" font-weight="400" font-style="normal">
<n1:circle cx="300" cy="600" r="32.5"/>
</n1:g>

<n1:g fill="#ff0000" fill-opacity="1" stroke="none" transform="matrix(1,0,0,1,-70,-170)" font-family="Ubuntu" font-size="152.778" font-weight="400" font-style="normal">
<n1:circle cx="300" cy="400" r="32.5"/>
</n1:g>

<n1:g fill="#ff0000" fill-opacity="1" stroke="none" transform="matrix(1,0,0,1,-70,-170)" font-family="Ubuntu" font-size="152.778" font-weight="400" font-style="normal">
<n1:circle cx="300" cy="300" r="32.5"/>
</n1:g>

<n1:g fill="#ffffff" fill-opacity="1" stroke="none" transform="matrix(1,0,0,1,-70,-170)" font-family="Ubuntu" font-size="152.778" font-weight="400" font-style="normal">
<n1:circle cx="300" cy="800" r="20"/>
</n1:g>

<n1:g fill="#ffffff" fill-opacity="1" stroke="none" transform="matrix(1,0,0,1,-70,-170)" font-family="Ubuntu" font-size="152.778" font-weight="400" font-style="normal">
<n1:circle cx="300" cy="700" r="20"/>
</n1:g>

<n1:g fill="#ffffff" fill-opacity="1" stroke="none" transform="matrix(1,0,0,1,-70,-170)" font-family="Ubuntu" font-size="152.778" font-weight="400" font-style="normal">
<n1:circle cx="300" cy="600" r="20"/>
</n1:g>

<n1:g fill="#ffffff" fill-opacity="1" stroke="none" transform="matrix(1,0,0,1,-70,-170)" font-family="Ubuntu" font-size="152.778" font-weight="400" font-style="normal">
<n1:circle cx="300" cy="400" r="20"/>
</n1:g>

<n1:g fill="#ffffff" fill-opacity="1" stroke="none" transform="matrix(1,0,0,1,-70,-170)" font-family="Ubuntu" font-size="152.778" font-weight="400" font-style="normal">
<n1:circle cx="300" cy="300" r="20"/>
</n1:g>

<n1:g fill="#ffffff" fill-opacity="1" stroke="#f0f000" stroke-opacity="1" stroke-width="10" stroke-linecap="round" stroke-linejoin="bevel" transform="matrix(1,0,0,1,-70,-170)" font-family="Ubuntu" font-size="152.778" font-weight="400" font-style="normal">
<n1:polyline fill="none" vector-effect="none" points="100,200 100,1000 "/>
<n1:polyline fill="none" vector-effect="none" points="400,200 100,200 "/>
<n1:polyline fill="none" vector-effect="none" points="400,1000 400,200 "/>
<n1:polyline fill="none" vector-effect="none" points="100,1000 400,1000 "/>
</n1:g>
</n1:g>
</svg>
