<?xml version="1.0" encoding="UTF-8"?>
<svg width="76.2mm" height="76.2mm" viewBox="0 0 300 300" version="1.2" baseProfile="tiny" xmlns:n1="http://www.w3.org/2000/svg" xmlns:xlink="http://www.w3.org/1999/xlink" xmlns:cpcb="http://www.danielwagenaar.net/cpcb-ns.html">
  <cpcb:part pkg="SC-88" partno="74LVC1T45GW,125" xmlns="http://www.danielwagenaar.net/cpcb-ns.html">
    <group ref="U5" pkg="SC-88" partno="74LVC1T45GW,125">
      <trace p1="106000 49000" p2="106000 28000" w="2540" l="1"/>
      <trace p1="106000 28000" p2="94000 28000" w="2540" l="1"/>
      <trace p1="94000 28000" p2="94000 49000" w="2540" l="1"/>
      <trace p1="94000 49000" p2="106000 49000" w="2540" l="1"/>
      <pad p="110000 45000" w="5000" h="4000" l="2" ref="1"/>
      <pad p="110000 32000" w="5000" h="4000" l="2" ref="3"/>
      <pad p="91000 45000" w="5000" h="4000" l="2" ref="6"/>
      <arc p="102000 45000" r="1250" lw="2540" l="1" ang="360" rota="90"/>
      <pad p="110000 38500" w="5000" h="4000" l="2" ref="2"/>
      <pad p="91000 32000" w="5000" h="4000" l="2" ref="4"/>
      <pad p="91000 38500" w="5000" h="4000" l="2" ref="5"/>
    </group>
    <text p="91047 10583" fs="9000" l="1" rot="0" text="U5"/>
  </cpcb:part>
<n1:title>PCB Component</n1:title>
<n1:desc>Generated by CPCB</n1:desc>
<n1:defs>
</n1:defs>
<n1:g fill="none" stroke="black" stroke-width="1" fill-rule="evenodd" stroke-linecap="square" stroke-linejoin="bevel">

<n1:g fill="#000000" fill-opacity="1" stroke="none" transform="matrix(1,0,0,1,-245.669,-1.5748)" font-family="Sans" font-size="152.778" font-weight="400" font-style="normal">
<n1:rect x="245.669" y="1.5748" width="300" height="300"/>
</n1:g>

<n1:g fill="#ff0000" fill-opacity="1" stroke="none" transform="matrix(1,0,0,1,-245.669,-1.5748)" font-family="Sans" font-size="152.778" font-weight="400" font-style="normal">
<n1:rect x="423.228" y="169.291" width="19.685" height="15.748"/>
</n1:g>

<n1:g fill="#ff0000" fill-opacity="1" stroke="none" transform="matrix(1,0,0,1,-245.669,-1.5748)" font-family="Sans" font-size="152.778" font-weight="400" font-style="normal">
<n1:rect x="423.228" y="118.11" width="19.685" height="15.748"/>
</n1:g>

<n1:g fill="#ff0000" fill-opacity="1" stroke="none" transform="matrix(1,0,0,1,-245.669,-1.5748)" font-family="Sans" font-size="152.778" font-weight="400" font-style="normal">
<n1:rect x="348.425" y="169.291" width="19.685" height="15.748"/>
</n1:g>

<n1:g fill="#ff0000" fill-opacity="1" stroke="none" transform="matrix(1,0,0,1,-245.669,-1.5748)" font-family="Sans" font-size="152.778" font-weight="400" font-style="normal">
<n1:rect x="423.228" y="143.701" width="19.685" height="15.748"/>
</n1:g>

<n1:g fill="#ff0000" fill-opacity="1" stroke="none" transform="matrix(1,0,0,1,-245.669,-1.5748)" font-family="Sans" font-size="152.778" font-weight="400" font-style="normal">
<n1:rect x="348.425" y="118.11" width="19.685" height="15.748"/>
</n1:g>

<n1:g fill="#ff0000" fill-opacity="1" stroke="none" transform="matrix(1,0,0,1,-245.669,-1.5748)" font-family="Sans" font-size="152.778" font-weight="400" font-style="normal">
<n1:rect x="348.425" y="143.701" width="19.685" height="15.748"/>
</n1:g>

<n1:g fill="#ff0000" fill-opacity="1" stroke="#f0f000" stroke-opacity="1" stroke-width="10" stroke-linecap="round" stroke-linejoin="bevel" transform="matrix(1,0,0,1,-245.669,-1.5748)" font-family="Sans" font-size="152.778" font-weight="400" font-style="normal">
<n1:polyline fill="none" vector-effect="none" points="417.323,192.913 417.323,110.236 "/>
<n1:polyline fill="none" vector-effect="none" points="417.323,110.236 370.079,110.236 "/>
<n1:polyline fill="none" vector-effect="none" points="370.079,110.236 370.079,192.913 "/>
<n1:polyline fill="none" vector-effect="none" points="370.079,192.913 417.323,192.913 "/>
</n1:g>

<n1:g fill="none" stroke="#f0f000" stroke-opacity="1" stroke-width="10" stroke-linecap="round" stroke-linejoin="bevel" transform="matrix(1,0,0,1,-245.669,-1.5748)" font-family="Sans" font-size="152.778" font-weight="400" font-style="normal">
<n1:path vector-effect="none" fill-rule="evenodd" d="M406.496,177.165 C406.496,174.447 404.293,172.244 401.575,172.244 C398.857,172.244 396.654,174.447 396.654,177.165 C396.654,179.883 398.857,182.087 401.575,182.087 C404.293,182.087 406.496,179.883 406.496,177.165 "/>
</n1:g>
</n1:g>
</svg>
