<?xml version="1.0" encoding="UTF-8"?>
<svg width="76.2mm" height="83.2104mm" viewBox="0 0 300 327.559" version="1.2" baseProfile="tiny" xmlns:n1="http://www.w3.org/2000/svg" xmlns:xlink="http://www.w3.org/1999/xlink" xmlns:cpcb="http://www.danielwagenaar.net/cpcb-ns.html">
  <cpcb:part pkg="TSSOP-14" xmlns="http://www.danielwagenaar.net/cpcb-ns.html">
    <group ref="U?" pkg="TSSOP-14">
      <pad p="50000 490000" w="4500" h="14500" l="2" ref="1"/>
      <trace p1="45000 465000" p2="55000 460000" w="2540" l="1"/>
      <trace p1="95000 445000" p2="45000 445000" w="2540" l="1"/>
      <trace p1="95000 480000" p2="95000 445000" w="2540" l="1"/>
      <trace p1="45000 480000" p2="95000 480000" w="2540" l="1"/>
      <trace p1="45000 445000" p2="45000 480000" w="2540" l="1"/>
      <pad p="50000 434000" w="4500" h="14500" l="2" ref="14"/>
      <pad p="56500 434000" w="4500" h="14500" l="2" ref="13"/>
      <pad p="69500 434000" w="4500" h="14500" l="2" ref="11"/>
      <pad p="63000 434000" w="4500" h="14500" l="2" ref="12"/>
      <pad p="89000 434000" w="4500" h="14500" l="2" ref="8"/>
      <pad p="82500 434000" w="4500" h="14500" l="2" ref="9"/>
      <pad p="76000 434000" w="4500" h="14500" l="2" ref="10"/>
      <pad p="76000 490000" w="4500" h="14500" l="2" ref="5"/>
      <pad p="82500 490000" w="4500" h="14500" l="2" ref="6"/>
      <pad p="89000 490000" w="4500" h="14500" l="2" ref="7"/>
      <pad p="63000 490000" w="4500" h="14500" l="2" ref="3"/>
      <pad p="69500 490000" w="4500" h="14500" l="2" ref="4"/>
      <pad p="56500 490000" w="4500" h="14500" l="2" ref="2"/>
      <trace p1="55000 460000" p2="45000 455000" w="2540" l="1"/>
    </group>
    <text p="43730 411050" fs="12700" l="1" rot="0" text="U?"/>
  </cpcb:part>
<n1:title>PCB Component</n1:title>
<n1:desc>Generated by CPCB</n1:desc>
<n1:defs>
</n1:defs>
<n1:g fill="none" stroke="black" stroke-width="1" fill-rule="evenodd" stroke-linecap="square" stroke-linejoin="bevel">

<n1:g fill="#000000" fill-opacity="1" stroke="none" transform="matrix(1,0,0,1,-125.591,-1655.12)" font-family="Ubuntu" font-size="152.778" font-weight="400" font-style="normal">
<n1:rect x="125.591" y="1655.12" width="300" height="327.559"/>
</n1:g>

<n1:g fill="#ff0000" fill-opacity="1" stroke="none" transform="matrix(1,0,0,1,-125.591,-1655.12)" font-family="Ubuntu" font-size="152.778" font-weight="400" font-style="normal">
<n1:rect x="187.992" y="1900.59" width="17.7165" height="57.0866"/>
</n1:g>

<n1:g fill="#ff0000" fill-opacity="1" stroke="none" transform="matrix(1,0,0,1,-125.591,-1655.12)" font-family="Ubuntu" font-size="152.778" font-weight="400" font-style="normal">
<n1:rect x="187.992" y="1680.12" width="17.7165" height="57.0866"/>
</n1:g>

<n1:g fill="#ff0000" fill-opacity="1" stroke="none" transform="matrix(1,0,0,1,-125.591,-1655.12)" font-family="Ubuntu" font-size="152.778" font-weight="400" font-style="normal">
<n1:rect x="213.583" y="1680.12" width="17.7165" height="57.0866"/>
</n1:g>

<n1:g fill="#ff0000" fill-opacity="1" stroke="none" transform="matrix(1,0,0,1,-125.591,-1655.12)" font-family="Ubuntu" font-size="152.778" font-weight="400" font-style="normal">
<n1:rect x="264.764" y="1680.12" width="17.7165" height="57.0866"/>
</n1:g>

<n1:g fill="#ff0000" fill-opacity="1" stroke="none" transform="matrix(1,0,0,1,-125.591,-1655.12)" font-family="Ubuntu" font-size="152.778" font-weight="400" font-style="normal">
<n1:rect x="239.173" y="1680.12" width="17.7165" height="57.0866"/>
</n1:g>

<n1:g fill="#ff0000" fill-opacity="1" stroke="none" transform="matrix(1,0,0,1,-125.591,-1655.12)" font-family="Ubuntu" font-size="152.778" font-weight="400" font-style="normal">
<n1:rect x="341.535" y="1680.12" width="17.7165" height="57.0866"/>
</n1:g>

<n1:g fill="#ff0000" fill-opacity="1" stroke="none" transform="matrix(1,0,0,1,-125.591,-1655.12)" font-family="Ubuntu" font-size="152.778" font-weight="400" font-style="normal">
<n1:rect x="315.945" y="1680.12" width="17.7165" height="57.0866"/>
</n1:g>

<n1:g fill="#ff0000" fill-opacity="1" stroke="none" transform="matrix(1,0,0,1,-125.591,-1655.12)" font-family="Ubuntu" font-size="152.778" font-weight="400" font-style="normal">
<n1:rect x="290.354" y="1680.12" width="17.7165" height="57.0866"/>
</n1:g>

<n1:g fill="#ff0000" fill-opacity="1" stroke="none" transform="matrix(1,0,0,1,-125.591,-1655.12)" font-family="Ubuntu" font-size="152.778" font-weight="400" font-style="normal">
<n1:rect x="290.354" y="1900.59" width="17.7165" height="57.0866"/>
</n1:g>

<n1:g fill="#ff0000" fill-opacity="1" stroke="none" transform="matrix(1,0,0,1,-125.591,-1655.12)" font-family="Ubuntu" font-size="152.778" font-weight="400" font-style="normal">
<n1:rect x="315.945" y="1900.59" width="17.7165" height="57.0866"/>
</n1:g>

<n1:g fill="#ff0000" fill-opacity="1" stroke="none" transform="matrix(1,0,0,1,-125.591,-1655.12)" font-family="Ubuntu" font-size="152.778" font-weight="400" font-style="normal">
<n1:rect x="341.535" y="1900.59" width="17.7165" height="57.0866"/>
</n1:g>

<n1:g fill="#ff0000" fill-opacity="1" stroke="none" transform="matrix(1,0,0,1,-125.591,-1655.12)" font-family="Ubuntu" font-size="152.778" font-weight="400" font-style="normal">
<n1:rect x="239.173" y="1900.59" width="17.7165" height="57.0866"/>
</n1:g>

<n1:g fill="#ff0000" fill-opacity="1" stroke="none" transform="matrix(1,0,0,1,-125.591,-1655.12)" font-family="Ubuntu" font-size="152.778" font-weight="400" font-style="normal">
<n1:rect x="264.764" y="1900.59" width="17.7165" height="57.0866"/>
</n1:g>

<n1:g fill="#ff0000" fill-opacity="1" stroke="none" transform="matrix(1,0,0,1,-125.591,-1655.12)" font-family="Ubuntu" font-size="152.778" font-weight="400" font-style="normal">
<n1:rect x="213.583" y="1900.59" width="17.7165" height="57.0866"/>
</n1:g>

<n1:g fill="#ff0000" fill-opacity="1" stroke="#f0f000" stroke-opacity="1" stroke-width="10" stroke-linecap="round" stroke-linejoin="bevel" transform="matrix(1,0,0,1,-125.591,-1655.12)" font-family="Ubuntu" font-size="152.778" font-weight="400" font-style="normal">
<n1:polyline fill="none" vector-effect="none" points="177.165,1830.71 216.535,1811.02 "/>
<n1:polyline fill="none" vector-effect="none" points="374.016,1751.97 177.165,1751.97 "/>
<n1:polyline fill="none" vector-effect="none" points="374.016,1889.76 374.016,1751.97 "/>
<n1:polyline fill="none" vector-effect="none" points="177.165,1889.76 374.016,1889.76 "/>
<n1:polyline fill="none" vector-effect="none" points="177.165,1751.97 177.165,1889.76 "/>
<n1:polyline fill="none" vector-effect="none" points="216.535,1811.02 177.165,1791.34 "/>
</n1:g>
</n1:g>
</svg>
