<?xml version="1.0" encoding="UTF-8"?>
<svg width="111.252mm" height="86.2076mm" viewBox="0 0 437.953 339.37" version="1.2" baseProfile="tiny" xmlns:n1="http://www.w3.org/2000/svg" xmlns:xlink="http://www.w3.org/1999/xlink" xmlns:cpcb="http://www.danielwagenaar.net/cpcb-ns.html">
  <cpcb:part pkg="TSSOP-28" xmlns="http://www.danielwagenaar.net/cpcb-ns.html">
    <group ref="U?" pkg="TSSOP-28">
      <pad p="650000 300000" w="4500" h="14500" l="2" ref="1"/>
      <trace p1="645000 275000" p2="655000 270000" w="2540" l="1"/>
      <trace p1="741000 250000" p2="645000 250000" w="2540" l="1"/>
      <trace p1="645000 290000" p2="740000 290000" w="2540" l="1"/>
      <trace p1="645000 250000" p2="645000 290000" w="2540" l="1"/>
      <pad p="708500 241000" w="4500" h="14500" l="2" ref="19"/>
      <pad p="702000 241000" w="4500" h="14500" l="2" ref="20"/>
      <pad p="650000 241000" w="4500" h="14500" l="2" ref="28"/>
      <pad p="656500 241000" w="4500" h="14500" l="2" ref="27"/>
      <pad p="669500 241000" w="4500" h="14500" l="2" ref="25"/>
      <pad p="663000 241000" w="4500" h="14500" l="2" ref="26"/>
      <pad p="689000 241000" w="4500" h="14500" l="2" ref="22"/>
      <pad p="695500 241000" w="4500" h="14500" l="2" ref="21"/>
      <pad p="682500 241000" w="4500" h="14500" l="2" ref="23"/>
      <pad p="676000 241000" w="4500" h="14500" l="2" ref="24"/>
      <pad p="702000 300000" w="4500" h="14500" l="2" ref="9"/>
      <pad p="708500 300000" w="4500" h="14500" l="2" ref="10"/>
      <pad p="676000 300000" w="4500" h="14500" l="2" ref="5"/>
      <pad p="682500 300000" w="4500" h="14500" l="2" ref="6"/>
      <pad p="695500 300000" w="4500" h="14500" l="2" ref="8"/>
      <pad p="689000 300000" w="4500" h="14500" l="2" ref="7"/>
      <pad p="663000 300000" w="4500" h="14500" l="2" ref="3"/>
      <pad p="669500 300000" w="4500" h="14500" l="2" ref="4"/>
      <pad p="656500 300000" w="4500" h="14500" l="2" ref="2"/>
      <trace p1="655000 270000" p2="645000 265000" w="2540" l="1"/>
      <pad p="715000 300000" w="4500" h="14500" l="2" ref="11"/>
      <trace p1="741000 290000" p2="741000 250000" w="2540" l="1"/>
      <pad p="721500 300000" w="4500" h="14500" l="2" ref="12"/>
      <pad p="728000 241000" w="4500" h="14500" l="2" ref="16"/>
      <pad p="721500 241000" w="4500" h="14500" l="2" ref="17"/>
      <pad p="715000 241000" w="4500" h="14500" l="2" ref="18"/>
      <pad p="734500 300000" w="4500" h="14500" l="2" ref="14"/>
      <pad p="728000 300000" w="4500" h="14500" l="2" ref="13"/>
      <pad p="734500 241000" w="4500" h="14500" l="2" ref="15"/>
    </group>
    <text p="643730 221050" fs="12700" l="1" rot="0" text="U?"/>
  </cpcb:part>
<n1:title>PCB Component</n1:title>
<n1:desc>Generated by CPCB</n1:desc>
<n1:defs>
</n1:defs>
<n1:g fill="none" stroke="black" stroke-width="1" fill-rule="evenodd" stroke-linecap="square" stroke-linejoin="bevel">

<n1:g fill="#000000" fill-opacity="1" stroke="none" transform="matrix(1,0,0,1,-2509.37,-895.276)" font-family="Ubuntu" font-size="152.778" font-weight="400" font-style="normal">
<n1:rect x="2509.37" y="895.276" width="437.953" height="339.37"/>
</n1:g>

<n1:g fill="#ff0000" fill-opacity="1" stroke="none" transform="matrix(1,0,0,1,-2509.37,-895.276)" font-family="Ubuntu" font-size="152.778" font-weight="400" font-style="normal">
<n1:rect x="2550.2" y="1152.56" width="17.7165" height="57.0866"/>
</n1:g>

<n1:g fill="#ff0000" fill-opacity="1" stroke="none" transform="matrix(1,0,0,1,-2509.37,-895.276)" font-family="Ubuntu" font-size="152.778" font-weight="400" font-style="normal">
<n1:rect x="2780.51" y="920.276" width="17.7165" height="57.0866"/>
</n1:g>

<n1:g fill="#ff0000" fill-opacity="1" stroke="none" transform="matrix(1,0,0,1,-2509.37,-895.276)" font-family="Ubuntu" font-size="152.778" font-weight="400" font-style="normal">
<n1:rect x="2754.92" y="920.276" width="17.7165" height="57.0866"/>
</n1:g>

<n1:g fill="#ff0000" fill-opacity="1" stroke="none" transform="matrix(1,0,0,1,-2509.37,-895.276)" font-family="Ubuntu" font-size="152.778" font-weight="400" font-style="normal">
<n1:rect x="2550.2" y="920.276" width="17.7165" height="57.0866"/>
</n1:g>

<n1:g fill="#ff0000" fill-opacity="1" stroke="none" transform="matrix(1,0,0,1,-2509.37,-895.276)" font-family="Ubuntu" font-size="152.778" font-weight="400" font-style="normal">
<n1:rect x="2575.79" y="920.276" width="17.7165" height="57.0866"/>
</n1:g>

<n1:g fill="#ff0000" fill-opacity="1" stroke="none" transform="matrix(1,0,0,1,-2509.37,-895.276)" font-family="Ubuntu" font-size="152.778" font-weight="400" font-style="normal">
<n1:rect x="2626.97" y="920.276" width="17.7165" height="57.0866"/>
</n1:g>

<n1:g fill="#ff0000" fill-opacity="1" stroke="none" transform="matrix(1,0,0,1,-2509.37,-895.276)" font-family="Ubuntu" font-size="152.778" font-weight="400" font-style="normal">
<n1:rect x="2601.38" y="920.276" width="17.7165" height="57.0866"/>
</n1:g>

<n1:g fill="#ff0000" fill-opacity="1" stroke="none" transform="matrix(1,0,0,1,-2509.37,-895.276)" font-family="Ubuntu" font-size="152.778" font-weight="400" font-style="normal">
<n1:rect x="2703.74" y="920.276" width="17.7165" height="57.0866"/>
</n1:g>

<n1:g fill="#ff0000" fill-opacity="1" stroke="none" transform="matrix(1,0,0,1,-2509.37,-895.276)" font-family="Ubuntu" font-size="152.778" font-weight="400" font-style="normal">
<n1:rect x="2729.33" y="920.276" width="17.7165" height="57.0866"/>
</n1:g>

<n1:g fill="#ff0000" fill-opacity="1" stroke="none" transform="matrix(1,0,0,1,-2509.37,-895.276)" font-family="Ubuntu" font-size="152.778" font-weight="400" font-style="normal">
<n1:rect x="2678.15" y="920.276" width="17.7165" height="57.0866"/>
</n1:g>

<n1:g fill="#ff0000" fill-opacity="1" stroke="none" transform="matrix(1,0,0,1,-2509.37,-895.276)" font-family="Ubuntu" font-size="152.778" font-weight="400" font-style="normal">
<n1:rect x="2652.56" y="920.276" width="17.7165" height="57.0866"/>
</n1:g>

<n1:g fill="#ff0000" fill-opacity="1" stroke="none" transform="matrix(1,0,0,1,-2509.37,-895.276)" font-family="Ubuntu" font-size="152.778" font-weight="400" font-style="normal">
<n1:rect x="2754.92" y="1152.56" width="17.7165" height="57.0866"/>
</n1:g>

<n1:g fill="#ff0000" fill-opacity="1" stroke="none" transform="matrix(1,0,0,1,-2509.37,-895.276)" font-family="Ubuntu" font-size="152.778" font-weight="400" font-style="normal">
<n1:rect x="2780.51" y="1152.56" width="17.7165" height="57.0866"/>
</n1:g>

<n1:g fill="#ff0000" fill-opacity="1" stroke="none" transform="matrix(1,0,0,1,-2509.37,-895.276)" font-family="Ubuntu" font-size="152.778" font-weight="400" font-style="normal">
<n1:rect x="2652.56" y="1152.56" width="17.7165" height="57.0866"/>
</n1:g>

<n1:g fill="#ff0000" fill-opacity="1" stroke="none" transform="matrix(1,0,0,1,-2509.37,-895.276)" font-family="Ubuntu" font-size="152.778" font-weight="400" font-style="normal">
<n1:rect x="2678.15" y="1152.56" width="17.7165" height="57.0866"/>
</n1:g>

<n1:g fill="#ff0000" fill-opacity="1" stroke="none" transform="matrix(1,0,0,1,-2509.37,-895.276)" font-family="Ubuntu" font-size="152.778" font-weight="400" font-style="normal">
<n1:rect x="2729.33" y="1152.56" width="17.7165" height="57.0866"/>
</n1:g>

<n1:g fill="#ff0000" fill-opacity="1" stroke="none" transform="matrix(1,0,0,1,-2509.37,-895.276)" font-family="Ubuntu" font-size="152.778" font-weight="400" font-style="normal">
<n1:rect x="2703.74" y="1152.56" width="17.7165" height="57.0866"/>
</n1:g>

<n1:g fill="#ff0000" fill-opacity="1" stroke="none" transform="matrix(1,0,0,1,-2509.37,-895.276)" font-family="Ubuntu" font-size="152.778" font-weight="400" font-style="normal">
<n1:rect x="2601.38" y="1152.56" width="17.7165" height="57.0866"/>
</n1:g>

<n1:g fill="#ff0000" fill-opacity="1" stroke="none" transform="matrix(1,0,0,1,-2509.37,-895.276)" font-family="Ubuntu" font-size="152.778" font-weight="400" font-style="normal">
<n1:rect x="2626.97" y="1152.56" width="17.7165" height="57.0866"/>
</n1:g>

<n1:g fill="#ff0000" fill-opacity="1" stroke="none" transform="matrix(1,0,0,1,-2509.37,-895.276)" font-family="Ubuntu" font-size="152.778" font-weight="400" font-style="normal">
<n1:rect x="2575.79" y="1152.56" width="17.7165" height="57.0866"/>
</n1:g>

<n1:g fill="#ff0000" fill-opacity="1" stroke="none" transform="matrix(1,0,0,1,-2509.37,-895.276)" font-family="Ubuntu" font-size="152.778" font-weight="400" font-style="normal">
<n1:rect x="2806.1" y="1152.56" width="17.7165" height="57.0866"/>
</n1:g>

<n1:g fill="#ff0000" fill-opacity="1" stroke="none" transform="matrix(1,0,0,1,-2509.37,-895.276)" font-family="Ubuntu" font-size="152.778" font-weight="400" font-style="normal">
<n1:rect x="2831.69" y="1152.56" width="17.7165" height="57.0866"/>
</n1:g>

<n1:g fill="#ff0000" fill-opacity="1" stroke="none" transform="matrix(1,0,0,1,-2509.37,-895.276)" font-family="Ubuntu" font-size="152.778" font-weight="400" font-style="normal">
<n1:rect x="2857.28" y="920.276" width="17.7165" height="57.0866"/>
</n1:g>

<n1:g fill="#ff0000" fill-opacity="1" stroke="none" transform="matrix(1,0,0,1,-2509.37,-895.276)" font-family="Ubuntu" font-size="152.778" font-weight="400" font-style="normal">
<n1:rect x="2831.69" y="920.276" width="17.7165" height="57.0866"/>
</n1:g>

<n1:g fill="#ff0000" fill-opacity="1" stroke="none" transform="matrix(1,0,0,1,-2509.37,-895.276)" font-family="Ubuntu" font-size="152.778" font-weight="400" font-style="normal">
<n1:rect x="2806.1" y="920.276" width="17.7165" height="57.0866"/>
</n1:g>

<n1:g fill="#ff0000" fill-opacity="1" stroke="none" transform="matrix(1,0,0,1,-2509.37,-895.276)" font-family="Ubuntu" font-size="152.778" font-weight="400" font-style="normal">
<n1:rect x="2882.87" y="1152.56" width="17.7165" height="57.0866"/>
</n1:g>

<n1:g fill="#ff0000" fill-opacity="1" stroke="none" transform="matrix(1,0,0,1,-2509.37,-895.276)" font-family="Ubuntu" font-size="152.778" font-weight="400" font-style="normal">
<n1:rect x="2857.28" y="1152.56" width="17.7165" height="57.0866"/>
</n1:g>

<n1:g fill="#ff0000" fill-opacity="1" stroke="none" transform="matrix(1,0,0,1,-2509.37,-895.276)" font-family="Ubuntu" font-size="152.778" font-weight="400" font-style="normal">
<n1:rect x="2882.87" y="920.276" width="17.7165" height="57.0866"/>
</n1:g>

<n1:g fill="#ff0000" fill-opacity="1" stroke="#f0f000" stroke-opacity="1" stroke-width="10" stroke-linecap="round" stroke-linejoin="bevel" transform="matrix(1,0,0,1,-2509.37,-895.276)" font-family="Ubuntu" font-size="152.778" font-weight="400" font-style="normal">
<n1:polyline fill="none" vector-effect="none" points="2539.37,1082.68 2578.74,1062.99 "/>
<n1:polyline fill="none" vector-effect="none" points="2917.32,984.252 2539.37,984.252 "/>
<n1:polyline fill="none" vector-effect="none" points="2539.37,1141.73 2913.39,1141.73 "/>
<n1:polyline fill="none" vector-effect="none" points="2539.37,984.252 2539.37,1141.73 "/>
<n1:polyline fill="none" vector-effect="none" points="2578.74,1062.99 2539.37,1043.31 "/>
<n1:polyline fill="none" vector-effect="none" points="2917.32,1141.73 2917.32,984.252 "/>
</n1:g>
</n1:g>
</svg>
