<?xml version="1.0" encoding="UTF-8"?>
<svg width="12.7mm" height="12.7mm" viewBox="0 0 500 500" version="1.2" baseProfile="tiny" xmlns:n1="http://www.w3.org/2000/svg" xmlns:xlink="http://www.w3.org/1999/xlink" xmlns:cpcb="http://www.danielwagenaar.net/cpcb-ns.html">
  <cpcb:part pkg="TO-220" xmlns="http://www.danielwagenaar.net/cpcb-ns.html">
    <group ref="Q?">
      <hole p="812800 292100" id="11430" od="19050" sq="1" ref="1"/>
      <hole p="863600 292100" id="11430" od="17780" sq="0" ref="3"/>
      <hole p="838200 292100" id="11430" od="17780" sq="0" ref="2"/>
      <trace p1="876300 273050" p2="800100 273050" w="2540" l="1"/>
      <trace p1="876300 304800" p2="876300 273050" w="2540" l="1"/>
      <trace p1="800100 304800" p2="876300 304800" w="2540" l="1"/>
      <trace p1="800100 273050" p2="800100 279400" w="2540" l="1"/>
      <trace p1="800100 279400" p2="800100 304800" w="2540" l="1"/>
      <trace p1="800100 279400" p2="876300 279400" w="2540" l="1"/>
      <trace p1="800862 276860" p2="875284 277114" w="2540" l="1"/>
      <trace p1="800862 274828" p2="876046 274574" w="2540" l="1"/>
    </group>
    <text p="798830 259080" fs="12700" l="1" rot="0" text="Q?"/>
  </cpcb:part>
<n1:title>PCB Component</n1:title>
<n1:desc>Generated by CPCB</n1:desc>
<n1:defs>
</n1:defs>
<n1:g fill="none" stroke="black" stroke-width="1" fill-rule="evenodd" stroke-linecap="square" stroke-linejoin="bevel">

<n1:g fill="#000000" fill-opacity="1" stroke="none" transform="matrix(1,0,0,1,-3050,-887.5)" font-family="Sans" font-size="152.778" font-weight="400" font-style="normal">
<n1:rect x="3050" y="887.5" width="500" height="500"/>
</n1:g>

<n1:g fill="#000000" fill-opacity="1" stroke="#00b400" stroke-opacity="1" stroke-width="75" stroke-linecap="butt" stroke-linejoin="bevel" transform="matrix(1,0,0,1,-3050,-887.5)" font-family="Sans" font-size="152.778" font-weight="400" font-style="normal">
<n1:polyline fill="none" vector-effect="none" points="3163,1150 3237,1150 "/>
</n1:g>

<n1:g fill="#00b400" fill-opacity="1" stroke="none" transform="matrix(1,0,0,1,-3050,-887.5)" font-family="Sans" font-size="152.778" font-weight="400" font-style="normal">
<n1:circle cx="3400" cy="1150" r="35"/>
</n1:g>

<n1:g fill="#00b400" fill-opacity="1" stroke="none" transform="matrix(1,0,0,1,-3050,-887.5)" font-family="Sans" font-size="152.778" font-weight="400" font-style="normal">
<n1:circle cx="3300" cy="1150" r="35"/>
</n1:g>

<n1:g fill="#00b400" fill-opacity="1" stroke="#ff0000" stroke-opacity="1" stroke-width="75" stroke-linecap="butt" stroke-linejoin="bevel" transform="matrix(1,0,0,1,-3050,-887.5)" font-family="Sans" font-size="152.778" font-weight="400" font-style="normal">
<n1:polyline fill="none" vector-effect="none" points="3163,1150 3237,1150 "/>
</n1:g>

<n1:g fill="#ff0000" fill-opacity="1" stroke="none" transform="matrix(1,0,0,1,-3050,-887.5)" font-family="Sans" font-size="152.778" font-weight="400" font-style="normal">
<n1:circle cx="3400" cy="1150" r="35"/>
</n1:g>

<n1:g fill="#ff0000" fill-opacity="1" stroke="none" transform="matrix(1,0,0,1,-3050,-887.5)" font-family="Sans" font-size="152.778" font-weight="400" font-style="normal">
<n1:circle cx="3300" cy="1150" r="35"/>
</n1:g>

<n1:g fill="#000000" fill-opacity="1" stroke="none" transform="matrix(1,0,0,1,-3050,-887.5)" font-family="Sans" font-size="152.778" font-weight="400" font-style="normal">
<n1:circle cx="3200" cy="1150" r="22.5"/>
</n1:g>

<n1:g fill="#000000" fill-opacity="1" stroke="none" transform="matrix(1,0,0,1,-3050,-887.5)" font-family="Sans" font-size="152.778" font-weight="400" font-style="normal">
<n1:circle cx="3400" cy="1150" r="22.5"/>
</n1:g>

<n1:g fill="#000000" fill-opacity="1" stroke="none" transform="matrix(1,0,0,1,-3050,-887.5)" font-family="Sans" font-size="152.778" font-weight="400" font-style="normal">
<n1:circle cx="3300" cy="1150" r="22.5"/>
</n1:g>

<n1:g fill="#000000" fill-opacity="1" stroke="#f0f000" stroke-opacity="1" stroke-width="10" stroke-linecap="round" stroke-linejoin="bevel" transform="matrix(1,0,0,1,-3050,-887.5)" font-family="Sans" font-size="152.778" font-weight="400" font-style="normal">
<n1:polyline fill="none" vector-effect="none" points="3450,1075 3150,1075 "/>
<n1:polyline fill="none" vector-effect="none" points="3450,1200 3450,1075 "/>
<n1:polyline fill="none" vector-effect="none" points="3150,1200 3450,1200 "/>
<n1:polyline fill="none" vector-effect="none" points="3150,1075 3150,1100 "/>
<n1:polyline fill="none" vector-effect="none" points="3150,1100 3150,1200 "/>
<n1:polyline fill="none" vector-effect="none" points="3150,1100 3450,1100 "/>
<n1:polyline fill="none" vector-effect="none" points="3153,1090 3446,1091 "/>
<n1:polyline fill="none" vector-effect="none" points="3153,1082 3449,1081 "/>
</n1:g>
</n1:g>
</svg>
