<?xml version="1.0" encoding="UTF-8"?>
<svg width="76.2mm" height="76.2mm" viewBox="0 0 300 300" version="1.2" baseProfile="tiny" xmlns:n1="http://www.w3.org/2000/svg" xmlns:xlink="http://www.w3.org/1999/xlink" xmlns:cpcb="http://www.danielwagenaar.net/cpcb-ns.html">
  <cpcb:part pkg="VSSOP-8-PowerPad" xmlns="http://www.danielwagenaar.net/cpcb-ns.html">
    <group ref="U?" pkg="VSSOP-8-PowerPad">
      <pad p="1324373 848127" w="14000" h="4000" l="2" ref="2"/>
      <pad p="1324373 841627" w="14000" h="4000" l="2" ref="1"/>
      <arc p="1346579 832227" r="6350" lw="2540" l="1" ang="180" rota="90"/>
      <trace p1="1362873 832227" p2="1353000 832229" w="2540" l="1"/>
      <trace p1="1330215 832229" p2="1340100 832200" w="2540" l="1"/>
      <trace p1="1330215 868127" p2="1330215 832229" w="2540" l="1"/>
      <trace p1="1362873 868127" p2="1330215 868127" w="2540" l="1"/>
      <trace p1="1362873 832227" p2="1362873 868127" w="2540" l="1"/>
      <pad p="1368373 861127" w="14000" h="4000" l="2" ref="5"/>
      <pad p="1368373 848127" w="14000" h="4000" l="2" ref="7"/>
      <pad p="1368373 854627" w="14000" h="4000" l="2" ref="6"/>
      <pad p="1368373 841627" w="14000" h="4000" l="2" ref="8"/>
      <pad p="1324373 861127" w="14000" h="4000" l="2" ref="4"/>
      <pad p="1324373 854627" w="14000" h="4000" l="2" ref="3"/>
      <pad p="1346373 851627" w="18800" h="19800" l="2" ref=""/>
      <pad p="1346373 851627" w="30000" h="40000" l="3" ref=""/>
      <hole p="1340373 845627" id="2200" od="6010" ref="" rot="90"/>
      <hole p="1340373 856627" id="2200" od="6010" ref="" rot="90"/>
      <hole p="1352373 856627" id="2200" od="6010" ref="" rot="90"/>
      <hole p="1352373 845627" id="2200" od="6010" ref="X?" rot="90"/>
    </group>
    <text p="1334783 882983" fs="12700" l="1" rot="0" text="U?"/>
  </cpcb:part>
<n1:title>PCB Component</n1:title>
<n1:desc>Generated by CPCB</n1:desc>
<n1:defs>
</n1:defs>
<n1:g fill="none" stroke="black" stroke-width="1" fill-rule="evenodd" stroke-linecap="square" stroke-linejoin="bevel">

<n1:g fill="#000000" fill-opacity="1" stroke="none" transform="matrix(1,0,0,1,-5150.68,-3201.49)" font-family="Noto Sans, " font-size="152.778" font-weight="400" font-style="normal">
<n1:rect x="5150.68" y="3201.49" width="300" height="300"/>
</n1:g>

<n1:g fill="#00b400" fill-opacity="1" stroke="none" transform="matrix(1,0,0,1,-5150.68,-3201.49)" font-family="Noto Sans, " font-size="152.778" font-weight="400" font-style="normal">
<n1:rect x="5241.63" y="3274.12" width="118.11" height="157.48"/>
</n1:g>

<n1:g fill="#00b400" fill-opacity="1" stroke="none" transform="matrix(1,0,0,1,-5150.68,-3201.49)" font-family="Noto Sans, " font-size="152.778" font-weight="400" font-style="normal">
<n1:circle cx="5277.06" cy="3329.24" r="11.8307"/>
</n1:g>

<n1:g fill="#00b400" fill-opacity="1" stroke="none" transform="matrix(1,0,0,1,-5150.68,-3201.49)" font-family="Noto Sans, " font-size="152.778" font-weight="400" font-style="normal">
<n1:circle cx="5277.06" cy="3372.55" r="11.8307"/>
</n1:g>

<n1:g fill="#00b400" fill-opacity="1" stroke="none" transform="matrix(1,0,0,1,-5150.68,-3201.49)" font-family="Noto Sans, " font-size="152.778" font-weight="400" font-style="normal">
<n1:circle cx="5324.3" cy="3372.55" r="11.8307"/>
</n1:g>

<n1:g fill="#00b400" fill-opacity="1" stroke="none" transform="matrix(1,0,0,1,-5150.68,-3201.49)" font-family="Noto Sans, " font-size="152.778" font-weight="400" font-style="normal">
<n1:circle cx="5324.3" cy="3329.24" r="11.8307"/>
</n1:g>

<n1:g fill="#ff0000" fill-opacity="1" stroke="none" transform="matrix(1,0,0,1,-5150.68,-3201.49)" font-family="Noto Sans, " font-size="152.778" font-weight="400" font-style="normal">
<n1:rect x="5186.51" y="3331.21" width="55.1181" height="15.748"/>
</n1:g>

<n1:g fill="#ff0000" fill-opacity="1" stroke="none" transform="matrix(1,0,0,1,-5150.68,-3201.49)" font-family="Noto Sans, " font-size="152.778" font-weight="400" font-style="normal">
<n1:rect x="5186.51" y="3305.62" width="55.1181" height="15.748"/>
</n1:g>

<n1:g fill="#ff0000" fill-opacity="1" stroke="none" transform="matrix(1,0,0,1,-5150.68,-3201.49)" font-family="Noto Sans, " font-size="152.778" font-weight="400" font-style="normal">
<n1:rect x="5359.74" y="3382.39" width="55.1181" height="15.748"/>
</n1:g>

<n1:g fill="#ff0000" fill-opacity="1" stroke="none" transform="matrix(1,0,0,1,-5150.68,-3201.49)" font-family="Noto Sans, " font-size="152.778" font-weight="400" font-style="normal">
<n1:rect x="5359.74" y="3331.21" width="55.1181" height="15.748"/>
</n1:g>

<n1:g fill="#ff0000" fill-opacity="1" stroke="none" transform="matrix(1,0,0,1,-5150.68,-3201.49)" font-family="Noto Sans, " font-size="152.778" font-weight="400" font-style="normal">
<n1:rect x="5359.74" y="3356.8" width="55.1181" height="15.748"/>
</n1:g>

<n1:g fill="#ff0000" fill-opacity="1" stroke="none" transform="matrix(1,0,0,1,-5150.68,-3201.49)" font-family="Noto Sans, " font-size="152.778" font-weight="400" font-style="normal">
<n1:rect x="5359.74" y="3305.62" width="55.1181" height="15.748"/>
</n1:g>

<n1:g fill="#ff0000" fill-opacity="1" stroke="none" transform="matrix(1,0,0,1,-5150.68,-3201.49)" font-family="Noto Sans, " font-size="152.778" font-weight="400" font-style="normal">
<n1:rect x="5186.51" y="3382.39" width="55.1181" height="15.748"/>
</n1:g>

<n1:g fill="#ff0000" fill-opacity="1" stroke="none" transform="matrix(1,0,0,1,-5150.68,-3201.49)" font-family="Noto Sans, " font-size="152.778" font-weight="400" font-style="normal">
<n1:rect x="5186.51" y="3356.8" width="55.1181" height="15.748"/>
</n1:g>

<n1:g fill="#ff0000" fill-opacity="1" stroke="none" transform="matrix(1,0,0,1,-5150.68,-3201.49)" font-family="Noto Sans, " font-size="152.778" font-weight="400" font-style="normal">
<n1:rect x="5263.67" y="3313.89" width="74.0157" height="77.9528"/>
</n1:g>

<n1:g fill="#ff0000" fill-opacity="1" stroke="none" transform="matrix(1,0,0,1,-5150.68,-3201.49)" font-family="Noto Sans, " font-size="152.778" font-weight="400" font-style="normal">
<n1:circle cx="5277.06" cy="3329.24" r="11.8307"/>
</n1:g>

<n1:g fill="#ff0000" fill-opacity="1" stroke="none" transform="matrix(1,0,0,1,-5150.68,-3201.49)" font-family="Noto Sans, " font-size="152.778" font-weight="400" font-style="normal">
<n1:circle cx="5277.06" cy="3372.55" r="11.8307"/>
</n1:g>

<n1:g fill="#ff0000" fill-opacity="1" stroke="none" transform="matrix(1,0,0,1,-5150.68,-3201.49)" font-family="Noto Sans, " font-size="152.778" font-weight="400" font-style="normal">
<n1:circle cx="5324.3" cy="3372.55" r="11.8307"/>
</n1:g>

<n1:g fill="#ff0000" fill-opacity="1" stroke="none" transform="matrix(1,0,0,1,-5150.68,-3201.49)" font-family="Noto Sans, " font-size="152.778" font-weight="400" font-style="normal">
<n1:circle cx="5324.3" cy="3329.24" r="11.8307"/>
</n1:g>

<n1:g fill="#ffffff" fill-opacity="1" stroke="none" transform="matrix(1,0,0,1,-5150.68,-3201.49)" font-family="Noto Sans, " font-size="152.778" font-weight="400" font-style="normal">
<n1:circle cx="5277.06" cy="3329.24" r="4.33071"/>
</n1:g>

<n1:g fill="#ffffff" fill-opacity="1" stroke="none" transform="matrix(1,0,0,1,-5150.68,-3201.49)" font-family="Noto Sans, " font-size="152.778" font-weight="400" font-style="normal">
<n1:circle cx="5277.06" cy="3372.55" r="4.33071"/>
</n1:g>

<n1:g fill="#ffffff" fill-opacity="1" stroke="none" transform="matrix(1,0,0,1,-5150.68,-3201.49)" font-family="Noto Sans, " font-size="152.778" font-weight="400" font-style="normal">
<n1:circle cx="5324.3" cy="3372.55" r="4.33071"/>
</n1:g>

<n1:g fill="#ffffff" fill-opacity="1" stroke="none" transform="matrix(1,0,0,1,-5150.68,-3201.49)" font-family="Noto Sans, " font-size="152.778" font-weight="400" font-style="normal">
<n1:circle cx="5324.3" cy="3329.24" r="4.33071"/>
</n1:g>

<n1:g fill="none" stroke="#f0f000" stroke-opacity="1" stroke-width="10" stroke-linecap="round" stroke-linejoin="bevel" transform="matrix(1,0,0,1,-5150.68,-3201.49)" font-family="Noto Sans, " font-size="152.778" font-weight="400" font-style="normal">
<n1:path vector-effect="none" fill-rule="evenodd" d="M5276.49,3276.48 C5276.49,3290.29 5287.69,3301.48 5301.49,3301.48 C5315.3,3301.48 5326.49,3290.29 5326.49,3276.48 "/>
<n1:polyline fill="none" vector-effect="none" points="5365.64,3276.48 5326.77,3276.49 "/>
<n1:polyline fill="none" vector-effect="none" points="5237.07,3276.49 5275.98,3276.38 "/>
<n1:polyline fill="none" vector-effect="none" points="5237.07,3417.82 5237.07,3276.49 "/>
<n1:polyline fill="none" vector-effect="none" points="5365.64,3417.82 5237.07,3417.82 "/>
<n1:polyline fill="none" vector-effect="none" points="5365.64,3276.48 5365.64,3417.82 "/>
</n1:g>
</n1:g>
</svg>
