<?xml version="1.0" encoding="UTF-8"?>
<svg width="12.7mm" height="12.7mm" viewBox="0 0 500 500" version="1.2" baseProfile="tiny" xmlns:n1="http://www.w3.org/2000/svg" xmlns:xlink="http://www.w3.org/1999/xlink" xmlns:cpcb="http://www.danielwagenaar.net/cpcb-ns.html">
  <cpcb:part pkg="LED-2mm" xmlns="http://www.danielwagenaar.net/cpcb-ns.html">
    <group ref="D?">
      <pad p="512000 435000" w="9000" h="6000" l="2" ref="2/K" ell="1"/>
      <nphole p="486000 435000" d="20000"/>
      <pad p="460000 435000" w="9000" h="6000" l="2" ref="1/A" ell="1"/>
      <trace p1="505000 435000" p2="497000 435000" w="2500" l="1"/>
      <trace p1="497000 430000" p2="497000 440000" w="2500" l="1"/>
      <trace p1="470000 440000" p2="475000 435000" w="2500" l="1"/>
      <trace p1="475000 435000" p2="470000 430000" w="2500" l="1"/>
      <trace p1="467000 435000" p2="470000 435000" w="2500" l="1"/>
      <trace p1="470000 430000" p2="470000 440000" w="2500" l="1"/>
    </group>
    <text p="477000 412300" fs="12700" l="1" rot="0" text="D?"/>
  </cpcb:part>
<n1:title>PCB Component</n1:title>
<n1:desc>Generated by CPCB</n1:desc>
<n1:defs>
</n1:defs>
<n1:g fill="none" stroke="black" stroke-width="1" fill-rule="evenodd" stroke-linecap="square" stroke-linejoin="bevel">

<n1:g fill="#000000" fill-opacity="1" stroke="none" transform="matrix(1,0,0,1,-1663.39,-1462.6)" font-family="Sans" font-size="152.778" font-weight="400" font-style="normal">
<n1:rect x="1663.39" y="1462.6" width="500" height="500"/>
</n1:g>

<n1:g fill="#ff0000" fill-opacity="1" stroke="none" transform="matrix(1,0,0,1,-1663.39,-1462.6)" font-family="Sans" font-size="152.778" font-weight="400" font-style="normal">
<n1:rect x="1998.03" y="1700.79" width="35.4331" height="23.622"/>
</n1:g>

<n1:g fill="#ff0000" fill-opacity="1" stroke="none" transform="matrix(1,0,0,1,-1663.39,-1462.6)" font-family="Sans" font-size="152.778" font-weight="400" font-style="normal">
<n1:rect x="1793.31" y="1700.79" width="35.4331" height="23.622"/>
</n1:g>

<n1:g fill="#ffffff" fill-opacity="1" stroke="none" transform="matrix(1,0,0,1,-1663.39,-1462.6)" font-family="Sans" font-size="152.778" font-weight="400" font-style="normal">
<n1:circle cx="1913.39" cy="1712.6" r="39.3701"/>
</n1:g>

<n1:g fill="#ffffff" fill-opacity="1" stroke="#787878" stroke-opacity="1" stroke-width="8" stroke-linecap="butt" stroke-linejoin="bevel" transform="matrix(1,0,0,1,-1663.39,-1462.6)" font-family="Sans" font-size="152.778" font-weight="400" font-style="normal">
<n1:polyline fill="none" vector-effect="none" points="1916.17,1715.38 1938.44,1737.65 "/>
<n1:polyline fill="none" vector-effect="none" points="1910.6,1715.38 1888.33,1737.65 "/>
<n1:polyline fill="none" vector-effect="none" points="1910.6,1709.81 1888.33,1687.54 "/>
<n1:polyline fill="none" vector-effect="none" points="1916.17,1709.81 1938.44,1687.54 "/>
</n1:g>

<n1:g fill="#ffffff" fill-opacity="1" stroke="#f0f000" stroke-opacity="1" stroke-width="9.84252" stroke-linecap="round" stroke-linejoin="bevel" transform="matrix(1,0,0,1,-1663.39,-1462.6)" font-family="Sans" font-size="152.778" font-weight="400" font-style="normal">
<n1:polyline fill="none" vector-effect="none" points="1988.19,1712.6 1956.69,1712.6 "/>
<n1:polyline fill="none" vector-effect="none" points="1956.69,1692.91 1956.69,1732.28 "/>
<n1:polyline fill="none" vector-effect="none" points="1850.39,1732.28 1870.08,1712.6 "/>
<n1:polyline fill="none" vector-effect="none" points="1870.08,1712.6 1850.39,1692.91 "/>
<n1:polyline fill="none" vector-effect="none" points="1838.58,1712.6 1850.39,1712.6 "/>
<n1:polyline fill="none" vector-effect="none" points="1850.39,1692.91 1850.39,1732.28 "/>
</n1:g>
</n1:g>
</svg>
