<?xml version="1.0" encoding="UTF-8"?>
<svg width="12.7mm" height="12.7mm" viewBox="0 0 500 500" version="1.2" baseProfile="tiny" xmlns:n1="http://www.w3.org/2000/svg" xmlns:xlink="http://www.w3.org/1999/xlink" xmlns:cpcb="http://www.danielwagenaar.net/cpcb-ns.html">
  <cpcb:part pkg="SOIC-8" xmlns="http://www.danielwagenaar.net/cpcb-ns.html">
    <group ref="U?" pkg="SOIC-8">
      <pad p="295330 213680" w="6000" h="15500" l="2" ref="2" ell="1"/>
      <pad p="282630 213680" w="6000" h="15500" l="2" ref="1" ell="1"/>
      <arc p="273230 186280" r="6350" lw="2540" l="1" ang="180" rota="0"/>
      <trace p1="273230 147680" p2="273230 179980" w="2540" l="1"/>
      <trace p1="273230 226280" p2="273230 192580" w="2540" l="1"/>
      <trace p1="329130 226280" p2="273230 226280" w="2540" l="1"/>
      <trace p1="329130 147680" p2="329130 226280" w="2540" l="1"/>
      <trace p1="273230 147680" p2="329130 147680" w="2540" l="1"/>
      <pad p="320730 159680" w="6000" h="15500" l="2" ref="5" ell="1"/>
      <pad p="295330 159680" w="6000" h="15500" l="2" ref="7" ell="1"/>
      <pad p="308030 159680" w="6000" h="15500" l="2" ref="6" ell="1"/>
      <pad p="282630 159680" w="6000" h="15500" l="2" ref="8" ell="1"/>
      <pad p="320730 213680" w="6000" h="15500" l="2" ref="4" ell="1"/>
      <pad p="308030 213680" w="6000" h="15500" l="2" ref="3" ell="1"/>
    </group>
    <text p="278813 237983" fs="12700" l="1" rot="0" text="U?"/>
  </cpcb:part>
<n1:title>PCB Component</n1:title>
<n1:desc>Generated by CPCB</n1:desc>
<n1:defs>
</n1:defs>
<n1:g fill="none" stroke="black" stroke-width="1" fill-rule="evenodd" stroke-linecap="square" stroke-linejoin="bevel">

<n1:g fill="#000000" fill-opacity="1" stroke="none" transform="matrix(1,0,0,1,-935.728,-486.142)" font-family="Sans" font-size="152.778" font-weight="400" font-style="normal">
<n1:rect x="935.728" y="486.142" width="500" height="500"/>
</n1:g>

<n1:g fill="#ff0000" fill-opacity="1" stroke="none" transform="matrix(1,0,0,1,-935.728,-486.142)" font-family="Sans" font-size="152.778" font-weight="400" font-style="normal">
<n1:rect x="1150.91" y="810.748" width="23.622" height="61.0236"/>
</n1:g>

<n1:g fill="#ff0000" fill-opacity="1" stroke="none" transform="matrix(1,0,0,1,-935.728,-486.142)" font-family="Sans" font-size="152.778" font-weight="400" font-style="normal">
<n1:rect x="1100.91" y="810.748" width="23.622" height="61.0236"/>
</n1:g>

<n1:g fill="#ff0000" fill-opacity="1" stroke="none" transform="matrix(1,0,0,1,-935.728,-486.142)" font-family="Sans" font-size="152.778" font-weight="400" font-style="normal">
<n1:rect x="1250.91" y="598.15" width="23.622" height="61.0236"/>
</n1:g>

<n1:g fill="#ff0000" fill-opacity="1" stroke="none" transform="matrix(1,0,0,1,-935.728,-486.142)" font-family="Sans" font-size="152.778" font-weight="400" font-style="normal">
<n1:rect x="1150.91" y="598.15" width="23.622" height="61.0236"/>
</n1:g>

<n1:g fill="#ff0000" fill-opacity="1" stroke="none" transform="matrix(1,0,0,1,-935.728,-486.142)" font-family="Sans" font-size="152.778" font-weight="400" font-style="normal">
<n1:rect x="1200.91" y="598.15" width="23.622" height="61.0236"/>
</n1:g>

<n1:g fill="#ff0000" fill-opacity="1" stroke="none" transform="matrix(1,0,0,1,-935.728,-486.142)" font-family="Sans" font-size="152.778" font-weight="400" font-style="normal">
<n1:rect x="1100.91" y="598.15" width="23.622" height="61.0236"/>
</n1:g>

<n1:g fill="#ff0000" fill-opacity="1" stroke="none" transform="matrix(1,0,0,1,-935.728,-486.142)" font-family="Sans" font-size="152.778" font-weight="400" font-style="normal">
<n1:rect x="1250.91" y="810.748" width="23.622" height="61.0236"/>
</n1:g>

<n1:g fill="#ff0000" fill-opacity="1" stroke="none" transform="matrix(1,0,0,1,-935.728,-486.142)" font-family="Sans" font-size="152.778" font-weight="400" font-style="normal">
<n1:rect x="1200.91" y="810.748" width="23.622" height="61.0236"/>
</n1:g>

<n1:g fill="none" stroke="#f0f000" stroke-opacity="1" stroke-width="10" stroke-linecap="round" stroke-linejoin="bevel" transform="matrix(1,0,0,1,-935.728,-486.142)" font-family="Sans" font-size="152.778" font-weight="400" font-style="normal">
<n1:path vector-effect="none" fill-rule="evenodd" d="M1075.71,758.386 C1089.52,758.386 1100.71,747.193 1100.71,733.386 C1100.71,719.579 1089.52,708.386 1075.71,708.386 "/>
<n1:polyline fill="none" vector-effect="none" points="1075.71,581.417 1075.71,708.583 "/>
<n1:polyline fill="none" vector-effect="none" points="1075.71,890.866 1075.71,758.189 "/>
<n1:polyline fill="none" vector-effect="none" points="1295.79,890.866 1075.71,890.866 "/>
<n1:polyline fill="none" vector-effect="none" points="1295.79,581.417 1295.79,890.866 "/>
<n1:polyline fill="none" vector-effect="none" points="1075.71,581.417 1295.79,581.417 "/>
</n1:g>
</n1:g>
</svg>
