<?xml version="1.0" encoding="UTF-8"?>
<svg width="12.7mm" height="12.7mm" viewBox="0 0 500 500" version="1.2" baseProfile="tiny" xmlns:n1="http://www.w3.org/2000/svg" xmlns:xlink="http://www.w3.org/1999/xlink" xmlns:cpcb="http://www.danielwagenaar.net/cpcb-ns.html">
  <cpcb:part pkg="SOIC-16" xmlns="http://www.danielwagenaar.net/cpcb-ns.html">
    <group ref="U?">
      <pad p="317500 508000" w="4300" h="10000" l="2" ref="15" ell="1"/>
      <pad p="381000 508000" w="4300" h="10000" l="2" ref="10" ell="1"/>
      <pad p="342900 508000" w="4300" h="10000" l="2" ref="13" ell="1"/>
      <pad p="304800 508000" w="4300" h="10000" l="2" ref="16" ell="1"/>
      <pad p="368300 508000" w="4300" h="10000" l="2" ref="11" ell="1"/>
      <pad p="330200 508000" w="4300" h="10000" l="2" ref="14" ell="1"/>
      <pad p="393700 508000" w="4300" h="10000" l="2" ref="9" ell="1"/>
      <pad p="355600 508000" w="4300" h="10000" l="2" ref="12" ell="1"/>
      <pad p="381000 558800" w="4300" h="10000" l="2" ref="7" ell="1"/>
      <pad p="393700 558800" w="4300" h="10000" l="2" ref="8" ell="1"/>
      <pad p="355600 558800" w="4300" h="10000" l="2" ref="5" ell="1"/>
      <pad p="368300 558800" w="4300" h="10000" l="2" ref="6" ell="1"/>
      <pad p="330200 558800" w="4300" h="10000" l="2" ref="3" ell="1"/>
      <pad p="342900 558800" w="4300" h="10000" l="2" ref="4" ell="1"/>
      <pad p="304800 558800" w="4300" h="10000" l="2" ref="1" ell="1"/>
      <pad p="317500 558800" w="4300" h="10000" l="2" ref="2" ell="1"/>
      <trace p1="298450 514350" p2="298450 527050" w="2540" l="1"/>
      <arc p="298450 533400" r="6350" lw="2540" l="1" ang="180" rota="0"/>
      <trace p1="400050 552450" p2="298450 552450" w="2540" l="1"/>
      <trace p1="298450 552450" p2="298450 539750" w="2540" l="1"/>
      <trace p1="298450 514350" p2="400050 514350" w="2540" l="1"/>
      <trace p1="400050 514350" p2="400050 552450" w="2540" l="1"/>
    </group>
    <text p="297170 490300" fs="12700" l="1" rot="0" text="U?"/>
  </cpcb:part>
<n1:title>PCB Component</n1:title>
<n1:desc>Generated by CPCB</n1:desc>
<n1:defs>
</n1:defs>
<n1:g fill="none" stroke="black" stroke-width="1" fill-rule="evenodd" stroke-linecap="square" stroke-linejoin="bevel">

<n1:g fill="#000000" fill-opacity="1" stroke="none" transform="matrix(1,0,0,1,-1124.98,-1850)" font-family="Sans" font-size="152.778" font-weight="400" font-style="normal">
<n1:rect x="1124.98" y="1850" width="500" height="500"/>
</n1:g>

<n1:g fill="#ff0000" fill-opacity="1" stroke="none" transform="matrix(1,0,0,1,-1124.98,-1850)" font-family="Sans" font-size="152.778" font-weight="400" font-style="normal">
<n1:rect x="1241.54" y="1980.31" width="16.9291" height="39.3701"/>
</n1:g>

<n1:g fill="#ff0000" fill-opacity="1" stroke="none" transform="matrix(1,0,0,1,-1124.98,-1850)" font-family="Sans" font-size="152.778" font-weight="400" font-style="normal">
<n1:rect x="1491.54" y="1980.31" width="16.9291" height="39.3701"/>
</n1:g>

<n1:g fill="#ff0000" fill-opacity="1" stroke="none" transform="matrix(1,0,0,1,-1124.98,-1850)" font-family="Sans" font-size="152.778" font-weight="400" font-style="normal">
<n1:rect x="1341.54" y="1980.31" width="16.9291" height="39.3701"/>
</n1:g>

<n1:g fill="#ff0000" fill-opacity="1" stroke="none" transform="matrix(1,0,0,1,-1124.98,-1850)" font-family="Sans" font-size="152.778" font-weight="400" font-style="normal">
<n1:rect x="1191.54" y="1980.31" width="16.9291" height="39.3701"/>
</n1:g>

<n1:g fill="#ff0000" fill-opacity="1" stroke="none" transform="matrix(1,0,0,1,-1124.98,-1850)" font-family="Sans" font-size="152.778" font-weight="400" font-style="normal">
<n1:rect x="1441.54" y="1980.31" width="16.9291" height="39.3701"/>
</n1:g>

<n1:g fill="#ff0000" fill-opacity="1" stroke="none" transform="matrix(1,0,0,1,-1124.98,-1850)" font-family="Sans" font-size="152.778" font-weight="400" font-style="normal">
<n1:rect x="1291.54" y="1980.31" width="16.9291" height="39.3701"/>
</n1:g>

<n1:g fill="#ff0000" fill-opacity="1" stroke="none" transform="matrix(1,0,0,1,-1124.98,-1850)" font-family="Sans" font-size="152.778" font-weight="400" font-style="normal">
<n1:rect x="1541.54" y="1980.31" width="16.9291" height="39.3701"/>
</n1:g>

<n1:g fill="#ff0000" fill-opacity="1" stroke="none" transform="matrix(1,0,0,1,-1124.98,-1850)" font-family="Sans" font-size="152.778" font-weight="400" font-style="normal">
<n1:rect x="1391.54" y="1980.31" width="16.9291" height="39.3701"/>
</n1:g>

<n1:g fill="#ff0000" fill-opacity="1" stroke="none" transform="matrix(1,0,0,1,-1124.98,-1850)" font-family="Sans" font-size="152.778" font-weight="400" font-style="normal">
<n1:rect x="1491.54" y="2180.31" width="16.9291" height="39.3701"/>
</n1:g>

<n1:g fill="#ff0000" fill-opacity="1" stroke="none" transform="matrix(1,0,0,1,-1124.98,-1850)" font-family="Sans" font-size="152.778" font-weight="400" font-style="normal">
<n1:rect x="1541.54" y="2180.31" width="16.9291" height="39.3701"/>
</n1:g>

<n1:g fill="#ff0000" fill-opacity="1" stroke="none" transform="matrix(1,0,0,1,-1124.98,-1850)" font-family="Sans" font-size="152.778" font-weight="400" font-style="normal">
<n1:rect x="1391.54" y="2180.31" width="16.9291" height="39.3701"/>
</n1:g>

<n1:g fill="#ff0000" fill-opacity="1" stroke="none" transform="matrix(1,0,0,1,-1124.98,-1850)" font-family="Sans" font-size="152.778" font-weight="400" font-style="normal">
<n1:rect x="1441.54" y="2180.31" width="16.9291" height="39.3701"/>
</n1:g>

<n1:g fill="#ff0000" fill-opacity="1" stroke="none" transform="matrix(1,0,0,1,-1124.98,-1850)" font-family="Sans" font-size="152.778" font-weight="400" font-style="normal">
<n1:rect x="1291.54" y="2180.31" width="16.9291" height="39.3701"/>
</n1:g>

<n1:g fill="#ff0000" fill-opacity="1" stroke="none" transform="matrix(1,0,0,1,-1124.98,-1850)" font-family="Sans" font-size="152.778" font-weight="400" font-style="normal">
<n1:rect x="1341.54" y="2180.31" width="16.9291" height="39.3701"/>
</n1:g>

<n1:g fill="#ff0000" fill-opacity="1" stroke="none" transform="matrix(1,0,0,1,-1124.98,-1850)" font-family="Sans" font-size="152.778" font-weight="400" font-style="normal">
<n1:rect x="1191.54" y="2180.31" width="16.9291" height="39.3701"/>
</n1:g>

<n1:g fill="#ff0000" fill-opacity="1" stroke="none" transform="matrix(1,0,0,1,-1124.98,-1850)" font-family="Sans" font-size="152.778" font-weight="400" font-style="normal">
<n1:rect x="1241.54" y="2180.31" width="16.9291" height="39.3701"/>
</n1:g>

<n1:g fill="#ff0000" fill-opacity="1" stroke="#f0f000" stroke-opacity="1" stroke-width="10" stroke-linecap="round" stroke-linejoin="bevel" transform="matrix(1,0,0,1,-1124.98,-1850)" font-family="Sans" font-size="152.778" font-weight="400" font-style="normal">
<n1:polyline fill="none" vector-effect="none" points="1175,2025 1175,2075 "/>
</n1:g>

<n1:g fill="none" stroke="#f0f000" stroke-opacity="1" stroke-width="10" stroke-linecap="round" stroke-linejoin="bevel" transform="matrix(1,0,0,1,-1124.98,-1850)" font-family="Sans" font-size="152.778" font-weight="400" font-style="normal">
<n1:path vector-effect="none" fill-rule="evenodd" d="M1175,2125 C1188.81,2125 1200,2113.81 1200,2100 C1200,2086.19 1188.81,2075 1175,2075 "/>
<n1:polyline fill="none" vector-effect="none" points="1575,2175 1175,2175 "/>
<n1:polyline fill="none" vector-effect="none" points="1175,2175 1175,2125 "/>
<n1:polyline fill="none" vector-effect="none" points="1175,2025 1575,2025 "/>
<n1:polyline fill="none" vector-effect="none" points="1575,2025 1575,2175 "/>
</n1:g>
</n1:g>
</svg>
