<?xml version="1.0" encoding="UTF-8"?>
<svg width="12.7mm" height="12.7mm" viewBox="0 0 500 500" version="1.2" baseProfile="tiny" xmlns:n1="http://www.w3.org/2000/svg" xmlns:xlink="http://www.w3.org/1999/xlink" xmlns:cpcb="http://www.danielwagenaar.net/cpcb-ns.html">
  <cpcb:part pkg="SOT-23" xmlns="http://www.danielwagenaar.net/cpcb-ns.html">
    <group ref="U?">
      <trace p1="198000 200000" p2="225000 200000" w="2540" l="1"/>
      <trace p1="225000 200000" p2="225000 190000" w="2540" l="1"/>
      <trace p1="225000 190000" p2="198000 190000" w="2540" l="1"/>
      <trace p1="198000 190000" p2="198000 200000" w="2540" l="1"/>
      <pad p="202000 204000" w="5080" h="10160" l="2" ref="1" ell="1"/>
      <pad p="221000 204000" w="5080" h="10160" l="2" ref="2" ell="1"/>
      <pad p="211500 186000" w="5080" h="10160" l="2" ref="3" ell="1"/>
      <arc p="202000 196000" r="1250" lw="2540" l="1" ang="360" rota="180"/>
    </group>
    <text p="196730 168220" fs="12700" l="1" rot="0" text="U?"/>
  </cpcb:part>
<n1:title>PCB Component</n1:title>
<n1:desc>Generated by CPCB</n1:desc>
<n1:defs>
</n1:defs>
<n1:g fill="none" stroke="black" stroke-width="1" fill-rule="evenodd" stroke-linecap="square" stroke-linejoin="bevel">

<n1:g fill="#000000" fill-opacity="1" stroke="none" transform="matrix(1,0,0,1,-582.677,-517.717)" font-family="Sans" font-size="152.778" font-weight="400" font-style="normal">
<n1:rect x="582.677" y="517.717" width="500" height="500"/>
</n1:g>

<n1:g fill="#ff0000" fill-opacity="1" stroke="none" transform="matrix(1,0,0,1,-582.677,-517.717)" font-family="Sans" font-size="152.778" font-weight="400" font-style="normal">
<n1:rect x="785.276" y="783.15" width="20" height="40"/>
</n1:g>

<n1:g fill="#ff0000" fill-opacity="1" stroke="none" transform="matrix(1,0,0,1,-582.677,-517.717)" font-family="Sans" font-size="152.778" font-weight="400" font-style="normal">
<n1:rect x="860.079" y="783.15" width="20" height="40"/>
</n1:g>

<n1:g fill="#ff0000" fill-opacity="1" stroke="none" transform="matrix(1,0,0,1,-582.677,-517.717)" font-family="Sans" font-size="152.778" font-weight="400" font-style="normal">
<n1:rect x="822.677" y="712.283" width="20" height="40"/>
</n1:g>

<n1:g fill="#ff0000" fill-opacity="1" stroke="#f0f000" stroke-opacity="1" stroke-width="10" stroke-linecap="round" stroke-linejoin="bevel" transform="matrix(1,0,0,1,-582.677,-517.717)" font-family="Sans" font-size="152.778" font-weight="400" font-style="normal">
<n1:polyline fill="none" vector-effect="none" points="779.528,787.402 885.827,787.402 "/>
<n1:polyline fill="none" vector-effect="none" points="885.827,787.402 885.827,748.031 "/>
<n1:polyline fill="none" vector-effect="none" points="885.827,748.031 779.528,748.031 "/>
<n1:polyline fill="none" vector-effect="none" points="779.528,748.031 779.528,787.402 "/>
</n1:g>

<n1:g fill="none" stroke="#f0f000" stroke-opacity="1" stroke-width="10" stroke-linecap="round" stroke-linejoin="bevel" transform="matrix(1,0,0,1,-582.677,-517.717)" font-family="Sans" font-size="152.778" font-weight="400" font-style="normal">
<n1:path vector-effect="none" fill-rule="evenodd" d="M795.276,776.575 C797.994,776.575 800.197,774.371 800.197,771.654 C800.197,768.936 797.994,766.732 795.276,766.732 C792.558,766.732 790.354,768.936 790.354,771.654 C790.354,774.371 792.558,776.575 795.276,776.575 "/>
</n1:g>
</n1:g>
</svg>
