<?xml version="1.0" encoding="UTF-8"?>
<svg width="12.7mm" height="14.224mm" viewBox="0 0 500 560.039" version="1.2" baseProfile="tiny" xmlns:n1="http://www.w3.org/2000/svg" xmlns:xlink="http://www.w3.org/1999/xlink" xmlns:cpcb="http://www.danielwagenaar.net/cpcb-ns.html">
  <cpcb:part pkg="SPDT-Newark-1MS1T1B1M1QE" xmlns="http://www.danielwagenaar.net/cpcb-ns.html">
    <group ref="S?">
      <arc p="355600 239776" r="6350" lw="2540" l="1" ang="180" rota="90"/>
      <hole p="355600 303276" id="10160" od="16510" ref="2/com" sl="19050"/>
      <trace p1="389890 239776" p2="389890 366776" w="2540" l="1"/>
      <hole p="355600 256286" id="10160" od="16510" ref="3/nc" sl="19050"/>
      <hole p="355600 350266" id="10160" od="16510" sq="1" ref="1/no" sl="19050"/>
      <trace p1="321310 239776" p2="321310 366776" w="2540" l="1"/>
      <trace p1="321310 239776" p2="389890 239776" w="2540" l="1"/>
      <trace p1="389890 366776" p2="321310 366776" w="2540" l="1"/>
    </group>
    <text p="320040 225796" fs="12700" l="1" rot="0" text="S?"/>
  </cpcb:part>
<n1:title>PCB Component</n1:title>
<n1:desc>Generated by CPCB</n1:desc>
<n1:defs>
</n1:defs>
<n1:g fill="none" stroke="black" stroke-width="1" fill-rule="evenodd" stroke-linecap="square" stroke-linejoin="bevel">

<n1:g fill="#000000" fill-opacity="1" stroke="none" transform="matrix(1,0,0,1,-1150,-913.961)" font-family="Sans" font-size="152.778" font-weight="400" font-style="normal">
<n1:rect x="1150" y="913.961" width="500" height="560.039"/>
</n1:g>

<n1:g fill="#000000" fill-opacity="1" stroke="#00b400" stroke-opacity="1" stroke-width="65" stroke-linecap="round" stroke-linejoin="bevel" transform="matrix(1,0,0,1,-1150,-913.961)" font-family="Sans" font-size="152.778" font-weight="400" font-style="normal">
<n1:polyline fill="none" vector-effect="none" points="1363,1194 1437,1194 "/>
<n1:polyline fill="none" vector-effect="none" points="1363,1009 1437,1009 "/>
</n1:g>

<n1:g fill="#000000" fill-opacity="1" stroke="#00b400" stroke-opacity="1" stroke-width="65" stroke-linecap="butt" stroke-linejoin="bevel" transform="matrix(1,0,0,1,-1150,-913.961)" font-family="Sans" font-size="152.778" font-weight="400" font-style="normal">
<n1:polyline fill="none" vector-effect="none" points="1330,1379 1470,1379 "/>
</n1:g>

<n1:g fill="#000000" fill-opacity="1" stroke="#ff0000" stroke-opacity="1" stroke-width="65" stroke-linecap="round" stroke-linejoin="bevel" transform="matrix(1,0,0,1,-1150,-913.961)" font-family="Sans" font-size="152.778" font-weight="400" font-style="normal">
<n1:polyline fill="none" vector-effect="none" points="1363,1194 1437,1194 "/>
<n1:polyline fill="none" vector-effect="none" points="1363,1009 1437,1009 "/>
</n1:g>

<n1:g fill="#000000" fill-opacity="1" stroke="#ff0000" stroke-opacity="1" stroke-width="65" stroke-linecap="butt" stroke-linejoin="bevel" transform="matrix(1,0,0,1,-1150,-913.961)" font-family="Sans" font-size="152.778" font-weight="400" font-style="normal">
<n1:polyline fill="none" vector-effect="none" points="1330,1379 1470,1379 "/>
</n1:g>

<n1:g fill="#000000" fill-opacity="1" stroke="#ffffff" stroke-opacity="1" stroke-width="40" stroke-linecap="round" stroke-linejoin="bevel" transform="matrix(1,0,0,1,-1150,-913.961)" font-family="Sans" font-size="152.778" font-weight="400" font-style="normal">
<n1:polyline fill="none" vector-effect="none" points="1363,1194 1437,1194 "/>
<n1:polyline fill="none" vector-effect="none" points="1363,1009 1437,1009 "/>
<n1:polyline fill="none" vector-effect="none" points="1363,1379 1437,1379 "/>
</n1:g>

<n1:g fill="none" stroke="#f0f000" stroke-opacity="1" stroke-width="10" stroke-linecap="round" stroke-linejoin="bevel" transform="matrix(1,0,0,1,-1150,-913.961)" font-family="Sans" font-size="152.778" font-weight="400" font-style="normal">
<n1:path vector-effect="none" fill-rule="evenodd" d="M1375,944 C1375,957.807 1386.19,969 1400,969 C1413.81,969 1425,957.807 1425,944 "/>
<n1:polyline fill="none" vector-effect="none" points="1535,944 1535,1444 "/>
<n1:polyline fill="none" vector-effect="none" points="1265,944 1265,1444 "/>
<n1:polyline fill="none" vector-effect="none" points="1265,944 1535,944 "/>
<n1:polyline fill="none" vector-effect="none" points="1535,1444 1265,1444 "/>
</n1:g>
</n1:g>
</svg>
