<?xml version="1.0" encoding="UTF-8" standalone="no"?>
<!-- Created with Inkscape (http://www.inkscape.org/) -->

<svg
   xmlns:dc="http://purl.org/dc/elements/1.1/"
   xmlns:cc="http://creativecommons.org/ns#"
   xmlns:rdf="http://www.w3.org/1999/02/22-rdf-syntax-ns#"
   xmlns:svg="http://www.w3.org/2000/svg"
   xmlns="http://www.w3.org/2000/svg"
   xmlns:sodipodi="http://sodipodi.sourceforge.net/DTD/sodipodi-0.dtd"
   xmlns:inkscape="http://www.inkscape.org/namespaces/inkscape"
   width="210mm"
   height="297mm"
   viewBox="0 0 210 297"
   version="1.1"
   id="svg8"
   inkscape:version="0.92.2 (5c3e80d, 2017-08-06)"
   sodipodi:docname="font.svg">
  <sodipodi:namedview
     id="base"
     pagecolor="#ffffff"
     bordercolor="#666666"
     borderopacity="1.0"
     inkscape:pageopacity="0.0"
     inkscape:pageshadow="2"
     inkscape:zoom="0.96379011"
     inkscape:cx="396.85039"
     inkscape:cy="649.3006"
     inkscape:document-units="mm"
     inkscape:current-layer="svg8"
     showgrid="false"
     inkscape:window-width="3200"
     inkscape:window-height="1756"
     inkscape:window-x="0"
     inkscape:window-y="0"
     inkscape:window-maximized="1" />
  <defs
     id="defs2" />
  <metadata
     id="metadata5">
    <rdf:RDF>
      <cc:Work
         rdf:about="">
        <dc:format>image/svg+xml</dc:format>
        <dc:type
           rdf:resource="http://purl.org/dc/dcmitype/StillImage" />
        <dc:title></dc:title>
      </cc:Work>
    </rdf:RDF>
  </metadata>
  <g
     id="layer1"
     inkscape:groupmode="layer"
     inkscape:label="Layer 1">
    <text
       id="text817-2"
       y="175.10849"
       x="34.884918"
       style="font-style:normal;font-variant:normal;font-weight:normal;font-stretch:normal;font-size:14.11111069px;line-height:125%;font-family:ModeNine;-inkscape-font-specification:'ModeNine, Normal';font-variant-ligatures:normal;font-variant-caps:normal;font-variant-numeric:normal;font-feature-settings:normal;text-align:start;letter-spacing:0px;word-spacing:0px;writing-mode:lr-tb;text-anchor:start;fill:#000000;fill-opacity:1;stroke:none;stroke-width:0.26458332px;stroke-linecap:butt;stroke-linejoin:miter;stroke-opacity:1"
       xml:space="preserve"><tspan
         style="font-style:normal;font-variant:normal;font-weight:normal;font-stretch:normal;font-size:14.11111069px;font-family:ModeNine;-inkscape-font-specification:'ModeNine, Normal';font-variant-ligatures:normal;font-variant-caps:normal;font-variant-numeric:normal;font-feature-settings:normal;text-align:start;writing-mode:lr-tb;text-anchor:start;stroke-width:0.26458332px"
         y="175.10849"
         x="34.884918"
         id="tspan815-5"
         sodipodi:role="line">ABCDEFGHIJKLMNOPQRSTUVWXYZ</tspan><tspan
         id="tspan819-9"
         style="font-style:normal;font-variant:normal;font-weight:normal;font-stretch:normal;font-size:14.11111069px;font-family:ModeNine;-inkscape-font-specification:'ModeNine, Normal';font-variant-ligatures:normal;font-variant-caps:normal;font-variant-numeric:normal;font-feature-settings:normal;text-align:start;writing-mode:lr-tb;text-anchor:start;stroke-width:0.26458332px"
         y="192.74738"
         x="34.884918"
         sodipodi:role="line">abcdefghijklmnopqrstuvwxyz</tspan><tspan
         id="tspan821-4"
         style="font-style:normal;font-variant:normal;font-weight:normal;font-stretch:normal;font-size:14.11111069px;font-family:ModeNine;-inkscape-font-specification:'ModeNine, Normal';font-variant-ligatures:normal;font-variant-caps:normal;font-variant-numeric:normal;font-feature-settings:normal;text-align:start;writing-mode:lr-tb;text-anchor:start;stroke-width:0.26458332px"
         y="210.38628"
         x="34.884918"
         sodipodi:role="line">0123456789</tspan><tspan
         id="tspan823-0"
         style="font-style:normal;font-variant:normal;font-weight:normal;font-stretch:normal;font-size:14.11111069px;font-family:ModeNine;-inkscape-font-specification:'ModeNine, Normal';font-variant-ligatures:normal;font-variant-caps:normal;font-variant-numeric:normal;font-feature-settings:normal;text-align:start;writing-mode:lr-tb;text-anchor:start;stroke-width:0.26458332px"
         y="228.02516"
         x="34.884918"
         sodipodi:role="line">!@#$%^&amp;*()</tspan><tspan
         id="tspan825-4"
         style="font-style:normal;font-variant:normal;font-weight:normal;font-stretch:normal;font-size:14.11111069px;font-family:ModeNine;-inkscape-font-specification:'ModeNine, Normal';font-variant-ligatures:normal;font-variant-caps:normal;font-variant-numeric:normal;font-feature-settings:normal;text-align:start;writing-mode:lr-tb;text-anchor:start;stroke-width:0.26458332px"
         y="245.66405"
         x="34.884918"
         sodipodi:role="line">`~-_=+{}[]:;&quot;'&lt;,&gt;.?/</tspan></text>
    <g
       id="g1868"
       transform="translate(-119.366667643,125.20588292) scale(0.264583333328)"
       inkscape:label="Hershey Text">
      <path
         id="path1684"
         transform="translate(9,0)"
         style="stroke:#000000;fill:none"
         d="M 0 -12 L -8 9 M 0 -12 L 8 9 M -5 2 L 5 2" />
      <path
         id="path1686"
         transform="translate(29,0)"
         style="stroke:#000000;fill:none"
         d="M -7 -12 L -7 9 M -7 -12 L 2 -12 L 5 -11 L 6 -10 L 7 -8 L 7 -6 L 6 -4 L 5 -3 L 2 -2 M -7 -2 L 2 -2 L 5 -1 L 6 0 L 7 2 L 7 5 L 6 7 L 5 8 L 2 9 L -7 9" />
      <path
         id="path1688"
         transform="translate(49,0)"
         style="stroke:#000000;fill:none"
         d="M 8 -7 L 7 -9 L 5 -11 L 3 -12 L -1 -12 L -3 -11 L -5 -9 L -6 -7 L -7 -4 L -7 1 L -6 4 L -5 6 L -3 8 L -1 9 L 3 9 L 5 8 L 7 6 L 8 4" />
      <path
         id="path1690"
         transform="translate(71,0)"
         style="stroke:#000000;fill:none"
         d="M -7 -12 L -7 9 M -7 -12 L 0 -12 L 3 -11 L 5 -9 L 6 -7 L 7 -4 L 7 1 L 6 4 L 5 6 L 3 8 L 0 9 L -7 9" />
      <path
         id="path1692"
         transform="translate(91,0)"
         style="stroke:#000000;fill:none"
         d="M -6 -12 L -6 9 M -6 -12 L 7 -12 M -6 -2 L 2 -2 M -6 9 L 7 9" />
      <path
         id="path1694"
         transform="translate(110,0)"
         style="stroke:#000000;fill:none"
         d="M -6 -12 L -6 9 M -6 -12 L 7 -12 M -6 -2 L 2 -2" />
      <path
         id="path1696"
         transform="translate(128,0)"
         style="stroke:#000000;fill:none"
         d="M 8 -7 L 7 -9 L 5 -11 L 3 -12 L -1 -12 L -3 -11 L -5 -9 L -6 -7 L -7 -4 L -7 1 L -6 4 L -5 6 L -3 8 L -1 9 L 3 9 L 5 8 L 7 6 L 8 4 L 8 1 M 3 1 L 8 1" />
      <path
         id="path1698"
         transform="translate(150,0)"
         style="stroke:#000000;fill:none"
         d="M -7 -12 L -7 9 M 7 -12 L 7 9 M -7 -2 L 7 -2" />
      <path
         id="path1700"
         transform="translate(165,0)"
         style="stroke:#000000;fill:none"
         d="M 0 -12 L 0 9" />
      <path
         id="path1702"
         transform="translate(177,0)"
         style="stroke:#000000;fill:none"
         d="M 4 -12 L 4 4 L 3 7 L 2 8 L 0 9 L -2 9 L -4 8 L -5 7 L -6 4 L -6 2" />
      <path
         id="path1704"
         transform="translate(196,0)"
         style="stroke:#000000;fill:none"
         d="M -7 -12 L -7 9 M 7 -12 L -7 2 M -2 -3 L 7 9" />
      <path
         id="path1706"
         transform="translate(216,0)"
         style="stroke:#000000;fill:none"
         d="M -6 -12 L -6 9 M -6 9 L 6 9" />
      <path
         id="path1708"
         transform="translate(235,0)"
         style="stroke:#000000;fill:none"
         d="M -8 -12 L -8 9 M -8 -12 L 0 9 M 8 -12 L 0 9 M 8 -12 L 8 9" />
      <path
         id="path1710"
         transform="translate(258,0)"
         style="stroke:#000000;fill:none"
         d="M -7 -12 L -7 9 M -7 -12 L 7 9 M 7 -12 L 7 9" />
      <path
         id="path1712"
         transform="translate(280,0)"
         style="stroke:#000000;fill:none"
         d="M -2 -12 L -4 -11 L -6 -9 L -7 -7 L -8 -4 L -8 1 L -7 4 L -6 6 L -4 8 L -2 9 L 2 9 L 4 8 L 6 6 L 7 4 L 8 1 L 8 -4 L 7 -7 L 6 -9 L 4 -11 L 2 -12 L -2 -12" />
      <path
         id="path1714"
         transform="translate(302,0)"
         style="stroke:#000000;fill:none"
         d="M -7 -12 L -7 9 M -7 -12 L 2 -12 L 5 -11 L 6 -10 L 7 -8 L 7 -5 L 6 -3 L 5 -2 L 2 -1 L -7 -1" />
      <path
         id="path1716"
         transform="translate(323,0)"
         style="stroke:#000000;fill:none"
         d="M -2 -12 L -4 -11 L -6 -9 L -7 -7 L -8 -4 L -8 1 L -7 4 L -6 6 L -4 8 L -2 9 L 2 9 L 4 8 L 6 6 L 7 4 L 8 1 L 8 -4 L 7 -7 L 6 -9 L 4 -11 L 2 -12 L -2 -12 M 1 5 L 7 11" />
      <path
         id="path1718"
         transform="translate(345,0)"
         style="stroke:#000000;fill:none"
         d="M -7 -12 L -7 9 M -7 -12 L 2 -12 L 5 -11 L 6 -10 L 7 -8 L 7 -6 L 6 -4 L 5 -3 L 2 -2 L -7 -2 M 0 -2 L 7 9" />
      <path
         id="path1720"
         transform="translate(365,0)"
         style="stroke:#000000;fill:none"
         d="M 7 -9 L 5 -11 L 2 -12 L -2 -12 L -5 -11 L -7 -9 L -7 -7 L -6 -5 L -5 -4 L -3 -3 L 3 -1 L 5 0 L 6 1 L 7 3 L 7 6 L 5 8 L 2 9 L -2 9 L -5 8 L -7 6" />
      <path
         id="path1722"
         transform="translate(383,0)"
         style="stroke:#000000;fill:none"
         d="M 0 -12 L 0 9 M -7 -12 L 7 -12" />
      <path
         id="path1724"
         transform="translate(402,0)"
         style="stroke:#000000;fill:none"
         d="M -7 -12 L -7 3 L -6 6 L -4 8 L -1 9 L 1 9 L 4 8 L 6 6 L 7 3 L 7 -12" />
      <path
         id="path1726"
         transform="translate(422,0)"
         style="stroke:#000000;fill:none"
         d="M -8 -12 L 0 9 M 8 -12 L 0 9" />
      <path
         id="path1728"
         transform="translate(443,0)"
         style="stroke:#000000;fill:none"
         d="M -10 -12 L -5 9 M 0 -12 L -5 9 M 0 -12 L 5 9 M 10 -12 L 5 9" />
      <path
         id="path1730"
         transform="translate(465,0)"
         style="stroke:#000000;fill:none"
         d="M -7 -12 L 7 9 M 7 -12 L -7 9" />
      <path
         id="path1732"
         transform="translate(484,0)"
         style="stroke:#000000;fill:none"
         d="M -8 -12 L 0 -2 L 0 9 M 8 -12 L 0 -2" />
      <path
         id="path1734"
         transform="translate(503,0)"
         style="stroke:#000000;fill:none"
         d="M 7 -12 L -7 9 M -7 -12 L 7 -12 M -7 9 L 7 9" />
      <path
         id="path1736"
         transform="translate(528,0)"
         style="stroke:#000000;fill:none"
         d="M 6 -5 L 6 9 M 6 -2 L 4 -4 L 2 -5 L -1 -5 L -3 -4 L -5 -2 L -6 1 L -6 3 L -5 6 L -3 8 L -1 9 L 2 9 L 4 8 L 6 6" />
      <path
         id="path1738"
         transform="translate(548,0)"
         style="stroke:#000000;fill:none"
         d="M -6 -12 L -6 9 M -6 -2 L -4 -4 L -2 -5 L 1 -5 L 3 -4 L 5 -2 L 6 1 L 6 3 L 5 6 L 3 8 L 1 9 L -2 9 L -4 8 L -6 6" />
      <path
         id="path1740"
         transform="translate(566,0)"
         style="stroke:#000000;fill:none"
         d="M 6 -2 L 4 -4 L 2 -5 L -1 -5 L -3 -4 L -5 -2 L -6 1 L -6 3 L -5 6 L -3 8 L -1 9 L 2 9 L 4 8 L 6 6" />
      <path
         id="path1742"
         transform="translate(584,0)"
         style="stroke:#000000;fill:none"
         d="M 6 -12 L 6 9 M 6 -2 L 4 -4 L 2 -5 L -1 -5 L -3 -4 L -5 -2 L -6 1 L -6 3 L -5 6 L -3 8 L -1 9 L 2 9 L 4 8 L 6 6" />
      <path
         id="path1744"
         transform="translate(603,0)"
         style="stroke:#000000;fill:none"
         d="M -6 1 L 6 1 L 6 -1 L 5 -3 L 4 -4 L 2 -5 L -1 -5 L -3 -4 L -5 -2 L -6 1 L -6 3 L -5 6 L -3 8 L -1 9 L 2 9 L 4 8 L 6 6" />
      <path
         id="path1746"
         transform="translate(617,0)"
         style="stroke:#000000;fill:none"
         d="M 5 -12 L 3 -12 L 1 -11 L 0 -8 L 0 9 M -3 -5 L 4 -5" />
      <path
         id="path1748"
         transform="translate(633,0)"
         style="stroke:#000000;fill:none"
         d="M 6 -5 L 6 11 L 5 14 L 4 15 L 2 16 L -1 16 L -3 15 M 6 -2 L 4 -4 L 2 -5 L -1 -5 L -3 -4 L -5 -2 L -6 1 L -6 3 L -5 6 L -3 8 L -1 9 L 2 9 L 4 8 L 6 6" />
      <path
         id="path1750"
         transform="translate(652,0)"
         style="stroke:#000000;fill:none"
         d="M -5 -12 L -5 9 M -5 -1 L -2 -4 L 0 -5 L 3 -5 L 5 -4 L 6 -1 L 6 9" />
      <path
         id="path1752"
         transform="translate(666,0)"
         style="stroke:#000000;fill:none"
         d="M -1 -12 L 0 -11 L 1 -12 L 0 -13 L -1 -12 M 0 -5 L 0 9" />
      <path
         id="path1754"
         transform="translate(675,0)"
         style="stroke:#000000;fill:none"
         d="M 0 -12 L 1 -11 L 2 -12 L 1 -13 L 0 -12 M 1 -5 L 1 12 L 0 15 L -2 16 L -4 16" />
      <path
         id="path1756"
         transform="translate(689,0)"
         style="stroke:#000000;fill:none"
         d="M -5 -12 L -5 9 M 5 -5 L -5 5 M -1 1 L 6 9" />
      <path
         id="path1758"
         transform="translate(701,0)"
         style="stroke:#000000;fill:none"
         d="M 0 -12 L 0 9" />
      <path
         id="path1760"
         transform="translate(720,0)"
         style="stroke:#000000;fill:none"
         d="M -11 -5 L -11 9 M -11 -1 L -8 -4 L -6 -5 L -3 -5 L -1 -4 L 0 -1 L 0 9 M 0 -1 L 3 -4 L 5 -5 L 8 -5 L 10 -4 L 11 -1 L 11 9" />
      <path
         id="path1762"
         transform="translate(744,0)"
         style="stroke:#000000;fill:none"
         d="M -5 -5 L -5 9 M -5 -1 L -2 -4 L 0 -5 L 3 -5 L 5 -4 L 6 -1 L 6 9" />
      <path
         id="path1764"
         transform="translate(763,0)"
         style="stroke:#000000;fill:none"
         d="M -1 -5 L -3 -4 L -5 -2 L -6 1 L -6 3 L -5 6 L -3 8 L -1 9 L 2 9 L 4 8 L 6 6 L 7 3 L 7 1 L 6 -2 L 4 -4 L 2 -5 L -1 -5" />
      <path
         id="path1766"
         transform="translate(783,0)"
         style="stroke:#000000;fill:none"
         d="M -6 -5 L -6 16 M -6 -2 L -4 -4 L -2 -5 L 1 -5 L 3 -4 L 5 -2 L 6 1 L 6 3 L 5 6 L 3 8 L 1 9 L -2 9 L -4 8 L -6 6" />
      <path
         id="path1768"
         style="stroke:#000000;fill:none"
         d="M 6 -5 L 6 16 M 6 -2 L 4 -4 L 2 -5 L -1 -5 L -3 -4 L -5 -2 L -6 1 L -6 3 L -5 6 L -3 8 L -1 9 L 2 9 L 4 8 L 6 6"
         transform="translate(801,0)" />
      <path
         id="path1770"
         transform="translate(818,0)"
         style="stroke:#000000;fill:none"
         d="M -3 -5 L -3 9 M -3 1 L -2 -2 L 0 -4 L 2 -5 L 5 -5" />
      <path
         id="path1772"
         transform="translate(832,0)"
         style="stroke:#000000;fill:none"
         d="M 6 -2 L 5 -4 L 2 -5 L -1 -5 L -4 -4 L -5 -2 L -4 0 L -2 1 L 3 2 L 5 3 L 6 5 L 6 6 L 5 8 L 2 9 L -1 9 L -4 8 L -5 6" />
      <path
         id="path1774"
         transform="translate(846,0)"
         style="stroke:#000000;fill:none"
         d="M 0 -12 L 0 5 L 1 8 L 3 9 L 5 9 M -3 -5 L 4 -5" />
      <path
         id="path1776"
         transform="translate(862,0)"
         style="stroke:#000000;fill:none"
         d="M -5 -5 L -5 5 L -4 8 L -2 9 L 1 9 L 3 8 L 6 5 M 6 -5 L 6 9" />
      <path
         id="path1778"
         transform="translate(880,0)"
         style="stroke:#000000;fill:none"
         d="M -6 -5 L 0 9 M 6 -5 L 0 9" />
      <path
         id="path1780"
         transform="translate(899,0)"
         style="stroke:#000000;fill:none"
         d="M -8 -5 L -4 9 M 0 -5 L -4 9 M 0 -5 L 4 9 M 8 -5 L 4 9" />
      <path
         id="path1782"
         transform="translate(918,0)"
         style="stroke:#000000;fill:none"
         d="M -5 -5 L 6 9 M 6 -5 L -5 9" />
      <path
         id="path1784"
         transform="translate(935,0)"
         style="stroke:#000000;fill:none"
         d="M -6 -5 L 0 9 M 6 -5 L 0 9 L -2 13 L -4 15 L -6 16 L -7 16" />
      <path
         id="path1786"
         transform="translate(951,0)"
         style="stroke:#000000;fill:none"
         d="M 6 -5 L -5 9 M -5 -5 L 6 -5 M -5 9 L 6 9" />
      <path
         id="path1788"
         transform="translate(976,0)"
         style="stroke:#000000;fill:none"
         d="M -1 -12 L -4 -11 L -6 -8 L -7 -3 L -7 0 L -6 5 L -4 8 L -1 9 L 1 9 L 4 8 L 6 5 L 7 0 L 7 -3 L 6 -8 L 4 -11 L 1 -12 L -1 -12" />
      <path
         id="path1790"
         transform="translate(996,0)"
         style="stroke:#000000;fill:none"
         d="M -4 -8 L -2 -9 L 1 -12 L 1 9" />
      <path
         id="path1792"
         transform="translate(1016,0)"
         style="stroke:#000000;fill:none"
         d="M -6 -7 L -6 -8 L -5 -10 L -4 -11 L -2 -12 L 2 -12 L 4 -11 L 5 -10 L 6 -8 L 6 -6 L 5 -4 L 3 -1 L -7 9 L 7 9" />
      <path
         id="path1794"
         transform="translate(1036,0)"
         style="stroke:#000000;fill:none"
         d="M -5 -12 L 6 -12 L 0 -4 L 3 -4 L 5 -3 L 6 -2 L 7 1 L 7 3 L 6 6 L 4 8 L 1 9 L -2 9 L -5 8 L -6 7 L -7 5" />
      <path
         id="path1796"
         transform="translate(1056,0)"
         style="stroke:#000000;fill:none"
         d="M 3 -12 L -7 2 L 8 2 M 3 -12 L 3 9" />
      <path
         id="path1798"
         transform="translate(1076,0)"
         style="stroke:#000000;fill:none"
         d="M 5 -12 L -5 -12 L -6 -3 L -5 -4 L -2 -5 L 1 -5 L 4 -4 L 6 -2 L 7 1 L 7 3 L 6 6 L 4 8 L 1 9 L -2 9 L -5 8 L -6 7 L -7 5" />
      <path
         id="path1800"
         transform="translate(1096,0)"
         style="stroke:#000000;fill:none"
         d="M 6 -9 L 5 -11 L 2 -12 L 0 -12 L -3 -11 L -5 -8 L -6 -3 L -6 2 L -5 6 L -3 8 L 0 9 L 1 9 L 4 8 L 6 6 L 7 3 L 7 2 L 6 -1 L 4 -3 L 1 -4 L 0 -4 L -3 -3 L -5 -1 L -6 2" />
      <path
         id="path1802"
         transform="translate(1116,0)"
         style="stroke:#000000;fill:none"
         d="M 7 -12 L -3 9 M -7 -12 L 7 -12" />
      <path
         id="path1804"
         transform="translate(1136,0)"
         style="stroke:#000000;fill:none"
         d="M -2 -12 L -5 -11 L -6 -9 L -6 -7 L -5 -5 L -3 -4 L 1 -3 L 4 -2 L 6 0 L 7 2 L 7 5 L 6 7 L 5 8 L 2 9 L -2 9 L -5 8 L -6 7 L -7 5 L -7 2 L -6 0 L -4 -2 L -1 -3 L 3 -4 L 5 -5 L 6 -7 L 6 -9 L 5 -11 L 2 -12 L -2 -12" />
      <path
         id="path1806"
         transform="translate(1156,0)"
         style="stroke:#000000;fill:none"
         d="M 6 -5 L 5 -2 L 3 0 L 0 1 L -1 1 L -4 0 L -6 -2 L -7 -5 L -7 -6 L -6 -9 L -4 -11 L -1 -12 L 0 -12 L 3 -11 L 5 -9 L 6 -5 L 6 0 L 5 5 L 3 8 L 0 9 L -2 9 L -5 8 L -6 6" />
      <path
         id="path1808"
         transform="translate(1177,0)"
         style="stroke:#000000;fill:none"
         d="M 0 -12 L 0 2 M 0 7 L -1 8 L 0 9 L 1 8 L 0 7" />
      <path
         id="path1810"
         transform="translate(1195,0)"
         style="stroke:#000000;fill:none"
         d="M 5 -4 L 4 -6 L 2 -7 L -1 -7 L -3 -6 L -4 -5 L -5 -2 L -5 1 L -4 3 L -2 4 L 1 4 L 3 3 L 4 1 M -1 -7 L -3 -5 L -4 -2 L -4 1 L -3 3 L -2 4 M 5 -7 L 4 1 L 4 3 L 6 4 L 8 4 L 10 2 L 11 -1 L 11 -3 L 10 -6 L 9 -8 L 7 -10 L 5 -11 L 2 -12 L -1 -12 L -4 -11 L -6 -10 L -8 -8 L -9 -6 L -10 -3 L -10 0 L -9 3 L -8 5 L -6 7 L -4 8 L -1 9 L 2 9 L 5 8 L 7 7 L 8 6 M 6 -7 L 5 1 L 5 3 L 6 4" />
      <path
         id="path1812"
         transform="translate(1219,0)"
         style="stroke:#000000;fill:none"
         d="M 1 -16 L -6 16 M 7 -16 L 0 16 M -6 -3 L 8 -3 M -7 3 L 7 3" />
      <path
         id="path1814"
         transform="translate(1240,0)"
         style="stroke:#000000;fill:none"
         d="M -2 -16 L -2 13 M 2 -16 L 2 13 M 7 -9 L 5 -11 L 2 -12 L -2 -12 L -5 -11 L -7 -9 L -7 -7 L -6 -5 L -5 -4 L -3 -3 L 3 -1 L 5 0 L 6 1 L 7 3 L 7 6 L 5 8 L 2 9 L -2 9 L -5 8 L -7 6" />
      <path
         id="path1816"
         transform="translate(1262,0)"
         style="stroke:#000000;fill:none"
         d="M 9 -12 L -9 9 M -4 -12 L -2 -10 L -2 -8 L -3 -6 L -5 -5 L -7 -5 L -9 -7 L -9 -9 L -8 -11 L -6 -12 L -4 -12 L -2 -11 L 1 -10 L 4 -10 L 7 -11 L 9 -12 M 5 2 L 3 3 L 2 5 L 2 7 L 4 9 L 6 9 L 8 8 L 9 6 L 9 4 L 7 2 L 5 2" />
      <path
         id="path1818"
         transform="translate(1282,0)"
         style="stroke:#000000;fill:none"
         d="M 0 -14 L -8 0 M 0 -14 L 8 0" />
      <path
         id="path1820"
         transform="translate(1303,0)"
         style="stroke:#000000;fill:none"
         d="M 10 -3 L 10 -4 L 9 -5 L 8 -5 L 7 -4 L 6 -2 L 4 3 L 2 6 L 0 8 L -2 9 L -6 9 L -8 8 L -9 7 L -10 5 L -10 3 L -9 1 L -8 0 L -1 -4 L 0 -5 L 1 -7 L 1 -9 L 0 -11 L -2 -12 L -4 -11 L -5 -9 L -5 -7 L -4 -4 L -2 -1 L 3 6 L 5 8 L 7 9 L 9 9 L 10 8 L 10 7" />
      <path
         id="path1822"
         transform="translate(1324,0)"
         style="stroke:#000000;fill:none"
         d="M 0 -6 L 0 6 M -5 -3 L 5 3 M 5 -3 L -5 3" />
      <path
         id="path1824"
         transform="translate(1339,0)"
         style="stroke:#000000;fill:none"
         d="M 4 -16 L 2 -14 L 0 -11 L -2 -7 L -3 -2 L -3 2 L -2 7 L 0 11 L 2 14 L 4 16" />
      <path
         id="path1826"
         transform="translate(1353,0)"
         style="stroke:#000000;fill:none"
         d="M -4 -16 L -2 -14 L 0 -11 L 2 -7 L 3 -2 L 3 2 L 2 7 L 0 11 L -2 14 L -4 16" />
      <path
         id="path1828"
         transform="translate(1370,0)"
         style="stroke:#000000;fill:none"
         d="M 1 -7 L -1 -5 L -1 -3 L 0 -2 L 1 -3 L 0 -4 L -1 -3" />
      <path
         id="path1830"
         transform="translate(1386,0)"
         style="stroke:#000000;fill:none"
         d="M -9 3 L -9 1 L -8 -2 L -6 -3 L -4 -3 L -2 -2 L 2 1 L 4 2 L 6 2 L 8 1 L 9 -1 M -9 1 L -8 -1 L -6 -2 L -4 -2 L -2 -1 L 2 2 L 4 3 L 6 3 L 8 2 L 9 -1 L 9 -3" />
      <path
         id="path1832"
         transform="translate(1411,0)"
         style="stroke:#000000;fill:none"
         d="M -9 0 L 9 0" />
      <path
         id="path1834"
         transform="translate(1433,0)"
         style="stroke:#000000;fill:none"
         d="M -9 16 L 9 16" />
      <path
         id="path1836"
         transform="translate(1455,0)"
         style="stroke:#000000;fill:none"
         d="M -9 -3 L 9 -3 M -9 3 L 9 3" />
      <path
         id="path1838"
         transform="translate(1481,0)"
         style="stroke:#000000;fill:none"
         d="M 0 -9 L 0 9 M -9 0 L 9 0" />
      <path
         id="path1840"
         transform="translate(1501,0)"
         style="stroke:#000000;fill:none"
         d="M 2 -16 L 0 -15 L -1 -14 L -2 -12 L -2 -10 L -1 -8 L 0 -7 L 1 -5 L 1 -3 L -1 -1 M 0 -15 L -1 -13 L -1 -11 L 0 -9 L 1 -8 L 2 -6 L 2 -4 L 1 -2 L -3 0 L 1 2 L 2 4 L 2 6 L 1 8 L 0 9 L -1 11 L -1 13 L 0 15 M -1 1 L 1 3 L 1 5 L 0 7 L -1 8 L -2 10 L -2 12 L -1 14 L 0 15 L 2 16" />
      <path
         id="path1842"
         transform="translate(1515,0)"
         style="stroke:#000000;fill:none"
         d="M -2 -16 L 0 -15 L 1 -14 L 2 -12 L 2 -10 L 1 -8 L 0 -7 L -1 -5 L -1 -3 L 1 -1 M 0 -15 L 1 -13 L 1 -11 L 0 -9 L -1 -8 L -2 -6 L -2 -4 L -1 -2 L 3 0 L -1 2 L -2 4 L -2 6 L -1 8 L 0 9 L 1 11 L 1 13 L 0 15 M 1 1 L -1 3 L -1 5 L 0 7 L 1 8 L 2 10 L 2 12 L 1 14 L 0 15 L -2 16" />
      <path
         id="path1844"
         transform="translate(1529,0)"
         style="stroke:#000000;fill:none"
         d="M -3 -16 L -3 16 M -2 -16 L -2 16 M -3 -16 L 4 -16 M -3 16 L 4 16" />
      <path
         id="path1846"
         transform="translate(1543,0)"
         style="stroke:#000000;fill:none"
         d="M 2 -16 L 2 16 M 3 -16 L 3 16 M -4 -16 L 3 -16 M -4 16 L 3 16" />
      <path
         id="path1848"
         transform="translate(1554,0)"
         style="stroke:#000000;fill:none"
         d="M 0 -3 L -1 -2 L 0 -1 L 1 -2 L 0 -3 M 0 4 L -1 5 L 0 6 L 1 5 L 0 4" />
      <path
         id="path1850"
         transform="translate(1562,0)"
         style="stroke:#000000;fill:none"
         d="M 0 -3 L -1 -2 L 0 -1 L 1 -2 L 0 -3 M 1 5 L 0 6 L -1 5 L 0 4 L 1 5 L 1 7 L -1 9" />
      <path
         id="path1852"
         transform="translate(1574,0)"
         style="stroke:#000000;fill:none"
         d="M -4 -12 L -4 -5 M 4 -12 L 4 -5" />
      <path
         id="path1854"
         transform="translate(1587,0)"
         style="stroke:#000000;fill:none"
         d="M 0 -10 L -1 -11 L 0 -12 L 1 -11 L 1 -9 L 0 -7 L -1 -6" />
      <path
         id="path1856"
         transform="translate(1604,0)"
         style="stroke:#000000;fill:none"
         d="M 8 -9 L -8 0 L 8 9" />
      <path
         id="path1858"
         transform="translate(1620,0)"
         style="stroke:#000000;fill:none"
         d="M 1 5 L 0 6 L -1 5 L 0 4 L 1 5 L 1 7 L -1 9" />
      <path
         id="path1860"
         transform="translate(1636,0)"
         style="stroke:#000000;fill:none"
         d="M -8 -9 L 8 0 L -8 9" />
      <path
         id="path1862"
         transform="translate(1652,0)"
         style="stroke:#000000;fill:none"
         d="M 0 4 L -1 5 L 0 6 L 1 5 L 0 4" />
      <path
         id="path1864"
         transform="translate(1665,0)"
         style="stroke:#000000;fill:none"
         d="M -6 -7 L -6 -8 L -5 -10 L -4 -11 L -2 -12 L 2 -12 L 4 -11 L 5 -10 L 6 -8 L 6 -6 L 5 -4 L 4 -3 L 0 -1 L 0 2 M 0 7 L -1 8 L 0 9 L 1 8 L 0 7" />
      <path
         id="path1866"
         transform="translate(1685,0)"
         style="stroke:#000000;fill:none"
         d="M 9 -16 L -9 16" />
    </g>
  </g>
</svg>
