<svg version="1.1"
 width="1000" height="1000"
 xmlns="http://www.w3.org/2000/svg" xmlns:xlink="http://www.w3.org/1999/xlink">
<g stroke-linecap="round" stroke-linejoin="round" fill="none" stroke="#000000">
<g id="char_2f" transform="matrix(1,0,0,-1,800,280)">
          <polyline points=" 0,0 12,18" />
</g>
<g id="char_2e" transform="matrix(1,0,0,-1,760,280)">
          <polyline points=" 6,0 6,0 6,0" />
</g>
<g id="char_2d" transform="matrix(1,0,0,-1,720,280)">
          <polyline points=" 0,9 12,9" />
</g>
<g id="char_2c" transform="matrix(1,0,0,-1,680,280)">
          <polyline points=" 4,-4 6,1 6,1" />
</g>
<g id="char_2b" transform="matrix(1,0,0,-1,640,280)">
          <polyline points=" 6,2 6,16" />
          <polyline points=" 0,9 12,9" />
</g>
<g id="char_2a" transform="matrix(1,0,0,-1,600,280)">
          <polyline points=" 3,2 9,16" />
          <polyline points=" 3,16 9,2" />
          <polyline points=" 0,9 12,9" />
</g>
<g id="char_29" transform="matrix(1,0,0,-1,560,280)">
          <polyline points=" 0,-2 6,4 6,14 0,20" />
</g>
<g id="char_28" transform="matrix(1,0,0,-1,520,280)">
          <polyline points=" 12,-2 6,4 6,14 12,20" />
</g>
<g id="char_27" transform="matrix(1,0,0,-1,480,280)">
          <polyline points=" 5,14 7,18 7,18" />
</g>
<g id="char_26" transform="matrix(1,0,0,-1,440,280)">
          <polyline points=" 12,5 8,0 2,0 0,4 9,14 7,18 3,18 1,14 12,0" />
</g>
<g id="char_25" transform="matrix(1,0,0,-1,400,280)">
          <polyline points=" 0,0 12,18" />
          <polyline points=" 6,14 3,10 0,14 3,18 6,14" />
          <polyline points=" 9,8 12,4 9,0 6,4 9,8" />
</g>
<g id="char_24" transform="matrix(1,0,0,-1,360,280)">
          <polyline points=" 0,3 3,1 9,1 12,3 12,7 9,9 3,9 0,11 0,15 3,17 9,17 12,15" />
          <polyline points=" 6,19 6,-1" />
</g>
<g id="char_23" transform="matrix(1,0,0,-1,320,280)">
          <polyline points=" 2,0 4,18" />
          <polyline points=" 8,0 10,18" />
          <polyline points=" 0,13 12,13" />
          <polyline points=" 0,5 12,5" />
</g>
<g id="char_22" transform="matrix(1,0,0,-1,280,280)">
          <polyline points=" 3,14 4,18" />
          <polyline points=" 7,14 8,18" />
</g>
<g id="char_21" transform="matrix(1,0,0,-1,240,280)">
          <polyline points=" 6,0 6,0" />
          <polyline points=" 6,5 6,18" />
</g>
<g id="char_20" transform="matrix(1,0,0,-1,200,280)">
</g>
<g id="char_3f" transform="matrix(1,0,0,-1,800,320)">
          <polyline points=" 0,15 3,18 9,18 12,15 12,11 6,7 6,4" />
          <polyline points=" 6,0 6,0" />
</g>
<g id="char_3e" transform="matrix(1,0,0,-1,760,320)">
          <polyline points=" 0,0 12,9 0,18" />
</g>
<g id="char_3d" transform="matrix(1,0,0,-1,720,320)">
          <polyline points=" 0,4 12,4" />
          <polyline points=" 0,14 12,14" />
</g>
<g id="char_3c" transform="matrix(1,0,0,-1,680,320)">
          <polyline points=" 12,0 0,9 12,18" />
</g>
<g id="char_3b" transform="matrix(1,0,0,-1,640,320)">
          <polyline points=" 5,-4 7,0 7,0" />
          <polyline points=" 7,10 7,10" />
</g>
<g id="char_3a" transform="matrix(1,0,0,-1,600,320)">
          <polyline points=" 6,4 6,4" />
          <polyline points=" 6,14 6,14" />
</g>
<g id="char_39" transform="matrix(1,0,0,-1,560,320)">
          <polyline points=" 5,0 9,3 12,8 12,15 9,18 3,18 0,15 0,11 3,8 9,8 12,11" />
</g>
<g id="char_38" transform="matrix(1,0,0,-1,520,320)">
          <polyline points=" 3,10 0,13 0,16 3,19 9,19 12,16 12,13 9,10 3,10 0,7 0,3 3,0 9,0 12,3 12,7 9,10" />
</g>
<g id="char_37" transform="matrix(1,0,0,-1,480,320)">
          <polyline points=" 0,18 12,18 4,0" />
</g>
<g id="char_36" transform="matrix(1,0,0,-1,440,320)">
          <polyline points=" 0,7 3,10 9,10 12,7 12,3 9,0 3,0 0,3 0,10 3,15 7,18" />
</g>
<g id="char_35" transform="matrix(1,0,0,-1,400,320)">
          <polyline points=" 0,2 3,0 9,0 12,2 12,8 9,10 3,10 0,9 2,18 12,18" />
</g>
<g id="char_34" transform="matrix(1,0,0,-1,360,320)">
          <polyline points=" 9,0 9,18 0,6 12,6" />
</g>
<g id="char_33" transform="matrix(1,0,0,-1,320,320)">
          <polyline points=" 0,16 3,18 9,18 12,15 12,11 9,9 3,9" />
          <polyline points=" 9,9 12,7 12,3 9,0 3,0 0,2" />
</g>
<g id="char_32" transform="matrix(1,0,0,-1,280,320)">
          <polyline points=" 0,15 3,18 9,18 12,15 12,11 2,5 0,0 12,0" />
</g>
<g id="char_31" transform="matrix(1,0,0,-1,240,320)">
          <polyline points=" 3,0 9,0" />
          <polyline points=" 6,0 6,18 3,15" />
</g>
<g id="char_30" transform="matrix(1,0,0,-1,200,320)">
          <polyline points=" 1,2 11,16" />
          <polyline points=" 12,12 12,6 9,0 3,0 0,6 0,12 3,18 9,18 12,12" />
</g>
<g id="char_4f" transform="matrix(1,0,0,-1,800,360)">
          <polyline points=" 3,0 0,3 0,15 3,18 9,18 12,15 12,3 9,0 3,0" />
</g>
<g id="char_4e" transform="matrix(1,0,0,-1,760,360)">
          <polyline points=" 0,0 0,18 12,0 12,18" />
</g>
<g id="char_4d" transform="matrix(1,0,0,-1,720,360)">
          <polyline points=" 0,0 0,18 6,5 12,18 12,0" />
</g>
<g id="char_4c" transform="matrix(1,0,0,-1,680,360)">
          <polyline points=" 0,0 0,18" />
          <polyline points=" 0,0 12,0" />
</g>
<g id="char_4b" transform="matrix(1,0,0,-1,640,360)">
          <polyline points=" 0,0 0,18" />
          <polyline points=" 12,18 0,6" />
          <polyline points=" 3,9 12,0" />
</g>
<g id="char_4a" transform="matrix(1,0,0,-1,600,360)">
          <polyline points=" 0,2 3,0 5,0 8,2 8,18" />
          <polyline points=" 4,18 12,18" />
</g>
<g id="char_49" transform="matrix(1,0,0,-1,560,360)">
          <polyline points=" 2,0 10,0" />
          <polyline points=" 6,0 6,18" />
          <polyline points=" 2,18 10,18" />
</g>
<g id="char_48" transform="matrix(1,0,0,-1,520,360)">
          <polyline points=" 0,0 0,18" />
          <polyline points=" 12,0 12,18" />
          <polyline points=" 0,9 12,9" />
</g>
<g id="char_47" transform="matrix(1,0,0,-1,480,360)">
          <polyline points=" 12,15 9,18 3,18 0,15 0,3 3,0 9,0 12,3 12,8 5,8" />
</g>
<g id="char_46" transform="matrix(1,0,0,-1,440,360)">
          <polyline points=" 0,0 0,18 12,18" />
          <polyline points=" 0,9 9,9" />
</g>
<g id="char_45" transform="matrix(1,0,0,-1,400,360)">
          <polyline points=" 0,0 0,18 12,18" />
          <polyline points=" 0,9 9,9" />
          <polyline points=" 0,0 12,0" />
</g>
<g id="char_44" transform="matrix(1,0,0,-1,360,360)">
          <polyline points=" 0,0 0,18 9,18 12,15 12,3 9,0 0,0" />
</g>
<g id="char_43" transform="matrix(1,0,0,-1,320,360)">
          <polyline points=" 12,3 9,0 3,0 0,3 0,15 3,18 9,18 12,15" />
</g>
<g id="char_42" transform="matrix(1,0,0,-1,280,360)">
          <polyline points=" 0,0 0,18 9,18 12,15 12,12 9,9 0,9" />
          <polyline points=" 9,9 12,6 12,3 9,0 0,0" />
</g>
<g id="char_41" transform="matrix(1,0,0,-1,240,360)">
          <polyline points=" 0,0 6,18 12,0" />
          <polyline points=" 3,9 9,9" />
</g>
<g id="char_40" transform="matrix(1,0,0,-1,200,360)">
          <polyline points=" 12,2 10,0 3,0 0,3 0,15 3,18 9,18 12,15 12,6 5,6 5,13 12,13" />
</g>
<g id="char_5f" transform="matrix(1,0,0,-1,800,400)">
          <polyline points=" -18,-5 0,-5" />
</g>
<g id="char_5e" transform="matrix(1,0,0,-1,760,400)">
          <polyline points=" 0,7 6,16 12,7" />
</g>
<g id="char_5d" transform="matrix(1,0,0,-1,720,400)">
          <polyline points=" 0,-2 6,-2 6,20 0,20" />
</g>
<g id="char_5c" transform="matrix(1,0,0,-1,680,400)">
          <polyline points=" 0,18 12,0" />
</g>
<g id="char_5b" transform="matrix(1,0,0,-1,640,400)">
          <polyline points=" 12,20 6,20 6,-2 12,-2" />
</g>
<g id="char_5a" transform="matrix(1,0,0,-1,600,400)">
          <polyline points=" 0,0 12,18 0,18" />
          <polyline points=" 12,0 0,0" />
</g>
<g id="char_59" transform="matrix(1,0,0,-1,560,400)">
          <polyline points=" 6,0 6,7 0,18" />
          <polyline points=" 6,7 12,18" />
</g>
<g id="char_58" transform="matrix(1,0,0,-1,520,400)">
          <polyline points=" 0,0 12,18" />
          <polyline points=" 0,18 12,0" />
</g>
<g id="char_57" transform="matrix(1,0,0,-1,480,400)">
          <polyline points=" 0,18 3,0 6,14 9,0 12,18" />
</g>
<g id="char_56" transform="matrix(1,0,0,-1,440,400)">
          <polyline points=" 0,18 6,0 12,18" />
</g>
<g id="char_55" transform="matrix(1,0,0,-1,400,400)">
          <polyline points=" 0,18 0,3 3,0 9,0 12,3 12,18" />
</g>
<g id="char_54" transform="matrix(1,0,0,-1,360,400)">
          <polyline points=" 6,0 6,18" />
          <polyline points=" 0,18 12,18" />
</g>
<g id="char_53" transform="matrix(1,0,0,-1,320,400)">
          <polyline points=" 0,2 3,0 9,0 12,3 12,6 9,9 3,9 0,12 0,15 3,18 9,18 12,16" />
</g>
<g id="char_52" transform="matrix(1,0,0,-1,280,400)">
          <polyline points=" 0,0 0,18 9,18 12,15 12,11 9,8 0,8" />
          <polyline points=" 7,8 12,0" />
</g>
<g id="char_51" transform="matrix(1,0,0,-1,240,400)">
          <polyline points=" 3,0 0,3 0,15 3,18 9,18 12,15 12,3 9,0 3,0" />
          <polyline points=" 7,5 14,-2" />
</g>
<g id="char_50" transform="matrix(1,0,0,-1,200,400)">
          <polyline points=" 0,0 0,18 9,18 12,15 12,11 9,8 0,8" />
</g>
<g id="char_6f" transform="matrix(1,0,0,-1,800,440)">
          <polyline points=" 6,0 0,2 0,9 6,11 12,9 12,2 6,0" />
</g>
<g id="char_6e" transform="matrix(1,0,0,-1,760,440)">
          <polyline points=" 0,0 0,11" />
          <polyline points=" 0,8 6,11 12,8 12,0" />
</g>
<g id="char_6d" transform="matrix(1,0,0,-1,720,440)">
          <polyline points=" 0,0 0,12" />
          <polyline points=" 0,9 4,12 6,9 6,0" />
          <polyline points=" 6,9 10,12 12,9 12,0" />
</g>
<g id="char_6c" transform="matrix(1,0,0,-1,680,440)">
          <polyline points=" 3,0 9,0" />
          <polyline points=" 6,0 6,18 3,18" />
</g>
<g id="char_6b" transform="matrix(1,0,0,-1,640,440)">
          <polyline points=" 0,0 0,18" />
          <polyline points=" 0,5 12,11" />
          <polyline points=" 4,7 12,0" />
</g>
<g id="char_6a" transform="matrix(1,0,0,-1,600,440)">
          <polyline points=" 0,-5 4,-7 8,-5 8,11" />
          <polyline points=" 8,18 8,18" />
</g>
<g id="char_69" transform="matrix(1,0,0,-1,560,440)">
          <polyline points=" 7,0 7,11 4,11" />
          <polyline points=" 7,18 7,18" />
</g>
<g id="char_68" transform="matrix(1,0,0,-1,520,440)">
          <polyline points=" 0,0 0,18" />
          <polyline points=" 0,9 6,11 12,9 12,0" />
</g>
<g id="char_67" transform="matrix(1,0,0,-1,480,440)">
          <polyline points=" 11,2 6,0 0,2 0,9 6,11 11,9" />
          <polyline points=" 11,11 11,-5 6,-7 0,-5" />
</g>
<g id="char_66" transform="matrix(1,0,0,-1,440,440)">
          <polyline points=" 4,0 4,16 8,18 12,16" />
          <polyline points=" 0,9 8,9" />
</g>
<g id="char_65" transform="matrix(1,0,0,-1,400,440)">
          <polyline points=" 0,6 12,7 9,12 3,12 0,9 0,2 3,0 9,0 12,2" />
</g>
<g id="char_64" transform="matrix(1,0,0,-1,360,440)">
          <polyline points=" 12,2 6,0 0,2 0,9 6,11 12,9" />
          <polyline points=" 12,18 12,0" />
</g>
<g id="char_63" transform="matrix(1,0,0,-1,320,440)">
          <polyline points=" 11,9 6,11 0,9 0,2 6,0 11,2" />
</g>
<g id="char_62" transform="matrix(1,0,0,-1,280,440)">
          <polyline points=" 0,0 0,18" />
          <polyline points=" 0,9 6,11 12,9 12,2 6,0 0,2" />
</g>
<g id="char_61" transform="matrix(1,0,0,-1,240,440)">
          <polyline points=" 0,10 5,12 11,10 11,2 8,0 4,0 0,2 0,5 11,6" />
          <polyline points=" 11,2 13,0" />
</g>
<g id="char_60" transform="matrix(1,0,0,-1,200,440)">
          <polyline points=" 5,18 5,18 7,14" />
</g>
<g id="char_7d" transform="matrix(1,0,0,-1,720,480)">
          <polyline points=" 0,-2 5,1 5,6 8,9 5,12 5,17 0,20" />
</g>
<g id="char_7c" transform="matrix(1,0,0,-1,680,480)">
          <polyline points=" 6,0 6,6" />
          <polyline points=" 6,12 6,18" />
</g>
<g id="char_7b" transform="matrix(1,0,0,-1,640,480)">
          <polyline points=" 12,-2 7,1 7,6 4,9 7,12 7,17 12,20" />
</g>
<g id="char_7a" transform="matrix(1,0,0,-1,600,480)">
          <polyline points=" 0,11 12,11 0,0 12,0" />
</g>
<g id="char_79" transform="matrix(1,0,0,-1,560,480)">
          <polyline points=" 0,11 7,1" />
          <polyline points=" 3,-7 12,11" />
</g>
<g id="char_78" transform="matrix(1,0,0,-1,520,480)">
          <polyline points=" 0,0 11,11" />
          <polyline points=" 0,11 11,0" />
</g>
<g id="char_77" transform="matrix(1,0,0,-1,480,480)">
          <polyline points=" 0,11 3,0 6,8 9,0 12,11" />
</g>
<g id="char_76" transform="matrix(1,0,0,-1,440,480)">
          <polyline points=" 0,11 6,0 12,11" />
</g>
<g id="char_75" transform="matrix(1,0,0,-1,400,480)">
          <polyline points=" 0,11 0,2 6,0 12,2 12,11" />
</g>
<g id="char_74" transform="matrix(1,0,0,-1,360,480)">
          <polyline points=" 12,2 8,0 4,2 4,18" />
          <polyline points=" 0,11 8,11" />
</g>
<g id="char_73" transform="matrix(1,0,0,-1,320,480)">
          <polyline points=" 0,2 6,0 12,2 12,5 0,7 0,10 6,12 12,10" />
</g>
<g id="char_72" transform="matrix(1,0,0,-1,280,480)">
          <polyline points=" 0,0 0,11" />
          <polyline points=" 0,8 6,11 12,8" />
</g>
<g id="char_71" transform="matrix(1,0,0,-1,240,480)">
          <polyline points=" 11,2 6,0 0,2 0,9 6,11 11,9" />
          <polyline points=" 11,11 11,-6 13,-8" />
</g>
<g id="char_70" transform="matrix(1,0,0,-1,200,480)">
          <polyline points=" 0,-7 0,11" />
          <polyline points=" 0,9 6,11 12,9 12,2 6,0 0,2" />
</g>
</g>
</svg>
