<?xml version="1.0" encoding="UTF-8"?>
<svg width="16.764mm" height="24.384mm" viewBox="0 0 660 960" version="1.2" baseProfile="tiny" xmlns:n1="http://www.w3.org/2000/svg" xmlns:xlink="http://www.w3.org/1999/xlink" xmlns:cpcb="http://www.danielwagenaar.net/cpcb-ns.html">
  <cpcb:part pkg="BNC-Bulkhead" xmlns="http://www.danielwagenaar.net/cpcb-ns.html">
    <group ref="J?">
      <trace p1="381000 292100" p2="381000 381000" w="2540" l="1"/>
      <trace p1="381000 381000" p2="254000 381000" w="2540" l="1"/>
      <trace p1="393700 381000" p2="381000 381000" w="2540" l="1"/>
      <hole p="368300 457200" id="22860" od="29210" sq="0" ref=""/>
      <hole p="317500 508000" id="10160" od="16510" sq="1" ref="1"/>
      <hole p="292100 508000" id="10160" od="16510" sq="0" ref="2"/>
      <trace p1="393700 520700" p2="393700 381000" w="2540" l="1"/>
      <trace p1="254000 292100" p2="266700 292100" w="2540" l="1"/>
      <trace p1="241300 520700" p2="393700 520700" w="2540" l="1"/>
      <trace p1="241300 381000" p2="241300 520700" w="2540" l="1"/>
      <hole p="266700 457200" id="22860" od="29210" sq="0" ref=""/>
      <trace p1="368300 292100" p2="381000 292100" w="2540" l="1"/>
      <trace p1="266700 292100" p2="368300 292100" w="2540" l="1"/>
      <trace p1="254000 381000" p2="254000 292100" w="2540" l="1"/>
      <trace p1="254000 381000" p2="241300 381000" w="2540" l="1"/>
    </group>
    <text p="240030 278130" fs="12700" l="1" rot="0" text="J?"/>
  </cpcb:part>
<n1:title>PCB Component</n1:title>
<n1:desc>Generated by CPCB</n1:desc>
<n1:defs>
</n1:defs>
<n1:g fill="none" stroke="black" stroke-width="1" fill-rule="evenodd" stroke-linecap="square" stroke-linejoin="bevel">

<n1:g fill="#000000" fill-opacity="1" stroke="none" transform="matrix(1,0,0,1,-920,-1120)" font-family="Sans" font-size="152.778" font-weight="400" font-style="normal">
<n1:rect x="920" y="1120" width="660" height="960"/>
</n1:g>

<n1:g fill="#00b400" fill-opacity="1" stroke="none" transform="matrix(1,0,0,1,-920,-1120)" font-family="Sans" font-size="152.778" font-weight="400" font-style="normal">
<n1:circle cx="1450" cy="1800" r="57.5"/>
</n1:g>

<n1:g fill="#00b400" fill-opacity="1" stroke="#00b400" stroke-opacity="1" stroke-width="65" stroke-linecap="butt" stroke-linejoin="bevel" transform="matrix(1,0,0,1,-920,-1120)" font-family="Sans" font-size="152.778" font-weight="400" font-style="normal">
<n1:polyline fill="none" vector-effect="none" points="1218,2000 1282,2000 "/>
</n1:g>

<n1:g fill="#00b400" fill-opacity="1" stroke="none" transform="matrix(1,0,0,1,-920,-1120)" font-family="Sans" font-size="152.778" font-weight="400" font-style="normal">
<n1:circle cx="1150" cy="2000" r="32.5"/>
</n1:g>

<n1:g fill="#00b400" fill-opacity="1" stroke="none" transform="matrix(1,0,0,1,-920,-1120)" font-family="Sans" font-size="152.778" font-weight="400" font-style="normal">
<n1:circle cx="1050" cy="1800" r="57.5"/>
</n1:g>

<n1:g fill="#ff0000" fill-opacity="1" stroke="none" transform="matrix(1,0,0,1,-920,-1120)" font-family="Sans" font-size="152.778" font-weight="400" font-style="normal">
<n1:circle cx="1450" cy="1800" r="57.5"/>
</n1:g>

<n1:g fill="#ff0000" fill-opacity="1" stroke="#ff0000" stroke-opacity="1" stroke-width="65" stroke-linecap="butt" stroke-linejoin="bevel" transform="matrix(1,0,0,1,-920,-1120)" font-family="Sans" font-size="152.778" font-weight="400" font-style="normal">
<n1:polyline fill="none" vector-effect="none" points="1218,2000 1282,2000 "/>
</n1:g>

<n1:g fill="#ff0000" fill-opacity="1" stroke="none" transform="matrix(1,0,0,1,-920,-1120)" font-family="Sans" font-size="152.778" font-weight="400" font-style="normal">
<n1:circle cx="1150" cy="2000" r="32.5"/>
</n1:g>

<n1:g fill="#ff0000" fill-opacity="1" stroke="none" transform="matrix(1,0,0,1,-920,-1120)" font-family="Sans" font-size="152.778" font-weight="400" font-style="normal">
<n1:circle cx="1050" cy="1800" r="57.5"/>
</n1:g>

<n1:g fill="#000000" fill-opacity="1" stroke="none" transform="matrix(1,0,0,1,-920,-1120)" font-family="Sans" font-size="152.778" font-weight="400" font-style="normal">
<n1:circle cx="1450" cy="1800" r="45"/>
</n1:g>

<n1:g fill="#000000" fill-opacity="1" stroke="none" transform="matrix(1,0,0,1,-920,-1120)" font-family="Sans" font-size="152.778" font-weight="400" font-style="normal">
<n1:circle cx="1250" cy="2000" r="20"/>
</n1:g>

<n1:g fill="#000000" fill-opacity="1" stroke="none" transform="matrix(1,0,0,1,-920,-1120)" font-family="Sans" font-size="152.778" font-weight="400" font-style="normal">
<n1:circle cx="1150" cy="2000" r="20"/>
</n1:g>

<n1:g fill="#000000" fill-opacity="1" stroke="none" transform="matrix(1,0,0,1,-920,-1120)" font-family="Sans" font-size="152.778" font-weight="400" font-style="normal">
<n1:circle cx="1050" cy="1800" r="45"/>
</n1:g>

<n1:g fill="#000000" fill-opacity="1" stroke="#f0f000" stroke-opacity="1" stroke-width="10" stroke-linecap="round" stroke-linejoin="bevel" transform="matrix(1,0,0,1,-920,-1120)" font-family="Sans" font-size="152.778" font-weight="400" font-style="normal">
<n1:polyline fill="none" vector-effect="none" points="1500,1150 1500,1500 "/>
<n1:polyline fill="none" vector-effect="none" points="1500,1500 1000,1500 "/>
<n1:polyline fill="none" vector-effect="none" points="1550,1500 1500,1500 "/>
<n1:polyline fill="none" vector-effect="none" points="1550,2050 1550,1500 "/>
<n1:polyline fill="none" vector-effect="none" points="1000,1150 1050,1150 "/>
<n1:polyline fill="none" vector-effect="none" points="950,2050 1550,2050 "/>
<n1:polyline fill="none" vector-effect="none" points="950,1500 950,2050 "/>
<n1:polyline fill="none" vector-effect="none" points="1450,1150 1500,1150 "/>
<n1:polyline fill="none" vector-effect="none" points="1050,1150 1450,1150 "/>
<n1:polyline fill="none" vector-effect="none" points="1000,1500 1000,1150 "/>
<n1:polyline fill="none" vector-effect="none" points="1000,1500 950,1500 "/>
</n1:g>
</n1:g>
</svg>
