<?xml version="1.0" encoding="UTF-8"?>
<svg width="16.764mm" height="29.9212mm" viewBox="0 0 660 1177.72" version="1.2" baseProfile="tiny" xmlns:n1="http://www.w3.org/2000/svg" xmlns:xlink="http://www.w3.org/1999/xlink" xmlns:cpcb="http://www.danielwagenaar.net/cpcb-ns.html">
  <cpcb:part pkg="BNC-Bulkhead" xmlns="http://www.danielwagenaar.net/cpcb-ns.html">
    <group ref="J?">
      <trace p1="368300 12700" p2="368300 101600" w="2540" l="1"/>
      <trace p1="368300 101600" p2="241300 101600" w="2540" l="1"/>
      <trace p1="381000 101600" p2="368300 101600" w="2540" l="1"/>
      <hole p="355600 177800" id="22860" od="29210" ref=""/>
      <hole p="304800 228600" id="10160" od="16510" sq="1" ref="1"/>
      <hole p="279400 228600" id="10160" od="16510" ref="2"/>
      <trace p1="381000 241300" p2="381000 101600" w="2540" l="1"/>
      <trace p1="241300 12700" p2="254000 12700" w="2540" l="1"/>
      <trace p1="228600 241300" p2="381000 241300" w="2540" l="1"/>
      <trace p1="228600 101600" p2="228600 241300" w="2540" l="1"/>
      <hole p="254000 177800" id="22860" od="29210" ref=""/>
      <trace p1="355600 12700" p2="368300 12700" w="2540" l="1"/>
      <trace p1="254000 12700" p2="355600 12700" w="2540" l="1"/>
      <trace p1="241300 101600" p2="241300 12700" w="2540" l="1"/>
      <trace p1="241300 101600" p2="228600 101600" w="2540" l="1"/>
      <arc p="304800 20900" r="63500" lw="2540" l="4" ang="360" rota="180"/>
      <trace p1="273550 102400" p2="330700 102400" w="2540" l="4"/>
    </group>
    <text p="197330 117380" fs="12700" l="1" rot="0" text="J?"/>
  </cpcb:part>
<n1:title>PCB Component</n1:title>
<n1:desc>Generated by CPCB</n1:desc>
<n1:defs>
</n1:defs>
<n1:g fill="none" stroke="black" stroke-width="1" fill-rule="evenodd" stroke-linecap="square" stroke-linejoin="bevel">

<n1:g fill="#000000" fill-opacity="1" stroke="none" transform="matrix(1,0,0,1,-870,197.717)" font-family="Sans" font-size="152.778" font-weight="400" font-style="normal">
<n1:rect x="870" y="-197.717" width="660" height="1177.72"/>
</n1:g>

<n1:g fill="#00b400" fill-opacity="1" stroke="none" transform="matrix(1,0,0,1,-870,197.717)" font-family="Sans" font-size="152.778" font-weight="400" font-style="normal">
<n1:circle cx="1400" cy="700" r="57.5"/>
</n1:g>

<n1:g fill="#00b400" fill-opacity="1" stroke="#00b400" stroke-opacity="1" stroke-width="65" stroke-linecap="butt" stroke-linejoin="bevel" transform="matrix(1,0,0,1,-870,197.717)" font-family="Sans" font-size="152.778" font-weight="400" font-style="normal">
<n1:polyline fill="none" vector-effect="none" points="1168,900 1232,900 "/>
</n1:g>

<n1:g fill="#00b400" fill-opacity="1" stroke="none" transform="matrix(1,0,0,1,-870,197.717)" font-family="Sans" font-size="152.778" font-weight="400" font-style="normal">
<n1:circle cx="1100" cy="900" r="32.5"/>
</n1:g>

<n1:g fill="#00b400" fill-opacity="1" stroke="none" transform="matrix(1,0,0,1,-870,197.717)" font-family="Sans" font-size="152.778" font-weight="400" font-style="normal">
<n1:circle cx="1000" cy="700" r="57.5"/>
</n1:g>

<n1:g fill="#ff0000" fill-opacity="1" stroke="none" transform="matrix(1,0,0,1,-870,197.717)" font-family="Sans" font-size="152.778" font-weight="400" font-style="normal">
<n1:circle cx="1400" cy="700" r="57.5"/>
</n1:g>

<n1:g fill="#ff0000" fill-opacity="1" stroke="#ff0000" stroke-opacity="1" stroke-width="65" stroke-linecap="butt" stroke-linejoin="bevel" transform="matrix(1,0,0,1,-870,197.717)" font-family="Sans" font-size="152.778" font-weight="400" font-style="normal">
<n1:polyline fill="none" vector-effect="none" points="1168,900 1232,900 "/>
</n1:g>

<n1:g fill="#ff0000" fill-opacity="1" stroke="none" transform="matrix(1,0,0,1,-870,197.717)" font-family="Sans" font-size="152.778" font-weight="400" font-style="normal">
<n1:circle cx="1100" cy="900" r="32.5"/>
</n1:g>

<n1:g fill="#ff0000" fill-opacity="1" stroke="none" transform="matrix(1,0,0,1,-870,197.717)" font-family="Sans" font-size="152.778" font-weight="400" font-style="normal">
<n1:circle cx="1000" cy="700" r="57.5"/>
</n1:g>

<n1:g fill="#ffffff" fill-opacity="1" stroke="none" transform="matrix(1,0,0,1,-870,197.717)" font-family="Sans" font-size="152.778" font-weight="400" font-style="normal">
<n1:circle cx="1400" cy="700" r="45"/>
</n1:g>

<n1:g fill="#ffffff" fill-opacity="1" stroke="none" transform="matrix(1,0,0,1,-870,197.717)" font-family="Sans" font-size="152.778" font-weight="400" font-style="normal">
<n1:circle cx="1200" cy="900" r="20"/>
</n1:g>

<n1:g fill="#ffffff" fill-opacity="1" stroke="none" transform="matrix(1,0,0,1,-870,197.717)" font-family="Sans" font-size="152.778" font-weight="400" font-style="normal">
<n1:circle cx="1100" cy="900" r="20"/>
</n1:g>

<n1:g fill="#ffffff" fill-opacity="1" stroke="none" transform="matrix(1,0,0,1,-870,197.717)" font-family="Sans" font-size="152.778" font-weight="400" font-style="normal">
<n1:circle cx="1000" cy="700" r="45"/>
</n1:g>

<n1:g fill="#ffffff" fill-opacity="1" stroke="#f0f000" stroke-opacity="1" stroke-width="10" stroke-linecap="round" stroke-linejoin="bevel" transform="matrix(1,0,0,1,-870,197.717)" font-family="Sans" font-size="152.778" font-weight="400" font-style="normal">
<n1:polyline fill="none" vector-effect="none" points="1450,50 1450,400 "/>
<n1:polyline fill="none" vector-effect="none" points="1450,400 950,400 "/>
<n1:polyline fill="none" vector-effect="none" points="1500,400 1450,400 "/>
<n1:polyline fill="none" vector-effect="none" points="1500,950 1500,400 "/>
<n1:polyline fill="none" vector-effect="none" points="950,50 1000,50 "/>
<n1:polyline fill="none" vector-effect="none" points="900,950 1500,950 "/>
<n1:polyline fill="none" vector-effect="none" points="900,400 900,950 "/>
<n1:polyline fill="none" vector-effect="none" points="1400,50 1450,50 "/>
<n1:polyline fill="none" vector-effect="none" points="1000,50 1400,50 "/>
<n1:polyline fill="none" vector-effect="none" points="950,400 950,50 "/>
<n1:polyline fill="none" vector-effect="none" points="950,400 900,400 "/>
</n1:g>

<n1:g fill="none" stroke="#9664ff" stroke-opacity="1" stroke-width="10" stroke-linecap="round" stroke-linejoin="bevel" transform="matrix(1,0,0,1,-870,197.717)" font-family="Sans" font-size="152.778" font-weight="400" font-style="normal">
<n1:path vector-effect="none" fill-rule="evenodd" d="M1200,332.283 C1338.07,332.283 1450,220.355 1450,82.2835 C1450,-55.7877 1338.07,-167.717 1200,-167.717 C1061.93,-167.717 950,-55.7877 950,82.2835 C950,220.355 1061.93,332.283 1200,332.283 "/>
<n1:polyline fill="none" vector-effect="none" points="1076.97,403.15 1301.97,403.15 "/>
</n1:g>
</n1:g>
</svg>
