<?xml version="1.0" encoding="UTF-8"?>
<svg width="16.764mm" height="24.384mm" viewBox="0 0 660 960" version="1.2" baseProfile="tiny" xmlns:n1="http://www.w3.org/2000/svg" xmlns:xlink="http://www.w3.org/1999/xlink" xmlns:cpcb="http://www.danielwagenaar.net/cpcb-ns.html">
  <cpcb:part pkg="BNC-Bulkhead" xmlns="http://www.danielwagenaar.net/cpcb-ns.html">
    <group ref="J?">
      <trace p1="469900 165100" p2="469900 254000" w="2540" l="1"/>
      <trace p1="469900 254000" p2="342900 254000" w="2540" l="1"/>
      <trace p1="482600 254000" p2="469900 254000" w="2540" l="1"/>
      <hole p="457200 330200" id="21590" od="27940" sq="0" ref=""/>
      <hole p="406400 381000" id="10160" od="16510" sq="1" ref="1"/>
      <hole p="381000 381000" id="10160" od="16510" sq="0" ref="2"/>
      <trace p1="482600 393700" p2="482600 254000" w="2540" l="1"/>
      <trace p1="342900 165100" p2="355600 165100" w="2540" l="1"/>
      <trace p1="330200 393700" p2="482600 393700" w="2540" l="1"/>
      <trace p1="330200 254000" p2="330200 393700" w="2540" l="1"/>
      <hole p="355600 330200" id="21590" od="27940" sq="0" ref=""/>
      <trace p1="457200 165100" p2="469900 165100" w="2540" l="1"/>
      <trace p1="355600 165100" p2="457200 165100" w="2540" l="1"/>
      <trace p1="342900 254000" p2="342900 165100" w="2540" l="1"/>
      <trace p1="342900 254000" p2="330200 254000" w="2540" l="1"/>
    </group>
    <text p="328930 151130" fs="12700" l="1" ori="0 0" text="J?"/>
  </cpcb:part>
<n1:title>PCB Component</n1:title>
<n1:desc>Generated by CPCB</n1:desc>
<n1:defs>
</n1:defs>
<n1:g fill="none" stroke="black" stroke-width="1" fill-rule="evenodd" stroke-linecap="square" stroke-linejoin="bevel">

<n1:g fill="#000000" fill-opacity="1" stroke="none" transform="matrix(1,0,0,1,-1270,-620)" font-family="Sans" font-size="152.778" font-weight="400" font-style="normal">
<n1:rect x="1270" y="620" width="660" height="960"/>
</n1:g>

<n1:g fill="#00b400" fill-opacity="1" stroke="none" transform="matrix(1,0,0,1,-1270,-620)" font-family="Sans" font-size="152.778" font-weight="400" font-style="normal">
<n1:circle cx="1800" cy="1300" r="55"/>
</n1:g>

<n1:g fill="#00b400" fill-opacity="1" stroke="none" transform="matrix(1,0,0,1,-1270,-620)" font-family="Sans" font-size="152.778" font-weight="400" font-style="normal">
<n1:rect x="1567.5" y="1467.5" width="65" height="65"/>
</n1:g>

<n1:g fill="#00b400" fill-opacity="1" stroke="none" transform="matrix(1,0,0,1,-1270,-620)" font-family="Sans" font-size="152.778" font-weight="400" font-style="normal">
<n1:circle cx="1500" cy="1500" r="32.5"/>
</n1:g>

<n1:g fill="#00b400" fill-opacity="1" stroke="none" transform="matrix(1,0,0,1,-1270,-620)" font-family="Sans" font-size="152.778" font-weight="400" font-style="normal">
<n1:circle cx="1400" cy="1300" r="55"/>
</n1:g>

<n1:g fill="#ff0000" fill-opacity="1" stroke="none" transform="matrix(1,0,0,1,-1270,-620)" font-family="Sans" font-size="152.778" font-weight="400" font-style="normal">
<n1:circle cx="1800" cy="1300" r="55"/>
</n1:g>

<n1:g fill="#ff0000" fill-opacity="1" stroke="none" transform="matrix(1,0,0,1,-1270,-620)" font-family="Sans" font-size="152.778" font-weight="400" font-style="normal">
<n1:rect x="1567.5" y="1467.5" width="65" height="65"/>
</n1:g>

<n1:g fill="#ff0000" fill-opacity="1" stroke="none" transform="matrix(1,0,0,1,-1270,-620)" font-family="Sans" font-size="152.778" font-weight="400" font-style="normal">
<n1:circle cx="1500" cy="1500" r="32.5"/>
</n1:g>

<n1:g fill="#ff0000" fill-opacity="1" stroke="none" transform="matrix(1,0,0,1,-1270,-620)" font-family="Sans" font-size="152.778" font-weight="400" font-style="normal">
<n1:circle cx="1400" cy="1300" r="55"/>
</n1:g>

<n1:g fill="#000000" fill-opacity="1" stroke="none" transform="matrix(1,0,0,1,-1270,-620)" font-family="Sans" font-size="152.778" font-weight="400" font-style="normal">
<n1:circle cx="1800" cy="1300" r="42.5"/>
</n1:g>

<n1:g fill="#000000" fill-opacity="1" stroke="none" transform="matrix(1,0,0,1,-1270,-620)" font-family="Sans" font-size="152.778" font-weight="400" font-style="normal">
<n1:circle cx="1600" cy="1500" r="20"/>
</n1:g>

<n1:g fill="#000000" fill-opacity="1" stroke="none" transform="matrix(1,0,0,1,-1270,-620)" font-family="Sans" font-size="152.778" font-weight="400" font-style="normal">
<n1:circle cx="1500" cy="1500" r="20"/>
</n1:g>

<n1:g fill="#000000" fill-opacity="1" stroke="none" transform="matrix(1,0,0,1,-1270,-620)" font-family="Sans" font-size="152.778" font-weight="400" font-style="normal">
<n1:circle cx="1400" cy="1300" r="42.5"/>
</n1:g>

<n1:g fill="#000000" fill-opacity="1" stroke="#f0f000" stroke-opacity="1" stroke-width="10" stroke-linecap="round" stroke-linejoin="bevel" transform="matrix(1,0,0,1,-1270,-620)" font-family="Sans" font-size="152.778" font-weight="400" font-style="normal">
<n1:polyline fill="none" vector-effect="none" points="1850,650 1850,1000 "/>
<n1:polyline fill="none" vector-effect="none" points="1850,1000 1350,1000 "/>
<n1:polyline fill="none" vector-effect="none" points="1900,1000 1850,1000 "/>
<n1:polyline fill="none" vector-effect="none" points="1900,1550 1900,1000 "/>
<n1:polyline fill="none" vector-effect="none" points="1350,650 1400,650 "/>
<n1:polyline fill="none" vector-effect="none" points="1300,1550 1900,1550 "/>
<n1:polyline fill="none" vector-effect="none" points="1300,1000 1300,1550 "/>
<n1:polyline fill="none" vector-effect="none" points="1800,650 1850,650 "/>
<n1:polyline fill="none" vector-effect="none" points="1400,650 1800,650 "/>
<n1:polyline fill="none" vector-effect="none" points="1350,1000 1350,650 "/>
<n1:polyline fill="none" vector-effect="none" points="1350,1000 1300,1000 "/>
</n1:g>
</n1:g>
</svg>
