<?xml version="1.0" encoding="UTF-8"?>
<svg width="34.0614mm" height="14.5288mm" viewBox="0 0 1340.94 571.654" version="1.2" baseProfile="tiny" xmlns:n1="http://www.w3.org/2000/svg" xmlns:xlink="http://www.w3.org/1999/xlink" xmlns:cpcb="http://www.danielwagenaar.net/cpcb-ns.html">
  <cpcb:part pkg="DB9-Pressfit-D09P91C4PA00LF" xmlns="http://www.danielwagenaar.net/cpcb-ns.html">
    <group ref="J?">
      <hole p="368300 342900" id="33020" od="40640" sq="0" ref=""/>
      <hole p="118300 342900" id="33020" od="40640" sq="0" ref=""/>
      <trace p1="338500 298700" p2="308500 388700" w="2500" l="1"/>
      <trace p1="148500 298700" p2="338500 298700" w="2500" l="1"/>
      <trace p1="173500 388700" p2="148500 298700" w="2500" l="1"/>
      <trace p1="308500 388700" p2="173500 388700" w="2500" l="1"/>
      <hole p="215900 328700" id="12000" od="17500" sq="0" ref="2"/>
      <hole p="243300 328700" id="12000" od="17500" sq="0" ref="3"/>
      <hole p="188500 328700" id="12000" od="17500" sq="1" ref="1"/>
      <hole p="270700 328700" id="12000" od="17500" sq="0" ref="4"/>
      <hole p="298100 328700" id="12000" od="17500" sq="0" ref="5"/>
      <hole p="229600 357100" id="12000" od="17500" sq="0" ref="7"/>
      <hole p="202200 357100" id="12000" od="17500" sq="0" ref="6"/>
      <hole p="284400 357100" id="12000" od="17500" sq="0" ref="9"/>
      <hole p="257000 357100" id="12000" od="17500" sq="0" ref="8"/>
      <trace p1="406200 278700" p2="406200 408700" w="2500" l="1"/>
      <trace p1="406200 408700" p2="80800 408700" w="2500" l="1"/>
      <trace p1="80800 408700" p2="80800 278700" w="2500" l="1"/>
      <trace p1="80800 278700" p2="406200 278700" w="2500" l="1"/>
      <text p="160000 310000" fs="12700" l="1" rot="0" text="M"/>
    </group>
    <text p="88300 264750" fs="12700" l="1" rot="0" text="J?"/>
  </cpcb:part>
<n1:title>PCB Component</n1:title>
<n1:desc>Generated by CPCB</n1:desc>
<n1:defs>
</n1:defs>
<n1:g fill="none" stroke="black" stroke-width="1" fill-rule="evenodd" stroke-linecap="square" stroke-linejoin="bevel">

<n1:g fill="#000000" fill-opacity="1" stroke="none" transform="matrix(1,0,0,1,-288.189,-1067.32)" font-family="Sans" font-size="152.778" font-weight="400" font-style="normal">
<n1:rect x="288.189" y="1067.32" width="1340.94" height="571.654"/>
</n1:g>

<n1:g fill="#00b400" fill-opacity="1" stroke="none" transform="matrix(1,0,0,1,-288.189,-1067.32)" font-family="Sans" font-size="152.778" font-weight="400" font-style="normal">
<n1:circle cx="1450" cy="1350" r="80"/>
</n1:g>

<n1:g fill="#00b400" fill-opacity="1" stroke="none" transform="matrix(1,0,0,1,-288.189,-1067.32)" font-family="Sans" font-size="152.778" font-weight="400" font-style="normal">
<n1:circle cx="465.748" cy="1350" r="80"/>
</n1:g>

<n1:g fill="#00b400" fill-opacity="1" stroke="none" transform="matrix(1,0,0,1,-288.189,-1067.32)" font-family="Sans" font-size="152.778" font-weight="400" font-style="normal">
<n1:circle cx="850" cy="1294.09" r="34.4488"/>
</n1:g>

<n1:g fill="#00b400" fill-opacity="1" stroke="none" transform="matrix(1,0,0,1,-288.189,-1067.32)" font-family="Sans" font-size="152.778" font-weight="400" font-style="normal">
<n1:circle cx="957.874" cy="1294.09" r="34.4488"/>
</n1:g>

<n1:g fill="#00b400" fill-opacity="1" stroke="none" transform="matrix(1,0,0,1,-288.189,-1067.32)" font-family="Sans" font-size="152.778" font-weight="400" font-style="normal">
<n1:rect x="707.677" y="1259.65" width="68.8976" height="68.8976"/>
</n1:g>

<n1:g fill="#00b400" fill-opacity="1" stroke="none" transform="matrix(1,0,0,1,-288.189,-1067.32)" font-family="Sans" font-size="152.778" font-weight="400" font-style="normal">
<n1:circle cx="1065.75" cy="1294.09" r="34.4488"/>
</n1:g>

<n1:g fill="#00b400" fill-opacity="1" stroke="none" transform="matrix(1,0,0,1,-288.189,-1067.32)" font-family="Sans" font-size="152.778" font-weight="400" font-style="normal">
<n1:circle cx="1173.62" cy="1294.09" r="34.4488"/>
</n1:g>

<n1:g fill="#00b400" fill-opacity="1" stroke="none" transform="matrix(1,0,0,1,-288.189,-1067.32)" font-family="Sans" font-size="152.778" font-weight="400" font-style="normal">
<n1:circle cx="903.937" cy="1405.91" r="34.4488"/>
</n1:g>

<n1:g fill="#00b400" fill-opacity="1" stroke="none" transform="matrix(1,0,0,1,-288.189,-1067.32)" font-family="Sans" font-size="152.778" font-weight="400" font-style="normal">
<n1:circle cx="796.063" cy="1405.91" r="34.4488"/>
</n1:g>

<n1:g fill="#00b400" fill-opacity="1" stroke="none" transform="matrix(1,0,0,1,-288.189,-1067.32)" font-family="Sans" font-size="152.778" font-weight="400" font-style="normal">
<n1:circle cx="1119.69" cy="1405.91" r="34.4488"/>
</n1:g>

<n1:g fill="#00b400" fill-opacity="1" stroke="none" transform="matrix(1,0,0,1,-288.189,-1067.32)" font-family="Sans" font-size="152.778" font-weight="400" font-style="normal">
<n1:circle cx="1011.81" cy="1405.91" r="34.4488"/>
</n1:g>

<n1:g fill="#ff0000" fill-opacity="1" stroke="none" transform="matrix(1,0,0,1,-288.189,-1067.32)" font-family="Sans" font-size="152.778" font-weight="400" font-style="normal">
<n1:circle cx="1450" cy="1350" r="80"/>
</n1:g>

<n1:g fill="#ff0000" fill-opacity="1" stroke="none" transform="matrix(1,0,0,1,-288.189,-1067.32)" font-family="Sans" font-size="152.778" font-weight="400" font-style="normal">
<n1:circle cx="465.748" cy="1350" r="80"/>
</n1:g>

<n1:g fill="#ff0000" fill-opacity="1" stroke="none" transform="matrix(1,0,0,1,-288.189,-1067.32)" font-family="Sans" font-size="152.778" font-weight="400" font-style="normal">
<n1:circle cx="850" cy="1294.09" r="34.4488"/>
</n1:g>

<n1:g fill="#ff0000" fill-opacity="1" stroke="none" transform="matrix(1,0,0,1,-288.189,-1067.32)" font-family="Sans" font-size="152.778" font-weight="400" font-style="normal">
<n1:circle cx="957.874" cy="1294.09" r="34.4488"/>
</n1:g>

<n1:g fill="#ff0000" fill-opacity="1" stroke="none" transform="matrix(1,0,0,1,-288.189,-1067.32)" font-family="Sans" font-size="152.778" font-weight="400" font-style="normal">
<n1:rect x="707.677" y="1259.65" width="68.8976" height="68.8976"/>
</n1:g>

<n1:g fill="#ff0000" fill-opacity="1" stroke="none" transform="matrix(1,0,0,1,-288.189,-1067.32)" font-family="Sans" font-size="152.778" font-weight="400" font-style="normal">
<n1:circle cx="1065.75" cy="1294.09" r="34.4488"/>
</n1:g>

<n1:g fill="#ff0000" fill-opacity="1" stroke="none" transform="matrix(1,0,0,1,-288.189,-1067.32)" font-family="Sans" font-size="152.778" font-weight="400" font-style="normal">
<n1:circle cx="1173.62" cy="1294.09" r="34.4488"/>
</n1:g>

<n1:g fill="#ff0000" fill-opacity="1" stroke="none" transform="matrix(1,0,0,1,-288.189,-1067.32)" font-family="Sans" font-size="152.778" font-weight="400" font-style="normal">
<n1:circle cx="903.937" cy="1405.91" r="34.4488"/>
</n1:g>

<n1:g fill="#ff0000" fill-opacity="1" stroke="none" transform="matrix(1,0,0,1,-288.189,-1067.32)" font-family="Sans" font-size="152.778" font-weight="400" font-style="normal">
<n1:circle cx="796.063" cy="1405.91" r="34.4488"/>
</n1:g>

<n1:g fill="#ff0000" fill-opacity="1" stroke="none" transform="matrix(1,0,0,1,-288.189,-1067.32)" font-family="Sans" font-size="152.778" font-weight="400" font-style="normal">
<n1:circle cx="1119.69" cy="1405.91" r="34.4488"/>
</n1:g>

<n1:g fill="#ff0000" fill-opacity="1" stroke="none" transform="matrix(1,0,0,1,-288.189,-1067.32)" font-family="Sans" font-size="152.778" font-weight="400" font-style="normal">
<n1:circle cx="1011.81" cy="1405.91" r="34.4488"/>
</n1:g>

<n1:g fill="#000000" fill-opacity="1" stroke="none" transform="matrix(1,0,0,1,-288.189,-1067.32)" font-family="Sans" font-size="152.778" font-weight="400" font-style="normal">
<n1:circle cx="1450" cy="1350" r="65"/>
</n1:g>

<n1:g fill="#000000" fill-opacity="1" stroke="none" transform="matrix(1,0,0,1,-288.189,-1067.32)" font-family="Sans" font-size="152.778" font-weight="400" font-style="normal">
<n1:circle cx="465.748" cy="1350" r="65"/>
</n1:g>

<n1:g fill="#000000" fill-opacity="1" stroke="none" transform="matrix(1,0,0,1,-288.189,-1067.32)" font-family="Sans" font-size="152.778" font-weight="400" font-style="normal">
<n1:circle cx="850" cy="1294.09" r="23.622"/>
</n1:g>

<n1:g fill="#000000" fill-opacity="1" stroke="none" transform="matrix(1,0,0,1,-288.189,-1067.32)" font-family="Sans" font-size="152.778" font-weight="400" font-style="normal">
<n1:circle cx="957.874" cy="1294.09" r="23.622"/>
</n1:g>

<n1:g fill="#000000" fill-opacity="1" stroke="none" transform="matrix(1,0,0,1,-288.189,-1067.32)" font-family="Sans" font-size="152.778" font-weight="400" font-style="normal">
<n1:circle cx="742.126" cy="1294.09" r="23.622"/>
</n1:g>

<n1:g fill="#000000" fill-opacity="1" stroke="none" transform="matrix(1,0,0,1,-288.189,-1067.32)" font-family="Sans" font-size="152.778" font-weight="400" font-style="normal">
<n1:circle cx="1065.75" cy="1294.09" r="23.622"/>
</n1:g>

<n1:g fill="#000000" fill-opacity="1" stroke="none" transform="matrix(1,0,0,1,-288.189,-1067.32)" font-family="Sans" font-size="152.778" font-weight="400" font-style="normal">
<n1:circle cx="1173.62" cy="1294.09" r="23.622"/>
</n1:g>

<n1:g fill="#000000" fill-opacity="1" stroke="none" transform="matrix(1,0,0,1,-288.189,-1067.32)" font-family="Sans" font-size="152.778" font-weight="400" font-style="normal">
<n1:circle cx="903.937" cy="1405.91" r="23.622"/>
</n1:g>

<n1:g fill="#000000" fill-opacity="1" stroke="none" transform="matrix(1,0,0,1,-288.189,-1067.32)" font-family="Sans" font-size="152.778" font-weight="400" font-style="normal">
<n1:circle cx="796.063" cy="1405.91" r="23.622"/>
</n1:g>

<n1:g fill="#000000" fill-opacity="1" stroke="none" transform="matrix(1,0,0,1,-288.189,-1067.32)" font-family="Sans" font-size="152.778" font-weight="400" font-style="normal">
<n1:circle cx="1119.69" cy="1405.91" r="23.622"/>
</n1:g>

<n1:g fill="#000000" fill-opacity="1" stroke="none" transform="matrix(1,0,0,1,-288.189,-1067.32)" font-family="Sans" font-size="152.778" font-weight="400" font-style="normal">
<n1:circle cx="1011.81" cy="1405.91" r="23.622"/>
</n1:g>

<n1:g fill="#000000" fill-opacity="1" stroke="#f0f000" stroke-opacity="1" stroke-width="9.84252" stroke-linecap="round" stroke-linejoin="bevel" transform="matrix(1,0,0,1,-288.189,-1067.32)" font-family="Sans" font-size="152.778" font-weight="400" font-style="normal">
<n1:polyline fill="none" vector-effect="none" points="1332.68,1175.98 1214.57,1530.31 "/>
<n1:polyline fill="none" vector-effect="none" points="584.646,1175.98 1332.68,1175.98 "/>
<n1:polyline fill="none" vector-effect="none" points="683.071,1530.31 584.646,1175.98 "/>
<n1:polyline fill="none" vector-effect="none" points="1214.57,1530.31 683.071,1530.31 "/>
<n1:polyline fill="none" vector-effect="none" points="1599.21,1097.24 1599.21,1609.06 "/>
<n1:polyline fill="none" vector-effect="none" points="1599.21,1609.06 318.11,1609.06 "/>
<n1:polyline fill="none" vector-effect="none" points="318.11,1609.06 318.11,1097.24 "/>
<n1:polyline fill="none" vector-effect="none" points="318.11,1097.24 1599.21,1097.24 "/>
</n1:g>

<n1:g fill="#000000" fill-opacity="1" stroke="#f0f000" stroke-opacity="1" stroke-width="3" stroke-linecap="round" stroke-linejoin="round" transform="matrix(2.5,0,0,-2.5,341.732,153.15)" font-family="Sans" font-size="152.778" font-weight="400" font-style="normal">
<n1:polyline fill="none" vector-effect="none" points="0,-10 0,8 6,-5 12,8 12,-10 "/>
</n1:g>

<n1:g fill="#000000" fill-opacity="1" stroke="#f0f000" stroke-opacity="1" stroke-width="9.84252" stroke-linecap="round" stroke-linejoin="bevel" transform="matrix(1,0,0,1,-288.189,-1067.32)" font-family="Sans" font-size="152.778" font-weight="400" font-style="normal">
</n1:g>
</n1:g>
</svg>
