<?xml version="1.0" encoding="UTF-8"?>
<svg width="12.7mm" height="17.0434mm" viewBox="0 0 500 670.945" version="1.2" baseProfile="tiny" xmlns:n1="http://www.w3.org/2000/svg" xmlns:xlink="http://www.w3.org/1999/xlink" xmlns:cpcb="http://www.danielwagenaar.net/cpcb-ns.html">
  <cpcb:part pkg="DC-Barrel-2" xmlns="http://www.danielwagenaar.net/cpcb-ns.html">
    <group ref="J2">
      <trace p1="51050 -200" p2="51050 151800" w="2500" l="1"/>
      <trace p1="51050 151800" p2="141050 151800" w="2500" l="1"/>
      <hole p="46012 114300" id="24130" od="30480" sq="0" ref="3/switch"/>
      <trace p1="141050 -200" p2="51050 -200" w="2500" l="1"/>
      <trace p1="141050 151800" p2="141050 -200" w="2500" l="1"/>
      <hole p="96050 78800" id="24130" od="30480" sq="0" ref="2/ring" fp="3"/>
      <hole p="96050 137220" id="30480" od="38100" sq="0" ref="1/pin"/>
    </group>
    <text p="146763 70623" fs="12700" l="1" rot="0" text="J2"/>
  </cpcb:part>
<n1:title>PCB Component</n1:title>
<n1:desc>Generated by CPCB</n1:desc>
<n1:defs>
</n1:defs>
<n1:g fill="none" stroke="black" stroke-width="1" fill-rule="evenodd" stroke-linecap="square" stroke-linejoin="bevel">

<n1:g fill="#000000" fill-opacity="1" stroke="none" transform="matrix(1,0,0,1,-90.6929,30.7087)" font-family="Sans" font-size="152.778" font-weight="400" font-style="normal">
<n1:rect x="90.6929" y="-30.7087" width="500" height="670.945"/>
</n1:g>

<n1:g fill="#00b400" fill-opacity="1" stroke="none" transform="matrix(1,0,0,1,-90.6929,30.7087)" font-family="Sans" font-size="152.778" font-weight="400" font-style="normal">
<n1:circle cx="181.15" cy="450" r="60"/>
</n1:g>

<n1:g fill="#00b400" fill-opacity="1" stroke="none" transform="matrix(1,0,0,1,-90.6929,30.7087)" font-family="Sans" font-size="152.778" font-weight="400" font-style="normal">
<n1:circle cx="378.15" cy="310.236" r="60"/>
</n1:g>

<n1:g fill="#00b400" fill-opacity="1" stroke="#00b400" stroke-opacity="1" stroke-width="12" stroke-linecap="butt" stroke-linejoin="bevel" transform="matrix(1,0,0,1,-90.6929,30.7087)" font-family="Sans" font-size="152.778" font-weight="400" font-style="normal">
<n1:polyline fill="none" vector-effect="none" points="301.15,310.236 455.15,310.236 "/>
<n1:polyline fill="none" vector-effect="none" points="378.15,233.236 378.15,387.236 "/>
</n1:g>

<n1:g fill="#00b400" fill-opacity="1" stroke="none" transform="matrix(1,0,0,1,-90.6929,30.7087)" font-family="Sans" font-size="152.778" font-weight="400" font-style="normal">
<n1:circle cx="378.15" cy="540.236" r="75"/>
</n1:g>

<n1:g fill="#ff0000" fill-opacity="1" stroke="none" transform="matrix(1,0,0,1,-90.6929,30.7087)" font-family="Sans" font-size="152.778" font-weight="400" font-style="normal">
<n1:circle cx="181.15" cy="450" r="60"/>
</n1:g>

<n1:g fill="#ff0000" fill-opacity="1" stroke="none" transform="matrix(1,0,0,1,-90.6929,30.7087)" font-family="Sans" font-size="152.778" font-weight="400" font-style="normal">
<n1:circle cx="378.15" cy="310.236" r="60"/>
</n1:g>

<n1:g fill="#ff0000" fill-opacity="1" stroke="none" transform="matrix(1,0,0,1,-90.6929,30.7087)" font-family="Sans" font-size="152.778" font-weight="400" font-style="normal">
<n1:circle cx="378.15" cy="540.236" r="75"/>
</n1:g>

<n1:g fill="#000000" fill-opacity="1" stroke="none" transform="matrix(1,0,0,1,-90.6929,30.7087)" font-family="Sans" font-size="152.778" font-weight="400" font-style="normal">
<n1:circle cx="181.15" cy="450" r="47.5"/>
</n1:g>

<n1:g fill="#000000" fill-opacity="1" stroke="none" transform="matrix(1,0,0,1,-90.6929,30.7087)" font-family="Sans" font-size="152.778" font-weight="400" font-style="normal">
<n1:circle cx="378.15" cy="310.236" r="47.5"/>
</n1:g>

<n1:g fill="#000000" fill-opacity="1" stroke="none" transform="matrix(1,0,0,1,-90.6929,30.7087)" font-family="Sans" font-size="152.778" font-weight="400" font-style="normal">
<n1:circle cx="378.15" cy="540.236" r="60"/>
</n1:g>

<n1:g fill="#000000" fill-opacity="1" stroke="#f0f000" stroke-opacity="1" stroke-width="9.84252" stroke-linecap="round" stroke-linejoin="bevel" transform="matrix(1,0,0,1,-90.6929,30.7087)" font-family="Sans" font-size="152.778" font-weight="400" font-style="normal">
<n1:polyline fill="none" vector-effect="none" points="200.984,-0.787402 200.984,597.638 "/>
<n1:polyline fill="none" vector-effect="none" points="200.984,597.638 555.315,597.638 "/>
<n1:polyline fill="none" vector-effect="none" points="555.315,-0.787402 200.984,-0.787402 "/>
<n1:polyline fill="none" vector-effect="none" points="555.315,597.638 555.315,-0.787402 "/>
</n1:g>
</n1:g>
</svg>
