<?xml version="1.0" encoding="UTF-8"?>
<svg width="24.5364mm" height="19.0246mm" viewBox="0 0 965.512 748.976" version="1.2" baseProfile="tiny" xmlns:n1="http://www.w3.org/2000/svg" xmlns:xlink="http://www.w3.org/1999/xlink" xmlns:cpcb="http://www.danielwagenaar.net/cpcb-ns.html">
  <cpcb:part pkg="DIN-3" xmlns="http://www.danielwagenaar.net/cpcb-ns.html">
    <group ref="J?">
      <nphole p="600000 110000" d="23500" rot="180"/>
      <nphole p="525000 150000" d="23500" rot="180"/>
      <hole p="450000 150000" id="22500" od="26310" ref="" rot="180"/>
      <hole p="600000 150000" id="22500" od="26310" ref="" rot="180"/>
      <trace p1="640000 250000" p2="410000 250000" w="2540" l="1"/>
      <hole p="500000 100000" id="13500" od="18000" ref="" rot="180"/>
      <hole p="550000 100000" id="13500" od="18000" ref="" rot="180"/>
      <nphole p="450000 110000" d="23500" rot="180"/>
      <trace p1="640000 80000" p2="410000 80000" w="2540" l="1"/>
      <trace p1="640000 75000" p2="640000 250000" w="2540" l="1"/>
      <trace p1="410000 75000" p2="640000 75000" w="2540" l="1"/>
      <trace p1="410000 250000" p2="410000 75000" w="2540" l="1"/>
      <hole p="525000 200000" id="13500" od="18000" ref="2" rot="180"/>
      <hole p="450000 200000" id="13500" od="18000" sq="1" ref="1" rot="180"/>
      <hole p="600000 200000" id="13500" od="18000" ref="3" rot="180"/>
    </group>
    <text p="373410 83256" fs="12700" l="1" rot="0" text="J?"/>
  </cpcb:part>
<n1:title>PCB Component</n1:title>
<n1:desc>Generated by CPCB</n1:desc>
<n1:defs>
</n1:defs>
<n1:g fill="none" stroke="black" stroke-width="1" fill-rule="evenodd" stroke-linecap="square" stroke-linejoin="bevel">

<n1:g fill="#000000" fill-opacity="1" stroke="none" transform="matrix(1,0,0,1,-1584.17,-265.276)" font-family="Sans" font-size="152.778" font-weight="400" font-style="normal">
<n1:rect x="1584.17" y="265.276" width="965.512" height="748.976"/>
</n1:g>

<n1:g fill="#00b400" fill-opacity="1" stroke="none" transform="matrix(1,0,0,1,-1584.17,-265.276)" font-family="Sans" font-size="152.778" font-weight="400" font-style="normal">
<n1:circle cx="1771.65" cy="590.551" r="51.7913"/>
</n1:g>

<n1:g fill="#00b400" fill-opacity="1" stroke="none" transform="matrix(1,0,0,1,-1584.17,-265.276)" font-family="Sans" font-size="152.778" font-weight="400" font-style="normal">
<n1:circle cx="2362.2" cy="590.551" r="51.7913"/>
</n1:g>

<n1:g fill="#00b400" fill-opacity="1" stroke="none" transform="matrix(1,0,0,1,-1584.17,-265.276)" font-family="Sans" font-size="152.778" font-weight="400" font-style="normal">
<n1:circle cx="1968.5" cy="393.701" r="35.4331"/>
</n1:g>

<n1:g fill="#00b400" fill-opacity="1" stroke="none" transform="matrix(1,0,0,1,-1584.17,-265.276)" font-family="Sans" font-size="152.778" font-weight="400" font-style="normal">
<n1:circle cx="2165.35" cy="393.701" r="35.4331"/>
</n1:g>

<n1:g fill="#00b400" fill-opacity="1" stroke="none" transform="matrix(1,0,0,1,-1584.17,-265.276)" font-family="Sans" font-size="152.778" font-weight="400" font-style="normal">
<n1:circle cx="2066.93" cy="787.402" r="35.4331"/>
</n1:g>

<n1:g fill="#00b400" fill-opacity="1" stroke="#00b400" stroke-opacity="1" stroke-width="70.8661" stroke-linecap="butt" stroke-linejoin="bevel" transform="matrix(1,0,0,1,-1584.17,-265.276)" font-family="Sans" font-size="152.778" font-weight="400" font-style="normal">
<n1:polyline fill="none" vector-effect="none" points="1806.65,787.402 1736.65,787.402 "/>
</n1:g>

<n1:g fill="#00b400" fill-opacity="1" stroke="none" transform="matrix(1,0,0,1,-1584.17,-265.276)" font-family="Sans" font-size="152.778" font-weight="400" font-style="normal">
<n1:circle cx="2362.2" cy="787.402" r="35.4331"/>
</n1:g>

<n1:g fill="#ff0000" fill-opacity="1" stroke="none" transform="matrix(1,0,0,1,-1584.17,-265.276)" font-family="Sans" font-size="152.778" font-weight="400" font-style="normal">
<n1:circle cx="1771.65" cy="590.551" r="51.7913"/>
</n1:g>

<n1:g fill="#ff0000" fill-opacity="1" stroke="none" transform="matrix(1,0,0,1,-1584.17,-265.276)" font-family="Sans" font-size="152.778" font-weight="400" font-style="normal">
<n1:circle cx="2362.2" cy="590.551" r="51.7913"/>
</n1:g>

<n1:g fill="#ff0000" fill-opacity="1" stroke="none" transform="matrix(1,0,0,1,-1584.17,-265.276)" font-family="Sans" font-size="152.778" font-weight="400" font-style="normal">
<n1:circle cx="1968.5" cy="393.701" r="35.4331"/>
</n1:g>

<n1:g fill="#ff0000" fill-opacity="1" stroke="none" transform="matrix(1,0,0,1,-1584.17,-265.276)" font-family="Sans" font-size="152.778" font-weight="400" font-style="normal">
<n1:circle cx="2165.35" cy="393.701" r="35.4331"/>
</n1:g>

<n1:g fill="#ff0000" fill-opacity="1" stroke="none" transform="matrix(1,0,0,1,-1584.17,-265.276)" font-family="Sans" font-size="152.778" font-weight="400" font-style="normal">
<n1:circle cx="2066.93" cy="787.402" r="35.4331"/>
</n1:g>

<n1:g fill="#ff0000" fill-opacity="1" stroke="#ff0000" stroke-opacity="1" stroke-width="70.8661" stroke-linecap="butt" stroke-linejoin="bevel" transform="matrix(1,0,0,1,-1584.17,-265.276)" font-family="Sans" font-size="152.778" font-weight="400" font-style="normal">
<n1:polyline fill="none" vector-effect="none" points="1806.65,787.402 1736.65,787.402 "/>
</n1:g>

<n1:g fill="#ff0000" fill-opacity="1" stroke="none" transform="matrix(1,0,0,1,-1584.17,-265.276)" font-family="Sans" font-size="152.778" font-weight="400" font-style="normal">
<n1:circle cx="2362.2" cy="787.402" r="35.4331"/>
</n1:g>

<n1:g fill="#ffffff" fill-opacity="1" stroke="none" transform="matrix(1,0,0,1,-1584.17,-265.276)" font-family="Sans" font-size="152.778" font-weight="400" font-style="normal">
<n1:circle cx="2362.2" cy="433.071" r="46.2598"/>
</n1:g>

<n1:g fill="#ffffff" fill-opacity="1" stroke="#787878" stroke-opacity="1" stroke-width="8" stroke-linecap="butt" stroke-linejoin="bevel" transform="matrix(1,0,0,1,-1584.17,-265.276)" font-family="Sans" font-size="152.778" font-weight="400" font-style="normal">
<n1:polyline fill="none" vector-effect="none" points="2365.48,436.342 2391.64,462.51 "/>
<n1:polyline fill="none" vector-effect="none" points="2358.93,436.342 2332.77,462.51 "/>
<n1:polyline fill="none" vector-effect="none" points="2358.93,429.8 2332.77,403.631 "/>
<n1:polyline fill="none" vector-effect="none" points="2365.48,429.8 2391.64,403.631 "/>
</n1:g>

<n1:g fill="#ffffff" fill-opacity="1" stroke="none" transform="matrix(1,0,0,1,-1584.17,-265.276)" font-family="Sans" font-size="152.778" font-weight="400" font-style="normal">
<n1:circle cx="2066.93" cy="590.551" r="46.2598"/>
</n1:g>

<n1:g fill="#ffffff" fill-opacity="1" stroke="#787878" stroke-opacity="1" stroke-width="8" stroke-linecap="butt" stroke-linejoin="bevel" transform="matrix(1,0,0,1,-1584.17,-265.276)" font-family="Sans" font-size="152.778" font-weight="400" font-style="normal">
<n1:polyline fill="none" vector-effect="none" points="2070.2,593.822 2096.37,619.991 "/>
<n1:polyline fill="none" vector-effect="none" points="2063.66,593.822 2037.49,619.991 "/>
<n1:polyline fill="none" vector-effect="none" points="2063.66,587.28 2037.49,561.112 "/>
<n1:polyline fill="none" vector-effect="none" points="2070.2,587.28 2096.37,561.112 "/>
</n1:g>

<n1:g fill="#ffffff" fill-opacity="1" stroke="none" transform="matrix(1,0,0,1,-1584.17,-265.276)" font-family="Sans" font-size="152.778" font-weight="400" font-style="normal">
<n1:circle cx="1771.65" cy="590.551" r="44.2913"/>
</n1:g>

<n1:g fill="#ffffff" fill-opacity="1" stroke="none" transform="matrix(1,0,0,1,-1584.17,-265.276)" font-family="Sans" font-size="152.778" font-weight="400" font-style="normal">
<n1:circle cx="2362.2" cy="590.551" r="44.2913"/>
</n1:g>

<n1:g fill="#ffffff" fill-opacity="1" stroke="none" transform="matrix(1,0,0,1,-1584.17,-265.276)" font-family="Sans" font-size="152.778" font-weight="400" font-style="normal">
<n1:circle cx="1968.5" cy="393.701" r="26.5748"/>
</n1:g>

<n1:g fill="#ffffff" fill-opacity="1" stroke="none" transform="matrix(1,0,0,1,-1584.17,-265.276)" font-family="Sans" font-size="152.778" font-weight="400" font-style="normal">
<n1:circle cx="2165.35" cy="393.701" r="26.5748"/>
</n1:g>

<n1:g fill="#ffffff" fill-opacity="1" stroke="none" transform="matrix(1,0,0,1,-1584.17,-265.276)" font-family="Sans" font-size="152.778" font-weight="400" font-style="normal">
<n1:circle cx="1771.65" cy="433.071" r="46.2598"/>
</n1:g>

<n1:g fill="#ffffff" fill-opacity="1" stroke="#787878" stroke-opacity="1" stroke-width="8" stroke-linecap="butt" stroke-linejoin="bevel" transform="matrix(1,0,0,1,-1584.17,-265.276)" font-family="Sans" font-size="152.778" font-weight="400" font-style="normal">
<n1:polyline fill="none" vector-effect="none" points="1774.92,436.342 1801.09,462.51 "/>
<n1:polyline fill="none" vector-effect="none" points="1768.38,436.342 1742.21,462.51 "/>
<n1:polyline fill="none" vector-effect="none" points="1768.38,429.8 1742.21,403.631 "/>
<n1:polyline fill="none" vector-effect="none" points="1774.92,429.8 1801.09,403.631 "/>
</n1:g>

<n1:g fill="#ffffff" fill-opacity="1" stroke="none" transform="matrix(1,0,0,1,-1584.17,-265.276)" font-family="Sans" font-size="152.778" font-weight="400" font-style="normal">
<n1:circle cx="2066.93" cy="787.402" r="26.5748"/>
</n1:g>

<n1:g fill="#ffffff" fill-opacity="1" stroke="none" transform="matrix(1,0,0,1,-1584.17,-265.276)" font-family="Sans" font-size="152.778" font-weight="400" font-style="normal">
<n1:circle cx="1771.65" cy="787.402" r="26.5748"/>
</n1:g>

<n1:g fill="#ffffff" fill-opacity="1" stroke="none" transform="matrix(1,0,0,1,-1584.17,-265.276)" font-family="Sans" font-size="152.778" font-weight="400" font-style="normal">
<n1:circle cx="2362.2" cy="787.402" r="26.5748"/>
</n1:g>

<n1:g fill="#ffffff" fill-opacity="1" stroke="#f0f000" stroke-opacity="1" stroke-width="10" stroke-linecap="round" stroke-linejoin="bevel" transform="matrix(1,0,0,1,-1584.17,-265.276)" font-family="Sans" font-size="152.778" font-weight="400" font-style="normal">
<n1:polyline fill="none" vector-effect="none" points="2519.69,984.252 1614.17,984.252 "/>
<n1:polyline fill="none" vector-effect="none" points="2519.69,314.961 1614.17,314.961 "/>
<n1:polyline fill="none" vector-effect="none" points="2519.69,295.276 2519.69,984.252 "/>
<n1:polyline fill="none" vector-effect="none" points="1614.17,295.276 2519.69,295.276 "/>
<n1:polyline fill="none" vector-effect="none" points="1614.17,984.252 1614.17,295.276 "/>
</n1:g>
</n1:g>
</svg>
