<?xml version="1.0" encoding="UTF-8"?>
<svg width="24.5364mm" height="37.5666mm" viewBox="0 0 965.512 1479.2" version="1.2" baseProfile="tiny" xmlns:n1="http://www.w3.org/2000/svg" xmlns:xlink="http://www.w3.org/1999/xlink" xmlns:cpcb="http://www.danielwagenaar.net/cpcb-ns.html">
  <cpcb:part pkg="DIN-3" xmlns="http://www.danielwagenaar.net/cpcb-ns.html">
    <group ref="J?">
      <nphole p="75000 0" d="23500" rot="180"/>
      <nphole p="0 40000" d="23500" rot="180"/>
      <hole p="-75000 40000" id="22500" od="26310" ref="" rot="180"/>
      <hole p="75000 40000" id="22500" od="26310" ref="" rot="180"/>
      <trace p1="115000 140000" p2="-115000 140000" w="2540" l="1"/>
      <hole p="-25000 -10000" id="13500" od="18000" ref="Shield" rot="180"/>
      <hole p="25000 -10000" id="13500" od="18000" ref="Shield" rot="180"/>
      <nphole p="-75000 0" d="23500" rot="180"/>
      <trace p1="115000 -30000" p2="-115000 -30000" w="2540" l="1"/>
      <trace p1="115000 -35000" p2="115000 140000" w="2540" l="1"/>
      <trace p1="-115000 -35000" p2="115000 -35000" w="2540" l="1"/>
      <trace p1="-115000 140000" p2="-115000 -35000" w="2540" l="1"/>
      <hole p="0 90000" id="13500" od="18000" ref="2" rot="180"/>
      <hole p="-75000 90000" id="13500" od="18000" sq="1" ref="1" rot="180"/>
      <hole p="75000 90000" id="13500" od="18000" ref="3" rot="180"/>
      <arc p="-92 -135476" r="85000" lw="2540" l="4" ang="360" rota="180"/>
      <trace p1="-37700 -35400" p2="32150 -35400" w="2540" l="4"/>
    </group>
    <text p="-108490 154706" fs="12700" l="1" rot="0" text="J?"/>
  </cpcb:part>
<n1:title>PCB Component</n1:title>
<n1:desc>Generated by CPCB</n1:desc>
<n1:defs>
</n1:defs>
<n1:g fill="none" stroke="black" stroke-width="1" fill-rule="evenodd" stroke-linecap="square" stroke-linejoin="bevel">

<n1:g fill="#000000" fill-opacity="1" stroke="none" transform="matrix(1,0,0,1,482.756,898.016)" font-family="Sans" font-size="152.778" font-weight="400" font-style="normal">
<n1:rect x="-482.756" y="-898.016" width="965.512" height="1479.2"/>
</n1:g>

<n1:g fill="#00b400" fill-opacity="1" stroke="none" transform="matrix(1,0,0,1,482.756,898.016)" font-family="Sans" font-size="152.778" font-weight="400" font-style="normal">
<n1:circle cx="-295.276" cy="157.48" r="51.7913"/>
</n1:g>

<n1:g fill="#00b400" fill-opacity="1" stroke="none" transform="matrix(1,0,0,1,482.756,898.016)" font-family="Sans" font-size="152.778" font-weight="400" font-style="normal">
<n1:circle cx="295.276" cy="157.48" r="51.7913"/>
</n1:g>

<n1:g fill="#00b400" fill-opacity="1" stroke="none" transform="matrix(1,0,0,1,482.756,898.016)" font-family="Sans" font-size="152.778" font-weight="400" font-style="normal">
<n1:circle cx="-98.4252" cy="-39.3701" r="35.4331"/>
</n1:g>

<n1:g fill="#00b400" fill-opacity="1" stroke="none" transform="matrix(1,0,0,1,482.756,898.016)" font-family="Sans" font-size="152.778" font-weight="400" font-style="normal">
<n1:circle cx="98.4252" cy="-39.3701" r="35.4331"/>
</n1:g>

<n1:g fill="#00b400" fill-opacity="1" stroke="none" transform="matrix(1,0,0,1,482.756,898.016)" font-family="Sans" font-size="152.778" font-weight="400" font-style="normal">
<n1:circle cx="0" cy="354.331" r="35.4331"/>
</n1:g>

<n1:g fill="#00b400" fill-opacity="1" stroke="#00b400" stroke-opacity="1" stroke-width="70.8661" stroke-linecap="butt" stroke-linejoin="bevel" transform="matrix(1,0,0,1,482.756,898.016)" font-family="Sans" font-size="152.778" font-weight="400" font-style="normal">
<n1:polyline fill="none" vector-effect="none" points="-260.276,354.331 -330.276,354.331 "/>
</n1:g>

<n1:g fill="#00b400" fill-opacity="1" stroke="none" transform="matrix(1,0,0,1,482.756,898.016)" font-family="Sans" font-size="152.778" font-weight="400" font-style="normal">
<n1:circle cx="295.276" cy="354.331" r="35.4331"/>
</n1:g>

<n1:g fill="#ff0000" fill-opacity="1" stroke="none" transform="matrix(1,0,0,1,482.756,898.016)" font-family="Sans" font-size="152.778" font-weight="400" font-style="normal">
<n1:circle cx="-295.276" cy="157.48" r="51.7913"/>
</n1:g>

<n1:g fill="#ff0000" fill-opacity="1" stroke="none" transform="matrix(1,0,0,1,482.756,898.016)" font-family="Sans" font-size="152.778" font-weight="400" font-style="normal">
<n1:circle cx="295.276" cy="157.48" r="51.7913"/>
</n1:g>

<n1:g fill="#ff0000" fill-opacity="1" stroke="none" transform="matrix(1,0,0,1,482.756,898.016)" font-family="Sans" font-size="152.778" font-weight="400" font-style="normal">
<n1:circle cx="-98.4252" cy="-39.3701" r="35.4331"/>
</n1:g>

<n1:g fill="#ff0000" fill-opacity="1" stroke="none" transform="matrix(1,0,0,1,482.756,898.016)" font-family="Sans" font-size="152.778" font-weight="400" font-style="normal">
<n1:circle cx="98.4252" cy="-39.3701" r="35.4331"/>
</n1:g>

<n1:g fill="#ff0000" fill-opacity="1" stroke="none" transform="matrix(1,0,0,1,482.756,898.016)" font-family="Sans" font-size="152.778" font-weight="400" font-style="normal">
<n1:circle cx="0" cy="354.331" r="35.4331"/>
</n1:g>

<n1:g fill="#ff0000" fill-opacity="1" stroke="#ff0000" stroke-opacity="1" stroke-width="70.8661" stroke-linecap="butt" stroke-linejoin="bevel" transform="matrix(1,0,0,1,482.756,898.016)" font-family="Sans" font-size="152.778" font-weight="400" font-style="normal">
<n1:polyline fill="none" vector-effect="none" points="-260.276,354.331 -330.276,354.331 "/>
</n1:g>

<n1:g fill="#ff0000" fill-opacity="1" stroke="none" transform="matrix(1,0,0,1,482.756,898.016)" font-family="Sans" font-size="152.778" font-weight="400" font-style="normal">
<n1:circle cx="295.276" cy="354.331" r="35.4331"/>
</n1:g>

<n1:g fill="#ffffff" fill-opacity="1" stroke="none" transform="matrix(1,0,0,1,482.756,898.016)" font-family="Sans" font-size="152.778" font-weight="400" font-style="normal">
<n1:circle cx="295.276" cy="0" r="46.2598"/>
</n1:g>

<n1:g fill="#ffffff" fill-opacity="1" stroke="#787878" stroke-opacity="1" stroke-width="8" stroke-linecap="butt" stroke-linejoin="bevel" transform="matrix(1,0,0,1,482.756,898.016)" font-family="Sans" font-size="152.778" font-weight="400" font-style="normal">
<n1:polyline fill="none" vector-effect="none" points="298.547,3.27106 324.715,29.4396 "/>
<n1:polyline fill="none" vector-effect="none" points="292.005,3.27106 265.836,29.4396 "/>
<n1:polyline fill="none" vector-effect="none" points="292.005,-3.27106 265.836,-29.4396 "/>
<n1:polyline fill="none" vector-effect="none" points="298.547,-3.27106 324.715,-29.4396 "/>
</n1:g>

<n1:g fill="#ffffff" fill-opacity="1" stroke="none" transform="matrix(1,0,0,1,482.756,898.016)" font-family="Sans" font-size="152.778" font-weight="400" font-style="normal">
<n1:circle cx="0" cy="157.48" r="46.2598"/>
</n1:g>

<n1:g fill="#ffffff" fill-opacity="1" stroke="#787878" stroke-opacity="1" stroke-width="8" stroke-linecap="butt" stroke-linejoin="bevel" transform="matrix(1,0,0,1,482.756,898.016)" font-family="Sans" font-size="152.778" font-weight="400" font-style="normal">
<n1:polyline fill="none" vector-effect="none" points="3.27106,160.751 29.4396,186.92 "/>
<n1:polyline fill="none" vector-effect="none" points="-3.27106,160.751 -29.4396,186.92 "/>
<n1:polyline fill="none" vector-effect="none" points="-3.27106,154.209 -29.4396,128.041 "/>
<n1:polyline fill="none" vector-effect="none" points="3.27106,154.209 29.4396,128.041 "/>
</n1:g>

<n1:g fill="#ffffff" fill-opacity="1" stroke="none" transform="matrix(1,0,0,1,482.756,898.016)" font-family="Sans" font-size="152.778" font-weight="400" font-style="normal">
<n1:circle cx="-295.276" cy="157.48" r="44.2913"/>
</n1:g>

<n1:g fill="#ffffff" fill-opacity="1" stroke="none" transform="matrix(1,0,0,1,482.756,898.016)" font-family="Sans" font-size="152.778" font-weight="400" font-style="normal">
<n1:circle cx="295.276" cy="157.48" r="44.2913"/>
</n1:g>

<n1:g fill="#ffffff" fill-opacity="1" stroke="none" transform="matrix(1,0,0,1,482.756,898.016)" font-family="Sans" font-size="152.778" font-weight="400" font-style="normal">
<n1:circle cx="-98.4252" cy="-39.3701" r="26.5748"/>
</n1:g>

<n1:g fill="#ffffff" fill-opacity="1" stroke="none" transform="matrix(1,0,0,1,482.756,898.016)" font-family="Sans" font-size="152.778" font-weight="400" font-style="normal">
<n1:circle cx="98.4252" cy="-39.3701" r="26.5748"/>
</n1:g>

<n1:g fill="#ffffff" fill-opacity="1" stroke="none" transform="matrix(1,0,0,1,482.756,898.016)" font-family="Sans" font-size="152.778" font-weight="400" font-style="normal">
<n1:circle cx="-295.276" cy="0" r="46.2598"/>
</n1:g>

<n1:g fill="#ffffff" fill-opacity="1" stroke="#787878" stroke-opacity="1" stroke-width="8" stroke-linecap="butt" stroke-linejoin="bevel" transform="matrix(1,0,0,1,482.756,898.016)" font-family="Sans" font-size="152.778" font-weight="400" font-style="normal">
<n1:polyline fill="none" vector-effect="none" points="-292.005,3.27106 -265.836,29.4396 "/>
<n1:polyline fill="none" vector-effect="none" points="-298.547,3.27106 -324.715,29.4396 "/>
<n1:polyline fill="none" vector-effect="none" points="-298.547,-3.27106 -324.715,-29.4396 "/>
<n1:polyline fill="none" vector-effect="none" points="-292.005,-3.27106 -265.836,-29.4396 "/>
</n1:g>

<n1:g fill="#ffffff" fill-opacity="1" stroke="none" transform="matrix(1,0,0,1,482.756,898.016)" font-family="Sans" font-size="152.778" font-weight="400" font-style="normal">
<n1:circle cx="0" cy="354.331" r="26.5748"/>
</n1:g>

<n1:g fill="#ffffff" fill-opacity="1" stroke="none" transform="matrix(1,0,0,1,482.756,898.016)" font-family="Sans" font-size="152.778" font-weight="400" font-style="normal">
<n1:circle cx="-295.276" cy="354.331" r="26.5748"/>
</n1:g>

<n1:g fill="#ffffff" fill-opacity="1" stroke="none" transform="matrix(1,0,0,1,482.756,898.016)" font-family="Sans" font-size="152.778" font-weight="400" font-style="normal">
<n1:circle cx="295.276" cy="354.331" r="26.5748"/>
</n1:g>

<n1:g fill="#ffffff" fill-opacity="1" stroke="#f0f000" stroke-opacity="1" stroke-width="10" stroke-linecap="round" stroke-linejoin="bevel" transform="matrix(1,0,0,1,482.756,898.016)" font-family="Sans" font-size="152.778" font-weight="400" font-style="normal">
<n1:polyline fill="none" vector-effect="none" points="452.756,551.181 -452.756,551.181 "/>
<n1:polyline fill="none" vector-effect="none" points="452.756,-118.11 -452.756,-118.11 "/>
<n1:polyline fill="none" vector-effect="none" points="452.756,-137.795 452.756,551.181 "/>
<n1:polyline fill="none" vector-effect="none" points="-452.756,-137.795 452.756,-137.795 "/>
<n1:polyline fill="none" vector-effect="none" points="-452.756,551.181 -452.756,-137.795 "/>
</n1:g>

<n1:g fill="none" stroke="#9664ff" stroke-opacity="1" stroke-width="10" stroke-linecap="round" stroke-linejoin="bevel" transform="matrix(1,0,0,1,482.756,898.016)" font-family="Sans" font-size="152.778" font-weight="400" font-style="normal">
<n1:path vector-effect="none" fill-rule="evenodd" d="M-0.362205,-198.724 C184.457,-198.724 334.283,-348.55 334.283,-533.37 C334.283,-718.19 184.457,-868.016 -0.362205,-868.016 C-185.182,-868.016 -335.008,-718.19 -335.008,-533.37 C-335.008,-348.55 -185.182,-198.724 -0.362205,-198.724 "/>
<n1:polyline fill="none" vector-effect="none" points="-148.425,-139.37 126.575,-139.37 "/>
</n1:g>
</n1:g>
</svg>
