<?xml version="1.0" encoding="UTF-8"?>
<svg width="24.5364mm" height="37.5666mm" viewBox="0 0 965.512 1479.5" version="1.2" baseProfile="tiny" xmlns:n1="http://www.w3.org/2000/svg" xmlns:xlink="http://www.w3.org/1999/xlink" xmlns:cpcb="http://www.danielwagenaar.net/cpcb-ns.html">
  <cpcb:part pkg="DIN-5" xmlns="http://www.danielwagenaar.net/cpcb-ns.html">
    <group ref="J?">
      <nphole p="518300 455300" d="23500" rot="180"/>
      <nphole p="443300 495300" d="23500" rot="180"/>
      <hole p="368300 495300" id="22500" od="26310" ref="" rot="180"/>
      <hole p="518300 495300" id="22500" od="26310" ref="" rot="180"/>
      <trace p1="558300 595300" p2="328300 595300" w="2540" l="1"/>
      <hole p="418300 445300" id="13500" od="18000" ref="" fp="3" rot="180"/>
      <hole p="468300 445300" id="13500" od="18000" ref="" fp="3" rot="180"/>
      <nphole p="368300 455300" d="23500" rot="180"/>
      <trace p1="558300 420300" p2="558300 595300" w="2540" l="1"/>
      <trace p1="328300 420300" p2="558300 420300" w="2540" l="1"/>
      <trace p1="328300 595300" p2="328300 420300" w="2540" l="1"/>
      <hole p="443300 545300" id="13500" od="18000" ref="2" rot="180"/>
      <hole p="368300 545300" id="13500" od="18000" sq="1" ref="1" rot="180"/>
      <hole p="518300 545300" id="13500" od="18000" ref="3" rot="180"/>
      <hole p="493300 570300" id="13500" od="18000" ref="5" rot="180"/>
      <hole p="393300 570300" id="13500" od="18000" ref="4" rot="180"/>
      <trace p1="406200 419824" p2="476050 419824" w="2540" l="4"/>
      <arc p="437950 319748" r="85000" lw="2540" l="4" ang="360" rota="180"/>
    </group>
    <text p="296710 432206" fs="12700" l="1" rot="0" text="J?"/>
  </cpcb:part>
<n1:title>PCB Component</n1:title>
<n1:desc>Generated by CPCB</n1:desc>
<n1:defs>
</n1:defs>
<n1:g fill="none" stroke="black" stroke-width="1" fill-rule="evenodd" stroke-linecap="square" stroke-linejoin="bevel">

<n1:g fill="#000000" fill-opacity="1" stroke="none" transform="matrix(1,0,0,1,-1262.52,-894.205)" font-family="Sans" font-size="152.778" font-weight="400" font-style="normal">
<n1:rect x="1262.52" y="894.205" width="965.512" height="1479.5"/>
</n1:g>

<n1:g fill="#00b400" fill-opacity="1" stroke="none" transform="matrix(1,0,0,1,-1262.52,-894.205)" font-family="Sans" font-size="152.778" font-weight="400" font-style="normal">
<n1:circle cx="1450" cy="1950" r="51.7913"/>
</n1:g>

<n1:g fill="#00b400" fill-opacity="1" stroke="none" transform="matrix(1,0,0,1,-1262.52,-894.205)" font-family="Sans" font-size="152.778" font-weight="400" font-style="normal">
<n1:circle cx="2040.55" cy="1950" r="51.7913"/>
</n1:g>

<n1:g fill="#00b400" fill-opacity="1" stroke="none" transform="matrix(1,0,0,1,-1262.52,-894.205)" font-family="Sans" font-size="152.778" font-weight="400" font-style="normal">
<n1:circle cx="1646.85" cy="1753.15" r="35.4331"/>
</n1:g>

<n1:g fill="#00b400" fill-opacity="1" stroke="#00b400" stroke-opacity="1" stroke-width="12" stroke-linecap="butt" stroke-linejoin="bevel" transform="matrix(1,0,0,1,-1262.52,-894.205)" font-family="Sans" font-size="152.778" font-weight="400" font-style="normal">
<n1:polyline fill="none" vector-effect="none" points="1699.28,1753.15 1594.42,1753.15 "/>
<n1:polyline fill="none" vector-effect="none" points="1646.85,1805.58 1646.85,1700.72 "/>
</n1:g>

<n1:g fill="#00b400" fill-opacity="1" stroke="none" transform="matrix(1,0,0,1,-1262.52,-894.205)" font-family="Sans" font-size="152.778" font-weight="400" font-style="normal">
<n1:circle cx="1843.7" cy="1753.15" r="35.4331"/>
</n1:g>

<n1:g fill="#00b400" fill-opacity="1" stroke="#00b400" stroke-opacity="1" stroke-width="12" stroke-linecap="butt" stroke-linejoin="bevel" transform="matrix(1,0,0,1,-1262.52,-894.205)" font-family="Sans" font-size="152.778" font-weight="400" font-style="normal">
<n1:polyline fill="none" vector-effect="none" points="1896.13,1753.15 1791.27,1753.15 "/>
<n1:polyline fill="none" vector-effect="none" points="1843.7,1805.58 1843.7,1700.72 "/>
</n1:g>

<n1:g fill="#00b400" fill-opacity="1" stroke="none" transform="matrix(1,0,0,1,-1262.52,-894.205)" font-family="Sans" font-size="152.778" font-weight="400" font-style="normal">
<n1:circle cx="1745.28" cy="2146.85" r="35.4331"/>
</n1:g>

<n1:g fill="#00b400" fill-opacity="1" stroke="#00b400" stroke-opacity="1" stroke-width="70.8661" stroke-linecap="butt" stroke-linejoin="bevel" transform="matrix(1,0,0,1,-1262.52,-894.205)" font-family="Sans" font-size="152.778" font-weight="400" font-style="normal">
<n1:polyline fill="none" vector-effect="none" points="1485,2146.85 1415,2146.85 "/>
</n1:g>

<n1:g fill="#00b400" fill-opacity="1" stroke="none" transform="matrix(1,0,0,1,-1262.52,-894.205)" font-family="Sans" font-size="152.778" font-weight="400" font-style="normal">
<n1:circle cx="2040.55" cy="2146.85" r="35.4331"/>
</n1:g>

<n1:g fill="#00b400" fill-opacity="1" stroke="none" transform="matrix(1,0,0,1,-1262.52,-894.205)" font-family="Sans" font-size="152.778" font-weight="400" font-style="normal">
<n1:circle cx="1942.13" cy="2245.28" r="35.4331"/>
</n1:g>

<n1:g fill="#00b400" fill-opacity="1" stroke="none" transform="matrix(1,0,0,1,-1262.52,-894.205)" font-family="Sans" font-size="152.778" font-weight="400" font-style="normal">
<n1:circle cx="1548.43" cy="2245.28" r="35.4331"/>
</n1:g>

<n1:g fill="#ff0000" fill-opacity="1" stroke="none" transform="matrix(1,0,0,1,-1262.52,-894.205)" font-family="Sans" font-size="152.778" font-weight="400" font-style="normal">
<n1:circle cx="1450" cy="1950" r="51.7913"/>
</n1:g>

<n1:g fill="#ff0000" fill-opacity="1" stroke="none" transform="matrix(1,0,0,1,-1262.52,-894.205)" font-family="Sans" font-size="152.778" font-weight="400" font-style="normal">
<n1:circle cx="2040.55" cy="1950" r="51.7913"/>
</n1:g>

<n1:g fill="#ff0000" fill-opacity="1" stroke="none" transform="matrix(1,0,0,1,-1262.52,-894.205)" font-family="Sans" font-size="152.778" font-weight="400" font-style="normal">
<n1:circle cx="1646.85" cy="1753.15" r="35.4331"/>
</n1:g>

<n1:g fill="#ff0000" fill-opacity="1" stroke="none" transform="matrix(1,0,0,1,-1262.52,-894.205)" font-family="Sans" font-size="152.778" font-weight="400" font-style="normal">
<n1:circle cx="1843.7" cy="1753.15" r="35.4331"/>
</n1:g>

<n1:g fill="#ff0000" fill-opacity="1" stroke="none" transform="matrix(1,0,0,1,-1262.52,-894.205)" font-family="Sans" font-size="152.778" font-weight="400" font-style="normal">
<n1:circle cx="1745.28" cy="2146.85" r="35.4331"/>
</n1:g>

<n1:g fill="#ff0000" fill-opacity="1" stroke="#ff0000" stroke-opacity="1" stroke-width="70.8661" stroke-linecap="butt" stroke-linejoin="bevel" transform="matrix(1,0,0,1,-1262.52,-894.205)" font-family="Sans" font-size="152.778" font-weight="400" font-style="normal">
<n1:polyline fill="none" vector-effect="none" points="1485,2146.85 1415,2146.85 "/>
</n1:g>

<n1:g fill="#ff0000" fill-opacity="1" stroke="none" transform="matrix(1,0,0,1,-1262.52,-894.205)" font-family="Sans" font-size="152.778" font-weight="400" font-style="normal">
<n1:circle cx="2040.55" cy="2146.85" r="35.4331"/>
</n1:g>

<n1:g fill="#ff0000" fill-opacity="1" stroke="none" transform="matrix(1,0,0,1,-1262.52,-894.205)" font-family="Sans" font-size="152.778" font-weight="400" font-style="normal">
<n1:circle cx="1942.13" cy="2245.28" r="35.4331"/>
</n1:g>

<n1:g fill="#ff0000" fill-opacity="1" stroke="none" transform="matrix(1,0,0,1,-1262.52,-894.205)" font-family="Sans" font-size="152.778" font-weight="400" font-style="normal">
<n1:circle cx="1548.43" cy="2245.28" r="35.4331"/>
</n1:g>

<n1:g fill="#ffffff" fill-opacity="1" stroke="none" transform="matrix(1,0,0,1,-1262.52,-894.205)" font-family="Sans" font-size="152.778" font-weight="400" font-style="normal">
<n1:circle cx="2040.55" cy="1792.52" r="46.2598"/>
</n1:g>

<n1:g fill="#ffffff" fill-opacity="1" stroke="#787878" stroke-opacity="1" stroke-width="8" stroke-linecap="butt" stroke-linejoin="bevel" transform="matrix(1,0,0,1,-1262.52,-894.205)" font-family="Sans" font-size="152.778" font-weight="400" font-style="normal">
<n1:polyline fill="none" vector-effect="none" points="2043.82,1795.79 2069.99,1821.96 "/>
<n1:polyline fill="none" vector-effect="none" points="2037.28,1795.79 2011.11,1821.96 "/>
<n1:polyline fill="none" vector-effect="none" points="2037.28,1789.25 2011.11,1763.08 "/>
<n1:polyline fill="none" vector-effect="none" points="2043.82,1789.25 2069.99,1763.08 "/>
</n1:g>

<n1:g fill="#ffffff" fill-opacity="1" stroke="none" transform="matrix(1,0,0,1,-1262.52,-894.205)" font-family="Sans" font-size="152.778" font-weight="400" font-style="normal">
<n1:circle cx="1745.28" cy="1950" r="46.2598"/>
</n1:g>

<n1:g fill="#ffffff" fill-opacity="1" stroke="#787878" stroke-opacity="1" stroke-width="8" stroke-linecap="butt" stroke-linejoin="bevel" transform="matrix(1,0,0,1,-1262.52,-894.205)" font-family="Sans" font-size="152.778" font-weight="400" font-style="normal">
<n1:polyline fill="none" vector-effect="none" points="1748.55,1953.27 1774.72,1979.44 "/>
<n1:polyline fill="none" vector-effect="none" points="1742,1953.27 1715.84,1979.44 "/>
<n1:polyline fill="none" vector-effect="none" points="1742,1946.73 1715.84,1920.56 "/>
<n1:polyline fill="none" vector-effect="none" points="1748.55,1946.73 1774.72,1920.56 "/>
</n1:g>

<n1:g fill="#ffffff" fill-opacity="1" stroke="none" transform="matrix(1,0,0,1,-1262.52,-894.205)" font-family="Sans" font-size="152.778" font-weight="400" font-style="normal">
<n1:circle cx="1450" cy="1950" r="44.2913"/>
</n1:g>

<n1:g fill="#ffffff" fill-opacity="1" stroke="none" transform="matrix(1,0,0,1,-1262.52,-894.205)" font-family="Sans" font-size="152.778" font-weight="400" font-style="normal">
<n1:circle cx="2040.55" cy="1950" r="44.2913"/>
</n1:g>

<n1:g fill="#ffffff" fill-opacity="1" stroke="none" transform="matrix(1,0,0,1,-1262.52,-894.205)" font-family="Sans" font-size="152.778" font-weight="400" font-style="normal">
<n1:circle cx="1646.85" cy="1753.15" r="26.5748"/>
</n1:g>

<n1:g fill="#ffffff" fill-opacity="1" stroke="none" transform="matrix(1,0,0,1,-1262.52,-894.205)" font-family="Sans" font-size="152.778" font-weight="400" font-style="normal">
<n1:circle cx="1843.7" cy="1753.15" r="26.5748"/>
</n1:g>

<n1:g fill="#ffffff" fill-opacity="1" stroke="none" transform="matrix(1,0,0,1,-1262.52,-894.205)" font-family="Sans" font-size="152.778" font-weight="400" font-style="normal">
<n1:circle cx="1450" cy="1792.52" r="46.2598"/>
</n1:g>

<n1:g fill="#ffffff" fill-opacity="1" stroke="#787878" stroke-opacity="1" stroke-width="8" stroke-linecap="butt" stroke-linejoin="bevel" transform="matrix(1,0,0,1,-1262.52,-894.205)" font-family="Sans" font-size="152.778" font-weight="400" font-style="normal">
<n1:polyline fill="none" vector-effect="none" points="1453.27,1795.79 1479.44,1821.96 "/>
<n1:polyline fill="none" vector-effect="none" points="1446.73,1795.79 1420.56,1821.96 "/>
<n1:polyline fill="none" vector-effect="none" points="1446.73,1789.25 1420.56,1763.08 "/>
<n1:polyline fill="none" vector-effect="none" points="1453.27,1789.25 1479.44,1763.08 "/>
</n1:g>

<n1:g fill="#ffffff" fill-opacity="1" stroke="none" transform="matrix(1,0,0,1,-1262.52,-894.205)" font-family="Sans" font-size="152.778" font-weight="400" font-style="normal">
<n1:circle cx="1745.28" cy="2146.85" r="26.5748"/>
</n1:g>

<n1:g fill="#ffffff" fill-opacity="1" stroke="none" transform="matrix(1,0,0,1,-1262.52,-894.205)" font-family="Sans" font-size="152.778" font-weight="400" font-style="normal">
<n1:circle cx="1450" cy="2146.85" r="26.5748"/>
</n1:g>

<n1:g fill="#ffffff" fill-opacity="1" stroke="none" transform="matrix(1,0,0,1,-1262.52,-894.205)" font-family="Sans" font-size="152.778" font-weight="400" font-style="normal">
<n1:circle cx="2040.55" cy="2146.85" r="26.5748"/>
</n1:g>

<n1:g fill="#ffffff" fill-opacity="1" stroke="none" transform="matrix(1,0,0,1,-1262.52,-894.205)" font-family="Sans" font-size="152.778" font-weight="400" font-style="normal">
<n1:circle cx="1942.13" cy="2245.28" r="26.5748"/>
</n1:g>

<n1:g fill="#ffffff" fill-opacity="1" stroke="none" transform="matrix(1,0,0,1,-1262.52,-894.205)" font-family="Sans" font-size="152.778" font-weight="400" font-style="normal">
<n1:circle cx="1548.43" cy="2245.28" r="26.5748"/>
</n1:g>

<n1:g fill="#ffffff" fill-opacity="1" stroke="#f0f000" stroke-opacity="1" stroke-width="10" stroke-linecap="round" stroke-linejoin="bevel" transform="matrix(1,0,0,1,-1262.52,-894.205)" font-family="Sans" font-size="152.778" font-weight="400" font-style="normal">
<n1:polyline fill="none" vector-effect="none" points="2198.03,2343.7 1292.52,2343.7 "/>
<n1:polyline fill="none" vector-effect="none" points="2198.03,1654.72 2198.03,2343.7 "/>
<n1:polyline fill="none" vector-effect="none" points="1292.52,1654.72 2198.03,1654.72 "/>
<n1:polyline fill="none" vector-effect="none" points="1292.52,2343.7 1292.52,1654.72 "/>
</n1:g>

<n1:g fill="#ffffff" fill-opacity="1" stroke="#9664ff" stroke-opacity="1" stroke-width="10" stroke-linecap="round" stroke-linejoin="bevel" transform="matrix(1,0,0,1,-1262.52,-894.205)" font-family="Sans" font-size="152.778" font-weight="400" font-style="normal">
<n1:polyline fill="none" vector-effect="none" points="1599.21,1652.85 1874.21,1652.85 "/>
</n1:g>

<n1:g fill="none" stroke="#9664ff" stroke-opacity="1" stroke-width="10" stroke-linecap="round" stroke-linejoin="bevel" transform="matrix(1,0,0,1,-1262.52,-894.205)" font-family="Sans" font-size="152.778" font-weight="400" font-style="normal">
<n1:path vector-effect="none" fill-rule="evenodd" d="M1724.21,1593.5 C1909.03,1593.5 2058.86,1443.67 2058.86,1258.85 C2058.86,1074.03 1909.03,924.205 1724.21,924.205 C1539.39,924.205 1389.57,1074.03 1389.57,1258.85 C1389.57,1443.67 1539.39,1593.5 1724.21,1593.5 "/>
</n1:g>
</n1:g>
</svg>
