<?xml version="1.0" encoding="UTF-8"?>
<svg width="24.5364mm" height="19.0246mm" viewBox="0 0 965.512 748.976" version="1.2" baseProfile="tiny" xmlns:n1="http://www.w3.org/2000/svg" xmlns:xlink="http://www.w3.org/1999/xlink" xmlns:cpcb="http://www.danielwagenaar.net/cpcb-ns.html">
  <cpcb:part pkg="DIN-5" xmlns="http://www.danielwagenaar.net/cpcb-ns.html">
    <group ref="J?" pkg="DIN-5">
      <nphole p="280000 70000" d="23500" rot="180"/>
      <nphole p="205000 110000" d="23500" rot="180"/>
      <hole p="130000 110000" id="22500" od="26310" ref="" rot="180"/>
      <hole p="280000 110000" id="22500" od="26310" ref="" rot="180"/>
      <trace p1="320000 210000" p2="90000 210000" w="2540" l="1"/>
      <hole p="180000 60000" id="13500" od="18000" ref="" rot="180"/>
      <hole p="230000 60000" id="13500" od="18000" ref="" rot="180"/>
      <nphole p="130000 70000" d="23500" rot="180"/>
      <trace p1="320000 40000" p2="90000 40000" w="2540" l="1"/>
      <trace p1="320000 35000" p2="320000 210000" w="2540" l="1"/>
      <trace p1="90000 35000" p2="320000 35000" w="2540" l="1"/>
      <trace p1="90000 210000" p2="90000 35000" w="2540" l="1"/>
      <hole p="205000 160000" id="13500" od="18000" ref="2" rot="180"/>
      <hole p="130000 160000" id="13500" od="18000" sq="1" ref="1" rot="180"/>
      <hole p="280000 160000" id="13500" od="18000" ref="3" rot="180"/>
      <hole p="255000 185000" id="13500" od="18000" ref="5" rot="180"/>
      <hole p="155000 185000" id="13500" od="18000" ref="5" rot="180"/>
    </group>
    <text p="53410 43256" fs="12700" l="1" rot="0" text="J?"/>
  </cpcb:part>
<n1:title>PCB Component</n1:title>
<n1:desc>Generated by CPCB</n1:desc>
<n1:defs>
</n1:defs>
<n1:g fill="none" stroke="black" stroke-width="1" fill-rule="evenodd" stroke-linecap="square" stroke-linejoin="bevel">

<n1:g fill="#000000" fill-opacity="1" stroke="none" transform="matrix(1,0,0,1,-324.331,-107.795)" font-family="Sans" font-size="152.778" font-weight="400" font-style="normal">
<n1:rect x="324.331" y="107.795" width="965.512" height="748.976"/>
</n1:g>

<n1:g fill="#00b400" fill-opacity="1" stroke="none" transform="matrix(1,0,0,1,-324.331,-107.795)" font-family="Sans" font-size="152.778" font-weight="400" font-style="normal">
<n1:circle cx="511.811" cy="433.071" r="51.7913"/>
</n1:g>

<n1:g fill="#00b400" fill-opacity="1" stroke="none" transform="matrix(1,0,0,1,-324.331,-107.795)" font-family="Sans" font-size="152.778" font-weight="400" font-style="normal">
<n1:circle cx="1102.36" cy="433.071" r="51.7913"/>
</n1:g>

<n1:g fill="#00b400" fill-opacity="1" stroke="none" transform="matrix(1,0,0,1,-324.331,-107.795)" font-family="Sans" font-size="152.778" font-weight="400" font-style="normal">
<n1:circle cx="708.661" cy="236.22" r="35.4331"/>
</n1:g>

<n1:g fill="#00b400" fill-opacity="1" stroke="none" transform="matrix(1,0,0,1,-324.331,-107.795)" font-family="Sans" font-size="152.778" font-weight="400" font-style="normal">
<n1:circle cx="905.512" cy="236.22" r="35.4331"/>
</n1:g>

<n1:g fill="#00b400" fill-opacity="1" stroke="none" transform="matrix(1,0,0,1,-324.331,-107.795)" font-family="Sans" font-size="152.778" font-weight="400" font-style="normal">
<n1:circle cx="807.087" cy="629.921" r="35.4331"/>
</n1:g>

<n1:g fill="#00b400" fill-opacity="1" stroke="#00b400" stroke-opacity="1" stroke-width="70.8661" stroke-linecap="butt" stroke-linejoin="bevel" transform="matrix(1,0,0,1,-324.331,-107.795)" font-family="Sans" font-size="152.778" font-weight="400" font-style="normal">
<n1:polyline fill="none" vector-effect="none" points="546.811,629.921 476.811,629.921 "/>
</n1:g>

<n1:g fill="#00b400" fill-opacity="1" stroke="none" transform="matrix(1,0,0,1,-324.331,-107.795)" font-family="Sans" font-size="152.778" font-weight="400" font-style="normal">
<n1:circle cx="1102.36" cy="629.921" r="35.4331"/>
</n1:g>

<n1:g fill="#00b400" fill-opacity="1" stroke="none" transform="matrix(1,0,0,1,-324.331,-107.795)" font-family="Sans" font-size="152.778" font-weight="400" font-style="normal">
<n1:circle cx="1003.94" cy="728.346" r="35.4331"/>
</n1:g>

<n1:g fill="#00b400" fill-opacity="1" stroke="none" transform="matrix(1,0,0,1,-324.331,-107.795)" font-family="Sans" font-size="152.778" font-weight="400" font-style="normal">
<n1:circle cx="610.236" cy="728.346" r="35.4331"/>
</n1:g>

<n1:g fill="#ff0000" fill-opacity="1" stroke="none" transform="matrix(1,0,0,1,-324.331,-107.795)" font-family="Sans" font-size="152.778" font-weight="400" font-style="normal">
<n1:circle cx="511.811" cy="433.071" r="51.7913"/>
</n1:g>

<n1:g fill="#ff0000" fill-opacity="1" stroke="none" transform="matrix(1,0,0,1,-324.331,-107.795)" font-family="Sans" font-size="152.778" font-weight="400" font-style="normal">
<n1:circle cx="1102.36" cy="433.071" r="51.7913"/>
</n1:g>

<n1:g fill="#ff0000" fill-opacity="1" stroke="none" transform="matrix(1,0,0,1,-324.331,-107.795)" font-family="Sans" font-size="152.778" font-weight="400" font-style="normal">
<n1:circle cx="708.661" cy="236.22" r="35.4331"/>
</n1:g>

<n1:g fill="#ff0000" fill-opacity="1" stroke="none" transform="matrix(1,0,0,1,-324.331,-107.795)" font-family="Sans" font-size="152.778" font-weight="400" font-style="normal">
<n1:circle cx="905.512" cy="236.22" r="35.4331"/>
</n1:g>

<n1:g fill="#ff0000" fill-opacity="1" stroke="none" transform="matrix(1,0,0,1,-324.331,-107.795)" font-family="Sans" font-size="152.778" font-weight="400" font-style="normal">
<n1:circle cx="807.087" cy="629.921" r="35.4331"/>
</n1:g>

<n1:g fill="#ff0000" fill-opacity="1" stroke="#ff0000" stroke-opacity="1" stroke-width="70.8661" stroke-linecap="butt" stroke-linejoin="bevel" transform="matrix(1,0,0,1,-324.331,-107.795)" font-family="Sans" font-size="152.778" font-weight="400" font-style="normal">
<n1:polyline fill="none" vector-effect="none" points="546.811,629.921 476.811,629.921 "/>
</n1:g>

<n1:g fill="#ff0000" fill-opacity="1" stroke="none" transform="matrix(1,0,0,1,-324.331,-107.795)" font-family="Sans" font-size="152.778" font-weight="400" font-style="normal">
<n1:circle cx="1102.36" cy="629.921" r="35.4331"/>
</n1:g>

<n1:g fill="#ff0000" fill-opacity="1" stroke="none" transform="matrix(1,0,0,1,-324.331,-107.795)" font-family="Sans" font-size="152.778" font-weight="400" font-style="normal">
<n1:circle cx="1003.94" cy="728.346" r="35.4331"/>
</n1:g>

<n1:g fill="#ff0000" fill-opacity="1" stroke="none" transform="matrix(1,0,0,1,-324.331,-107.795)" font-family="Sans" font-size="152.778" font-weight="400" font-style="normal">
<n1:circle cx="610.236" cy="728.346" r="35.4331"/>
</n1:g>

<n1:g fill="#ffffff" fill-opacity="1" stroke="none" transform="matrix(1,0,0,1,-324.331,-107.795)" font-family="Sans" font-size="152.778" font-weight="400" font-style="normal">
<n1:circle cx="1102.36" cy="275.591" r="46.2598"/>
</n1:g>

<n1:g fill="#ffffff" fill-opacity="1" stroke="#787878" stroke-opacity="1" stroke-width="8" stroke-linecap="butt" stroke-linejoin="bevel" transform="matrix(1,0,0,1,-324.331,-107.795)" font-family="Sans" font-size="152.778" font-weight="400" font-style="normal">
<n1:polyline fill="none" vector-effect="none" points="1105.63,278.862 1131.8,305.03 "/>
<n1:polyline fill="none" vector-effect="none" points="1099.09,278.862 1072.92,305.03 "/>
<n1:polyline fill="none" vector-effect="none" points="1099.09,272.319 1072.92,246.151 "/>
<n1:polyline fill="none" vector-effect="none" points="1105.63,272.319 1131.8,246.151 "/>
</n1:g>

<n1:g fill="#ffffff" fill-opacity="1" stroke="none" transform="matrix(1,0,0,1,-324.331,-107.795)" font-family="Sans" font-size="152.778" font-weight="400" font-style="normal">
<n1:circle cx="807.087" cy="433.071" r="46.2598"/>
</n1:g>

<n1:g fill="#ffffff" fill-opacity="1" stroke="#787878" stroke-opacity="1" stroke-width="8" stroke-linecap="butt" stroke-linejoin="bevel" transform="matrix(1,0,0,1,-324.331,-107.795)" font-family="Sans" font-size="152.778" font-weight="400" font-style="normal">
<n1:polyline fill="none" vector-effect="none" points="810.358,436.342 836.526,462.51 "/>
<n1:polyline fill="none" vector-effect="none" points="803.816,436.342 777.647,462.51 "/>
<n1:polyline fill="none" vector-effect="none" points="803.816,429.8 777.647,403.631 "/>
<n1:polyline fill="none" vector-effect="none" points="810.358,429.8 836.526,403.631 "/>
</n1:g>

<n1:g fill="#ffffff" fill-opacity="1" stroke="none" transform="matrix(1,0,0,1,-324.331,-107.795)" font-family="Sans" font-size="152.778" font-weight="400" font-style="normal">
<n1:circle cx="511.811" cy="433.071" r="44.2913"/>
</n1:g>

<n1:g fill="#ffffff" fill-opacity="1" stroke="none" transform="matrix(1,0,0,1,-324.331,-107.795)" font-family="Sans" font-size="152.778" font-weight="400" font-style="normal">
<n1:circle cx="1102.36" cy="433.071" r="44.2913"/>
</n1:g>

<n1:g fill="#ffffff" fill-opacity="1" stroke="none" transform="matrix(1,0,0,1,-324.331,-107.795)" font-family="Sans" font-size="152.778" font-weight="400" font-style="normal">
<n1:circle cx="708.661" cy="236.22" r="26.5748"/>
</n1:g>

<n1:g fill="#ffffff" fill-opacity="1" stroke="none" transform="matrix(1,0,0,1,-324.331,-107.795)" font-family="Sans" font-size="152.778" font-weight="400" font-style="normal">
<n1:circle cx="905.512" cy="236.22" r="26.5748"/>
</n1:g>

<n1:g fill="#ffffff" fill-opacity="1" stroke="none" transform="matrix(1,0,0,1,-324.331,-107.795)" font-family="Sans" font-size="152.778" font-weight="400" font-style="normal">
<n1:circle cx="511.811" cy="275.591" r="46.2598"/>
</n1:g>

<n1:g fill="#ffffff" fill-opacity="1" stroke="#787878" stroke-opacity="1" stroke-width="8" stroke-linecap="butt" stroke-linejoin="bevel" transform="matrix(1,0,0,1,-324.331,-107.795)" font-family="Sans" font-size="152.778" font-weight="400" font-style="normal">
<n1:polyline fill="none" vector-effect="none" points="515.082,278.862 541.251,305.03 "/>
<n1:polyline fill="none" vector-effect="none" points="508.54,278.862 482.371,305.03 "/>
<n1:polyline fill="none" vector-effect="none" points="508.54,272.319 482.371,246.151 "/>
<n1:polyline fill="none" vector-effect="none" points="515.082,272.319 541.251,246.151 "/>
</n1:g>

<n1:g fill="#ffffff" fill-opacity="1" stroke="none" transform="matrix(1,0,0,1,-324.331,-107.795)" font-family="Sans" font-size="152.778" font-weight="400" font-style="normal">
<n1:circle cx="807.087" cy="629.921" r="26.5748"/>
</n1:g>

<n1:g fill="#ffffff" fill-opacity="1" stroke="none" transform="matrix(1,0,0,1,-324.331,-107.795)" font-family="Sans" font-size="152.778" font-weight="400" font-style="normal">
<n1:circle cx="511.811" cy="629.921" r="26.5748"/>
</n1:g>

<n1:g fill="#ffffff" fill-opacity="1" stroke="none" transform="matrix(1,0,0,1,-324.331,-107.795)" font-family="Sans" font-size="152.778" font-weight="400" font-style="normal">
<n1:circle cx="1102.36" cy="629.921" r="26.5748"/>
</n1:g>

<n1:g fill="#ffffff" fill-opacity="1" stroke="none" transform="matrix(1,0,0,1,-324.331,-107.795)" font-family="Sans" font-size="152.778" font-weight="400" font-style="normal">
<n1:circle cx="1003.94" cy="728.346" r="26.5748"/>
</n1:g>

<n1:g fill="#ffffff" fill-opacity="1" stroke="none" transform="matrix(1,0,0,1,-324.331,-107.795)" font-family="Sans" font-size="152.778" font-weight="400" font-style="normal">
<n1:circle cx="610.236" cy="728.346" r="26.5748"/>
</n1:g>

<n1:g fill="#ffffff" fill-opacity="1" stroke="#f0f000" stroke-opacity="1" stroke-width="10" stroke-linecap="round" stroke-linejoin="bevel" transform="matrix(1,0,0,1,-324.331,-107.795)" font-family="Sans" font-size="152.778" font-weight="400" font-style="normal">
<n1:polyline fill="none" vector-effect="none" points="1259.84,826.772 354.331,826.772 "/>
<n1:polyline fill="none" vector-effect="none" points="1259.84,157.48 354.331,157.48 "/>
<n1:polyline fill="none" vector-effect="none" points="1259.84,137.795 1259.84,826.772 "/>
<n1:polyline fill="none" vector-effect="none" points="354.331,137.795 1259.84,137.795 "/>
<n1:polyline fill="none" vector-effect="none" points="354.331,826.772 354.331,137.795 "/>
</n1:g>
</n1:g>
</svg>
