<?xml version="1.0" encoding="UTF-8"?>
<svg width="24.5364mm" height="37.5666mm" viewBox="0 0 965.512 1479.5" version="1.2" baseProfile="tiny" xmlns:n1="http://www.w3.org/2000/svg" xmlns:xlink="http://www.w3.org/1999/xlink" xmlns:cpcb="http://www.danielwagenaar.net/cpcb-ns.html">
  <cpcb:part pkg="DIN-5" xmlns="http://www.danielwagenaar.net/cpcb-ns.html">
    <group ref="J?">
      <nphole p="658000 175900" d="23500" rot="180"/>
      <nphole p="583000 215900" d="23500" rot="180"/>
      <hole p="508000 215900" id="22500" od="26310" ref="" rot="180"/>
      <hole p="658000 215900" id="22500" od="26310" ref="" rot="180"/>
      <trace p1="698000 315900" p2="468000 315900" w="2540" l="1"/>
      <hole p="558000 165900" id="13500" od="18000" ref="" fp="3" rot="180"/>
      <hole p="608000 165900" id="13500" od="18000" ref="" fp="3" rot="180"/>
      <nphole p="508000 175900" d="23500" rot="180"/>
      <trace p1="698000 140900" p2="698000 315900" w="2540" l="1"/>
      <trace p1="468000 140900" p2="698000 140900" w="2540" l="1"/>
      <trace p1="468000 315900" p2="468000 140900" w="2540" l="1"/>
      <hole p="583000 265900" id="13500" od="18000" ref="2" rot="180"/>
      <hole p="508000 265900" id="13500" od="18000" sq="1" ref="1" rot="180"/>
      <hole p="658000 265900" id="13500" od="18000" ref="3" rot="180"/>
      <hole p="633000 290900" id="13500" od="18000" ref="5" rot="180"/>
      <hole p="533000 290900" id="13500" od="18000" ref="4" rot="180"/>
      <trace p1="545900 140424" p2="615750 140424" w="2540" l="4"/>
      <arc p="583000 40348" r="85000" lw="2540" l="4" ang="360" rota="180"/>
    </group>
    <text p="436410 152806" fs="12700" l="1" rot="0" text="J?"/>
  </cpcb:part>
<n1:title>PCB Component</n1:title>
<n1:desc>Generated by CPCB</n1:desc>
<n1:defs>
</n1:defs>
<n1:g fill="none" stroke="black" stroke-width="1" fill-rule="evenodd" stroke-linecap="square" stroke-linejoin="bevel">

<n1:g fill="#000000" fill-opacity="1" stroke="none" transform="matrix(1,0,0,1,-1812.52,205.795)" font-family="Sans" font-size="152.778" font-weight="400" font-style="normal">
<n1:rect x="1812.52" y="-205.795" width="965.512" height="1479.5"/>
</n1:g>

<n1:g fill="#00b400" fill-opacity="1" stroke="none" transform="matrix(1,0,0,1,-1812.52,205.795)" font-family="Sans" font-size="152.778" font-weight="400" font-style="normal">
<n1:circle cx="2000" cy="850" r="51.7913"/>
</n1:g>

<n1:g fill="#00b400" fill-opacity="1" stroke="none" transform="matrix(1,0,0,1,-1812.52,205.795)" font-family="Sans" font-size="152.778" font-weight="400" font-style="normal">
<n1:circle cx="2590.55" cy="850" r="51.7913"/>
</n1:g>

<n1:g fill="#00b400" fill-opacity="1" stroke="none" transform="matrix(1,0,0,1,-1812.52,205.795)" font-family="Sans" font-size="152.778" font-weight="400" font-style="normal">
<n1:circle cx="2196.85" cy="653.15" r="35.4331"/>
</n1:g>

<n1:g fill="#00b400" fill-opacity="1" stroke="#00b400" stroke-opacity="1" stroke-width="12" stroke-linecap="butt" stroke-linejoin="bevel" transform="matrix(1,0,0,1,-1812.52,205.795)" font-family="Sans" font-size="152.778" font-weight="400" font-style="normal">
<n1:polyline fill="none" vector-effect="none" points="2249.28,653.15 2144.42,653.15 "/>
<n1:polyline fill="none" vector-effect="none" points="2196.85,705.583 2196.85,600.717 "/>
</n1:g>

<n1:g fill="#00b400" fill-opacity="1" stroke="none" transform="matrix(1,0,0,1,-1812.52,205.795)" font-family="Sans" font-size="152.778" font-weight="400" font-style="normal">
<n1:circle cx="2393.7" cy="653.15" r="35.4331"/>
</n1:g>

<n1:g fill="#00b400" fill-opacity="1" stroke="#00b400" stroke-opacity="1" stroke-width="12" stroke-linecap="butt" stroke-linejoin="bevel" transform="matrix(1,0,0,1,-1812.52,205.795)" font-family="Sans" font-size="152.778" font-weight="400" font-style="normal">
<n1:polyline fill="none" vector-effect="none" points="2446.13,653.15 2341.27,653.15 "/>
<n1:polyline fill="none" vector-effect="none" points="2393.7,705.583 2393.7,600.717 "/>
</n1:g>

<n1:g fill="#00b400" fill-opacity="1" stroke="none" transform="matrix(1,0,0,1,-1812.52,205.795)" font-family="Sans" font-size="152.778" font-weight="400" font-style="normal">
<n1:circle cx="2295.28" cy="1046.85" r="35.4331"/>
</n1:g>

<n1:g fill="#00b400" fill-opacity="1" stroke="#00b400" stroke-opacity="1" stroke-width="70.8661" stroke-linecap="butt" stroke-linejoin="bevel" transform="matrix(1,0,0,1,-1812.52,205.795)" font-family="Sans" font-size="152.778" font-weight="400" font-style="normal">
<n1:polyline fill="none" vector-effect="none" points="2035,1046.85 1965,1046.85 "/>
</n1:g>

<n1:g fill="#00b400" fill-opacity="1" stroke="none" transform="matrix(1,0,0,1,-1812.52,205.795)" font-family="Sans" font-size="152.778" font-weight="400" font-style="normal">
<n1:circle cx="2590.55" cy="1046.85" r="35.4331"/>
</n1:g>

<n1:g fill="#00b400" fill-opacity="1" stroke="none" transform="matrix(1,0,0,1,-1812.52,205.795)" font-family="Sans" font-size="152.778" font-weight="400" font-style="normal">
<n1:circle cx="2492.13" cy="1145.28" r="35.4331"/>
</n1:g>

<n1:g fill="#00b400" fill-opacity="1" stroke="none" transform="matrix(1,0,0,1,-1812.52,205.795)" font-family="Sans" font-size="152.778" font-weight="400" font-style="normal">
<n1:circle cx="2098.43" cy="1145.28" r="35.4331"/>
</n1:g>

<n1:g fill="#ff0000" fill-opacity="1" stroke="none" transform="matrix(1,0,0,1,-1812.52,205.795)" font-family="Sans" font-size="152.778" font-weight="400" font-style="normal">
<n1:circle cx="2000" cy="850" r="51.7913"/>
</n1:g>

<n1:g fill="#ff0000" fill-opacity="1" stroke="none" transform="matrix(1,0,0,1,-1812.52,205.795)" font-family="Sans" font-size="152.778" font-weight="400" font-style="normal">
<n1:circle cx="2590.55" cy="850" r="51.7913"/>
</n1:g>

<n1:g fill="#ff0000" fill-opacity="1" stroke="none" transform="matrix(1,0,0,1,-1812.52,205.795)" font-family="Sans" font-size="152.778" font-weight="400" font-style="normal">
<n1:circle cx="2196.85" cy="653.15" r="35.4331"/>
</n1:g>

<n1:g fill="#ff0000" fill-opacity="1" stroke="none" transform="matrix(1,0,0,1,-1812.52,205.795)" font-family="Sans" font-size="152.778" font-weight="400" font-style="normal">
<n1:circle cx="2393.7" cy="653.15" r="35.4331"/>
</n1:g>

<n1:g fill="#ff0000" fill-opacity="1" stroke="none" transform="matrix(1,0,0,1,-1812.52,205.795)" font-family="Sans" font-size="152.778" font-weight="400" font-style="normal">
<n1:circle cx="2295.28" cy="1046.85" r="35.4331"/>
</n1:g>

<n1:g fill="#ff0000" fill-opacity="1" stroke="#ff0000" stroke-opacity="1" stroke-width="70.8661" stroke-linecap="butt" stroke-linejoin="bevel" transform="matrix(1,0,0,1,-1812.52,205.795)" font-family="Sans" font-size="152.778" font-weight="400" font-style="normal">
<n1:polyline fill="none" vector-effect="none" points="2035,1046.85 1965,1046.85 "/>
</n1:g>

<n1:g fill="#ff0000" fill-opacity="1" stroke="none" transform="matrix(1,0,0,1,-1812.52,205.795)" font-family="Sans" font-size="152.778" font-weight="400" font-style="normal">
<n1:circle cx="2590.55" cy="1046.85" r="35.4331"/>
</n1:g>

<n1:g fill="#ff0000" fill-opacity="1" stroke="none" transform="matrix(1,0,0,1,-1812.52,205.795)" font-family="Sans" font-size="152.778" font-weight="400" font-style="normal">
<n1:circle cx="2492.13" cy="1145.28" r="35.4331"/>
</n1:g>

<n1:g fill="#ff0000" fill-opacity="1" stroke="none" transform="matrix(1,0,0,1,-1812.52,205.795)" font-family="Sans" font-size="152.778" font-weight="400" font-style="normal">
<n1:circle cx="2098.43" cy="1145.28" r="35.4331"/>
</n1:g>

<n1:g fill="#ffffff" fill-opacity="1" stroke="none" transform="matrix(1,0,0,1,-1812.52,205.795)" font-family="Sans" font-size="152.778" font-weight="400" font-style="normal">
<n1:circle cx="2590.55" cy="692.52" r="46.2598"/>
</n1:g>

<n1:g fill="#ffffff" fill-opacity="1" stroke="#787878" stroke-opacity="1" stroke-width="8" stroke-linecap="butt" stroke-linejoin="bevel" transform="matrix(1,0,0,1,-1812.52,205.795)" font-family="Sans" font-size="152.778" font-weight="400" font-style="normal">
<n1:polyline fill="none" vector-effect="none" points="2593.82,695.791 2619.99,721.959 "/>
<n1:polyline fill="none" vector-effect="none" points="2587.28,695.791 2561.11,721.959 "/>
<n1:polyline fill="none" vector-effect="none" points="2587.28,689.249 2561.11,663.08 "/>
<n1:polyline fill="none" vector-effect="none" points="2593.82,689.249 2619.99,663.08 "/>
</n1:g>

<n1:g fill="#ffffff" fill-opacity="1" stroke="none" transform="matrix(1,0,0,1,-1812.52,205.795)" font-family="Sans" font-size="152.778" font-weight="400" font-style="normal">
<n1:circle cx="2295.28" cy="850" r="46.2598"/>
</n1:g>

<n1:g fill="#ffffff" fill-opacity="1" stroke="#787878" stroke-opacity="1" stroke-width="8" stroke-linecap="butt" stroke-linejoin="bevel" transform="matrix(1,0,0,1,-1812.52,205.795)" font-family="Sans" font-size="152.778" font-weight="400" font-style="normal">
<n1:polyline fill="none" vector-effect="none" points="2298.55,853.271 2324.72,879.44 "/>
<n1:polyline fill="none" vector-effect="none" points="2292,853.271 2265.84,879.44 "/>
<n1:polyline fill="none" vector-effect="none" points="2292,846.729 2265.84,820.56 "/>
<n1:polyline fill="none" vector-effect="none" points="2298.55,846.729 2324.72,820.56 "/>
</n1:g>

<n1:g fill="#ffffff" fill-opacity="1" stroke="none" transform="matrix(1,0,0,1,-1812.52,205.795)" font-family="Sans" font-size="152.778" font-weight="400" font-style="normal">
<n1:circle cx="2000" cy="850" r="44.2913"/>
</n1:g>

<n1:g fill="#ffffff" fill-opacity="1" stroke="none" transform="matrix(1,0,0,1,-1812.52,205.795)" font-family="Sans" font-size="152.778" font-weight="400" font-style="normal">
<n1:circle cx="2590.55" cy="850" r="44.2913"/>
</n1:g>

<n1:g fill="#ffffff" fill-opacity="1" stroke="none" transform="matrix(1,0,0,1,-1812.52,205.795)" font-family="Sans" font-size="152.778" font-weight="400" font-style="normal">
<n1:circle cx="2196.85" cy="653.15" r="26.5748"/>
</n1:g>

<n1:g fill="#ffffff" fill-opacity="1" stroke="none" transform="matrix(1,0,0,1,-1812.52,205.795)" font-family="Sans" font-size="152.778" font-weight="400" font-style="normal">
<n1:circle cx="2393.7" cy="653.15" r="26.5748"/>
</n1:g>

<n1:g fill="#ffffff" fill-opacity="1" stroke="none" transform="matrix(1,0,0,1,-1812.52,205.795)" font-family="Sans" font-size="152.778" font-weight="400" font-style="normal">
<n1:circle cx="2000" cy="692.52" r="46.2598"/>
</n1:g>

<n1:g fill="#ffffff" fill-opacity="1" stroke="#787878" stroke-opacity="1" stroke-width="8" stroke-linecap="butt" stroke-linejoin="bevel" transform="matrix(1,0,0,1,-1812.52,205.795)" font-family="Sans" font-size="152.778" font-weight="400" font-style="normal">
<n1:polyline fill="none" vector-effect="none" points="2003.27,695.791 2029.44,721.959 "/>
<n1:polyline fill="none" vector-effect="none" points="1996.73,695.791 1970.56,721.959 "/>
<n1:polyline fill="none" vector-effect="none" points="1996.73,689.249 1970.56,663.08 "/>
<n1:polyline fill="none" vector-effect="none" points="2003.27,689.249 2029.44,663.08 "/>
</n1:g>

<n1:g fill="#ffffff" fill-opacity="1" stroke="none" transform="matrix(1,0,0,1,-1812.52,205.795)" font-family="Sans" font-size="152.778" font-weight="400" font-style="normal">
<n1:circle cx="2295.28" cy="1046.85" r="26.5748"/>
</n1:g>

<n1:g fill="#ffffff" fill-opacity="1" stroke="none" transform="matrix(1,0,0,1,-1812.52,205.795)" font-family="Sans" font-size="152.778" font-weight="400" font-style="normal">
<n1:circle cx="2000" cy="1046.85" r="26.5748"/>
</n1:g>

<n1:g fill="#ffffff" fill-opacity="1" stroke="none" transform="matrix(1,0,0,1,-1812.52,205.795)" font-family="Sans" font-size="152.778" font-weight="400" font-style="normal">
<n1:circle cx="2590.55" cy="1046.85" r="26.5748"/>
</n1:g>

<n1:g fill="#ffffff" fill-opacity="1" stroke="none" transform="matrix(1,0,0,1,-1812.52,205.795)" font-family="Sans" font-size="152.778" font-weight="400" font-style="normal">
<n1:circle cx="2492.13" cy="1145.28" r="26.5748"/>
</n1:g>

<n1:g fill="#ffffff" fill-opacity="1" stroke="none" transform="matrix(1,0,0,1,-1812.52,205.795)" font-family="Sans" font-size="152.778" font-weight="400" font-style="normal">
<n1:circle cx="2098.43" cy="1145.28" r="26.5748"/>
</n1:g>

<n1:g fill="#ffffff" fill-opacity="1" stroke="#f0f000" stroke-opacity="1" stroke-width="10" stroke-linecap="round" stroke-linejoin="bevel" transform="matrix(1,0,0,1,-1812.52,205.795)" font-family="Sans" font-size="152.778" font-weight="400" font-style="normal">
<n1:polyline fill="none" vector-effect="none" points="2748.03,1243.7 1842.52,1243.7 "/>
<n1:polyline fill="none" vector-effect="none" points="2748.03,554.724 2748.03,1243.7 "/>
<n1:polyline fill="none" vector-effect="none" points="1842.52,554.724 2748.03,554.724 "/>
<n1:polyline fill="none" vector-effect="none" points="1842.52,1243.7 1842.52,554.724 "/>
</n1:g>

<n1:g fill="#ffffff" fill-opacity="1" stroke="#9664ff" stroke-opacity="1" stroke-width="10" stroke-linecap="round" stroke-linejoin="bevel" transform="matrix(1,0,0,1,-1812.52,205.795)" font-family="Sans" font-size="152.778" font-weight="400" font-style="normal">
<n1:polyline fill="none" vector-effect="none" points="2149.21,552.85 2424.21,552.85 "/>
</n1:g>

<n1:g fill="none" stroke="#9664ff" stroke-opacity="1" stroke-width="10" stroke-linecap="round" stroke-linejoin="bevel" transform="matrix(1,0,0,1,-1812.52,205.795)" font-family="Sans" font-size="152.778" font-weight="400" font-style="normal">
<n1:path vector-effect="none" fill-rule="evenodd" d="M2295.28,493.496 C2480.1,493.496 2629.92,343.67 2629.92,158.85 C2629.92,-25.9693 2480.1,-175.795 2295.28,-175.795 C2110.46,-175.795 1960.63,-25.9693 1960.63,158.85 C1960.63,343.67 2110.46,493.496 2295.28,493.496 "/>
</n1:g>
</n1:g>
</svg>
