<?xml version="1.0" encoding="UTF-8"?>
<svg width="12.8016mm" height="27.305mm" viewBox="0 0 503.622 1074.64" version="1.2" baseProfile="tiny" xmlns:n1="http://www.w3.org/2000/svg" xmlns:xlink="http://www.w3.org/1999/xlink" xmlns:cpcb="http://www.danielwagenaar.net/cpcb-ns.html">
  <cpcb:part pkg="Lumberg-1" xmlns="http://www.danielwagenaar.net/cpcb-ns.html">
    <group ref="D2">
      <hole p="1168000 119680" id="22860" od="27940" ref="3/A"/>
      <trace p1="1133000 -20320" p2="1203000 -20320" w="2500" l="1"/>
      <trace p1="1203000 -20320" p2="1203000 -320" w="2500" l="1"/>
      <trace p1="1223000 -264" p2="1223000 124680" w="2500" l="1"/>
      <trace p1="1223000 124680" p2="1113000 124680" w="2500" l="1"/>
      <trace p1="1113000 124680" p2="1113000 -264" w="2500" l="1"/>
      <trace p1="1133000 -320" p2="1133000 -20320" w="2500" l="1"/>
      <hole p="1123000 89680" id="22860" od="27940" ref="2/switch"/>
      <hole p="1193000 29680" id="17780" od="21590" ref=""/>
      <hole p="1143000 29680" id="17780" od="21590" ref=""/>
      <trace p1="1113000 -264" p2="1223000 -264" w="2500" l="4"/>
      <hole p="1168000 59680" id="22860" od="27940" ref="1/K"/>
      <arc p="1168000 -70368" r="54991" lw="2500" l="4" ang="360" rota="180"/>
    </group>
    <text p="1231150 67330" fs="12700" l="1" rot="0" text="D2"/>
  </cpcb:part>
<n1:title>PCB Component</n1:title>
<n1:desc>Generated by CPCB</n1:desc>
<n1:defs>
</n1:defs>
<n1:g fill="none" stroke="black" stroke-width="1" fill-rule="evenodd" stroke-linecap="square" stroke-linejoin="bevel">

<n1:g fill="#000000" fill-opacity="1" stroke="none" transform="matrix(1,0,0,1,-4341.26,523.461)" font-family="Sans" font-size="152.778" font-weight="400" font-style="normal">
<n1:rect x="4341.26" y="-523.461" width="503.622" height="1074.64"/>
</n1:g>

<n1:g fill="#00b400" fill-opacity="1" stroke="none" transform="matrix(1,0,0,1,-4341.26,523.461)" font-family="Sans" font-size="152.778" font-weight="400" font-style="normal">
<n1:circle cx="4598.43" cy="471.181" r="55"/>
</n1:g>

<n1:g fill="#00b400" fill-opacity="1" stroke="none" transform="matrix(1,0,0,1,-4341.26,523.461)" font-family="Sans" font-size="152.778" font-weight="400" font-style="normal">
<n1:circle cx="4421.26" cy="353.071" r="55"/>
</n1:g>

<n1:g fill="#00b400" fill-opacity="1" stroke="none" transform="matrix(1,0,0,1,-4341.26,523.461)" font-family="Sans" font-size="152.778" font-weight="400" font-style="normal">
<n1:circle cx="4696.85" cy="116.85" r="42.5"/>
</n1:g>

<n1:g fill="#00b400" fill-opacity="1" stroke="none" transform="matrix(1,0,0,1,-4341.26,523.461)" font-family="Sans" font-size="152.778" font-weight="400" font-style="normal">
<n1:circle cx="4500" cy="116.85" r="42.5"/>
</n1:g>

<n1:g fill="#00b400" fill-opacity="1" stroke="none" transform="matrix(1,0,0,1,-4341.26,523.461)" font-family="Sans" font-size="152.778" font-weight="400" font-style="normal">
<n1:circle cx="4598.43" cy="234.961" r="55"/>
</n1:g>

<n1:g fill="#ff0000" fill-opacity="1" stroke="none" transform="matrix(1,0,0,1,-4341.26,523.461)" font-family="Sans" font-size="152.778" font-weight="400" font-style="normal">
<n1:circle cx="4598.43" cy="471.181" r="55"/>
</n1:g>

<n1:g fill="#ff0000" fill-opacity="1" stroke="none" transform="matrix(1,0,0,1,-4341.26,523.461)" font-family="Sans" font-size="152.778" font-weight="400" font-style="normal">
<n1:circle cx="4421.26" cy="353.071" r="55"/>
</n1:g>

<n1:g fill="#ff0000" fill-opacity="1" stroke="none" transform="matrix(1,0,0,1,-4341.26,523.461)" font-family="Sans" font-size="152.778" font-weight="400" font-style="normal">
<n1:circle cx="4696.85" cy="116.85" r="42.5"/>
</n1:g>

<n1:g fill="#ff0000" fill-opacity="1" stroke="none" transform="matrix(1,0,0,1,-4341.26,523.461)" font-family="Sans" font-size="152.778" font-weight="400" font-style="normal">
<n1:circle cx="4500" cy="116.85" r="42.5"/>
</n1:g>

<n1:g fill="#ff0000" fill-opacity="1" stroke="none" transform="matrix(1,0,0,1,-4341.26,523.461)" font-family="Sans" font-size="152.778" font-weight="400" font-style="normal">
<n1:circle cx="4598.43" cy="234.961" r="55"/>
</n1:g>

<n1:g fill="#ffffff" fill-opacity="1" stroke="none" transform="matrix(1,0,0,1,-4341.26,523.461)" font-family="Sans" font-size="152.778" font-weight="400" font-style="normal">
<n1:circle cx="4598.43" cy="471.181" r="45"/>
</n1:g>

<n1:g fill="#ffffff" fill-opacity="1" stroke="none" transform="matrix(1,0,0,1,-4341.26,523.461)" font-family="Sans" font-size="152.778" font-weight="400" font-style="normal">
<n1:circle cx="4421.26" cy="353.071" r="45"/>
</n1:g>

<n1:g fill="#ffffff" fill-opacity="1" stroke="none" transform="matrix(1,0,0,1,-4341.26,523.461)" font-family="Sans" font-size="152.778" font-weight="400" font-style="normal">
<n1:circle cx="4696.85" cy="116.85" r="35"/>
</n1:g>

<n1:g fill="#ffffff" fill-opacity="1" stroke="none" transform="matrix(1,0,0,1,-4341.26,523.461)" font-family="Sans" font-size="152.778" font-weight="400" font-style="normal">
<n1:circle cx="4500" cy="116.85" r="35"/>
</n1:g>

<n1:g fill="#ffffff" fill-opacity="1" stroke="none" transform="matrix(1,0,0,1,-4341.26,523.461)" font-family="Sans" font-size="152.778" font-weight="400" font-style="normal">
<n1:circle cx="4598.43" cy="234.961" r="45"/>
</n1:g>

<n1:g fill="#ffffff" fill-opacity="1" stroke="#f0f000" stroke-opacity="1" stroke-width="9.84252" stroke-linecap="round" stroke-linejoin="bevel" transform="matrix(1,0,0,1,-4341.26,523.461)" font-family="Sans" font-size="152.778" font-weight="400" font-style="normal">
<n1:polyline fill="none" vector-effect="none" points="4460.63,-80 4736.22,-80 "/>
<n1:polyline fill="none" vector-effect="none" points="4736.22,-80 4736.22,-1.25984 "/>
<n1:polyline fill="none" vector-effect="none" points="4814.96,-1.03937 4814.96,490.866 "/>
<n1:polyline fill="none" vector-effect="none" points="4814.96,490.866 4381.89,490.866 "/>
<n1:polyline fill="none" vector-effect="none" points="4381.89,490.866 4381.89,-1.03937 "/>
<n1:polyline fill="none" vector-effect="none" points="4460.63,-1.25984 4460.63,-80 "/>
</n1:g>

<n1:g fill="#ffffff" fill-opacity="1" stroke="#9664ff" stroke-opacity="1" stroke-width="9.84252" stroke-linecap="round" stroke-linejoin="bevel" transform="matrix(1,0,0,1,-4341.26,523.461)" font-family="Sans" font-size="152.778" font-weight="400" font-style="normal">
<n1:polyline fill="none" vector-effect="none" points="4381.89,-1.03937 4814.96,-1.03937 "/>
</n1:g>

<n1:g fill="none" stroke="#9664ff" stroke-opacity="1" stroke-width="9.84252" stroke-linecap="round" stroke-linejoin="bevel" transform="matrix(1,0,0,1,-4341.26,523.461)" font-family="Sans" font-size="152.778" font-weight="400" font-style="normal">
<n1:path vector-effect="none" fill-rule="evenodd" d="M4598.43,-60.5394 C4717.99,-60.5394 4814.93,-157.47 4814.93,-277.039 C4814.93,-396.609 4717.99,-493.539 4598.43,-493.539 C4478.86,-493.539 4381.93,-396.609 4381.93,-277.039 C4381.93,-157.47 4478.86,-60.5394 4598.43,-60.5394 "/>
</n1:g>
</n1:g>
</svg>
