<?xml version="1.0" encoding="UTF-8"?>
<svg width="12.8016mm" height="16.7894mm" viewBox="0 0 503.622 661.102" version="1.2" baseProfile="tiny" xmlns:n1="http://www.w3.org/2000/svg" xmlns:xlink="http://www.w3.org/1999/xlink" xmlns:cpcb="http://www.danielwagenaar.net/cpcb-ns.html">
  <cpcb:part pkg="Lumberg-1" xmlns="http://www.danielwagenaar.net/cpcb-ns.html">
    <group ref="D1">
      <hole p="469900 120650" id="22860" od="27940" sq="0" ref="3/A"/>
      <trace p1="434900 -19350" p2="504900 -19350" w="2500" l="1"/>
      <trace p1="504900 -19350" p2="504900 650" w="2500" l="1"/>
      <trace p1="524900 650" p2="524900 125650" w="2500" l="1"/>
      <trace p1="524900 125650" p2="414900 125650" w="2500" l="1"/>
      <trace p1="414900 125650" p2="414900 650" w="2500" l="1"/>
      <trace p1="434900 650" p2="434900 -19350" w="2500" l="1"/>
      <hole p="424900 90650" id="22860" od="27940" sq="0" ref="2/switch"/>
      <hole p="494900 30650" id="17780" od="21590" sq="0" ref=""/>
      <hole p="444900 30650" id="17780" od="21590" sq="0" ref=""/>
      <trace p1="414900 650" p2="524900 650" w="2500" l="1"/>
      <hole p="469900 60650" id="22860" od="27940" sq="0" ref="1/K"/>
    </group>
    <text p="533050 68300" fs="12700" l="1" rot="0" text="D1"/>
  </cpcb:part>
<n1:title>PCB Component</n1:title>
<n1:desc>Generated by CPCB</n1:desc>
<n1:defs>
</n1:defs>
<n1:g fill="none" stroke="black" stroke-width="1" fill-rule="evenodd" stroke-linecap="square" stroke-linejoin="bevel">

<n1:g fill="#000000" fill-opacity="1" stroke="none" transform="matrix(1,0,0,1,-1592.83,106.102)" font-family="Sans" font-size="152.778" font-weight="400" font-style="normal">
<n1:rect x="1592.83" y="-106.102" width="503.622" height="661.102"/>
</n1:g>

<n1:g fill="#00b400" fill-opacity="1" stroke="none" transform="matrix(1,0,0,1,-1592.83,106.102)" font-family="Sans" font-size="152.778" font-weight="400" font-style="normal">
<n1:circle cx="1850" cy="475" r="55"/>
</n1:g>

<n1:g fill="#00b400" fill-opacity="1" stroke="none" transform="matrix(1,0,0,1,-1592.83,106.102)" font-family="Sans" font-size="152.778" font-weight="400" font-style="normal">
<n1:circle cx="1672.83" cy="356.89" r="55"/>
</n1:g>

<n1:g fill="#00b400" fill-opacity="1" stroke="none" transform="matrix(1,0,0,1,-1592.83,106.102)" font-family="Sans" font-size="152.778" font-weight="400" font-style="normal">
<n1:circle cx="1948.43" cy="120.669" r="42.5"/>
</n1:g>

<n1:g fill="#00b400" fill-opacity="1" stroke="none" transform="matrix(1,0,0,1,-1592.83,106.102)" font-family="Sans" font-size="152.778" font-weight="400" font-style="normal">
<n1:circle cx="1751.57" cy="120.669" r="42.5"/>
</n1:g>

<n1:g fill="#00b400" fill-opacity="1" stroke="none" transform="matrix(1,0,0,1,-1592.83,106.102)" font-family="Sans" font-size="152.778" font-weight="400" font-style="normal">
<n1:circle cx="1850" cy="238.78" r="55"/>
</n1:g>

<n1:g fill="#ff0000" fill-opacity="1" stroke="none" transform="matrix(1,0,0,1,-1592.83,106.102)" font-family="Sans" font-size="152.778" font-weight="400" font-style="normal">
<n1:circle cx="1850" cy="475" r="55"/>
</n1:g>

<n1:g fill="#ff0000" fill-opacity="1" stroke="none" transform="matrix(1,0,0,1,-1592.83,106.102)" font-family="Sans" font-size="152.778" font-weight="400" font-style="normal">
<n1:circle cx="1672.83" cy="356.89" r="55"/>
</n1:g>

<n1:g fill="#ff0000" fill-opacity="1" stroke="none" transform="matrix(1,0,0,1,-1592.83,106.102)" font-family="Sans" font-size="152.778" font-weight="400" font-style="normal">
<n1:circle cx="1948.43" cy="120.669" r="42.5"/>
</n1:g>

<n1:g fill="#ff0000" fill-opacity="1" stroke="none" transform="matrix(1,0,0,1,-1592.83,106.102)" font-family="Sans" font-size="152.778" font-weight="400" font-style="normal">
<n1:circle cx="1751.57" cy="120.669" r="42.5"/>
</n1:g>

<n1:g fill="#ff0000" fill-opacity="1" stroke="none" transform="matrix(1,0,0,1,-1592.83,106.102)" font-family="Sans" font-size="152.778" font-weight="400" font-style="normal">
<n1:circle cx="1850" cy="238.78" r="55"/>
</n1:g>

<n1:g fill="#000000" fill-opacity="1" stroke="none" transform="matrix(1,0,0,1,-1592.83,106.102)" font-family="Sans" font-size="152.778" font-weight="400" font-style="normal">
<n1:circle cx="1850" cy="475" r="45"/>
</n1:g>

<n1:g fill="#000000" fill-opacity="1" stroke="none" transform="matrix(1,0,0,1,-1592.83,106.102)" font-family="Sans" font-size="152.778" font-weight="400" font-style="normal">
<n1:circle cx="1672.83" cy="356.89" r="45"/>
</n1:g>

<n1:g fill="#000000" fill-opacity="1" stroke="none" transform="matrix(1,0,0,1,-1592.83,106.102)" font-family="Sans" font-size="152.778" font-weight="400" font-style="normal">
<n1:circle cx="1948.43" cy="120.669" r="35"/>
</n1:g>

<n1:g fill="#000000" fill-opacity="1" stroke="none" transform="matrix(1,0,0,1,-1592.83,106.102)" font-family="Sans" font-size="152.778" font-weight="400" font-style="normal">
<n1:circle cx="1751.57" cy="120.669" r="35"/>
</n1:g>

<n1:g fill="#000000" fill-opacity="1" stroke="none" transform="matrix(1,0,0,1,-1592.83,106.102)" font-family="Sans" font-size="152.778" font-weight="400" font-style="normal">
<n1:circle cx="1850" cy="238.78" r="45"/>
</n1:g>

<n1:g fill="#000000" fill-opacity="1" stroke="#f0f000" stroke-opacity="1" stroke-width="9.84252" stroke-linecap="round" stroke-linejoin="bevel" transform="matrix(1,0,0,1,-1592.83,106.102)" font-family="Sans" font-size="152.778" font-weight="400" font-style="normal">
<n1:polyline fill="none" vector-effect="none" points="1712.2,-76.1811 1987.8,-76.1811 "/>
<n1:polyline fill="none" vector-effect="none" points="1987.8,-76.1811 1987.8,2.55906 "/>
<n1:polyline fill="none" vector-effect="none" points="2066.54,2.55906 2066.54,494.685 "/>
<n1:polyline fill="none" vector-effect="none" points="2066.54,494.685 1633.46,494.685 "/>
<n1:polyline fill="none" vector-effect="none" points="1633.46,494.685 1633.46,2.55906 "/>
<n1:polyline fill="none" vector-effect="none" points="1712.2,2.55906 1712.2,-76.1811 "/>
<n1:polyline fill="none" vector-effect="none" points="1633.46,2.55906 2066.54,2.55906 "/>
</n1:g>
</n1:g>
</svg>
