<?xml version="1.0" encoding="UTF-8"?>
<svg width="37.084mm" height="19.304mm" viewBox="0 0 1460 760" version="1.2" baseProfile="tiny" xmlns:n1="http://www.w3.org/2000/svg" xmlns:xlink="http://www.w3.org/1999/xlink" xmlns:cpcb="http://www.danielwagenaar.net/cpcb-ns.html">
  <cpcb:part pkg="Teensy-3-2" xmlns="http://www.danielwagenaar.net/cpcb-ns.html">
    <group ref="U?">
      <hole p="914400 406400" id="10160" od="16510" ref="D12" rot="180"/>
      <hole p="914400 381000" id="10160" od="16510" ref="VBat" rot="180"/>
      <hole p="914400 355600" id="10160" od="16510" ref="3.3V" rot="180"/>
      <hole p="914400 330200" id="10160" od="16510" ref="Gnd" rot="180"/>
      <hole p="914400 304800" id="10160" od="16510" ref="Program" rot="180"/>
      <hole p="914400 279400" id="10160" od="16510" ref="DAC" rot="180"/>
      <hole p="914400 254000" id="10160" od="16510" ref="D13" rot="180"/>
      <hole p="889000 406400" id="10160" od="16510" ref="D11" rot="180"/>
      <hole p="863600 406400" id="10160" od="16510" ref="D10" rot="180"/>
      <hole p="838200 406400" id="10160" od="16510" ref="D9" rot="180"/>
      <hole p="812800 406400" id="10160" od="16510" ref="D8" rot="180"/>
      <hole p="787400 406400" id="10160" od="16510" ref="D7" rot="180"/>
      <hole p="762000 406400" id="10160" od="16510" ref="D6" rot="180"/>
      <hole p="736600 406400" id="10160" od="16510" ref="D5" rot="180"/>
      <hole p="711200 406400" id="10160" od="16510" ref="D4" rot="180"/>
      <hole p="685800 406400" id="10160" od="16510" ref="D3" rot="180"/>
      <hole p="660400 406400" id="10160" od="16510" ref="D2" rot="180"/>
      <hole p="635000 406400" id="10160" od="16510" ref="D1" rot="180"/>
      <hole p="609600 406400" id="10160" od="16510" ref="D0" rot="180"/>
      <hole p="584200 406400" id="10160" od="16510" ref="Gnd" rot="180"/>
      <hole p="889000 254000" id="10160" od="16510" ref="D14" rot="180"/>
      <hole p="863600 254000" id="10160" od="16510" ref="D15" rot="180"/>
      <hole p="838200 254000" id="10160" od="16510" ref="D16" rot="180"/>
      <hole p="812800 254000" id="10160" od="16510" ref="D17" rot="180"/>
      <hole p="787400 254000" id="10160" od="16510" ref="D18" rot="180"/>
      <hole p="762000 254000" id="10160" od="16510" ref="D19" rot="180"/>
      <hole p="736600 254000" id="10160" od="16510" ref="D20" rot="180"/>
      <hole p="711200 254000" id="10160" od="16510" ref="D21" rot="180"/>
      <hole p="685800 254000" id="10160" od="16510" ref="D22" rot="180"/>
      <hole p="660400 254000" id="10160" od="16510" ref="D23" rot="180"/>
      <hole p="635000 254000" id="10160" od="16510" ref="3.3V" rot="180"/>
      <hole p="609600 254000" id="10160" od="16510" ref="Agnd" rot="180"/>
      <hole p="584200 254000" id="10160" od="16510" ref="Vin" rot="180"/>
      <trace p1="571500 419100" p2="571500 241300" w="2540" l="1"/>
      <trace p1="571500 241300" p2="927100 241300" w="2540" l="1"/>
      <trace p1="927100 241300" p2="927100 419100" w="2540" l="1"/>
      <trace p1="927100 419100" p2="571500 419100" w="2540" l="1"/>
      <trace p1="571500 304800" p2="622300 304800" w="2540" l="1"/>
      <trace p1="622300 304800" p2="622300 355600" w="2540" l="1"/>
      <trace p1="622300 355600" p2="571500 355600" w="2540" l="1"/>
      <hole p="609600 279400" id="10160" od="16510" ref="Vusb" rot="180"/>
      <hole p="660400 279400" id="10160" od="16510" ref="Aref" rot="180"/>
      <hole p="685800 279400" id="10160" od="16510" ref="A10" rot="180"/>
      <hole p="711200 279400" id="10160" od="16510" ref="A11" rot="180"/>
      <text p="685800 330200" fs="12700" l="1" rot="0" text="Teensy 3.2"/>
    </group>
    <text p="570230 227330" fs="12700" l="1" rot="0" text="U?"/>
  </cpcb:part>
<n1:title>PCB Component</n1:title>
<n1:desc>Generated by CPCB</n1:desc>
<n1:defs>
</n1:defs>
<n1:g fill="none" stroke="black" stroke-width="1" fill-rule="evenodd" stroke-linecap="square" stroke-linejoin="bevel">

<n1:g fill="#000000" fill-opacity="1" stroke="none" transform="matrix(1,0,0,1,-2220,-920)" font-family="Sans" font-size="152.778" font-weight="400" font-style="normal">
<n1:rect x="2220" y="920" width="1460" height="760"/>
</n1:g>

<n1:g fill="#00b400" fill-opacity="1" stroke="none" transform="matrix(1,0,0,1,-2220,-920)" font-family="Sans" font-size="152.778" font-weight="400" font-style="normal">
<n1:circle cx="3600" cy="1600" r="32.5"/>
</n1:g>

<n1:g fill="#00b400" fill-opacity="1" stroke="none" transform="matrix(1,0,0,1,-2220,-920)" font-family="Sans" font-size="152.778" font-weight="400" font-style="normal">
<n1:circle cx="3600" cy="1500" r="32.5"/>
</n1:g>

<n1:g fill="#00b400" fill-opacity="1" stroke="none" transform="matrix(1,0,0,1,-2220,-920)" font-family="Sans" font-size="152.778" font-weight="400" font-style="normal">
<n1:circle cx="3600" cy="1400" r="32.5"/>
</n1:g>

<n1:g fill="#00b400" fill-opacity="1" stroke="none" transform="matrix(1,0,0,1,-2220,-920)" font-family="Sans" font-size="152.778" font-weight="400" font-style="normal">
<n1:circle cx="3600" cy="1300" r="32.5"/>
</n1:g>

<n1:g fill="#00b400" fill-opacity="1" stroke="none" transform="matrix(1,0,0,1,-2220,-920)" font-family="Sans" font-size="152.778" font-weight="400" font-style="normal">
<n1:circle cx="3600" cy="1200" r="32.5"/>
</n1:g>

<n1:g fill="#00b400" fill-opacity="1" stroke="none" transform="matrix(1,0,0,1,-2220,-920)" font-family="Sans" font-size="152.778" font-weight="400" font-style="normal">
<n1:circle cx="3600" cy="1100" r="32.5"/>
</n1:g>

<n1:g fill="#00b400" fill-opacity="1" stroke="none" transform="matrix(1,0,0,1,-2220,-920)" font-family="Sans" font-size="152.778" font-weight="400" font-style="normal">
<n1:circle cx="3600" cy="1000" r="32.5"/>
</n1:g>

<n1:g fill="#00b400" fill-opacity="1" stroke="none" transform="matrix(1,0,0,1,-2220,-920)" font-family="Sans" font-size="152.778" font-weight="400" font-style="normal">
<n1:circle cx="3500" cy="1600" r="32.5"/>
</n1:g>

<n1:g fill="#00b400" fill-opacity="1" stroke="none" transform="matrix(1,0,0,1,-2220,-920)" font-family="Sans" font-size="152.778" font-weight="400" font-style="normal">
<n1:circle cx="3400" cy="1600" r="32.5"/>
</n1:g>

<n1:g fill="#00b400" fill-opacity="1" stroke="none" transform="matrix(1,0,0,1,-2220,-920)" font-family="Sans" font-size="152.778" font-weight="400" font-style="normal">
<n1:circle cx="3300" cy="1600" r="32.5"/>
</n1:g>

<n1:g fill="#00b400" fill-opacity="1" stroke="none" transform="matrix(1,0,0,1,-2220,-920)" font-family="Sans" font-size="152.778" font-weight="400" font-style="normal">
<n1:circle cx="3200" cy="1600" r="32.5"/>
</n1:g>

<n1:g fill="#00b400" fill-opacity="1" stroke="none" transform="matrix(1,0,0,1,-2220,-920)" font-family="Sans" font-size="152.778" font-weight="400" font-style="normal">
<n1:circle cx="3100" cy="1600" r="32.5"/>
</n1:g>

<n1:g fill="#00b400" fill-opacity="1" stroke="none" transform="matrix(1,0,0,1,-2220,-920)" font-family="Sans" font-size="152.778" font-weight="400" font-style="normal">
<n1:circle cx="3000" cy="1600" r="32.5"/>
</n1:g>

<n1:g fill="#00b400" fill-opacity="1" stroke="none" transform="matrix(1,0,0,1,-2220,-920)" font-family="Sans" font-size="152.778" font-weight="400" font-style="normal">
<n1:circle cx="2900" cy="1600" r="32.5"/>
</n1:g>

<n1:g fill="#00b400" fill-opacity="1" stroke="none" transform="matrix(1,0,0,1,-2220,-920)" font-family="Sans" font-size="152.778" font-weight="400" font-style="normal">
<n1:circle cx="2800" cy="1600" r="32.5"/>
</n1:g>

<n1:g fill="#00b400" fill-opacity="1" stroke="none" transform="matrix(1,0,0,1,-2220,-920)" font-family="Sans" font-size="152.778" font-weight="400" font-style="normal">
<n1:circle cx="2700" cy="1600" r="32.5"/>
</n1:g>

<n1:g fill="#00b400" fill-opacity="1" stroke="none" transform="matrix(1,0,0,1,-2220,-920)" font-family="Sans" font-size="152.778" font-weight="400" font-style="normal">
<n1:circle cx="2600" cy="1600" r="32.5"/>
</n1:g>

<n1:g fill="#00b400" fill-opacity="1" stroke="none" transform="matrix(1,0,0,1,-2220,-920)" font-family="Sans" font-size="152.778" font-weight="400" font-style="normal">
<n1:circle cx="2500" cy="1600" r="32.5"/>
</n1:g>

<n1:g fill="#00b400" fill-opacity="1" stroke="none" transform="matrix(1,0,0,1,-2220,-920)" font-family="Sans" font-size="152.778" font-weight="400" font-style="normal">
<n1:circle cx="2400" cy="1600" r="32.5"/>
</n1:g>

<n1:g fill="#00b400" fill-opacity="1" stroke="none" transform="matrix(1,0,0,1,-2220,-920)" font-family="Sans" font-size="152.778" font-weight="400" font-style="normal">
<n1:circle cx="2300" cy="1600" r="32.5"/>
</n1:g>

<n1:g fill="#00b400" fill-opacity="1" stroke="none" transform="matrix(1,0,0,1,-2220,-920)" font-family="Sans" font-size="152.778" font-weight="400" font-style="normal">
<n1:circle cx="3500" cy="1000" r="32.5"/>
</n1:g>

<n1:g fill="#00b400" fill-opacity="1" stroke="none" transform="matrix(1,0,0,1,-2220,-920)" font-family="Sans" font-size="152.778" font-weight="400" font-style="normal">
<n1:circle cx="3400" cy="1000" r="32.5"/>
</n1:g>

<n1:g fill="#00b400" fill-opacity="1" stroke="none" transform="matrix(1,0,0,1,-2220,-920)" font-family="Sans" font-size="152.778" font-weight="400" font-style="normal">
<n1:circle cx="3300" cy="1000" r="32.5"/>
</n1:g>

<n1:g fill="#00b400" fill-opacity="1" stroke="none" transform="matrix(1,0,0,1,-2220,-920)" font-family="Sans" font-size="152.778" font-weight="400" font-style="normal">
<n1:circle cx="3200" cy="1000" r="32.5"/>
</n1:g>

<n1:g fill="#00b400" fill-opacity="1" stroke="none" transform="matrix(1,0,0,1,-2220,-920)" font-family="Sans" font-size="152.778" font-weight="400" font-style="normal">
<n1:circle cx="3100" cy="1000" r="32.5"/>
</n1:g>

<n1:g fill="#00b400" fill-opacity="1" stroke="none" transform="matrix(1,0,0,1,-2220,-920)" font-family="Sans" font-size="152.778" font-weight="400" font-style="normal">
<n1:circle cx="3000" cy="1000" r="32.5"/>
</n1:g>

<n1:g fill="#00b400" fill-opacity="1" stroke="none" transform="matrix(1,0,0,1,-2220,-920)" font-family="Sans" font-size="152.778" font-weight="400" font-style="normal">
<n1:circle cx="2900" cy="1000" r="32.5"/>
</n1:g>

<n1:g fill="#00b400" fill-opacity="1" stroke="none" transform="matrix(1,0,0,1,-2220,-920)" font-family="Sans" font-size="152.778" font-weight="400" font-style="normal">
<n1:circle cx="2800" cy="1000" r="32.5"/>
</n1:g>

<n1:g fill="#00b400" fill-opacity="1" stroke="none" transform="matrix(1,0,0,1,-2220,-920)" font-family="Sans" font-size="152.778" font-weight="400" font-style="normal">
<n1:circle cx="2700" cy="1000" r="32.5"/>
</n1:g>

<n1:g fill="#00b400" fill-opacity="1" stroke="none" transform="matrix(1,0,0,1,-2220,-920)" font-family="Sans" font-size="152.778" font-weight="400" font-style="normal">
<n1:circle cx="2600" cy="1000" r="32.5"/>
</n1:g>

<n1:g fill="#00b400" fill-opacity="1" stroke="none" transform="matrix(1,0,0,1,-2220,-920)" font-family="Sans" font-size="152.778" font-weight="400" font-style="normal">
<n1:circle cx="2500" cy="1000" r="32.5"/>
</n1:g>

<n1:g fill="#00b400" fill-opacity="1" stroke="none" transform="matrix(1,0,0,1,-2220,-920)" font-family="Sans" font-size="152.778" font-weight="400" font-style="normal">
<n1:circle cx="2400" cy="1000" r="32.5"/>
</n1:g>

<n1:g fill="#00b400" fill-opacity="1" stroke="none" transform="matrix(1,0,0,1,-2220,-920)" font-family="Sans" font-size="152.778" font-weight="400" font-style="normal">
<n1:circle cx="2300" cy="1000" r="32.5"/>
</n1:g>

<n1:g fill="#00b400" fill-opacity="1" stroke="none" transform="matrix(1,0,0,1,-2220,-920)" font-family="Sans" font-size="152.778" font-weight="400" font-style="normal">
<n1:circle cx="2400" cy="1100" r="32.5"/>
</n1:g>

<n1:g fill="#00b400" fill-opacity="1" stroke="none" transform="matrix(1,0,0,1,-2220,-920)" font-family="Sans" font-size="152.778" font-weight="400" font-style="normal">
<n1:circle cx="2600" cy="1100" r="32.5"/>
</n1:g>

<n1:g fill="#00b400" fill-opacity="1" stroke="none" transform="matrix(1,0,0,1,-2220,-920)" font-family="Sans" font-size="152.778" font-weight="400" font-style="normal">
<n1:circle cx="2700" cy="1100" r="32.5"/>
</n1:g>

<n1:g fill="#00b400" fill-opacity="1" stroke="none" transform="matrix(1,0,0,1,-2220,-920)" font-family="Sans" font-size="152.778" font-weight="400" font-style="normal">
<n1:circle cx="2800" cy="1100" r="32.5"/>
</n1:g>

<n1:g fill="#ff0000" fill-opacity="1" stroke="none" transform="matrix(1,0,0,1,-2220,-920)" font-family="Sans" font-size="152.778" font-weight="400" font-style="normal">
<n1:circle cx="3600" cy="1600" r="32.5"/>
</n1:g>

<n1:g fill="#ff0000" fill-opacity="1" stroke="none" transform="matrix(1,0,0,1,-2220,-920)" font-family="Sans" font-size="152.778" font-weight="400" font-style="normal">
<n1:circle cx="3600" cy="1500" r="32.5"/>
</n1:g>

<n1:g fill="#ff0000" fill-opacity="1" stroke="none" transform="matrix(1,0,0,1,-2220,-920)" font-family="Sans" font-size="152.778" font-weight="400" font-style="normal">
<n1:circle cx="3600" cy="1400" r="32.5"/>
</n1:g>

<n1:g fill="#ff0000" fill-opacity="1" stroke="none" transform="matrix(1,0,0,1,-2220,-920)" font-family="Sans" font-size="152.778" font-weight="400" font-style="normal">
<n1:circle cx="3600" cy="1300" r="32.5"/>
</n1:g>

<n1:g fill="#ff0000" fill-opacity="1" stroke="none" transform="matrix(1,0,0,1,-2220,-920)" font-family="Sans" font-size="152.778" font-weight="400" font-style="normal">
<n1:circle cx="3600" cy="1200" r="32.5"/>
</n1:g>

<n1:g fill="#ff0000" fill-opacity="1" stroke="none" transform="matrix(1,0,0,1,-2220,-920)" font-family="Sans" font-size="152.778" font-weight="400" font-style="normal">
<n1:circle cx="3600" cy="1100" r="32.5"/>
</n1:g>

<n1:g fill="#ff0000" fill-opacity="1" stroke="none" transform="matrix(1,0,0,1,-2220,-920)" font-family="Sans" font-size="152.778" font-weight="400" font-style="normal">
<n1:circle cx="3600" cy="1000" r="32.5"/>
</n1:g>

<n1:g fill="#ff0000" fill-opacity="1" stroke="none" transform="matrix(1,0,0,1,-2220,-920)" font-family="Sans" font-size="152.778" font-weight="400" font-style="normal">
<n1:circle cx="3500" cy="1600" r="32.5"/>
</n1:g>

<n1:g fill="#ff0000" fill-opacity="1" stroke="none" transform="matrix(1,0,0,1,-2220,-920)" font-family="Sans" font-size="152.778" font-weight="400" font-style="normal">
<n1:circle cx="3400" cy="1600" r="32.5"/>
</n1:g>

<n1:g fill="#ff0000" fill-opacity="1" stroke="none" transform="matrix(1,0,0,1,-2220,-920)" font-family="Sans" font-size="152.778" font-weight="400" font-style="normal">
<n1:circle cx="3300" cy="1600" r="32.5"/>
</n1:g>

<n1:g fill="#ff0000" fill-opacity="1" stroke="none" transform="matrix(1,0,0,1,-2220,-920)" font-family="Sans" font-size="152.778" font-weight="400" font-style="normal">
<n1:circle cx="3200" cy="1600" r="32.5"/>
</n1:g>

<n1:g fill="#ff0000" fill-opacity="1" stroke="none" transform="matrix(1,0,0,1,-2220,-920)" font-family="Sans" font-size="152.778" font-weight="400" font-style="normal">
<n1:circle cx="3100" cy="1600" r="32.5"/>
</n1:g>

<n1:g fill="#ff0000" fill-opacity="1" stroke="none" transform="matrix(1,0,0,1,-2220,-920)" font-family="Sans" font-size="152.778" font-weight="400" font-style="normal">
<n1:circle cx="3000" cy="1600" r="32.5"/>
</n1:g>

<n1:g fill="#ff0000" fill-opacity="1" stroke="none" transform="matrix(1,0,0,1,-2220,-920)" font-family="Sans" font-size="152.778" font-weight="400" font-style="normal">
<n1:circle cx="2900" cy="1600" r="32.5"/>
</n1:g>

<n1:g fill="#ff0000" fill-opacity="1" stroke="none" transform="matrix(1,0,0,1,-2220,-920)" font-family="Sans" font-size="152.778" font-weight="400" font-style="normal">
<n1:circle cx="2800" cy="1600" r="32.5"/>
</n1:g>

<n1:g fill="#ff0000" fill-opacity="1" stroke="none" transform="matrix(1,0,0,1,-2220,-920)" font-family="Sans" font-size="152.778" font-weight="400" font-style="normal">
<n1:circle cx="2700" cy="1600" r="32.5"/>
</n1:g>

<n1:g fill="#ff0000" fill-opacity="1" stroke="none" transform="matrix(1,0,0,1,-2220,-920)" font-family="Sans" font-size="152.778" font-weight="400" font-style="normal">
<n1:circle cx="2600" cy="1600" r="32.5"/>
</n1:g>

<n1:g fill="#ff0000" fill-opacity="1" stroke="none" transform="matrix(1,0,0,1,-2220,-920)" font-family="Sans" font-size="152.778" font-weight="400" font-style="normal">
<n1:circle cx="2500" cy="1600" r="32.5"/>
</n1:g>

<n1:g fill="#ff0000" fill-opacity="1" stroke="none" transform="matrix(1,0,0,1,-2220,-920)" font-family="Sans" font-size="152.778" font-weight="400" font-style="normal">
<n1:circle cx="2400" cy="1600" r="32.5"/>
</n1:g>

<n1:g fill="#ff0000" fill-opacity="1" stroke="none" transform="matrix(1,0,0,1,-2220,-920)" font-family="Sans" font-size="152.778" font-weight="400" font-style="normal">
<n1:circle cx="2300" cy="1600" r="32.5"/>
</n1:g>

<n1:g fill="#ff0000" fill-opacity="1" stroke="none" transform="matrix(1,0,0,1,-2220,-920)" font-family="Sans" font-size="152.778" font-weight="400" font-style="normal">
<n1:circle cx="3500" cy="1000" r="32.5"/>
</n1:g>

<n1:g fill="#ff0000" fill-opacity="1" stroke="none" transform="matrix(1,0,0,1,-2220,-920)" font-family="Sans" font-size="152.778" font-weight="400" font-style="normal">
<n1:circle cx="3400" cy="1000" r="32.5"/>
</n1:g>

<n1:g fill="#ff0000" fill-opacity="1" stroke="none" transform="matrix(1,0,0,1,-2220,-920)" font-family="Sans" font-size="152.778" font-weight="400" font-style="normal">
<n1:circle cx="3300" cy="1000" r="32.5"/>
</n1:g>

<n1:g fill="#ff0000" fill-opacity="1" stroke="none" transform="matrix(1,0,0,1,-2220,-920)" font-family="Sans" font-size="152.778" font-weight="400" font-style="normal">
<n1:circle cx="3200" cy="1000" r="32.5"/>
</n1:g>

<n1:g fill="#ff0000" fill-opacity="1" stroke="none" transform="matrix(1,0,0,1,-2220,-920)" font-family="Sans" font-size="152.778" font-weight="400" font-style="normal">
<n1:circle cx="3100" cy="1000" r="32.5"/>
</n1:g>

<n1:g fill="#ff0000" fill-opacity="1" stroke="none" transform="matrix(1,0,0,1,-2220,-920)" font-family="Sans" font-size="152.778" font-weight="400" font-style="normal">
<n1:circle cx="3000" cy="1000" r="32.5"/>
</n1:g>

<n1:g fill="#ff0000" fill-opacity="1" stroke="none" transform="matrix(1,0,0,1,-2220,-920)" font-family="Sans" font-size="152.778" font-weight="400" font-style="normal">
<n1:circle cx="2900" cy="1000" r="32.5"/>
</n1:g>

<n1:g fill="#ff0000" fill-opacity="1" stroke="none" transform="matrix(1,0,0,1,-2220,-920)" font-family="Sans" font-size="152.778" font-weight="400" font-style="normal">
<n1:circle cx="2800" cy="1000" r="32.5"/>
</n1:g>

<n1:g fill="#ff0000" fill-opacity="1" stroke="none" transform="matrix(1,0,0,1,-2220,-920)" font-family="Sans" font-size="152.778" font-weight="400" font-style="normal">
<n1:circle cx="2700" cy="1000" r="32.5"/>
</n1:g>

<n1:g fill="#ff0000" fill-opacity="1" stroke="none" transform="matrix(1,0,0,1,-2220,-920)" font-family="Sans" font-size="152.778" font-weight="400" font-style="normal">
<n1:circle cx="2600" cy="1000" r="32.5"/>
</n1:g>

<n1:g fill="#ff0000" fill-opacity="1" stroke="none" transform="matrix(1,0,0,1,-2220,-920)" font-family="Sans" font-size="152.778" font-weight="400" font-style="normal">
<n1:circle cx="2500" cy="1000" r="32.5"/>
</n1:g>

<n1:g fill="#ff0000" fill-opacity="1" stroke="none" transform="matrix(1,0,0,1,-2220,-920)" font-family="Sans" font-size="152.778" font-weight="400" font-style="normal">
<n1:circle cx="2400" cy="1000" r="32.5"/>
</n1:g>

<n1:g fill="#ff0000" fill-opacity="1" stroke="none" transform="matrix(1,0,0,1,-2220,-920)" font-family="Sans" font-size="152.778" font-weight="400" font-style="normal">
<n1:circle cx="2300" cy="1000" r="32.5"/>
</n1:g>

<n1:g fill="#ff0000" fill-opacity="1" stroke="none" transform="matrix(1,0,0,1,-2220,-920)" font-family="Sans" font-size="152.778" font-weight="400" font-style="normal">
<n1:circle cx="2400" cy="1100" r="32.5"/>
</n1:g>

<n1:g fill="#ff0000" fill-opacity="1" stroke="none" transform="matrix(1,0,0,1,-2220,-920)" font-family="Sans" font-size="152.778" font-weight="400" font-style="normal">
<n1:circle cx="2600" cy="1100" r="32.5"/>
</n1:g>

<n1:g fill="#ff0000" fill-opacity="1" stroke="none" transform="matrix(1,0,0,1,-2220,-920)" font-family="Sans" font-size="152.778" font-weight="400" font-style="normal">
<n1:circle cx="2700" cy="1100" r="32.5"/>
</n1:g>

<n1:g fill="#ff0000" fill-opacity="1" stroke="none" transform="matrix(1,0,0,1,-2220,-920)" font-family="Sans" font-size="152.778" font-weight="400" font-style="normal">
<n1:circle cx="2800" cy="1100" r="32.5"/>
</n1:g>

<n1:g fill="#ffffff" fill-opacity="1" stroke="none" transform="matrix(1,0,0,1,-2220,-920)" font-family="Sans" font-size="152.778" font-weight="400" font-style="normal">
<n1:circle cx="3600" cy="1600" r="20"/>
</n1:g>

<n1:g fill="#ffffff" fill-opacity="1" stroke="none" transform="matrix(1,0,0,1,-2220,-920)" font-family="Sans" font-size="152.778" font-weight="400" font-style="normal">
<n1:circle cx="3600" cy="1500" r="20"/>
</n1:g>

<n1:g fill="#ffffff" fill-opacity="1" stroke="none" transform="matrix(1,0,0,1,-2220,-920)" font-family="Sans" font-size="152.778" font-weight="400" font-style="normal">
<n1:circle cx="3600" cy="1400" r="20"/>
</n1:g>

<n1:g fill="#ffffff" fill-opacity="1" stroke="none" transform="matrix(1,0,0,1,-2220,-920)" font-family="Sans" font-size="152.778" font-weight="400" font-style="normal">
<n1:circle cx="3600" cy="1300" r="20"/>
</n1:g>

<n1:g fill="#ffffff" fill-opacity="1" stroke="none" transform="matrix(1,0,0,1,-2220,-920)" font-family="Sans" font-size="152.778" font-weight="400" font-style="normal">
<n1:circle cx="3600" cy="1200" r="20"/>
</n1:g>

<n1:g fill="#ffffff" fill-opacity="1" stroke="none" transform="matrix(1,0,0,1,-2220,-920)" font-family="Sans" font-size="152.778" font-weight="400" font-style="normal">
<n1:circle cx="3600" cy="1100" r="20"/>
</n1:g>

<n1:g fill="#ffffff" fill-opacity="1" stroke="none" transform="matrix(1,0,0,1,-2220,-920)" font-family="Sans" font-size="152.778" font-weight="400" font-style="normal">
<n1:circle cx="3600" cy="1000" r="20"/>
</n1:g>

<n1:g fill="#ffffff" fill-opacity="1" stroke="none" transform="matrix(1,0,0,1,-2220,-920)" font-family="Sans" font-size="152.778" font-weight="400" font-style="normal">
<n1:circle cx="3500" cy="1600" r="20"/>
</n1:g>

<n1:g fill="#ffffff" fill-opacity="1" stroke="none" transform="matrix(1,0,0,1,-2220,-920)" font-family="Sans" font-size="152.778" font-weight="400" font-style="normal">
<n1:circle cx="3400" cy="1600" r="20"/>
</n1:g>

<n1:g fill="#ffffff" fill-opacity="1" stroke="none" transform="matrix(1,0,0,1,-2220,-920)" font-family="Sans" font-size="152.778" font-weight="400" font-style="normal">
<n1:circle cx="3300" cy="1600" r="20"/>
</n1:g>

<n1:g fill="#ffffff" fill-opacity="1" stroke="none" transform="matrix(1,0,0,1,-2220,-920)" font-family="Sans" font-size="152.778" font-weight="400" font-style="normal">
<n1:circle cx="3200" cy="1600" r="20"/>
</n1:g>

<n1:g fill="#ffffff" fill-opacity="1" stroke="none" transform="matrix(1,0,0,1,-2220,-920)" font-family="Sans" font-size="152.778" font-weight="400" font-style="normal">
<n1:circle cx="3100" cy="1600" r="20"/>
</n1:g>

<n1:g fill="#ffffff" fill-opacity="1" stroke="none" transform="matrix(1,0,0,1,-2220,-920)" font-family="Sans" font-size="152.778" font-weight="400" font-style="normal">
<n1:circle cx="3000" cy="1600" r="20"/>
</n1:g>

<n1:g fill="#ffffff" fill-opacity="1" stroke="none" transform="matrix(1,0,0,1,-2220,-920)" font-family="Sans" font-size="152.778" font-weight="400" font-style="normal">
<n1:circle cx="2900" cy="1600" r="20"/>
</n1:g>

<n1:g fill="#ffffff" fill-opacity="1" stroke="none" transform="matrix(1,0,0,1,-2220,-920)" font-family="Sans" font-size="152.778" font-weight="400" font-style="normal">
<n1:circle cx="2800" cy="1600" r="20"/>
</n1:g>

<n1:g fill="#ffffff" fill-opacity="1" stroke="none" transform="matrix(1,0,0,1,-2220,-920)" font-family="Sans" font-size="152.778" font-weight="400" font-style="normal">
<n1:circle cx="2700" cy="1600" r="20"/>
</n1:g>

<n1:g fill="#ffffff" fill-opacity="1" stroke="none" transform="matrix(1,0,0,1,-2220,-920)" font-family="Sans" font-size="152.778" font-weight="400" font-style="normal">
<n1:circle cx="2600" cy="1600" r="20"/>
</n1:g>

<n1:g fill="#ffffff" fill-opacity="1" stroke="none" transform="matrix(1,0,0,1,-2220,-920)" font-family="Sans" font-size="152.778" font-weight="400" font-style="normal">
<n1:circle cx="2500" cy="1600" r="20"/>
</n1:g>

<n1:g fill="#ffffff" fill-opacity="1" stroke="none" transform="matrix(1,0,0,1,-2220,-920)" font-family="Sans" font-size="152.778" font-weight="400" font-style="normal">
<n1:circle cx="2400" cy="1600" r="20"/>
</n1:g>

<n1:g fill="#ffffff" fill-opacity="1" stroke="none" transform="matrix(1,0,0,1,-2220,-920)" font-family="Sans" font-size="152.778" font-weight="400" font-style="normal">
<n1:circle cx="2300" cy="1600" r="20"/>
</n1:g>

<n1:g fill="#ffffff" fill-opacity="1" stroke="none" transform="matrix(1,0,0,1,-2220,-920)" font-family="Sans" font-size="152.778" font-weight="400" font-style="normal">
<n1:circle cx="3500" cy="1000" r="20"/>
</n1:g>

<n1:g fill="#ffffff" fill-opacity="1" stroke="none" transform="matrix(1,0,0,1,-2220,-920)" font-family="Sans" font-size="152.778" font-weight="400" font-style="normal">
<n1:circle cx="3400" cy="1000" r="20"/>
</n1:g>

<n1:g fill="#ffffff" fill-opacity="1" stroke="none" transform="matrix(1,0,0,1,-2220,-920)" font-family="Sans" font-size="152.778" font-weight="400" font-style="normal">
<n1:circle cx="3300" cy="1000" r="20"/>
</n1:g>

<n1:g fill="#ffffff" fill-opacity="1" stroke="none" transform="matrix(1,0,0,1,-2220,-920)" font-family="Sans" font-size="152.778" font-weight="400" font-style="normal">
<n1:circle cx="3200" cy="1000" r="20"/>
</n1:g>

<n1:g fill="#ffffff" fill-opacity="1" stroke="none" transform="matrix(1,0,0,1,-2220,-920)" font-family="Sans" font-size="152.778" font-weight="400" font-style="normal">
<n1:circle cx="3100" cy="1000" r="20"/>
</n1:g>

<n1:g fill="#ffffff" fill-opacity="1" stroke="none" transform="matrix(1,0,0,1,-2220,-920)" font-family="Sans" font-size="152.778" font-weight="400" font-style="normal">
<n1:circle cx="3000" cy="1000" r="20"/>
</n1:g>

<n1:g fill="#ffffff" fill-opacity="1" stroke="none" transform="matrix(1,0,0,1,-2220,-920)" font-family="Sans" font-size="152.778" font-weight="400" font-style="normal">
<n1:circle cx="2900" cy="1000" r="20"/>
</n1:g>

<n1:g fill="#ffffff" fill-opacity="1" stroke="none" transform="matrix(1,0,0,1,-2220,-920)" font-family="Sans" font-size="152.778" font-weight="400" font-style="normal">
<n1:circle cx="2800" cy="1000" r="20"/>
</n1:g>

<n1:g fill="#ffffff" fill-opacity="1" stroke="none" transform="matrix(1,0,0,1,-2220,-920)" font-family="Sans" font-size="152.778" font-weight="400" font-style="normal">
<n1:circle cx="2700" cy="1000" r="20"/>
</n1:g>

<n1:g fill="#ffffff" fill-opacity="1" stroke="none" transform="matrix(1,0,0,1,-2220,-920)" font-family="Sans" font-size="152.778" font-weight="400" font-style="normal">
<n1:circle cx="2600" cy="1000" r="20"/>
</n1:g>

<n1:g fill="#ffffff" fill-opacity="1" stroke="none" transform="matrix(1,0,0,1,-2220,-920)" font-family="Sans" font-size="152.778" font-weight="400" font-style="normal">
<n1:circle cx="2500" cy="1000" r="20"/>
</n1:g>

<n1:g fill="#ffffff" fill-opacity="1" stroke="none" transform="matrix(1,0,0,1,-2220,-920)" font-family="Sans" font-size="152.778" font-weight="400" font-style="normal">
<n1:circle cx="2400" cy="1000" r="20"/>
</n1:g>

<n1:g fill="#ffffff" fill-opacity="1" stroke="none" transform="matrix(1,0,0,1,-2220,-920)" font-family="Sans" font-size="152.778" font-weight="400" font-style="normal">
<n1:circle cx="2300" cy="1000" r="20"/>
</n1:g>

<n1:g fill="#ffffff" fill-opacity="1" stroke="none" transform="matrix(1,0,0,1,-2220,-920)" font-family="Sans" font-size="152.778" font-weight="400" font-style="normal">
<n1:circle cx="2400" cy="1100" r="20"/>
</n1:g>

<n1:g fill="#ffffff" fill-opacity="1" stroke="none" transform="matrix(1,0,0,1,-2220,-920)" font-family="Sans" font-size="152.778" font-weight="400" font-style="normal">
<n1:circle cx="2600" cy="1100" r="20"/>
</n1:g>

<n1:g fill="#ffffff" fill-opacity="1" stroke="none" transform="matrix(1,0,0,1,-2220,-920)" font-family="Sans" font-size="152.778" font-weight="400" font-style="normal">
<n1:circle cx="2700" cy="1100" r="20"/>
</n1:g>

<n1:g fill="#ffffff" fill-opacity="1" stroke="none" transform="matrix(1,0,0,1,-2220,-920)" font-family="Sans" font-size="152.778" font-weight="400" font-style="normal">
<n1:circle cx="2800" cy="1100" r="20"/>
</n1:g>

<n1:g fill="#ffffff" fill-opacity="1" stroke="#f0f000" stroke-opacity="1" stroke-width="10" stroke-linecap="round" stroke-linejoin="bevel" transform="matrix(1,0,0,1,-2220,-920)" font-family="Sans" font-size="152.778" font-weight="400" font-style="normal">
<n1:polyline fill="none" vector-effect="none" points="2250,1650 2250,950 "/>
<n1:polyline fill="none" vector-effect="none" points="2250,950 3650,950 "/>
<n1:polyline fill="none" vector-effect="none" points="3650,950 3650,1650 "/>
<n1:polyline fill="none" vector-effect="none" points="3650,1650 2250,1650 "/>
<n1:polyline fill="none" vector-effect="none" points="2250,1200 2450,1200 "/>
<n1:polyline fill="none" vector-effect="none" points="2450,1200 2450,1400 "/>
<n1:polyline fill="none" vector-effect="none" points="2450,1400 2250,1400 "/>
</n1:g>

<n1:g fill="#ffffff" fill-opacity="1" stroke="#f0f000" stroke-opacity="1" stroke-width="3" stroke-linecap="round" stroke-linejoin="round" transform="matrix(2.5,0,0,-2.5,480,380)" font-family="Sans" font-size="152.778" font-weight="400" font-style="normal">
<n1:polyline fill="none" vector-effect="none" points="6,-10 6,8 "/>
<n1:polyline fill="none" vector-effect="none" points="0,8 12,8 "/>
</n1:g>

<n1:g fill="#ffffff" fill-opacity="1" stroke="#f0f000" stroke-opacity="1" stroke-width="3" stroke-linecap="round" stroke-linejoin="round" transform="matrix(2.5,0,0,-2.5,525,380)" font-family="Sans" font-size="152.778" font-weight="400" font-style="normal">
<n1:polyline fill="none" vector-effect="none" points="0,-4 12,-3 9,2 3,2 0,-1 0,-8 3,-10 9,-10 12,-8 "/>
</n1:g>

<n1:g fill="#ffffff" fill-opacity="1" stroke="#f0f000" stroke-opacity="1" stroke-width="3" stroke-linecap="round" stroke-linejoin="round" transform="matrix(2.5,0,0,-2.5,570,380)" font-family="Sans" font-size="152.778" font-weight="400" font-style="normal">
<n1:polyline fill="none" vector-effect="none" points="0,-4 12,-3 9,2 3,2 0,-1 0,-8 3,-10 9,-10 12,-8 "/>
</n1:g>

<n1:g fill="#ffffff" fill-opacity="1" stroke="#f0f000" stroke-opacity="1" stroke-width="3" stroke-linecap="round" stroke-linejoin="round" transform="matrix(2.5,0,0,-2.5,615,380)" font-family="Sans" font-size="152.778" font-weight="400" font-style="normal">
<n1:polyline fill="none" vector-effect="none" points="0,-10 0,1 "/>
<n1:polyline fill="none" vector-effect="none" points="0,-2 6,1 12,-2 12,-10 "/>
</n1:g>

<n1:g fill="#ffffff" fill-opacity="1" stroke="#f0f000" stroke-opacity="1" stroke-width="3" stroke-linecap="round" stroke-linejoin="round" transform="matrix(2.5,0,0,-2.5,660,380)" font-family="Sans" font-size="152.778" font-weight="400" font-style="normal">
<n1:polyline fill="none" vector-effect="none" points="0,-8 6,-10 12,-8 12,-5 0,-3 0,0 6,2 12,0 "/>
</n1:g>

<n1:g fill="#ffffff" fill-opacity="1" stroke="#f0f000" stroke-opacity="1" stroke-width="3" stroke-linecap="round" stroke-linejoin="round" transform="matrix(2.5,0,0,-2.5,705,380)" font-family="Sans" font-size="152.778" font-weight="400" font-style="normal">
<n1:polyline fill="none" vector-effect="none" points="0,1 7,-9 "/>
<n1:polyline fill="none" vector-effect="none" points="3,-17 12,1 "/>
</n1:g>

<n1:g fill="#ffffff" fill-opacity="1" stroke="#f0f000" stroke-opacity="1" stroke-width="3" stroke-linecap="round" stroke-linejoin="round" transform="matrix(2.5,0,0,-2.5,795,380)" font-family="Sans" font-size="152.778" font-weight="400" font-style="normal">
<n1:polyline fill="none" vector-effect="none" points="0,6 3,8 9,8 12,5 12,1 9,-1 3,-1 "/>
<n1:polyline fill="none" vector-effect="none" points="9,-1 12,-3 12,-7 9,-10 3,-10 0,-8 "/>
</n1:g>

<n1:g fill="#ffffff" fill-opacity="1" stroke="#f0f000" stroke-opacity="1" stroke-width="3" stroke-linecap="round" stroke-linejoin="round" transform="matrix(2.5,0,0,-2.5,840,380)" font-family="Sans" font-size="152.778" font-weight="400" font-style="normal">
</n1:g>

<n1:g fill="#f0f000" fill-opacity="1" stroke="none" transform="matrix(2.5,0,0,-2.5,840,380)" font-family="Sans" font-size="152.778" font-weight="400" font-style="normal">
<n1:circle cx="6" cy="-10" r="1.5"/>
</n1:g>

<n1:g fill="#ffffff" fill-opacity="1" stroke="#f0f000" stroke-opacity="1" stroke-width="3" stroke-linecap="round" stroke-linejoin="round" transform="matrix(2.5,0,0,-2.5,840,380)" font-family="Sans" font-size="152.778" font-weight="400" font-style="normal">
</n1:g>

<n1:g fill="#ffffff" fill-opacity="1" stroke="#f0f000" stroke-opacity="1" stroke-width="3" stroke-linecap="round" stroke-linejoin="round" transform="matrix(2.5,0,0,-2.5,885,380)" font-family="Sans" font-size="152.778" font-weight="400" font-style="normal">
<n1:polyline fill="none" vector-effect="none" points="0,5 3,8 9,8 12,5 12,1 2,-5 0,-10 12,-10 "/>
</n1:g>

<n1:g fill="#ffffff" fill-opacity="1" stroke="#f0f000" stroke-opacity="1" stroke-width="10" stroke-linecap="round" stroke-linejoin="bevel" transform="matrix(1,0,0,1,-2220,-920)" font-family="Sans" font-size="152.778" font-weight="400" font-style="normal">
</n1:g>
</n1:g>
</svg>
