<?xml version="1.0" encoding="UTF-8"?>
<svg width="19.304mm" height="37.084mm" viewBox="0 0 760 1460" version="1.2" baseProfile="tiny" xmlns:n1="http://www.w3.org/2000/svg" xmlns:xlink="http://www.w3.org/1999/xlink" xmlns:cpcb="http://www.danielwagenaar.net/cpcb-ns.html">
  <cpcb:part pkg="Teensy-3-2" xmlns="http://www.danielwagenaar.net/cpcb-ns.html">
    <group ref="U1">
      <hole p="457200 342900" id="10160" od="16510" ref="D12" rot="270"/>
      <hole p="482600 342900" id="10160" od="16510" ref="VBat" rot="270"/>
      <hole p="508000 342900" id="10160" od="16510" ref="3.3V2" rot="270"/>
      <hole p="533400 342900" id="10160" od="16510" ref="Gnd2" rot="270"/>
      <hole p="558800 342900" id="10160" od="16510" ref="Program" rot="270"/>
      <hole p="584200 342900" id="10160" od="16510" ref="DAC" rot="270"/>
      <hole p="609600 342900" id="10160" od="16510" ref="D13" rot="270"/>
      <hole p="457200 317500" id="10160" od="16510" ref="D11" rot="270"/>
      <hole p="457200 292100" id="10160" od="16510" ref="D10" rot="270"/>
      <hole p="457200 266700" id="10160" od="16510" ref="D9" rot="270"/>
      <hole p="457200 241300" id="10160" od="16510" ref="D8" rot="270"/>
      <hole p="457200 215900" id="10160" od="16510" ref="D7" rot="270"/>
      <hole p="457200 190500" id="10160" od="16510" ref="D6" rot="270"/>
      <hole p="457200 165100" id="10160" od="16510" ref="D5" rot="270"/>
      <hole p="457200 139700" id="10160" od="16510" ref="D4" rot="270"/>
      <hole p="457200 114300" id="10160" od="16510" ref="D3" rot="270"/>
      <hole p="457200 88900" id="10160" od="16510" ref="D2" rot="270"/>
      <hole p="457200 63500" id="10160" od="16510" ref="D1" rot="270"/>
      <hole p="457200 38100" id="10160" od="16510" ref="D0" rot="270"/>
      <hole p="457200 12700" id="10160" od="16510" ref="Gnd" fp="3" rot="270"/>
      <hole p="609600 317500" id="10160" od="16510" ref="D14" rot="270"/>
      <hole p="609600 292100" id="10160" od="16510" ref="D15" rot="270"/>
      <hole p="609600 266700" id="10160" od="16510" ref="D16" rot="270"/>
      <hole p="609600 241300" id="10160" od="16510" ref="D17" rot="270"/>
      <hole p="609600 215900" id="10160" od="16510" ref="D18" rot="270"/>
      <hole p="609600 190500" id="10160" od="16510" ref="D19" rot="270"/>
      <hole p="609600 165100" id="10160" od="16510" ref="D20" rot="270"/>
      <hole p="609600 139700" id="10160" od="16510" ref="D21" rot="270"/>
      <hole p="609600 114300" id="10160" od="16510" ref="D22" rot="270"/>
      <hole p="609600 88900" id="10160" od="16510" ref="D23" rot="270"/>
      <hole p="609600 63500" id="10160" od="16510" ref="3.3V" rot="270"/>
      <hole p="609600 38100" id="10160" od="16510" ref="Agnd" fp="2" rot="270"/>
      <hole p="609600 12700" id="10160" od="16510" ref="Vcc" rot="270"/>
      <trace p1="444500 0" p2="622300 0" w="2540" l="1"/>
      <trace p1="622300 0" p2="622300 355600" w="2540" l="1"/>
      <trace p1="622300 355600" p2="444500 355600" w="2540" l="1"/>
      <trace p1="444500 355600" p2="444500 0" w="2540" l="1"/>
      <trace p1="558800 0" p2="558800 50800" w="2540" l="1"/>
      <trace p1="558800 50800" p2="508000 50800" w="2540" l="1"/>
      <trace p1="508000 50800" p2="508000 0" w="2540" l="1"/>
      <hole p="584200 38100" id="10160" od="16510" ref="Vusb" rot="270"/>
      <hole p="584200 88900" id="10160" od="16510" ref="Aref" rot="270"/>
      <hole p="584200 114300" id="10160" od="16510" ref="A10" rot="270"/>
      <hole p="584200 139700" id="10160" od="16510" ref="A11" rot="270"/>
      <text p="533396 114305" fs="12700" l="1" rot="90" text="Teensy 3.2"/>
    </group>
    <text p="444183 369253" fs="12700" l="1" rot="0" text="U1"/>
  </cpcb:part>
<n1:title>PCB Component</n1:title>
<n1:desc>Generated by CPCB</n1:desc>
<n1:defs>
</n1:defs>
<n1:g fill="none" stroke="black" stroke-width="1" fill-rule="evenodd" stroke-linecap="square" stroke-linejoin="bevel">

<n1:g fill="#000000" fill-opacity="1" stroke="none" transform="matrix(1,0,0,1,-1720,30)" font-family="Sans" font-size="152.778" font-weight="400" font-style="normal">
<n1:rect x="1720" y="-30" width="760" height="1460"/>
</n1:g>

<n1:g fill="#00b400" fill-opacity="1" stroke="none" transform="matrix(1,0,0,1,-1720,30)" font-family="Sans" font-size="152.778" font-weight="400" font-style="normal">
<n1:circle cx="1800" cy="1350" r="32.5"/>
</n1:g>

<n1:g fill="#00b400" fill-opacity="1" stroke="none" transform="matrix(1,0,0,1,-1720,30)" font-family="Sans" font-size="152.778" font-weight="400" font-style="normal">
<n1:circle cx="1900" cy="1350" r="32.5"/>
</n1:g>

<n1:g fill="#00b400" fill-opacity="1" stroke="none" transform="matrix(1,0,0,1,-1720,30)" font-family="Sans" font-size="152.778" font-weight="400" font-style="normal">
<n1:circle cx="2000" cy="1350" r="32.5"/>
</n1:g>

<n1:g fill="#00b400" fill-opacity="1" stroke="none" transform="matrix(1,0,0,1,-1720,30)" font-family="Sans" font-size="152.778" font-weight="400" font-style="normal">
<n1:circle cx="2100" cy="1350" r="32.5"/>
</n1:g>

<n1:g fill="#00b400" fill-opacity="1" stroke="none" transform="matrix(1,0,0,1,-1720,30)" font-family="Sans" font-size="152.778" font-weight="400" font-style="normal">
<n1:circle cx="2200" cy="1350" r="32.5"/>
</n1:g>

<n1:g fill="#00b400" fill-opacity="1" stroke="none" transform="matrix(1,0,0,1,-1720,30)" font-family="Sans" font-size="152.778" font-weight="400" font-style="normal">
<n1:circle cx="2300" cy="1350" r="32.5"/>
</n1:g>

<n1:g fill="#00b400" fill-opacity="1" stroke="none" transform="matrix(1,0,0,1,-1720,30)" font-family="Sans" font-size="152.778" font-weight="400" font-style="normal">
<n1:circle cx="2400" cy="1350" r="32.5"/>
</n1:g>

<n1:g fill="#00b400" fill-opacity="1" stroke="none" transform="matrix(1,0,0,1,-1720,30)" font-family="Sans" font-size="152.778" font-weight="400" font-style="normal">
<n1:circle cx="1800" cy="1250" r="32.5"/>
</n1:g>

<n1:g fill="#00b400" fill-opacity="1" stroke="none" transform="matrix(1,0,0,1,-1720,30)" font-family="Sans" font-size="152.778" font-weight="400" font-style="normal">
<n1:circle cx="1800" cy="1150" r="32.5"/>
</n1:g>

<n1:g fill="#00b400" fill-opacity="1" stroke="none" transform="matrix(1,0,0,1,-1720,30)" font-family="Sans" font-size="152.778" font-weight="400" font-style="normal">
<n1:circle cx="1800" cy="1050" r="32.5"/>
</n1:g>

<n1:g fill="#00b400" fill-opacity="1" stroke="none" transform="matrix(1,0,0,1,-1720,30)" font-family="Sans" font-size="152.778" font-weight="400" font-style="normal">
<n1:circle cx="1800" cy="950" r="32.5"/>
</n1:g>

<n1:g fill="#00b400" fill-opacity="1" stroke="none" transform="matrix(1,0,0,1,-1720,30)" font-family="Sans" font-size="152.778" font-weight="400" font-style="normal">
<n1:circle cx="1800" cy="850" r="32.5"/>
</n1:g>

<n1:g fill="#00b400" fill-opacity="1" stroke="none" transform="matrix(1,0,0,1,-1720,30)" font-family="Sans" font-size="152.778" font-weight="400" font-style="normal">
<n1:circle cx="1800" cy="750" r="32.5"/>
</n1:g>

<n1:g fill="#00b400" fill-opacity="1" stroke="none" transform="matrix(1,0,0,1,-1720,30)" font-family="Sans" font-size="152.778" font-weight="400" font-style="normal">
<n1:circle cx="1800" cy="650" r="32.5"/>
</n1:g>

<n1:g fill="#00b400" fill-opacity="1" stroke="none" transform="matrix(1,0,0,1,-1720,30)" font-family="Sans" font-size="152.778" font-weight="400" font-style="normal">
<n1:circle cx="1800" cy="550" r="32.5"/>
</n1:g>

<n1:g fill="#00b400" fill-opacity="1" stroke="none" transform="matrix(1,0,0,1,-1720,30)" font-family="Sans" font-size="152.778" font-weight="400" font-style="normal">
<n1:circle cx="1800" cy="450" r="32.5"/>
</n1:g>

<n1:g fill="#00b400" fill-opacity="1" stroke="none" transform="matrix(1,0,0,1,-1720,30)" font-family="Sans" font-size="152.778" font-weight="400" font-style="normal">
<n1:circle cx="1800" cy="350" r="32.5"/>
</n1:g>

<n1:g fill="#00b400" fill-opacity="1" stroke="none" transform="matrix(1,0,0,1,-1720,30)" font-family="Sans" font-size="152.778" font-weight="400" font-style="normal">
<n1:circle cx="1800" cy="250" r="32.5"/>
</n1:g>

<n1:g fill="#00b400" fill-opacity="1" stroke="none" transform="matrix(1,0,0,1,-1720,30)" font-family="Sans" font-size="152.778" font-weight="400" font-style="normal">
<n1:circle cx="1800" cy="150" r="32.5"/>
</n1:g>

<n1:g fill="#00b400" fill-opacity="1" stroke="none" transform="matrix(1,0,0,1,-1720,30)" font-family="Sans" font-size="152.778" font-weight="400" font-style="normal">
<n1:circle cx="1800" cy="50" r="32.5"/>
</n1:g>

<n1:g fill="#00b400" fill-opacity="1" stroke="#00b400" stroke-opacity="1" stroke-width="12" stroke-linecap="butt" stroke-linejoin="bevel" transform="matrix(1,0,0,1,-1720,30)" font-family="Sans" font-size="152.778" font-weight="400" font-style="normal">
<n1:polyline fill="none" vector-effect="none" points="1800,99.5 1800,0.5 "/>
<n1:polyline fill="none" vector-effect="none" points="1750.5,50 1849.5,50 "/>
</n1:g>

<n1:g fill="#00b400" fill-opacity="1" stroke="none" transform="matrix(1,0,0,1,-1720,30)" font-family="Sans" font-size="152.778" font-weight="400" font-style="normal">
<n1:circle cx="2400" cy="1250" r="32.5"/>
</n1:g>

<n1:g fill="#00b400" fill-opacity="1" stroke="none" transform="matrix(1,0,0,1,-1720,30)" font-family="Sans" font-size="152.778" font-weight="400" font-style="normal">
<n1:circle cx="2400" cy="1150" r="32.5"/>
</n1:g>

<n1:g fill="#00b400" fill-opacity="1" stroke="none" transform="matrix(1,0,0,1,-1720,30)" font-family="Sans" font-size="152.778" font-weight="400" font-style="normal">
<n1:circle cx="2400" cy="1050" r="32.5"/>
</n1:g>

<n1:g fill="#00b400" fill-opacity="1" stroke="none" transform="matrix(1,0,0,1,-1720,30)" font-family="Sans" font-size="152.778" font-weight="400" font-style="normal">
<n1:circle cx="2400" cy="950" r="32.5"/>
</n1:g>

<n1:g fill="#00b400" fill-opacity="1" stroke="none" transform="matrix(1,0,0,1,-1720,30)" font-family="Sans" font-size="152.778" font-weight="400" font-style="normal">
<n1:circle cx="2400" cy="850" r="32.5"/>
</n1:g>

<n1:g fill="#00b400" fill-opacity="1" stroke="none" transform="matrix(1,0,0,1,-1720,30)" font-family="Sans" font-size="152.778" font-weight="400" font-style="normal">
<n1:circle cx="2400" cy="750" r="32.5"/>
</n1:g>

<n1:g fill="#00b400" fill-opacity="1" stroke="none" transform="matrix(1,0,0,1,-1720,30)" font-family="Sans" font-size="152.778" font-weight="400" font-style="normal">
<n1:circle cx="2400" cy="650" r="32.5"/>
</n1:g>

<n1:g fill="#00b400" fill-opacity="1" stroke="none" transform="matrix(1,0,0,1,-1720,30)" font-family="Sans" font-size="152.778" font-weight="400" font-style="normal">
<n1:circle cx="2400" cy="550" r="32.5"/>
</n1:g>

<n1:g fill="#00b400" fill-opacity="1" stroke="none" transform="matrix(1,0,0,1,-1720,30)" font-family="Sans" font-size="152.778" font-weight="400" font-style="normal">
<n1:circle cx="2400" cy="450" r="32.5"/>
</n1:g>

<n1:g fill="#00b400" fill-opacity="1" stroke="none" transform="matrix(1,0,0,1,-1720,30)" font-family="Sans" font-size="152.778" font-weight="400" font-style="normal">
<n1:circle cx="2400" cy="350" r="32.5"/>
</n1:g>

<n1:g fill="#00b400" fill-opacity="1" stroke="none" transform="matrix(1,0,0,1,-1720,30)" font-family="Sans" font-size="152.778" font-weight="400" font-style="normal">
<n1:circle cx="2400" cy="250" r="32.5"/>
</n1:g>

<n1:g fill="#00b400" fill-opacity="1" stroke="none" transform="matrix(1,0,0,1,-1720,30)" font-family="Sans" font-size="152.778" font-weight="400" font-style="normal">
<n1:circle cx="2400" cy="150" r="32.5"/>
</n1:g>

<n1:g fill="#00b400" fill-opacity="1" stroke="none" transform="matrix(1,0,0,1,-1720,30)" font-family="Sans" font-size="152.778" font-weight="400" font-style="normal">
<n1:circle cx="2400" cy="50" r="32.5"/>
</n1:g>

<n1:g fill="#00b400" fill-opacity="1" stroke="none" transform="matrix(1,0,0,1,-1720,30)" font-family="Sans" font-size="152.778" font-weight="400" font-style="normal">
<n1:circle cx="2300" cy="150" r="32.5"/>
</n1:g>

<n1:g fill="#00b400" fill-opacity="1" stroke="none" transform="matrix(1,0,0,1,-1720,30)" font-family="Sans" font-size="152.778" font-weight="400" font-style="normal">
<n1:circle cx="2300" cy="350" r="32.5"/>
</n1:g>

<n1:g fill="#00b400" fill-opacity="1" stroke="none" transform="matrix(1,0,0,1,-1720,30)" font-family="Sans" font-size="152.778" font-weight="400" font-style="normal">
<n1:circle cx="2300" cy="450" r="32.5"/>
</n1:g>

<n1:g fill="#00b400" fill-opacity="1" stroke="none" transform="matrix(1,0,0,1,-1720,30)" font-family="Sans" font-size="152.778" font-weight="400" font-style="normal">
<n1:circle cx="2300" cy="550" r="32.5"/>
</n1:g>

<n1:g fill="#ff0000" fill-opacity="1" stroke="none" transform="matrix(1,0,0,1,-1720,30)" font-family="Sans" font-size="152.778" font-weight="400" font-style="normal">
<n1:circle cx="1800" cy="1350" r="32.5"/>
</n1:g>

<n1:g fill="#ff0000" fill-opacity="1" stroke="none" transform="matrix(1,0,0,1,-1720,30)" font-family="Sans" font-size="152.778" font-weight="400" font-style="normal">
<n1:circle cx="1900" cy="1350" r="32.5"/>
</n1:g>

<n1:g fill="#ff0000" fill-opacity="1" stroke="none" transform="matrix(1,0,0,1,-1720,30)" font-family="Sans" font-size="152.778" font-weight="400" font-style="normal">
<n1:circle cx="2000" cy="1350" r="32.5"/>
</n1:g>

<n1:g fill="#ff0000" fill-opacity="1" stroke="none" transform="matrix(1,0,0,1,-1720,30)" font-family="Sans" font-size="152.778" font-weight="400" font-style="normal">
<n1:circle cx="2100" cy="1350" r="32.5"/>
</n1:g>

<n1:g fill="#ff0000" fill-opacity="1" stroke="none" transform="matrix(1,0,0,1,-1720,30)" font-family="Sans" font-size="152.778" font-weight="400" font-style="normal">
<n1:circle cx="2200" cy="1350" r="32.5"/>
</n1:g>

<n1:g fill="#ff0000" fill-opacity="1" stroke="none" transform="matrix(1,0,0,1,-1720,30)" font-family="Sans" font-size="152.778" font-weight="400" font-style="normal">
<n1:circle cx="2300" cy="1350" r="32.5"/>
</n1:g>

<n1:g fill="#ff0000" fill-opacity="1" stroke="none" transform="matrix(1,0,0,1,-1720,30)" font-family="Sans" font-size="152.778" font-weight="400" font-style="normal">
<n1:circle cx="2400" cy="1350" r="32.5"/>
</n1:g>

<n1:g fill="#ff0000" fill-opacity="1" stroke="none" transform="matrix(1,0,0,1,-1720,30)" font-family="Sans" font-size="152.778" font-weight="400" font-style="normal">
<n1:circle cx="1800" cy="1250" r="32.5"/>
</n1:g>

<n1:g fill="#ff0000" fill-opacity="1" stroke="none" transform="matrix(1,0,0,1,-1720,30)" font-family="Sans" font-size="152.778" font-weight="400" font-style="normal">
<n1:circle cx="1800" cy="1150" r="32.5"/>
</n1:g>

<n1:g fill="#ff0000" fill-opacity="1" stroke="none" transform="matrix(1,0,0,1,-1720,30)" font-family="Sans" font-size="152.778" font-weight="400" font-style="normal">
<n1:circle cx="1800" cy="1050" r="32.5"/>
</n1:g>

<n1:g fill="#ff0000" fill-opacity="1" stroke="none" transform="matrix(1,0,0,1,-1720,30)" font-family="Sans" font-size="152.778" font-weight="400" font-style="normal">
<n1:circle cx="1800" cy="950" r="32.5"/>
</n1:g>

<n1:g fill="#ff0000" fill-opacity="1" stroke="none" transform="matrix(1,0,0,1,-1720,30)" font-family="Sans" font-size="152.778" font-weight="400" font-style="normal">
<n1:circle cx="1800" cy="850" r="32.5"/>
</n1:g>

<n1:g fill="#ff0000" fill-opacity="1" stroke="none" transform="matrix(1,0,0,1,-1720,30)" font-family="Sans" font-size="152.778" font-weight="400" font-style="normal">
<n1:circle cx="1800" cy="750" r="32.5"/>
</n1:g>

<n1:g fill="#ff0000" fill-opacity="1" stroke="none" transform="matrix(1,0,0,1,-1720,30)" font-family="Sans" font-size="152.778" font-weight="400" font-style="normal">
<n1:circle cx="1800" cy="650" r="32.5"/>
</n1:g>

<n1:g fill="#ff0000" fill-opacity="1" stroke="none" transform="matrix(1,0,0,1,-1720,30)" font-family="Sans" font-size="152.778" font-weight="400" font-style="normal">
<n1:circle cx="1800" cy="550" r="32.5"/>
</n1:g>

<n1:g fill="#ff0000" fill-opacity="1" stroke="none" transform="matrix(1,0,0,1,-1720,30)" font-family="Sans" font-size="152.778" font-weight="400" font-style="normal">
<n1:circle cx="1800" cy="450" r="32.5"/>
</n1:g>

<n1:g fill="#ff0000" fill-opacity="1" stroke="none" transform="matrix(1,0,0,1,-1720,30)" font-family="Sans" font-size="152.778" font-weight="400" font-style="normal">
<n1:circle cx="1800" cy="350" r="32.5"/>
</n1:g>

<n1:g fill="#ff0000" fill-opacity="1" stroke="none" transform="matrix(1,0,0,1,-1720,30)" font-family="Sans" font-size="152.778" font-weight="400" font-style="normal">
<n1:circle cx="1800" cy="250" r="32.5"/>
</n1:g>

<n1:g fill="#ff0000" fill-opacity="1" stroke="none" transform="matrix(1,0,0,1,-1720,30)" font-family="Sans" font-size="152.778" font-weight="400" font-style="normal">
<n1:circle cx="1800" cy="150" r="32.5"/>
</n1:g>

<n1:g fill="#ff0000" fill-opacity="1" stroke="none" transform="matrix(1,0,0,1,-1720,30)" font-family="Sans" font-size="152.778" font-weight="400" font-style="normal">
<n1:circle cx="1800" cy="50" r="32.5"/>
</n1:g>

<n1:g fill="#ff0000" fill-opacity="1" stroke="none" transform="matrix(1,0,0,1,-1720,30)" font-family="Sans" font-size="152.778" font-weight="400" font-style="normal">
<n1:circle cx="2400" cy="1250" r="32.5"/>
</n1:g>

<n1:g fill="#ff0000" fill-opacity="1" stroke="none" transform="matrix(1,0,0,1,-1720,30)" font-family="Sans" font-size="152.778" font-weight="400" font-style="normal">
<n1:circle cx="2400" cy="1150" r="32.5"/>
</n1:g>

<n1:g fill="#ff0000" fill-opacity="1" stroke="none" transform="matrix(1,0,0,1,-1720,30)" font-family="Sans" font-size="152.778" font-weight="400" font-style="normal">
<n1:circle cx="2400" cy="1050" r="32.5"/>
</n1:g>

<n1:g fill="#ff0000" fill-opacity="1" stroke="none" transform="matrix(1,0,0,1,-1720,30)" font-family="Sans" font-size="152.778" font-weight="400" font-style="normal">
<n1:circle cx="2400" cy="950" r="32.5"/>
</n1:g>

<n1:g fill="#ff0000" fill-opacity="1" stroke="none" transform="matrix(1,0,0,1,-1720,30)" font-family="Sans" font-size="152.778" font-weight="400" font-style="normal">
<n1:circle cx="2400" cy="850" r="32.5"/>
</n1:g>

<n1:g fill="#ff0000" fill-opacity="1" stroke="none" transform="matrix(1,0,0,1,-1720,30)" font-family="Sans" font-size="152.778" font-weight="400" font-style="normal">
<n1:circle cx="2400" cy="750" r="32.5"/>
</n1:g>

<n1:g fill="#ff0000" fill-opacity="1" stroke="none" transform="matrix(1,0,0,1,-1720,30)" font-family="Sans" font-size="152.778" font-weight="400" font-style="normal">
<n1:circle cx="2400" cy="650" r="32.5"/>
</n1:g>

<n1:g fill="#ff0000" fill-opacity="1" stroke="none" transform="matrix(1,0,0,1,-1720,30)" font-family="Sans" font-size="152.778" font-weight="400" font-style="normal">
<n1:circle cx="2400" cy="550" r="32.5"/>
</n1:g>

<n1:g fill="#ff0000" fill-opacity="1" stroke="none" transform="matrix(1,0,0,1,-1720,30)" font-family="Sans" font-size="152.778" font-weight="400" font-style="normal">
<n1:circle cx="2400" cy="450" r="32.5"/>
</n1:g>

<n1:g fill="#ff0000" fill-opacity="1" stroke="none" transform="matrix(1,0,0,1,-1720,30)" font-family="Sans" font-size="152.778" font-weight="400" font-style="normal">
<n1:circle cx="2400" cy="350" r="32.5"/>
</n1:g>

<n1:g fill="#ff0000" fill-opacity="1" stroke="none" transform="matrix(1,0,0,1,-1720,30)" font-family="Sans" font-size="152.778" font-weight="400" font-style="normal">
<n1:circle cx="2400" cy="250" r="32.5"/>
</n1:g>

<n1:g fill="#ff0000" fill-opacity="1" stroke="none" transform="matrix(1,0,0,1,-1720,30)" font-family="Sans" font-size="152.778" font-weight="400" font-style="normal">
<n1:circle cx="2400" cy="150" r="32.5"/>
</n1:g>

<n1:g fill="#ff0000" fill-opacity="1" stroke="#ff0000" stroke-opacity="1" stroke-width="12" stroke-linecap="butt" stroke-linejoin="bevel" transform="matrix(1,0,0,1,-1720,30)" font-family="Sans" font-size="152.778" font-weight="400" font-style="normal">
<n1:polyline fill="none" vector-effect="none" points="2400,199.5 2400,100.5 "/>
<n1:polyline fill="none" vector-effect="none" points="2350.5,150 2449.5,150 "/>
</n1:g>

<n1:g fill="#ff0000" fill-opacity="1" stroke="none" transform="matrix(1,0,0,1,-1720,30)" font-family="Sans" font-size="152.778" font-weight="400" font-style="normal">
<n1:circle cx="2400" cy="50" r="32.5"/>
</n1:g>

<n1:g fill="#ff0000" fill-opacity="1" stroke="none" transform="matrix(1,0,0,1,-1720,30)" font-family="Sans" font-size="152.778" font-weight="400" font-style="normal">
<n1:circle cx="2300" cy="150" r="32.5"/>
</n1:g>

<n1:g fill="#ff0000" fill-opacity="1" stroke="none" transform="matrix(1,0,0,1,-1720,30)" font-family="Sans" font-size="152.778" font-weight="400" font-style="normal">
<n1:circle cx="2300" cy="350" r="32.5"/>
</n1:g>

<n1:g fill="#ff0000" fill-opacity="1" stroke="none" transform="matrix(1,0,0,1,-1720,30)" font-family="Sans" font-size="152.778" font-weight="400" font-style="normal">
<n1:circle cx="2300" cy="450" r="32.5"/>
</n1:g>

<n1:g fill="#ff0000" fill-opacity="1" stroke="none" transform="matrix(1,0,0,1,-1720,30)" font-family="Sans" font-size="152.778" font-weight="400" font-style="normal">
<n1:circle cx="2300" cy="550" r="32.5"/>
</n1:g>

<n1:g fill="#ffffff" fill-opacity="1" stroke="none" transform="matrix(1,0,0,1,-1720,30)" font-family="Sans" font-size="152.778" font-weight="400" font-style="normal">
<n1:circle cx="1800" cy="1350" r="20"/>
</n1:g>

<n1:g fill="#ffffff" fill-opacity="1" stroke="none" transform="matrix(1,0,0,1,-1720,30)" font-family="Sans" font-size="152.778" font-weight="400" font-style="normal">
<n1:circle cx="1900" cy="1350" r="20"/>
</n1:g>

<n1:g fill="#ffffff" fill-opacity="1" stroke="none" transform="matrix(1,0,0,1,-1720,30)" font-family="Sans" font-size="152.778" font-weight="400" font-style="normal">
<n1:circle cx="2000" cy="1350" r="20"/>
</n1:g>

<n1:g fill="#ffffff" fill-opacity="1" stroke="none" transform="matrix(1,0,0,1,-1720,30)" font-family="Sans" font-size="152.778" font-weight="400" font-style="normal">
<n1:circle cx="2100" cy="1350" r="20"/>
</n1:g>

<n1:g fill="#ffffff" fill-opacity="1" stroke="none" transform="matrix(1,0,0,1,-1720,30)" font-family="Sans" font-size="152.778" font-weight="400" font-style="normal">
<n1:circle cx="2200" cy="1350" r="20"/>
</n1:g>

<n1:g fill="#ffffff" fill-opacity="1" stroke="none" transform="matrix(1,0,0,1,-1720,30)" font-family="Sans" font-size="152.778" font-weight="400" font-style="normal">
<n1:circle cx="2300" cy="1350" r="20"/>
</n1:g>

<n1:g fill="#ffffff" fill-opacity="1" stroke="none" transform="matrix(1,0,0,1,-1720,30)" font-family="Sans" font-size="152.778" font-weight="400" font-style="normal">
<n1:circle cx="2400" cy="1350" r="20"/>
</n1:g>

<n1:g fill="#ffffff" fill-opacity="1" stroke="none" transform="matrix(1,0,0,1,-1720,30)" font-family="Sans" font-size="152.778" font-weight="400" font-style="normal">
<n1:circle cx="1800" cy="1250" r="20"/>
</n1:g>

<n1:g fill="#ffffff" fill-opacity="1" stroke="none" transform="matrix(1,0,0,1,-1720,30)" font-family="Sans" font-size="152.778" font-weight="400" font-style="normal">
<n1:circle cx="1800" cy="1150" r="20"/>
</n1:g>

<n1:g fill="#ffffff" fill-opacity="1" stroke="none" transform="matrix(1,0,0,1,-1720,30)" font-family="Sans" font-size="152.778" font-weight="400" font-style="normal">
<n1:circle cx="1800" cy="1050" r="20"/>
</n1:g>

<n1:g fill="#ffffff" fill-opacity="1" stroke="none" transform="matrix(1,0,0,1,-1720,30)" font-family="Sans" font-size="152.778" font-weight="400" font-style="normal">
<n1:circle cx="1800" cy="950" r="20"/>
</n1:g>

<n1:g fill="#ffffff" fill-opacity="1" stroke="none" transform="matrix(1,0,0,1,-1720,30)" font-family="Sans" font-size="152.778" font-weight="400" font-style="normal">
<n1:circle cx="1800" cy="850" r="20"/>
</n1:g>

<n1:g fill="#ffffff" fill-opacity="1" stroke="none" transform="matrix(1,0,0,1,-1720,30)" font-family="Sans" font-size="152.778" font-weight="400" font-style="normal">
<n1:circle cx="1800" cy="750" r="20"/>
</n1:g>

<n1:g fill="#ffffff" fill-opacity="1" stroke="none" transform="matrix(1,0,0,1,-1720,30)" font-family="Sans" font-size="152.778" font-weight="400" font-style="normal">
<n1:circle cx="1800" cy="650" r="20"/>
</n1:g>

<n1:g fill="#ffffff" fill-opacity="1" stroke="none" transform="matrix(1,0,0,1,-1720,30)" font-family="Sans" font-size="152.778" font-weight="400" font-style="normal">
<n1:circle cx="1800" cy="550" r="20"/>
</n1:g>

<n1:g fill="#ffffff" fill-opacity="1" stroke="none" transform="matrix(1,0,0,1,-1720,30)" font-family="Sans" font-size="152.778" font-weight="400" font-style="normal">
<n1:circle cx="1800" cy="450" r="20"/>
</n1:g>

<n1:g fill="#ffffff" fill-opacity="1" stroke="none" transform="matrix(1,0,0,1,-1720,30)" font-family="Sans" font-size="152.778" font-weight="400" font-style="normal">
<n1:circle cx="1800" cy="350" r="20"/>
</n1:g>

<n1:g fill="#ffffff" fill-opacity="1" stroke="none" transform="matrix(1,0,0,1,-1720,30)" font-family="Sans" font-size="152.778" font-weight="400" font-style="normal">
<n1:circle cx="1800" cy="250" r="20"/>
</n1:g>

<n1:g fill="#ffffff" fill-opacity="1" stroke="none" transform="matrix(1,0,0,1,-1720,30)" font-family="Sans" font-size="152.778" font-weight="400" font-style="normal">
<n1:circle cx="1800" cy="150" r="20"/>
</n1:g>

<n1:g fill="#ffffff" fill-opacity="1" stroke="none" transform="matrix(1,0,0,1,-1720,30)" font-family="Sans" font-size="152.778" font-weight="400" font-style="normal">
<n1:circle cx="1800" cy="50" r="20"/>
</n1:g>

<n1:g fill="#ffffff" fill-opacity="1" stroke="none" transform="matrix(1,0,0,1,-1720,30)" font-family="Sans" font-size="152.778" font-weight="400" font-style="normal">
<n1:circle cx="2400" cy="1250" r="20"/>
</n1:g>

<n1:g fill="#ffffff" fill-opacity="1" stroke="none" transform="matrix(1,0,0,1,-1720,30)" font-family="Sans" font-size="152.778" font-weight="400" font-style="normal">
<n1:circle cx="2400" cy="1150" r="20"/>
</n1:g>

<n1:g fill="#ffffff" fill-opacity="1" stroke="none" transform="matrix(1,0,0,1,-1720,30)" font-family="Sans" font-size="152.778" font-weight="400" font-style="normal">
<n1:circle cx="2400" cy="1050" r="20"/>
</n1:g>

<n1:g fill="#ffffff" fill-opacity="1" stroke="none" transform="matrix(1,0,0,1,-1720,30)" font-family="Sans" font-size="152.778" font-weight="400" font-style="normal">
<n1:circle cx="2400" cy="950" r="20"/>
</n1:g>

<n1:g fill="#ffffff" fill-opacity="1" stroke="none" transform="matrix(1,0,0,1,-1720,30)" font-family="Sans" font-size="152.778" font-weight="400" font-style="normal">
<n1:circle cx="2400" cy="850" r="20"/>
</n1:g>

<n1:g fill="#ffffff" fill-opacity="1" stroke="none" transform="matrix(1,0,0,1,-1720,30)" font-family="Sans" font-size="152.778" font-weight="400" font-style="normal">
<n1:circle cx="2400" cy="750" r="20"/>
</n1:g>

<n1:g fill="#ffffff" fill-opacity="1" stroke="none" transform="matrix(1,0,0,1,-1720,30)" font-family="Sans" font-size="152.778" font-weight="400" font-style="normal">
<n1:circle cx="2400" cy="650" r="20"/>
</n1:g>

<n1:g fill="#ffffff" fill-opacity="1" stroke="none" transform="matrix(1,0,0,1,-1720,30)" font-family="Sans" font-size="152.778" font-weight="400" font-style="normal">
<n1:circle cx="2400" cy="550" r="20"/>
</n1:g>

<n1:g fill="#ffffff" fill-opacity="1" stroke="none" transform="matrix(1,0,0,1,-1720,30)" font-family="Sans" font-size="152.778" font-weight="400" font-style="normal">
<n1:circle cx="2400" cy="450" r="20"/>
</n1:g>

<n1:g fill="#ffffff" fill-opacity="1" stroke="none" transform="matrix(1,0,0,1,-1720,30)" font-family="Sans" font-size="152.778" font-weight="400" font-style="normal">
<n1:circle cx="2400" cy="350" r="20"/>
</n1:g>

<n1:g fill="#ffffff" fill-opacity="1" stroke="none" transform="matrix(1,0,0,1,-1720,30)" font-family="Sans" font-size="152.778" font-weight="400" font-style="normal">
<n1:circle cx="2400" cy="250" r="20"/>
</n1:g>

<n1:g fill="#ffffff" fill-opacity="1" stroke="none" transform="matrix(1,0,0,1,-1720,30)" font-family="Sans" font-size="152.778" font-weight="400" font-style="normal">
<n1:circle cx="2400" cy="150" r="20"/>
</n1:g>

<n1:g fill="#ffffff" fill-opacity="1" stroke="none" transform="matrix(1,0,0,1,-1720,30)" font-family="Sans" font-size="152.778" font-weight="400" font-style="normal">
<n1:circle cx="2400" cy="50" r="20"/>
</n1:g>

<n1:g fill="#ffffff" fill-opacity="1" stroke="none" transform="matrix(1,0,0,1,-1720,30)" font-family="Sans" font-size="152.778" font-weight="400" font-style="normal">
<n1:circle cx="2300" cy="150" r="20"/>
</n1:g>

<n1:g fill="#ffffff" fill-opacity="1" stroke="none" transform="matrix(1,0,0,1,-1720,30)" font-family="Sans" font-size="152.778" font-weight="400" font-style="normal">
<n1:circle cx="2300" cy="350" r="20"/>
</n1:g>

<n1:g fill="#ffffff" fill-opacity="1" stroke="none" transform="matrix(1,0,0,1,-1720,30)" font-family="Sans" font-size="152.778" font-weight="400" font-style="normal">
<n1:circle cx="2300" cy="450" r="20"/>
</n1:g>

<n1:g fill="#ffffff" fill-opacity="1" stroke="none" transform="matrix(1,0,0,1,-1720,30)" font-family="Sans" font-size="152.778" font-weight="400" font-style="normal">
<n1:circle cx="2300" cy="550" r="20"/>
</n1:g>

<n1:g fill="#ffffff" fill-opacity="1" stroke="#f0f000" stroke-opacity="1" stroke-width="10" stroke-linecap="round" stroke-linejoin="bevel" transform="matrix(1,0,0,1,-1720,30)" font-family="Sans" font-size="152.778" font-weight="400" font-style="normal">
<n1:polyline fill="none" vector-effect="none" points="1750,0 2450,0 "/>
<n1:polyline fill="none" vector-effect="none" points="2450,0 2450,1400 "/>
<n1:polyline fill="none" vector-effect="none" points="2450,1400 1750,1400 "/>
<n1:polyline fill="none" vector-effect="none" points="1750,1400 1750,0 "/>
<n1:polyline fill="none" vector-effect="none" points="2200,0 2200,200 "/>
<n1:polyline fill="none" vector-effect="none" points="2200,200 2000,200 "/>
<n1:polyline fill="none" vector-effect="none" points="2000,200 2000,0 "/>
</n1:g>

<n1:g fill="#ffffff" fill-opacity="1" stroke="#f0f000" stroke-opacity="1" stroke-width="3" stroke-linecap="round" stroke-linejoin="round" transform="matrix(0,2.5,2.5,0,379.984,480.02)" font-family="Sans" font-size="152.778" font-weight="400" font-style="normal">
<n1:polyline fill="none" vector-effect="none" points="6,-10 6,8 "/>
<n1:polyline fill="none" vector-effect="none" points="0,8 12,8 "/>
</n1:g>

<n1:g fill="#ffffff" fill-opacity="1" stroke="#f0f000" stroke-opacity="1" stroke-width="3" stroke-linecap="round" stroke-linejoin="round" transform="matrix(0,2.5,2.5,0,379.984,525.02)" font-family="Sans" font-size="152.778" font-weight="400" font-style="normal">
<n1:polyline fill="none" vector-effect="none" points="0,-4 12,-3 9,2 3,2 0,-1 0,-8 3,-10 9,-10 12,-8 "/>
</n1:g>

<n1:g fill="#ffffff" fill-opacity="1" stroke="#f0f000" stroke-opacity="1" stroke-width="3" stroke-linecap="round" stroke-linejoin="round" transform="matrix(0,2.5,2.5,0,379.984,570.02)" font-family="Sans" font-size="152.778" font-weight="400" font-style="normal">
<n1:polyline fill="none" vector-effect="none" points="0,-4 12,-3 9,2 3,2 0,-1 0,-8 3,-10 9,-10 12,-8 "/>
</n1:g>

<n1:g fill="#ffffff" fill-opacity="1" stroke="#f0f000" stroke-opacity="1" stroke-width="3" stroke-linecap="round" stroke-linejoin="round" transform="matrix(0,2.5,2.5,0,379.984,615.02)" font-family="Sans" font-size="152.778" font-weight="400" font-style="normal">
<n1:polyline fill="none" vector-effect="none" points="0,-10 0,1 "/>
<n1:polyline fill="none" vector-effect="none" points="0,-2 6,1 12,-2 12,-10 "/>
</n1:g>

<n1:g fill="#ffffff" fill-opacity="1" stroke="#f0f000" stroke-opacity="1" stroke-width="3" stroke-linecap="round" stroke-linejoin="round" transform="matrix(0,2.5,2.5,0,379.984,660.02)" font-family="Sans" font-size="152.778" font-weight="400" font-style="normal">
<n1:polyline fill="none" vector-effect="none" points="0,-8 6,-10 12,-8 12,-5 0,-3 0,0 6,2 12,0 "/>
</n1:g>

<n1:g fill="#ffffff" fill-opacity="1" stroke="#f0f000" stroke-opacity="1" stroke-width="3" stroke-linecap="round" stroke-linejoin="round" transform="matrix(0,2.5,2.5,0,379.984,705.02)" font-family="Sans" font-size="152.778" font-weight="400" font-style="normal">
<n1:polyline fill="none" vector-effect="none" points="0,1 7,-9 "/>
<n1:polyline fill="none" vector-effect="none" points="3,-17 12,1 "/>
</n1:g>

<n1:g fill="#ffffff" fill-opacity="1" stroke="#f0f000" stroke-opacity="1" stroke-width="3" stroke-linecap="round" stroke-linejoin="round" transform="matrix(0,2.5,2.5,0,379.984,795.02)" font-family="Sans" font-size="152.778" font-weight="400" font-style="normal">
<n1:polyline fill="none" vector-effect="none" points="0,6 3,8 9,8 12,5 12,1 9,-1 3,-1 "/>
<n1:polyline fill="none" vector-effect="none" points="9,-1 12,-3 12,-7 9,-10 3,-10 0,-8 "/>
</n1:g>

<n1:g fill="#ffffff" fill-opacity="1" stroke="#f0f000" stroke-opacity="1" stroke-width="3" stroke-linecap="round" stroke-linejoin="round" transform="matrix(0,2.5,2.5,0,379.984,840.02)" font-family="Sans" font-size="152.778" font-weight="400" font-style="normal">
</n1:g>

<n1:g fill="#f0f000" fill-opacity="1" stroke="none" transform="matrix(0,2.5,2.5,0,379.984,840.02)" font-family="Sans" font-size="152.778" font-weight="400" font-style="normal">
<n1:circle cx="6" cy="-10" r="1.5"/>
</n1:g>

<n1:g fill="#ffffff" fill-opacity="1" stroke="#f0f000" stroke-opacity="1" stroke-width="3" stroke-linecap="round" stroke-linejoin="round" transform="matrix(0,2.5,2.5,0,379.984,840.02)" font-family="Sans" font-size="152.778" font-weight="400" font-style="normal">
</n1:g>

<n1:g fill="#ffffff" fill-opacity="1" stroke="#f0f000" stroke-opacity="1" stroke-width="3" stroke-linecap="round" stroke-linejoin="round" transform="matrix(0,2.5,2.5,0,379.984,885.02)" font-family="Sans" font-size="152.778" font-weight="400" font-style="normal">
<n1:polyline fill="none" vector-effect="none" points="0,5 3,8 9,8 12,5 12,1 2,-5 0,-10 12,-10 "/>
</n1:g>

<n1:g fill="#ffffff" fill-opacity="1" stroke="#f0f000" stroke-opacity="1" stroke-width="10" stroke-linecap="round" stroke-linejoin="bevel" transform="matrix(1,0,0,1,-1720,30)" font-family="Sans" font-size="152.778" font-weight="400" font-style="normal">
</n1:g>
</n1:g>
</svg>
