<?xml version="1.0" encoding="UTF-8"?>
<svg width="12.7mm" height="21.844mm" viewBox="0 0 500 860.039" version="1.2" baseProfile="tiny" xmlns:n1="http://www.w3.org/2000/svg" xmlns:xlink="http://www.w3.org/1999/xlink" xmlns:cpcb="http://www.danielwagenaar.net/cpcb-ns.html">
  <cpcb:part pkg="dip-16" xmlns="http://www.danielwagenaar.net/cpcb-ns.html">
    <group ref="J?">
      <hole p="838200 444500" id="10160" od="16510" ref="5"/>
      <arc p="876300 330200" r="12700" lw="2540" l="1" ang="180" rota="90"/>
      <trace p1="927100 330200" p2="889000 330200" w="2540" l="1"/>
      <trace p1="927100 533400" p2="927100 330200" w="2540" l="1"/>
      <hole p="838200 393700" id="10160" od="16510" ref="3"/>
      <hole p="838200 368300" id="10160" od="16510" ref="2"/>
      <hole p="838200 342900" id="10160" od="16510" sq="1" ref="1"/>
      <hole p="838200 469900" id="10160" od="16510" ref="6"/>
      <hole p="838200 495300" id="10160" od="16510" ref="7"/>
      <hole p="838200 520700" id="10160" od="16510" ref="8"/>
      <hole p="838200 419100" id="10160" od="16510" ref="4"/>
      <trace p1="825500 533400" p2="927100 533400" w="2540" l="1"/>
      <trace p1="825500 330200" p2="825500 533400" w="2540" l="1"/>
      <trace p1="863600 330200" p2="825500 330200" w="2540" l="1"/>
      <hole p="914400 520700" id="10160" od="16510" ref="9"/>
      <hole p="914400 495300" id="10160" od="16510" ref="10"/>
      <hole p="914400 444500" id="10160" od="16510" ref="12"/>
      <hole p="914400 419100" id="10160" od="16510" ref="13"/>
      <hole p="914400 393700" id="10160" od="16510" ref="14"/>
      <hole p="914400 469900" id="10160" od="16510" ref="11"/>
      <hole p="914400 342900" id="10160" od="16510" ref="16"/>
      <hole p="914400 368300" id="10160" od="16510" ref="15"/>
    </group>
    <text p="824230 316230" fs="12700" l="1" rot="0" text="J?"/>
  </cpcb:part>
<n1:title>PCB Component</n1:title>
<n1:desc>Generated by CPCB</n1:desc>
<n1:defs>
</n1:defs>
<n1:g fill="none" stroke="black" stroke-width="1" fill-rule="evenodd" stroke-linecap="square" stroke-linejoin="bevel">

<n1:g fill="#000000" fill-opacity="1" stroke="none" transform="matrix(1,0,0,1,-3200,-1269.96)" font-family="Sans" font-size="152.778" font-weight="400" font-style="normal">
<n1:rect x="3200" y="1269.96" width="500" height="860.039"/>
</n1:g>

<n1:g fill="#00b400" fill-opacity="1" stroke="none" transform="matrix(1,0,0,1,-3200,-1269.96)" font-family="Sans" font-size="152.778" font-weight="400" font-style="normal">
<n1:circle cx="3300" cy="1750" r="32.5"/>
</n1:g>

<n1:g fill="#00b400" fill-opacity="1" stroke="none" transform="matrix(1,0,0,1,-3200,-1269.96)" font-family="Sans" font-size="152.778" font-weight="400" font-style="normal">
<n1:circle cx="3300" cy="1550" r="32.5"/>
</n1:g>

<n1:g fill="#00b400" fill-opacity="1" stroke="none" transform="matrix(1,0,0,1,-3200,-1269.96)" font-family="Sans" font-size="152.778" font-weight="400" font-style="normal">
<n1:circle cx="3300" cy="1450" r="32.5"/>
</n1:g>

<n1:g fill="#00b400" fill-opacity="1" stroke="#00b400" stroke-opacity="1" stroke-width="65" stroke-linecap="butt" stroke-linejoin="bevel" transform="matrix(1,0,0,1,-3200,-1269.96)" font-family="Sans" font-size="152.778" font-weight="400" font-style="normal">
<n1:polyline fill="none" vector-effect="none" points="3268,1350 3332,1350 "/>
</n1:g>

<n1:g fill="#00b400" fill-opacity="1" stroke="none" transform="matrix(1,0,0,1,-3200,-1269.96)" font-family="Sans" font-size="152.778" font-weight="400" font-style="normal">
<n1:circle cx="3300" cy="1850" r="32.5"/>
</n1:g>

<n1:g fill="#00b400" fill-opacity="1" stroke="none" transform="matrix(1,0,0,1,-3200,-1269.96)" font-family="Sans" font-size="152.778" font-weight="400" font-style="normal">
<n1:circle cx="3300" cy="1950" r="32.5"/>
</n1:g>

<n1:g fill="#00b400" fill-opacity="1" stroke="none" transform="matrix(1,0,0,1,-3200,-1269.96)" font-family="Sans" font-size="152.778" font-weight="400" font-style="normal">
<n1:circle cx="3300" cy="2050" r="32.5"/>
</n1:g>

<n1:g fill="#00b400" fill-opacity="1" stroke="none" transform="matrix(1,0,0,1,-3200,-1269.96)" font-family="Sans" font-size="152.778" font-weight="400" font-style="normal">
<n1:circle cx="3300" cy="1650" r="32.5"/>
</n1:g>

<n1:g fill="#00b400" fill-opacity="1" stroke="none" transform="matrix(1,0,0,1,-3200,-1269.96)" font-family="Sans" font-size="152.778" font-weight="400" font-style="normal">
<n1:circle cx="3600" cy="2050" r="32.5"/>
</n1:g>

<n1:g fill="#00b400" fill-opacity="1" stroke="none" transform="matrix(1,0,0,1,-3200,-1269.96)" font-family="Sans" font-size="152.778" font-weight="400" font-style="normal">
<n1:circle cx="3600" cy="1950" r="32.5"/>
</n1:g>

<n1:g fill="#00b400" fill-opacity="1" stroke="none" transform="matrix(1,0,0,1,-3200,-1269.96)" font-family="Sans" font-size="152.778" font-weight="400" font-style="normal">
<n1:circle cx="3600" cy="1750" r="32.5"/>
</n1:g>

<n1:g fill="#00b400" fill-opacity="1" stroke="none" transform="matrix(1,0,0,1,-3200,-1269.96)" font-family="Sans" font-size="152.778" font-weight="400" font-style="normal">
<n1:circle cx="3600" cy="1650" r="32.5"/>
</n1:g>

<n1:g fill="#00b400" fill-opacity="1" stroke="none" transform="matrix(1,0,0,1,-3200,-1269.96)" font-family="Sans" font-size="152.778" font-weight="400" font-style="normal">
<n1:circle cx="3600" cy="1550" r="32.5"/>
</n1:g>

<n1:g fill="#00b400" fill-opacity="1" stroke="none" transform="matrix(1,0,0,1,-3200,-1269.96)" font-family="Sans" font-size="152.778" font-weight="400" font-style="normal">
<n1:circle cx="3600" cy="1850" r="32.5"/>
</n1:g>

<n1:g fill="#00b400" fill-opacity="1" stroke="none" transform="matrix(1,0,0,1,-3200,-1269.96)" font-family="Sans" font-size="152.778" font-weight="400" font-style="normal">
<n1:circle cx="3600" cy="1350" r="32.5"/>
</n1:g>

<n1:g fill="#00b400" fill-opacity="1" stroke="none" transform="matrix(1,0,0,1,-3200,-1269.96)" font-family="Sans" font-size="152.778" font-weight="400" font-style="normal">
<n1:circle cx="3600" cy="1450" r="32.5"/>
</n1:g>

<n1:g fill="#ff0000" fill-opacity="1" stroke="none" transform="matrix(1,0,0,1,-3200,-1269.96)" font-family="Sans" font-size="152.778" font-weight="400" font-style="normal">
<n1:circle cx="3300" cy="1750" r="32.5"/>
</n1:g>

<n1:g fill="#ff0000" fill-opacity="1" stroke="none" transform="matrix(1,0,0,1,-3200,-1269.96)" font-family="Sans" font-size="152.778" font-weight="400" font-style="normal">
<n1:circle cx="3300" cy="1550" r="32.5"/>
</n1:g>

<n1:g fill="#ff0000" fill-opacity="1" stroke="none" transform="matrix(1,0,0,1,-3200,-1269.96)" font-family="Sans" font-size="152.778" font-weight="400" font-style="normal">
<n1:circle cx="3300" cy="1450" r="32.5"/>
</n1:g>

<n1:g fill="#ff0000" fill-opacity="1" stroke="#ff0000" stroke-opacity="1" stroke-width="65" stroke-linecap="butt" stroke-linejoin="bevel" transform="matrix(1,0,0,1,-3200,-1269.96)" font-family="Sans" font-size="152.778" font-weight="400" font-style="normal">
<n1:polyline fill="none" vector-effect="none" points="3268,1350 3332,1350 "/>
</n1:g>

<n1:g fill="#ff0000" fill-opacity="1" stroke="none" transform="matrix(1,0,0,1,-3200,-1269.96)" font-family="Sans" font-size="152.778" font-weight="400" font-style="normal">
<n1:circle cx="3300" cy="1850" r="32.5"/>
</n1:g>

<n1:g fill="#ff0000" fill-opacity="1" stroke="none" transform="matrix(1,0,0,1,-3200,-1269.96)" font-family="Sans" font-size="152.778" font-weight="400" font-style="normal">
<n1:circle cx="3300" cy="1950" r="32.5"/>
</n1:g>

<n1:g fill="#ff0000" fill-opacity="1" stroke="none" transform="matrix(1,0,0,1,-3200,-1269.96)" font-family="Sans" font-size="152.778" font-weight="400" font-style="normal">
<n1:circle cx="3300" cy="2050" r="32.5"/>
</n1:g>

<n1:g fill="#ff0000" fill-opacity="1" stroke="none" transform="matrix(1,0,0,1,-3200,-1269.96)" font-family="Sans" font-size="152.778" font-weight="400" font-style="normal">
<n1:circle cx="3300" cy="1650" r="32.5"/>
</n1:g>

<n1:g fill="#ff0000" fill-opacity="1" stroke="none" transform="matrix(1,0,0,1,-3200,-1269.96)" font-family="Sans" font-size="152.778" font-weight="400" font-style="normal">
<n1:circle cx="3600" cy="2050" r="32.5"/>
</n1:g>

<n1:g fill="#ff0000" fill-opacity="1" stroke="none" transform="matrix(1,0,0,1,-3200,-1269.96)" font-family="Sans" font-size="152.778" font-weight="400" font-style="normal">
<n1:circle cx="3600" cy="1950" r="32.5"/>
</n1:g>

<n1:g fill="#ff0000" fill-opacity="1" stroke="none" transform="matrix(1,0,0,1,-3200,-1269.96)" font-family="Sans" font-size="152.778" font-weight="400" font-style="normal">
<n1:circle cx="3600" cy="1750" r="32.5"/>
</n1:g>

<n1:g fill="#ff0000" fill-opacity="1" stroke="none" transform="matrix(1,0,0,1,-3200,-1269.96)" font-family="Sans" font-size="152.778" font-weight="400" font-style="normal">
<n1:circle cx="3600" cy="1650" r="32.5"/>
</n1:g>

<n1:g fill="#ff0000" fill-opacity="1" stroke="none" transform="matrix(1,0,0,1,-3200,-1269.96)" font-family="Sans" font-size="152.778" font-weight="400" font-style="normal">
<n1:circle cx="3600" cy="1550" r="32.5"/>
</n1:g>

<n1:g fill="#ff0000" fill-opacity="1" stroke="none" transform="matrix(1,0,0,1,-3200,-1269.96)" font-family="Sans" font-size="152.778" font-weight="400" font-style="normal">
<n1:circle cx="3600" cy="1850" r="32.5"/>
</n1:g>

<n1:g fill="#ff0000" fill-opacity="1" stroke="none" transform="matrix(1,0,0,1,-3200,-1269.96)" font-family="Sans" font-size="152.778" font-weight="400" font-style="normal">
<n1:circle cx="3600" cy="1350" r="32.5"/>
</n1:g>

<n1:g fill="#ff0000" fill-opacity="1" stroke="none" transform="matrix(1,0,0,1,-3200,-1269.96)" font-family="Sans" font-size="152.778" font-weight="400" font-style="normal">
<n1:circle cx="3600" cy="1450" r="32.5"/>
</n1:g>

<n1:g fill="#ffffff" fill-opacity="1" stroke="none" transform="matrix(1,0,0,1,-3200,-1269.96)" font-family="Sans" font-size="152.778" font-weight="400" font-style="normal">
<n1:circle cx="3300" cy="1750" r="20"/>
</n1:g>

<n1:g fill="#ffffff" fill-opacity="1" stroke="none" transform="matrix(1,0,0,1,-3200,-1269.96)" font-family="Sans" font-size="152.778" font-weight="400" font-style="normal">
<n1:circle cx="3300" cy="1550" r="20"/>
</n1:g>

<n1:g fill="#ffffff" fill-opacity="1" stroke="none" transform="matrix(1,0,0,1,-3200,-1269.96)" font-family="Sans" font-size="152.778" font-weight="400" font-style="normal">
<n1:circle cx="3300" cy="1450" r="20"/>
</n1:g>

<n1:g fill="#ffffff" fill-opacity="1" stroke="none" transform="matrix(1,0,0,1,-3200,-1269.96)" font-family="Sans" font-size="152.778" font-weight="400" font-style="normal">
<n1:circle cx="3300" cy="1350" r="20"/>
</n1:g>

<n1:g fill="#ffffff" fill-opacity="1" stroke="none" transform="matrix(1,0,0,1,-3200,-1269.96)" font-family="Sans" font-size="152.778" font-weight="400" font-style="normal">
<n1:circle cx="3300" cy="1850" r="20"/>
</n1:g>

<n1:g fill="#ffffff" fill-opacity="1" stroke="none" transform="matrix(1,0,0,1,-3200,-1269.96)" font-family="Sans" font-size="152.778" font-weight="400" font-style="normal">
<n1:circle cx="3300" cy="1950" r="20"/>
</n1:g>

<n1:g fill="#ffffff" fill-opacity="1" stroke="none" transform="matrix(1,0,0,1,-3200,-1269.96)" font-family="Sans" font-size="152.778" font-weight="400" font-style="normal">
<n1:circle cx="3300" cy="2050" r="20"/>
</n1:g>

<n1:g fill="#ffffff" fill-opacity="1" stroke="none" transform="matrix(1,0,0,1,-3200,-1269.96)" font-family="Sans" font-size="152.778" font-weight="400" font-style="normal">
<n1:circle cx="3300" cy="1650" r="20"/>
</n1:g>

<n1:g fill="#ffffff" fill-opacity="1" stroke="none" transform="matrix(1,0,0,1,-3200,-1269.96)" font-family="Sans" font-size="152.778" font-weight="400" font-style="normal">
<n1:circle cx="3600" cy="2050" r="20"/>
</n1:g>

<n1:g fill="#ffffff" fill-opacity="1" stroke="none" transform="matrix(1,0,0,1,-3200,-1269.96)" font-family="Sans" font-size="152.778" font-weight="400" font-style="normal">
<n1:circle cx="3600" cy="1950" r="20"/>
</n1:g>

<n1:g fill="#ffffff" fill-opacity="1" stroke="none" transform="matrix(1,0,0,1,-3200,-1269.96)" font-family="Sans" font-size="152.778" font-weight="400" font-style="normal">
<n1:circle cx="3600" cy="1750" r="20"/>
</n1:g>

<n1:g fill="#ffffff" fill-opacity="1" stroke="none" transform="matrix(1,0,0,1,-3200,-1269.96)" font-family="Sans" font-size="152.778" font-weight="400" font-style="normal">
<n1:circle cx="3600" cy="1650" r="20"/>
</n1:g>

<n1:g fill="#ffffff" fill-opacity="1" stroke="none" transform="matrix(1,0,0,1,-3200,-1269.96)" font-family="Sans" font-size="152.778" font-weight="400" font-style="normal">
<n1:circle cx="3600" cy="1550" r="20"/>
</n1:g>

<n1:g fill="#ffffff" fill-opacity="1" stroke="none" transform="matrix(1,0,0,1,-3200,-1269.96)" font-family="Sans" font-size="152.778" font-weight="400" font-style="normal">
<n1:circle cx="3600" cy="1850" r="20"/>
</n1:g>

<n1:g fill="#ffffff" fill-opacity="1" stroke="none" transform="matrix(1,0,0,1,-3200,-1269.96)" font-family="Sans" font-size="152.778" font-weight="400" font-style="normal">
<n1:circle cx="3600" cy="1350" r="20"/>
</n1:g>

<n1:g fill="#ffffff" fill-opacity="1" stroke="none" transform="matrix(1,0,0,1,-3200,-1269.96)" font-family="Sans" font-size="152.778" font-weight="400" font-style="normal">
<n1:circle cx="3600" cy="1450" r="20"/>
</n1:g>

<n1:g fill="none" stroke="#f0f000" stroke-opacity="1" stroke-width="10" stroke-linecap="round" stroke-linejoin="bevel" transform="matrix(1,0,0,1,-3200,-1269.96)" font-family="Sans" font-size="152.778" font-weight="400" font-style="normal">
<n1:path vector-effect="none" fill-rule="evenodd" d="M3400,1300 C3400,1327.61 3422.39,1350 3450,1350 C3477.61,1350 3500,1327.61 3500,1300 "/>
<n1:polyline fill="none" vector-effect="none" points="3650,1300 3500,1300 "/>
<n1:polyline fill="none" vector-effect="none" points="3650,2100 3650,1300 "/>
<n1:polyline fill="none" vector-effect="none" points="3250,2100 3650,2100 "/>
<n1:polyline fill="none" vector-effect="none" points="3250,1300 3250,2100 "/>
<n1:polyline fill="none" vector-effect="none" points="3400,1300 3250,1300 "/>
</n1:g>
</n1:g>
</svg>
