<?xml version="1.0" encoding="UTF-8"?>
<svg width="19.304mm" height="32.004mm" viewBox="0 0 760 1260.04" version="1.2" baseProfile="tiny" xmlns:n1="http://www.w3.org/2000/svg" xmlns:xlink="http://www.w3.org/1999/xlink" xmlns:cpcb="http://www.danielwagenaar.net/cpcb-ns.html">
  <cpcb:part pkg="teensy-2_0" xmlns="http://www.danielwagenaar.net/cpcb-ns.html">
    <group ref="J?">
      <trace p1="901700 317500" p2="825500 317500" w="2540" l="1"/>
      <arc p="812800 317500" r="12700" lw="2540" l="1" ang="180" rota="90"/>
      <hole p="736600 381000" id="10160" od="16510" ref="3/B1"/>
      <trace p1="901700 622300" p2="901700 317500" w="2540" l="1"/>
      <hole p="889000 330200" id="10160" od="16510" ref="24/Vcc"/>
      <hole p="736600 431800" id="10160" od="16510" ref="5/B3"/>
      <hole p="889000 355600" id="10160" od="16510" ref="23/F0"/>
      <hole p="736600 406400" id="10160" od="16510" ref="4/B2"/>
      <hole p="736600 508000" id="10160" od="16510" ref="8/D1"/>
      <hole p="889000 431800" id="10160" od="16510" ref="20/F5"/>
      <trace p1="723900 317500" p2="723900 622300" w="2540" l="1"/>
      <hole p="889000 457200" id="10160" od="16510" ref="19/F6"/>
      <trace p1="723900 622300" p2="901700 622300" w="2540" l="1"/>
      <hole p="889000 381000" id="10160" od="16510" ref="22/F1"/>
      <hole p="736600 330200" id="10160" od="16510" sq="1" ref="1/Gnd"/>
      <hole p="889000 406400" id="10160" od="16510" ref="21/F4"/>
      <hole p="736600 355600" id="10160" od="16510" ref="2/B0"/>
      <hole p="736600 482600" id="10160" od="16510" ref="7/D0"/>
      <hole p="736600 457200" id="10160" od="16510" ref="6/B7"/>
      <hole p="787400 609600" id="10160" od="16510" ref="Vcc2"/>
      <hole p="762000 609600" id="10160" od="16510" ref="D5"/>
      <hole p="838200 609600" id="10160" od="16510" ref="Rst"/>
      <hole p="736600 584200" id="10160" od="16510" ref="11/C6"/>
      <hole p="736600 533400" id="10160" od="16510" ref="9/D2"/>
      <trace p1="800100 317500" p2="723900 317500" w="2540" l="1"/>
      <hole p="736600 609600" id="10160" od="16510" ref="12/C7"/>
      <hole p="736600 558800" id="10160" od="16510" ref="10/D3"/>
      <hole p="889000 533400" id="10160" od="16510" ref="16/B5"/>
      <hole p="889000 558800" id="10160" od="16510" ref="15/B4"/>
      <hole p="889000 482600" id="10160" od="16510" ref="18/F7"/>
      <hole p="889000 508000" id="10160" od="16510" ref="17/B6"/>
      <hole p="863600 609600" id="10160" od="16510" ref="D4"/>
      <hole p="812800 609600" id="10160" od="16510" ref="Gnd2"/>
      <hole p="889000 584200" id="10160" od="16510" ref="14/D7"/>
      <hole p="889000 609600" id="10160" od="16510" ref="13/D6"/>
      <hole p="762000 431800" id="10160" od="16510" ref="E6"/>
      <hole p="863600 431800" id="10160" od="16510" ref="ARef"/>
    </group>
    <text p="722630 303520" fs="12700" l="1" rot="0" text="J?"/>
  </cpcb:part>
<n1:title>PCB Component</n1:title>
<n1:desc>Generated by CPCB</n1:desc>
<n1:defs>
</n1:defs>
<n1:g fill="none" stroke="black" stroke-width="1" fill-rule="evenodd" stroke-linecap="square" stroke-linejoin="bevel">

<n1:g fill="#000000" fill-opacity="1" stroke="none" transform="matrix(1,0,0,1,-2820,-1219.96)" font-family="Sans" font-size="152.778" font-weight="400" font-style="normal">
<n1:rect x="2820" y="1219.96" width="760" height="1260.04"/>
</n1:g>

<n1:g fill="#00b400" fill-opacity="1" stroke="none" transform="matrix(1,0,0,1,-2820,-1219.96)" font-family="Sans" font-size="152.778" font-weight="400" font-style="normal">
<n1:circle cx="2900" cy="1500" r="32.5"/>
</n1:g>

<n1:g fill="#00b400" fill-opacity="1" stroke="none" transform="matrix(1,0,0,1,-2820,-1219.96)" font-family="Sans" font-size="152.778" font-weight="400" font-style="normal">
<n1:circle cx="3500" cy="1300" r="32.5"/>
</n1:g>

<n1:g fill="#00b400" fill-opacity="1" stroke="none" transform="matrix(1,0,0,1,-2820,-1219.96)" font-family="Sans" font-size="152.778" font-weight="400" font-style="normal">
<n1:circle cx="2900" cy="1700" r="32.5"/>
</n1:g>

<n1:g fill="#00b400" fill-opacity="1" stroke="none" transform="matrix(1,0,0,1,-2820,-1219.96)" font-family="Sans" font-size="152.778" font-weight="400" font-style="normal">
<n1:circle cx="3500" cy="1400" r="32.5"/>
</n1:g>

<n1:g fill="#00b400" fill-opacity="1" stroke="none" transform="matrix(1,0,0,1,-2820,-1219.96)" font-family="Sans" font-size="152.778" font-weight="400" font-style="normal">
<n1:circle cx="2900" cy="1600" r="32.5"/>
</n1:g>

<n1:g fill="#00b400" fill-opacity="1" stroke="none" transform="matrix(1,0,0,1,-2820,-1219.96)" font-family="Sans" font-size="152.778" font-weight="400" font-style="normal">
<n1:circle cx="2900" cy="2000" r="32.5"/>
</n1:g>

<n1:g fill="#00b400" fill-opacity="1" stroke="none" transform="matrix(1,0,0,1,-2820,-1219.96)" font-family="Sans" font-size="152.778" font-weight="400" font-style="normal">
<n1:circle cx="3500" cy="1700" r="32.5"/>
</n1:g>

<n1:g fill="#00b400" fill-opacity="1" stroke="none" transform="matrix(1,0,0,1,-2820,-1219.96)" font-family="Sans" font-size="152.778" font-weight="400" font-style="normal">
<n1:circle cx="3500" cy="1800" r="32.5"/>
</n1:g>

<n1:g fill="#00b400" fill-opacity="1" stroke="none" transform="matrix(1,0,0,1,-2820,-1219.96)" font-family="Sans" font-size="152.778" font-weight="400" font-style="normal">
<n1:circle cx="3500" cy="1500" r="32.5"/>
</n1:g>

<n1:g fill="#00b400" fill-opacity="1" stroke="#00b400" stroke-opacity="1" stroke-width="65" stroke-linecap="butt" stroke-linejoin="bevel" transform="matrix(1,0,0,1,-2820,-1219.96)" font-family="Sans" font-size="152.778" font-weight="400" font-style="normal">
<n1:polyline fill="none" vector-effect="none" points="2868,1300 2932,1300 "/>
</n1:g>

<n1:g fill="#00b400" fill-opacity="1" stroke="none" transform="matrix(1,0,0,1,-2820,-1219.96)" font-family="Sans" font-size="152.778" font-weight="400" font-style="normal">
<n1:circle cx="3500" cy="1600" r="32.5"/>
</n1:g>

<n1:g fill="#00b400" fill-opacity="1" stroke="none" transform="matrix(1,0,0,1,-2820,-1219.96)" font-family="Sans" font-size="152.778" font-weight="400" font-style="normal">
<n1:circle cx="2900" cy="1400" r="32.5"/>
</n1:g>

<n1:g fill="#00b400" fill-opacity="1" stroke="none" transform="matrix(1,0,0,1,-2820,-1219.96)" font-family="Sans" font-size="152.778" font-weight="400" font-style="normal">
<n1:circle cx="2900" cy="1900" r="32.5"/>
</n1:g>

<n1:g fill="#00b400" fill-opacity="1" stroke="none" transform="matrix(1,0,0,1,-2820,-1219.96)" font-family="Sans" font-size="152.778" font-weight="400" font-style="normal">
<n1:circle cx="2900" cy="1800" r="32.5"/>
</n1:g>

<n1:g fill="#00b400" fill-opacity="1" stroke="none" transform="matrix(1,0,0,1,-2820,-1219.96)" font-family="Sans" font-size="152.778" font-weight="400" font-style="normal">
<n1:circle cx="3100" cy="2400" r="32.5"/>
</n1:g>

<n1:g fill="#00b400" fill-opacity="1" stroke="none" transform="matrix(1,0,0,1,-2820,-1219.96)" font-family="Sans" font-size="152.778" font-weight="400" font-style="normal">
<n1:circle cx="3000" cy="2400" r="32.5"/>
</n1:g>

<n1:g fill="#00b400" fill-opacity="1" stroke="none" transform="matrix(1,0,0,1,-2820,-1219.96)" font-family="Sans" font-size="152.778" font-weight="400" font-style="normal">
<n1:circle cx="3300" cy="2400" r="32.5"/>
</n1:g>

<n1:g fill="#00b400" fill-opacity="1" stroke="none" transform="matrix(1,0,0,1,-2820,-1219.96)" font-family="Sans" font-size="152.778" font-weight="400" font-style="normal">
<n1:circle cx="2900" cy="2300" r="32.5"/>
</n1:g>

<n1:g fill="#00b400" fill-opacity="1" stroke="none" transform="matrix(1,0,0,1,-2820,-1219.96)" font-family="Sans" font-size="152.778" font-weight="400" font-style="normal">
<n1:circle cx="2900" cy="2100" r="32.5"/>
</n1:g>

<n1:g fill="#00b400" fill-opacity="1" stroke="none" transform="matrix(1,0,0,1,-2820,-1219.96)" font-family="Sans" font-size="152.778" font-weight="400" font-style="normal">
<n1:circle cx="2900" cy="2400" r="32.5"/>
</n1:g>

<n1:g fill="#00b400" fill-opacity="1" stroke="none" transform="matrix(1,0,0,1,-2820,-1219.96)" font-family="Sans" font-size="152.778" font-weight="400" font-style="normal">
<n1:circle cx="2900" cy="2200" r="32.5"/>
</n1:g>

<n1:g fill="#00b400" fill-opacity="1" stroke="none" transform="matrix(1,0,0,1,-2820,-1219.96)" font-family="Sans" font-size="152.778" font-weight="400" font-style="normal">
<n1:circle cx="3500" cy="2100" r="32.5"/>
</n1:g>

<n1:g fill="#00b400" fill-opacity="1" stroke="none" transform="matrix(1,0,0,1,-2820,-1219.96)" font-family="Sans" font-size="152.778" font-weight="400" font-style="normal">
<n1:circle cx="3500" cy="2200" r="32.5"/>
</n1:g>

<n1:g fill="#00b400" fill-opacity="1" stroke="none" transform="matrix(1,0,0,1,-2820,-1219.96)" font-family="Sans" font-size="152.778" font-weight="400" font-style="normal">
<n1:circle cx="3500" cy="1900" r="32.5"/>
</n1:g>

<n1:g fill="#00b400" fill-opacity="1" stroke="none" transform="matrix(1,0,0,1,-2820,-1219.96)" font-family="Sans" font-size="152.778" font-weight="400" font-style="normal">
<n1:circle cx="3500" cy="2000" r="32.5"/>
</n1:g>

<n1:g fill="#00b400" fill-opacity="1" stroke="none" transform="matrix(1,0,0,1,-2820,-1219.96)" font-family="Sans" font-size="152.778" font-weight="400" font-style="normal">
<n1:circle cx="3400" cy="2400" r="32.5"/>
</n1:g>

<n1:g fill="#00b400" fill-opacity="1" stroke="none" transform="matrix(1,0,0,1,-2820,-1219.96)" font-family="Sans" font-size="152.778" font-weight="400" font-style="normal">
<n1:circle cx="3200" cy="2400" r="32.5"/>
</n1:g>

<n1:g fill="#00b400" fill-opacity="1" stroke="none" transform="matrix(1,0,0,1,-2820,-1219.96)" font-family="Sans" font-size="152.778" font-weight="400" font-style="normal">
<n1:circle cx="3500" cy="2300" r="32.5"/>
</n1:g>

<n1:g fill="#00b400" fill-opacity="1" stroke="none" transform="matrix(1,0,0,1,-2820,-1219.96)" font-family="Sans" font-size="152.778" font-weight="400" font-style="normal">
<n1:circle cx="3500" cy="2400" r="32.5"/>
</n1:g>

<n1:g fill="#00b400" fill-opacity="1" stroke="none" transform="matrix(1,0,0,1,-2820,-1219.96)" font-family="Sans" font-size="152.778" font-weight="400" font-style="normal">
<n1:circle cx="3000" cy="1700" r="32.5"/>
</n1:g>

<n1:g fill="#00b400" fill-opacity="1" stroke="none" transform="matrix(1,0,0,1,-2820,-1219.96)" font-family="Sans" font-size="152.778" font-weight="400" font-style="normal">
<n1:circle cx="3400" cy="1700" r="32.5"/>
</n1:g>

<n1:g fill="#ff0000" fill-opacity="1" stroke="none" transform="matrix(1,0,0,1,-2820,-1219.96)" font-family="Sans" font-size="152.778" font-weight="400" font-style="normal">
<n1:circle cx="2900" cy="1500" r="32.5"/>
</n1:g>

<n1:g fill="#ff0000" fill-opacity="1" stroke="none" transform="matrix(1,0,0,1,-2820,-1219.96)" font-family="Sans" font-size="152.778" font-weight="400" font-style="normal">
<n1:circle cx="3500" cy="1300" r="32.5"/>
</n1:g>

<n1:g fill="#ff0000" fill-opacity="1" stroke="none" transform="matrix(1,0,0,1,-2820,-1219.96)" font-family="Sans" font-size="152.778" font-weight="400" font-style="normal">
<n1:circle cx="2900" cy="1700" r="32.5"/>
</n1:g>

<n1:g fill="#ff0000" fill-opacity="1" stroke="none" transform="matrix(1,0,0,1,-2820,-1219.96)" font-family="Sans" font-size="152.778" font-weight="400" font-style="normal">
<n1:circle cx="3500" cy="1400" r="32.5"/>
</n1:g>

<n1:g fill="#ff0000" fill-opacity="1" stroke="none" transform="matrix(1,0,0,1,-2820,-1219.96)" font-family="Sans" font-size="152.778" font-weight="400" font-style="normal">
<n1:circle cx="2900" cy="1600" r="32.5"/>
</n1:g>

<n1:g fill="#ff0000" fill-opacity="1" stroke="none" transform="matrix(1,0,0,1,-2820,-1219.96)" font-family="Sans" font-size="152.778" font-weight="400" font-style="normal">
<n1:circle cx="2900" cy="2000" r="32.5"/>
</n1:g>

<n1:g fill="#ff0000" fill-opacity="1" stroke="none" transform="matrix(1,0,0,1,-2820,-1219.96)" font-family="Sans" font-size="152.778" font-weight="400" font-style="normal">
<n1:circle cx="3500" cy="1700" r="32.5"/>
</n1:g>

<n1:g fill="#ff0000" fill-opacity="1" stroke="none" transform="matrix(1,0,0,1,-2820,-1219.96)" font-family="Sans" font-size="152.778" font-weight="400" font-style="normal">
<n1:circle cx="3500" cy="1800" r="32.5"/>
</n1:g>

<n1:g fill="#ff0000" fill-opacity="1" stroke="none" transform="matrix(1,0,0,1,-2820,-1219.96)" font-family="Sans" font-size="152.778" font-weight="400" font-style="normal">
<n1:circle cx="3500" cy="1500" r="32.5"/>
</n1:g>

<n1:g fill="#ff0000" fill-opacity="1" stroke="#ff0000" stroke-opacity="1" stroke-width="65" stroke-linecap="butt" stroke-linejoin="bevel" transform="matrix(1,0,0,1,-2820,-1219.96)" font-family="Sans" font-size="152.778" font-weight="400" font-style="normal">
<n1:polyline fill="none" vector-effect="none" points="2868,1300 2932,1300 "/>
</n1:g>

<n1:g fill="#ff0000" fill-opacity="1" stroke="none" transform="matrix(1,0,0,1,-2820,-1219.96)" font-family="Sans" font-size="152.778" font-weight="400" font-style="normal">
<n1:circle cx="3500" cy="1600" r="32.5"/>
</n1:g>

<n1:g fill="#ff0000" fill-opacity="1" stroke="none" transform="matrix(1,0,0,1,-2820,-1219.96)" font-family="Sans" font-size="152.778" font-weight="400" font-style="normal">
<n1:circle cx="2900" cy="1400" r="32.5"/>
</n1:g>

<n1:g fill="#ff0000" fill-opacity="1" stroke="none" transform="matrix(1,0,0,1,-2820,-1219.96)" font-family="Sans" font-size="152.778" font-weight="400" font-style="normal">
<n1:circle cx="2900" cy="1900" r="32.5"/>
</n1:g>

<n1:g fill="#ff0000" fill-opacity="1" stroke="none" transform="matrix(1,0,0,1,-2820,-1219.96)" font-family="Sans" font-size="152.778" font-weight="400" font-style="normal">
<n1:circle cx="2900" cy="1800" r="32.5"/>
</n1:g>

<n1:g fill="#ff0000" fill-opacity="1" stroke="none" transform="matrix(1,0,0,1,-2820,-1219.96)" font-family="Sans" font-size="152.778" font-weight="400" font-style="normal">
<n1:circle cx="3100" cy="2400" r="32.5"/>
</n1:g>

<n1:g fill="#ff0000" fill-opacity="1" stroke="none" transform="matrix(1,0,0,1,-2820,-1219.96)" font-family="Sans" font-size="152.778" font-weight="400" font-style="normal">
<n1:circle cx="3000" cy="2400" r="32.5"/>
</n1:g>

<n1:g fill="#ff0000" fill-opacity="1" stroke="none" transform="matrix(1,0,0,1,-2820,-1219.96)" font-family="Sans" font-size="152.778" font-weight="400" font-style="normal">
<n1:circle cx="3300" cy="2400" r="32.5"/>
</n1:g>

<n1:g fill="#ff0000" fill-opacity="1" stroke="none" transform="matrix(1,0,0,1,-2820,-1219.96)" font-family="Sans" font-size="152.778" font-weight="400" font-style="normal">
<n1:circle cx="2900" cy="2300" r="32.5"/>
</n1:g>

<n1:g fill="#ff0000" fill-opacity="1" stroke="none" transform="matrix(1,0,0,1,-2820,-1219.96)" font-family="Sans" font-size="152.778" font-weight="400" font-style="normal">
<n1:circle cx="2900" cy="2100" r="32.5"/>
</n1:g>

<n1:g fill="#ff0000" fill-opacity="1" stroke="none" transform="matrix(1,0,0,1,-2820,-1219.96)" font-family="Sans" font-size="152.778" font-weight="400" font-style="normal">
<n1:circle cx="2900" cy="2400" r="32.5"/>
</n1:g>

<n1:g fill="#ff0000" fill-opacity="1" stroke="none" transform="matrix(1,0,0,1,-2820,-1219.96)" font-family="Sans" font-size="152.778" font-weight="400" font-style="normal">
<n1:circle cx="2900" cy="2200" r="32.5"/>
</n1:g>

<n1:g fill="#ff0000" fill-opacity="1" stroke="none" transform="matrix(1,0,0,1,-2820,-1219.96)" font-family="Sans" font-size="152.778" font-weight="400" font-style="normal">
<n1:circle cx="3500" cy="2100" r="32.5"/>
</n1:g>

<n1:g fill="#ff0000" fill-opacity="1" stroke="none" transform="matrix(1,0,0,1,-2820,-1219.96)" font-family="Sans" font-size="152.778" font-weight="400" font-style="normal">
<n1:circle cx="3500" cy="2200" r="32.5"/>
</n1:g>

<n1:g fill="#ff0000" fill-opacity="1" stroke="none" transform="matrix(1,0,0,1,-2820,-1219.96)" font-family="Sans" font-size="152.778" font-weight="400" font-style="normal">
<n1:circle cx="3500" cy="1900" r="32.5"/>
</n1:g>

<n1:g fill="#ff0000" fill-opacity="1" stroke="none" transform="matrix(1,0,0,1,-2820,-1219.96)" font-family="Sans" font-size="152.778" font-weight="400" font-style="normal">
<n1:circle cx="3500" cy="2000" r="32.5"/>
</n1:g>

<n1:g fill="#ff0000" fill-opacity="1" stroke="none" transform="matrix(1,0,0,1,-2820,-1219.96)" font-family="Sans" font-size="152.778" font-weight="400" font-style="normal">
<n1:circle cx="3400" cy="2400" r="32.5"/>
</n1:g>

<n1:g fill="#ff0000" fill-opacity="1" stroke="none" transform="matrix(1,0,0,1,-2820,-1219.96)" font-family="Sans" font-size="152.778" font-weight="400" font-style="normal">
<n1:circle cx="3200" cy="2400" r="32.5"/>
</n1:g>

<n1:g fill="#ff0000" fill-opacity="1" stroke="none" transform="matrix(1,0,0,1,-2820,-1219.96)" font-family="Sans" font-size="152.778" font-weight="400" font-style="normal">
<n1:circle cx="3500" cy="2300" r="32.5"/>
</n1:g>

<n1:g fill="#ff0000" fill-opacity="1" stroke="none" transform="matrix(1,0,0,1,-2820,-1219.96)" font-family="Sans" font-size="152.778" font-weight="400" font-style="normal">
<n1:circle cx="3500" cy="2400" r="32.5"/>
</n1:g>

<n1:g fill="#ff0000" fill-opacity="1" stroke="none" transform="matrix(1,0,0,1,-2820,-1219.96)" font-family="Sans" font-size="152.778" font-weight="400" font-style="normal">
<n1:circle cx="3000" cy="1700" r="32.5"/>
</n1:g>

<n1:g fill="#ff0000" fill-opacity="1" stroke="none" transform="matrix(1,0,0,1,-2820,-1219.96)" font-family="Sans" font-size="152.778" font-weight="400" font-style="normal">
<n1:circle cx="3400" cy="1700" r="32.5"/>
</n1:g>

<n1:g fill="#ffffff" fill-opacity="1" stroke="none" transform="matrix(1,0,0,1,-2820,-1219.96)" font-family="Sans" font-size="152.778" font-weight="400" font-style="normal">
<n1:circle cx="2900" cy="1500" r="20"/>
</n1:g>

<n1:g fill="#ffffff" fill-opacity="1" stroke="none" transform="matrix(1,0,0,1,-2820,-1219.96)" font-family="Sans" font-size="152.778" font-weight="400" font-style="normal">
<n1:circle cx="3500" cy="1300" r="20"/>
</n1:g>

<n1:g fill="#ffffff" fill-opacity="1" stroke="none" transform="matrix(1,0,0,1,-2820,-1219.96)" font-family="Sans" font-size="152.778" font-weight="400" font-style="normal">
<n1:circle cx="2900" cy="1700" r="20"/>
</n1:g>

<n1:g fill="#ffffff" fill-opacity="1" stroke="none" transform="matrix(1,0,0,1,-2820,-1219.96)" font-family="Sans" font-size="152.778" font-weight="400" font-style="normal">
<n1:circle cx="3500" cy="1400" r="20"/>
</n1:g>

<n1:g fill="#ffffff" fill-opacity="1" stroke="none" transform="matrix(1,0,0,1,-2820,-1219.96)" font-family="Sans" font-size="152.778" font-weight="400" font-style="normal">
<n1:circle cx="2900" cy="1600" r="20"/>
</n1:g>

<n1:g fill="#ffffff" fill-opacity="1" stroke="none" transform="matrix(1,0,0,1,-2820,-1219.96)" font-family="Sans" font-size="152.778" font-weight="400" font-style="normal">
<n1:circle cx="2900" cy="2000" r="20"/>
</n1:g>

<n1:g fill="#ffffff" fill-opacity="1" stroke="none" transform="matrix(1,0,0,1,-2820,-1219.96)" font-family="Sans" font-size="152.778" font-weight="400" font-style="normal">
<n1:circle cx="3500" cy="1700" r="20"/>
</n1:g>

<n1:g fill="#ffffff" fill-opacity="1" stroke="none" transform="matrix(1,0,0,1,-2820,-1219.96)" font-family="Sans" font-size="152.778" font-weight="400" font-style="normal">
<n1:circle cx="3500" cy="1800" r="20"/>
</n1:g>

<n1:g fill="#ffffff" fill-opacity="1" stroke="none" transform="matrix(1,0,0,1,-2820,-1219.96)" font-family="Sans" font-size="152.778" font-weight="400" font-style="normal">
<n1:circle cx="3500" cy="1500" r="20"/>
</n1:g>

<n1:g fill="#ffffff" fill-opacity="1" stroke="none" transform="matrix(1,0,0,1,-2820,-1219.96)" font-family="Sans" font-size="152.778" font-weight="400" font-style="normal">
<n1:circle cx="2900" cy="1300" r="20"/>
</n1:g>

<n1:g fill="#ffffff" fill-opacity="1" stroke="none" transform="matrix(1,0,0,1,-2820,-1219.96)" font-family="Sans" font-size="152.778" font-weight="400" font-style="normal">
<n1:circle cx="3500" cy="1600" r="20"/>
</n1:g>

<n1:g fill="#ffffff" fill-opacity="1" stroke="none" transform="matrix(1,0,0,1,-2820,-1219.96)" font-family="Sans" font-size="152.778" font-weight="400" font-style="normal">
<n1:circle cx="2900" cy="1400" r="20"/>
</n1:g>

<n1:g fill="#ffffff" fill-opacity="1" stroke="none" transform="matrix(1,0,0,1,-2820,-1219.96)" font-family="Sans" font-size="152.778" font-weight="400" font-style="normal">
<n1:circle cx="2900" cy="1900" r="20"/>
</n1:g>

<n1:g fill="#ffffff" fill-opacity="1" stroke="none" transform="matrix(1,0,0,1,-2820,-1219.96)" font-family="Sans" font-size="152.778" font-weight="400" font-style="normal">
<n1:circle cx="2900" cy="1800" r="20"/>
</n1:g>

<n1:g fill="#ffffff" fill-opacity="1" stroke="none" transform="matrix(1,0,0,1,-2820,-1219.96)" font-family="Sans" font-size="152.778" font-weight="400" font-style="normal">
<n1:circle cx="3100" cy="2400" r="20"/>
</n1:g>

<n1:g fill="#ffffff" fill-opacity="1" stroke="none" transform="matrix(1,0,0,1,-2820,-1219.96)" font-family="Sans" font-size="152.778" font-weight="400" font-style="normal">
<n1:circle cx="3000" cy="2400" r="20"/>
</n1:g>

<n1:g fill="#ffffff" fill-opacity="1" stroke="none" transform="matrix(1,0,0,1,-2820,-1219.96)" font-family="Sans" font-size="152.778" font-weight="400" font-style="normal">
<n1:circle cx="3300" cy="2400" r="20"/>
</n1:g>

<n1:g fill="#ffffff" fill-opacity="1" stroke="none" transform="matrix(1,0,0,1,-2820,-1219.96)" font-family="Sans" font-size="152.778" font-weight="400" font-style="normal">
<n1:circle cx="2900" cy="2300" r="20"/>
</n1:g>

<n1:g fill="#ffffff" fill-opacity="1" stroke="none" transform="matrix(1,0,0,1,-2820,-1219.96)" font-family="Sans" font-size="152.778" font-weight="400" font-style="normal">
<n1:circle cx="2900" cy="2100" r="20"/>
</n1:g>

<n1:g fill="#ffffff" fill-opacity="1" stroke="none" transform="matrix(1,0,0,1,-2820,-1219.96)" font-family="Sans" font-size="152.778" font-weight="400" font-style="normal">
<n1:circle cx="2900" cy="2400" r="20"/>
</n1:g>

<n1:g fill="#ffffff" fill-opacity="1" stroke="none" transform="matrix(1,0,0,1,-2820,-1219.96)" font-family="Sans" font-size="152.778" font-weight="400" font-style="normal">
<n1:circle cx="2900" cy="2200" r="20"/>
</n1:g>

<n1:g fill="#ffffff" fill-opacity="1" stroke="none" transform="matrix(1,0,0,1,-2820,-1219.96)" font-family="Sans" font-size="152.778" font-weight="400" font-style="normal">
<n1:circle cx="3500" cy="2100" r="20"/>
</n1:g>

<n1:g fill="#ffffff" fill-opacity="1" stroke="none" transform="matrix(1,0,0,1,-2820,-1219.96)" font-family="Sans" font-size="152.778" font-weight="400" font-style="normal">
<n1:circle cx="3500" cy="2200" r="20"/>
</n1:g>

<n1:g fill="#ffffff" fill-opacity="1" stroke="none" transform="matrix(1,0,0,1,-2820,-1219.96)" font-family="Sans" font-size="152.778" font-weight="400" font-style="normal">
<n1:circle cx="3500" cy="1900" r="20"/>
</n1:g>

<n1:g fill="#ffffff" fill-opacity="1" stroke="none" transform="matrix(1,0,0,1,-2820,-1219.96)" font-family="Sans" font-size="152.778" font-weight="400" font-style="normal">
<n1:circle cx="3500" cy="2000" r="20"/>
</n1:g>

<n1:g fill="#ffffff" fill-opacity="1" stroke="none" transform="matrix(1,0,0,1,-2820,-1219.96)" font-family="Sans" font-size="152.778" font-weight="400" font-style="normal">
<n1:circle cx="3400" cy="2400" r="20"/>
</n1:g>

<n1:g fill="#ffffff" fill-opacity="1" stroke="none" transform="matrix(1,0,0,1,-2820,-1219.96)" font-family="Sans" font-size="152.778" font-weight="400" font-style="normal">
<n1:circle cx="3200" cy="2400" r="20"/>
</n1:g>

<n1:g fill="#ffffff" fill-opacity="1" stroke="none" transform="matrix(1,0,0,1,-2820,-1219.96)" font-family="Sans" font-size="152.778" font-weight="400" font-style="normal">
<n1:circle cx="3500" cy="2300" r="20"/>
</n1:g>

<n1:g fill="#ffffff" fill-opacity="1" stroke="none" transform="matrix(1,0,0,1,-2820,-1219.96)" font-family="Sans" font-size="152.778" font-weight="400" font-style="normal">
<n1:circle cx="3500" cy="2400" r="20"/>
</n1:g>

<n1:g fill="#ffffff" fill-opacity="1" stroke="none" transform="matrix(1,0,0,1,-2820,-1219.96)" font-family="Sans" font-size="152.778" font-weight="400" font-style="normal">
<n1:circle cx="3000" cy="1700" r="20"/>
</n1:g>

<n1:g fill="#ffffff" fill-opacity="1" stroke="none" transform="matrix(1,0,0,1,-2820,-1219.96)" font-family="Sans" font-size="152.778" font-weight="400" font-style="normal">
<n1:circle cx="3400" cy="1700" r="20"/>
</n1:g>

<n1:g fill="#ffffff" fill-opacity="1" stroke="#f0f000" stroke-opacity="1" stroke-width="10" stroke-linecap="round" stroke-linejoin="bevel" transform="matrix(1,0,0,1,-2820,-1219.96)" font-family="Sans" font-size="152.778" font-weight="400" font-style="normal">
<n1:polyline fill="none" vector-effect="none" points="3550,1250 3250,1250 "/>
</n1:g>

<n1:g fill="none" stroke="#f0f000" stroke-opacity="1" stroke-width="10" stroke-linecap="round" stroke-linejoin="bevel" transform="matrix(1,0,0,1,-2820,-1219.96)" font-family="Sans" font-size="152.778" font-weight="400" font-style="normal">
<n1:path vector-effect="none" fill-rule="evenodd" d="M3150,1250 C3150,1277.61 3172.39,1300 3200,1300 C3227.61,1300 3250,1277.61 3250,1250 "/>
<n1:polyline fill="none" vector-effect="none" points="3550,2450 3550,1250 "/>
<n1:polyline fill="none" vector-effect="none" points="2850,1250 2850,2450 "/>
<n1:polyline fill="none" vector-effect="none" points="2850,2450 3550,2450 "/>
<n1:polyline fill="none" vector-effect="none" points="3150,1250 2850,1250 "/>
</n1:g>
</n1:g>
</svg>
