<?xml version="1.0" encoding="UTF-8"?>
<svg width="19.304mm" height="32.004mm" viewBox="0 0 760 1260.04" version="1.2" baseProfile="tiny" xmlns:n1="http://www.w3.org/2000/svg" xmlns:xlink="http://www.w3.org/1999/xlink" xmlns:cpcb="http://www.danielwagenaar.net/cpcb-ns.html">
  <cpcb:part pkg="teensyduino-2_0" xmlns="http://www.danielwagenaar.net/cpcb-ns.html">
    <group ref="J?">
      <trace p1="622300 266700" p2="546100 266700" w="2540" l="1"/>
      <arc p="533400 266700" r="12700" lw="2540" l="1" ang="180" rota="90"/>
      <hole p="457200 330200" id="10160" od="16510" ref="3/D1"/>
      <trace p1="622300 571500" p2="622300 266700" w="2540" l="1"/>
      <hole p="609600 279400" id="10160" od="16510" ref="24/Vcc"/>
      <hole p="457200 381000" id="10160" od="16510" ref="5/D3"/>
      <hole p="609600 304800" id="10160" od="16510" ref="23/D21A0"/>
      <hole p="457200 355600" id="10160" od="16510" ref="4/D2"/>
      <hole p="457200 457200" id="10160" od="16510" ref="8/D6"/>
      <hole p="609600 381000" id="10160" od="16510" ref="20/D18A3"/>
      <trace p1="444500 266700" p2="444500 571500" w="2540" l="1"/>
      <hole p="609600 406400" id="10160" od="16510" ref="19/D17A4"/>
      <trace p1="444500 571500" p2="622300 571500" w="2540" l="1"/>
      <hole p="609600 330200" id="10160" od="16510" ref="22/D20A1"/>
      <hole p="457200 279400" id="10160" od="16510" sq="1" ref="1/Gnd"/>
      <hole p="609600 355600" id="10160" od="16510" ref="21/D19A2"/>
      <hole p="457200 304800" id="10160" od="16510" ref="2/D0"/>
      <hole p="457200 431800" id="10160" od="16510" ref="7/D5"/>
      <hole p="457200 406400" id="10160" od="16510" ref="6/D4"/>
      <hole p="508000 558800" id="10160" od="16510" ref="Vcc2"/>
      <hole p="482600 558800" id="10160" od="16510" ref="D23"/>
      <hole p="558800 558800" id="10160" od="16510" ref="Rst"/>
      <hole p="457200 533400" id="10160" od="16510" ref="11/D9"/>
      <hole p="457200 482600" id="10160" od="16510" ref="9/D7"/>
      <trace p1="520700 266700" p2="444500 266700" w="2540" l="1"/>
      <hole p="457200 558800" id="10160" od="16510" ref="12/D10"/>
      <hole p="457200 508000" id="10160" od="16510" ref="10/D8"/>
      <hole p="609600 482600" id="10160" od="16510" ref="16/D14A7"/>
      <hole p="609600 508000" id="10160" od="16510" ref="15/D13A8"/>
      <hole p="609600 431800" id="10160" od="16510" ref="18/D16A5"/>
      <hole p="609600 457200" id="10160" od="16510" ref="17/D15A6"/>
      <hole p="584200 558800" id="10160" od="16510" ref="D22"/>
      <hole p="533400 558800" id="10160" od="16510" ref="Gnd2"/>
      <hole p="609600 533400" id="10160" od="16510" ref="14/D12A9"/>
      <hole p="609600 558800" id="10160" od="16510" ref="13/D11A10"/>
      <hole p="482600 381000" id="10160" od="16510" ref="D24"/>
      <hole p="584200 381000" id="10160" od="16510" ref="ARef"/>
    </group>
    <text p="443230 252720" fs="12700" l="1" rot="0" text="J?"/>
  </cpcb:part>
<n1:title>PCB Component</n1:title>
<n1:desc>Generated by CPCB</n1:desc>
<n1:defs>
</n1:defs>
<n1:g fill="none" stroke="black" stroke-width="1" fill-rule="evenodd" stroke-linecap="square" stroke-linejoin="bevel">

<n1:g fill="#000000" fill-opacity="1" stroke="none" transform="matrix(1,0,0,1,-1720,-1019.96)" font-family="Sans" font-size="152.778" font-weight="400" font-style="normal">
<n1:rect x="1720" y="1019.96" width="760" height="1260.04"/>
</n1:g>

<n1:g fill="#00b400" fill-opacity="1" stroke="none" transform="matrix(1,0,0,1,-1720,-1019.96)" font-family="Sans" font-size="152.778" font-weight="400" font-style="normal">
<n1:circle cx="1800" cy="1300" r="32.5"/>
</n1:g>

<n1:g fill="#00b400" fill-opacity="1" stroke="none" transform="matrix(1,0,0,1,-1720,-1019.96)" font-family="Sans" font-size="152.778" font-weight="400" font-style="normal">
<n1:circle cx="2400" cy="1100" r="32.5"/>
</n1:g>

<n1:g fill="#00b400" fill-opacity="1" stroke="none" transform="matrix(1,0,0,1,-1720,-1019.96)" font-family="Sans" font-size="152.778" font-weight="400" font-style="normal">
<n1:circle cx="1800" cy="1500" r="32.5"/>
</n1:g>

<n1:g fill="#00b400" fill-opacity="1" stroke="none" transform="matrix(1,0,0,1,-1720,-1019.96)" font-family="Sans" font-size="152.778" font-weight="400" font-style="normal">
<n1:circle cx="2400" cy="1200" r="32.5"/>
</n1:g>

<n1:g fill="#00b400" fill-opacity="1" stroke="none" transform="matrix(1,0,0,1,-1720,-1019.96)" font-family="Sans" font-size="152.778" font-weight="400" font-style="normal">
<n1:circle cx="1800" cy="1400" r="32.5"/>
</n1:g>

<n1:g fill="#00b400" fill-opacity="1" stroke="none" transform="matrix(1,0,0,1,-1720,-1019.96)" font-family="Sans" font-size="152.778" font-weight="400" font-style="normal">
<n1:circle cx="1800" cy="1800" r="32.5"/>
</n1:g>

<n1:g fill="#00b400" fill-opacity="1" stroke="none" transform="matrix(1,0,0,1,-1720,-1019.96)" font-family="Sans" font-size="152.778" font-weight="400" font-style="normal">
<n1:circle cx="2400" cy="1500" r="32.5"/>
</n1:g>

<n1:g fill="#00b400" fill-opacity="1" stroke="none" transform="matrix(1,0,0,1,-1720,-1019.96)" font-family="Sans" font-size="152.778" font-weight="400" font-style="normal">
<n1:circle cx="2400" cy="1600" r="32.5"/>
</n1:g>

<n1:g fill="#00b400" fill-opacity="1" stroke="none" transform="matrix(1,0,0,1,-1720,-1019.96)" font-family="Sans" font-size="152.778" font-weight="400" font-style="normal">
<n1:circle cx="2400" cy="1300" r="32.5"/>
</n1:g>

<n1:g fill="#00b400" fill-opacity="1" stroke="#00b400" stroke-opacity="1" stroke-width="65" stroke-linecap="butt" stroke-linejoin="bevel" transform="matrix(1,0,0,1,-1720,-1019.96)" font-family="Sans" font-size="152.778" font-weight="400" font-style="normal">
<n1:polyline fill="none" vector-effect="none" points="1768,1100 1832,1100 "/>
</n1:g>

<n1:g fill="#00b400" fill-opacity="1" stroke="none" transform="matrix(1,0,0,1,-1720,-1019.96)" font-family="Sans" font-size="152.778" font-weight="400" font-style="normal">
<n1:circle cx="2400" cy="1400" r="32.5"/>
</n1:g>

<n1:g fill="#00b400" fill-opacity="1" stroke="none" transform="matrix(1,0,0,1,-1720,-1019.96)" font-family="Sans" font-size="152.778" font-weight="400" font-style="normal">
<n1:circle cx="1800" cy="1200" r="32.5"/>
</n1:g>

<n1:g fill="#00b400" fill-opacity="1" stroke="none" transform="matrix(1,0,0,1,-1720,-1019.96)" font-family="Sans" font-size="152.778" font-weight="400" font-style="normal">
<n1:circle cx="1800" cy="1700" r="32.5"/>
</n1:g>

<n1:g fill="#00b400" fill-opacity="1" stroke="none" transform="matrix(1,0,0,1,-1720,-1019.96)" font-family="Sans" font-size="152.778" font-weight="400" font-style="normal">
<n1:circle cx="1800" cy="1600" r="32.5"/>
</n1:g>

<n1:g fill="#00b400" fill-opacity="1" stroke="none" transform="matrix(1,0,0,1,-1720,-1019.96)" font-family="Sans" font-size="152.778" font-weight="400" font-style="normal">
<n1:circle cx="2000" cy="2200" r="32.5"/>
</n1:g>

<n1:g fill="#00b400" fill-opacity="1" stroke="none" transform="matrix(1,0,0,1,-1720,-1019.96)" font-family="Sans" font-size="152.778" font-weight="400" font-style="normal">
<n1:circle cx="1900" cy="2200" r="32.5"/>
</n1:g>

<n1:g fill="#00b400" fill-opacity="1" stroke="none" transform="matrix(1,0,0,1,-1720,-1019.96)" font-family="Sans" font-size="152.778" font-weight="400" font-style="normal">
<n1:circle cx="2200" cy="2200" r="32.5"/>
</n1:g>

<n1:g fill="#00b400" fill-opacity="1" stroke="none" transform="matrix(1,0,0,1,-1720,-1019.96)" font-family="Sans" font-size="152.778" font-weight="400" font-style="normal">
<n1:circle cx="1800" cy="2100" r="32.5"/>
</n1:g>

<n1:g fill="#00b400" fill-opacity="1" stroke="none" transform="matrix(1,0,0,1,-1720,-1019.96)" font-family="Sans" font-size="152.778" font-weight="400" font-style="normal">
<n1:circle cx="1800" cy="1900" r="32.5"/>
</n1:g>

<n1:g fill="#00b400" fill-opacity="1" stroke="none" transform="matrix(1,0,0,1,-1720,-1019.96)" font-family="Sans" font-size="152.778" font-weight="400" font-style="normal">
<n1:circle cx="1800" cy="2200" r="32.5"/>
</n1:g>

<n1:g fill="#00b400" fill-opacity="1" stroke="none" transform="matrix(1,0,0,1,-1720,-1019.96)" font-family="Sans" font-size="152.778" font-weight="400" font-style="normal">
<n1:circle cx="1800" cy="2000" r="32.5"/>
</n1:g>

<n1:g fill="#00b400" fill-opacity="1" stroke="none" transform="matrix(1,0,0,1,-1720,-1019.96)" font-family="Sans" font-size="152.778" font-weight="400" font-style="normal">
<n1:circle cx="2400" cy="1900" r="32.5"/>
</n1:g>

<n1:g fill="#00b400" fill-opacity="1" stroke="none" transform="matrix(1,0,0,1,-1720,-1019.96)" font-family="Sans" font-size="152.778" font-weight="400" font-style="normal">
<n1:circle cx="2400" cy="2000" r="32.5"/>
</n1:g>

<n1:g fill="#00b400" fill-opacity="1" stroke="none" transform="matrix(1,0,0,1,-1720,-1019.96)" font-family="Sans" font-size="152.778" font-weight="400" font-style="normal">
<n1:circle cx="2400" cy="1700" r="32.5"/>
</n1:g>

<n1:g fill="#00b400" fill-opacity="1" stroke="none" transform="matrix(1,0,0,1,-1720,-1019.96)" font-family="Sans" font-size="152.778" font-weight="400" font-style="normal">
<n1:circle cx="2400" cy="1800" r="32.5"/>
</n1:g>

<n1:g fill="#00b400" fill-opacity="1" stroke="none" transform="matrix(1,0,0,1,-1720,-1019.96)" font-family="Sans" font-size="152.778" font-weight="400" font-style="normal">
<n1:circle cx="2300" cy="2200" r="32.5"/>
</n1:g>

<n1:g fill="#00b400" fill-opacity="1" stroke="none" transform="matrix(1,0,0,1,-1720,-1019.96)" font-family="Sans" font-size="152.778" font-weight="400" font-style="normal">
<n1:circle cx="2100" cy="2200" r="32.5"/>
</n1:g>

<n1:g fill="#00b400" fill-opacity="1" stroke="none" transform="matrix(1,0,0,1,-1720,-1019.96)" font-family="Sans" font-size="152.778" font-weight="400" font-style="normal">
<n1:circle cx="2400" cy="2100" r="32.5"/>
</n1:g>

<n1:g fill="#00b400" fill-opacity="1" stroke="none" transform="matrix(1,0,0,1,-1720,-1019.96)" font-family="Sans" font-size="152.778" font-weight="400" font-style="normal">
<n1:circle cx="2400" cy="2200" r="32.5"/>
</n1:g>

<n1:g fill="#00b400" fill-opacity="1" stroke="none" transform="matrix(1,0,0,1,-1720,-1019.96)" font-family="Sans" font-size="152.778" font-weight="400" font-style="normal">
<n1:circle cx="1900" cy="1500" r="32.5"/>
</n1:g>

<n1:g fill="#00b400" fill-opacity="1" stroke="none" transform="matrix(1,0,0,1,-1720,-1019.96)" font-family="Sans" font-size="152.778" font-weight="400" font-style="normal">
<n1:circle cx="2300" cy="1500" r="32.5"/>
</n1:g>

<n1:g fill="#ff0000" fill-opacity="1" stroke="none" transform="matrix(1,0,0,1,-1720,-1019.96)" font-family="Sans" font-size="152.778" font-weight="400" font-style="normal">
<n1:circle cx="1800" cy="1300" r="32.5"/>
</n1:g>

<n1:g fill="#ff0000" fill-opacity="1" stroke="none" transform="matrix(1,0,0,1,-1720,-1019.96)" font-family="Sans" font-size="152.778" font-weight="400" font-style="normal">
<n1:circle cx="2400" cy="1100" r="32.5"/>
</n1:g>

<n1:g fill="#ff0000" fill-opacity="1" stroke="none" transform="matrix(1,0,0,1,-1720,-1019.96)" font-family="Sans" font-size="152.778" font-weight="400" font-style="normal">
<n1:circle cx="1800" cy="1500" r="32.5"/>
</n1:g>

<n1:g fill="#ff0000" fill-opacity="1" stroke="none" transform="matrix(1,0,0,1,-1720,-1019.96)" font-family="Sans" font-size="152.778" font-weight="400" font-style="normal">
<n1:circle cx="2400" cy="1200" r="32.5"/>
</n1:g>

<n1:g fill="#ff0000" fill-opacity="1" stroke="none" transform="matrix(1,0,0,1,-1720,-1019.96)" font-family="Sans" font-size="152.778" font-weight="400" font-style="normal">
<n1:circle cx="1800" cy="1400" r="32.5"/>
</n1:g>

<n1:g fill="#ff0000" fill-opacity="1" stroke="none" transform="matrix(1,0,0,1,-1720,-1019.96)" font-family="Sans" font-size="152.778" font-weight="400" font-style="normal">
<n1:circle cx="1800" cy="1800" r="32.5"/>
</n1:g>

<n1:g fill="#ff0000" fill-opacity="1" stroke="none" transform="matrix(1,0,0,1,-1720,-1019.96)" font-family="Sans" font-size="152.778" font-weight="400" font-style="normal">
<n1:circle cx="2400" cy="1500" r="32.5"/>
</n1:g>

<n1:g fill="#ff0000" fill-opacity="1" stroke="none" transform="matrix(1,0,0,1,-1720,-1019.96)" font-family="Sans" font-size="152.778" font-weight="400" font-style="normal">
<n1:circle cx="2400" cy="1600" r="32.5"/>
</n1:g>

<n1:g fill="#ff0000" fill-opacity="1" stroke="none" transform="matrix(1,0,0,1,-1720,-1019.96)" font-family="Sans" font-size="152.778" font-weight="400" font-style="normal">
<n1:circle cx="2400" cy="1300" r="32.5"/>
</n1:g>

<n1:g fill="#ff0000" fill-opacity="1" stroke="#ff0000" stroke-opacity="1" stroke-width="65" stroke-linecap="butt" stroke-linejoin="bevel" transform="matrix(1,0,0,1,-1720,-1019.96)" font-family="Sans" font-size="152.778" font-weight="400" font-style="normal">
<n1:polyline fill="none" vector-effect="none" points="1768,1100 1832,1100 "/>
</n1:g>

<n1:g fill="#ff0000" fill-opacity="1" stroke="none" transform="matrix(1,0,0,1,-1720,-1019.96)" font-family="Sans" font-size="152.778" font-weight="400" font-style="normal">
<n1:circle cx="2400" cy="1400" r="32.5"/>
</n1:g>

<n1:g fill="#ff0000" fill-opacity="1" stroke="none" transform="matrix(1,0,0,1,-1720,-1019.96)" font-family="Sans" font-size="152.778" font-weight="400" font-style="normal">
<n1:circle cx="1800" cy="1200" r="32.5"/>
</n1:g>

<n1:g fill="#ff0000" fill-opacity="1" stroke="none" transform="matrix(1,0,0,1,-1720,-1019.96)" font-family="Sans" font-size="152.778" font-weight="400" font-style="normal">
<n1:circle cx="1800" cy="1700" r="32.5"/>
</n1:g>

<n1:g fill="#ff0000" fill-opacity="1" stroke="none" transform="matrix(1,0,0,1,-1720,-1019.96)" font-family="Sans" font-size="152.778" font-weight="400" font-style="normal">
<n1:circle cx="1800" cy="1600" r="32.5"/>
</n1:g>

<n1:g fill="#ff0000" fill-opacity="1" stroke="none" transform="matrix(1,0,0,1,-1720,-1019.96)" font-family="Sans" font-size="152.778" font-weight="400" font-style="normal">
<n1:circle cx="2000" cy="2200" r="32.5"/>
</n1:g>

<n1:g fill="#ff0000" fill-opacity="1" stroke="none" transform="matrix(1,0,0,1,-1720,-1019.96)" font-family="Sans" font-size="152.778" font-weight="400" font-style="normal">
<n1:circle cx="1900" cy="2200" r="32.5"/>
</n1:g>

<n1:g fill="#ff0000" fill-opacity="1" stroke="none" transform="matrix(1,0,0,1,-1720,-1019.96)" font-family="Sans" font-size="152.778" font-weight="400" font-style="normal">
<n1:circle cx="2200" cy="2200" r="32.5"/>
</n1:g>

<n1:g fill="#ff0000" fill-opacity="1" stroke="none" transform="matrix(1,0,0,1,-1720,-1019.96)" font-family="Sans" font-size="152.778" font-weight="400" font-style="normal">
<n1:circle cx="1800" cy="2100" r="32.5"/>
</n1:g>

<n1:g fill="#ff0000" fill-opacity="1" stroke="none" transform="matrix(1,0,0,1,-1720,-1019.96)" font-family="Sans" font-size="152.778" font-weight="400" font-style="normal">
<n1:circle cx="1800" cy="1900" r="32.5"/>
</n1:g>

<n1:g fill="#ff0000" fill-opacity="1" stroke="none" transform="matrix(1,0,0,1,-1720,-1019.96)" font-family="Sans" font-size="152.778" font-weight="400" font-style="normal">
<n1:circle cx="1800" cy="2200" r="32.5"/>
</n1:g>

<n1:g fill="#ff0000" fill-opacity="1" stroke="none" transform="matrix(1,0,0,1,-1720,-1019.96)" font-family="Sans" font-size="152.778" font-weight="400" font-style="normal">
<n1:circle cx="1800" cy="2000" r="32.5"/>
</n1:g>

<n1:g fill="#ff0000" fill-opacity="1" stroke="none" transform="matrix(1,0,0,1,-1720,-1019.96)" font-family="Sans" font-size="152.778" font-weight="400" font-style="normal">
<n1:circle cx="2400" cy="1900" r="32.5"/>
</n1:g>

<n1:g fill="#ff0000" fill-opacity="1" stroke="none" transform="matrix(1,0,0,1,-1720,-1019.96)" font-family="Sans" font-size="152.778" font-weight="400" font-style="normal">
<n1:circle cx="2400" cy="2000" r="32.5"/>
</n1:g>

<n1:g fill="#ff0000" fill-opacity="1" stroke="none" transform="matrix(1,0,0,1,-1720,-1019.96)" font-family="Sans" font-size="152.778" font-weight="400" font-style="normal">
<n1:circle cx="2400" cy="1700" r="32.5"/>
</n1:g>

<n1:g fill="#ff0000" fill-opacity="1" stroke="none" transform="matrix(1,0,0,1,-1720,-1019.96)" font-family="Sans" font-size="152.778" font-weight="400" font-style="normal">
<n1:circle cx="2400" cy="1800" r="32.5"/>
</n1:g>

<n1:g fill="#ff0000" fill-opacity="1" stroke="none" transform="matrix(1,0,0,1,-1720,-1019.96)" font-family="Sans" font-size="152.778" font-weight="400" font-style="normal">
<n1:circle cx="2300" cy="2200" r="32.5"/>
</n1:g>

<n1:g fill="#ff0000" fill-opacity="1" stroke="none" transform="matrix(1,0,0,1,-1720,-1019.96)" font-family="Sans" font-size="152.778" font-weight="400" font-style="normal">
<n1:circle cx="2100" cy="2200" r="32.5"/>
</n1:g>

<n1:g fill="#ff0000" fill-opacity="1" stroke="none" transform="matrix(1,0,0,1,-1720,-1019.96)" font-family="Sans" font-size="152.778" font-weight="400" font-style="normal">
<n1:circle cx="2400" cy="2100" r="32.5"/>
</n1:g>

<n1:g fill="#ff0000" fill-opacity="1" stroke="none" transform="matrix(1,0,0,1,-1720,-1019.96)" font-family="Sans" font-size="152.778" font-weight="400" font-style="normal">
<n1:circle cx="2400" cy="2200" r="32.5"/>
</n1:g>

<n1:g fill="#ff0000" fill-opacity="1" stroke="none" transform="matrix(1,0,0,1,-1720,-1019.96)" font-family="Sans" font-size="152.778" font-weight="400" font-style="normal">
<n1:circle cx="1900" cy="1500" r="32.5"/>
</n1:g>

<n1:g fill="#ff0000" fill-opacity="1" stroke="none" transform="matrix(1,0,0,1,-1720,-1019.96)" font-family="Sans" font-size="152.778" font-weight="400" font-style="normal">
<n1:circle cx="2300" cy="1500" r="32.5"/>
</n1:g>

<n1:g fill="#ffffff" fill-opacity="1" stroke="none" transform="matrix(1,0,0,1,-1720,-1019.96)" font-family="Sans" font-size="152.778" font-weight="400" font-style="normal">
<n1:circle cx="1800" cy="1300" r="20"/>
</n1:g>

<n1:g fill="#ffffff" fill-opacity="1" stroke="none" transform="matrix(1,0,0,1,-1720,-1019.96)" font-family="Sans" font-size="152.778" font-weight="400" font-style="normal">
<n1:circle cx="2400" cy="1100" r="20"/>
</n1:g>

<n1:g fill="#ffffff" fill-opacity="1" stroke="none" transform="matrix(1,0,0,1,-1720,-1019.96)" font-family="Sans" font-size="152.778" font-weight="400" font-style="normal">
<n1:circle cx="1800" cy="1500" r="20"/>
</n1:g>

<n1:g fill="#ffffff" fill-opacity="1" stroke="none" transform="matrix(1,0,0,1,-1720,-1019.96)" font-family="Sans" font-size="152.778" font-weight="400" font-style="normal">
<n1:circle cx="2400" cy="1200" r="20"/>
</n1:g>

<n1:g fill="#ffffff" fill-opacity="1" stroke="none" transform="matrix(1,0,0,1,-1720,-1019.96)" font-family="Sans" font-size="152.778" font-weight="400" font-style="normal">
<n1:circle cx="1800" cy="1400" r="20"/>
</n1:g>

<n1:g fill="#ffffff" fill-opacity="1" stroke="none" transform="matrix(1,0,0,1,-1720,-1019.96)" font-family="Sans" font-size="152.778" font-weight="400" font-style="normal">
<n1:circle cx="1800" cy="1800" r="20"/>
</n1:g>

<n1:g fill="#ffffff" fill-opacity="1" stroke="none" transform="matrix(1,0,0,1,-1720,-1019.96)" font-family="Sans" font-size="152.778" font-weight="400" font-style="normal">
<n1:circle cx="2400" cy="1500" r="20"/>
</n1:g>

<n1:g fill="#ffffff" fill-opacity="1" stroke="none" transform="matrix(1,0,0,1,-1720,-1019.96)" font-family="Sans" font-size="152.778" font-weight="400" font-style="normal">
<n1:circle cx="2400" cy="1600" r="20"/>
</n1:g>

<n1:g fill="#ffffff" fill-opacity="1" stroke="none" transform="matrix(1,0,0,1,-1720,-1019.96)" font-family="Sans" font-size="152.778" font-weight="400" font-style="normal">
<n1:circle cx="2400" cy="1300" r="20"/>
</n1:g>

<n1:g fill="#ffffff" fill-opacity="1" stroke="none" transform="matrix(1,0,0,1,-1720,-1019.96)" font-family="Sans" font-size="152.778" font-weight="400" font-style="normal">
<n1:circle cx="1800" cy="1100" r="20"/>
</n1:g>

<n1:g fill="#ffffff" fill-opacity="1" stroke="none" transform="matrix(1,0,0,1,-1720,-1019.96)" font-family="Sans" font-size="152.778" font-weight="400" font-style="normal">
<n1:circle cx="2400" cy="1400" r="20"/>
</n1:g>

<n1:g fill="#ffffff" fill-opacity="1" stroke="none" transform="matrix(1,0,0,1,-1720,-1019.96)" font-family="Sans" font-size="152.778" font-weight="400" font-style="normal">
<n1:circle cx="1800" cy="1200" r="20"/>
</n1:g>

<n1:g fill="#ffffff" fill-opacity="1" stroke="none" transform="matrix(1,0,0,1,-1720,-1019.96)" font-family="Sans" font-size="152.778" font-weight="400" font-style="normal">
<n1:circle cx="1800" cy="1700" r="20"/>
</n1:g>

<n1:g fill="#ffffff" fill-opacity="1" stroke="none" transform="matrix(1,0,0,1,-1720,-1019.96)" font-family="Sans" font-size="152.778" font-weight="400" font-style="normal">
<n1:circle cx="1800" cy="1600" r="20"/>
</n1:g>

<n1:g fill="#ffffff" fill-opacity="1" stroke="none" transform="matrix(1,0,0,1,-1720,-1019.96)" font-family="Sans" font-size="152.778" font-weight="400" font-style="normal">
<n1:circle cx="2000" cy="2200" r="20"/>
</n1:g>

<n1:g fill="#ffffff" fill-opacity="1" stroke="none" transform="matrix(1,0,0,1,-1720,-1019.96)" font-family="Sans" font-size="152.778" font-weight="400" font-style="normal">
<n1:circle cx="1900" cy="2200" r="20"/>
</n1:g>

<n1:g fill="#ffffff" fill-opacity="1" stroke="none" transform="matrix(1,0,0,1,-1720,-1019.96)" font-family="Sans" font-size="152.778" font-weight="400" font-style="normal">
<n1:circle cx="2200" cy="2200" r="20"/>
</n1:g>

<n1:g fill="#ffffff" fill-opacity="1" stroke="none" transform="matrix(1,0,0,1,-1720,-1019.96)" font-family="Sans" font-size="152.778" font-weight="400" font-style="normal">
<n1:circle cx="1800" cy="2100" r="20"/>
</n1:g>

<n1:g fill="#ffffff" fill-opacity="1" stroke="none" transform="matrix(1,0,0,1,-1720,-1019.96)" font-family="Sans" font-size="152.778" font-weight="400" font-style="normal">
<n1:circle cx="1800" cy="1900" r="20"/>
</n1:g>

<n1:g fill="#ffffff" fill-opacity="1" stroke="none" transform="matrix(1,0,0,1,-1720,-1019.96)" font-family="Sans" font-size="152.778" font-weight="400" font-style="normal">
<n1:circle cx="1800" cy="2200" r="20"/>
</n1:g>

<n1:g fill="#ffffff" fill-opacity="1" stroke="none" transform="matrix(1,0,0,1,-1720,-1019.96)" font-family="Sans" font-size="152.778" font-weight="400" font-style="normal">
<n1:circle cx="1800" cy="2000" r="20"/>
</n1:g>

<n1:g fill="#ffffff" fill-opacity="1" stroke="none" transform="matrix(1,0,0,1,-1720,-1019.96)" font-family="Sans" font-size="152.778" font-weight="400" font-style="normal">
<n1:circle cx="2400" cy="1900" r="20"/>
</n1:g>

<n1:g fill="#ffffff" fill-opacity="1" stroke="none" transform="matrix(1,0,0,1,-1720,-1019.96)" font-family="Sans" font-size="152.778" font-weight="400" font-style="normal">
<n1:circle cx="2400" cy="2000" r="20"/>
</n1:g>

<n1:g fill="#ffffff" fill-opacity="1" stroke="none" transform="matrix(1,0,0,1,-1720,-1019.96)" font-family="Sans" font-size="152.778" font-weight="400" font-style="normal">
<n1:circle cx="2400" cy="1700" r="20"/>
</n1:g>

<n1:g fill="#ffffff" fill-opacity="1" stroke="none" transform="matrix(1,0,0,1,-1720,-1019.96)" font-family="Sans" font-size="152.778" font-weight="400" font-style="normal">
<n1:circle cx="2400" cy="1800" r="20"/>
</n1:g>

<n1:g fill="#ffffff" fill-opacity="1" stroke="none" transform="matrix(1,0,0,1,-1720,-1019.96)" font-family="Sans" font-size="152.778" font-weight="400" font-style="normal">
<n1:circle cx="2300" cy="2200" r="20"/>
</n1:g>

<n1:g fill="#ffffff" fill-opacity="1" stroke="none" transform="matrix(1,0,0,1,-1720,-1019.96)" font-family="Sans" font-size="152.778" font-weight="400" font-style="normal">
<n1:circle cx="2100" cy="2200" r="20"/>
</n1:g>

<n1:g fill="#ffffff" fill-opacity="1" stroke="none" transform="matrix(1,0,0,1,-1720,-1019.96)" font-family="Sans" font-size="152.778" font-weight="400" font-style="normal">
<n1:circle cx="2400" cy="2100" r="20"/>
</n1:g>

<n1:g fill="#ffffff" fill-opacity="1" stroke="none" transform="matrix(1,0,0,1,-1720,-1019.96)" font-family="Sans" font-size="152.778" font-weight="400" font-style="normal">
<n1:circle cx="2400" cy="2200" r="20"/>
</n1:g>

<n1:g fill="#ffffff" fill-opacity="1" stroke="none" transform="matrix(1,0,0,1,-1720,-1019.96)" font-family="Sans" font-size="152.778" font-weight="400" font-style="normal">
<n1:circle cx="1900" cy="1500" r="20"/>
</n1:g>

<n1:g fill="#ffffff" fill-opacity="1" stroke="none" transform="matrix(1,0,0,1,-1720,-1019.96)" font-family="Sans" font-size="152.778" font-weight="400" font-style="normal">
<n1:circle cx="2300" cy="1500" r="20"/>
</n1:g>

<n1:g fill="#ffffff" fill-opacity="1" stroke="#f0f000" stroke-opacity="1" stroke-width="10" stroke-linecap="round" stroke-linejoin="bevel" transform="matrix(1,0,0,1,-1720,-1019.96)" font-family="Sans" font-size="152.778" font-weight="400" font-style="normal">
<n1:polyline fill="none" vector-effect="none" points="2450,1050 2150,1050 "/>
</n1:g>

<n1:g fill="none" stroke="#f0f000" stroke-opacity="1" stroke-width="10" stroke-linecap="round" stroke-linejoin="bevel" transform="matrix(1,0,0,1,-1720,-1019.96)" font-family="Sans" font-size="152.778" font-weight="400" font-style="normal">
<n1:path vector-effect="none" fill-rule="evenodd" d="M2050,1050 C2050,1077.61 2072.39,1100 2100,1100 C2127.61,1100 2150,1077.61 2150,1050 "/>
<n1:polyline fill="none" vector-effect="none" points="2450,2250 2450,1050 "/>
<n1:polyline fill="none" vector-effect="none" points="1750,1050 1750,2250 "/>
<n1:polyline fill="none" vector-effect="none" points="1750,2250 2450,2250 "/>
<n1:polyline fill="none" vector-effect="none" points="2050,1050 1750,1050 "/>
</n1:g>
</n1:g>
</svg>
