<?xml version="1.0" encoding="UTF-8"?>
<svg width="12.7mm" height="19.304mm" viewBox="0 0 500 760.039" version="1.2" baseProfile="tiny" xmlns:n1="http://www.w3.org/2000/svg" xmlns:xlink="http://www.w3.org/1999/xlink" xmlns:cpcb="http://www.danielwagenaar.net/cpcb-ns.html">
  <cpcb:part pkg="dip-14" xmlns="http://www.danielwagenaar.net/cpcb-ns.html">
    <group ref="J?">
      <hole p="508000 444500" id="10160" od="16510" sq="0" ref="5"/>
      <arc p="546100 330200" r="12700" lw="2540" l="1" ang="180" rota="90"/>
      <trace p1="596900 330200" p2="558800 330200" w="2540" l="1"/>
      <trace p1="596900 508000" p2="596900 330200" w="2540" l="1"/>
      <hole p="508000 393700" id="10160" od="16510" sq="0" ref="3"/>
      <hole p="508000 368300" id="10160" od="16510" sq="0" ref="2"/>
      <hole p="508000 342900" id="10160" od="16510" sq="1" ref="1"/>
      <hole p="508000 469900" id="10160" od="16510" sq="0" ref="6"/>
      <hole p="508000 495300" id="10160" od="16510" sq="0" ref="7"/>
      <hole p="584200 495300" id="10160" od="16510" sq="0" ref="8"/>
      <hole p="508000 419100" id="10160" od="16510" sq="0" ref="4"/>
      <trace p1="495300 508000" p2="596900 508000" w="2540" l="1"/>
      <trace p1="495300 330200" p2="495300 508000" w="2540" l="1"/>
      <trace p1="533400 330200" p2="495300 330200" w="2540" l="1"/>
      <hole p="584200 469900" id="10160" od="16510" sq="0" ref="9"/>
      <hole p="584200 444500" id="10160" od="16510" sq="0" ref="10"/>
      <hole p="584200 393700" id="10160" od="16510" sq="0" ref="12"/>
      <hole p="584200 368300" id="10160" od="16510" sq="0" ref="13"/>
      <hole p="584200 342900" id="10160" od="16510" sq="0" ref="14"/>
      <hole p="584200 419100" id="10160" od="16510" sq="0" ref="11"/>
    </group>
    <text p="494030 316230" fs="12700" l="1" rot="0" text="J?"/>
  </cpcb:part>
<n1:title>PCB Component</n1:title>
<n1:desc>Generated by CPCB</n1:desc>
<n1:defs>
</n1:defs>
<n1:g fill="none" stroke="black" stroke-width="1" fill-rule="evenodd" stroke-linecap="square" stroke-linejoin="bevel">

<n1:g fill="#000000" fill-opacity="1" stroke="none" transform="matrix(1,0,0,1,-1900,-1269.96)" font-family="Sans" font-size="152.778" font-weight="400" font-style="normal">
<n1:rect x="1900" y="1269.96" width="500" height="760.039"/>
</n1:g>

<n1:g fill="#00b400" fill-opacity="1" stroke="none" transform="matrix(1,0,0,1,-1900,-1269.96)" font-family="Sans" font-size="152.778" font-weight="400" font-style="normal">
<n1:circle cx="2000" cy="1750" r="32.5"/>
</n1:g>

<n1:g fill="#00b400" fill-opacity="1" stroke="none" transform="matrix(1,0,0,1,-1900,-1269.96)" font-family="Sans" font-size="152.778" font-weight="400" font-style="normal">
<n1:circle cx="2000" cy="1550" r="32.5"/>
</n1:g>

<n1:g fill="#00b400" fill-opacity="1" stroke="none" transform="matrix(1,0,0,1,-1900,-1269.96)" font-family="Sans" font-size="152.778" font-weight="400" font-style="normal">
<n1:circle cx="2000" cy="1450" r="32.5"/>
</n1:g>

<n1:g fill="#00b400" fill-opacity="1" stroke="#00b400" stroke-opacity="1" stroke-width="65" stroke-linecap="butt" stroke-linejoin="bevel" transform="matrix(1,0,0,1,-1900,-1269.96)" font-family="Sans" font-size="152.778" font-weight="400" font-style="normal">
<n1:polyline fill="none" vector-effect="none" points="1968,1350 2032,1350 "/>
</n1:g>

<n1:g fill="#00b400" fill-opacity="1" stroke="none" transform="matrix(1,0,0,1,-1900,-1269.96)" font-family="Sans" font-size="152.778" font-weight="400" font-style="normal">
<n1:circle cx="2000" cy="1850" r="32.5"/>
</n1:g>

<n1:g fill="#00b400" fill-opacity="1" stroke="none" transform="matrix(1,0,0,1,-1900,-1269.96)" font-family="Sans" font-size="152.778" font-weight="400" font-style="normal">
<n1:circle cx="2000" cy="1950" r="32.5"/>
</n1:g>

<n1:g fill="#00b400" fill-opacity="1" stroke="none" transform="matrix(1,0,0,1,-1900,-1269.96)" font-family="Sans" font-size="152.778" font-weight="400" font-style="normal">
<n1:circle cx="2300" cy="1950" r="32.5"/>
</n1:g>

<n1:g fill="#00b400" fill-opacity="1" stroke="none" transform="matrix(1,0,0,1,-1900,-1269.96)" font-family="Sans" font-size="152.778" font-weight="400" font-style="normal">
<n1:circle cx="2000" cy="1650" r="32.5"/>
</n1:g>

<n1:g fill="#00b400" fill-opacity="1" stroke="none" transform="matrix(1,0,0,1,-1900,-1269.96)" font-family="Sans" font-size="152.778" font-weight="400" font-style="normal">
<n1:circle cx="2300" cy="1850" r="32.5"/>
</n1:g>

<n1:g fill="#00b400" fill-opacity="1" stroke="none" transform="matrix(1,0,0,1,-1900,-1269.96)" font-family="Sans" font-size="152.778" font-weight="400" font-style="normal">
<n1:circle cx="2300" cy="1750" r="32.5"/>
</n1:g>

<n1:g fill="#00b400" fill-opacity="1" stroke="none" transform="matrix(1,0,0,1,-1900,-1269.96)" font-family="Sans" font-size="152.778" font-weight="400" font-style="normal">
<n1:circle cx="2300" cy="1550" r="32.5"/>
</n1:g>

<n1:g fill="#00b400" fill-opacity="1" stroke="none" transform="matrix(1,0,0,1,-1900,-1269.96)" font-family="Sans" font-size="152.778" font-weight="400" font-style="normal">
<n1:circle cx="2300" cy="1450" r="32.5"/>
</n1:g>

<n1:g fill="#00b400" fill-opacity="1" stroke="none" transform="matrix(1,0,0,1,-1900,-1269.96)" font-family="Sans" font-size="152.778" font-weight="400" font-style="normal">
<n1:circle cx="2300" cy="1350" r="32.5"/>
</n1:g>

<n1:g fill="#00b400" fill-opacity="1" stroke="none" transform="matrix(1,0,0,1,-1900,-1269.96)" font-family="Sans" font-size="152.778" font-weight="400" font-style="normal">
<n1:circle cx="2300" cy="1650" r="32.5"/>
</n1:g>

<n1:g fill="#ff0000" fill-opacity="1" stroke="none" transform="matrix(1,0,0,1,-1900,-1269.96)" font-family="Sans" font-size="152.778" font-weight="400" font-style="normal">
<n1:circle cx="2000" cy="1750" r="32.5"/>
</n1:g>

<n1:g fill="#ff0000" fill-opacity="1" stroke="none" transform="matrix(1,0,0,1,-1900,-1269.96)" font-family="Sans" font-size="152.778" font-weight="400" font-style="normal">
<n1:circle cx="2000" cy="1550" r="32.5"/>
</n1:g>

<n1:g fill="#ff0000" fill-opacity="1" stroke="none" transform="matrix(1,0,0,1,-1900,-1269.96)" font-family="Sans" font-size="152.778" font-weight="400" font-style="normal">
<n1:circle cx="2000" cy="1450" r="32.5"/>
</n1:g>

<n1:g fill="#ff0000" fill-opacity="1" stroke="#ff0000" stroke-opacity="1" stroke-width="65" stroke-linecap="butt" stroke-linejoin="bevel" transform="matrix(1,0,0,1,-1900,-1269.96)" font-family="Sans" font-size="152.778" font-weight="400" font-style="normal">
<n1:polyline fill="none" vector-effect="none" points="1968,1350 2032,1350 "/>
</n1:g>

<n1:g fill="#ff0000" fill-opacity="1" stroke="none" transform="matrix(1,0,0,1,-1900,-1269.96)" font-family="Sans" font-size="152.778" font-weight="400" font-style="normal">
<n1:circle cx="2000" cy="1850" r="32.5"/>
</n1:g>

<n1:g fill="#ff0000" fill-opacity="1" stroke="none" transform="matrix(1,0,0,1,-1900,-1269.96)" font-family="Sans" font-size="152.778" font-weight="400" font-style="normal">
<n1:circle cx="2000" cy="1950" r="32.5"/>
</n1:g>

<n1:g fill="#ff0000" fill-opacity="1" stroke="none" transform="matrix(1,0,0,1,-1900,-1269.96)" font-family="Sans" font-size="152.778" font-weight="400" font-style="normal">
<n1:circle cx="2300" cy="1950" r="32.5"/>
</n1:g>

<n1:g fill="#ff0000" fill-opacity="1" stroke="none" transform="matrix(1,0,0,1,-1900,-1269.96)" font-family="Sans" font-size="152.778" font-weight="400" font-style="normal">
<n1:circle cx="2000" cy="1650" r="32.5"/>
</n1:g>

<n1:g fill="#ff0000" fill-opacity="1" stroke="none" transform="matrix(1,0,0,1,-1900,-1269.96)" font-family="Sans" font-size="152.778" font-weight="400" font-style="normal">
<n1:circle cx="2300" cy="1850" r="32.5"/>
</n1:g>

<n1:g fill="#ff0000" fill-opacity="1" stroke="none" transform="matrix(1,0,0,1,-1900,-1269.96)" font-family="Sans" font-size="152.778" font-weight="400" font-style="normal">
<n1:circle cx="2300" cy="1750" r="32.5"/>
</n1:g>

<n1:g fill="#ff0000" fill-opacity="1" stroke="none" transform="matrix(1,0,0,1,-1900,-1269.96)" font-family="Sans" font-size="152.778" font-weight="400" font-style="normal">
<n1:circle cx="2300" cy="1550" r="32.5"/>
</n1:g>

<n1:g fill="#ff0000" fill-opacity="1" stroke="none" transform="matrix(1,0,0,1,-1900,-1269.96)" font-family="Sans" font-size="152.778" font-weight="400" font-style="normal">
<n1:circle cx="2300" cy="1450" r="32.5"/>
</n1:g>

<n1:g fill="#ff0000" fill-opacity="1" stroke="none" transform="matrix(1,0,0,1,-1900,-1269.96)" font-family="Sans" font-size="152.778" font-weight="400" font-style="normal">
<n1:circle cx="2300" cy="1350" r="32.5"/>
</n1:g>

<n1:g fill="#ff0000" fill-opacity="1" stroke="none" transform="matrix(1,0,0,1,-1900,-1269.96)" font-family="Sans" font-size="152.778" font-weight="400" font-style="normal">
<n1:circle cx="2300" cy="1650" r="32.5"/>
</n1:g>

<n1:g fill="#000000" fill-opacity="1" stroke="none" transform="matrix(1,0,0,1,-1900,-1269.96)" font-family="Sans" font-size="152.778" font-weight="400" font-style="normal">
<n1:circle cx="2000" cy="1750" r="20"/>
</n1:g>

<n1:g fill="#000000" fill-opacity="1" stroke="none" transform="matrix(1,0,0,1,-1900,-1269.96)" font-family="Sans" font-size="152.778" font-weight="400" font-style="normal">
<n1:circle cx="2000" cy="1550" r="20"/>
</n1:g>

<n1:g fill="#000000" fill-opacity="1" stroke="none" transform="matrix(1,0,0,1,-1900,-1269.96)" font-family="Sans" font-size="152.778" font-weight="400" font-style="normal">
<n1:circle cx="2000" cy="1450" r="20"/>
</n1:g>

<n1:g fill="#000000" fill-opacity="1" stroke="none" transform="matrix(1,0,0,1,-1900,-1269.96)" font-family="Sans" font-size="152.778" font-weight="400" font-style="normal">
<n1:circle cx="2000" cy="1350" r="20"/>
</n1:g>

<n1:g fill="#000000" fill-opacity="1" stroke="none" transform="matrix(1,0,0,1,-1900,-1269.96)" font-family="Sans" font-size="152.778" font-weight="400" font-style="normal">
<n1:circle cx="2000" cy="1850" r="20"/>
</n1:g>

<n1:g fill="#000000" fill-opacity="1" stroke="none" transform="matrix(1,0,0,1,-1900,-1269.96)" font-family="Sans" font-size="152.778" font-weight="400" font-style="normal">
<n1:circle cx="2000" cy="1950" r="20"/>
</n1:g>

<n1:g fill="#000000" fill-opacity="1" stroke="none" transform="matrix(1,0,0,1,-1900,-1269.96)" font-family="Sans" font-size="152.778" font-weight="400" font-style="normal">
<n1:circle cx="2300" cy="1950" r="20"/>
</n1:g>

<n1:g fill="#000000" fill-opacity="1" stroke="none" transform="matrix(1,0,0,1,-1900,-1269.96)" font-family="Sans" font-size="152.778" font-weight="400" font-style="normal">
<n1:circle cx="2000" cy="1650" r="20"/>
</n1:g>

<n1:g fill="#000000" fill-opacity="1" stroke="none" transform="matrix(1,0,0,1,-1900,-1269.96)" font-family="Sans" font-size="152.778" font-weight="400" font-style="normal">
<n1:circle cx="2300" cy="1850" r="20"/>
</n1:g>

<n1:g fill="#000000" fill-opacity="1" stroke="none" transform="matrix(1,0,0,1,-1900,-1269.96)" font-family="Sans" font-size="152.778" font-weight="400" font-style="normal">
<n1:circle cx="2300" cy="1750" r="20"/>
</n1:g>

<n1:g fill="#000000" fill-opacity="1" stroke="none" transform="matrix(1,0,0,1,-1900,-1269.96)" font-family="Sans" font-size="152.778" font-weight="400" font-style="normal">
<n1:circle cx="2300" cy="1550" r="20"/>
</n1:g>

<n1:g fill="#000000" fill-opacity="1" stroke="none" transform="matrix(1,0,0,1,-1900,-1269.96)" font-family="Sans" font-size="152.778" font-weight="400" font-style="normal">
<n1:circle cx="2300" cy="1450" r="20"/>
</n1:g>

<n1:g fill="#000000" fill-opacity="1" stroke="none" transform="matrix(1,0,0,1,-1900,-1269.96)" font-family="Sans" font-size="152.778" font-weight="400" font-style="normal">
<n1:circle cx="2300" cy="1350" r="20"/>
</n1:g>

<n1:g fill="#000000" fill-opacity="1" stroke="none" transform="matrix(1,0,0,1,-1900,-1269.96)" font-family="Sans" font-size="152.778" font-weight="400" font-style="normal">
<n1:circle cx="2300" cy="1650" r="20"/>
</n1:g>

<n1:g fill="none" stroke="#f0f000" stroke-opacity="1" stroke-width="10" stroke-linecap="round" stroke-linejoin="bevel" transform="matrix(1,0,0,1,-1900,-1269.96)" font-family="Sans" font-size="152.778" font-weight="400" font-style="normal">
<n1:path vector-effect="none" fill-rule="evenodd" d="M2100,1300 C2100,1327.61 2122.39,1350 2150,1350 C2177.61,1350 2200,1327.61 2200,1300 "/>
<n1:polyline fill="none" vector-effect="none" points="2350,1300 2200,1300 "/>
<n1:polyline fill="none" vector-effect="none" points="2350,2000 2350,1300 "/>
<n1:polyline fill="none" vector-effect="none" points="1950,2000 2350,2000 "/>
<n1:polyline fill="none" vector-effect="none" points="1950,1300 1950,2000 "/>
<n1:polyline fill="none" vector-effect="none" points="2100,1300 1950,1300 "/>
</n1:g>
</n1:g>
</svg>
