<?xml version="1.0" encoding="UTF-8"?>
<svg width="12.7mm" height="21.844mm" viewBox="0 0 500 860.039" version="1.2" baseProfile="tiny" xmlns:n1="http://www.w3.org/2000/svg" xmlns:xlink="http://www.w3.org/1999/xlink" xmlns:cpcb="http://www.danielwagenaar.net/cpcb-ns.html">
  <cpcb:part pkg="dip-16" xmlns="http://www.danielwagenaar.net/cpcb-ns.html">
    <group ref="J?a">
      <hole p="190500 431800" id="10160" od="16510" sq="0" ref="5"/>
      <arc p="228600 317500" r="12700" lw="2540" l="1" ang="180" rota="90"/>
      <trace p1="279400 317500" p2="241300 317500" w="2540" l="1"/>
      <trace p1="279400 520700" p2="279400 317500" w="2540" l="1"/>
      <hole p="190500 381000" id="10160" od="16510" sq="0" ref="3"/>
      <hole p="190500 355600" id="10160" od="16510" sq="0" ref="2"/>
      <hole p="190500 330200" id="10160" od="16510" sq="1" ref="1"/>
      <hole p="190500 457200" id="10160" od="16510" sq="0" ref="6"/>
      <hole p="190500 482600" id="10160" od="16510" sq="0" ref="7"/>
      <hole p="190500 508000" id="10160" od="16510" sq="0" ref="8"/>
      <hole p="190500 406400" id="10160" od="16510" sq="0" ref="4"/>
      <trace p1="177800 520700" p2="279400 520700" w="2540" l="1"/>
      <trace p1="177800 317500" p2="177800 520700" w="2540" l="1"/>
      <trace p1="215900 317500" p2="177800 317500" w="2540" l="1"/>
      <hole p="266700 508000" id="10160" od="16510" sq="0" ref="9"/>
      <hole p="266700 482600" id="10160" od="16510" sq="0" ref="10"/>
      <hole p="266700 431800" id="10160" od="16510" sq="0" ref="12"/>
      <hole p="266700 406400" id="10160" od="16510" sq="0" ref="13"/>
      <hole p="266700 381000" id="10160" od="16510" sq="0" ref="14"/>
      <hole p="266700 457200" id="10160" od="16510" sq="0" ref="11"/>
      <hole p="266700 330200" id="10160" od="16510" sq="0" ref="16"/>
      <hole p="266700 355600" id="10160" od="16510" sq="0" ref="15"/>
    </group>
    <text p="176530 303530" fs="12700" l="1" rot="0" text="J?a"/>
  </cpcb:part>
<n1:title>PCB Component</n1:title>
<n1:desc>Generated by CPCB</n1:desc>
<n1:defs>
</n1:defs>
<n1:g fill="none" stroke="black" stroke-width="1" fill-rule="evenodd" stroke-linecap="square" stroke-linejoin="bevel">

<n1:g fill="#000000" fill-opacity="1" stroke="none" transform="matrix(1,0,0,1,-650,-1219.96)" font-family="Sans" font-size="152.778" font-weight="400" font-style="normal">
<n1:rect x="650" y="1219.96" width="500" height="860.039"/>
</n1:g>

<n1:g fill="#00b400" fill-opacity="1" stroke="none" transform="matrix(1,0,0,1,-650,-1219.96)" font-family="Sans" font-size="152.778" font-weight="400" font-style="normal">
<n1:circle cx="750" cy="1700" r="32.5"/>
</n1:g>

<n1:g fill="#00b400" fill-opacity="1" stroke="none" transform="matrix(1,0,0,1,-650,-1219.96)" font-family="Sans" font-size="152.778" font-weight="400" font-style="normal">
<n1:circle cx="750" cy="1500" r="32.5"/>
</n1:g>

<n1:g fill="#00b400" fill-opacity="1" stroke="none" transform="matrix(1,0,0,1,-650,-1219.96)" font-family="Sans" font-size="152.778" font-weight="400" font-style="normal">
<n1:circle cx="750" cy="1400" r="32.5"/>
</n1:g>

<n1:g fill="#00b400" fill-opacity="1" stroke="#00b400" stroke-opacity="1" stroke-width="65" stroke-linecap="butt" stroke-linejoin="bevel" transform="matrix(1,0,0,1,-650,-1219.96)" font-family="Sans" font-size="152.778" font-weight="400" font-style="normal">
<n1:polyline fill="none" vector-effect="none" points="718,1300 782,1300 "/>
</n1:g>

<n1:g fill="#00b400" fill-opacity="1" stroke="none" transform="matrix(1,0,0,1,-650,-1219.96)" font-family="Sans" font-size="152.778" font-weight="400" font-style="normal">
<n1:circle cx="750" cy="1800" r="32.5"/>
</n1:g>

<n1:g fill="#00b400" fill-opacity="1" stroke="none" transform="matrix(1,0,0,1,-650,-1219.96)" font-family="Sans" font-size="152.778" font-weight="400" font-style="normal">
<n1:circle cx="750" cy="1900" r="32.5"/>
</n1:g>

<n1:g fill="#00b400" fill-opacity="1" stroke="none" transform="matrix(1,0,0,1,-650,-1219.96)" font-family="Sans" font-size="152.778" font-weight="400" font-style="normal">
<n1:circle cx="750" cy="2000" r="32.5"/>
</n1:g>

<n1:g fill="#00b400" fill-opacity="1" stroke="none" transform="matrix(1,0,0,1,-650,-1219.96)" font-family="Sans" font-size="152.778" font-weight="400" font-style="normal">
<n1:circle cx="750" cy="1600" r="32.5"/>
</n1:g>

<n1:g fill="#00b400" fill-opacity="1" stroke="none" transform="matrix(1,0,0,1,-650,-1219.96)" font-family="Sans" font-size="152.778" font-weight="400" font-style="normal">
<n1:circle cx="1050" cy="2000" r="32.5"/>
</n1:g>

<n1:g fill="#00b400" fill-opacity="1" stroke="none" transform="matrix(1,0,0,1,-650,-1219.96)" font-family="Sans" font-size="152.778" font-weight="400" font-style="normal">
<n1:circle cx="1050" cy="1900" r="32.5"/>
</n1:g>

<n1:g fill="#00b400" fill-opacity="1" stroke="none" transform="matrix(1,0,0,1,-650,-1219.96)" font-family="Sans" font-size="152.778" font-weight="400" font-style="normal">
<n1:circle cx="1050" cy="1700" r="32.5"/>
</n1:g>

<n1:g fill="#00b400" fill-opacity="1" stroke="none" transform="matrix(1,0,0,1,-650,-1219.96)" font-family="Sans" font-size="152.778" font-weight="400" font-style="normal">
<n1:circle cx="1050" cy="1600" r="32.5"/>
</n1:g>

<n1:g fill="#00b400" fill-opacity="1" stroke="none" transform="matrix(1,0,0,1,-650,-1219.96)" font-family="Sans" font-size="152.778" font-weight="400" font-style="normal">
<n1:circle cx="1050" cy="1500" r="32.5"/>
</n1:g>

<n1:g fill="#00b400" fill-opacity="1" stroke="none" transform="matrix(1,0,0,1,-650,-1219.96)" font-family="Sans" font-size="152.778" font-weight="400" font-style="normal">
<n1:circle cx="1050" cy="1800" r="32.5"/>
</n1:g>

<n1:g fill="#00b400" fill-opacity="1" stroke="none" transform="matrix(1,0,0,1,-650,-1219.96)" font-family="Sans" font-size="152.778" font-weight="400" font-style="normal">
<n1:circle cx="1050" cy="1300" r="32.5"/>
</n1:g>

<n1:g fill="#00b400" fill-opacity="1" stroke="none" transform="matrix(1,0,0,1,-650,-1219.96)" font-family="Sans" font-size="152.778" font-weight="400" font-style="normal">
<n1:circle cx="1050" cy="1400" r="32.5"/>
</n1:g>

<n1:g fill="#ff0000" fill-opacity="1" stroke="none" transform="matrix(1,0,0,1,-650,-1219.96)" font-family="Sans" font-size="152.778" font-weight="400" font-style="normal">
<n1:circle cx="750" cy="1700" r="32.5"/>
</n1:g>

<n1:g fill="#ff0000" fill-opacity="1" stroke="none" transform="matrix(1,0,0,1,-650,-1219.96)" font-family="Sans" font-size="152.778" font-weight="400" font-style="normal">
<n1:circle cx="750" cy="1500" r="32.5"/>
</n1:g>

<n1:g fill="#ff0000" fill-opacity="1" stroke="none" transform="matrix(1,0,0,1,-650,-1219.96)" font-family="Sans" font-size="152.778" font-weight="400" font-style="normal">
<n1:circle cx="750" cy="1400" r="32.5"/>
</n1:g>

<n1:g fill="#ff0000" fill-opacity="1" stroke="#ff0000" stroke-opacity="1" stroke-width="65" stroke-linecap="butt" stroke-linejoin="bevel" transform="matrix(1,0,0,1,-650,-1219.96)" font-family="Sans" font-size="152.778" font-weight="400" font-style="normal">
<n1:polyline fill="none" vector-effect="none" points="718,1300 782,1300 "/>
</n1:g>

<n1:g fill="#ff0000" fill-opacity="1" stroke="none" transform="matrix(1,0,0,1,-650,-1219.96)" font-family="Sans" font-size="152.778" font-weight="400" font-style="normal">
<n1:circle cx="750" cy="1800" r="32.5"/>
</n1:g>

<n1:g fill="#ff0000" fill-opacity="1" stroke="none" transform="matrix(1,0,0,1,-650,-1219.96)" font-family="Sans" font-size="152.778" font-weight="400" font-style="normal">
<n1:circle cx="750" cy="1900" r="32.5"/>
</n1:g>

<n1:g fill="#ff0000" fill-opacity="1" stroke="none" transform="matrix(1,0,0,1,-650,-1219.96)" font-family="Sans" font-size="152.778" font-weight="400" font-style="normal">
<n1:circle cx="750" cy="2000" r="32.5"/>
</n1:g>

<n1:g fill="#ff0000" fill-opacity="1" stroke="none" transform="matrix(1,0,0,1,-650,-1219.96)" font-family="Sans" font-size="152.778" font-weight="400" font-style="normal">
<n1:circle cx="750" cy="1600" r="32.5"/>
</n1:g>

<n1:g fill="#ff0000" fill-opacity="1" stroke="none" transform="matrix(1,0,0,1,-650,-1219.96)" font-family="Sans" font-size="152.778" font-weight="400" font-style="normal">
<n1:circle cx="1050" cy="2000" r="32.5"/>
</n1:g>

<n1:g fill="#ff0000" fill-opacity="1" stroke="none" transform="matrix(1,0,0,1,-650,-1219.96)" font-family="Sans" font-size="152.778" font-weight="400" font-style="normal">
<n1:circle cx="1050" cy="1900" r="32.5"/>
</n1:g>

<n1:g fill="#ff0000" fill-opacity="1" stroke="none" transform="matrix(1,0,0,1,-650,-1219.96)" font-family="Sans" font-size="152.778" font-weight="400" font-style="normal">
<n1:circle cx="1050" cy="1700" r="32.5"/>
</n1:g>

<n1:g fill="#ff0000" fill-opacity="1" stroke="none" transform="matrix(1,0,0,1,-650,-1219.96)" font-family="Sans" font-size="152.778" font-weight="400" font-style="normal">
<n1:circle cx="1050" cy="1600" r="32.5"/>
</n1:g>

<n1:g fill="#ff0000" fill-opacity="1" stroke="none" transform="matrix(1,0,0,1,-650,-1219.96)" font-family="Sans" font-size="152.778" font-weight="400" font-style="normal">
<n1:circle cx="1050" cy="1500" r="32.5"/>
</n1:g>

<n1:g fill="#ff0000" fill-opacity="1" stroke="none" transform="matrix(1,0,0,1,-650,-1219.96)" font-family="Sans" font-size="152.778" font-weight="400" font-style="normal">
<n1:circle cx="1050" cy="1800" r="32.5"/>
</n1:g>

<n1:g fill="#ff0000" fill-opacity="1" stroke="none" transform="matrix(1,0,0,1,-650,-1219.96)" font-family="Sans" font-size="152.778" font-weight="400" font-style="normal">
<n1:circle cx="1050" cy="1300" r="32.5"/>
</n1:g>

<n1:g fill="#ff0000" fill-opacity="1" stroke="none" transform="matrix(1,0,0,1,-650,-1219.96)" font-family="Sans" font-size="152.778" font-weight="400" font-style="normal">
<n1:circle cx="1050" cy="1400" r="32.5"/>
</n1:g>

<n1:g fill="#000000" fill-opacity="1" stroke="none" transform="matrix(1,0,0,1,-650,-1219.96)" font-family="Sans" font-size="152.778" font-weight="400" font-style="normal">
<n1:circle cx="750" cy="1700" r="20"/>
</n1:g>

<n1:g fill="#000000" fill-opacity="1" stroke="none" transform="matrix(1,0,0,1,-650,-1219.96)" font-family="Sans" font-size="152.778" font-weight="400" font-style="normal">
<n1:circle cx="750" cy="1500" r="20"/>
</n1:g>

<n1:g fill="#000000" fill-opacity="1" stroke="none" transform="matrix(1,0,0,1,-650,-1219.96)" font-family="Sans" font-size="152.778" font-weight="400" font-style="normal">
<n1:circle cx="750" cy="1400" r="20"/>
</n1:g>

<n1:g fill="#000000" fill-opacity="1" stroke="none" transform="matrix(1,0,0,1,-650,-1219.96)" font-family="Sans" font-size="152.778" font-weight="400" font-style="normal">
<n1:circle cx="750" cy="1300" r="20"/>
</n1:g>

<n1:g fill="#000000" fill-opacity="1" stroke="none" transform="matrix(1,0,0,1,-650,-1219.96)" font-family="Sans" font-size="152.778" font-weight="400" font-style="normal">
<n1:circle cx="750" cy="1800" r="20"/>
</n1:g>

<n1:g fill="#000000" fill-opacity="1" stroke="none" transform="matrix(1,0,0,1,-650,-1219.96)" font-family="Sans" font-size="152.778" font-weight="400" font-style="normal">
<n1:circle cx="750" cy="1900" r="20"/>
</n1:g>

<n1:g fill="#000000" fill-opacity="1" stroke="none" transform="matrix(1,0,0,1,-650,-1219.96)" font-family="Sans" font-size="152.778" font-weight="400" font-style="normal">
<n1:circle cx="750" cy="2000" r="20"/>
</n1:g>

<n1:g fill="#000000" fill-opacity="1" stroke="none" transform="matrix(1,0,0,1,-650,-1219.96)" font-family="Sans" font-size="152.778" font-weight="400" font-style="normal">
<n1:circle cx="750" cy="1600" r="20"/>
</n1:g>

<n1:g fill="#000000" fill-opacity="1" stroke="none" transform="matrix(1,0,0,1,-650,-1219.96)" font-family="Sans" font-size="152.778" font-weight="400" font-style="normal">
<n1:circle cx="1050" cy="2000" r="20"/>
</n1:g>

<n1:g fill="#000000" fill-opacity="1" stroke="none" transform="matrix(1,0,0,1,-650,-1219.96)" font-family="Sans" font-size="152.778" font-weight="400" font-style="normal">
<n1:circle cx="1050" cy="1900" r="20"/>
</n1:g>

<n1:g fill="#000000" fill-opacity="1" stroke="none" transform="matrix(1,0,0,1,-650,-1219.96)" font-family="Sans" font-size="152.778" font-weight="400" font-style="normal">
<n1:circle cx="1050" cy="1700" r="20"/>
</n1:g>

<n1:g fill="#000000" fill-opacity="1" stroke="none" transform="matrix(1,0,0,1,-650,-1219.96)" font-family="Sans" font-size="152.778" font-weight="400" font-style="normal">
<n1:circle cx="1050" cy="1600" r="20"/>
</n1:g>

<n1:g fill="#000000" fill-opacity="1" stroke="none" transform="matrix(1,0,0,1,-650,-1219.96)" font-family="Sans" font-size="152.778" font-weight="400" font-style="normal">
<n1:circle cx="1050" cy="1500" r="20"/>
</n1:g>

<n1:g fill="#000000" fill-opacity="1" stroke="none" transform="matrix(1,0,0,1,-650,-1219.96)" font-family="Sans" font-size="152.778" font-weight="400" font-style="normal">
<n1:circle cx="1050" cy="1800" r="20"/>
</n1:g>

<n1:g fill="#000000" fill-opacity="1" stroke="none" transform="matrix(1,0,0,1,-650,-1219.96)" font-family="Sans" font-size="152.778" font-weight="400" font-style="normal">
<n1:circle cx="1050" cy="1300" r="20"/>
</n1:g>

<n1:g fill="#000000" fill-opacity="1" stroke="none" transform="matrix(1,0,0,1,-650,-1219.96)" font-family="Sans" font-size="152.778" font-weight="400" font-style="normal">
<n1:circle cx="1050" cy="1400" r="20"/>
</n1:g>

<n1:g fill="none" stroke="#f0f000" stroke-opacity="1" stroke-width="10" stroke-linecap="round" stroke-linejoin="bevel" transform="matrix(1,0,0,1,-650,-1219.96)" font-family="Sans" font-size="152.778" font-weight="400" font-style="normal">
<n1:path vector-effect="none" fill-rule="evenodd" d="M850,1250 C850,1277.61 872.386,1300 900,1300 C927.614,1300 950,1277.61 950,1250 "/>
<n1:polyline fill="none" vector-effect="none" points="1100,1250 950,1250 "/>
<n1:polyline fill="none" vector-effect="none" points="1100,2050 1100,1250 "/>
<n1:polyline fill="none" vector-effect="none" points="700,2050 1100,2050 "/>
<n1:polyline fill="none" vector-effect="none" points="700,1250 700,2050 "/>
<n1:polyline fill="none" vector-effect="none" points="850,1250 700,1250 "/>
</n1:g>
</n1:g>
</svg>
