<?xml version="1.0" encoding="UTF-8"?>
<svg width="12.7mm" height="26.924mm" viewBox="0 0 500 1060.04" version="1.2" baseProfile="tiny" xmlns:n1="http://www.w3.org/2000/svg" xmlns:xlink="http://www.w3.org/1999/xlink" xmlns:cpcb="http://www.danielwagenaar.net/cpcb-ns.html">
  <cpcb:part pkg="dip-20" xmlns="http://www.danielwagenaar.net/cpcb-ns.html">
    <group ref="U?">
      <hole p="495300 596900" id="10160" od="16510" ref="5"/>
      <arc p="533400 482600" r="12700" lw="2540" l="1" ang="180" rota="90"/>
      <trace p1="584200 482600" p2="546100 482600" w="2540" l="1"/>
      <trace p1="584200 736600" p2="584200 482600" w="2540" l="1"/>
      <hole p="495300 546100" id="10160" od="16510" ref="3"/>
      <hole p="495300 520700" id="10160" od="16510" ref="2"/>
      <hole p="495300 495300" id="10160" od="16510" sq="1" ref="1"/>
      <hole p="495300 622300" id="10160" od="16510" ref="6"/>
      <hole p="495300 647700" id="10160" od="16510" ref="7"/>
      <hole p="495300 673100" id="10160" od="16510" ref="8"/>
      <hole p="495300 571500" id="10160" od="16510" ref="4"/>
      <trace p1="482600 736600" p2="584200 736600" w="2540" l="1"/>
      <trace p1="482600 482600" p2="482600 736600" w="2540" l="1"/>
      <trace p1="520700 482600" p2="482600 482600" w="2540" l="1"/>
      <hole p="495300 698500" id="10160" od="16510" ref="9"/>
      <hole p="495300 723900" id="10160" od="16510" ref="10"/>
      <hole p="571500 698500" id="10160" od="16510" ref="12"/>
      <hole p="571500 673100" id="10160" od="16510" ref="13"/>
      <hole p="571500 647700" id="10160" od="16510" ref="14"/>
      <hole p="571500 723900" id="10160" od="16510" ref="11"/>
      <hole p="571500 596900" id="10160" od="16510" ref="16"/>
      <hole p="571500 622300" id="10160" od="16510" ref="15"/>
      <hole p="571500 520700" id="10160" od="16510" ref="19"/>
      <hole p="571500 495300" id="10160" od="16510" ref="20"/>
      <hole p="571500 571500" id="10160" od="16510" ref="17"/>
      <hole p="571500 546100" id="10160" od="16510" ref="18"/>
    </group>
    <text p="481330 468630" fs="12700" l="1" rot="0" text="U?"/>
  </cpcb:part>
<n1:title>PCB Component</n1:title>
<n1:desc>Generated by CPCB</n1:desc>
<n1:defs>
</n1:defs>
<n1:g fill="none" stroke="black" stroke-width="1" fill-rule="evenodd" stroke-linecap="square" stroke-linejoin="bevel">

<n1:g fill="#000000" fill-opacity="1" stroke="none" transform="matrix(1,0,0,1,-1850,-1869.96)" font-family="Sans" font-size="152.778" font-weight="400" font-style="normal">
<n1:rect x="1850" y="1869.96" width="500" height="1060.04"/>
</n1:g>

<n1:g fill="#00b400" fill-opacity="1" stroke="none" transform="matrix(1,0,0,1,-1850,-1869.96)" font-family="Sans" font-size="152.778" font-weight="400" font-style="normal">
<n1:circle cx="1950" cy="2350" r="32.5"/>
</n1:g>

<n1:g fill="#00b400" fill-opacity="1" stroke="none" transform="matrix(1,0,0,1,-1850,-1869.96)" font-family="Sans" font-size="152.778" font-weight="400" font-style="normal">
<n1:circle cx="1950" cy="2150" r="32.5"/>
</n1:g>

<n1:g fill="#00b400" fill-opacity="1" stroke="none" transform="matrix(1,0,0,1,-1850,-1869.96)" font-family="Sans" font-size="152.778" font-weight="400" font-style="normal">
<n1:circle cx="1950" cy="2050" r="32.5"/>
</n1:g>

<n1:g fill="#00b400" fill-opacity="1" stroke="#00b400" stroke-opacity="1" stroke-width="65" stroke-linecap="butt" stroke-linejoin="bevel" transform="matrix(1,0,0,1,-1850,-1869.96)" font-family="Sans" font-size="152.778" font-weight="400" font-style="normal">
<n1:polyline fill="none" vector-effect="none" points="1918,1950 1982,1950 "/>
</n1:g>

<n1:g fill="#00b400" fill-opacity="1" stroke="none" transform="matrix(1,0,0,1,-1850,-1869.96)" font-family="Sans" font-size="152.778" font-weight="400" font-style="normal">
<n1:circle cx="1950" cy="2450" r="32.5"/>
</n1:g>

<n1:g fill="#00b400" fill-opacity="1" stroke="none" transform="matrix(1,0,0,1,-1850,-1869.96)" font-family="Sans" font-size="152.778" font-weight="400" font-style="normal">
<n1:circle cx="1950" cy="2550" r="32.5"/>
</n1:g>

<n1:g fill="#00b400" fill-opacity="1" stroke="none" transform="matrix(1,0,0,1,-1850,-1869.96)" font-family="Sans" font-size="152.778" font-weight="400" font-style="normal">
<n1:circle cx="1950" cy="2650" r="32.5"/>
</n1:g>

<n1:g fill="#00b400" fill-opacity="1" stroke="none" transform="matrix(1,0,0,1,-1850,-1869.96)" font-family="Sans" font-size="152.778" font-weight="400" font-style="normal">
<n1:circle cx="1950" cy="2250" r="32.5"/>
</n1:g>

<n1:g fill="#00b400" fill-opacity="1" stroke="none" transform="matrix(1,0,0,1,-1850,-1869.96)" font-family="Sans" font-size="152.778" font-weight="400" font-style="normal">
<n1:circle cx="1950" cy="2750" r="32.5"/>
</n1:g>

<n1:g fill="#00b400" fill-opacity="1" stroke="none" transform="matrix(1,0,0,1,-1850,-1869.96)" font-family="Sans" font-size="152.778" font-weight="400" font-style="normal">
<n1:circle cx="1950" cy="2850" r="32.5"/>
</n1:g>

<n1:g fill="#00b400" fill-opacity="1" stroke="none" transform="matrix(1,0,0,1,-1850,-1869.96)" font-family="Sans" font-size="152.778" font-weight="400" font-style="normal">
<n1:circle cx="2250" cy="2750" r="32.5"/>
</n1:g>

<n1:g fill="#00b400" fill-opacity="1" stroke="none" transform="matrix(1,0,0,1,-1850,-1869.96)" font-family="Sans" font-size="152.778" font-weight="400" font-style="normal">
<n1:circle cx="2250" cy="2650" r="32.5"/>
</n1:g>

<n1:g fill="#00b400" fill-opacity="1" stroke="none" transform="matrix(1,0,0,1,-1850,-1869.96)" font-family="Sans" font-size="152.778" font-weight="400" font-style="normal">
<n1:circle cx="2250" cy="2550" r="32.5"/>
</n1:g>

<n1:g fill="#00b400" fill-opacity="1" stroke="none" transform="matrix(1,0,0,1,-1850,-1869.96)" font-family="Sans" font-size="152.778" font-weight="400" font-style="normal">
<n1:circle cx="2250" cy="2850" r="32.5"/>
</n1:g>

<n1:g fill="#00b400" fill-opacity="1" stroke="none" transform="matrix(1,0,0,1,-1850,-1869.96)" font-family="Sans" font-size="152.778" font-weight="400" font-style="normal">
<n1:circle cx="2250" cy="2350" r="32.5"/>
</n1:g>

<n1:g fill="#00b400" fill-opacity="1" stroke="none" transform="matrix(1,0,0,1,-1850,-1869.96)" font-family="Sans" font-size="152.778" font-weight="400" font-style="normal">
<n1:circle cx="2250" cy="2450" r="32.5"/>
</n1:g>

<n1:g fill="#00b400" fill-opacity="1" stroke="none" transform="matrix(1,0,0,1,-1850,-1869.96)" font-family="Sans" font-size="152.778" font-weight="400" font-style="normal">
<n1:circle cx="2250" cy="2050" r="32.5"/>
</n1:g>

<n1:g fill="#00b400" fill-opacity="1" stroke="none" transform="matrix(1,0,0,1,-1850,-1869.96)" font-family="Sans" font-size="152.778" font-weight="400" font-style="normal">
<n1:circle cx="2250" cy="1950" r="32.5"/>
</n1:g>

<n1:g fill="#00b400" fill-opacity="1" stroke="none" transform="matrix(1,0,0,1,-1850,-1869.96)" font-family="Sans" font-size="152.778" font-weight="400" font-style="normal">
<n1:circle cx="2250" cy="2250" r="32.5"/>
</n1:g>

<n1:g fill="#00b400" fill-opacity="1" stroke="none" transform="matrix(1,0,0,1,-1850,-1869.96)" font-family="Sans" font-size="152.778" font-weight="400" font-style="normal">
<n1:circle cx="2250" cy="2150" r="32.5"/>
</n1:g>

<n1:g fill="#ff0000" fill-opacity="1" stroke="none" transform="matrix(1,0,0,1,-1850,-1869.96)" font-family="Sans" font-size="152.778" font-weight="400" font-style="normal">
<n1:circle cx="1950" cy="2350" r="32.5"/>
</n1:g>

<n1:g fill="#ff0000" fill-opacity="1" stroke="none" transform="matrix(1,0,0,1,-1850,-1869.96)" font-family="Sans" font-size="152.778" font-weight="400" font-style="normal">
<n1:circle cx="1950" cy="2150" r="32.5"/>
</n1:g>

<n1:g fill="#ff0000" fill-opacity="1" stroke="none" transform="matrix(1,0,0,1,-1850,-1869.96)" font-family="Sans" font-size="152.778" font-weight="400" font-style="normal">
<n1:circle cx="1950" cy="2050" r="32.5"/>
</n1:g>

<n1:g fill="#ff0000" fill-opacity="1" stroke="#ff0000" stroke-opacity="1" stroke-width="65" stroke-linecap="butt" stroke-linejoin="bevel" transform="matrix(1,0,0,1,-1850,-1869.96)" font-family="Sans" font-size="152.778" font-weight="400" font-style="normal">
<n1:polyline fill="none" vector-effect="none" points="1918,1950 1982,1950 "/>
</n1:g>

<n1:g fill="#ff0000" fill-opacity="1" stroke="none" transform="matrix(1,0,0,1,-1850,-1869.96)" font-family="Sans" font-size="152.778" font-weight="400" font-style="normal">
<n1:circle cx="1950" cy="2450" r="32.5"/>
</n1:g>

<n1:g fill="#ff0000" fill-opacity="1" stroke="none" transform="matrix(1,0,0,1,-1850,-1869.96)" font-family="Sans" font-size="152.778" font-weight="400" font-style="normal">
<n1:circle cx="1950" cy="2550" r="32.5"/>
</n1:g>

<n1:g fill="#ff0000" fill-opacity="1" stroke="none" transform="matrix(1,0,0,1,-1850,-1869.96)" font-family="Sans" font-size="152.778" font-weight="400" font-style="normal">
<n1:circle cx="1950" cy="2650" r="32.5"/>
</n1:g>

<n1:g fill="#ff0000" fill-opacity="1" stroke="none" transform="matrix(1,0,0,1,-1850,-1869.96)" font-family="Sans" font-size="152.778" font-weight="400" font-style="normal">
<n1:circle cx="1950" cy="2250" r="32.5"/>
</n1:g>

<n1:g fill="#ff0000" fill-opacity="1" stroke="none" transform="matrix(1,0,0,1,-1850,-1869.96)" font-family="Sans" font-size="152.778" font-weight="400" font-style="normal">
<n1:circle cx="1950" cy="2750" r="32.5"/>
</n1:g>

<n1:g fill="#ff0000" fill-opacity="1" stroke="none" transform="matrix(1,0,0,1,-1850,-1869.96)" font-family="Sans" font-size="152.778" font-weight="400" font-style="normal">
<n1:circle cx="1950" cy="2850" r="32.5"/>
</n1:g>

<n1:g fill="#ff0000" fill-opacity="1" stroke="none" transform="matrix(1,0,0,1,-1850,-1869.96)" font-family="Sans" font-size="152.778" font-weight="400" font-style="normal">
<n1:circle cx="2250" cy="2750" r="32.5"/>
</n1:g>

<n1:g fill="#ff0000" fill-opacity="1" stroke="none" transform="matrix(1,0,0,1,-1850,-1869.96)" font-family="Sans" font-size="152.778" font-weight="400" font-style="normal">
<n1:circle cx="2250" cy="2650" r="32.5"/>
</n1:g>

<n1:g fill="#ff0000" fill-opacity="1" stroke="none" transform="matrix(1,0,0,1,-1850,-1869.96)" font-family="Sans" font-size="152.778" font-weight="400" font-style="normal">
<n1:circle cx="2250" cy="2550" r="32.5"/>
</n1:g>

<n1:g fill="#ff0000" fill-opacity="1" stroke="none" transform="matrix(1,0,0,1,-1850,-1869.96)" font-family="Sans" font-size="152.778" font-weight="400" font-style="normal">
<n1:circle cx="2250" cy="2850" r="32.5"/>
</n1:g>

<n1:g fill="#ff0000" fill-opacity="1" stroke="none" transform="matrix(1,0,0,1,-1850,-1869.96)" font-family="Sans" font-size="152.778" font-weight="400" font-style="normal">
<n1:circle cx="2250" cy="2350" r="32.5"/>
</n1:g>

<n1:g fill="#ff0000" fill-opacity="1" stroke="none" transform="matrix(1,0,0,1,-1850,-1869.96)" font-family="Sans" font-size="152.778" font-weight="400" font-style="normal">
<n1:circle cx="2250" cy="2450" r="32.5"/>
</n1:g>

<n1:g fill="#ff0000" fill-opacity="1" stroke="none" transform="matrix(1,0,0,1,-1850,-1869.96)" font-family="Sans" font-size="152.778" font-weight="400" font-style="normal">
<n1:circle cx="2250" cy="2050" r="32.5"/>
</n1:g>

<n1:g fill="#ff0000" fill-opacity="1" stroke="none" transform="matrix(1,0,0,1,-1850,-1869.96)" font-family="Sans" font-size="152.778" font-weight="400" font-style="normal">
<n1:circle cx="2250" cy="1950" r="32.5"/>
</n1:g>

<n1:g fill="#ff0000" fill-opacity="1" stroke="none" transform="matrix(1,0,0,1,-1850,-1869.96)" font-family="Sans" font-size="152.778" font-weight="400" font-style="normal">
<n1:circle cx="2250" cy="2250" r="32.5"/>
</n1:g>

<n1:g fill="#ff0000" fill-opacity="1" stroke="none" transform="matrix(1,0,0,1,-1850,-1869.96)" font-family="Sans" font-size="152.778" font-weight="400" font-style="normal">
<n1:circle cx="2250" cy="2150" r="32.5"/>
</n1:g>

<n1:g fill="#ffffff" fill-opacity="1" stroke="none" transform="matrix(1,0,0,1,-1850,-1869.96)" font-family="Sans" font-size="152.778" font-weight="400" font-style="normal">
<n1:circle cx="1950" cy="2350" r="20"/>
</n1:g>

<n1:g fill="#ffffff" fill-opacity="1" stroke="none" transform="matrix(1,0,0,1,-1850,-1869.96)" font-family="Sans" font-size="152.778" font-weight="400" font-style="normal">
<n1:circle cx="1950" cy="2150" r="20"/>
</n1:g>

<n1:g fill="#ffffff" fill-opacity="1" stroke="none" transform="matrix(1,0,0,1,-1850,-1869.96)" font-family="Sans" font-size="152.778" font-weight="400" font-style="normal">
<n1:circle cx="1950" cy="2050" r="20"/>
</n1:g>

<n1:g fill="#ffffff" fill-opacity="1" stroke="none" transform="matrix(1,0,0,1,-1850,-1869.96)" font-family="Sans" font-size="152.778" font-weight="400" font-style="normal">
<n1:circle cx="1950" cy="1950" r="20"/>
</n1:g>

<n1:g fill="#ffffff" fill-opacity="1" stroke="none" transform="matrix(1,0,0,1,-1850,-1869.96)" font-family="Sans" font-size="152.778" font-weight="400" font-style="normal">
<n1:circle cx="1950" cy="2450" r="20"/>
</n1:g>

<n1:g fill="#ffffff" fill-opacity="1" stroke="none" transform="matrix(1,0,0,1,-1850,-1869.96)" font-family="Sans" font-size="152.778" font-weight="400" font-style="normal">
<n1:circle cx="1950" cy="2550" r="20"/>
</n1:g>

<n1:g fill="#ffffff" fill-opacity="1" stroke="none" transform="matrix(1,0,0,1,-1850,-1869.96)" font-family="Sans" font-size="152.778" font-weight="400" font-style="normal">
<n1:circle cx="1950" cy="2650" r="20"/>
</n1:g>

<n1:g fill="#ffffff" fill-opacity="1" stroke="none" transform="matrix(1,0,0,1,-1850,-1869.96)" font-family="Sans" font-size="152.778" font-weight="400" font-style="normal">
<n1:circle cx="1950" cy="2250" r="20"/>
</n1:g>

<n1:g fill="#ffffff" fill-opacity="1" stroke="none" transform="matrix(1,0,0,1,-1850,-1869.96)" font-family="Sans" font-size="152.778" font-weight="400" font-style="normal">
<n1:circle cx="1950" cy="2750" r="20"/>
</n1:g>

<n1:g fill="#ffffff" fill-opacity="1" stroke="none" transform="matrix(1,0,0,1,-1850,-1869.96)" font-family="Sans" font-size="152.778" font-weight="400" font-style="normal">
<n1:circle cx="1950" cy="2850" r="20"/>
</n1:g>

<n1:g fill="#ffffff" fill-opacity="1" stroke="none" transform="matrix(1,0,0,1,-1850,-1869.96)" font-family="Sans" font-size="152.778" font-weight="400" font-style="normal">
<n1:circle cx="2250" cy="2750" r="20"/>
</n1:g>

<n1:g fill="#ffffff" fill-opacity="1" stroke="none" transform="matrix(1,0,0,1,-1850,-1869.96)" font-family="Sans" font-size="152.778" font-weight="400" font-style="normal">
<n1:circle cx="2250" cy="2650" r="20"/>
</n1:g>

<n1:g fill="#ffffff" fill-opacity="1" stroke="none" transform="matrix(1,0,0,1,-1850,-1869.96)" font-family="Sans" font-size="152.778" font-weight="400" font-style="normal">
<n1:circle cx="2250" cy="2550" r="20"/>
</n1:g>

<n1:g fill="#ffffff" fill-opacity="1" stroke="none" transform="matrix(1,0,0,1,-1850,-1869.96)" font-family="Sans" font-size="152.778" font-weight="400" font-style="normal">
<n1:circle cx="2250" cy="2850" r="20"/>
</n1:g>

<n1:g fill="#ffffff" fill-opacity="1" stroke="none" transform="matrix(1,0,0,1,-1850,-1869.96)" font-family="Sans" font-size="152.778" font-weight="400" font-style="normal">
<n1:circle cx="2250" cy="2350" r="20"/>
</n1:g>

<n1:g fill="#ffffff" fill-opacity="1" stroke="none" transform="matrix(1,0,0,1,-1850,-1869.96)" font-family="Sans" font-size="152.778" font-weight="400" font-style="normal">
<n1:circle cx="2250" cy="2450" r="20"/>
</n1:g>

<n1:g fill="#ffffff" fill-opacity="1" stroke="none" transform="matrix(1,0,0,1,-1850,-1869.96)" font-family="Sans" font-size="152.778" font-weight="400" font-style="normal">
<n1:circle cx="2250" cy="2050" r="20"/>
</n1:g>

<n1:g fill="#ffffff" fill-opacity="1" stroke="none" transform="matrix(1,0,0,1,-1850,-1869.96)" font-family="Sans" font-size="152.778" font-weight="400" font-style="normal">
<n1:circle cx="2250" cy="1950" r="20"/>
</n1:g>

<n1:g fill="#ffffff" fill-opacity="1" stroke="none" transform="matrix(1,0,0,1,-1850,-1869.96)" font-family="Sans" font-size="152.778" font-weight="400" font-style="normal">
<n1:circle cx="2250" cy="2250" r="20"/>
</n1:g>

<n1:g fill="#ffffff" fill-opacity="1" stroke="none" transform="matrix(1,0,0,1,-1850,-1869.96)" font-family="Sans" font-size="152.778" font-weight="400" font-style="normal">
<n1:circle cx="2250" cy="2150" r="20"/>
</n1:g>

<n1:g fill="none" stroke="#f0f000" stroke-opacity="1" stroke-width="10" stroke-linecap="round" stroke-linejoin="bevel" transform="matrix(1,0,0,1,-1850,-1869.96)" font-family="Sans" font-size="152.778" font-weight="400" font-style="normal">
<n1:path vector-effect="none" fill-rule="evenodd" d="M2050,1900 C2050,1927.61 2072.39,1950 2100,1950 C2127.61,1950 2150,1927.61 2150,1900 "/>
<n1:polyline fill="none" vector-effect="none" points="2300,1900 2150,1900 "/>
<n1:polyline fill="none" vector-effect="none" points="2300,2900 2300,1900 "/>
<n1:polyline fill="none" vector-effect="none" points="1900,2900 2300,2900 "/>
<n1:polyline fill="none" vector-effect="none" points="1900,1900 1900,2900 "/>
<n1:polyline fill="none" vector-effect="none" points="2050,1900 1900,1900 "/>
</n1:g>
</n1:g>
</svg>
