<?xml version="1.0" encoding="UTF-8"?>
<svg width="76.2mm" height="76.2mm" viewBox="0 0 300 300" version="1.2" baseProfile="tiny" xmlns:n1="http://www.w3.org/2000/svg" xmlns:xlink="http://www.w3.org/1999/xlink" xmlns:cpcb="http://www.danielwagenaar.net/cpcb-ns.html">
  <cpcb:part pkg="SC70" xmlns="http://www.danielwagenaar.net/cpcb-ns.html">
    <group ref="U?" pkg="SC70">
      <trace p1="531000 1374000" p2="531000 1353000" w="2540" l="1"/>
      <trace p1="531000 1353000" p2="516000 1353000" w="2540" l="1"/>
      <trace p1="516000 1353000" p2="516000 1374000" w="2540" l="1"/>
      <trace p1="516000 1374000" p2="531000 1374000" w="2540" l="1"/>
      <pad p="535000 1370000" w="9500" h="4000" l="2" ref="1"/>
      <pad p="535000 1357000" w="9500" h="4000" l="2" ref="3"/>
      <pad p="513000 1370000" w="9500" h="4000" l="2" ref="5"/>
      <arc p="527000 1370000" r="1250" lw="2540" l="1" ang="360" rota="90"/>
      <pad p="535000 1363500" w="9500" h="4000" l="2" ref="2"/>
      <pad p="513000 1357000" w="9500" h="4000" l="2" ref="4"/>
    </group>
    <text p="521047 1345583" fs="9000" l="1" rot="0" text="U?"/>
  </cpcb:part>
<n1:title>PCB Component</n1:title>
<n1:desc>Generated by CPCB</n1:desc>
<n1:defs>
</n1:defs>
<n1:g fill="none" stroke="black" stroke-width="1" fill-rule="evenodd" stroke-linecap="square" stroke-linejoin="bevel">

<n1:g fill="#000000" fill-opacity="1" stroke="none" transform="matrix(1,0,0,1,-1912.99,-5218.11)" font-family="Noto Sans" font-size="152.778" font-weight="400" font-style="normal">
<n1:rect x="1912.99" y="5218.11" width="300" height="300"/>
</n1:g>

<n1:g fill="#ff0000" fill-opacity="1" stroke="none" transform="matrix(1,0,0,1,-1912.99,-5218.11)" font-family="Noto Sans" font-size="152.778" font-weight="400" font-style="normal">
<n1:rect x="2087.6" y="5385.83" width="37.4016" height="15.748"/>
<n1:rect x="2087.6" y="5334.65" width="37.4016" height="15.748"/>
<n1:rect x="2000.98" y="5385.83" width="37.4016" height="15.748"/>
<n1:rect x="2087.6" y="5360.24" width="37.4016" height="15.748"/>
<n1:rect x="2000.98" y="5334.65" width="37.4016" height="15.748"/>
</n1:g>

<n1:g fill="#ff0000" fill-opacity="1" stroke="#f0f000" stroke-opacity="1" stroke-width="10" stroke-linecap="round" stroke-linejoin="bevel" transform="matrix(1,0,0,1,-1912.99,-5218.11)" font-family="Noto Sans" font-size="152.778" font-weight="400" font-style="normal">
<n1:polyline fill="none" vector-effect="none" points="2090.55,5409.45 2090.55,5326.77 "/>
<n1:polyline fill="none" vector-effect="none" points="2090.55,5326.77 2031.5,5326.77 "/>
<n1:polyline fill="none" vector-effect="none" points="2031.5,5326.77 2031.5,5409.45 "/>
<n1:polyline fill="none" vector-effect="none" points="2031.5,5409.45 2090.55,5409.45 "/>
</n1:g>

<n1:g fill="none" stroke="#f0f000" stroke-opacity="1" stroke-width="10" stroke-linecap="round" stroke-linejoin="bevel" transform="matrix(1,0,0,1,-1912.99,-5218.11)" font-family="Noto Sans" font-size="152.778" font-weight="400" font-style="normal">
<n1:path vector-effect="none" fill-rule="evenodd" d="M2079.72,5393.7 C2079.72,5390.98 2077.52,5388.78 2074.8,5388.78 C2072.09,5388.78 2069.88,5390.98 2069.88,5393.7 C2069.88,5396.42 2072.09,5398.62 2074.8,5398.62 C2077.52,5398.62 2079.72,5396.42 2079.72,5393.7 "/>
</n1:g>
</n1:g>
</svg>
