<?xml version="1.0" encoding="UTF-8"?>
<svg width="76.2mm" height="76.2mm" viewBox="0 0 300 300" version="1.2" baseProfile="tiny" xmlns:n1="http://www.w3.org/2000/svg" xmlns:xlink="http://www.w3.org/1999/xlink" xmlns:cpcb="http://www.danielwagenaar.net/cpcb-ns.html">
  <cpcb:part pkg="SOT-23-5" partno="DW03C" catno="C42380663" xmlns="http://www.danielwagenaar.net/cpcb-ns.html">
    <group ref="U1" pkg="SOT-23-5" partno="DW03C" catno="C42380663" nomrot="270">
      <trace p1="410000 450000" p2="410000 477000" w="2540" l="1"/>
      <trace p1="410000 477000" p2="420000 477000" w="2540" l="1"/>
      <trace p1="420000 477000" p2="420000 450000" w="2540" l="1"/>
      <trace p1="420000 450000" p2="410000 450000" w="2540" l="1"/>
      <pad p="405000 454000" w="12000" h="5000" l="2" ref="1"/>
      <pad p="405000 473000" w="12000" h="5000" l="2" ref="3"/>
      <pad p="425000 454000" w="12000" h="5000" l="2" ref="5"/>
      <arc p="414000 454000" r="1250" lw="2540" l="1" ang="360" rota="270"/>
      <pad p="405000 463500" w="12000" h="5000" l="2" ref="2"/>
      <pad p="425000 473000" w="12000" h="5000" l="2" ref="4"/>
    </group>
    <text p="408443 490403" fs="9000" l="1" rot="0" text="U1"/>
  </cpcb:part>
<n1:title>PCB Component</n1:title>
<n1:desc>Generated by CPCB</n1:desc>
<n1:defs>
</n1:defs>
<n1:g fill="none" stroke="black" stroke-width="1" fill-rule="evenodd" stroke-linecap="square" stroke-linejoin="bevel">

<n1:g fill="#000000" fill-opacity="1" stroke="none" transform="matrix(1,0,0,1,-1483.86,-1674.8)" font-family="Sans" font-size="152.778" font-weight="400" font-style="normal">
<n1:rect x="1483.86" y="1674.8" width="300" height="300"/>
</n1:g>

<n1:g fill="#ff0000" fill-opacity="1" stroke="none" transform="matrix(1,0,0,1,-1483.86,-1674.8)" font-family="Sans" font-size="152.778" font-weight="400" font-style="normal">
<n1:rect x="1570.87" y="1777.56" width="47.2441" height="19.685"/>
</n1:g>

<n1:g fill="#ff0000" fill-opacity="1" stroke="none" transform="matrix(1,0,0,1,-1483.86,-1674.8)" font-family="Sans" font-size="152.778" font-weight="400" font-style="normal">
<n1:rect x="1570.87" y="1852.36" width="47.2441" height="19.685"/>
</n1:g>

<n1:g fill="#ff0000" fill-opacity="1" stroke="none" transform="matrix(1,0,0,1,-1483.86,-1674.8)" font-family="Sans" font-size="152.778" font-weight="400" font-style="normal">
<n1:rect x="1649.61" y="1777.56" width="47.2441" height="19.685"/>
</n1:g>

<n1:g fill="#ff0000" fill-opacity="1" stroke="none" transform="matrix(1,0,0,1,-1483.86,-1674.8)" font-family="Sans" font-size="152.778" font-weight="400" font-style="normal">
<n1:rect x="1570.87" y="1814.96" width="47.2441" height="19.685"/>
</n1:g>

<n1:g fill="#ff0000" fill-opacity="1" stroke="none" transform="matrix(1,0,0,1,-1483.86,-1674.8)" font-family="Sans" font-size="152.778" font-weight="400" font-style="normal">
<n1:rect x="1649.61" y="1852.36" width="47.2441" height="19.685"/>
</n1:g>

<n1:g fill="#ff0000" fill-opacity="1" stroke="#f0f000" stroke-opacity="1" stroke-width="10" stroke-linecap="round" stroke-linejoin="bevel" transform="matrix(1,0,0,1,-1483.86,-1674.8)" font-family="Sans" font-size="152.778" font-weight="400" font-style="normal">
<n1:polyline fill="none" vector-effect="none" points="1614.17,1771.65 1614.17,1877.95 "/>
<n1:polyline fill="none" vector-effect="none" points="1614.17,1877.95 1653.54,1877.95 "/>
<n1:polyline fill="none" vector-effect="none" points="1653.54,1877.95 1653.54,1771.65 "/>
<n1:polyline fill="none" vector-effect="none" points="1653.54,1771.65 1614.17,1771.65 "/>
</n1:g>

<n1:g fill="none" stroke="#f0f000" stroke-opacity="1" stroke-width="10" stroke-linecap="round" stroke-linejoin="bevel" transform="matrix(1,0,0,1,-1483.86,-1674.8)" font-family="Sans" font-size="152.778" font-weight="400" font-style="normal">
<n1:path vector-effect="none" fill-rule="evenodd" d="M1625,1787.4 C1625,1790.12 1627.2,1792.32 1629.92,1792.32 C1632.64,1792.32 1634.84,1790.12 1634.84,1787.4 C1634.84,1784.68 1632.64,1782.48 1629.92,1782.48 C1627.2,1782.48 1625,1784.68 1625,1787.4 "/>
</n1:g>
</n1:g>
</svg>
