<?xml version="1.0" encoding="UTF-8"?>
<svg width="76.2mm" height="76.2mm" viewBox="0 0 300 300" version="1.2" baseProfile="tiny" xmlns:n1="http://www.w3.org/2000/svg" xmlns:xlink="http://www.w3.org/1999/xlink" xmlns:cpcb="http://www.danielwagenaar.net/cpcb-ns.html">
  <cpcb:part pkg="SOT23-5" catno="FIN1002M5XCT-ND" xmlns="http://www.danielwagenaar.net/cpcb-ns.html">
    <group ref="U6" pkg="SOT23-5" catno="FIN1002M5XCT-ND" nomrot="-270">
      <trace p1="982956 469290" p2="955956 469290" w="2540" l="1"/>
      <trace p1="955956 469290" p2="955956 479290" w="2540" l="1"/>
      <trace p1="955956 479290" p2="982956 479290" w="2540" l="1"/>
      <trace p1="982956 479290" p2="982956 469290" w="2540" l="1"/>
      <pad p="978956 464290" w="5000" h="12000" l="2" ref="1"/>
      <pad p="959956 464290" w="5000" h="12000" l="2" ref="3"/>
      <pad p="978956 484290" w="5000" h="12000" l="2" ref="5"/>
      <arc p="978956 473290" r="1250" lw="2540" l="1" ang="360" rota="0"/>
      <pad p="969456 464290" w="5000" h="12000" l="2" ref="2"/>
      <pad p="959956 484290" w="5000" h="12000" l="2" ref="4"/>
    </group>
    <text p="923266 476306" fs="12700" l="1" rot="0" text="U6"/>
  </cpcb:part>
<n1:title>PCB Component</n1:title>
<n1:desc>Generated by CPCB</n1:desc>
<n1:defs>
</n1:defs>
<n1:g fill="none" stroke="black" stroke-width="1" fill-rule="evenodd" stroke-linecap="square" stroke-linejoin="bevel">

<n1:g fill="#000000" fill-opacity="1" stroke="none" transform="matrix(1,0,0,1,-3666.76,-1717.28)" font-family="Noto Sans, " font-size="152.778" font-weight="400" font-style="normal">
<n1:rect x="3666.76" y="1717.28" width="300" height="300"/>
</n1:g>

<n1:g fill="#ff0000" fill-opacity="1" stroke="none" transform="matrix(1,0,0,1,-3666.76,-1717.28)" font-family="Noto Sans, " font-size="152.778" font-weight="400" font-style="normal">
<n1:rect x="3844.31" y="1804.29" width="19.685" height="47.2441"/>
</n1:g>

<n1:g fill="#ff0000" fill-opacity="1" stroke="none" transform="matrix(1,0,0,1,-3666.76,-1717.28)" font-family="Noto Sans, " font-size="152.778" font-weight="400" font-style="normal">
<n1:rect x="3769.51" y="1804.29" width="19.685" height="47.2441"/>
</n1:g>

<n1:g fill="#ff0000" fill-opacity="1" stroke="none" transform="matrix(1,0,0,1,-3666.76,-1717.28)" font-family="Noto Sans, " font-size="152.778" font-weight="400" font-style="normal">
<n1:rect x="3844.31" y="1883.03" width="19.685" height="47.2441"/>
</n1:g>

<n1:g fill="#ff0000" fill-opacity="1" stroke="none" transform="matrix(1,0,0,1,-3666.76,-1717.28)" font-family="Noto Sans, " font-size="152.778" font-weight="400" font-style="normal">
<n1:rect x="3806.91" y="1804.29" width="19.685" height="47.2441"/>
</n1:g>

<n1:g fill="#ff0000" fill-opacity="1" stroke="none" transform="matrix(1,0,0,1,-3666.76,-1717.28)" font-family="Noto Sans, " font-size="152.778" font-weight="400" font-style="normal">
<n1:rect x="3769.51" y="1883.03" width="19.685" height="47.2441"/>
</n1:g>

<n1:g fill="#ff0000" fill-opacity="1" stroke="#f0f000" stroke-opacity="1" stroke-width="10" stroke-linecap="round" stroke-linejoin="bevel" transform="matrix(1,0,0,1,-3666.76,-1717.28)" font-family="Noto Sans, " font-size="152.778" font-weight="400" font-style="normal">
<n1:polyline fill="none" vector-effect="none" points="3869.91,1847.6 3763.61,1847.6 "/>
<n1:polyline fill="none" vector-effect="none" points="3763.61,1847.6 3763.61,1886.97 "/>
<n1:polyline fill="none" vector-effect="none" points="3763.61,1886.97 3869.91,1886.97 "/>
<n1:polyline fill="none" vector-effect="none" points="3869.91,1886.97 3869.91,1847.6 "/>
</n1:g>

<n1:g fill="none" stroke="#f0f000" stroke-opacity="1" stroke-width="10" stroke-linecap="round" stroke-linejoin="bevel" transform="matrix(1,0,0,1,-3666.76,-1717.28)" font-family="Noto Sans, " font-size="152.778" font-weight="400" font-style="normal">
<n1:path vector-effect="none" fill-rule="evenodd" d="M3854.16,1858.43 C3851.44,1858.43 3849.24,1860.63 3849.24,1863.35 C3849.24,1866.06 3851.44,1868.27 3854.16,1868.27 C3856.88,1868.27 3859.08,1866.06 3859.08,1863.35 C3859.08,1860.63 3856.88,1858.43 3854.16,1858.43 "/>
</n1:g>
</n1:g>
</svg>
