<?xml version="1.0" encoding="UTF-8"?>
<svg width="12.7mm" height="12.7mm" viewBox="0 0 500 500" version="1.2" baseProfile="tiny" xmlns:n1="http://www.w3.org/2000/svg" xmlns:xlink="http://www.w3.org/1999/xlink" xmlns:cpcb="http://www.danielwagenaar.net/cpcb-ns.html">
  <cpcb:part pkg="SOT23-6" xmlns="http://www.danielwagenaar.net/cpcb-ns.html">
    <group ref="U?" pkg="SOT23-6" nomrot="0">
      <trace p1="241036 336764" p2="241036 309764" w="2540" l="1"/>
      <trace p1="241036 309764" p2="231036 309764" w="2540" l="1"/>
      <trace p1="231036 309764" p2="231036 336764" w="2540" l="1"/>
      <trace p1="231036 336764" p2="241036 336764" w="2540" l="1"/>
      <pad p="245036 332764" w="10160" h="5080" l="2" ref="1"/>
      <pad p="245036 313764" w="10160" h="5080" l="2" ref="3"/>
      <pad p="227036 332764" w="10160" h="5080" l="2" ref="6"/>
      <arc p="237036 332764" r="1250" lw="2540" l="1" ang="360" rota="90"/>
      <pad p="245036 323264" w="10160" h="5100" l="2" ref="2"/>
      <pad p="227036 313764" w="10200" h="5100" l="2" ref="4"/>
      <pad p="227002 323264" w="10160" h="5080" l="2" ref="5"/>
    </group>
    <text p="226083 298347" fs="12700" l="1" rot="0" text="U?"/>
  </cpcb:part>
<n1:title>PCB Component</n1:title>
<n1:desc>Generated by CPCB</n1:desc>
<n1:defs>
</n1:defs>
<n1:g fill="none" stroke="black" stroke-width="1" fill-rule="evenodd" stroke-linecap="square" stroke-linejoin="bevel">

<n1:g fill="#000000" fill-opacity="1" stroke="none" transform="matrix(1,0,0,1,-679.209,-1022.69)" font-family="Ubuntu" font-size="152.778" font-weight="400" font-style="normal">
<n1:rect x="679.209" y="1022.69" width="500" height="500"/>
</n1:g>

<n1:g fill="#ff0000" fill-opacity="1" stroke="none" transform="matrix(1,0,0,1,-679.209,-1022.69)" font-family="Ubuntu" font-size="152.778" font-weight="400" font-style="normal">
<n1:rect x="944.709" y="1300.09" width="40" height="20"/>
</n1:g>

<n1:g fill="#ff0000" fill-opacity="1" stroke="none" transform="matrix(1,0,0,1,-679.209,-1022.69)" font-family="Ubuntu" font-size="152.778" font-weight="400" font-style="normal">
<n1:rect x="944.709" y="1225.29" width="40" height="20"/>
</n1:g>

<n1:g fill="#ff0000" fill-opacity="1" stroke="none" transform="matrix(1,0,0,1,-679.209,-1022.69)" font-family="Ubuntu" font-size="152.778" font-weight="400" font-style="normal">
<n1:rect x="873.843" y="1300.09" width="40" height="20"/>
</n1:g>

<n1:g fill="#ff0000" fill-opacity="1" stroke="none" transform="matrix(1,0,0,1,-679.209,-1022.69)" font-family="Ubuntu" font-size="152.778" font-weight="400" font-style="normal">
<n1:rect x="944.709" y="1262.65" width="40" height="20.0787"/>
</n1:g>

<n1:g fill="#ff0000" fill-opacity="1" stroke="none" transform="matrix(1,0,0,1,-679.209,-1022.69)" font-family="Ubuntu" font-size="152.778" font-weight="400" font-style="normal">
<n1:rect x="873.764" y="1225.25" width="40.1575" height="20.0787"/>
</n1:g>

<n1:g fill="#ff0000" fill-opacity="1" stroke="none" transform="matrix(1,0,0,1,-679.209,-1022.69)" font-family="Ubuntu" font-size="152.778" font-weight="400" font-style="normal">
<n1:rect x="873.709" y="1262.69" width="40" height="20"/>
</n1:g>

<n1:g fill="#ff0000" fill-opacity="1" stroke="#f0f000" stroke-opacity="1" stroke-width="10" stroke-linecap="round" stroke-linejoin="bevel" transform="matrix(1,0,0,1,-679.209,-1022.69)" font-family="Ubuntu" font-size="152.778" font-weight="400" font-style="normal">
<n1:polyline fill="none" vector-effect="none" points="948.961,1325.84 948.961,1219.54 "/>
<n1:polyline fill="none" vector-effect="none" points="948.961,1219.54 909.591,1219.54 "/>
<n1:polyline fill="none" vector-effect="none" points="909.591,1219.54 909.591,1325.84 "/>
<n1:polyline fill="none" vector-effect="none" points="909.591,1325.84 948.961,1325.84 "/>
</n1:g>

<n1:g fill="none" stroke="#f0f000" stroke-opacity="1" stroke-width="10" stroke-linecap="round" stroke-linejoin="bevel" transform="matrix(1,0,0,1,-679.209,-1022.69)" font-family="Ubuntu" font-size="152.778" font-weight="400" font-style="normal">
<n1:path vector-effect="none" fill-rule="evenodd" d="M938.134,1310.09 C938.134,1307.38 935.931,1305.17 933.213,1305.17 C930.495,1305.17 928.291,1307.38 928.291,1310.09 C928.291,1312.81 930.495,1315.02 933.213,1315.02 C935.931,1315.02 938.134,1312.81 938.134,1310.09 "/>
</n1:g>
</n1:g>
</svg>
