<?xml version="1.0" encoding="UTF-8"?>
<svg width="12.7mm" height="12.7mm" viewBox="0 0 500 500" version="1.2" baseProfile="tiny" xmlns:n1="http://www.w3.org/2000/svg" xmlns:xlink="http://www.w3.org/1999/xlink" xmlns:cpcb="http://www.danielwagenaar.net/cpcb-ns.html">
  <cpcb:part pkg="SOT23-5" xmlns="http://www.danielwagenaar.net/cpcb-ns.html">
    <group ref="U?" pkg="SOT23-5" nomrot="0">
      <trace p1="368036 349464" p2="368036 322464" w="2540" l="1"/>
      <trace p1="368036 322464" p2="358036 322464" w="2540" l="1"/>
      <trace p1="358036 322464" p2="358036 349464" w="2540" l="1"/>
      <trace p1="358036 349464" p2="368036 349464" w="2540" l="1"/>
      <pad p="372036 345464" w="10160" h="5080" l="2" ref="1"/>
      <pad p="372036 326464" w="10160" h="5080" l="2" ref="3"/>
      <pad p="354036 345464" w="10160" h="5080" l="2" ref="5"/>
      <arc p="364036 345464" r="1250" lw="2540" l="1" ang="360" rota="90"/>
      <pad p="372036 335964" w="10160" h="5100" l="2" ref="2"/>
      <pad p="354036 326464" w="10200" h="5100" l="2" ref="4"/>
    </group>
    <text p="353083 311047" fs="12700" l="1" rot="0" text="U?"/>
  </cpcb:part>
<n1:title>PCB Component</n1:title>
<n1:desc>Generated by CPCB</n1:desc>
<n1:defs>
</n1:defs>
<n1:g fill="none" stroke="black" stroke-width="1" fill-rule="evenodd" stroke-linecap="square" stroke-linejoin="bevel">

<n1:g fill="#000000" fill-opacity="1" stroke="none" transform="matrix(1,0,0,1,-1179.24,-1072.69)" font-family="Ubuntu" font-size="152.778" font-weight="400" font-style="normal">
<n1:rect x="1179.24" y="1072.69" width="500" height="500"/>
</n1:g>

<n1:g fill="#ff0000" fill-opacity="1" stroke="none" transform="matrix(1,0,0,1,-1179.24,-1072.69)" font-family="Ubuntu" font-size="152.778" font-weight="400" font-style="normal">
<n1:rect x="1444.71" y="1350.09" width="40" height="20"/>
</n1:g>

<n1:g fill="#ff0000" fill-opacity="1" stroke="none" transform="matrix(1,0,0,1,-1179.24,-1072.69)" font-family="Ubuntu" font-size="152.778" font-weight="400" font-style="normal">
<n1:rect x="1444.71" y="1275.29" width="40" height="20"/>
</n1:g>

<n1:g fill="#ff0000" fill-opacity="1" stroke="none" transform="matrix(1,0,0,1,-1179.24,-1072.69)" font-family="Ubuntu" font-size="152.778" font-weight="400" font-style="normal">
<n1:rect x="1373.84" y="1350.09" width="40" height="20"/>
</n1:g>

<n1:g fill="#ff0000" fill-opacity="1" stroke="none" transform="matrix(1,0,0,1,-1179.24,-1072.69)" font-family="Ubuntu" font-size="152.778" font-weight="400" font-style="normal">
<n1:rect x="1444.71" y="1312.65" width="40" height="20.0787"/>
</n1:g>

<n1:g fill="#ff0000" fill-opacity="1" stroke="none" transform="matrix(1,0,0,1,-1179.24,-1072.69)" font-family="Ubuntu" font-size="152.778" font-weight="400" font-style="normal">
<n1:rect x="1373.76" y="1275.25" width="40.1575" height="20.0787"/>
</n1:g>

<n1:g fill="#ff0000" fill-opacity="1" stroke="#f0f000" stroke-opacity="1" stroke-width="10" stroke-linecap="round" stroke-linejoin="bevel" transform="matrix(1,0,0,1,-1179.24,-1072.69)" font-family="Ubuntu" font-size="152.778" font-weight="400" font-style="normal">
<n1:polyline fill="none" vector-effect="none" points="1448.96,1375.84 1448.96,1269.54 "/>
<n1:polyline fill="none" vector-effect="none" points="1448.96,1269.54 1409.59,1269.54 "/>
<n1:polyline fill="none" vector-effect="none" points="1409.59,1269.54 1409.59,1375.84 "/>
<n1:polyline fill="none" vector-effect="none" points="1409.59,1375.84 1448.96,1375.84 "/>
</n1:g>

<n1:g fill="none" stroke="#f0f000" stroke-opacity="1" stroke-width="10" stroke-linecap="round" stroke-linejoin="bevel" transform="matrix(1,0,0,1,-1179.24,-1072.69)" font-family="Ubuntu" font-size="152.778" font-weight="400" font-style="normal">
<n1:path vector-effect="none" fill-rule="evenodd" d="M1438.13,1360.09 C1438.13,1357.38 1435.93,1355.17 1433.21,1355.17 C1430.49,1355.17 1428.29,1357.38 1428.29,1360.09 C1428.29,1362.81 1430.49,1365.02 1433.21,1365.02 C1435.93,1365.02 1438.13,1362.81 1438.13,1360.09 "/>
</n1:g>
</n1:g>
</svg>
