<?xml version="1.0" encoding="UTF-8"?>
<svg width="12.7mm" height="12.7mm" viewBox="0 0 500 500" version="1.2" baseProfile="tiny" xmlns:n1="http://www.w3.org/2000/svg" xmlns:xlink="http://www.w3.org/1999/xlink" xmlns:cpcb="http://www.danielwagenaar.net/cpcb-ns.html">
  <cpcb:part pkg="SOT23-3" xmlns="http://www.danielwagenaar.net/cpcb-ns.html">
    <group ref="U?" pkg="SOT23-3" nomrot="0">
      <trace p1="279136 324064" p2="279136 297064" w="2540" l="1"/>
      <trace p1="279136 297064" p2="269136 297064" w="2540" l="1"/>
      <trace p1="269136 297064" p2="269136 324064" w="2540" l="1"/>
      <trace p1="269136 324064" p2="279136 324064" w="2540" l="1"/>
      <pad p="283136 320064" w="10160" h="5080" l="2" ref="1"/>
      <pad p="283136 301064" w="10160" h="5080" l="2" ref="2"/>
      <pad p="265136 310564" w="10160" h="5080" l="2" ref="3"/>
      <arc p="275136 320064" r="1250" lw="2540" l="1" ang="360" rota="90"/>
    </group>
    <text p="264183 285647" fs="12700" l="1" rot="0" text="U?"/>
  </cpcb:part>
<n1:title>PCB Component</n1:title>
<n1:desc>Generated by CPCB</n1:desc>
<n1:defs>
</n1:defs>
<n1:g fill="none" stroke="black" stroke-width="1" fill-rule="evenodd" stroke-linecap="square" stroke-linejoin="bevel">

<n1:g fill="#000000" fill-opacity="1" stroke="none" transform="matrix(1,0,0,1,-829.276,-972.693)" font-family="Ubuntu" font-size="152.778" font-weight="400" font-style="normal">
<n1:rect x="829.276" y="972.693" width="500" height="500"/>
</n1:g>

<n1:g fill="#ff0000" fill-opacity="1" stroke="none" transform="matrix(1,0,0,1,-829.276,-972.693)" font-family="Ubuntu" font-size="152.778" font-weight="400" font-style="normal">
<n1:rect x="1094.71" y="1250.09" width="40" height="20"/>
</n1:g>

<n1:g fill="#ff0000" fill-opacity="1" stroke="none" transform="matrix(1,0,0,1,-829.276,-972.693)" font-family="Ubuntu" font-size="152.778" font-weight="400" font-style="normal">
<n1:rect x="1094.71" y="1175.29" width="40" height="20"/>
</n1:g>

<n1:g fill="#ff0000" fill-opacity="1" stroke="none" transform="matrix(1,0,0,1,-829.276,-972.693)" font-family="Ubuntu" font-size="152.778" font-weight="400" font-style="normal">
<n1:rect x="1023.84" y="1212.69" width="40" height="20"/>
</n1:g>

<n1:g fill="#ff0000" fill-opacity="1" stroke="#f0f000" stroke-opacity="1" stroke-width="10" stroke-linecap="round" stroke-linejoin="bevel" transform="matrix(1,0,0,1,-829.276,-972.693)" font-family="Ubuntu" font-size="152.778" font-weight="400" font-style="normal">
<n1:polyline fill="none" vector-effect="none" points="1098.96,1275.84 1098.96,1169.54 "/>
<n1:polyline fill="none" vector-effect="none" points="1098.96,1169.54 1059.59,1169.54 "/>
<n1:polyline fill="none" vector-effect="none" points="1059.59,1169.54 1059.59,1275.84 "/>
<n1:polyline fill="none" vector-effect="none" points="1059.59,1275.84 1098.96,1275.84 "/>
</n1:g>

<n1:g fill="none" stroke="#f0f000" stroke-opacity="1" stroke-width="10" stroke-linecap="round" stroke-linejoin="bevel" transform="matrix(1,0,0,1,-829.276,-972.693)" font-family="Ubuntu" font-size="152.778" font-weight="400" font-style="normal">
<n1:path vector-effect="none" fill-rule="evenodd" d="M1088.13,1260.09 C1088.13,1257.38 1085.93,1255.17 1083.21,1255.17 C1080.49,1255.17 1078.29,1257.38 1078.29,1260.09 C1078.29,1262.81 1080.49,1265.02 1083.21,1265.02 C1085.93,1265.02 1088.13,1262.81 1088.13,1260.09 "/>
</n1:g>
</n1:g>
</svg>
