<?xml version="1.0" encoding="UTF-8"?>
<svg width="76.2mm" height="76.2mm" viewBox="0 0 300 300" version="1.2" baseProfile="tiny" xmlns:n1="http://www.w3.org/2000/svg" xmlns:xlink="http://www.w3.org/1999/xlink" xmlns:cpcb="http://www.danielwagenaar.net/cpcb-ns.html">
  <cpcb:part pkg="SOT353" xmlns="http://www.danielwagenaar.net/cpcb-ns.html">
    <group ref="U6" pkg="SOT353">
      <trace p1="195400 242600" p2="195400 221600" w="2540" l="1"/>
      <trace p1="195400 221600" p2="183400 221600" w="2540" l="1"/>
      <trace p1="183400 221600" p2="183400 242600" w="2540" l="1"/>
      <trace p1="183400 242600" p2="195400 242600" w="2540" l="1"/>
      <pad p="199400 238600" w="5000" h="4000" l="2" ref="1"/>
      <pad p="199400 225600" w="5000" h="4000" l="2" ref="3"/>
      <pad p="180400 238600" w="5000" h="4000" l="2" ref="5"/>
      <arc p="191400 238600" r="1250" lw="2540" l="1" ang="360" rota="90"/>
      <pad p="199400 232100" w="5000" h="4000" l="2" ref="2"/>
      <pad p="180400 225600" w="5000" h="4000" l="2" ref="4"/>
    </group>
    <text p="180447 204183" fs="12700" l="1" rot="0" text="U6"/>
  </cpcb:part>
<n1:title>PCB Component</n1:title>
<n1:desc>Generated by CPCB</n1:desc>
<n1:defs>
</n1:defs>
<n1:g fill="none" stroke="black" stroke-width="1" fill-rule="evenodd" stroke-linecap="square" stroke-linejoin="bevel">

<n1:g fill="#000000" fill-opacity="1" stroke="none" transform="matrix(1,0,0,1,-597.638,-763.78)" font-family="Ubuntu" font-size="152.778" font-weight="400" font-style="normal">
<n1:rect x="597.638" y="763.78" width="300" height="300"/>
</n1:g>

<n1:g fill="#ff0000" fill-opacity="1" stroke="none" transform="matrix(1,0,0,1,-597.638,-763.78)" font-family="Ubuntu" font-size="152.778" font-weight="400" font-style="normal">
<n1:rect x="775.197" y="931.496" width="19.685" height="15.748"/>
</n1:g>

<n1:g fill="#ff0000" fill-opacity="1" stroke="none" transform="matrix(1,0,0,1,-597.638,-763.78)" font-family="Ubuntu" font-size="152.778" font-weight="400" font-style="normal">
<n1:rect x="775.197" y="880.315" width="19.685" height="15.748"/>
</n1:g>

<n1:g fill="#ff0000" fill-opacity="1" stroke="none" transform="matrix(1,0,0,1,-597.638,-763.78)" font-family="Ubuntu" font-size="152.778" font-weight="400" font-style="normal">
<n1:rect x="700.394" y="931.496" width="19.685" height="15.748"/>
</n1:g>

<n1:g fill="#ff0000" fill-opacity="1" stroke="none" transform="matrix(1,0,0,1,-597.638,-763.78)" font-family="Ubuntu" font-size="152.778" font-weight="400" font-style="normal">
<n1:rect x="775.197" y="905.906" width="19.685" height="15.748"/>
</n1:g>

<n1:g fill="#ff0000" fill-opacity="1" stroke="none" transform="matrix(1,0,0,1,-597.638,-763.78)" font-family="Ubuntu" font-size="152.778" font-weight="400" font-style="normal">
<n1:rect x="700.394" y="880.315" width="19.685" height="15.748"/>
</n1:g>

<n1:g fill="#ff0000" fill-opacity="1" stroke="#f0f000" stroke-opacity="1" stroke-width="10" stroke-linecap="round" stroke-linejoin="bevel" transform="matrix(1,0,0,1,-597.638,-763.78)" font-family="Ubuntu" font-size="152.778" font-weight="400" font-style="normal">
<n1:polyline fill="none" vector-effect="none" points="769.291,955.118 769.291,872.441 "/>
<n1:polyline fill="none" vector-effect="none" points="769.291,872.441 722.047,872.441 "/>
<n1:polyline fill="none" vector-effect="none" points="722.047,872.441 722.047,955.118 "/>
<n1:polyline fill="none" vector-effect="none" points="722.047,955.118 769.291,955.118 "/>
</n1:g>

<n1:g fill="none" stroke="#f0f000" stroke-opacity="1" stroke-width="10" stroke-linecap="round" stroke-linejoin="bevel" transform="matrix(1,0,0,1,-597.638,-763.78)" font-family="Ubuntu" font-size="152.778" font-weight="400" font-style="normal">
<n1:path vector-effect="none" fill-rule="evenodd" d="M758.465,939.37 C758.465,936.652 756.261,934.449 753.543,934.449 C750.825,934.449 748.622,936.652 748.622,939.37 C748.622,942.088 750.825,944.291 753.543,944.291 C756.261,944.291 758.465,942.088 758.465,939.37 "/>
</n1:g>
</n1:g>
</svg>
