<?xml version="1.0" encoding="UTF-8"?>
<svg width="76.2mm" height="76.2mm" viewBox="0 0 300 300" version="1.2" baseProfile="tiny" xmlns:n1="http://www.w3.org/2000/svg" xmlns:xlink="http://www.w3.org/1999/xlink" xmlns:cpcb="http://www.danielwagenaar.net/cpcb-ns.html">
  <cpcb:part pkg="TSOT23-6" xmlns="http://www.danielwagenaar.net/cpcb-ns.html">
    <group ref="U?" pkg="TSOT23-6" nomrot="-90">
      <trace p1="1336000 221000" p2="1363000 221000" w="2540" l="1"/>
      <trace p1="1363000 221000" p2="1363000 202834" w="2540" l="1"/>
      <trace p1="1363000 202834" p2="1336000 202834" w="2540" l="1"/>
      <trace p1="1336000 202834" p2="1336000 221000" w="2540" l="1"/>
      <pad p="1340000 225000" w="5080" h="10160" l="2" ref="1"/>
      <pad p="1359000 225000" w="5080" h="10160" l="2" ref="3"/>
      <pad p="1340000 198834" w="5080" h="10160" l="2" ref="6"/>
      <arc p="1340000 217000" r="1250" lw="2540" l="1" ang="360" rota="180"/>
      <pad p="1349500 225000" w="5100" h="10160" l="2" ref="2"/>
      <pad p="1359000 198834" w="5100" h="10200" l="2" ref="4"/>
      <pad p="1349500 198800" w="5080" h="10160" l="2" ref="5"/>
    </group>
    <text p="1360130 214620" fs="12700" l="1" rot="0" text="U?"/>
  </cpcb:part>
<n1:title>PCB Component</n1:title>
<n1:desc>Generated by CPCB</n1:desc>
<n1:defs>
</n1:defs>
<n1:g fill="none" stroke="black" stroke-width="1" fill-rule="evenodd" stroke-linecap="square" stroke-linejoin="bevel">

<n1:g fill="#000000" fill-opacity="1" stroke="none" transform="matrix(1,0,0,1,-5162.99,-684.252)" font-family="Sans" font-size="152.778" font-weight="400" font-style="normal">
<n1:rect x="5162.99" y="684.252" width="300" height="300"/>
</n1:g>

<n1:g fill="#ff0000" fill-opacity="1" stroke="none" transform="matrix(1,0,0,1,-5162.99,-684.252)" font-family="Sans" font-size="152.778" font-weight="400" font-style="normal">
<n1:rect x="5265.59" y="865.827" width="20" height="40"/>
</n1:g>

<n1:g fill="#ff0000" fill-opacity="1" stroke="none" transform="matrix(1,0,0,1,-5162.99,-684.252)" font-family="Sans" font-size="152.778" font-weight="400" font-style="normal">
<n1:rect x="5340.39" y="865.827" width="20" height="40"/>
</n1:g>

<n1:g fill="#ff0000" fill-opacity="1" stroke="none" transform="matrix(1,0,0,1,-5162.99,-684.252)" font-family="Sans" font-size="152.778" font-weight="400" font-style="normal">
<n1:rect x="5265.59" y="762.811" width="20" height="40"/>
</n1:g>

<n1:g fill="#ff0000" fill-opacity="1" stroke="none" transform="matrix(1,0,0,1,-5162.99,-684.252)" font-family="Sans" font-size="152.778" font-weight="400" font-style="normal">
<n1:rect x="5302.95" y="865.827" width="20.0787" height="40"/>
</n1:g>

<n1:g fill="#ff0000" fill-opacity="1" stroke="none" transform="matrix(1,0,0,1,-5162.99,-684.252)" font-family="Sans" font-size="152.778" font-weight="400" font-style="normal">
<n1:rect x="5340.35" y="762.732" width="20.0787" height="40.1575"/>
</n1:g>

<n1:g fill="#ff0000" fill-opacity="1" stroke="none" transform="matrix(1,0,0,1,-5162.99,-684.252)" font-family="Sans" font-size="152.778" font-weight="400" font-style="normal">
<n1:rect x="5302.99" y="762.677" width="20" height="40"/>
</n1:g>

<n1:g fill="#ff0000" fill-opacity="1" stroke="#f0f000" stroke-opacity="1" stroke-width="10" stroke-linecap="round" stroke-linejoin="bevel" transform="matrix(1,0,0,1,-5162.99,-684.252)" font-family="Sans" font-size="152.778" font-weight="400" font-style="normal">
<n1:polyline fill="none" vector-effect="none" points="5259.84,870.079 5366.14,870.079 "/>
<n1:polyline fill="none" vector-effect="none" points="5366.14,870.079 5366.14,798.559 "/>
<n1:polyline fill="none" vector-effect="none" points="5366.14,798.559 5259.84,798.559 "/>
<n1:polyline fill="none" vector-effect="none" points="5259.84,798.559 5259.84,870.079 "/>
</n1:g>

<n1:g fill="none" stroke="#f0f000" stroke-opacity="1" stroke-width="10" stroke-linecap="round" stroke-linejoin="bevel" transform="matrix(1,0,0,1,-5162.99,-684.252)" font-family="Sans" font-size="152.778" font-weight="400" font-style="normal">
<n1:path vector-effect="none" fill-rule="evenodd" d="M5275.59,859.252 C5278.31,859.252 5280.51,857.049 5280.51,854.331 C5280.51,851.613 5278.31,849.409 5275.59,849.409 C5272.87,849.409 5270.67,851.613 5270.67,854.331 C5270.67,857.049 5272.87,859.252 5275.59,859.252 "/>
</n1:g>
</n1:g>
</svg>
