<?xml version="1.0" encoding="UTF-8"?>
<svg width="76.2mm" height="76.2mm" viewBox="0 0 300 300" version="1.2" baseProfile="tiny" xmlns:n1="http://www.w3.org/2000/svg" xmlns:xlink="http://www.w3.org/1999/xlink" xmlns:cpcb="http://www.danielwagenaar.net/cpcb-ns.html">
  <cpcb:part pkg="TSOT23-8" xmlns="http://www.danielwagenaar.net/cpcb-ns.html">
    <group ref="U?" pkg="TSOT23-8">
      <pad p="1352700 190500" w="4000" h="12000" l="2" ref="2"/>
      <pad p="1346200 190500" w="4000" h="12000" l="2" ref="1"/>
      <arc p="1336800 176400" r="6350" lw="2540" l="1" ang="180" rota="0"/>
      <trace p1="1336800 169500" p2="1336802 177306" w="2540" l="1"/>
      <trace p1="1336802 184658" p2="1336802 177500" w="2540" l="1"/>
      <trace p1="1372700 184658" p2="1336802 184658" w="2540" l="1"/>
      <trace p1="1372700 169500" p2="1372700 184658" w="2540" l="1"/>
      <trace p1="1336800 169500" p2="1372700 169500" w="2540" l="1"/>
      <pad p="1365700 164300" w="4000" h="12000" l="2" ref="5"/>
      <pad p="1352700 164300" w="4000" h="12000" l="2" ref="7"/>
      <pad p="1359200 164300" w="4000" h="12000" l="2" ref="6"/>
      <pad p="1346200 164300" w="4000" h="12000" l="2" ref="8"/>
      <pad p="1365700 190500" w="4000" h="12000" l="2" ref="4"/>
      <pad p="1359200 190500" w="4000" h="12000" l="2" ref="3"/>
    </group>
    <text p="1325961 179085" fs="12700" l="1" rot="270" text="U?"/>
  </cpcb:part>
<n1:title>PCB Component</n1:title>
<n1:desc>Generated by CPCB</n1:desc>
<n1:defs>
</n1:defs>
<n1:g fill="none" stroke="black" stroke-width="1" fill-rule="evenodd" stroke-linecap="square" stroke-linejoin="bevel">

<n1:g fill="#000000" fill-opacity="1" stroke="none" transform="matrix(1,0,0,1,-5183.64,-548.425)" font-family="Sans" font-size="152.778" font-weight="400" font-style="normal">
<n1:rect x="5183.64" y="548.425" width="300" height="300"/>
</n1:g>

<n1:g fill="#ff0000" fill-opacity="1" stroke="none" transform="matrix(1,0,0,1,-5183.64,-548.425)" font-family="Sans" font-size="152.778" font-weight="400" font-style="normal">
<n1:rect x="5317.72" y="726.378" width="15.748" height="47.2441"/>
</n1:g>

<n1:g fill="#ff0000" fill-opacity="1" stroke="none" transform="matrix(1,0,0,1,-5183.64,-548.425)" font-family="Sans" font-size="152.778" font-weight="400" font-style="normal">
<n1:rect x="5292.13" y="726.378" width="15.748" height="47.2441"/>
</n1:g>

<n1:g fill="#ff0000" fill-opacity="1" stroke="none" transform="matrix(1,0,0,1,-5183.64,-548.425)" font-family="Sans" font-size="152.778" font-weight="400" font-style="normal">
<n1:rect x="5368.9" y="623.228" width="15.748" height="47.2441"/>
</n1:g>

<n1:g fill="#ff0000" fill-opacity="1" stroke="none" transform="matrix(1,0,0,1,-5183.64,-548.425)" font-family="Sans" font-size="152.778" font-weight="400" font-style="normal">
<n1:rect x="5317.72" y="623.228" width="15.748" height="47.2441"/>
</n1:g>

<n1:g fill="#ff0000" fill-opacity="1" stroke="none" transform="matrix(1,0,0,1,-5183.64,-548.425)" font-family="Sans" font-size="152.778" font-weight="400" font-style="normal">
<n1:rect x="5343.31" y="623.228" width="15.748" height="47.2441"/>
</n1:g>

<n1:g fill="#ff0000" fill-opacity="1" stroke="none" transform="matrix(1,0,0,1,-5183.64,-548.425)" font-family="Sans" font-size="152.778" font-weight="400" font-style="normal">
<n1:rect x="5292.13" y="623.228" width="15.748" height="47.2441"/>
</n1:g>

<n1:g fill="#ff0000" fill-opacity="1" stroke="none" transform="matrix(1,0,0,1,-5183.64,-548.425)" font-family="Sans" font-size="152.778" font-weight="400" font-style="normal">
<n1:rect x="5368.9" y="726.378" width="15.748" height="47.2441"/>
</n1:g>

<n1:g fill="#ff0000" fill-opacity="1" stroke="none" transform="matrix(1,0,0,1,-5183.64,-548.425)" font-family="Sans" font-size="152.778" font-weight="400" font-style="normal">
<n1:rect x="5343.31" y="726.378" width="15.748" height="47.2441"/>
</n1:g>

<n1:g fill="none" stroke="#f0f000" stroke-opacity="1" stroke-width="10" stroke-linecap="round" stroke-linejoin="bevel" transform="matrix(1,0,0,1,-5183.64,-548.425)" font-family="Sans" font-size="152.778" font-weight="400" font-style="normal">
<n1:path vector-effect="none" fill-rule="evenodd" d="M5262.99,719.488 C5276.8,719.488 5287.99,708.295 5287.99,694.488 C5287.99,680.681 5276.8,669.488 5262.99,669.488 "/>
<n1:polyline fill="none" vector-effect="none" points="5262.99,667.323 5263,698.055 "/>
<n1:polyline fill="none" vector-effect="none" points="5263,727 5263,698.819 "/>
<n1:polyline fill="none" vector-effect="none" points="5404.33,727 5263,727 "/>
<n1:polyline fill="none" vector-effect="none" points="5404.33,667.323 5404.33,727 "/>
<n1:polyline fill="none" vector-effect="none" points="5262.99,667.323 5404.33,667.323 "/>
</n1:g>
</n1:g>
</svg>
