<?xml version="1.0" encoding="UTF-8"?>
<svg width="12.7mm" height="26.035mm" viewBox="0 0 500 1024.57" version="1.2" baseProfile="tiny" xmlns:n1="http://www.w3.org/2000/svg" xmlns:xlink="http://www.w3.org/1999/xlink" xmlns:cpcb="http://www.danielwagenaar.net/cpcb-ns.html">
  <cpcb:part pkg="Audio-3" xmlns="http://www.danielwagenaar.net/cpcb-ns.html">
    <group ref="J?">
      <hole p="420000 324000" id="10000" od="16510" ref="2/tip" sl="10000"/>
      <trace p1="347500 430000" p2="455000 430000" w="2540" l="1"/>
      <hole p="400000 300000" id="10000" od="16510" ref="1/gnd" sl="10000"/>
      <trace p1="347500 285000" p2="347500 430000" w="2540" l="1"/>
      <trace p1="455000 285000" p2="347500 285000" w="2540" l="1"/>
      <trace p1="455000 430000" p2="455000 285000" w="2540" l="1"/>
      <hole p="358500 310000" id="10000" od="16510" ref="" sl="10000" rot="90"/>
      <arc p="409000 215000" r="30000" lw="2540" l="4" ang="360" rota="270"/>
      <hole p="420000 379000" id="10000" od="16510" ref="3/ring" sl="10000"/>
      <hole p="400000 416000" id="10000" od="16510" ref="4/tipswitch" sl="10000"/>
      <hole p="358500 399000" id="10000" od="16510" ref="" sl="10000" rot="90"/>
      <hole p="444500 399000" id="10000" od="16510" ref="" sl="10000" rot="90"/>
      <trace p1="439000 285000" p2="379000 285000" w="2540" l="4"/>
      <hole p="400000 361000" id="10000" od="16510" ref="5/ringswitch" sl="10000"/>
    </group>
    <text p="316230 301030" fs="12700" l="1" rot="0" text="J?"/>
  </cpcb:part>
<n1:title>PCB Component</n1:title>
<n1:desc>Generated by CPCB</n1:desc>
<n1:defs>
</n1:defs>
<n1:g fill="none" stroke="black" stroke-width="1" fill-rule="evenodd" stroke-linecap="square" stroke-linejoin="bevel">

<n1:g fill="#000000" fill-opacity="1" stroke="none" transform="matrix(1,0,0,1,-1329.72,-698.346)" font-family="Sans" font-size="152.778" font-weight="400" font-style="normal">
<n1:rect x="1329.72" y="698.346" width="500" height="1024.57"/>
</n1:g>

<n1:g fill="#000000" fill-opacity="1" stroke="#00b400" stroke-opacity="1" stroke-width="65" stroke-linecap="round" stroke-linejoin="bevel" transform="matrix(1,0,0,1,-1329.72,-698.346)" font-family="Sans" font-size="152.778" font-weight="400" font-style="normal">
<n1:polyline fill="none" vector-effect="none" points="1634.54,1275.59 1672.54,1275.59 "/>
<n1:polyline fill="none" vector-effect="none" points="1555.8,1181.1 1593.8,1181.1 "/>
<n1:polyline fill="none" vector-effect="none" points="1411.42,1201.47 1411.42,1239.47 "/>
<n1:polyline fill="none" vector-effect="none" points="1634.54,1492.13 1672.54,1492.13 "/>
<n1:polyline fill="none" vector-effect="none" points="1555.8,1637.8 1593.8,1637.8 "/>
<n1:polyline fill="none" vector-effect="none" points="1411.42,1551.87 1411.42,1589.87 "/>
<n1:polyline fill="none" vector-effect="none" points="1750,1551.87 1750,1589.87 "/>
<n1:polyline fill="none" vector-effect="none" points="1555.8,1421.26 1593.8,1421.26 "/>
</n1:g>

<n1:g fill="#000000" fill-opacity="1" stroke="#ff0000" stroke-opacity="1" stroke-width="65" stroke-linecap="round" stroke-linejoin="bevel" transform="matrix(1,0,0,1,-1329.72,-698.346)" font-family="Sans" font-size="152.778" font-weight="400" font-style="normal">
<n1:polyline fill="none" vector-effect="none" points="1634.54,1275.59 1672.54,1275.59 "/>
<n1:polyline fill="none" vector-effect="none" points="1555.8,1181.1 1593.8,1181.1 "/>
<n1:polyline fill="none" vector-effect="none" points="1411.42,1201.47 1411.42,1239.47 "/>
<n1:polyline fill="none" vector-effect="none" points="1634.54,1492.13 1672.54,1492.13 "/>
<n1:polyline fill="none" vector-effect="none" points="1555.8,1637.8 1593.8,1637.8 "/>
<n1:polyline fill="none" vector-effect="none" points="1411.42,1551.87 1411.42,1589.87 "/>
<n1:polyline fill="none" vector-effect="none" points="1750,1551.87 1750,1589.87 "/>
<n1:polyline fill="none" vector-effect="none" points="1555.8,1421.26 1593.8,1421.26 "/>
</n1:g>

<n1:g fill="#000000" fill-opacity="1" stroke="#ffffff" stroke-opacity="1" stroke-width="39.3701" stroke-linecap="round" stroke-linejoin="bevel" transform="matrix(1,0,0,1,-1329.72,-698.346)" font-family="Sans" font-size="152.778" font-weight="400" font-style="normal">
<n1:polyline fill="none" vector-effect="none" points="1634.54,1275.59 1672.54,1275.59 "/>
<n1:polyline fill="none" vector-effect="none" points="1555.8,1181.1 1593.8,1181.1 "/>
<n1:polyline fill="none" vector-effect="none" points="1411.42,1201.47 1411.42,1239.47 "/>
<n1:polyline fill="none" vector-effect="none" points="1634.54,1492.13 1672.54,1492.13 "/>
<n1:polyline fill="none" vector-effect="none" points="1555.8,1637.8 1593.8,1637.8 "/>
<n1:polyline fill="none" vector-effect="none" points="1411.42,1551.87 1411.42,1589.87 "/>
<n1:polyline fill="none" vector-effect="none" points="1750,1551.87 1750,1589.87 "/>
<n1:polyline fill="none" vector-effect="none" points="1555.8,1421.26 1593.8,1421.26 "/>
</n1:g>

<n1:g fill="#000000" fill-opacity="1" stroke="#f0f000" stroke-opacity="1" stroke-width="10" stroke-linecap="round" stroke-linejoin="bevel" transform="matrix(1,0,0,1,-1329.72,-698.346)" font-family="Sans" font-size="152.778" font-weight="400" font-style="normal">
<n1:polyline fill="none" vector-effect="none" points="1368.11,1692.91 1791.34,1692.91 "/>
<n1:polyline fill="none" vector-effect="none" points="1368.11,1122.05 1368.11,1692.91 "/>
<n1:polyline fill="none" vector-effect="none" points="1791.34,1122.05 1368.11,1122.05 "/>
<n1:polyline fill="none" vector-effect="none" points="1791.34,1692.91 1791.34,1122.05 "/>
</n1:g>

<n1:g fill="none" stroke="#9664ff" stroke-opacity="1" stroke-width="10" stroke-linecap="round" stroke-linejoin="bevel" transform="matrix(1,0,0,1,-1329.72,-698.346)" font-family="Sans" font-size="152.778" font-weight="400" font-style="normal">
<n1:path vector-effect="none" fill-rule="evenodd" d="M1492.13,846.457 C1492.13,911.687 1545.01,964.567 1610.24,964.567 C1675.47,964.567 1728.35,911.687 1728.35,846.457 C1728.35,781.226 1675.47,728.346 1610.24,728.346 C1545.01,728.346 1492.13,781.226 1492.13,846.457 "/>
<n1:polyline fill="none" vector-effect="none" points="1728.35,1122.05 1492.13,1122.05 "/>
</n1:g>
</n1:g>
</svg>
