<?xml version="1.0" encoding="UTF-8"?>
<svg width="76.2mm" height="140.233mm" viewBox="0 0 300 552.126" version="1.2" baseProfile="tiny" xmlns:n1="http://www.w3.org/2000/svg" xmlns:xlink="http://www.w3.org/1999/xlink" xmlns:cpcb="http://www.danielwagenaar.net/cpcb-ns.html">
  <cpcb:part pkg="Audio-2.5-Stereo-STX-2000-3N" notes="CONN JACK STEREO 2.5MM R/A" xmlns="http://www.danielwagenaar.net/cpcb-ns.html">
    <group ref="J?" pkg="Audio-2.5-Stereo-STX-2000-3N" notes="CONN JACK STEREO 2.5MM R/A">
      <trace p1="415000 80000" p2="415000 101000" w="2540" l="1"/>
      <trace p1="413920 101000" p2="425000 101000" w="2540" l="1"/>
      <trace p1="385000 101000" p2="385000 80000" w="2540" l="1"/>
      <trace p1="385000 80000" p2="415000 80000" w="2540" l="1"/>
      <trace p1="375000 205000" p2="375000 101000" w="2540" l="1"/>
      <trace p1="385000 101000" p2="413920 101000" w="2540" l="1"/>
      <trace p1="425000 101000" p2="425000 205000" w="2540" l="1"/>
      <trace p1="425000 205000" p2="375000 205000" w="2540" l="1"/>
      <hole p="400000 186000" id="9000" od="12810" ref=""/>
      <trace p1="375000 101000" p2="385000 101000" w="2540" l="1"/>
      <hole p="418500 145000" id="8000" od="12500" ref="2" sl="9000" rot="270"/>
      <hole p="381500 118000" id="8000" od="12500" ref="1" sl="9000" rot="270"/>
      <hole p="400000 200000" id="8000" od="12500" ref="3" sl="9000"/>
      <hole p="400000 116000" id="9000" od="12810" ref=""/>
    </group>
    <text p="348730 196030" fs="12700" l="1" rot="0" text="J?"/>
  </cpcb:part>
<n1:title>PCB Component</n1:title>
<n1:desc>Generated by CPCB</n1:desc>
<n1:defs>
</n1:defs>
<n1:g fill="none" stroke="black" stroke-width="1" fill-rule="evenodd" stroke-linecap="square" stroke-linejoin="bevel">

<n1:g fill="#000000" fill-opacity="1" stroke="none" transform="matrix(1,0,0,1,-1424.8,-284.961)" font-family="Sans" font-size="152.778" font-weight="400" font-style="normal">
<n1:rect x="1424.8" y="284.961" width="300" height="552.126"/>
</n1:g>

<n1:g fill="#00b400" fill-opacity="1" stroke="none" transform="matrix(1,0,0,1,-1424.8,-284.961)" font-family="Sans" font-size="152.778" font-weight="400" font-style="normal">
<n1:circle cx="1574.8" cy="732.283" r="25.2165"/>
</n1:g>

<n1:g fill="#00b400" fill-opacity="1" stroke="#00b400" stroke-opacity="1" stroke-width="49.2126" stroke-linecap="round" stroke-linejoin="bevel" transform="matrix(1,0,0,1,-1424.8,-284.961)" font-family="Sans" font-size="152.778" font-weight="400" font-style="normal">
<n1:polyline fill="none" vector-effect="none" points="1647.64,588.583 1647.64,553.15 "/>
<n1:polyline fill="none" vector-effect="none" points="1501.97,482.283 1501.97,446.85 "/>
<n1:polyline fill="none" vector-effect="none" points="1557.09,787.402 1592.52,787.402 "/>
</n1:g>

<n1:g fill="#00b400" fill-opacity="1" stroke="none" transform="matrix(1,0,0,1,-1424.8,-284.961)" font-family="Sans" font-size="152.778" font-weight="400" font-style="normal">
<n1:circle cx="1574.8" cy="456.693" r="25.2165"/>
</n1:g>

<n1:g fill="#ff0000" fill-opacity="1" stroke="none" transform="matrix(1,0,0,1,-1424.8,-284.961)" font-family="Sans" font-size="152.778" font-weight="400" font-style="normal">
<n1:circle cx="1574.8" cy="732.283" r="25.2165"/>
</n1:g>

<n1:g fill="#ff0000" fill-opacity="1" stroke="#ff0000" stroke-opacity="1" stroke-width="49.2126" stroke-linecap="round" stroke-linejoin="bevel" transform="matrix(1,0,0,1,-1424.8,-284.961)" font-family="Sans" font-size="152.778" font-weight="400" font-style="normal">
<n1:polyline fill="none" vector-effect="none" points="1647.64,588.583 1647.64,553.15 "/>
<n1:polyline fill="none" vector-effect="none" points="1501.97,482.283 1501.97,446.85 "/>
<n1:polyline fill="none" vector-effect="none" points="1557.09,787.402 1592.52,787.402 "/>
</n1:g>

<n1:g fill="#ff0000" fill-opacity="1" stroke="none" transform="matrix(1,0,0,1,-1424.8,-284.961)" font-family="Sans" font-size="152.778" font-weight="400" font-style="normal">
<n1:circle cx="1574.8" cy="456.693" r="25.2165"/>
</n1:g>

<n1:g fill="#000000" fill-opacity="1" stroke="none" transform="matrix(1,0,0,1,-1424.8,-284.961)" font-family="Sans" font-size="152.778" font-weight="400" font-style="normal">
<n1:circle cx="1574.8" cy="732.283" r="17.7165"/>
</n1:g>

<n1:g fill="#000000" fill-opacity="1" stroke="#000000" stroke-opacity="1" stroke-width="31.4961" stroke-linecap="round" stroke-linejoin="bevel" transform="matrix(1,0,0,1,-1424.8,-284.961)" font-family="Sans" font-size="152.778" font-weight="400" font-style="normal">
<n1:polyline fill="none" vector-effect="none" points="1647.64,588.583 1647.64,553.15 "/>
<n1:polyline fill="none" vector-effect="none" points="1501.97,482.283 1501.97,446.85 "/>
<n1:polyline fill="none" vector-effect="none" points="1557.09,787.402 1592.52,787.402 "/>
</n1:g>

<n1:g fill="#000000" fill-opacity="1" stroke="none" transform="matrix(1,0,0,1,-1424.8,-284.961)" font-family="Sans" font-size="152.778" font-weight="400" font-style="normal">
<n1:circle cx="1574.8" cy="456.693" r="17.7165"/>
</n1:g>

<n1:g fill="#000000" fill-opacity="1" stroke="#f0f000" stroke-opacity="1" stroke-width="10" stroke-linecap="round" stroke-linejoin="bevel" transform="matrix(1,0,0,1,-1424.8,-284.961)" font-family="Sans" font-size="152.778" font-weight="400" font-style="normal">
<n1:polyline fill="none" vector-effect="none" points="1633.86,314.961 1633.86,397.638 "/>
<n1:polyline fill="none" vector-effect="none" points="1629.61,397.638 1673.23,397.638 "/>
<n1:polyline fill="none" vector-effect="none" points="1515.75,397.638 1515.75,314.961 "/>
<n1:polyline fill="none" vector-effect="none" points="1515.75,314.961 1633.86,314.961 "/>
<n1:polyline fill="none" vector-effect="none" points="1476.38,807.087 1476.38,397.638 "/>
<n1:polyline fill="none" vector-effect="none" points="1515.75,397.638 1629.61,397.638 "/>
<n1:polyline fill="none" vector-effect="none" points="1673.23,397.638 1673.23,807.087 "/>
<n1:polyline fill="none" vector-effect="none" points="1673.23,807.087 1476.38,807.087 "/>
<n1:polyline fill="none" vector-effect="none" points="1476.38,397.638 1515.75,397.638 "/>
</n1:g>
</n1:g>
</svg>
