<?xml version="1.0" encoding="UTF-8"?>
<svg width="12.7mm" height="21.6916mm" viewBox="0 0 500 854.291" version="1.2" baseProfile="tiny" xmlns:n1="http://www.w3.org/2000/svg" xmlns:xlink="http://www.w3.org/1999/xlink" xmlns:cpcb="http://www.danielwagenaar.net/cpcb-ns.html">
  <cpcb:part pkg="Audio-2" xmlns="http://www.danielwagenaar.net/cpcb-ns.html">
    <group ref="J?" pkg="Audio-2">
      <hole p="35000 102500" id="5000" od="12500" ref="3/switch" sl="20000"/>
      <hole p="35000 50000" id="5000" od="12500" ref="1/tip" sl="20000"/>
      <trace p1="0 0" p2="70000 0" w="2540" l="1"/>
      <hole p="35000 10000" id="5000" od="12500" ref="2/ring" sl="20000"/>
      <trace p1="0 125000" p2="0 0" w="2540" l="1"/>
      <trace p1="70000 125000" p2="0 125000" w="2540" l="1"/>
      <trace p1="70000 0" p2="70000 125000" w="2540" l="1"/>
      <arc p="35000 -58000" r="18750" lw="2540" l="4" ang="360" rota="180"/>
      <trace p1="70000 -5000" p2="0 -5000" w="2540" l="4"/>
    </group>
    <text p="-1270 -13970" fs="12700" l="1" rot="0" text="J?"/>
  </cpcb:part>
<n1:title>PCB Component</n1:title>
<n1:desc>Generated by CPCB</n1:desc>
<n1:defs>
</n1:defs>
<n1:g fill="none" stroke="black" stroke-width="1" fill-rule="evenodd" stroke-linecap="square" stroke-linejoin="bevel">

<n1:g fill="#000000" fill-opacity="1" stroke="none" transform="matrix(1,0,0,1,112.205,332.165)" font-family="Sans" font-size="125" font-weight="400" font-style="normal">
<n1:rect x="-112.205" y="-332.165" width="500" height="854.291"/>
</n1:g>

<n1:g fill="#000000" fill-opacity="1" stroke="#00b400" stroke-opacity="1" stroke-width="49.2126" stroke-linecap="round" stroke-linejoin="bevel" transform="matrix(1,0,0,1,112.205,332.165)" font-family="Sans" font-size="125" font-weight="400" font-style="normal">
<n1:polyline fill="none" vector-effect="none" points="98.7953,403.543 176.795,403.543 "/>
<n1:polyline fill="none" vector-effect="none" points="98.7953,196.85 176.795,196.85 "/>
<n1:polyline fill="none" vector-effect="none" points="98.7953,39.3701 176.795,39.3701 "/>
</n1:g>

<n1:g fill="#000000" fill-opacity="1" stroke="#ff0000" stroke-opacity="1" stroke-width="49.2126" stroke-linecap="round" stroke-linejoin="bevel" transform="matrix(1,0,0,1,112.205,332.165)" font-family="Sans" font-size="125" font-weight="400" font-style="normal">
<n1:polyline fill="none" vector-effect="none" points="98.7953,403.543 176.795,403.543 "/>
<n1:polyline fill="none" vector-effect="none" points="98.7953,196.85 176.795,196.85 "/>
<n1:polyline fill="none" vector-effect="none" points="98.7953,39.3701 176.795,39.3701 "/>
</n1:g>

<n1:g fill="#000000" fill-opacity="1" stroke="#ffffff" stroke-opacity="1" stroke-width="19.685" stroke-linecap="round" stroke-linejoin="bevel" transform="matrix(1,0,0,1,112.205,332.165)" font-family="Sans" font-size="125" font-weight="400" font-style="normal">
<n1:polyline fill="none" vector-effect="none" points="98.7953,403.543 176.795,403.543 "/>
<n1:polyline fill="none" vector-effect="none" points="98.7953,196.85 176.795,196.85 "/>
<n1:polyline fill="none" vector-effect="none" points="98.7953,39.3701 176.795,39.3701 "/>
</n1:g>

<n1:g fill="#000000" fill-opacity="1" stroke="#f0f000" stroke-opacity="1" stroke-width="10" stroke-linecap="round" stroke-linejoin="bevel" transform="matrix(1,0,0,1,112.205,332.165)" font-family="Sans" font-size="125" font-weight="400" font-style="normal">
<n1:polyline fill="none" vector-effect="none" points="0,0 275.591,0 "/>
<n1:polyline fill="none" vector-effect="none" points="0,492.126 0,0 "/>
<n1:polyline fill="none" vector-effect="none" points="275.591,492.126 0,492.126 "/>
<n1:polyline fill="none" vector-effect="none" points="275.591,0 275.591,492.126 "/>
</n1:g>

<n1:g fill="none" stroke="#9664ff" stroke-opacity="1" stroke-width="10" stroke-linecap="round" stroke-linejoin="bevel" transform="matrix(1,0,0,1,112.205,332.165)" font-family="Sans" font-size="125" font-weight="400" font-style="normal">
<n1:path vector-effect="none" fill-rule="evenodd" d="M137.795,-154.528 C178.564,-154.528 211.614,-187.577 211.614,-228.346 C211.614,-269.116 178.564,-302.165 137.795,-302.165 C97.0262,-302.165 63.9764,-269.116 63.9764,-228.346 C63.9764,-187.577 97.0262,-154.528 137.795,-154.528 "/>
<n1:polyline fill="none" vector-effect="none" points="275.591,-19.685 0,-19.685 "/>
</n1:g>
</n1:g>
</svg>
