<?xml version="1.0" encoding="UTF-8"?>
<svg width="163.246mm" height="293.548mm" viewBox="0 0 642.677 1155.67" version="1.2" baseProfile="tiny" xmlns:n1="http://www.w3.org/2000/svg" xmlns:xlink="http://www.w3.org/1999/xlink" xmlns:cpcb="http://www.danielwagenaar.net/cpcb-ns.html">
  <cpcb:part pkg="BNC Dosin 801-0083" notes="Dosin 801-0083" xmlns="http://www.danielwagenaar.net/cpcb-ns.html">
    <group ref="J?" pkg="BNC Dosin 801-0083" notes="Dosin 801-0083">
      <hole p="116800 31400" id="21100" od="30000" ref=""/>
      <trace p1="9800 0" p2="157800 0" w="2540" l="1"/>
      <trace p1="53800 -118000" p2="113800 -118000" w="2540" l="4"/>
      <trace p1="143800 -56000" p2="143800 -9500" w="2540" l="1"/>
      <trace p1="9800 0" p2="157800 0" w="2540" l="4"/>
      <trace p1="116800 31400" p2="50800 31400" w="2540" l="3" noclear="1"/>
      <hole p="116800 97400" id="21100" od="30000" ref=""/>
      <trace p1="131700 -162700" p2="131700 -56000" w="2540" l="1"/>
      <trace p1="138800 115600" p2="138800 0" w="2540" l="1"/>
      <trace p1="28800 0" p2="28800 115600" w="2540" l="1"/>
      <trace p1="23800 -56000" p2="143800 -56000" w="2540" l="1"/>
      <trace p1="50800 97400" p2="116800 97400" w="2540" l="3" noclear="1"/>
      <trace p1="50800 97400" p2="50800 31400" w="2540" l="3" noclear="1"/>
      <hole p="50800 31400" id="21100" od="30000" ref=""/>
      <hole p="83800 64400" id="11700" od="20000" ref="1"/>
      <arc p="83800 -61505" r="64150" lw="2540" l="4" ang="360" rota="180"/>
      <trace p1="116800 31400" p2="116800 97400" w="2540" l="3" noclear="1"/>
      <trace p1="23800 -9500" p2="23800 -56000" w="2540" l="1"/>
      <trace p1="157800 -9500" p2="157800 0" w="2540" l="1"/>
      <trace p1="9800 -9500" p2="157800 -9500" w="2540" l="1"/>
      <trace p1="28800 115600" p2="138800 115600" w="2540" l="1"/>
      <trace p1="35900 -162700" p2="131700 -162700" w="2540" l="1"/>
      <hole p="50800 97400" id="21100" od="30000" ref="2"/>
      <trace p1="9800 0" p2="9800 -9500" w="2540" l="1"/>
      <trace p1="35900 -56000" p2="35900 -162700" w="2540" l="1"/>
    </group>
    <text p="8530 -176670" fs="12700" l="1" rot="0" text="J?"/>
  </cpcb:part>
<n1:title>PCB Component</n1:title>
<n1:desc>Generated by CPCB</n1:desc>
<n1:defs>
</n1:defs>
<n1:g fill="none" stroke="black" stroke-width="1" fill-rule="evenodd" stroke-linecap="square" stroke-linejoin="bevel">

<n1:g fill="#000000" fill-opacity="1" stroke="none" transform="matrix(1,0,0,1,-8.58268,670.551)" font-family="Sans" font-size="152.778" font-weight="400" font-style="normal">
<n1:rect x="8.58268" y="-670.551" width="642.677" height="1155.67"/>
</n1:g>

<n1:g fill="#00b400" fill-opacity="1" stroke="none" transform="matrix(1,0,0,1,-8.58268,670.551)" font-family="Sans" font-size="152.778" font-weight="400" font-style="normal">
<n1:circle cx="459.843" cy="123.622" r="59.0551"/>
</n1:g>

<n1:g fill="#00b400" fill-opacity="1" stroke="#00b400" stroke-opacity="1" stroke-width="10" stroke-linecap="round" stroke-linejoin="bevel" transform="matrix(1,0,0,1,-8.58268,670.551)" font-family="Sans" font-size="152.778" font-weight="400" font-style="normal">
<n1:polyline fill="none" vector-effect="none" points="459.843,123.622 200,123.622 "/>
</n1:g>

<n1:g fill="#00b400" fill-opacity="1" stroke="none" transform="matrix(1,0,0,1,-8.58268,670.551)" font-family="Sans" font-size="152.778" font-weight="400" font-style="normal">
<n1:circle cx="459.843" cy="383.465" r="59.0551"/>
</n1:g>

<n1:g fill="#00b400" fill-opacity="1" stroke="#00b400" stroke-opacity="1" stroke-width="10" stroke-linecap="round" stroke-linejoin="bevel" transform="matrix(1,0,0,1,-8.58268,670.551)" font-family="Sans" font-size="152.778" font-weight="400" font-style="normal">
<n1:polyline fill="none" vector-effect="none" points="200,383.465 459.843,383.465 "/>
<n1:polyline fill="none" vector-effect="none" points="200,383.465 200,123.622 "/>
</n1:g>

<n1:g fill="#00b400" fill-opacity="1" stroke="none" transform="matrix(1,0,0,1,-8.58268,670.551)" font-family="Sans" font-size="152.778" font-weight="400" font-style="normal">
<n1:circle cx="200" cy="123.622" r="59.0551"/>
</n1:g>

<n1:g fill="#00b400" fill-opacity="1" stroke="none" transform="matrix(1,0,0,1,-8.58268,670.551)" font-family="Sans" font-size="152.778" font-weight="400" font-style="normal">
<n1:circle cx="329.921" cy="253.543" r="39.3701"/>
</n1:g>

<n1:g fill="#00b400" fill-opacity="1" stroke="#00b400" stroke-opacity="1" stroke-width="10" stroke-linecap="round" stroke-linejoin="bevel" transform="matrix(1,0,0,1,-8.58268,670.551)" font-family="Sans" font-size="152.778" font-weight="400" font-style="normal">
<n1:polyline fill="none" vector-effect="none" points="459.843,123.622 459.843,383.465 "/>
</n1:g>

<n1:g fill="#00b400" fill-opacity="1" stroke="none" transform="matrix(1,0,0,1,-8.58268,670.551)" font-family="Sans" font-size="152.778" font-weight="400" font-style="normal">
<n1:circle cx="200" cy="383.465" r="59.0551"/>
</n1:g>

<n1:g fill="#ff0000" fill-opacity="1" stroke="none" transform="matrix(1,0,0,1,-8.58268,670.551)" font-family="Sans" font-size="152.778" font-weight="400" font-style="normal">
<n1:circle cx="459.843" cy="123.622" r="59.0551"/>
</n1:g>

<n1:g fill="#ff0000" fill-opacity="1" stroke="none" transform="matrix(1,0,0,1,-8.58268,670.551)" font-family="Sans" font-size="152.778" font-weight="400" font-style="normal">
<n1:circle cx="459.843" cy="383.465" r="59.0551"/>
</n1:g>

<n1:g fill="#ff0000" fill-opacity="1" stroke="none" transform="matrix(1,0,0,1,-8.58268,670.551)" font-family="Sans" font-size="152.778" font-weight="400" font-style="normal">
<n1:circle cx="200" cy="123.622" r="59.0551"/>
</n1:g>

<n1:g fill="#ff0000" fill-opacity="1" stroke="none" transform="matrix(1,0,0,1,-8.58268,670.551)" font-family="Sans" font-size="152.778" font-weight="400" font-style="normal">
<n1:circle cx="329.921" cy="253.543" r="39.3701"/>
</n1:g>

<n1:g fill="#ff0000" fill-opacity="1" stroke="none" transform="matrix(1,0,0,1,-8.58268,670.551)" font-family="Sans" font-size="152.778" font-weight="400" font-style="normal">
<n1:circle cx="200" cy="383.465" r="59.0551"/>
</n1:g>

<n1:g fill="#000000" fill-opacity="1" stroke="none" transform="matrix(1,0,0,1,-8.58268,670.551)" font-family="Sans" font-size="152.778" font-weight="400" font-style="normal">
<n1:circle cx="459.843" cy="123.622" r="41.5354"/>
</n1:g>

<n1:g fill="#000000" fill-opacity="1" stroke="none" transform="matrix(1,0,0,1,-8.58268,670.551)" font-family="Sans" font-size="152.778" font-weight="400" font-style="normal">
<n1:circle cx="459.843" cy="383.465" r="41.5354"/>
</n1:g>

<n1:g fill="#000000" fill-opacity="1" stroke="none" transform="matrix(1,0,0,1,-8.58268,670.551)" font-family="Sans" font-size="152.778" font-weight="400" font-style="normal">
<n1:circle cx="200" cy="123.622" r="41.5354"/>
</n1:g>

<n1:g fill="#000000" fill-opacity="1" stroke="none" transform="matrix(1,0,0,1,-8.58268,670.551)" font-family="Sans" font-size="152.778" font-weight="400" font-style="normal">
<n1:circle cx="329.921" cy="253.543" r="23.0315"/>
</n1:g>

<n1:g fill="#000000" fill-opacity="1" stroke="none" transform="matrix(1,0,0,1,-8.58268,670.551)" font-family="Sans" font-size="152.778" font-weight="400" font-style="normal">
<n1:circle cx="200" cy="383.465" r="41.5354"/>
</n1:g>

<n1:g fill="#000000" fill-opacity="1" stroke="#f0f000" stroke-opacity="1" stroke-width="10" stroke-linecap="round" stroke-linejoin="bevel" transform="matrix(1,0,0,1,-8.58268,670.551)" font-family="Sans" font-size="152.778" font-weight="400" font-style="normal">
<n1:polyline fill="none" vector-effect="none" points="38.5827,0 621.26,0 "/>
<n1:polyline fill="none" vector-effect="none" points="566.142,-220.472 566.142,-37.4016 "/>
<n1:polyline fill="none" vector-effect="none" points="518.504,-640.551 518.504,-220.472 "/>
<n1:polyline fill="none" vector-effect="none" points="546.457,455.118 546.457,0 "/>
<n1:polyline fill="none" vector-effect="none" points="113.386,0 113.386,455.118 "/>
<n1:polyline fill="none" vector-effect="none" points="93.7008,-220.472 566.142,-220.472 "/>
<n1:polyline fill="none" vector-effect="none" points="93.7008,-37.4016 93.7008,-220.472 "/>
<n1:polyline fill="none" vector-effect="none" points="621.26,-37.4016 621.26,0 "/>
<n1:polyline fill="none" vector-effect="none" points="38.5827,-37.4016 621.26,-37.4016 "/>
<n1:polyline fill="none" vector-effect="none" points="113.386,455.118 546.457,455.118 "/>
<n1:polyline fill="none" vector-effect="none" points="141.339,-640.551 518.504,-640.551 "/>
<n1:polyline fill="none" vector-effect="none" points="38.5827,0 38.5827,-37.4016 "/>
<n1:polyline fill="none" vector-effect="none" points="141.339,-220.472 141.339,-640.551 "/>
</n1:g>

<n1:g fill="#000000" fill-opacity="1" stroke="#9664ff" stroke-opacity="1" stroke-width="10" stroke-linecap="round" stroke-linejoin="bevel" transform="matrix(1,0,0,1,-8.58268,670.551)" font-family="Sans" font-size="152.778" font-weight="400" font-style="normal">
<n1:polyline fill="none" vector-effect="none" points="211.811,-464.567 448.031,-464.567 "/>
<n1:polyline fill="none" vector-effect="none" points="38.5827,0 621.26,0 "/>
</n1:g>

<n1:g fill="none" stroke="#9664ff" stroke-opacity="1" stroke-width="10" stroke-linecap="round" stroke-linejoin="bevel" transform="matrix(1,0,0,1,-8.58268,670.551)" font-family="Sans" font-size="152.778" font-weight="400" font-style="normal">
<n1:path vector-effect="none" fill-rule="evenodd" d="M329.921,10.4134 C469.406,10.4134 582.48,-102.661 582.48,-242.146 C582.48,-381.63 469.406,-494.705 329.921,-494.705 C190.437,-494.705 77.3622,-381.63 77.3622,-242.146 C77.3622,-102.661 190.437,10.4134 329.921,10.4134 "/>
</n1:g>
</n1:g>
</svg>
