<?xml version="1.0" encoding="UTF-8"?>
<svg width="160.249mm" height="290.144mm" viewBox="0 0 630.866 1142.28" version="1.2" baseProfile="tiny" xmlns:n1="http://www.w3.org/2000/svg" xmlns:xlink="http://www.w3.org/1999/xlink" xmlns:cpcb="http://www.danielwagenaar.net/cpcb-ns.html">
  <cpcb:part pkg="BNC-Bulkhead" notes="DOSIN-801-0046" xmlns="http://www.danielwagenaar.net/cpcb-ns.html">
    <group ref="J?" pkg="BNC-Bulkhead" notes="DOSIN-801-0046">
      <trace p1="546100 38100" p2="546100 127000" w="2540" l="1"/>
      <trace p1="546100 127000" p2="419100 127000" w="2540" l="1"/>
      <trace p1="555100 127000" p2="546100 127000" w="2540" l="1"/>
      <hole p="533400 203200" id="22860" od="29210" ref=""/>
      <hole p="482600 254000" id="10160" od="16510" sq="1" ref="1"/>
      <hole p="457200 254000" id="10160" od="16510" ref="2"/>
      <trace p1="555100 266700" p2="555100 127000" w="2540" l="1"/>
      <trace p1="419100 38100" p2="431800 38100" w="2540" l="1"/>
      <trace p1="410100 266700" p2="555100 266700" w="2540" l="1"/>
      <trace p1="410100 127000" p2="410100 266700" w="2540" l="1"/>
      <hole p="431800 203200" id="22860" od="29210" ref=""/>
      <trace p1="533400 38100" p2="546100 38100" w="2540" l="1"/>
      <trace p1="431800 38100" p2="533400 38100" w="2540" l="1"/>
      <trace p1="419100 127000" p2="419100 38100" w="2540" l="1"/>
      <trace p1="419100 127000" p2="410100 127000" w="2540" l="1"/>
      <arc p="482600 58800" r="63500" lw="2540" l="4" ang="360" rota="180"/>
      <trace p1="410100 127800" p2="555100 127800" w="2540" l="4"/>
      <trace p1="462600 -1200" p2="502600 -1200" w="2540" l="4"/>
      <trace p1="410100 -8200" p2="555100 -8200" w="2540" l="4"/>
    </group>
    <text p="375130 142780" fs="12700" l="1" rot="0" text="J?"/>
  </cpcb:part>
<n1:title>PCB Component</n1:title>
<n1:desc>Generated by CPCB</n1:desc>
<n1:defs>
</n1:defs>
<n1:g fill="none" stroke="black" stroke-width="1" fill-rule="evenodd" stroke-linecap="square" stroke-linejoin="bevel">

<n1:g fill="#000000" fill-opacity="1" stroke="none" transform="matrix(1,0,0,1,-1584.57,62.2835)" font-family="Sans" font-size="152.778" font-weight="400" font-style="normal">
<n1:rect x="1584.57" y="-62.2835" width="630.866" height="1142.28"/>
</n1:g>

<n1:g fill="#00b400" fill-opacity="1" stroke="none" transform="matrix(1,0,0,1,-1584.57,62.2835)" font-family="Sans" font-size="152.778" font-weight="400" font-style="normal">
<n1:circle cx="2100" cy="800" r="57.5"/>
</n1:g>

<n1:g fill="#00b400" fill-opacity="1" stroke="#00b400" stroke-opacity="1" stroke-width="65" stroke-linecap="butt" stroke-linejoin="bevel" transform="matrix(1,0,0,1,-1584.57,62.2835)" font-family="Sans" font-size="152.778" font-weight="400" font-style="normal">
<n1:polyline fill="none" vector-effect="none" points="1867.5,1000 1932.5,1000 "/>
</n1:g>

<n1:g fill="#00b400" fill-opacity="1" stroke="none" transform="matrix(1,0,0,1,-1584.57,62.2835)" font-family="Sans" font-size="152.778" font-weight="400" font-style="normal">
<n1:circle cx="1800" cy="1000" r="32.5"/>
</n1:g>

<n1:g fill="#00b400" fill-opacity="1" stroke="none" transform="matrix(1,0,0,1,-1584.57,62.2835)" font-family="Sans" font-size="152.778" font-weight="400" font-style="normal">
<n1:circle cx="1700" cy="800" r="57.5"/>
</n1:g>

<n1:g fill="#ff0000" fill-opacity="1" stroke="none" transform="matrix(1,0,0,1,-1584.57,62.2835)" font-family="Sans" font-size="152.778" font-weight="400" font-style="normal">
<n1:circle cx="2100" cy="800" r="57.5"/>
</n1:g>

<n1:g fill="#ff0000" fill-opacity="1" stroke="#ff0000" stroke-opacity="1" stroke-width="65" stroke-linecap="butt" stroke-linejoin="bevel" transform="matrix(1,0,0,1,-1584.57,62.2835)" font-family="Sans" font-size="152.778" font-weight="400" font-style="normal">
<n1:polyline fill="none" vector-effect="none" points="1867.5,1000 1932.5,1000 "/>
</n1:g>

<n1:g fill="#ff0000" fill-opacity="1" stroke="none" transform="matrix(1,0,0,1,-1584.57,62.2835)" font-family="Sans" font-size="152.778" font-weight="400" font-style="normal">
<n1:circle cx="1800" cy="1000" r="32.5"/>
</n1:g>

<n1:g fill="#ff0000" fill-opacity="1" stroke="none" transform="matrix(1,0,0,1,-1584.57,62.2835)" font-family="Sans" font-size="152.778" font-weight="400" font-style="normal">
<n1:circle cx="1700" cy="800" r="57.5"/>
</n1:g>

<n1:g fill="#000000" fill-opacity="1" stroke="none" transform="matrix(1,0,0,1,-1584.57,62.2835)" font-family="Sans" font-size="152.778" font-weight="400" font-style="normal">
<n1:circle cx="2100" cy="800" r="45"/>
</n1:g>

<n1:g fill="#000000" fill-opacity="1" stroke="none" transform="matrix(1,0,0,1,-1584.57,62.2835)" font-family="Sans" font-size="152.778" font-weight="400" font-style="normal">
<n1:circle cx="1900" cy="1000" r="20"/>
</n1:g>

<n1:g fill="#000000" fill-opacity="1" stroke="none" transform="matrix(1,0,0,1,-1584.57,62.2835)" font-family="Sans" font-size="152.778" font-weight="400" font-style="normal">
<n1:circle cx="1800" cy="1000" r="20"/>
</n1:g>

<n1:g fill="#000000" fill-opacity="1" stroke="none" transform="matrix(1,0,0,1,-1584.57,62.2835)" font-family="Sans" font-size="152.778" font-weight="400" font-style="normal">
<n1:circle cx="1700" cy="800" r="45"/>
</n1:g>

<n1:g fill="#000000" fill-opacity="1" stroke="#f0f000" stroke-opacity="1" stroke-width="10" stroke-linecap="round" stroke-linejoin="bevel" transform="matrix(1,0,0,1,-1584.57,62.2835)" font-family="Sans" font-size="152.778" font-weight="400" font-style="normal">
<n1:polyline fill="none" vector-effect="none" points="2150,150 2150,500 "/>
<n1:polyline fill="none" vector-effect="none" points="2150,500 1650,500 "/>
<n1:polyline fill="none" vector-effect="none" points="2185.43,500 2150,500 "/>
<n1:polyline fill="none" vector-effect="none" points="2185.43,1050 2185.43,500 "/>
<n1:polyline fill="none" vector-effect="none" points="1650,150 1700,150 "/>
<n1:polyline fill="none" vector-effect="none" points="1614.57,1050 2185.43,1050 "/>
<n1:polyline fill="none" vector-effect="none" points="1614.57,500 1614.57,1050 "/>
<n1:polyline fill="none" vector-effect="none" points="2100,150 2150,150 "/>
<n1:polyline fill="none" vector-effect="none" points="1700,150 2100,150 "/>
<n1:polyline fill="none" vector-effect="none" points="1650,500 1650,150 "/>
<n1:polyline fill="none" vector-effect="none" points="1650,500 1614.57,500 "/>
</n1:g>

<n1:g fill="none" stroke="#9664ff" stroke-opacity="1" stroke-width="10" stroke-linecap="round" stroke-linejoin="bevel" transform="matrix(1,0,0,1,-1584.57,62.2835)" font-family="Sans" font-size="152.778" font-weight="400" font-style="normal">
<n1:path vector-effect="none" fill-rule="evenodd" d="M1900,481.496 C2038.07,481.496 2150,369.567 2150,231.496 C2150,93.4249 2038.07,-18.5039 1900,-18.5039 C1761.93,-18.5039 1650,93.4249 1650,231.496 C1650,369.567 1761.93,481.496 1900,481.496 "/>
<n1:polyline fill="none" vector-effect="none" points="1614.57,503.15 2185.43,503.15 "/>
<n1:polyline fill="none" vector-effect="none" points="1821.26,-4.72441 1978.74,-4.72441 "/>
<n1:polyline fill="none" vector-effect="none" points="1614.57,-32.2835 2185.43,-32.2835 "/>
</n1:g>
</n1:g>
</svg>
