<?xml version="1.0" encoding="UTF-8"?>
<svg width="125.247mm" height="125.247mm" viewBox="0 0 493.071 493.11" version="1.2" baseProfile="tiny" xmlns:n1="http://www.w3.org/2000/svg" xmlns:xlink="http://www.w3.org/1999/xlink" xmlns:cpcb="http://www.danielwagenaar.net/cpcb-ns.html">
  <cpcb:part pkg="BNC-801-0057" notes="Vertical BNC 75 Hz&#10; DOSIN-801-0057&#10;jlcpcb C709675" xmlns="http://www.danielwagenaar.net/cpcb-ns.html">
    <group ref="J?" pkg="BNC-801-0057" notes="Vertical BNC 75 Hz&#10; DOSIN-801-0057&#10;jlcpcb C709675">
      <hole p="499300 674300" id="15000" od="18810" ref=""/>
      <trace p1="430700 674300" p2="430700 605700" w="2540" l="2"/>
      <arc p="465000 639995" r="55000" lw="2540" l="1" ang="360" rota="180"/>
      <hole p="499300 605700" id="15000" od="18810" ref="2"/>
      <trace p1="430700 674300" p2="499300 674300" w="2540" l="2"/>
      <trace p1="499300 605700" p2="499300 674300" w="2540" l="2"/>
      <hole p="430700 674300" id="15000" od="18810" ref=""/>
      <hole p="465000 640000" id="10500" od="14310" ref="1"/>
      <hole p="430700 605700" id="15000" od="18810" ref=""/>
    </group>
    <text p="408730 571025" fs="12700" l="1" rot="0" text="J?"/>
  </cpcb:part>
<n1:title>PCB Component</n1:title>
<n1:desc>Generated by CPCB</n1:desc>
<n1:defs>
</n1:defs>
<n1:g fill="none" stroke="black" stroke-width="1" fill-rule="evenodd" stroke-linecap="square" stroke-linejoin="bevel">

<n1:g fill="#000000" fill-opacity="1" stroke="none" transform="matrix(1,0,0,1,-1584.17,-2273.13)" font-family="Sans" font-size="152.778" font-weight="400" font-style="normal">
<n1:rect x="1584.17" y="2273.13" width="493.071" height="493.11"/>
</n1:g>

<n1:g fill="#00b400" fill-opacity="1" stroke="none" transform="matrix(1,0,0,1,-1584.17,-2273.13)" font-family="Sans" font-size="152.778" font-weight="400" font-style="normal">
<n1:circle cx="1965.75" cy="2654.72" r="37.0276"/>
</n1:g>

<n1:g fill="#00b400" fill-opacity="1" stroke="none" transform="matrix(1,0,0,1,-1584.17,-2273.13)" font-family="Sans" font-size="152.778" font-weight="400" font-style="normal">
<n1:circle cx="1965.75" cy="2384.65" r="37.0276"/>
</n1:g>

<n1:g fill="#00b400" fill-opacity="1" stroke="none" transform="matrix(1,0,0,1,-1584.17,-2273.13)" font-family="Sans" font-size="152.778" font-weight="400" font-style="normal">
<n1:circle cx="1695.67" cy="2654.72" r="37.0276"/>
</n1:g>

<n1:g fill="#00b400" fill-opacity="1" stroke="none" transform="matrix(1,0,0,1,-1584.17,-2273.13)" font-family="Sans" font-size="152.778" font-weight="400" font-style="normal">
<n1:circle cx="1830.71" cy="2519.69" r="28.1693"/>
</n1:g>

<n1:g fill="#00b400" fill-opacity="1" stroke="none" transform="matrix(1,0,0,1,-1584.17,-2273.13)" font-family="Sans" font-size="152.778" font-weight="400" font-style="normal">
<n1:circle cx="1695.67" cy="2384.65" r="37.0276"/>
</n1:g>

<n1:g fill="#ff0000" fill-opacity="1" stroke="none" transform="matrix(1,0,0,1,-1584.17,-2273.13)" font-family="Sans" font-size="152.778" font-weight="400" font-style="normal">
<n1:circle cx="1965.75" cy="2654.72" r="37.0276"/>
</n1:g>

<n1:g fill="#ff0000" fill-opacity="1" stroke="#ff0000" stroke-opacity="1" stroke-width="10" stroke-linecap="round" stroke-linejoin="bevel" transform="matrix(1,0,0,1,-1584.17,-2273.13)" font-family="Sans" font-size="152.778" font-weight="400" font-style="normal">
<n1:polyline fill="none" vector-effect="none" points="1695.67,2654.72 1695.67,2384.65 "/>
</n1:g>

<n1:g fill="#ff0000" fill-opacity="1" stroke="none" transform="matrix(1,0,0,1,-1584.17,-2273.13)" font-family="Sans" font-size="152.778" font-weight="400" font-style="normal">
<n1:circle cx="1965.75" cy="2384.65" r="37.0276"/>
</n1:g>

<n1:g fill="#ff0000" fill-opacity="1" stroke="#ff0000" stroke-opacity="1" stroke-width="10" stroke-linecap="round" stroke-linejoin="bevel" transform="matrix(1,0,0,1,-1584.17,-2273.13)" font-family="Sans" font-size="152.778" font-weight="400" font-style="normal">
<n1:polyline fill="none" vector-effect="none" points="1695.67,2654.72 1965.75,2654.72 "/>
<n1:polyline fill="none" vector-effect="none" points="1965.75,2384.65 1965.75,2654.72 "/>
</n1:g>

<n1:g fill="#ff0000" fill-opacity="1" stroke="none" transform="matrix(1,0,0,1,-1584.17,-2273.13)" font-family="Sans" font-size="152.778" font-weight="400" font-style="normal">
<n1:circle cx="1695.67" cy="2654.72" r="37.0276"/>
</n1:g>

<n1:g fill="#ff0000" fill-opacity="1" stroke="none" transform="matrix(1,0,0,1,-1584.17,-2273.13)" font-family="Sans" font-size="152.778" font-weight="400" font-style="normal">
<n1:circle cx="1830.71" cy="2519.69" r="28.1693"/>
</n1:g>

<n1:g fill="#ff0000" fill-opacity="1" stroke="none" transform="matrix(1,0,0,1,-1584.17,-2273.13)" font-family="Sans" font-size="152.778" font-weight="400" font-style="normal">
<n1:circle cx="1695.67" cy="2384.65" r="37.0276"/>
</n1:g>

<n1:g fill="#000000" fill-opacity="1" stroke="none" transform="matrix(1,0,0,1,-1584.17,-2273.13)" font-family="Sans" font-size="152.778" font-weight="400" font-style="normal">
<n1:circle cx="1965.75" cy="2654.72" r="29.5276"/>
</n1:g>

<n1:g fill="#000000" fill-opacity="1" stroke="none" transform="matrix(1,0,0,1,-1584.17,-2273.13)" font-family="Sans" font-size="152.778" font-weight="400" font-style="normal">
<n1:circle cx="1965.75" cy="2384.65" r="29.5276"/>
</n1:g>

<n1:g fill="#000000" fill-opacity="1" stroke="none" transform="matrix(1,0,0,1,-1584.17,-2273.13)" font-family="Sans" font-size="152.778" font-weight="400" font-style="normal">
<n1:circle cx="1695.67" cy="2654.72" r="29.5276"/>
</n1:g>

<n1:g fill="#000000" fill-opacity="1" stroke="none" transform="matrix(1,0,0,1,-1584.17,-2273.13)" font-family="Sans" font-size="152.778" font-weight="400" font-style="normal">
<n1:circle cx="1830.71" cy="2519.69" r="20.6693"/>
</n1:g>

<n1:g fill="#000000" fill-opacity="1" stroke="none" transform="matrix(1,0,0,1,-1584.17,-2273.13)" font-family="Sans" font-size="152.778" font-weight="400" font-style="normal">
<n1:circle cx="1695.67" cy="2384.65" r="29.5276"/>
</n1:g>

<n1:g fill="none" stroke="#f0f000" stroke-opacity="1" stroke-width="10" stroke-linecap="round" stroke-linejoin="bevel" transform="matrix(1,0,0,1,-1584.17,-2273.13)" font-family="Sans" font-size="152.778" font-weight="400" font-style="normal">
<n1:path vector-effect="none" fill-rule="evenodd" d="M1830.71,2736.2 C1950.3,2736.2 2047.24,2639.25 2047.24,2519.67 C2047.24,2400.08 1950.3,2303.13 1830.71,2303.13 C1711.12,2303.13 1614.17,2400.08 1614.17,2519.67 C1614.17,2639.25 1711.12,2736.2 1830.71,2736.2 "/>
</n1:g>
</n1:g>
</svg>
