<?xml version="1.0" encoding="UTF-8"?>
<svg width="729.209mm" height="145.212mm" viewBox="0 0 2870.87 571.654" version="1.2" baseProfile="tiny" xmlns:n1="http://www.w3.org/2000/svg" xmlns:xlink="http://www.w3.org/1999/xlink" xmlns:cpcb="http://www.danielwagenaar.net/cpcb-ns.html">
  <cpcb:part pkg="DB-37" xmlns="http://www.danielwagenaar.net/cpcb-ns.html">
    <group ref="J?" pkg="DB-37">
      <hole p="2765000 1024200" id="33020" od="40640" ref=""/>
      <trace p1="2156400 980000" p2="2181400 1070000" w="2500" l="1"/>
      <trace p1="2735000 980000" p2="2156400 980000" w="2500" l="1"/>
      <trace p1="2710000 1070000" p2="2735000 980000" w="2500" l="1"/>
      <trace p1="2181400 1070000" p2="2710000 1070000" w="2500" l="1"/>
      <hole p="2695000 1010000" id="12000" od="17500" sq="1" ref="1"/>
      <hole p="2681150 1038400" id="12000" od="17500" ref="20"/>
      <trace p1="2088700 960000" p2="2088700 1090000" w="2500" l="1"/>
      <trace p1="2088700 1090000" p2="2802700 1090000" w="2500" l="1"/>
      <trace p1="2802700 1090000" p2="2802700 960000" w="2500" l="1"/>
      <trace p1="2802700 960000" p2="2088700 960000" w="2500" l="1"/>
      <text p="2712070 991300" fs="12700" l="1" rot="0" text="F"/>
      <hole p="2667300 1010000" id="12000" od="17500" ref="2"/>
      <hole p="2653450 1038400" id="12000" od="17500" ref="21"/>
      <hole p="2639600 1010000" id="12000" od="17500" ref="3"/>
      <hole p="2625750 1038400" id="12000" od="17500" ref="22"/>
      <hole p="2611900 1010000" id="12000" od="17500" ref="4"/>
      <hole p="2598050 1038400" id="12000" od="17500" ref="23"/>
      <hole p="2584200 1010000" id="12000" od="17500" ref="5"/>
      <hole p="2570350 1038400" id="12000" od="17500" ref="24"/>
      <hole p="2556500 1010000" id="12000" od="17500" ref="6"/>
      <hole p="2542650 1038400" id="12000" od="17500" ref="25"/>
      <hole p="2528800 1010000" id="12000" od="17500" ref="7"/>
      <hole p="2514950 1038400" id="12000" od="17500" ref="26"/>
      <hole p="2501100 1010000" id="12000" od="17500" ref="8"/>
      <hole p="2487250 1038400" id="12000" od="17500" ref="27"/>
      <hole p="2473400 1010000" id="12000" od="17500" ref="9"/>
      <hole p="2459550 1038400" id="12000" od="17500" ref="28"/>
      <hole p="2445700 1010000" id="12000" od="17500" ref="10"/>
      <hole p="2431850 1038400" id="12000" od="17500" ref="29"/>
      <hole p="2418000 1010000" id="12000" od="17500" ref="11"/>
      <hole p="2404150 1038400" id="12000" od="17500" ref="30"/>
      <hole p="2390300 1010000" id="12000" od="17500" ref="12"/>
      <hole p="2376450 1038400" id="12000" od="17500" ref="31"/>
      <hole p="2362600 1010000" id="12000" od="17500" ref="13"/>
      <hole p="2348750 1038400" id="12000" od="17500" ref="32"/>
      <hole p="2334900 1010000" id="12000" od="17500" ref="14"/>
      <hole p="2321050 1038400" id="12000" od="17500" ref="33"/>
      <hole p="2307200 1010000" id="12000" od="17500" ref="15"/>
      <hole p="2293350 1038400" id="12000" od="17500" ref="34"/>
      <hole p="2279500 1010000" id="12000" od="17500" ref="16"/>
      <hole p="2265650 1038400" id="12000" od="17500" ref="35"/>
      <hole p="2251800 1010000" id="12000" od="17500" ref="17"/>
      <hole p="2237950 1038400" id="12000" od="17500" ref="36"/>
      <hole p="2224100 1010000" id="12000" od="17500" ref="18"/>
      <hole p="2196400 1010000" id="12000" od="17500" ref="19"/>
      <hole p="2210250 1038400" id="12000" od="17500" ref="37"/>
      <hole p="2126400 1024200" id="33020" od="40640" ref=""/>
    </group>
    <text p="2772340 946050" fs="12700" l="1" rot="0" text="J?"/>
  </cpcb:part>
<n1:title>PCB Component</n1:title>
<n1:desc>Generated by CPCB</n1:desc>
<n1:defs>
</n1:defs>
<n1:g fill="none" stroke="black" stroke-width="1" fill-rule="evenodd" stroke-linecap="square" stroke-linejoin="bevel">

<n1:g fill="#000000" fill-opacity="1" stroke="none" transform="matrix(1,0,0,1,-8193.31,-3749.61)" font-family="Sans" font-size="152.778" font-weight="400" font-style="normal">
<n1:rect x="8193.31" y="3749.61" width="2870.87" height="571.654"/>
</n1:g>

<n1:g fill="#00b400" fill-opacity="1" stroke="none" transform="matrix(1,0,0,1,-8193.31,-3749.61)" font-family="Sans" font-size="152.778" font-weight="400" font-style="normal">
<n1:circle cx="10885.8" cy="4032.28" r="80"/>
</n1:g>

<n1:g fill="#00b400" fill-opacity="1" stroke="#00b400" stroke-opacity="1" stroke-width="68.8976" stroke-linecap="butt" stroke-linejoin="bevel" transform="matrix(1,0,0,1,-8193.31,-3749.61)" font-family="Sans" font-size="152.778" font-weight="400" font-style="normal">
<n1:polyline fill="none" vector-effect="none" points="10575.8,3976.38 10644.7,3976.38 "/>
</n1:g>

<n1:g fill="#00b400" fill-opacity="1" stroke="none" transform="matrix(1,0,0,1,-8193.31,-3749.61)" font-family="Sans" font-size="152.778" font-weight="400" font-style="normal">
<n1:circle cx="10555.7" cy="4088.19" r="34.4488"/>
</n1:g>

<n1:g fill="#00b400" fill-opacity="1" stroke="none" transform="matrix(1,0,0,1,-8193.31,-3749.61)" font-family="Sans" font-size="152.778" font-weight="400" font-style="normal">
<n1:circle cx="10501.2" cy="3976.38" r="34.4488"/>
</n1:g>

<n1:g fill="#00b400" fill-opacity="1" stroke="none" transform="matrix(1,0,0,1,-8193.31,-3749.61)" font-family="Sans" font-size="152.778" font-weight="400" font-style="normal">
<n1:circle cx="10446.7" cy="4088.19" r="34.4488"/>
</n1:g>

<n1:g fill="#00b400" fill-opacity="1" stroke="none" transform="matrix(1,0,0,1,-8193.31,-3749.61)" font-family="Sans" font-size="152.778" font-weight="400" font-style="normal">
<n1:circle cx="10392.1" cy="3976.38" r="34.4488"/>
</n1:g>

<n1:g fill="#00b400" fill-opacity="1" stroke="none" transform="matrix(1,0,0,1,-8193.31,-3749.61)" font-family="Sans" font-size="152.778" font-weight="400" font-style="normal">
<n1:circle cx="10337.6" cy="4088.19" r="34.4488"/>
</n1:g>

<n1:g fill="#00b400" fill-opacity="1" stroke="none" transform="matrix(1,0,0,1,-8193.31,-3749.61)" font-family="Sans" font-size="152.778" font-weight="400" font-style="normal">
<n1:circle cx="10283.1" cy="3976.38" r="34.4488"/>
</n1:g>

<n1:g fill="#00b400" fill-opacity="1" stroke="none" transform="matrix(1,0,0,1,-8193.31,-3749.61)" font-family="Sans" font-size="152.778" font-weight="400" font-style="normal">
<n1:circle cx="10228.5" cy="4088.19" r="34.4488"/>
</n1:g>

<n1:g fill="#00b400" fill-opacity="1" stroke="none" transform="matrix(1,0,0,1,-8193.31,-3749.61)" font-family="Sans" font-size="152.778" font-weight="400" font-style="normal">
<n1:circle cx="10174" cy="3976.38" r="34.4488"/>
</n1:g>

<n1:g fill="#00b400" fill-opacity="1" stroke="none" transform="matrix(1,0,0,1,-8193.31,-3749.61)" font-family="Sans" font-size="152.778" font-weight="400" font-style="normal">
<n1:circle cx="10119.5" cy="4088.19" r="34.4488"/>
</n1:g>

<n1:g fill="#00b400" fill-opacity="1" stroke="none" transform="matrix(1,0,0,1,-8193.31,-3749.61)" font-family="Sans" font-size="152.778" font-weight="400" font-style="normal">
<n1:circle cx="10065" cy="3976.38" r="34.4488"/>
</n1:g>

<n1:g fill="#00b400" fill-opacity="1" stroke="none" transform="matrix(1,0,0,1,-8193.31,-3749.61)" font-family="Sans" font-size="152.778" font-weight="400" font-style="normal">
<n1:circle cx="10010.4" cy="4088.19" r="34.4488"/>
</n1:g>

<n1:g fill="#00b400" fill-opacity="1" stroke="none" transform="matrix(1,0,0,1,-8193.31,-3749.61)" font-family="Sans" font-size="152.778" font-weight="400" font-style="normal">
<n1:circle cx="9955.91" cy="3976.38" r="34.4488"/>
</n1:g>

<n1:g fill="#00b400" fill-opacity="1" stroke="none" transform="matrix(1,0,0,1,-8193.31,-3749.61)" font-family="Sans" font-size="152.778" font-weight="400" font-style="normal">
<n1:circle cx="9901.38" cy="4088.19" r="34.4488"/>
</n1:g>

<n1:g fill="#00b400" fill-opacity="1" stroke="none" transform="matrix(1,0,0,1,-8193.31,-3749.61)" font-family="Sans" font-size="152.778" font-weight="400" font-style="normal">
<n1:circle cx="9846.85" cy="3976.38" r="34.4488"/>
</n1:g>

<n1:g fill="#00b400" fill-opacity="1" stroke="none" transform="matrix(1,0,0,1,-8193.31,-3749.61)" font-family="Sans" font-size="152.778" font-weight="400" font-style="normal">
<n1:circle cx="9792.32" cy="4088.19" r="34.4488"/>
</n1:g>

<n1:g fill="#00b400" fill-opacity="1" stroke="none" transform="matrix(1,0,0,1,-8193.31,-3749.61)" font-family="Sans" font-size="152.778" font-weight="400" font-style="normal">
<n1:circle cx="9737.8" cy="3976.38" r="34.4488"/>
</n1:g>

<n1:g fill="#00b400" fill-opacity="1" stroke="none" transform="matrix(1,0,0,1,-8193.31,-3749.61)" font-family="Sans" font-size="152.778" font-weight="400" font-style="normal">
<n1:circle cx="9683.27" cy="4088.19" r="34.4488"/>
</n1:g>

<n1:g fill="#00b400" fill-opacity="1" stroke="none" transform="matrix(1,0,0,1,-8193.31,-3749.61)" font-family="Sans" font-size="152.778" font-weight="400" font-style="normal">
<n1:circle cx="9628.74" cy="3976.38" r="34.4488"/>
</n1:g>

<n1:g fill="#00b400" fill-opacity="1" stroke="none" transform="matrix(1,0,0,1,-8193.31,-3749.61)" font-family="Sans" font-size="152.778" font-weight="400" font-style="normal">
<n1:circle cx="9574.21" cy="4088.19" r="34.4488"/>
</n1:g>

<n1:g fill="#00b400" fill-opacity="1" stroke="none" transform="matrix(1,0,0,1,-8193.31,-3749.61)" font-family="Sans" font-size="152.778" font-weight="400" font-style="normal">
<n1:circle cx="9519.69" cy="3976.38" r="34.4488"/>
</n1:g>

<n1:g fill="#00b400" fill-opacity="1" stroke="none" transform="matrix(1,0,0,1,-8193.31,-3749.61)" font-family="Sans" font-size="152.778" font-weight="400" font-style="normal">
<n1:circle cx="9465.16" cy="4088.19" r="34.4488"/>
</n1:g>

<n1:g fill="#00b400" fill-opacity="1" stroke="none" transform="matrix(1,0,0,1,-8193.31,-3749.61)" font-family="Sans" font-size="152.778" font-weight="400" font-style="normal">
<n1:circle cx="9410.63" cy="3976.38" r="34.4488"/>
</n1:g>

<n1:g fill="#00b400" fill-opacity="1" stroke="none" transform="matrix(1,0,0,1,-8193.31,-3749.61)" font-family="Sans" font-size="152.778" font-weight="400" font-style="normal">
<n1:circle cx="9356.1" cy="4088.19" r="34.4488"/>
</n1:g>

<n1:g fill="#00b400" fill-opacity="1" stroke="none" transform="matrix(1,0,0,1,-8193.31,-3749.61)" font-family="Sans" font-size="152.778" font-weight="400" font-style="normal">
<n1:circle cx="9301.57" cy="3976.38" r="34.4488"/>
</n1:g>

<n1:g fill="#00b400" fill-opacity="1" stroke="none" transform="matrix(1,0,0,1,-8193.31,-3749.61)" font-family="Sans" font-size="152.778" font-weight="400" font-style="normal">
<n1:circle cx="9247.05" cy="4088.19" r="34.4488"/>
</n1:g>

<n1:g fill="#00b400" fill-opacity="1" stroke="none" transform="matrix(1,0,0,1,-8193.31,-3749.61)" font-family="Sans" font-size="152.778" font-weight="400" font-style="normal">
<n1:circle cx="9192.52" cy="3976.38" r="34.4488"/>
</n1:g>

<n1:g fill="#00b400" fill-opacity="1" stroke="none" transform="matrix(1,0,0,1,-8193.31,-3749.61)" font-family="Sans" font-size="152.778" font-weight="400" font-style="normal">
<n1:circle cx="9137.99" cy="4088.19" r="34.4488"/>
</n1:g>

<n1:g fill="#00b400" fill-opacity="1" stroke="none" transform="matrix(1,0,0,1,-8193.31,-3749.61)" font-family="Sans" font-size="152.778" font-weight="400" font-style="normal">
<n1:circle cx="9083.46" cy="3976.38" r="34.4488"/>
</n1:g>

<n1:g fill="#00b400" fill-opacity="1" stroke="none" transform="matrix(1,0,0,1,-8193.31,-3749.61)" font-family="Sans" font-size="152.778" font-weight="400" font-style="normal">
<n1:circle cx="9028.94" cy="4088.19" r="34.4488"/>
</n1:g>

<n1:g fill="#00b400" fill-opacity="1" stroke="none" transform="matrix(1,0,0,1,-8193.31,-3749.61)" font-family="Sans" font-size="152.778" font-weight="400" font-style="normal">
<n1:circle cx="8974.41" cy="3976.38" r="34.4488"/>
</n1:g>

<n1:g fill="#00b400" fill-opacity="1" stroke="none" transform="matrix(1,0,0,1,-8193.31,-3749.61)" font-family="Sans" font-size="152.778" font-weight="400" font-style="normal">
<n1:circle cx="8919.88" cy="4088.19" r="34.4488"/>
</n1:g>

<n1:g fill="#00b400" fill-opacity="1" stroke="none" transform="matrix(1,0,0,1,-8193.31,-3749.61)" font-family="Sans" font-size="152.778" font-weight="400" font-style="normal">
<n1:circle cx="8865.35" cy="3976.38" r="34.4488"/>
</n1:g>

<n1:g fill="#00b400" fill-opacity="1" stroke="none" transform="matrix(1,0,0,1,-8193.31,-3749.61)" font-family="Sans" font-size="152.778" font-weight="400" font-style="normal">
<n1:circle cx="8810.83" cy="4088.19" r="34.4488"/>
</n1:g>

<n1:g fill="#00b400" fill-opacity="1" stroke="none" transform="matrix(1,0,0,1,-8193.31,-3749.61)" font-family="Sans" font-size="152.778" font-weight="400" font-style="normal">
<n1:circle cx="8756.3" cy="3976.38" r="34.4488"/>
</n1:g>

<n1:g fill="#00b400" fill-opacity="1" stroke="none" transform="matrix(1,0,0,1,-8193.31,-3749.61)" font-family="Sans" font-size="152.778" font-weight="400" font-style="normal">
<n1:circle cx="8647.24" cy="3976.38" r="34.4488"/>
</n1:g>

<n1:g fill="#00b400" fill-opacity="1" stroke="none" transform="matrix(1,0,0,1,-8193.31,-3749.61)" font-family="Sans" font-size="152.778" font-weight="400" font-style="normal">
<n1:circle cx="8701.77" cy="4088.19" r="34.4488"/>
</n1:g>

<n1:g fill="#00b400" fill-opacity="1" stroke="none" transform="matrix(1,0,0,1,-8193.31,-3749.61)" font-family="Sans" font-size="152.778" font-weight="400" font-style="normal">
<n1:circle cx="8371.65" cy="4032.28" r="80"/>
</n1:g>

<n1:g fill="#ff0000" fill-opacity="1" stroke="none" transform="matrix(1,0,0,1,-8193.31,-3749.61)" font-family="Sans" font-size="152.778" font-weight="400" font-style="normal">
<n1:circle cx="10885.8" cy="4032.28" r="80"/>
</n1:g>

<n1:g fill="#ff0000" fill-opacity="1" stroke="#ff0000" stroke-opacity="1" stroke-width="68.8976" stroke-linecap="butt" stroke-linejoin="bevel" transform="matrix(1,0,0,1,-8193.31,-3749.61)" font-family="Sans" font-size="152.778" font-weight="400" font-style="normal">
<n1:polyline fill="none" vector-effect="none" points="10575.8,3976.38 10644.7,3976.38 "/>
</n1:g>

<n1:g fill="#ff0000" fill-opacity="1" stroke="none" transform="matrix(1,0,0,1,-8193.31,-3749.61)" font-family="Sans" font-size="152.778" font-weight="400" font-style="normal">
<n1:circle cx="10555.7" cy="4088.19" r="34.4488"/>
</n1:g>

<n1:g fill="#ff0000" fill-opacity="1" stroke="none" transform="matrix(1,0,0,1,-8193.31,-3749.61)" font-family="Sans" font-size="152.778" font-weight="400" font-style="normal">
<n1:circle cx="10501.2" cy="3976.38" r="34.4488"/>
</n1:g>

<n1:g fill="#ff0000" fill-opacity="1" stroke="none" transform="matrix(1,0,0,1,-8193.31,-3749.61)" font-family="Sans" font-size="152.778" font-weight="400" font-style="normal">
<n1:circle cx="10446.7" cy="4088.19" r="34.4488"/>
</n1:g>

<n1:g fill="#ff0000" fill-opacity="1" stroke="none" transform="matrix(1,0,0,1,-8193.31,-3749.61)" font-family="Sans" font-size="152.778" font-weight="400" font-style="normal">
<n1:circle cx="10392.1" cy="3976.38" r="34.4488"/>
</n1:g>

<n1:g fill="#ff0000" fill-opacity="1" stroke="none" transform="matrix(1,0,0,1,-8193.31,-3749.61)" font-family="Sans" font-size="152.778" font-weight="400" font-style="normal">
<n1:circle cx="10337.6" cy="4088.19" r="34.4488"/>
</n1:g>

<n1:g fill="#ff0000" fill-opacity="1" stroke="none" transform="matrix(1,0,0,1,-8193.31,-3749.61)" font-family="Sans" font-size="152.778" font-weight="400" font-style="normal">
<n1:circle cx="10283.1" cy="3976.38" r="34.4488"/>
</n1:g>

<n1:g fill="#ff0000" fill-opacity="1" stroke="none" transform="matrix(1,0,0,1,-8193.31,-3749.61)" font-family="Sans" font-size="152.778" font-weight="400" font-style="normal">
<n1:circle cx="10228.5" cy="4088.19" r="34.4488"/>
</n1:g>

<n1:g fill="#ff0000" fill-opacity="1" stroke="none" transform="matrix(1,0,0,1,-8193.31,-3749.61)" font-family="Sans" font-size="152.778" font-weight="400" font-style="normal">
<n1:circle cx="10174" cy="3976.38" r="34.4488"/>
</n1:g>

<n1:g fill="#ff0000" fill-opacity="1" stroke="none" transform="matrix(1,0,0,1,-8193.31,-3749.61)" font-family="Sans" font-size="152.778" font-weight="400" font-style="normal">
<n1:circle cx="10119.5" cy="4088.19" r="34.4488"/>
</n1:g>

<n1:g fill="#ff0000" fill-opacity="1" stroke="none" transform="matrix(1,0,0,1,-8193.31,-3749.61)" font-family="Sans" font-size="152.778" font-weight="400" font-style="normal">
<n1:circle cx="10065" cy="3976.38" r="34.4488"/>
</n1:g>

<n1:g fill="#ff0000" fill-opacity="1" stroke="none" transform="matrix(1,0,0,1,-8193.31,-3749.61)" font-family="Sans" font-size="152.778" font-weight="400" font-style="normal">
<n1:circle cx="10010.4" cy="4088.19" r="34.4488"/>
</n1:g>

<n1:g fill="#ff0000" fill-opacity="1" stroke="none" transform="matrix(1,0,0,1,-8193.31,-3749.61)" font-family="Sans" font-size="152.778" font-weight="400" font-style="normal">
<n1:circle cx="9955.91" cy="3976.38" r="34.4488"/>
</n1:g>

<n1:g fill="#ff0000" fill-opacity="1" stroke="none" transform="matrix(1,0,0,1,-8193.31,-3749.61)" font-family="Sans" font-size="152.778" font-weight="400" font-style="normal">
<n1:circle cx="9901.38" cy="4088.19" r="34.4488"/>
</n1:g>

<n1:g fill="#ff0000" fill-opacity="1" stroke="none" transform="matrix(1,0,0,1,-8193.31,-3749.61)" font-family="Sans" font-size="152.778" font-weight="400" font-style="normal">
<n1:circle cx="9846.85" cy="3976.38" r="34.4488"/>
</n1:g>

<n1:g fill="#ff0000" fill-opacity="1" stroke="none" transform="matrix(1,0,0,1,-8193.31,-3749.61)" font-family="Sans" font-size="152.778" font-weight="400" font-style="normal">
<n1:circle cx="9792.32" cy="4088.19" r="34.4488"/>
</n1:g>

<n1:g fill="#ff0000" fill-opacity="1" stroke="none" transform="matrix(1,0,0,1,-8193.31,-3749.61)" font-family="Sans" font-size="152.778" font-weight="400" font-style="normal">
<n1:circle cx="9737.8" cy="3976.38" r="34.4488"/>
</n1:g>

<n1:g fill="#ff0000" fill-opacity="1" stroke="none" transform="matrix(1,0,0,1,-8193.31,-3749.61)" font-family="Sans" font-size="152.778" font-weight="400" font-style="normal">
<n1:circle cx="9683.27" cy="4088.19" r="34.4488"/>
</n1:g>

<n1:g fill="#ff0000" fill-opacity="1" stroke="none" transform="matrix(1,0,0,1,-8193.31,-3749.61)" font-family="Sans" font-size="152.778" font-weight="400" font-style="normal">
<n1:circle cx="9628.74" cy="3976.38" r="34.4488"/>
</n1:g>

<n1:g fill="#ff0000" fill-opacity="1" stroke="none" transform="matrix(1,0,0,1,-8193.31,-3749.61)" font-family="Sans" font-size="152.778" font-weight="400" font-style="normal">
<n1:circle cx="9574.21" cy="4088.19" r="34.4488"/>
</n1:g>

<n1:g fill="#ff0000" fill-opacity="1" stroke="none" transform="matrix(1,0,0,1,-8193.31,-3749.61)" font-family="Sans" font-size="152.778" font-weight="400" font-style="normal">
<n1:circle cx="9519.69" cy="3976.38" r="34.4488"/>
</n1:g>

<n1:g fill="#ff0000" fill-opacity="1" stroke="none" transform="matrix(1,0,0,1,-8193.31,-3749.61)" font-family="Sans" font-size="152.778" font-weight="400" font-style="normal">
<n1:circle cx="9465.16" cy="4088.19" r="34.4488"/>
</n1:g>

<n1:g fill="#ff0000" fill-opacity="1" stroke="none" transform="matrix(1,0,0,1,-8193.31,-3749.61)" font-family="Sans" font-size="152.778" font-weight="400" font-style="normal">
<n1:circle cx="9410.63" cy="3976.38" r="34.4488"/>
</n1:g>

<n1:g fill="#ff0000" fill-opacity="1" stroke="none" transform="matrix(1,0,0,1,-8193.31,-3749.61)" font-family="Sans" font-size="152.778" font-weight="400" font-style="normal">
<n1:circle cx="9356.1" cy="4088.19" r="34.4488"/>
</n1:g>

<n1:g fill="#ff0000" fill-opacity="1" stroke="none" transform="matrix(1,0,0,1,-8193.31,-3749.61)" font-family="Sans" font-size="152.778" font-weight="400" font-style="normal">
<n1:circle cx="9301.57" cy="3976.38" r="34.4488"/>
</n1:g>

<n1:g fill="#ff0000" fill-opacity="1" stroke="none" transform="matrix(1,0,0,1,-8193.31,-3749.61)" font-family="Sans" font-size="152.778" font-weight="400" font-style="normal">
<n1:circle cx="9247.05" cy="4088.19" r="34.4488"/>
</n1:g>

<n1:g fill="#ff0000" fill-opacity="1" stroke="none" transform="matrix(1,0,0,1,-8193.31,-3749.61)" font-family="Sans" font-size="152.778" font-weight="400" font-style="normal">
<n1:circle cx="9192.52" cy="3976.38" r="34.4488"/>
</n1:g>

<n1:g fill="#ff0000" fill-opacity="1" stroke="none" transform="matrix(1,0,0,1,-8193.31,-3749.61)" font-family="Sans" font-size="152.778" font-weight="400" font-style="normal">
<n1:circle cx="9137.99" cy="4088.19" r="34.4488"/>
</n1:g>

<n1:g fill="#ff0000" fill-opacity="1" stroke="none" transform="matrix(1,0,0,1,-8193.31,-3749.61)" font-family="Sans" font-size="152.778" font-weight="400" font-style="normal">
<n1:circle cx="9083.46" cy="3976.38" r="34.4488"/>
</n1:g>

<n1:g fill="#ff0000" fill-opacity="1" stroke="none" transform="matrix(1,0,0,1,-8193.31,-3749.61)" font-family="Sans" font-size="152.778" font-weight="400" font-style="normal">
<n1:circle cx="9028.94" cy="4088.19" r="34.4488"/>
</n1:g>

<n1:g fill="#ff0000" fill-opacity="1" stroke="none" transform="matrix(1,0,0,1,-8193.31,-3749.61)" font-family="Sans" font-size="152.778" font-weight="400" font-style="normal">
<n1:circle cx="8974.41" cy="3976.38" r="34.4488"/>
</n1:g>

<n1:g fill="#ff0000" fill-opacity="1" stroke="none" transform="matrix(1,0,0,1,-8193.31,-3749.61)" font-family="Sans" font-size="152.778" font-weight="400" font-style="normal">
<n1:circle cx="8919.88" cy="4088.19" r="34.4488"/>
</n1:g>

<n1:g fill="#ff0000" fill-opacity="1" stroke="none" transform="matrix(1,0,0,1,-8193.31,-3749.61)" font-family="Sans" font-size="152.778" font-weight="400" font-style="normal">
<n1:circle cx="8865.35" cy="3976.38" r="34.4488"/>
</n1:g>

<n1:g fill="#ff0000" fill-opacity="1" stroke="none" transform="matrix(1,0,0,1,-8193.31,-3749.61)" font-family="Sans" font-size="152.778" font-weight="400" font-style="normal">
<n1:circle cx="8810.83" cy="4088.19" r="34.4488"/>
</n1:g>

<n1:g fill="#ff0000" fill-opacity="1" stroke="none" transform="matrix(1,0,0,1,-8193.31,-3749.61)" font-family="Sans" font-size="152.778" font-weight="400" font-style="normal">
<n1:circle cx="8756.3" cy="3976.38" r="34.4488"/>
</n1:g>

<n1:g fill="#ff0000" fill-opacity="1" stroke="none" transform="matrix(1,0,0,1,-8193.31,-3749.61)" font-family="Sans" font-size="152.778" font-weight="400" font-style="normal">
<n1:circle cx="8647.24" cy="3976.38" r="34.4488"/>
</n1:g>

<n1:g fill="#ff0000" fill-opacity="1" stroke="none" transform="matrix(1,0,0,1,-8193.31,-3749.61)" font-family="Sans" font-size="152.778" font-weight="400" font-style="normal">
<n1:circle cx="8701.77" cy="4088.19" r="34.4488"/>
</n1:g>

<n1:g fill="#ff0000" fill-opacity="1" stroke="none" transform="matrix(1,0,0,1,-8193.31,-3749.61)" font-family="Sans" font-size="152.778" font-weight="400" font-style="normal">
<n1:circle cx="8371.65" cy="4032.28" r="80"/>
</n1:g>

<n1:g fill="#000000" fill-opacity="1" stroke="none" transform="matrix(1,0,0,1,-8193.31,-3749.61)" font-family="Sans" font-size="152.778" font-weight="400" font-style="normal">
<n1:circle cx="10885.8" cy="4032.28" r="65"/>
</n1:g>

<n1:g fill="#000000" fill-opacity="1" stroke="none" transform="matrix(1,0,0,1,-8193.31,-3749.61)" font-family="Sans" font-size="152.778" font-weight="400" font-style="normal">
<n1:circle cx="10610.2" cy="3976.38" r="23.622"/>
</n1:g>

<n1:g fill="#000000" fill-opacity="1" stroke="none" transform="matrix(1,0,0,1,-8193.31,-3749.61)" font-family="Sans" font-size="152.778" font-weight="400" font-style="normal">
<n1:circle cx="10555.7" cy="4088.19" r="23.622"/>
</n1:g>

<n1:g fill="#000000" fill-opacity="1" stroke="none" transform="matrix(1,0,0,1,-8193.31,-3749.61)" font-family="Sans" font-size="152.778" font-weight="400" font-style="normal">
<n1:circle cx="10501.2" cy="3976.38" r="23.622"/>
</n1:g>

<n1:g fill="#000000" fill-opacity="1" stroke="none" transform="matrix(1,0,0,1,-8193.31,-3749.61)" font-family="Sans" font-size="152.778" font-weight="400" font-style="normal">
<n1:circle cx="10446.7" cy="4088.19" r="23.622"/>
</n1:g>

<n1:g fill="#000000" fill-opacity="1" stroke="none" transform="matrix(1,0,0,1,-8193.31,-3749.61)" font-family="Sans" font-size="152.778" font-weight="400" font-style="normal">
<n1:circle cx="10392.1" cy="3976.38" r="23.622"/>
</n1:g>

<n1:g fill="#000000" fill-opacity="1" stroke="none" transform="matrix(1,0,0,1,-8193.31,-3749.61)" font-family="Sans" font-size="152.778" font-weight="400" font-style="normal">
<n1:circle cx="10337.6" cy="4088.19" r="23.622"/>
</n1:g>

<n1:g fill="#000000" fill-opacity="1" stroke="none" transform="matrix(1,0,0,1,-8193.31,-3749.61)" font-family="Sans" font-size="152.778" font-weight="400" font-style="normal">
<n1:circle cx="10283.1" cy="3976.38" r="23.622"/>
</n1:g>

<n1:g fill="#000000" fill-opacity="1" stroke="none" transform="matrix(1,0,0,1,-8193.31,-3749.61)" font-family="Sans" font-size="152.778" font-weight="400" font-style="normal">
<n1:circle cx="10228.5" cy="4088.19" r="23.622"/>
</n1:g>

<n1:g fill="#000000" fill-opacity="1" stroke="none" transform="matrix(1,0,0,1,-8193.31,-3749.61)" font-family="Sans" font-size="152.778" font-weight="400" font-style="normal">
<n1:circle cx="10174" cy="3976.38" r="23.622"/>
</n1:g>

<n1:g fill="#000000" fill-opacity="1" stroke="none" transform="matrix(1,0,0,1,-8193.31,-3749.61)" font-family="Sans" font-size="152.778" font-weight="400" font-style="normal">
<n1:circle cx="10119.5" cy="4088.19" r="23.622"/>
</n1:g>

<n1:g fill="#000000" fill-opacity="1" stroke="none" transform="matrix(1,0,0,1,-8193.31,-3749.61)" font-family="Sans" font-size="152.778" font-weight="400" font-style="normal">
<n1:circle cx="10065" cy="3976.38" r="23.622"/>
</n1:g>

<n1:g fill="#000000" fill-opacity="1" stroke="none" transform="matrix(1,0,0,1,-8193.31,-3749.61)" font-family="Sans" font-size="152.778" font-weight="400" font-style="normal">
<n1:circle cx="10010.4" cy="4088.19" r="23.622"/>
</n1:g>

<n1:g fill="#000000" fill-opacity="1" stroke="none" transform="matrix(1,0,0,1,-8193.31,-3749.61)" font-family="Sans" font-size="152.778" font-weight="400" font-style="normal">
<n1:circle cx="9955.91" cy="3976.38" r="23.622"/>
</n1:g>

<n1:g fill="#000000" fill-opacity="1" stroke="none" transform="matrix(1,0,0,1,-8193.31,-3749.61)" font-family="Sans" font-size="152.778" font-weight="400" font-style="normal">
<n1:circle cx="9901.38" cy="4088.19" r="23.622"/>
</n1:g>

<n1:g fill="#000000" fill-opacity="1" stroke="none" transform="matrix(1,0,0,1,-8193.31,-3749.61)" font-family="Sans" font-size="152.778" font-weight="400" font-style="normal">
<n1:circle cx="9846.85" cy="3976.38" r="23.622"/>
</n1:g>

<n1:g fill="#000000" fill-opacity="1" stroke="none" transform="matrix(1,0,0,1,-8193.31,-3749.61)" font-family="Sans" font-size="152.778" font-weight="400" font-style="normal">
<n1:circle cx="9792.32" cy="4088.19" r="23.622"/>
</n1:g>

<n1:g fill="#000000" fill-opacity="1" stroke="none" transform="matrix(1,0,0,1,-8193.31,-3749.61)" font-family="Sans" font-size="152.778" font-weight="400" font-style="normal">
<n1:circle cx="9737.8" cy="3976.38" r="23.622"/>
</n1:g>

<n1:g fill="#000000" fill-opacity="1" stroke="none" transform="matrix(1,0,0,1,-8193.31,-3749.61)" font-family="Sans" font-size="152.778" font-weight="400" font-style="normal">
<n1:circle cx="9683.27" cy="4088.19" r="23.622"/>
</n1:g>

<n1:g fill="#000000" fill-opacity="1" stroke="none" transform="matrix(1,0,0,1,-8193.31,-3749.61)" font-family="Sans" font-size="152.778" font-weight="400" font-style="normal">
<n1:circle cx="9628.74" cy="3976.38" r="23.622"/>
</n1:g>

<n1:g fill="#000000" fill-opacity="1" stroke="none" transform="matrix(1,0,0,1,-8193.31,-3749.61)" font-family="Sans" font-size="152.778" font-weight="400" font-style="normal">
<n1:circle cx="9574.21" cy="4088.19" r="23.622"/>
</n1:g>

<n1:g fill="#000000" fill-opacity="1" stroke="none" transform="matrix(1,0,0,1,-8193.31,-3749.61)" font-family="Sans" font-size="152.778" font-weight="400" font-style="normal">
<n1:circle cx="9519.69" cy="3976.38" r="23.622"/>
</n1:g>

<n1:g fill="#000000" fill-opacity="1" stroke="none" transform="matrix(1,0,0,1,-8193.31,-3749.61)" font-family="Sans" font-size="152.778" font-weight="400" font-style="normal">
<n1:circle cx="9465.16" cy="4088.19" r="23.622"/>
</n1:g>

<n1:g fill="#000000" fill-opacity="1" stroke="none" transform="matrix(1,0,0,1,-8193.31,-3749.61)" font-family="Sans" font-size="152.778" font-weight="400" font-style="normal">
<n1:circle cx="9410.63" cy="3976.38" r="23.622"/>
</n1:g>

<n1:g fill="#000000" fill-opacity="1" stroke="none" transform="matrix(1,0,0,1,-8193.31,-3749.61)" font-family="Sans" font-size="152.778" font-weight="400" font-style="normal">
<n1:circle cx="9356.1" cy="4088.19" r="23.622"/>
</n1:g>

<n1:g fill="#000000" fill-opacity="1" stroke="none" transform="matrix(1,0,0,1,-8193.31,-3749.61)" font-family="Sans" font-size="152.778" font-weight="400" font-style="normal">
<n1:circle cx="9301.57" cy="3976.38" r="23.622"/>
</n1:g>

<n1:g fill="#000000" fill-opacity="1" stroke="none" transform="matrix(1,0,0,1,-8193.31,-3749.61)" font-family="Sans" font-size="152.778" font-weight="400" font-style="normal">
<n1:circle cx="9247.05" cy="4088.19" r="23.622"/>
</n1:g>

<n1:g fill="#000000" fill-opacity="1" stroke="none" transform="matrix(1,0,0,1,-8193.31,-3749.61)" font-family="Sans" font-size="152.778" font-weight="400" font-style="normal">
<n1:circle cx="9192.52" cy="3976.38" r="23.622"/>
</n1:g>

<n1:g fill="#000000" fill-opacity="1" stroke="none" transform="matrix(1,0,0,1,-8193.31,-3749.61)" font-family="Sans" font-size="152.778" font-weight="400" font-style="normal">
<n1:circle cx="9137.99" cy="4088.19" r="23.622"/>
</n1:g>

<n1:g fill="#000000" fill-opacity="1" stroke="none" transform="matrix(1,0,0,1,-8193.31,-3749.61)" font-family="Sans" font-size="152.778" font-weight="400" font-style="normal">
<n1:circle cx="9083.46" cy="3976.38" r="23.622"/>
</n1:g>

<n1:g fill="#000000" fill-opacity="1" stroke="none" transform="matrix(1,0,0,1,-8193.31,-3749.61)" font-family="Sans" font-size="152.778" font-weight="400" font-style="normal">
<n1:circle cx="9028.94" cy="4088.19" r="23.622"/>
</n1:g>

<n1:g fill="#000000" fill-opacity="1" stroke="none" transform="matrix(1,0,0,1,-8193.31,-3749.61)" font-family="Sans" font-size="152.778" font-weight="400" font-style="normal">
<n1:circle cx="8974.41" cy="3976.38" r="23.622"/>
</n1:g>

<n1:g fill="#000000" fill-opacity="1" stroke="none" transform="matrix(1,0,0,1,-8193.31,-3749.61)" font-family="Sans" font-size="152.778" font-weight="400" font-style="normal">
<n1:circle cx="8919.88" cy="4088.19" r="23.622"/>
</n1:g>

<n1:g fill="#000000" fill-opacity="1" stroke="none" transform="matrix(1,0,0,1,-8193.31,-3749.61)" font-family="Sans" font-size="152.778" font-weight="400" font-style="normal">
<n1:circle cx="8865.35" cy="3976.38" r="23.622"/>
</n1:g>

<n1:g fill="#000000" fill-opacity="1" stroke="none" transform="matrix(1,0,0,1,-8193.31,-3749.61)" font-family="Sans" font-size="152.778" font-weight="400" font-style="normal">
<n1:circle cx="8810.83" cy="4088.19" r="23.622"/>
</n1:g>

<n1:g fill="#000000" fill-opacity="1" stroke="none" transform="matrix(1,0,0,1,-8193.31,-3749.61)" font-family="Sans" font-size="152.778" font-weight="400" font-style="normal">
<n1:circle cx="8756.3" cy="3976.38" r="23.622"/>
</n1:g>

<n1:g fill="#000000" fill-opacity="1" stroke="none" transform="matrix(1,0,0,1,-8193.31,-3749.61)" font-family="Sans" font-size="152.778" font-weight="400" font-style="normal">
<n1:circle cx="8647.24" cy="3976.38" r="23.622"/>
</n1:g>

<n1:g fill="#000000" fill-opacity="1" stroke="none" transform="matrix(1,0,0,1,-8193.31,-3749.61)" font-family="Sans" font-size="152.778" font-weight="400" font-style="normal">
<n1:circle cx="8701.77" cy="4088.19" r="23.622"/>
</n1:g>

<n1:g fill="#000000" fill-opacity="1" stroke="none" transform="matrix(1,0,0,1,-8193.31,-3749.61)" font-family="Sans" font-size="152.778" font-weight="400" font-style="normal">
<n1:circle cx="8371.65" cy="4032.28" r="65"/>
</n1:g>

<n1:g fill="#000000" fill-opacity="1" stroke="#f0f000" stroke-opacity="1" stroke-width="9.84252" stroke-linecap="round" stroke-linejoin="bevel" transform="matrix(1,0,0,1,-8193.31,-3749.61)" font-family="Sans" font-size="152.778" font-weight="400" font-style="normal">
<n1:polyline fill="none" vector-effect="none" points="8489.76,3858.27 8588.19,4212.6 "/>
<n1:polyline fill="none" vector-effect="none" points="10767.7,3858.27 8489.76,3858.27 "/>
<n1:polyline fill="none" vector-effect="none" points="10669.3,4212.6 10767.7,3858.27 "/>
<n1:polyline fill="none" vector-effect="none" points="8588.19,4212.6 10669.3,4212.6 "/>
<n1:polyline fill="none" vector-effect="none" points="8223.23,3779.53 8223.23,4291.34 "/>
<n1:polyline fill="none" vector-effect="none" points="8223.23,4291.34 11034.3,4291.34 "/>
<n1:polyline fill="none" vector-effect="none" points="11034.3,4291.34 11034.3,3779.53 "/>
<n1:polyline fill="none" vector-effect="none" points="11034.3,3779.53 8223.23,3779.53 "/>
</n1:g>

<n1:g fill="#000000" fill-opacity="1" stroke="#f0f000" stroke-opacity="1" stroke-width="3" stroke-linecap="round" stroke-linejoin="round" transform="matrix(2.5,0,0,-2.5,2484.13,153.15)" font-family="Sans" font-size="152.778" font-weight="400" font-style="normal">
<n1:polyline fill="none" vector-effect="none" points="0,-10 0,8 12,8 "/>
<n1:polyline fill="none" vector-effect="none" points="0,-1 9,-1 "/>
</n1:g>

<n1:g fill="#000000" fill-opacity="1" stroke="#f0f000" stroke-opacity="1" stroke-width="9.84252" stroke-linecap="round" stroke-linejoin="bevel" transform="matrix(1,0,0,1,-8193.31,-3749.61)" font-family="Sans" font-size="152.778" font-weight="400" font-style="normal">
</n1:g>
</n1:g>
</svg>
