<?xml version="1.0" encoding="UTF-8"?>
<svg width="323.901mm" height="215.24mm" viewBox="0 0 1275.16 847.402" version="1.2" baseProfile="tiny" xmlns:n1="http://www.w3.org/2000/svg" xmlns:xlink="http://www.w3.org/1999/xlink" xmlns:cpcb="http://www.danielwagenaar.net/cpcb-ns.html">
  <cpcb:part pkg="DB9-A-DF 09 A-KG-T2S" partno="A-DF 09 A/KG-T2S" notes="AE10921-ND" xmlns="http://www.danielwagenaar.net/cpcb-ns.html">
    <group ref="J?" pkg="DB9-A-DF 09 A-KG-T2S" partno="A-DF 09 A/KG-T2S" notes="AE10921-ND">
      <hole p="336250 125500" id="30500" od="36000" ref="" rot="180"/>
      <hole p="252850 111300" id="10000" od="16510" ref="9" rot="180"/>
      <hole p="266700 139700" id="10000" od="16510" ref="5" rot="180"/>
      <hole p="225150 111300" id="10000" od="16510" ref="8" rot="180"/>
      <hole p="239000 139700" id="10000" od="16510" ref="4" rot="180"/>
      <hole p="197450 111300" id="10000" od="16510" ref="7" rot="180"/>
      <hole p="211300 139700" id="10000" od="16510" ref="3" rot="180"/>
      <hole p="169750 111300" id="10000" od="16510" ref="6" rot="180"/>
      <hole p="183600 139700" id="10000" od="16510" ref="2" rot="180"/>
      <hole p="155900 139700" id="10000" od="16510" sq="1" ref="1" rot="180"/>
      <trace p1="311300 -40300" p2="311300 30500" w="2540" l="1"/>
      <trace p1="315444 30500" p2="365350 30500" w="2540" l="1"/>
      <trace p1="111300 30500" p2="111300 -40300" w="2540" l="1"/>
      <trace p1="111300 -40300" p2="311300 -40300" w="2540" l="1"/>
      <trace p1="365900 159700" p2="57250 159700" w="2540" l="1"/>
      <trace p1="111300 30500" p2="315444 30500" w="2540" l="1"/>
      <trace p1="57250 30500" p2="111300 30500" w="2540" l="1"/>
      <trace p1="365350 30500" p2="365900 159700" w="2540" l="1"/>
      <hole p="86350 125500" id="30500" od="36000" ref="" rot="180"/>
      <trace p1="57250 159700" p2="57250 30500" w="2540" l="1"/>
    </group>
    <text p="55980 177956" fs="12700" l="1" rot="0" text="J?"/>
  </cpcb:part>
<n1:title>PCB Component</n1:title>
<n1:desc>Generated by CPCB</n1:desc>
<n1:defs>
</n1:defs>
<n1:g fill="none" stroke="black" stroke-width="1" fill-rule="evenodd" stroke-linecap="square" stroke-linejoin="bevel">

<n1:g fill="#000000" fill-opacity="1" stroke="none" transform="matrix(1,0,0,1,-195.394,188.661)" font-family="Ubuntu" font-size="152.778" font-weight="400" font-style="normal">
<n1:rect x="195.394" y="-188.661" width="1275.16" height="847.402"/>
</n1:g>

<n1:g fill="#00b400" fill-opacity="1" stroke="none" transform="matrix(1,0,0,1,-195.394,188.661)" font-family="Ubuntu" font-size="152.778" font-weight="400" font-style="normal">
<n1:circle cx="1323.82" cy="494.094" r="70.8661"/>
</n1:g>

<n1:g fill="#00b400" fill-opacity="1" stroke="none" transform="matrix(1,0,0,1,-195.394,188.661)" font-family="Ubuntu" font-size="152.778" font-weight="400" font-style="normal">
<n1:circle cx="995.472" cy="438.189" r="32.5"/>
</n1:g>

<n1:g fill="#00b400" fill-opacity="1" stroke="none" transform="matrix(1,0,0,1,-195.394,188.661)" font-family="Ubuntu" font-size="152.778" font-weight="400" font-style="normal">
<n1:circle cx="1050" cy="550" r="32.5"/>
</n1:g>

<n1:g fill="#00b400" fill-opacity="1" stroke="none" transform="matrix(1,0,0,1,-195.394,188.661)" font-family="Ubuntu" font-size="152.778" font-weight="400" font-style="normal">
<n1:circle cx="886.417" cy="438.189" r="32.5"/>
</n1:g>

<n1:g fill="#00b400" fill-opacity="1" stroke="none" transform="matrix(1,0,0,1,-195.394,188.661)" font-family="Ubuntu" font-size="152.778" font-weight="400" font-style="normal">
<n1:circle cx="940.945" cy="550" r="32.5"/>
</n1:g>

<n1:g fill="#00b400" fill-opacity="1" stroke="none" transform="matrix(1,0,0,1,-195.394,188.661)" font-family="Ubuntu" font-size="152.778" font-weight="400" font-style="normal">
<n1:circle cx="777.362" cy="438.189" r="32.5"/>
</n1:g>

<n1:g fill="#00b400" fill-opacity="1" stroke="none" transform="matrix(1,0,0,1,-195.394,188.661)" font-family="Ubuntu" font-size="152.778" font-weight="400" font-style="normal">
<n1:circle cx="831.89" cy="550" r="32.5"/>
</n1:g>

<n1:g fill="#00b400" fill-opacity="1" stroke="none" transform="matrix(1,0,0,1,-195.394,188.661)" font-family="Ubuntu" font-size="152.778" font-weight="400" font-style="normal">
<n1:circle cx="668.307" cy="438.189" r="32.5"/>
</n1:g>

<n1:g fill="#00b400" fill-opacity="1" stroke="none" transform="matrix(1,0,0,1,-195.394,188.661)" font-family="Ubuntu" font-size="152.778" font-weight="400" font-style="normal">
<n1:circle cx="722.835" cy="550" r="32.5"/>
</n1:g>

<n1:g fill="#00b400" fill-opacity="1" stroke="#00b400" stroke-opacity="1" stroke-width="65" stroke-linecap="butt" stroke-linejoin="bevel" transform="matrix(1,0,0,1,-195.394,188.661)" font-family="Ubuntu" font-size="152.778" font-weight="400" font-style="normal">
<n1:polyline fill="none" vector-effect="none" points="646.28,550 581.28,550 "/>
</n1:g>

<n1:g fill="#00b400" fill-opacity="1" stroke="none" transform="matrix(1,0,0,1,-195.394,188.661)" font-family="Ubuntu" font-size="152.778" font-weight="400" font-style="normal">
<n1:circle cx="339.961" cy="494.094" r="70.8661"/>
</n1:g>

<n1:g fill="#ff0000" fill-opacity="1" stroke="none" transform="matrix(1,0,0,1,-195.394,188.661)" font-family="Ubuntu" font-size="152.778" font-weight="400" font-style="normal">
<n1:circle cx="1323.82" cy="494.094" r="70.8661"/>
</n1:g>

<n1:g fill="#ff0000" fill-opacity="1" stroke="none" transform="matrix(1,0,0,1,-195.394,188.661)" font-family="Ubuntu" font-size="152.778" font-weight="400" font-style="normal">
<n1:circle cx="995.472" cy="438.189" r="32.5"/>
</n1:g>

<n1:g fill="#ff0000" fill-opacity="1" stroke="none" transform="matrix(1,0,0,1,-195.394,188.661)" font-family="Ubuntu" font-size="152.778" font-weight="400" font-style="normal">
<n1:circle cx="1050" cy="550" r="32.5"/>
</n1:g>

<n1:g fill="#ff0000" fill-opacity="1" stroke="none" transform="matrix(1,0,0,1,-195.394,188.661)" font-family="Ubuntu" font-size="152.778" font-weight="400" font-style="normal">
<n1:circle cx="886.417" cy="438.189" r="32.5"/>
</n1:g>

<n1:g fill="#ff0000" fill-opacity="1" stroke="none" transform="matrix(1,0,0,1,-195.394,188.661)" font-family="Ubuntu" font-size="152.778" font-weight="400" font-style="normal">
<n1:circle cx="940.945" cy="550" r="32.5"/>
</n1:g>

<n1:g fill="#ff0000" fill-opacity="1" stroke="none" transform="matrix(1,0,0,1,-195.394,188.661)" font-family="Ubuntu" font-size="152.778" font-weight="400" font-style="normal">
<n1:circle cx="777.362" cy="438.189" r="32.5"/>
</n1:g>

<n1:g fill="#ff0000" fill-opacity="1" stroke="none" transform="matrix(1,0,0,1,-195.394,188.661)" font-family="Ubuntu" font-size="152.778" font-weight="400" font-style="normal">
<n1:circle cx="831.89" cy="550" r="32.5"/>
</n1:g>

<n1:g fill="#ff0000" fill-opacity="1" stroke="none" transform="matrix(1,0,0,1,-195.394,188.661)" font-family="Ubuntu" font-size="152.778" font-weight="400" font-style="normal">
<n1:circle cx="668.307" cy="438.189" r="32.5"/>
</n1:g>

<n1:g fill="#ff0000" fill-opacity="1" stroke="none" transform="matrix(1,0,0,1,-195.394,188.661)" font-family="Ubuntu" font-size="152.778" font-weight="400" font-style="normal">
<n1:circle cx="722.835" cy="550" r="32.5"/>
</n1:g>

<n1:g fill="#ff0000" fill-opacity="1" stroke="#ff0000" stroke-opacity="1" stroke-width="65" stroke-linecap="butt" stroke-linejoin="bevel" transform="matrix(1,0,0,1,-195.394,188.661)" font-family="Ubuntu" font-size="152.778" font-weight="400" font-style="normal">
<n1:polyline fill="none" vector-effect="none" points="646.28,550 581.28,550 "/>
</n1:g>

<n1:g fill="#ff0000" fill-opacity="1" stroke="none" transform="matrix(1,0,0,1,-195.394,188.661)" font-family="Ubuntu" font-size="152.778" font-weight="400" font-style="normal">
<n1:circle cx="339.961" cy="494.094" r="70.8661"/>
</n1:g>

<n1:g fill="#000000" fill-opacity="1" stroke="none" transform="matrix(1,0,0,1,-195.394,188.661)" font-family="Ubuntu" font-size="152.778" font-weight="400" font-style="normal">
<n1:circle cx="1323.82" cy="494.094" r="60.0394"/>
</n1:g>

<n1:g fill="#000000" fill-opacity="1" stroke="none" transform="matrix(1,0,0,1,-195.394,188.661)" font-family="Ubuntu" font-size="152.778" font-weight="400" font-style="normal">
<n1:circle cx="995.472" cy="438.189" r="19.685"/>
</n1:g>

<n1:g fill="#000000" fill-opacity="1" stroke="none" transform="matrix(1,0,0,1,-195.394,188.661)" font-family="Ubuntu" font-size="152.778" font-weight="400" font-style="normal">
<n1:circle cx="1050" cy="550" r="19.685"/>
</n1:g>

<n1:g fill="#000000" fill-opacity="1" stroke="none" transform="matrix(1,0,0,1,-195.394,188.661)" font-family="Ubuntu" font-size="152.778" font-weight="400" font-style="normal">
<n1:circle cx="886.417" cy="438.189" r="19.685"/>
</n1:g>

<n1:g fill="#000000" fill-opacity="1" stroke="none" transform="matrix(1,0,0,1,-195.394,188.661)" font-family="Ubuntu" font-size="152.778" font-weight="400" font-style="normal">
<n1:circle cx="940.945" cy="550" r="19.685"/>
</n1:g>

<n1:g fill="#000000" fill-opacity="1" stroke="none" transform="matrix(1,0,0,1,-195.394,188.661)" font-family="Ubuntu" font-size="152.778" font-weight="400" font-style="normal">
<n1:circle cx="777.362" cy="438.189" r="19.685"/>
</n1:g>

<n1:g fill="#000000" fill-opacity="1" stroke="none" transform="matrix(1,0,0,1,-195.394,188.661)" font-family="Ubuntu" font-size="152.778" font-weight="400" font-style="normal">
<n1:circle cx="831.89" cy="550" r="19.685"/>
</n1:g>

<n1:g fill="#000000" fill-opacity="1" stroke="none" transform="matrix(1,0,0,1,-195.394,188.661)" font-family="Ubuntu" font-size="152.778" font-weight="400" font-style="normal">
<n1:circle cx="668.307" cy="438.189" r="19.685"/>
</n1:g>

<n1:g fill="#000000" fill-opacity="1" stroke="none" transform="matrix(1,0,0,1,-195.394,188.661)" font-family="Ubuntu" font-size="152.778" font-weight="400" font-style="normal">
<n1:circle cx="722.835" cy="550" r="19.685"/>
</n1:g>

<n1:g fill="#000000" fill-opacity="1" stroke="none" transform="matrix(1,0,0,1,-195.394,188.661)" font-family="Ubuntu" font-size="152.778" font-weight="400" font-style="normal">
<n1:circle cx="613.78" cy="550" r="19.685"/>
</n1:g>

<n1:g fill="#000000" fill-opacity="1" stroke="none" transform="matrix(1,0,0,1,-195.394,188.661)" font-family="Ubuntu" font-size="152.778" font-weight="400" font-style="normal">
<n1:circle cx="339.961" cy="494.094" r="60.0394"/>
</n1:g>

<n1:g fill="#000000" fill-opacity="1" stroke="#f0f000" stroke-opacity="1" stroke-width="10" stroke-linecap="round" stroke-linejoin="bevel" transform="matrix(1,0,0,1,-195.394,188.661)" font-family="Ubuntu" font-size="152.778" font-weight="400" font-style="normal">
<n1:polyline fill="none" vector-effect="none" points="1225.59,-158.661 1225.59,120.079 "/>
<n1:polyline fill="none" vector-effect="none" points="1241.91,120.079 1438.39,120.079 "/>
<n1:polyline fill="none" vector-effect="none" points="438.189,120.079 438.189,-158.661 "/>
<n1:polyline fill="none" vector-effect="none" points="438.189,-158.661 1225.59,-158.661 "/>
<n1:polyline fill="none" vector-effect="none" points="1440.55,628.74 225.394,628.74 "/>
<n1:polyline fill="none" vector-effect="none" points="438.189,120.079 1241.91,120.079 "/>
<n1:polyline fill="none" vector-effect="none" points="225.394,120.079 438.189,120.079 "/>
<n1:polyline fill="none" vector-effect="none" points="1438.39,120.079 1440.55,628.74 "/>
<n1:polyline fill="none" vector-effect="none" points="225.394,628.74 225.394,120.079 "/>
</n1:g>
</n1:g>
</svg>
