<?xml version="1.0" encoding="UTF-8"?>
<svg width="12.7mm" height="26.4414mm" viewBox="0 0 500 1041.34" version="1.2" baseProfile="tiny" xmlns:n1="http://www.w3.org/2000/svg" xmlns:xlink="http://www.w3.org/1999/xlink" xmlns:cpcb="http://www.danielwagenaar.net/cpcb-ns.html">
  <cpcb:part pkg="DC-Barrel-2" xmlns="http://www.danielwagenaar.net/cpcb-ns.html">
    <group ref="J?">
      <trace p1="691600 27680" p2="691600 179680" w="2500" l="1"/>
      <trace p1="691600 179680" p2="781600 179680" w="2500" l="1"/>
      <hole p="689600 135100" id="10000" od="25000" ref="3/switch" sl="25000" rot="90"/>
      <trace p1="781600 27680" p2="691600 27680" w="2500" l="1"/>
      <trace p1="781600 179680" p2="781600 27680" w="2500" l="1"/>
      <hole p="736600 105100" id="10000" od="25000" ref="2/ring" fp="3" sl="25000"/>
      <hole p="736600 165100" id="10000" od="25000" ref="1/pin" sl="25000"/>
      <trace p1="728462 27880" p2="748462 27880" w="2500" l="4"/>
      <arc p="736600 -37120" r="32500" lw="2500" l="4" ang="360" rota="180"/>
    </group>
    <text p="660313 47703" fs="12700" l="1" rot="0" text="J?"/>
  </cpcb:part>
<n1:title>PCB Component</n1:title>
<n1:desc>Generated by CPCB</n1:desc>
<n1:defs>
</n1:defs>
<n1:g fill="none" stroke="black" stroke-width="1" fill-rule="evenodd" stroke-linecap="square" stroke-linejoin="bevel">

<n1:g fill="#000000" fill-opacity="1" stroke="none" transform="matrix(1,0,0,1,-2623.92,304.016)" font-family="Sans" font-size="152.778" font-weight="400" font-style="normal">
<n1:rect x="2623.92" y="-304.016" width="500" height="1041.34"/>
</n1:g>

<n1:g fill="#000000" fill-opacity="1" stroke="#00b400" stroke-opacity="1" stroke-width="98.4252" stroke-linecap="round" stroke-linejoin="bevel" transform="matrix(1,0,0,1,-2623.92,304.016)" font-family="Sans" font-size="152.778" font-weight="400" font-style="normal">
<n1:polyline fill="none" vector-effect="none" points="2714.96,482.89 2714.96,580.89 "/>
<n1:polyline fill="none" vector-effect="none" points="2851,413.78 2949,413.78 "/>
</n1:g>

<n1:g fill="#000000" fill-opacity="1" stroke="#00b400" stroke-opacity="1" stroke-width="12" stroke-linecap="butt" stroke-linejoin="bevel" transform="matrix(1,0,0,1,-2623.92,304.016)" font-family="Sans" font-size="152.778" font-weight="400" font-style="normal">
<n1:polyline fill="none" vector-effect="none" points="2784.57,413.78 3015.43,413.78 "/>
<n1:polyline fill="none" vector-effect="none" points="2900,347.567 2900,479.992 "/>
</n1:g>

<n1:g fill="#000000" fill-opacity="1" stroke="#00b400" stroke-opacity="1" stroke-width="98.4252" stroke-linecap="round" stroke-linejoin="bevel" transform="matrix(1,0,0,1,-2623.92,304.016)" font-family="Sans" font-size="152.778" font-weight="400" font-style="normal">
<n1:polyline fill="none" vector-effect="none" points="2851,650 2949,650 "/>
</n1:g>

<n1:g fill="#000000" fill-opacity="1" stroke="#ff0000" stroke-opacity="1" stroke-width="98.4252" stroke-linecap="round" stroke-linejoin="bevel" transform="matrix(1,0,0,1,-2623.92,304.016)" font-family="Sans" font-size="152.778" font-weight="400" font-style="normal">
<n1:polyline fill="none" vector-effect="none" points="2714.96,482.89 2714.96,580.89 "/>
<n1:polyline fill="none" vector-effect="none" points="2851,413.78 2949,413.78 "/>
<n1:polyline fill="none" vector-effect="none" points="2851,650 2949,650 "/>
</n1:g>

<n1:g fill="#000000" fill-opacity="1" stroke="#ffffff" stroke-opacity="1" stroke-width="39.3701" stroke-linecap="round" stroke-linejoin="bevel" transform="matrix(1,0,0,1,-2623.92,304.016)" font-family="Sans" font-size="152.778" font-weight="400" font-style="normal">
<n1:polyline fill="none" vector-effect="none" points="2714.96,482.89 2714.96,580.89 "/>
<n1:polyline fill="none" vector-effect="none" points="2851,413.78 2949,413.78 "/>
<n1:polyline fill="none" vector-effect="none" points="2851,650 2949,650 "/>
</n1:g>

<n1:g fill="#000000" fill-opacity="1" stroke="#f0f000" stroke-opacity="1" stroke-width="9.84252" stroke-linecap="round" stroke-linejoin="bevel" transform="matrix(1,0,0,1,-2623.92,304.016)" font-family="Sans" font-size="152.778" font-weight="400" font-style="normal">
<n1:polyline fill="none" vector-effect="none" points="2722.83,108.976 2722.83,707.402 "/>
<n1:polyline fill="none" vector-effect="none" points="2722.83,707.402 3077.17,707.402 "/>
<n1:polyline fill="none" vector-effect="none" points="3077.17,108.976 2722.83,108.976 "/>
<n1:polyline fill="none" vector-effect="none" points="3077.17,707.402 3077.17,108.976 "/>
</n1:g>

<n1:g fill="#000000" fill-opacity="1" stroke="#9664ff" stroke-opacity="1" stroke-width="9.84252" stroke-linecap="round" stroke-linejoin="bevel" transform="matrix(1,0,0,1,-2623.92,304.016)" font-family="Sans" font-size="152.778" font-weight="400" font-style="normal">
<n1:polyline fill="none" vector-effect="none" points="2867.96,109.764 2946.7,109.764 "/>
</n1:g>

<n1:g fill="none" stroke="#9664ff" stroke-opacity="1" stroke-width="9.84252" stroke-linecap="round" stroke-linejoin="bevel" transform="matrix(1,0,0,1,-2623.92,304.016)" font-family="Sans" font-size="152.778" font-weight="400" font-style="normal">
<n1:path vector-effect="none" fill-rule="evenodd" d="M2900,-18.189 C2970.67,-18.189 3027.95,-75.4754 3027.95,-146.142 C3027.95,-216.808 2970.67,-274.094 2900,-274.094 C2829.33,-274.094 2772.05,-216.808 2772.05,-146.142 C2772.05,-75.4754 2829.33,-18.189 2900,-18.189 "/>
</n1:g>
</n1:g>
</svg>
