<?xml version="1.0" encoding="UTF-8"?>
<svg width="12.7mm" height="12.7mm" viewBox="0 0 500 500" version="1.2" baseProfile="tiny" xmlns:n1="http://www.w3.org/2000/svg" xmlns:xlink="http://www.w3.org/1999/xlink" xmlns:cpcb="http://www.danielwagenaar.net/cpcb-ns.html">
  <cpcb:part pkg="Header-2-156" xmlns="http://www.danielwagenaar.net/cpcb-ns.html">
    <group ref="J?" pkg="Header-2-156">
      <hole p="889000 457200" id="16510" od="24130" sq="1" ref="1"/>
      <trace p1="871220 439420" p2="871220 515620" w="2540" l="1"/>
      <hole p="889000 496824" id="16510" od="24130" ref="2"/>
      <trace p1="906780 439420" p2="871220 439420" w="2540" l="1"/>
      <trace p1="871220 515620" p2="906780 515620" w="2540" l="1"/>
      <trace p1="906780 515620" p2="906780 439420" w="2540" l="1"/>
    </group>
    <text p="875030 430530" fs="12700" l="1" rot="0" text="J?"/>
  </cpcb:part>
<n1:title>PCB Component</n1:title>
<n1:desc>Generated by CPCB</n1:desc>
<n1:defs>
</n1:defs>
<n1:g fill="none" stroke="black" stroke-width="1" fill-rule="evenodd" stroke-linecap="square" stroke-linejoin="bevel">

<n1:g fill="#000000" fill-opacity="1" stroke="none" transform="matrix(1,0,0,1,-3250,-1630)" font-family="Sans" font-size="152.778" font-weight="400" font-style="normal">
<n1:rect x="3250" y="1630" width="500" height="500"/>
</n1:g>

<n1:g fill="#000000" fill-opacity="1" stroke="#00b400" stroke-opacity="1" stroke-width="95" stroke-linecap="butt" stroke-linejoin="bevel" transform="matrix(1,0,0,1,-3250,-1630)" font-family="Sans" font-size="152.778" font-weight="400" font-style="normal">
<n1:polyline fill="none" vector-effect="none" points="3453,1800 3547,1800 "/>
</n1:g>

<n1:g fill="#00b400" fill-opacity="1" stroke="none" transform="matrix(1,0,0,1,-3250,-1630)" font-family="Sans" font-size="152.778" font-weight="400" font-style="normal">
<n1:circle cx="3500" cy="1956" r="47.5"/>
</n1:g>

<n1:g fill="#00b400" fill-opacity="1" stroke="#ff0000" stroke-opacity="1" stroke-width="95" stroke-linecap="butt" stroke-linejoin="bevel" transform="matrix(1,0,0,1,-3250,-1630)" font-family="Sans" font-size="152.778" font-weight="400" font-style="normal">
<n1:polyline fill="none" vector-effect="none" points="3453,1800 3547,1800 "/>
</n1:g>

<n1:g fill="#ff0000" fill-opacity="1" stroke="none" transform="matrix(1,0,0,1,-3250,-1630)" font-family="Sans" font-size="152.778" font-weight="400" font-style="normal">
<n1:circle cx="3500" cy="1956" r="47.5"/>
</n1:g>

<n1:g fill="#ffffff" fill-opacity="1" stroke="none" transform="matrix(1,0,0,1,-3250,-1630)" font-family="Sans" font-size="152.778" font-weight="400" font-style="normal">
<n1:circle cx="3500" cy="1800" r="32.5"/>
</n1:g>

<n1:g fill="#ffffff" fill-opacity="1" stroke="none" transform="matrix(1,0,0,1,-3250,-1630)" font-family="Sans" font-size="152.778" font-weight="400" font-style="normal">
<n1:circle cx="3500" cy="1956" r="32.5"/>
</n1:g>

<n1:g fill="#ffffff" fill-opacity="1" stroke="#f0f000" stroke-opacity="1" stroke-width="10" stroke-linecap="round" stroke-linejoin="bevel" transform="matrix(1,0,0,1,-3250,-1630)" font-family="Sans" font-size="152.778" font-weight="400" font-style="normal">
<n1:polyline fill="none" vector-effect="none" points="3430,1730 3430,2030 "/>
<n1:polyline fill="none" vector-effect="none" points="3570,1730 3430,1730 "/>
<n1:polyline fill="none" vector-effect="none" points="3430,2030 3570,2030 "/>
<n1:polyline fill="none" vector-effect="none" points="3570,2030 3570,1730 "/>
</n1:g>
</n1:g>
</svg>
