<?xml version="1.0" encoding="UTF-8"?>
<svg width="12.7mm" height="16.764mm" viewBox="0 0 500 660" version="1.2" baseProfile="tiny" xmlns:n1="http://www.w3.org/2000/svg" xmlns:xlink="http://www.w3.org/1999/xlink" xmlns:cpcb="http://www.danielwagenaar.net/cpcb-ns.html">
  <cpcb:part pkg="Header-6" xmlns="http://www.danielwagenaar.net/cpcb-ns.html">
    <group ref="J?" pkg="Header-6">
      <hole p="1085850 685800" id="10160" od="16510" ref="3"/>
      <trace p1="1073150 622300" p2="1073150 774700" w="2540" l="1"/>
      <hole p="1085850 635000" id="10160" od="16510" sq="1" ref="1"/>
      <hole p="1085850 660400" id="10160" od="16510" ref="2"/>
      <trace p1="1098550 774700" p2="1098550 622300" w="2540" l="1"/>
      <trace p1="1073150 774700" p2="1098550 774700" w="2540" l="1"/>
      <trace p1="1098550 622300" p2="1073150 622300" w="2540" l="1"/>
      <hole p="1085850 711200" id="10160" od="16510" ref="4"/>
      <hole p="1085850 736600" id="10160" od="16510" ref="5"/>
      <hole p="1085850 762000" id="10160" od="16510" ref="6"/>
    </group>
    <text p="1071880 608330" fs="12700" l="1" rot="0" text="J?"/>
  </cpcb:part>
<n1:title>PCB Component</n1:title>
<n1:desc>Generated by CPCB</n1:desc>
<n1:defs>
</n1:defs>
<n1:g fill="none" stroke="black" stroke-width="1" fill-rule="evenodd" stroke-linecap="square" stroke-linejoin="bevel">

<n1:g fill="#000000" fill-opacity="1" stroke="none" transform="matrix(1,0,0,1,-4025,-2420)" font-family="Sans" font-size="152.778" font-weight="400" font-style="normal">
<n1:rect x="4025" y="2420" width="500" height="660"/>
</n1:g>

<n1:g fill="#00b400" fill-opacity="1" stroke="none" transform="matrix(1,0,0,1,-4025,-2420)" font-family="Sans" font-size="152.778" font-weight="400" font-style="normal">
<n1:circle cx="4275" cy="2700" r="32.5"/>
</n1:g>

<n1:g fill="#00b400" fill-opacity="1" stroke="#00b400" stroke-opacity="1" stroke-width="65" stroke-linecap="butt" stroke-linejoin="bevel" transform="matrix(1,0,0,1,-4025,-2420)" font-family="Sans" font-size="152.778" font-weight="400" font-style="normal">
<n1:polyline fill="none" vector-effect="none" points="4243,2500 4307,2500 "/>
</n1:g>

<n1:g fill="#00b400" fill-opacity="1" stroke="none" transform="matrix(1,0,0,1,-4025,-2420)" font-family="Sans" font-size="152.778" font-weight="400" font-style="normal">
<n1:circle cx="4275" cy="2600" r="32.5"/>
</n1:g>

<n1:g fill="#00b400" fill-opacity="1" stroke="none" transform="matrix(1,0,0,1,-4025,-2420)" font-family="Sans" font-size="152.778" font-weight="400" font-style="normal">
<n1:circle cx="4275" cy="2800" r="32.5"/>
</n1:g>

<n1:g fill="#00b400" fill-opacity="1" stroke="none" transform="matrix(1,0,0,1,-4025,-2420)" font-family="Sans" font-size="152.778" font-weight="400" font-style="normal">
<n1:circle cx="4275" cy="2900" r="32.5"/>
</n1:g>

<n1:g fill="#00b400" fill-opacity="1" stroke="none" transform="matrix(1,0,0,1,-4025,-2420)" font-family="Sans" font-size="152.778" font-weight="400" font-style="normal">
<n1:circle cx="4275" cy="3000" r="32.5"/>
</n1:g>

<n1:g fill="#ff0000" fill-opacity="1" stroke="none" transform="matrix(1,0,0,1,-4025,-2420)" font-family="Sans" font-size="152.778" font-weight="400" font-style="normal">
<n1:circle cx="4275" cy="2700" r="32.5"/>
</n1:g>

<n1:g fill="#ff0000" fill-opacity="1" stroke="#ff0000" stroke-opacity="1" stroke-width="65" stroke-linecap="butt" stroke-linejoin="bevel" transform="matrix(1,0,0,1,-4025,-2420)" font-family="Sans" font-size="152.778" font-weight="400" font-style="normal">
<n1:polyline fill="none" vector-effect="none" points="4243,2500 4307,2500 "/>
</n1:g>

<n1:g fill="#ff0000" fill-opacity="1" stroke="none" transform="matrix(1,0,0,1,-4025,-2420)" font-family="Sans" font-size="152.778" font-weight="400" font-style="normal">
<n1:circle cx="4275" cy="2600" r="32.5"/>
</n1:g>

<n1:g fill="#ff0000" fill-opacity="1" stroke="none" transform="matrix(1,0,0,1,-4025,-2420)" font-family="Sans" font-size="152.778" font-weight="400" font-style="normal">
<n1:circle cx="4275" cy="2800" r="32.5"/>
</n1:g>

<n1:g fill="#ff0000" fill-opacity="1" stroke="none" transform="matrix(1,0,0,1,-4025,-2420)" font-family="Sans" font-size="152.778" font-weight="400" font-style="normal">
<n1:circle cx="4275" cy="2900" r="32.5"/>
</n1:g>

<n1:g fill="#ff0000" fill-opacity="1" stroke="none" transform="matrix(1,0,0,1,-4025,-2420)" font-family="Sans" font-size="152.778" font-weight="400" font-style="normal">
<n1:circle cx="4275" cy="3000" r="32.5"/>
</n1:g>

<n1:g fill="#ffffff" fill-opacity="1" stroke="none" transform="matrix(1,0,0,1,-4025,-2420)" font-family="Sans" font-size="152.778" font-weight="400" font-style="normal">
<n1:circle cx="4275" cy="2700" r="20"/>
</n1:g>

<n1:g fill="#ffffff" fill-opacity="1" stroke="none" transform="matrix(1,0,0,1,-4025,-2420)" font-family="Sans" font-size="152.778" font-weight="400" font-style="normal">
<n1:circle cx="4275" cy="2500" r="20"/>
</n1:g>

<n1:g fill="#ffffff" fill-opacity="1" stroke="none" transform="matrix(1,0,0,1,-4025,-2420)" font-family="Sans" font-size="152.778" font-weight="400" font-style="normal">
<n1:circle cx="4275" cy="2600" r="20"/>
</n1:g>

<n1:g fill="#ffffff" fill-opacity="1" stroke="none" transform="matrix(1,0,0,1,-4025,-2420)" font-family="Sans" font-size="152.778" font-weight="400" font-style="normal">
<n1:circle cx="4275" cy="2800" r="20"/>
</n1:g>

<n1:g fill="#ffffff" fill-opacity="1" stroke="none" transform="matrix(1,0,0,1,-4025,-2420)" font-family="Sans" font-size="152.778" font-weight="400" font-style="normal">
<n1:circle cx="4275" cy="2900" r="20"/>
</n1:g>

<n1:g fill="#ffffff" fill-opacity="1" stroke="none" transform="matrix(1,0,0,1,-4025,-2420)" font-family="Sans" font-size="152.778" font-weight="400" font-style="normal">
<n1:circle cx="4275" cy="3000" r="20"/>
</n1:g>

<n1:g fill="#ffffff" fill-opacity="1" stroke="#f0f000" stroke-opacity="1" stroke-width="10" stroke-linecap="round" stroke-linejoin="bevel" transform="matrix(1,0,0,1,-4025,-2420)" font-family="Sans" font-size="152.778" font-weight="400" font-style="normal">
<n1:polyline fill="none" vector-effect="none" points="4225,2450 4225,3050 "/>
<n1:polyline fill="none" vector-effect="none" points="4325,3050 4325,2450 "/>
<n1:polyline fill="none" vector-effect="none" points="4225,3050 4325,3050 "/>
<n1:polyline fill="none" vector-effect="none" points="4325,2450 4225,2450 "/>
</n1:g>
</n1:g>
</svg>
