<?xml version="1.0" encoding="UTF-8"?>
<svg width="12.7mm" height="21.844mm" viewBox="0 0 500 860" version="1.2" baseProfile="tiny" xmlns:n1="http://www.w3.org/2000/svg" xmlns:xlink="http://www.w3.org/1999/xlink" xmlns:cpcb="http://www.danielwagenaar.net/cpcb-ns.html">
  <cpcb:part pkg="Header-8" xmlns="http://www.danielwagenaar.net/cpcb-ns.html">
    <group ref="J?">
      <hole p="368300 279400" id="10160" od="16510" sq="0" ref="3"/>
      <trace p1="355600 215900" p2="355600 419100" w="2540" l="1"/>
      <hole p="368300 228600" id="10160" od="16510" sq="1" ref="1"/>
      <hole p="368300 254000" id="10160" od="16510" sq="0" ref="2"/>
      <trace p1="381000 419100" p2="381000 215900" w="2540" l="1"/>
      <trace p1="355600 419100" p2="381000 419100" w="2540" l="1"/>
      <trace p1="381000 215900" p2="355600 215900" w="2540" l="1"/>
      <hole p="368300 304800" id="10160" od="16510" sq="0" ref="4"/>
      <hole p="368300 330200" id="10160" od="16510" sq="0" ref="5"/>
      <hole p="368300 406400" id="10160" od="16510" sq="0" ref="8"/>
      <hole p="368300 355600" id="10160" od="16510" sq="0" ref="6"/>
      <hole p="368300 381000" id="10160" od="16510" sq="0" ref="7"/>
    </group>
    <text p="354330 201930" fs="12700" l="1" rot="0" text="J?"/>
  </cpcb:part>
<n1:title>PCB Component</n1:title>
<n1:desc>Generated by CPCB</n1:desc>
<n1:defs>
</n1:defs>
<n1:g fill="none" stroke="black" stroke-width="1" fill-rule="evenodd" stroke-linecap="square" stroke-linejoin="bevel">

<n1:g fill="#000000" fill-opacity="1" stroke="none" transform="matrix(1,0,0,1,-1200,-820)" font-family="Sans" font-size="152.778" font-weight="400" font-style="normal">
<n1:rect x="1200" y="820" width="500" height="860"/>
</n1:g>

<n1:g fill="#00b400" fill-opacity="1" stroke="none" transform="matrix(1,0,0,1,-1200,-820)" font-family="Sans" font-size="152.778" font-weight="400" font-style="normal">
<n1:circle cx="1450" cy="1100" r="32.5"/>
</n1:g>

<n1:g fill="#00b400" fill-opacity="1" stroke="#00b400" stroke-opacity="1" stroke-width="65" stroke-linecap="butt" stroke-linejoin="bevel" transform="matrix(1,0,0,1,-1200,-820)" font-family="Sans" font-size="152.778" font-weight="400" font-style="normal">
<n1:polyline fill="none" vector-effect="none" points="1418,900 1482,900 "/>
</n1:g>

<n1:g fill="#00b400" fill-opacity="1" stroke="none" transform="matrix(1,0,0,1,-1200,-820)" font-family="Sans" font-size="152.778" font-weight="400" font-style="normal">
<n1:circle cx="1450" cy="1000" r="32.5"/>
</n1:g>

<n1:g fill="#00b400" fill-opacity="1" stroke="none" transform="matrix(1,0,0,1,-1200,-820)" font-family="Sans" font-size="152.778" font-weight="400" font-style="normal">
<n1:circle cx="1450" cy="1200" r="32.5"/>
</n1:g>

<n1:g fill="#00b400" fill-opacity="1" stroke="none" transform="matrix(1,0,0,1,-1200,-820)" font-family="Sans" font-size="152.778" font-weight="400" font-style="normal">
<n1:circle cx="1450" cy="1300" r="32.5"/>
</n1:g>

<n1:g fill="#00b400" fill-opacity="1" stroke="none" transform="matrix(1,0,0,1,-1200,-820)" font-family="Sans" font-size="152.778" font-weight="400" font-style="normal">
<n1:circle cx="1450" cy="1600" r="32.5"/>
</n1:g>

<n1:g fill="#00b400" fill-opacity="1" stroke="none" transform="matrix(1,0,0,1,-1200,-820)" font-family="Sans" font-size="152.778" font-weight="400" font-style="normal">
<n1:circle cx="1450" cy="1400" r="32.5"/>
</n1:g>

<n1:g fill="#00b400" fill-opacity="1" stroke="none" transform="matrix(1,0,0,1,-1200,-820)" font-family="Sans" font-size="152.778" font-weight="400" font-style="normal">
<n1:circle cx="1450" cy="1500" r="32.5"/>
</n1:g>

<n1:g fill="#ff0000" fill-opacity="1" stroke="none" transform="matrix(1,0,0,1,-1200,-820)" font-family="Sans" font-size="152.778" font-weight="400" font-style="normal">
<n1:circle cx="1450" cy="1100" r="32.5"/>
</n1:g>

<n1:g fill="#ff0000" fill-opacity="1" stroke="#ff0000" stroke-opacity="1" stroke-width="65" stroke-linecap="butt" stroke-linejoin="bevel" transform="matrix(1,0,0,1,-1200,-820)" font-family="Sans" font-size="152.778" font-weight="400" font-style="normal">
<n1:polyline fill="none" vector-effect="none" points="1418,900 1482,900 "/>
</n1:g>

<n1:g fill="#ff0000" fill-opacity="1" stroke="none" transform="matrix(1,0,0,1,-1200,-820)" font-family="Sans" font-size="152.778" font-weight="400" font-style="normal">
<n1:circle cx="1450" cy="1000" r="32.5"/>
</n1:g>

<n1:g fill="#ff0000" fill-opacity="1" stroke="none" transform="matrix(1,0,0,1,-1200,-820)" font-family="Sans" font-size="152.778" font-weight="400" font-style="normal">
<n1:circle cx="1450" cy="1200" r="32.5"/>
</n1:g>

<n1:g fill="#ff0000" fill-opacity="1" stroke="none" transform="matrix(1,0,0,1,-1200,-820)" font-family="Sans" font-size="152.778" font-weight="400" font-style="normal">
<n1:circle cx="1450" cy="1300" r="32.5"/>
</n1:g>

<n1:g fill="#ff0000" fill-opacity="1" stroke="none" transform="matrix(1,0,0,1,-1200,-820)" font-family="Sans" font-size="152.778" font-weight="400" font-style="normal">
<n1:circle cx="1450" cy="1600" r="32.5"/>
</n1:g>

<n1:g fill="#ff0000" fill-opacity="1" stroke="none" transform="matrix(1,0,0,1,-1200,-820)" font-family="Sans" font-size="152.778" font-weight="400" font-style="normal">
<n1:circle cx="1450" cy="1400" r="32.5"/>
</n1:g>

<n1:g fill="#ff0000" fill-opacity="1" stroke="none" transform="matrix(1,0,0,1,-1200,-820)" font-family="Sans" font-size="152.778" font-weight="400" font-style="normal">
<n1:circle cx="1450" cy="1500" r="32.5"/>
</n1:g>

<n1:g fill="#000000" fill-opacity="1" stroke="none" transform="matrix(1,0,0,1,-1200,-820)" font-family="Sans" font-size="152.778" font-weight="400" font-style="normal">
<n1:circle cx="1450" cy="1100" r="20"/>
</n1:g>

<n1:g fill="#000000" fill-opacity="1" stroke="none" transform="matrix(1,0,0,1,-1200,-820)" font-family="Sans" font-size="152.778" font-weight="400" font-style="normal">
<n1:circle cx="1450" cy="900" r="20"/>
</n1:g>

<n1:g fill="#000000" fill-opacity="1" stroke="none" transform="matrix(1,0,0,1,-1200,-820)" font-family="Sans" font-size="152.778" font-weight="400" font-style="normal">
<n1:circle cx="1450" cy="1000" r="20"/>
</n1:g>

<n1:g fill="#000000" fill-opacity="1" stroke="none" transform="matrix(1,0,0,1,-1200,-820)" font-family="Sans" font-size="152.778" font-weight="400" font-style="normal">
<n1:circle cx="1450" cy="1200" r="20"/>
</n1:g>

<n1:g fill="#000000" fill-opacity="1" stroke="none" transform="matrix(1,0,0,1,-1200,-820)" font-family="Sans" font-size="152.778" font-weight="400" font-style="normal">
<n1:circle cx="1450" cy="1300" r="20"/>
</n1:g>

<n1:g fill="#000000" fill-opacity="1" stroke="none" transform="matrix(1,0,0,1,-1200,-820)" font-family="Sans" font-size="152.778" font-weight="400" font-style="normal">
<n1:circle cx="1450" cy="1600" r="20"/>
</n1:g>

<n1:g fill="#000000" fill-opacity="1" stroke="none" transform="matrix(1,0,0,1,-1200,-820)" font-family="Sans" font-size="152.778" font-weight="400" font-style="normal">
<n1:circle cx="1450" cy="1400" r="20"/>
</n1:g>

<n1:g fill="#000000" fill-opacity="1" stroke="none" transform="matrix(1,0,0,1,-1200,-820)" font-family="Sans" font-size="152.778" font-weight="400" font-style="normal">
<n1:circle cx="1450" cy="1500" r="20"/>
</n1:g>

<n1:g fill="#000000" fill-opacity="1" stroke="#f0f000" stroke-opacity="1" stroke-width="10" stroke-linecap="round" stroke-linejoin="bevel" transform="matrix(1,0,0,1,-1200,-820)" font-family="Sans" font-size="152.778" font-weight="400" font-style="normal">
<n1:polyline fill="none" vector-effect="none" points="1400,850 1400,1650 "/>
<n1:polyline fill="none" vector-effect="none" points="1500,1650 1500,850 "/>
<n1:polyline fill="none" vector-effect="none" points="1400,1650 1500,1650 "/>
<n1:polyline fill="none" vector-effect="none" points="1500,850 1400,850 "/>
</n1:g>
</n1:g>
</svg>
