<?xml version="1.0" encoding="UTF-8"?>
<svg width="12.7mm" height="16.2814mm" viewBox="0 0 500 641.102" version="1.2" baseProfile="tiny" xmlns:n1="http://www.w3.org/2000/svg" xmlns:xlink="http://www.w3.org/1999/xlink" xmlns:cpcb="http://www.danielwagenaar.net/cpcb-ns.html">
  <cpcb:part pkg="Lumberg-1" xmlns="http://www.danielwagenaar.net/cpcb-ns.html">
    <group ref="J?" pkg="Lumberg-1">
      <hole p="743500 255100" id="10160" od="17780" ref="3/A" sl="15240"/>
      <trace p1="708500 115100" p2="778500 115100" w="2500" l="1"/>
      <trace p1="778500 115100" p2="778500 135100" w="2500" l="1"/>
      <trace p1="798500 135100" p2="798500 260100" w="2500" l="1"/>
      <trace p1="798500 260100" p2="688500 260100" w="2500" l="1"/>
      <trace p1="688500 260100" p2="688500 135100" w="2500" l="1"/>
      <trace p1="708500 135100" p2="708500 115100" w="2500" l="1"/>
      <hole p="698500 225100" id="10160" od="17780" ref="2/switch" sl="15240" rot="90"/>
      <hole p="768500 165100" id="17780" od="21590" ref=""/>
      <hole p="718500 165100" id="17780" od="21590" ref=""/>
      <trace p1="688500 135100" p2="798500 135100" w="2500" l="1"/>
      <hole p="743500 195100" id="10160" od="17780" ref="1/K" sl="15240"/>
    </group>
    <text p="660600 151950" fs="12700" l="1" rot="0" text="J?"/>
  </cpcb:part>
<n1:title>PCB Component</n1:title>
<n1:desc>Generated by CPCB</n1:desc>
<n1:defs>
</n1:defs>
<n1:g fill="none" stroke="black" stroke-width="1" fill-rule="evenodd" stroke-linecap="square" stroke-linejoin="bevel">

<n1:g fill="#000000" fill-opacity="1" stroke="none" transform="matrix(1,0,0,1,-2677.17,-423.228)" font-family="Sans" font-size="152.778" font-weight="400" font-style="normal">
<n1:rect x="2677.17" y="423.228" width="500" height="641.102"/>
</n1:g>

<n1:g fill="#000000" fill-opacity="1" stroke="#00b400" stroke-opacity="1" stroke-width="70" stroke-linecap="round" stroke-linejoin="bevel" transform="matrix(1,0,0,1,-2677.17,-423.228)" font-family="Sans" font-size="152.778" font-weight="400" font-style="normal">
<n1:polyline fill="none" vector-effect="none" points="2897.17,1004.33 2957.17,1004.33 "/>
<n1:polyline fill="none" vector-effect="none" points="2750,856.22 2750,916.22 "/>
</n1:g>

<n1:g fill="#00b400" fill-opacity="1" stroke="none" transform="matrix(1,0,0,1,-2677.17,-423.228)" font-family="Sans" font-size="152.778" font-weight="400" font-style="normal">
<n1:circle cx="3025.59" cy="650" r="42.5"/>
</n1:g>

<n1:g fill="#00b400" fill-opacity="1" stroke="none" transform="matrix(1,0,0,1,-2677.17,-423.228)" font-family="Sans" font-size="152.778" font-weight="400" font-style="normal">
<n1:circle cx="2828.74" cy="650" r="42.5"/>
</n1:g>

<n1:g fill="#00b400" fill-opacity="1" stroke="#00b400" stroke-opacity="1" stroke-width="70" stroke-linecap="round" stroke-linejoin="bevel" transform="matrix(1,0,0,1,-2677.17,-423.228)" font-family="Sans" font-size="152.778" font-weight="400" font-style="normal">
<n1:polyline fill="none" vector-effect="none" points="2897.17,768.11 2957.17,768.11 "/>
</n1:g>

<n1:g fill="#00b400" fill-opacity="1" stroke="#ff0000" stroke-opacity="1" stroke-width="70" stroke-linecap="round" stroke-linejoin="bevel" transform="matrix(1,0,0,1,-2677.17,-423.228)" font-family="Sans" font-size="152.778" font-weight="400" font-style="normal">
<n1:polyline fill="none" vector-effect="none" points="2897.17,1004.33 2957.17,1004.33 "/>
<n1:polyline fill="none" vector-effect="none" points="2750,856.22 2750,916.22 "/>
</n1:g>

<n1:g fill="#ff0000" fill-opacity="1" stroke="none" transform="matrix(1,0,0,1,-2677.17,-423.228)" font-family="Sans" font-size="152.778" font-weight="400" font-style="normal">
<n1:circle cx="3025.59" cy="650" r="42.5"/>
</n1:g>

<n1:g fill="#ff0000" fill-opacity="1" stroke="none" transform="matrix(1,0,0,1,-2677.17,-423.228)" font-family="Sans" font-size="152.778" font-weight="400" font-style="normal">
<n1:circle cx="2828.74" cy="650" r="42.5"/>
</n1:g>

<n1:g fill="#ff0000" fill-opacity="1" stroke="#ff0000" stroke-opacity="1" stroke-width="70" stroke-linecap="round" stroke-linejoin="bevel" transform="matrix(1,0,0,1,-2677.17,-423.228)" font-family="Sans" font-size="152.778" font-weight="400" font-style="normal">
<n1:polyline fill="none" vector-effect="none" points="2897.17,768.11 2957.17,768.11 "/>
</n1:g>

<n1:g fill="#ff0000" fill-opacity="1" stroke="#ffffff" stroke-opacity="1" stroke-width="40" stroke-linecap="round" stroke-linejoin="bevel" transform="matrix(1,0,0,1,-2677.17,-423.228)" font-family="Sans" font-size="152.778" font-weight="400" font-style="normal">
<n1:polyline fill="none" vector-effect="none" points="2897.17,1004.33 2957.17,1004.33 "/>
<n1:polyline fill="none" vector-effect="none" points="2750,856.22 2750,916.22 "/>
</n1:g>

<n1:g fill="#ffffff" fill-opacity="1" stroke="none" transform="matrix(1,0,0,1,-2677.17,-423.228)" font-family="Sans" font-size="152.778" font-weight="400" font-style="normal">
<n1:circle cx="3025.59" cy="650" r="35"/>
</n1:g>

<n1:g fill="#ffffff" fill-opacity="1" stroke="none" transform="matrix(1,0,0,1,-2677.17,-423.228)" font-family="Sans" font-size="152.778" font-weight="400" font-style="normal">
<n1:circle cx="2828.74" cy="650" r="35"/>
</n1:g>

<n1:g fill="#ffffff" fill-opacity="1" stroke="#ffffff" stroke-opacity="1" stroke-width="40" stroke-linecap="round" stroke-linejoin="bevel" transform="matrix(1,0,0,1,-2677.17,-423.228)" font-family="Sans" font-size="152.778" font-weight="400" font-style="normal">
<n1:polyline fill="none" vector-effect="none" points="2897.17,768.11 2957.17,768.11 "/>
</n1:g>

<n1:g fill="#ffffff" fill-opacity="1" stroke="#f0f000" stroke-opacity="1" stroke-width="9.84252" stroke-linecap="round" stroke-linejoin="bevel" transform="matrix(1,0,0,1,-2677.17,-423.228)" font-family="Sans" font-size="152.778" font-weight="400" font-style="normal">
<n1:polyline fill="none" vector-effect="none" points="2789.37,453.15 3064.96,453.15 "/>
<n1:polyline fill="none" vector-effect="none" points="3064.96,453.15 3064.96,531.89 "/>
<n1:polyline fill="none" vector-effect="none" points="3143.7,531.89 3143.7,1024.02 "/>
<n1:polyline fill="none" vector-effect="none" points="3143.7,1024.02 2710.63,1024.02 "/>
<n1:polyline fill="none" vector-effect="none" points="2710.63,1024.02 2710.63,531.89 "/>
<n1:polyline fill="none" vector-effect="none" points="2789.37,531.89 2789.37,453.15 "/>
<n1:polyline fill="none" vector-effect="none" points="2710.63,531.89 3143.7,531.89 "/>
</n1:g>
</n1:g>
</svg>
