<?xml version="1.0" encoding="UTF-8"?>
<svg width="125.197mm" height="162.839mm" viewBox="0 0 492.913 641.102" version="1.2" baseProfile="tiny" xmlns:n1="http://www.w3.org/2000/svg" xmlns:xlink="http://www.w3.org/1999/xlink" xmlns:cpcb="http://www.danielwagenaar.net/cpcb-ns.html">
  <cpcb:part pkg="Lumberg-1.45" notes="Adam Tech ADC-039-6" xmlns="http://www.danielwagenaar.net/cpcb-ns.html">
    <group ref="J?" pkg="Lumberg-1.45" notes="Adam Tech ADC-039-6">
      <hole p="420000 175000" id="10160" od="17780" ref="3/A" sl="15240"/>
      <trace p1="385000 35000" p2="455000 35000" w="2500" l="1"/>
      <trace p1="455000 35000" p2="455000 55000" w="2500" l="1"/>
      <trace p1="475000 55000" p2="475000 180000" w="2500" l="1"/>
      <trace p1="475000 180000" p2="365000 180000" w="2500" l="1"/>
      <trace p1="365000 180000" p2="365000 55000" w="2500" l="1"/>
      <trace p1="385000 55000" p2="385000 35000" w="2500" l="1"/>
      <hole p="375000 145000" id="10160" od="17780" ref="2/switch" sl="15240" rot="90"/>
      <hole p="445000 85000" id="17780" od="21590" ref=""/>
      <hole p="395000 85000" id="17780" od="21590" ref=""/>
      <trace p1="365000 55000" p2="475000 55000" w="2500" l="1"/>
      <hole p="420000 115000" id="10160" od="17780" ref="1/K" sl="15240"/>
    </group>
    <text p="337100 71850" fs="12700" l="1" rot="0" text="J?"/>
  </cpcb:part>
<n1:title>PCB Component</n1:title>
<n1:desc>Generated by CPCB</n1:desc>
<n1:defs>
</n1:defs>
<n1:g fill="none" stroke="black" stroke-width="1" fill-rule="evenodd" stroke-linecap="square" stroke-linejoin="bevel">

<n1:g fill="#000000" fill-opacity="1" stroke="none" transform="matrix(1,0,0,1,-1407.09,-107.874)" font-family="Sans" font-size="152.778" font-weight="400" font-style="normal">
<n1:rect x="1407.09" y="107.874" width="492.913" height="641.102"/>
</n1:g>

<n1:g fill="#000000" fill-opacity="1" stroke="#00b400" stroke-opacity="1" stroke-width="70" stroke-linecap="round" stroke-linejoin="bevel" transform="matrix(1,0,0,1,-1407.09,-107.874)" font-family="Sans" font-size="152.778" font-weight="400" font-style="normal">
<n1:polyline fill="none" vector-effect="none" points="1623.54,688.976 1683.54,688.976 "/>
<n1:polyline fill="none" vector-effect="none" points="1476.38,540.866 1476.38,600.866 "/>
</n1:g>

<n1:g fill="#00b400" fill-opacity="1" stroke="none" transform="matrix(1,0,0,1,-1407.09,-107.874)" font-family="Sans" font-size="152.778" font-weight="400" font-style="normal">
<n1:circle cx="1751.97" cy="334.646" r="42.5"/>
</n1:g>

<n1:g fill="#00b400" fill-opacity="1" stroke="none" transform="matrix(1,0,0,1,-1407.09,-107.874)" font-family="Sans" font-size="152.778" font-weight="400" font-style="normal">
<n1:circle cx="1555.12" cy="334.646" r="42.5"/>
</n1:g>

<n1:g fill="#00b400" fill-opacity="1" stroke="#00b400" stroke-opacity="1" stroke-width="70" stroke-linecap="round" stroke-linejoin="bevel" transform="matrix(1,0,0,1,-1407.09,-107.874)" font-family="Sans" font-size="152.778" font-weight="400" font-style="normal">
<n1:polyline fill="none" vector-effect="none" points="1623.54,452.756 1683.54,452.756 "/>
</n1:g>

<n1:g fill="#00b400" fill-opacity="1" stroke="#ff0000" stroke-opacity="1" stroke-width="70" stroke-linecap="round" stroke-linejoin="bevel" transform="matrix(1,0,0,1,-1407.09,-107.874)" font-family="Sans" font-size="152.778" font-weight="400" font-style="normal">
<n1:polyline fill="none" vector-effect="none" points="1623.54,688.976 1683.54,688.976 "/>
<n1:polyline fill="none" vector-effect="none" points="1476.38,540.866 1476.38,600.866 "/>
</n1:g>

<n1:g fill="#ff0000" fill-opacity="1" stroke="none" transform="matrix(1,0,0,1,-1407.09,-107.874)" font-family="Sans" font-size="152.778" font-weight="400" font-style="normal">
<n1:circle cx="1751.97" cy="334.646" r="42.5"/>
</n1:g>

<n1:g fill="#ff0000" fill-opacity="1" stroke="none" transform="matrix(1,0,0,1,-1407.09,-107.874)" font-family="Sans" font-size="152.778" font-weight="400" font-style="normal">
<n1:circle cx="1555.12" cy="334.646" r="42.5"/>
</n1:g>

<n1:g fill="#ff0000" fill-opacity="1" stroke="#ff0000" stroke-opacity="1" stroke-width="70" stroke-linecap="round" stroke-linejoin="bevel" transform="matrix(1,0,0,1,-1407.09,-107.874)" font-family="Sans" font-size="152.778" font-weight="400" font-style="normal">
<n1:polyline fill="none" vector-effect="none" points="1623.54,452.756 1683.54,452.756 "/>
</n1:g>

<n1:g fill="#ff0000" fill-opacity="1" stroke="#000000" stroke-opacity="1" stroke-width="40" stroke-linecap="round" stroke-linejoin="bevel" transform="matrix(1,0,0,1,-1407.09,-107.874)" font-family="Sans" font-size="152.778" font-weight="400" font-style="normal">
<n1:polyline fill="none" vector-effect="none" points="1623.54,688.976 1683.54,688.976 "/>
<n1:polyline fill="none" vector-effect="none" points="1476.38,540.866 1476.38,600.866 "/>
</n1:g>

<n1:g fill="#000000" fill-opacity="1" stroke="none" transform="matrix(1,0,0,1,-1407.09,-107.874)" font-family="Sans" font-size="152.778" font-weight="400" font-style="normal">
<n1:circle cx="1751.97" cy="334.646" r="35"/>
</n1:g>

<n1:g fill="#000000" fill-opacity="1" stroke="none" transform="matrix(1,0,0,1,-1407.09,-107.874)" font-family="Sans" font-size="152.778" font-weight="400" font-style="normal">
<n1:circle cx="1555.12" cy="334.646" r="35"/>
</n1:g>

<n1:g fill="#000000" fill-opacity="1" stroke="#000000" stroke-opacity="1" stroke-width="40" stroke-linecap="round" stroke-linejoin="bevel" transform="matrix(1,0,0,1,-1407.09,-107.874)" font-family="Sans" font-size="152.778" font-weight="400" font-style="normal">
<n1:polyline fill="none" vector-effect="none" points="1623.54,452.756 1683.54,452.756 "/>
</n1:g>

<n1:g fill="#000000" fill-opacity="1" stroke="#f0f000" stroke-opacity="1" stroke-width="9.84252" stroke-linecap="round" stroke-linejoin="bevel" transform="matrix(1,0,0,1,-1407.09,-107.874)" font-family="Sans" font-size="152.778" font-weight="400" font-style="normal">
<n1:polyline fill="none" vector-effect="none" points="1515.75,137.795 1791.34,137.795 "/>
<n1:polyline fill="none" vector-effect="none" points="1791.34,137.795 1791.34,216.535 "/>
<n1:polyline fill="none" vector-effect="none" points="1870.08,216.535 1870.08,708.661 "/>
<n1:polyline fill="none" vector-effect="none" points="1870.08,708.661 1437.01,708.661 "/>
<n1:polyline fill="none" vector-effect="none" points="1437.01,708.661 1437.01,216.535 "/>
<n1:polyline fill="none" vector-effect="none" points="1515.75,216.535 1515.75,137.795 "/>
<n1:polyline fill="none" vector-effect="none" points="1437.01,216.535 1870.08,216.535 "/>
</n1:g>
</n1:g>
</svg>
