<?xml version="1.0" encoding="UTF-8"?>
<svg width="167.691mm" height="256.235mm" viewBox="0 0 660.236 1008.82" version="1.2" baseProfile="tiny" xmlns:n1="http://www.w3.org/2000/svg" xmlns:xlink="http://www.w3.org/1999/xlink" xmlns:cpcb="http://www.danielwagenaar.net/cpcb-ns.html">
  <cpcb:part pkg="MiniDIN8-MDJ-008-FS" xmlns="http://www.danielwagenaar.net/cpcb-ns.html">
    <group ref="J?" pkg="MiniDIN8-MDJ-008-FS">
      <hole p="-34000 85000" id="9000" od="13000" ref="3"/>
      <hole p="-67500 55000" id="7500" od="20000" ref="9" sl="15500" rot="90"/>
      <nphole p="0 47000" d="22000"/>
      <arc p="0 -65000" r="46000" lw="2540" l="4" ang="360" rota="180"/>
      <hole p="67500 55000" id="7500" od="20000" ref="10" sl="15500" rot="90"/>
      <trace p1="-70000 0" p2="-70000 130000" w="2540" l="1"/>
      <trace p1="-70000 0" p2="70000 0" w="2540" l="1"/>
      <trace p1="70000 130000" p2="70000 0" w="2540" l="1"/>
      <trace p1="-70000 130000" p2="70000 130000" w="2540" l="1"/>
      <hole p="-13000 110000" id="9000" od="13000" ref="4"/>
      <hole p="9000 110000" id="9000" od="13000" ref="7"/>
      <hole p="34000 110000" id="9000" od="13000" ref="8"/>
      <hole p="-34000 110000" id="9000" od="13000" ref=""/>
      <hole p="-13000 85000" id="9000" od="13000" ref="1"/>
      <hole p="13000 85000" id="9000" od="13000" ref="2"/>
      <hole p="34000 85000" id="9000" od="13000" ref="5"/>
    </group>
    <text p="87500 10030" fs="12700" l="1" rot="0" text="J?"/>
  </cpcb:part>
<n1:title>PCB Component</n1:title>
<n1:desc>Generated by CPCB</n1:desc>
<n1:defs>
</n1:defs>
<n1:g fill="none" stroke="black" stroke-width="1" fill-rule="evenodd" stroke-linecap="square" stroke-linejoin="bevel">

<n1:g fill="#000000" fill-opacity="1" stroke="none" transform="matrix(1,0,0,1,330.118,467.008)" font-family="Ubuntu" font-size="152.778" font-weight="400" font-style="normal">
<n1:rect x="-330.118" y="-467.008" width="660.236" height="1008.82"/>
</n1:g>

<n1:g fill="#00b400" fill-opacity="1" stroke="none" transform="matrix(1,0,0,1,330.118,467.008)" font-family="Ubuntu" font-size="152.778" font-weight="400" font-style="normal">
<n1:circle cx="-133.858" cy="334.646" r="25.5906"/>
</n1:g>

<n1:g fill="#00b400" fill-opacity="1" stroke="#00b400" stroke-opacity="1" stroke-width="78.7402" stroke-linecap="round" stroke-linejoin="bevel" transform="matrix(1,0,0,1,330.118,467.008)" font-family="Ubuntu" font-size="152.778" font-weight="400" font-style="normal">
<n1:polyline fill="none" vector-effect="none" points="-265.748,186.535 -265.748,246.535 "/>
<n1:polyline fill="none" vector-effect="none" points="265.748,186.535 265.748,246.535 "/>
</n1:g>

<n1:g fill="#00b400" fill-opacity="1" stroke="none" transform="matrix(1,0,0,1,330.118,467.008)" font-family="Ubuntu" font-size="152.778" font-weight="400" font-style="normal">
<n1:circle cx="-51.1811" cy="433.071" r="25.5906"/>
</n1:g>

<n1:g fill="#00b400" fill-opacity="1" stroke="none" transform="matrix(1,0,0,1,330.118,467.008)" font-family="Ubuntu" font-size="152.778" font-weight="400" font-style="normal">
<n1:circle cx="35.4331" cy="433.071" r="25.5906"/>
</n1:g>

<n1:g fill="#00b400" fill-opacity="1" stroke="none" transform="matrix(1,0,0,1,330.118,467.008)" font-family="Ubuntu" font-size="152.778" font-weight="400" font-style="normal">
<n1:circle cx="133.858" cy="433.071" r="25.5906"/>
</n1:g>

<n1:g fill="#00b400" fill-opacity="1" stroke="none" transform="matrix(1,0,0,1,330.118,467.008)" font-family="Ubuntu" font-size="152.778" font-weight="400" font-style="normal">
<n1:circle cx="-133.858" cy="433.071" r="25.5906"/>
</n1:g>

<n1:g fill="#00b400" fill-opacity="1" stroke="none" transform="matrix(1,0,0,1,330.118,467.008)" font-family="Ubuntu" font-size="152.778" font-weight="400" font-style="normal">
<n1:circle cx="-51.1811" cy="334.646" r="25.5906"/>
</n1:g>

<n1:g fill="#00b400" fill-opacity="1" stroke="none" transform="matrix(1,0,0,1,330.118,467.008)" font-family="Ubuntu" font-size="152.778" font-weight="400" font-style="normal">
<n1:circle cx="51.1811" cy="334.646" r="25.5906"/>
</n1:g>

<n1:g fill="#00b400" fill-opacity="1" stroke="none" transform="matrix(1,0,0,1,330.118,467.008)" font-family="Ubuntu" font-size="152.778" font-weight="400" font-style="normal">
<n1:circle cx="133.858" cy="334.646" r="25.5906"/>
</n1:g>

<n1:g fill="#ff0000" fill-opacity="1" stroke="none" transform="matrix(1,0,0,1,330.118,467.008)" font-family="Ubuntu" font-size="152.778" font-weight="400" font-style="normal">
<n1:circle cx="-133.858" cy="334.646" r="25.5906"/>
</n1:g>

<n1:g fill="#ff0000" fill-opacity="1" stroke="#ff0000" stroke-opacity="1" stroke-width="78.7402" stroke-linecap="round" stroke-linejoin="bevel" transform="matrix(1,0,0,1,330.118,467.008)" font-family="Ubuntu" font-size="152.778" font-weight="400" font-style="normal">
<n1:polyline fill="none" vector-effect="none" points="-265.748,186.535 -265.748,246.535 "/>
<n1:polyline fill="none" vector-effect="none" points="265.748,186.535 265.748,246.535 "/>
</n1:g>

<n1:g fill="#ff0000" fill-opacity="1" stroke="none" transform="matrix(1,0,0,1,330.118,467.008)" font-family="Ubuntu" font-size="152.778" font-weight="400" font-style="normal">
<n1:circle cx="-51.1811" cy="433.071" r="25.5906"/>
</n1:g>

<n1:g fill="#ff0000" fill-opacity="1" stroke="none" transform="matrix(1,0,0,1,330.118,467.008)" font-family="Ubuntu" font-size="152.778" font-weight="400" font-style="normal">
<n1:circle cx="35.4331" cy="433.071" r="25.5906"/>
</n1:g>

<n1:g fill="#ff0000" fill-opacity="1" stroke="none" transform="matrix(1,0,0,1,330.118,467.008)" font-family="Ubuntu" font-size="152.778" font-weight="400" font-style="normal">
<n1:circle cx="133.858" cy="433.071" r="25.5906"/>
</n1:g>

<n1:g fill="#ff0000" fill-opacity="1" stroke="none" transform="matrix(1,0,0,1,330.118,467.008)" font-family="Ubuntu" font-size="152.778" font-weight="400" font-style="normal">
<n1:circle cx="-133.858" cy="433.071" r="25.5906"/>
</n1:g>

<n1:g fill="#ff0000" fill-opacity="1" stroke="none" transform="matrix(1,0,0,1,330.118,467.008)" font-family="Ubuntu" font-size="152.778" font-weight="400" font-style="normal">
<n1:circle cx="-51.1811" cy="334.646" r="25.5906"/>
</n1:g>

<n1:g fill="#ff0000" fill-opacity="1" stroke="none" transform="matrix(1,0,0,1,330.118,467.008)" font-family="Ubuntu" font-size="152.778" font-weight="400" font-style="normal">
<n1:circle cx="51.1811" cy="334.646" r="25.5906"/>
</n1:g>

<n1:g fill="#ff0000" fill-opacity="1" stroke="none" transform="matrix(1,0,0,1,330.118,467.008)" font-family="Ubuntu" font-size="152.778" font-weight="400" font-style="normal">
<n1:circle cx="133.858" cy="334.646" r="25.5906"/>
</n1:g>

<n1:g fill="#ffffff" fill-opacity="1" stroke="none" transform="matrix(1,0,0,1,330.118,467.008)" font-family="Ubuntu" font-size="152.778" font-weight="400" font-style="normal">
<n1:circle cx="-133.858" cy="334.646" r="17.7165"/>
</n1:g>

<n1:g fill="#ffffff" fill-opacity="1" stroke="#ffffff" stroke-opacity="1" stroke-width="29.5276" stroke-linecap="round" stroke-linejoin="bevel" transform="matrix(1,0,0,1,330.118,467.008)" font-family="Ubuntu" font-size="152.778" font-weight="400" font-style="normal">
<n1:polyline fill="none" vector-effect="none" points="-265.748,186.535 -265.748,246.535 "/>
</n1:g>

<n1:g fill="#ffffff" fill-opacity="1" stroke="none" transform="matrix(1,0,0,1,330.118,467.008)" font-family="Ubuntu" font-size="152.778" font-weight="400" font-style="normal">
<n1:circle cx="0" cy="185.039" r="43.3071"/>
</n1:g>

<n1:g fill="#ffffff" fill-opacity="1" stroke="#787878" stroke-opacity="1" stroke-width="8" stroke-linecap="butt" stroke-linejoin="bevel" transform="matrix(1,0,0,1,330.118,467.008)" font-family="Ubuntu" font-size="152.778" font-weight="400" font-style="normal">
<n1:polyline fill="none" vector-effect="none" points="3.06227,188.102 27.5605,212.6 "/>
<n1:polyline fill="none" vector-effect="none" points="-3.06227,188.102 -27.5605,212.6 "/>
<n1:polyline fill="none" vector-effect="none" points="-3.06227,181.977 -27.5605,157.479 "/>
<n1:polyline fill="none" vector-effect="none" points="3.06227,181.977 27.5605,157.479 "/>
</n1:g>

<n1:g fill="#ffffff" fill-opacity="1" stroke="#ffffff" stroke-opacity="1" stroke-width="29.5276" stroke-linecap="round" stroke-linejoin="bevel" transform="matrix(1,0,0,1,330.118,467.008)" font-family="Ubuntu" font-size="152.778" font-weight="400" font-style="normal">
<n1:polyline fill="none" vector-effect="none" points="265.748,186.535 265.748,246.535 "/>
</n1:g>

<n1:g fill="#ffffff" fill-opacity="1" stroke="none" transform="matrix(1,0,0,1,330.118,467.008)" font-family="Ubuntu" font-size="152.778" font-weight="400" font-style="normal">
<n1:circle cx="-51.1811" cy="433.071" r="17.7165"/>
</n1:g>

<n1:g fill="#ffffff" fill-opacity="1" stroke="none" transform="matrix(1,0,0,1,330.118,467.008)" font-family="Ubuntu" font-size="152.778" font-weight="400" font-style="normal">
<n1:circle cx="35.4331" cy="433.071" r="17.7165"/>
</n1:g>

<n1:g fill="#ffffff" fill-opacity="1" stroke="none" transform="matrix(1,0,0,1,330.118,467.008)" font-family="Ubuntu" font-size="152.778" font-weight="400" font-style="normal">
<n1:circle cx="133.858" cy="433.071" r="17.7165"/>
</n1:g>

<n1:g fill="#ffffff" fill-opacity="1" stroke="none" transform="matrix(1,0,0,1,330.118,467.008)" font-family="Ubuntu" font-size="152.778" font-weight="400" font-style="normal">
<n1:circle cx="-133.858" cy="433.071" r="17.7165"/>
</n1:g>

<n1:g fill="#ffffff" fill-opacity="1" stroke="none" transform="matrix(1,0,0,1,330.118,467.008)" font-family="Ubuntu" font-size="152.778" font-weight="400" font-style="normal">
<n1:circle cx="-51.1811" cy="334.646" r="17.7165"/>
</n1:g>

<n1:g fill="#ffffff" fill-opacity="1" stroke="none" transform="matrix(1,0,0,1,330.118,467.008)" font-family="Ubuntu" font-size="152.778" font-weight="400" font-style="normal">
<n1:circle cx="51.1811" cy="334.646" r="17.7165"/>
</n1:g>

<n1:g fill="#ffffff" fill-opacity="1" stroke="none" transform="matrix(1,0,0,1,330.118,467.008)" font-family="Ubuntu" font-size="152.778" font-weight="400" font-style="normal">
<n1:circle cx="133.858" cy="334.646" r="17.7165"/>
</n1:g>

<n1:g fill="#ffffff" fill-opacity="1" stroke="#f0f000" stroke-opacity="1" stroke-width="10" stroke-linecap="round" stroke-linejoin="bevel" transform="matrix(1,0,0,1,330.118,467.008)" font-family="Ubuntu" font-size="152.778" font-weight="400" font-style="normal">
<n1:polyline fill="none" vector-effect="none" points="-275.591,0 -275.591,511.811 "/>
<n1:polyline fill="none" vector-effect="none" points="-275.591,0 275.591,0 "/>
<n1:polyline fill="none" vector-effect="none" points="275.591,511.811 275.591,0 "/>
<n1:polyline fill="none" vector-effect="none" points="-275.591,511.811 275.591,511.811 "/>
</n1:g>

<n1:g fill="none" stroke="#9664ff" stroke-opacity="1" stroke-width="10" stroke-linecap="round" stroke-linejoin="bevel" transform="matrix(1,0,0,1,330.118,467.008)" font-family="Ubuntu" font-size="152.778" font-weight="400" font-style="normal">
<n1:path vector-effect="none" fill-rule="evenodd" d="M0,-74.8031 C100.02,-74.8031 181.102,-155.885 181.102,-255.906 C181.102,-355.926 100.02,-437.008 0,-437.008 C-100.02,-437.008 -181.102,-355.926 -181.102,-255.906 C-181.102,-155.885 -100.02,-74.8031 0,-74.8031 "/>
</n1:g>
</n1:g>
</svg>
