<?xml version="1.0" encoding="UTF-8"?>
<svg width="177.698mm" height="202.692mm" viewBox="0 0 699.606 798.031" version="1.2" baseProfile="tiny" xmlns:n1="http://www.w3.org/2000/svg" xmlns:xlink="http://www.w3.org/1999/xlink" xmlns:cpcb="http://www.danielwagenaar.net/cpcb-ns.html">
  <cpcb:part pkg="RJ45-MTJ-889X1-FSE" xmlns="http://www.danielwagenaar.net/cpcb-ns.html">
    <group ref="J?" pkg="RJ45-MTJ-889X1-FSE">
      <pad p="-60000 48800" w="30000" h="20000" l="3" ref="9"/>
      <trace p1="60000 48800" p2="-60000 48800" w="7620" l="3"/>
      <pad p="60000 48800" w="30000" h="20000" l="3" ref=""/>
      <trace p1="80000 185000" p2="-80000 185000" w="5000" l="1"/>
      <trace p1="80000 0" p2="80000 185000" w="5000" l="1"/>
      <nphole p="57150 79300" d="32000"/>
      <hole p="31750 168200" id="9000" od="14000" ref="2"/>
      <hole p="6350 168200" id="9000" od="14000" ref="4"/>
      <hole p="-19100 168200" id="9000" od="14000" ref="6"/>
      <hole p="-44450 168200" id="9000" od="14000" ref="8"/>
      <hole p="19100 142800" id="9000" od="14000" ref="3"/>
      <hole p="44500 142800" id="9000" od="14000" ref="1"/>
      <hole p="-31700 142800" id="9000" od="14000" ref="7"/>
      <trace p1="-80000 185000" p2="-80000 0" w="5000" l="1"/>
      <hole p="-6350 142800" id="9000" od="14000" ref="5"/>
      <nphole p="-57100 79300" d="32000"/>
      <trace p1="-80000 0" p2="80000 0" w="5000" l="1"/>
    </group>
    <text p="52500 199800" fs="12700" l="1" rot="0" text="J?"/>
  </cpcb:part>
<n1:title>PCB Component</n1:title>
<n1:desc>Generated by CPCB</n1:desc>
<n1:defs>
</n1:defs>
<n1:g fill="none" stroke="black" stroke-width="1" fill-rule="evenodd" stroke-linecap="square" stroke-linejoin="bevel">

<n1:g fill="#000000" fill-opacity="1" stroke="none" transform="matrix(1,0,0,1,349.803,34.8425)" font-family="Ubuntu" font-size="152.778" font-weight="400" font-style="normal">
<n1:rect x="-349.803" y="-34.8425" width="699.606" height="798.031"/>
</n1:g>

<n1:g fill="#00b400" fill-opacity="1" stroke="none" transform="matrix(1,0,0,1,349.803,34.8425)" font-family="Ubuntu" font-size="152.778" font-weight="400" font-style="normal">
<n1:rect x="-295.276" y="152.756" width="118.11" height="78.7402"/>
</n1:g>

<n1:g fill="#00b400" fill-opacity="1" stroke="#00b400" stroke-opacity="1" stroke-width="30" stroke-linecap="round" stroke-linejoin="bevel" transform="matrix(1,0,0,1,349.803,34.8425)" font-family="Ubuntu" font-size="152.778" font-weight="400" font-style="normal">
<n1:polyline fill="none" vector-effect="none" points="236.22,192.126 -236.22,192.126 "/>
</n1:g>

<n1:g fill="#00b400" fill-opacity="1" stroke="none" transform="matrix(1,0,0,1,349.803,34.8425)" font-family="Ubuntu" font-size="152.778" font-weight="400" font-style="normal">
<n1:rect x="177.165" y="152.756" width="118.11" height="78.7402"/>
</n1:g>

<n1:g fill="#00b400" fill-opacity="1" stroke="none" transform="matrix(1,0,0,1,349.803,34.8425)" font-family="Ubuntu" font-size="152.778" font-weight="400" font-style="normal">
<n1:circle cx="125" cy="662.205" r="27.5591"/>
</n1:g>

<n1:g fill="#00b400" fill-opacity="1" stroke="none" transform="matrix(1,0,0,1,349.803,34.8425)" font-family="Ubuntu" font-size="152.778" font-weight="400" font-style="normal">
<n1:circle cx="25" cy="662.205" r="27.5591"/>
</n1:g>

<n1:g fill="#00b400" fill-opacity="1" stroke="none" transform="matrix(1,0,0,1,349.803,34.8425)" font-family="Ubuntu" font-size="152.778" font-weight="400" font-style="normal">
<n1:circle cx="-75.1969" cy="662.205" r="27.5591"/>
</n1:g>

<n1:g fill="#00b400" fill-opacity="1" stroke="none" transform="matrix(1,0,0,1,349.803,34.8425)" font-family="Ubuntu" font-size="152.778" font-weight="400" font-style="normal">
<n1:circle cx="-175" cy="662.205" r="27.5591"/>
</n1:g>

<n1:g fill="#00b400" fill-opacity="1" stroke="none" transform="matrix(1,0,0,1,349.803,34.8425)" font-family="Ubuntu" font-size="152.778" font-weight="400" font-style="normal">
<n1:circle cx="75.1969" cy="562.205" r="27.5591"/>
</n1:g>

<n1:g fill="#00b400" fill-opacity="1" stroke="none" transform="matrix(1,0,0,1,349.803,34.8425)" font-family="Ubuntu" font-size="152.778" font-weight="400" font-style="normal">
<n1:circle cx="175.197" cy="562.205" r="27.5591"/>
</n1:g>

<n1:g fill="#00b400" fill-opacity="1" stroke="none" transform="matrix(1,0,0,1,349.803,34.8425)" font-family="Ubuntu" font-size="152.778" font-weight="400" font-style="normal">
<n1:circle cx="-124.803" cy="562.205" r="27.5591"/>
</n1:g>

<n1:g fill="#00b400" fill-opacity="1" stroke="none" transform="matrix(1,0,0,1,349.803,34.8425)" font-family="Ubuntu" font-size="152.778" font-weight="400" font-style="normal">
<n1:circle cx="-25" cy="562.205" r="27.5591"/>
</n1:g>

<n1:g fill="#ff0000" fill-opacity="1" stroke="none" transform="matrix(1,0,0,1,349.803,34.8425)" font-family="Ubuntu" font-size="152.778" font-weight="400" font-style="normal">
<n1:circle cx="125" cy="662.205" r="27.5591"/>
</n1:g>

<n1:g fill="#ff0000" fill-opacity="1" stroke="none" transform="matrix(1,0,0,1,349.803,34.8425)" font-family="Ubuntu" font-size="152.778" font-weight="400" font-style="normal">
<n1:circle cx="25" cy="662.205" r="27.5591"/>
</n1:g>

<n1:g fill="#ff0000" fill-opacity="1" stroke="none" transform="matrix(1,0,0,1,349.803,34.8425)" font-family="Ubuntu" font-size="152.778" font-weight="400" font-style="normal">
<n1:circle cx="-75.1969" cy="662.205" r="27.5591"/>
</n1:g>

<n1:g fill="#ff0000" fill-opacity="1" stroke="none" transform="matrix(1,0,0,1,349.803,34.8425)" font-family="Ubuntu" font-size="152.778" font-weight="400" font-style="normal">
<n1:circle cx="-175" cy="662.205" r="27.5591"/>
</n1:g>

<n1:g fill="#ff0000" fill-opacity="1" stroke="none" transform="matrix(1,0,0,1,349.803,34.8425)" font-family="Ubuntu" font-size="152.778" font-weight="400" font-style="normal">
<n1:circle cx="75.1969" cy="562.205" r="27.5591"/>
</n1:g>

<n1:g fill="#ff0000" fill-opacity="1" stroke="none" transform="matrix(1,0,0,1,349.803,34.8425)" font-family="Ubuntu" font-size="152.778" font-weight="400" font-style="normal">
<n1:circle cx="175.197" cy="562.205" r="27.5591"/>
</n1:g>

<n1:g fill="#ff0000" fill-opacity="1" stroke="none" transform="matrix(1,0,0,1,349.803,34.8425)" font-family="Ubuntu" font-size="152.778" font-weight="400" font-style="normal">
<n1:circle cx="-124.803" cy="562.205" r="27.5591"/>
</n1:g>

<n1:g fill="#ff0000" fill-opacity="1" stroke="none" transform="matrix(1,0,0,1,349.803,34.8425)" font-family="Ubuntu" font-size="152.778" font-weight="400" font-style="normal">
<n1:circle cx="-25" cy="562.205" r="27.5591"/>
</n1:g>

<n1:g fill="#ffffff" fill-opacity="1" stroke="none" transform="matrix(1,0,0,1,349.803,34.8425)" font-family="Ubuntu" font-size="152.778" font-weight="400" font-style="normal">
<n1:circle cx="225" cy="312.205" r="62.9921"/>
</n1:g>

<n1:g fill="#ffffff" fill-opacity="1" stroke="#787878" stroke-opacity="1" stroke-width="8" stroke-linecap="butt" stroke-linejoin="bevel" transform="matrix(1,0,0,1,349.803,34.8425)" font-family="Ubuntu" font-size="152.778" font-weight="400" font-style="normal">
<n1:polyline fill="none" vector-effect="none" points="229.454,316.659 265.088,352.293 "/>
<n1:polyline fill="none" vector-effect="none" points="220.546,316.659 184.912,352.293 "/>
<n1:polyline fill="none" vector-effect="none" points="220.546,307.751 184.912,272.117 "/>
<n1:polyline fill="none" vector-effect="none" points="229.454,307.751 265.088,272.117 "/>
</n1:g>

<n1:g fill="#ffffff" fill-opacity="1" stroke="none" transform="matrix(1,0,0,1,349.803,34.8425)" font-family="Ubuntu" font-size="152.778" font-weight="400" font-style="normal">
<n1:circle cx="125" cy="662.205" r="17.7165"/>
</n1:g>

<n1:g fill="#ffffff" fill-opacity="1" stroke="none" transform="matrix(1,0,0,1,349.803,34.8425)" font-family="Ubuntu" font-size="152.778" font-weight="400" font-style="normal">
<n1:circle cx="25" cy="662.205" r="17.7165"/>
</n1:g>

<n1:g fill="#ffffff" fill-opacity="1" stroke="none" transform="matrix(1,0,0,1,349.803,34.8425)" font-family="Ubuntu" font-size="152.778" font-weight="400" font-style="normal">
<n1:circle cx="-75.1969" cy="662.205" r="17.7165"/>
</n1:g>

<n1:g fill="#ffffff" fill-opacity="1" stroke="none" transform="matrix(1,0,0,1,349.803,34.8425)" font-family="Ubuntu" font-size="152.778" font-weight="400" font-style="normal">
<n1:circle cx="-175" cy="662.205" r="17.7165"/>
</n1:g>

<n1:g fill="#ffffff" fill-opacity="1" stroke="none" transform="matrix(1,0,0,1,349.803,34.8425)" font-family="Ubuntu" font-size="152.778" font-weight="400" font-style="normal">
<n1:circle cx="75.1969" cy="562.205" r="17.7165"/>
</n1:g>

<n1:g fill="#ffffff" fill-opacity="1" stroke="none" transform="matrix(1,0,0,1,349.803,34.8425)" font-family="Ubuntu" font-size="152.778" font-weight="400" font-style="normal">
<n1:circle cx="175.197" cy="562.205" r="17.7165"/>
</n1:g>

<n1:g fill="#ffffff" fill-opacity="1" stroke="none" transform="matrix(1,0,0,1,349.803,34.8425)" font-family="Ubuntu" font-size="152.778" font-weight="400" font-style="normal">
<n1:circle cx="-124.803" cy="562.205" r="17.7165"/>
</n1:g>

<n1:g fill="#ffffff" fill-opacity="1" stroke="none" transform="matrix(1,0,0,1,349.803,34.8425)" font-family="Ubuntu" font-size="152.778" font-weight="400" font-style="normal">
<n1:circle cx="-25" cy="562.205" r="17.7165"/>
</n1:g>

<n1:g fill="#ffffff" fill-opacity="1" stroke="none" transform="matrix(1,0,0,1,349.803,34.8425)" font-family="Ubuntu" font-size="152.778" font-weight="400" font-style="normal">
<n1:circle cx="-224.803" cy="312.205" r="62.9921"/>
</n1:g>

<n1:g fill="#ffffff" fill-opacity="1" stroke="#787878" stroke-opacity="1" stroke-width="8" stroke-linecap="butt" stroke-linejoin="bevel" transform="matrix(1,0,0,1,349.803,34.8425)" font-family="Ubuntu" font-size="152.778" font-weight="400" font-style="normal">
<n1:polyline fill="none" vector-effect="none" points="-220.349,316.659 -184.715,352.293 "/>
<n1:polyline fill="none" vector-effect="none" points="-229.257,316.659 -264.891,352.293 "/>
<n1:polyline fill="none" vector-effect="none" points="-229.257,307.751 -264.891,272.117 "/>
<n1:polyline fill="none" vector-effect="none" points="-220.349,307.751 -184.715,272.117 "/>
</n1:g>

<n1:g fill="#ffffff" fill-opacity="1" stroke="#f0f000" stroke-opacity="1" stroke-width="19.685" stroke-linecap="round" stroke-linejoin="bevel" transform="matrix(1,0,0,1,349.803,34.8425)" font-family="Ubuntu" font-size="152.778" font-weight="400" font-style="normal">
<n1:polyline fill="none" vector-effect="none" points="314.961,728.346 -314.961,728.346 "/>
<n1:polyline fill="none" vector-effect="none" points="314.961,0 314.961,728.346 "/>
<n1:polyline fill="none" vector-effect="none" points="-314.961,728.346 -314.961,0 "/>
<n1:polyline fill="none" vector-effect="none" points="-314.961,0 314.961,0 "/>
</n1:g>
</n1:g>
</svg>
