<?xml version="1.0" encoding="UTF-8"?>
<svg width="177.698mm" height="202.692mm" viewBox="0 0 699.606 798.031" version="1.2" baseProfile="tiny" xmlns:n1="http://www.w3.org/2000/svg" xmlns:xlink="http://www.w3.org/1999/xlink" xmlns:cpcb="http://www.danielwagenaar.net/cpcb-ns.html">
  <cpcb:part pkg="RJ45-MTJ-889X1-FSE" xmlns="http://www.danielwagenaar.net/cpcb-ns.html">
    <group ref="J?" pkg="RJ45-MTJ-889X1-FSE">
      <pad p="654700 393700" w="30000" h="20000" l="3" ref="9"/>
      <trace p1="774700 393700" p2="654700 393700" w="7620" l="3"/>
      <pad p="774700 393700" w="30000" h="20000" l="3" ref=""/>
      <trace p1="794700 529900" p2="634700 529900" w="5000" l="1"/>
      <trace p1="794700 344900" p2="794700 529900" w="5000" l="1"/>
      <nphole p="771850 424200" d="32000"/>
      <hole p="746450 513100" id="9000" od="14000" ref="2"/>
      <hole p="721050 513100" id="9000" od="14000" ref="4"/>
      <hole p="695600 513100" id="9000" od="14000" ref="6"/>
      <hole p="670250 513100" id="9000" od="14000" ref="8"/>
      <hole p="733800 487700" id="9000" od="14000" ref="3"/>
      <hole p="759200 487700" id="9000" od="14000" sq="1" ref="1"/>
      <hole p="683000 487700" id="9000" od="14000" ref="7"/>
      <trace p1="634700 529900" p2="634700 344900" w="5000" l="1"/>
      <hole p="708350 487700" id="9000" od="14000" ref="5"/>
      <nphole p="657600 424200" d="32000"/>
      <trace p1="634700 344900" p2="794700 344900" w="5000" l="1"/>
    </group>
    <text p="767200 544700" fs="12700" l="1" rot="0" text="J?"/>
  </cpcb:part>
<n1:title>PCB Component</n1:title>
<n1:desc>Generated by CPCB</n1:desc>
<n1:defs>
</n1:defs>
<n1:g fill="none" stroke="black" stroke-width="1" fill-rule="evenodd" stroke-linecap="square" stroke-linejoin="bevel">

<n1:g fill="#000000" fill-opacity="1" stroke="none" transform="matrix(1,0,0,1,-2463.98,-1323.03)" font-family="Ubuntu" font-size="152.778" font-weight="400" font-style="normal">
<n1:rect x="2463.98" y="1323.03" width="699.606" height="798.031"/>
</n1:g>

<n1:g fill="#00b400" fill-opacity="1" stroke="none" transform="matrix(1,0,0,1,-2463.98,-1323.03)" font-family="Ubuntu" font-size="152.778" font-weight="400" font-style="normal">
<n1:rect x="2518.5" y="1510.63" width="118.11" height="78.7402"/>
</n1:g>

<n1:g fill="#00b400" fill-opacity="1" stroke="#00b400" stroke-opacity="1" stroke-width="30" stroke-linecap="round" stroke-linejoin="bevel" transform="matrix(1,0,0,1,-2463.98,-1323.03)" font-family="Ubuntu" font-size="152.778" font-weight="400" font-style="normal">
<n1:polyline fill="none" vector-effect="none" points="3050,1550 2577.56,1550 "/>
</n1:g>

<n1:g fill="#00b400" fill-opacity="1" stroke="none" transform="matrix(1,0,0,1,-2463.98,-1323.03)" font-family="Ubuntu" font-size="152.778" font-weight="400" font-style="normal">
<n1:rect x="2990.94" y="1510.63" width="118.11" height="78.7402"/>
</n1:g>

<n1:g fill="#00b400" fill-opacity="1" stroke="none" transform="matrix(1,0,0,1,-2463.98,-1323.03)" font-family="Ubuntu" font-size="152.778" font-weight="400" font-style="normal">
<n1:circle cx="2938.78" cy="2020.08" r="27.5591"/>
</n1:g>

<n1:g fill="#00b400" fill-opacity="1" stroke="none" transform="matrix(1,0,0,1,-2463.98,-1323.03)" font-family="Ubuntu" font-size="152.778" font-weight="400" font-style="normal">
<n1:circle cx="2838.78" cy="2020.08" r="27.5591"/>
</n1:g>

<n1:g fill="#00b400" fill-opacity="1" stroke="none" transform="matrix(1,0,0,1,-2463.98,-1323.03)" font-family="Ubuntu" font-size="152.778" font-weight="400" font-style="normal">
<n1:circle cx="2738.58" cy="2020.08" r="27.5591"/>
</n1:g>

<n1:g fill="#00b400" fill-opacity="1" stroke="none" transform="matrix(1,0,0,1,-2463.98,-1323.03)" font-family="Ubuntu" font-size="152.778" font-weight="400" font-style="normal">
<n1:circle cx="2638.78" cy="2020.08" r="27.5591"/>
</n1:g>

<n1:g fill="#00b400" fill-opacity="1" stroke="none" transform="matrix(1,0,0,1,-2463.98,-1323.03)" font-family="Ubuntu" font-size="152.778" font-weight="400" font-style="normal">
<n1:circle cx="2888.98" cy="1920.08" r="27.5591"/>
</n1:g>

<n1:g fill="#00b400" fill-opacity="1" stroke="#00b400" stroke-opacity="1" stroke-width="55.1181" stroke-linecap="butt" stroke-linejoin="bevel" transform="matrix(1,0,0,1,-2463.98,-1323.03)" font-family="Ubuntu" font-size="152.778" font-weight="400" font-style="normal">
<n1:polyline fill="none" vector-effect="none" points="2961.42,1920.08 3016.54,1920.08 "/>
</n1:g>

<n1:g fill="#00b400" fill-opacity="1" stroke="none" transform="matrix(1,0,0,1,-2463.98,-1323.03)" font-family="Ubuntu" font-size="152.778" font-weight="400" font-style="normal">
<n1:circle cx="2688.98" cy="1920.08" r="27.5591"/>
</n1:g>

<n1:g fill="#00b400" fill-opacity="1" stroke="none" transform="matrix(1,0,0,1,-2463.98,-1323.03)" font-family="Ubuntu" font-size="152.778" font-weight="400" font-style="normal">
<n1:circle cx="2788.78" cy="1920.08" r="27.5591"/>
</n1:g>

<n1:g fill="#ff0000" fill-opacity="1" stroke="none" transform="matrix(1,0,0,1,-2463.98,-1323.03)" font-family="Ubuntu" font-size="152.778" font-weight="400" font-style="normal">
<n1:circle cx="2938.78" cy="2020.08" r="27.5591"/>
</n1:g>

<n1:g fill="#ff0000" fill-opacity="1" stroke="none" transform="matrix(1,0,0,1,-2463.98,-1323.03)" font-family="Ubuntu" font-size="152.778" font-weight="400" font-style="normal">
<n1:circle cx="2838.78" cy="2020.08" r="27.5591"/>
</n1:g>

<n1:g fill="#ff0000" fill-opacity="1" stroke="none" transform="matrix(1,0,0,1,-2463.98,-1323.03)" font-family="Ubuntu" font-size="152.778" font-weight="400" font-style="normal">
<n1:circle cx="2738.58" cy="2020.08" r="27.5591"/>
</n1:g>

<n1:g fill="#ff0000" fill-opacity="1" stroke="none" transform="matrix(1,0,0,1,-2463.98,-1323.03)" font-family="Ubuntu" font-size="152.778" font-weight="400" font-style="normal">
<n1:circle cx="2638.78" cy="2020.08" r="27.5591"/>
</n1:g>

<n1:g fill="#ff0000" fill-opacity="1" stroke="none" transform="matrix(1,0,0,1,-2463.98,-1323.03)" font-family="Ubuntu" font-size="152.778" font-weight="400" font-style="normal">
<n1:circle cx="2888.98" cy="1920.08" r="27.5591"/>
</n1:g>

<n1:g fill="#ff0000" fill-opacity="1" stroke="#ff0000" stroke-opacity="1" stroke-width="55.1181" stroke-linecap="butt" stroke-linejoin="bevel" transform="matrix(1,0,0,1,-2463.98,-1323.03)" font-family="Ubuntu" font-size="152.778" font-weight="400" font-style="normal">
<n1:polyline fill="none" vector-effect="none" points="2961.42,1920.08 3016.54,1920.08 "/>
</n1:g>

<n1:g fill="#ff0000" fill-opacity="1" stroke="none" transform="matrix(1,0,0,1,-2463.98,-1323.03)" font-family="Ubuntu" font-size="152.778" font-weight="400" font-style="normal">
<n1:circle cx="2688.98" cy="1920.08" r="27.5591"/>
</n1:g>

<n1:g fill="#ff0000" fill-opacity="1" stroke="none" transform="matrix(1,0,0,1,-2463.98,-1323.03)" font-family="Ubuntu" font-size="152.778" font-weight="400" font-style="normal">
<n1:circle cx="2788.78" cy="1920.08" r="27.5591"/>
</n1:g>

<n1:g fill="#ffffff" fill-opacity="1" stroke="none" transform="matrix(1,0,0,1,-2463.98,-1323.03)" font-family="Ubuntu" font-size="152.778" font-weight="400" font-style="normal">
<n1:circle cx="3038.78" cy="1670.08" r="62.9921"/>
</n1:g>

<n1:g fill="#ffffff" fill-opacity="1" stroke="#787878" stroke-opacity="1" stroke-width="8" stroke-linecap="butt" stroke-linejoin="bevel" transform="matrix(1,0,0,1,-2463.98,-1323.03)" font-family="Ubuntu" font-size="152.778" font-weight="400" font-style="normal">
<n1:polyline fill="none" vector-effect="none" points="3043.23,1674.53 3078.87,1710.17 "/>
<n1:polyline fill="none" vector-effect="none" points="3034.33,1674.53 2998.69,1710.17 "/>
<n1:polyline fill="none" vector-effect="none" points="3034.33,1665.62 2998.69,1629.99 "/>
<n1:polyline fill="none" vector-effect="none" points="3043.23,1665.62 3078.87,1629.99 "/>
</n1:g>

<n1:g fill="#000000" fill-opacity="1" stroke="none" transform="matrix(1,0,0,1,-2463.98,-1323.03)" font-family="Ubuntu" font-size="152.778" font-weight="400" font-style="normal">
<n1:circle cx="2938.78" cy="2020.08" r="17.7165"/>
</n1:g>

<n1:g fill="#000000" fill-opacity="1" stroke="none" transform="matrix(1,0,0,1,-2463.98,-1323.03)" font-family="Ubuntu" font-size="152.778" font-weight="400" font-style="normal">
<n1:circle cx="2838.78" cy="2020.08" r="17.7165"/>
</n1:g>

<n1:g fill="#000000" fill-opacity="1" stroke="none" transform="matrix(1,0,0,1,-2463.98,-1323.03)" font-family="Ubuntu" font-size="152.778" font-weight="400" font-style="normal">
<n1:circle cx="2738.58" cy="2020.08" r="17.7165"/>
</n1:g>

<n1:g fill="#000000" fill-opacity="1" stroke="none" transform="matrix(1,0,0,1,-2463.98,-1323.03)" font-family="Ubuntu" font-size="152.778" font-weight="400" font-style="normal">
<n1:circle cx="2638.78" cy="2020.08" r="17.7165"/>
</n1:g>

<n1:g fill="#000000" fill-opacity="1" stroke="none" transform="matrix(1,0,0,1,-2463.98,-1323.03)" font-family="Ubuntu" font-size="152.778" font-weight="400" font-style="normal">
<n1:circle cx="2888.98" cy="1920.08" r="17.7165"/>
</n1:g>

<n1:g fill="#000000" fill-opacity="1" stroke="none" transform="matrix(1,0,0,1,-2463.98,-1323.03)" font-family="Ubuntu" font-size="152.778" font-weight="400" font-style="normal">
<n1:circle cx="2988.98" cy="1920.08" r="17.7165"/>
</n1:g>

<n1:g fill="#000000" fill-opacity="1" stroke="none" transform="matrix(1,0,0,1,-2463.98,-1323.03)" font-family="Ubuntu" font-size="152.778" font-weight="400" font-style="normal">
<n1:circle cx="2688.98" cy="1920.08" r="17.7165"/>
</n1:g>

<n1:g fill="#000000" fill-opacity="1" stroke="none" transform="matrix(1,0,0,1,-2463.98,-1323.03)" font-family="Ubuntu" font-size="152.778" font-weight="400" font-style="normal">
<n1:circle cx="2788.78" cy="1920.08" r="17.7165"/>
</n1:g>

<n1:g fill="#ffffff" fill-opacity="1" stroke="none" transform="matrix(1,0,0,1,-2463.98,-1323.03)" font-family="Ubuntu" font-size="152.778" font-weight="400" font-style="normal">
<n1:circle cx="2588.98" cy="1670.08" r="62.9921"/>
</n1:g>

<n1:g fill="#ffffff" fill-opacity="1" stroke="#787878" stroke-opacity="1" stroke-width="8" stroke-linecap="butt" stroke-linejoin="bevel" transform="matrix(1,0,0,1,-2463.98,-1323.03)" font-family="Ubuntu" font-size="152.778" font-weight="400" font-style="normal">
<n1:polyline fill="none" vector-effect="none" points="2593.43,1674.53 2629.06,1710.17 "/>
<n1:polyline fill="none" vector-effect="none" points="2584.52,1674.53 2548.89,1710.17 "/>
<n1:polyline fill="none" vector-effect="none" points="2584.52,1665.62 2548.89,1629.99 "/>
<n1:polyline fill="none" vector-effect="none" points="2593.43,1665.62 2629.06,1629.99 "/>
</n1:g>

<n1:g fill="#ffffff" fill-opacity="1" stroke="#f0f000" stroke-opacity="1" stroke-width="19.685" stroke-linecap="round" stroke-linejoin="bevel" transform="matrix(1,0,0,1,-2463.98,-1323.03)" font-family="Ubuntu" font-size="152.778" font-weight="400" font-style="normal">
<n1:polyline fill="none" vector-effect="none" points="3128.74,2086.22 2498.82,2086.22 "/>
<n1:polyline fill="none" vector-effect="none" points="3128.74,1357.87 3128.74,2086.22 "/>
<n1:polyline fill="none" vector-effect="none" points="2498.82,2086.22 2498.82,1357.87 "/>
<n1:polyline fill="none" vector-effect="none" points="2498.82,1357.87 3128.74,1357.87 "/>
</n1:g>
</n1:g>
</svg>
