<?xml version="1.0" encoding="UTF-8"?>
<svg width="191.262mm" height="181.737mm" viewBox="0 0 752.953 715.512" version="1.2" baseProfile="tiny" xmlns:n1="http://www.w3.org/2000/svg" xmlns:xlink="http://www.w3.org/1999/xlink" xmlns:cpcb="http://www.danielwagenaar.net/cpcb-ns.html">
  <cpcb:part pkg="RJ45 straight" notes="DS1134-07-S8B0P&#10;C8965779" xmlns="http://www.danielwagenaar.net/cpcb-ns.html">
    <group ref="J?" pkg="RJ45 straight" notes="DS1134-07-S8B0P&#10;C8965779">
      <hole p="700000 195000" id="9000" od="13000" ref="1"/>
      <trace p1="824450 326100" p2="664450 326100" w="2540" l="1"/>
      <hole p="776200 195000" id="9000" od="13000" ref="7"/>
      <hole p="738100 169600" id="9000" od="13000" ref="4"/>
      <hole p="763500 169600" id="9000" od="13000" ref="6"/>
      <trace p1="824450 159600" p2="824450 326100" w="2540" l="1"/>
      <trace p1="664450 326100" p2="664450 159600" w="2540" l="1"/>
      <hole p="788900 169600" id="9000" od="13000" ref="8"/>
      <trace p1="664450 159600" p2="824450 159600" w="2540" l="1"/>
      <hole p="823250 289000" id="16000" od="21000" ref=""/>
      <hole p="665700 289000" id="16000" od="21000" ref=""/>
      <hole p="712700 169600" id="9000" od="13000" ref="2"/>
      <hole p="750800 195000" id="9000" od="13000" ref="5"/>
      <hole p="687300 258500" id="31700" od="35510" ref=""/>
      <hole p="725400 195000" id="9000" od="13000" ref="3"/>
      <hole p="801600 258500" id="31700" od="35510" ref=""/>
    </group>
    <text p="655200 145630" fs="12700" l="1" rot="0" text="J?"/>
  </cpcb:part>
<n1:title>PCB Component</n1:title>
<n1:desc>Generated by CPCB</n1:desc>
<n1:defs>
</n1:defs>
<n1:g fill="none" stroke="black" stroke-width="1" fill-rule="evenodd" stroke-linecap="square" stroke-linejoin="bevel">

<n1:g fill="#000000" fill-opacity="1" stroke="none" transform="matrix(1,0,0,1,-2554.53,-598.346)" font-family="Sans" font-size="152.778" font-weight="400" font-style="normal">
<n1:rect x="2554.53" y="598.346" width="752.953" height="715.512"/>
</n1:g>

<n1:g fill="#00b400" fill-opacity="1" stroke="none" transform="matrix(1,0,0,1,-2554.53,-598.346)" font-family="Sans" font-size="152.778" font-weight="400" font-style="normal">
<n1:circle cx="2755.91" cy="767.717" r="25.5906"/>
</n1:g>

<n1:g fill="#00b400" fill-opacity="1" stroke="none" transform="matrix(1,0,0,1,-2554.53,-598.346)" font-family="Sans" font-size="152.778" font-weight="400" font-style="normal">
<n1:circle cx="3055.91" cy="767.717" r="25.5906"/>
</n1:g>

<n1:g fill="#00b400" fill-opacity="1" stroke="none" transform="matrix(1,0,0,1,-2554.53,-598.346)" font-family="Sans" font-size="152.778" font-weight="400" font-style="normal">
<n1:circle cx="2905.91" cy="667.717" r="25.5906"/>
</n1:g>

<n1:g fill="#00b400" fill-opacity="1" stroke="none" transform="matrix(1,0,0,1,-2554.53,-598.346)" font-family="Sans" font-size="152.778" font-weight="400" font-style="normal">
<n1:circle cx="3005.91" cy="667.717" r="25.5906"/>
</n1:g>

<n1:g fill="#00b400" fill-opacity="1" stroke="none" transform="matrix(1,0,0,1,-2554.53,-598.346)" font-family="Sans" font-size="152.778" font-weight="400" font-style="normal">
<n1:circle cx="3105.91" cy="667.717" r="25.5906"/>
</n1:g>

<n1:g fill="#00b400" fill-opacity="1" stroke="none" transform="matrix(1,0,0,1,-2554.53,-598.346)" font-family="Sans" font-size="152.778" font-weight="400" font-style="normal">
<n1:circle cx="3241.14" cy="1137.8" r="41.3386"/>
</n1:g>

<n1:g fill="#00b400" fill-opacity="1" stroke="none" transform="matrix(1,0,0,1,-2554.53,-598.346)" font-family="Sans" font-size="152.778" font-weight="400" font-style="normal">
<n1:circle cx="2620.87" cy="1137.8" r="41.3386"/>
</n1:g>

<n1:g fill="#00b400" fill-opacity="1" stroke="none" transform="matrix(1,0,0,1,-2554.53,-598.346)" font-family="Sans" font-size="152.778" font-weight="400" font-style="normal">
<n1:circle cx="2805.91" cy="667.717" r="25.5906"/>
</n1:g>

<n1:g fill="#00b400" fill-opacity="1" stroke="none" transform="matrix(1,0,0,1,-2554.53,-598.346)" font-family="Sans" font-size="152.778" font-weight="400" font-style="normal">
<n1:circle cx="2955.91" cy="767.717" r="25.5906"/>
</n1:g>

<n1:g fill="#00b400" fill-opacity="1" stroke="none" transform="matrix(1,0,0,1,-2554.53,-598.346)" font-family="Sans" font-size="152.778" font-weight="400" font-style="normal">
<n1:circle cx="2705.91" cy="1017.72" r="69.9016"/>
</n1:g>

<n1:g fill="#00b400" fill-opacity="1" stroke="none" transform="matrix(1,0,0,1,-2554.53,-598.346)" font-family="Sans" font-size="152.778" font-weight="400" font-style="normal">
<n1:circle cx="2855.91" cy="767.717" r="25.5906"/>
</n1:g>

<n1:g fill="#00b400" fill-opacity="1" stroke="none" transform="matrix(1,0,0,1,-2554.53,-598.346)" font-family="Sans" font-size="152.778" font-weight="400" font-style="normal">
<n1:circle cx="3155.91" cy="1017.72" r="69.9016"/>
</n1:g>

<n1:g fill="#ff0000" fill-opacity="1" stroke="none" transform="matrix(1,0,0,1,-2554.53,-598.346)" font-family="Sans" font-size="152.778" font-weight="400" font-style="normal">
<n1:circle cx="2755.91" cy="767.717" r="25.5906"/>
</n1:g>

<n1:g fill="#ff0000" fill-opacity="1" stroke="none" transform="matrix(1,0,0,1,-2554.53,-598.346)" font-family="Sans" font-size="152.778" font-weight="400" font-style="normal">
<n1:circle cx="3055.91" cy="767.717" r="25.5906"/>
</n1:g>

<n1:g fill="#ff0000" fill-opacity="1" stroke="none" transform="matrix(1,0,0,1,-2554.53,-598.346)" font-family="Sans" font-size="152.778" font-weight="400" font-style="normal">
<n1:circle cx="2905.91" cy="667.717" r="25.5906"/>
</n1:g>

<n1:g fill="#ff0000" fill-opacity="1" stroke="none" transform="matrix(1,0,0,1,-2554.53,-598.346)" font-family="Sans" font-size="152.778" font-weight="400" font-style="normal">
<n1:circle cx="3005.91" cy="667.717" r="25.5906"/>
</n1:g>

<n1:g fill="#ff0000" fill-opacity="1" stroke="none" transform="matrix(1,0,0,1,-2554.53,-598.346)" font-family="Sans" font-size="152.778" font-weight="400" font-style="normal">
<n1:circle cx="3105.91" cy="667.717" r="25.5906"/>
</n1:g>

<n1:g fill="#ff0000" fill-opacity="1" stroke="none" transform="matrix(1,0,0,1,-2554.53,-598.346)" font-family="Sans" font-size="152.778" font-weight="400" font-style="normal">
<n1:circle cx="3241.14" cy="1137.8" r="41.3386"/>
</n1:g>

<n1:g fill="#ff0000" fill-opacity="1" stroke="none" transform="matrix(1,0,0,1,-2554.53,-598.346)" font-family="Sans" font-size="152.778" font-weight="400" font-style="normal">
<n1:circle cx="2620.87" cy="1137.8" r="41.3386"/>
</n1:g>

<n1:g fill="#ff0000" fill-opacity="1" stroke="none" transform="matrix(1,0,0,1,-2554.53,-598.346)" font-family="Sans" font-size="152.778" font-weight="400" font-style="normal">
<n1:circle cx="2805.91" cy="667.717" r="25.5906"/>
</n1:g>

<n1:g fill="#ff0000" fill-opacity="1" stroke="none" transform="matrix(1,0,0,1,-2554.53,-598.346)" font-family="Sans" font-size="152.778" font-weight="400" font-style="normal">
<n1:circle cx="2955.91" cy="767.717" r="25.5906"/>
</n1:g>

<n1:g fill="#ff0000" fill-opacity="1" stroke="none" transform="matrix(1,0,0,1,-2554.53,-598.346)" font-family="Sans" font-size="152.778" font-weight="400" font-style="normal">
<n1:circle cx="2705.91" cy="1017.72" r="69.9016"/>
</n1:g>

<n1:g fill="#ff0000" fill-opacity="1" stroke="none" transform="matrix(1,0,0,1,-2554.53,-598.346)" font-family="Sans" font-size="152.778" font-weight="400" font-style="normal">
<n1:circle cx="2855.91" cy="767.717" r="25.5906"/>
</n1:g>

<n1:g fill="#ff0000" fill-opacity="1" stroke="none" transform="matrix(1,0,0,1,-2554.53,-598.346)" font-family="Sans" font-size="152.778" font-weight="400" font-style="normal">
<n1:circle cx="3155.91" cy="1017.72" r="69.9016"/>
</n1:g>

<n1:g fill="#000000" fill-opacity="1" stroke="none" transform="matrix(1,0,0,1,-2554.53,-598.346)" font-family="Sans" font-size="152.778" font-weight="400" font-style="normal">
<n1:circle cx="2755.91" cy="767.717" r="17.7165"/>
</n1:g>

<n1:g fill="#000000" fill-opacity="1" stroke="none" transform="matrix(1,0,0,1,-2554.53,-598.346)" font-family="Sans" font-size="152.778" font-weight="400" font-style="normal">
<n1:circle cx="3055.91" cy="767.717" r="17.7165"/>
</n1:g>

<n1:g fill="#000000" fill-opacity="1" stroke="none" transform="matrix(1,0,0,1,-2554.53,-598.346)" font-family="Sans" font-size="152.778" font-weight="400" font-style="normal">
<n1:circle cx="2905.91" cy="667.717" r="17.7165"/>
</n1:g>

<n1:g fill="#000000" fill-opacity="1" stroke="none" transform="matrix(1,0,0,1,-2554.53,-598.346)" font-family="Sans" font-size="152.778" font-weight="400" font-style="normal">
<n1:circle cx="3005.91" cy="667.717" r="17.7165"/>
</n1:g>

<n1:g fill="#000000" fill-opacity="1" stroke="none" transform="matrix(1,0,0,1,-2554.53,-598.346)" font-family="Sans" font-size="152.778" font-weight="400" font-style="normal">
<n1:circle cx="3105.91" cy="667.717" r="17.7165"/>
</n1:g>

<n1:g fill="#000000" fill-opacity="1" stroke="none" transform="matrix(1,0,0,1,-2554.53,-598.346)" font-family="Sans" font-size="152.778" font-weight="400" font-style="normal">
<n1:circle cx="3241.14" cy="1137.8" r="31.4961"/>
</n1:g>

<n1:g fill="#000000" fill-opacity="1" stroke="none" transform="matrix(1,0,0,1,-2554.53,-598.346)" font-family="Sans" font-size="152.778" font-weight="400" font-style="normal">
<n1:circle cx="2620.87" cy="1137.8" r="31.4961"/>
</n1:g>

<n1:g fill="#000000" fill-opacity="1" stroke="none" transform="matrix(1,0,0,1,-2554.53,-598.346)" font-family="Sans" font-size="152.778" font-weight="400" font-style="normal">
<n1:circle cx="2805.91" cy="667.717" r="17.7165"/>
</n1:g>

<n1:g fill="#000000" fill-opacity="1" stroke="none" transform="matrix(1,0,0,1,-2554.53,-598.346)" font-family="Sans" font-size="152.778" font-weight="400" font-style="normal">
<n1:circle cx="2955.91" cy="767.717" r="17.7165"/>
</n1:g>

<n1:g fill="#000000" fill-opacity="1" stroke="none" transform="matrix(1,0,0,1,-2554.53,-598.346)" font-family="Sans" font-size="152.778" font-weight="400" font-style="normal">
<n1:circle cx="2705.91" cy="1017.72" r="62.4016"/>
</n1:g>

<n1:g fill="#000000" fill-opacity="1" stroke="none" transform="matrix(1,0,0,1,-2554.53,-598.346)" font-family="Sans" font-size="152.778" font-weight="400" font-style="normal">
<n1:circle cx="2855.91" cy="767.717" r="17.7165"/>
</n1:g>

<n1:g fill="#000000" fill-opacity="1" stroke="none" transform="matrix(1,0,0,1,-2554.53,-598.346)" font-family="Sans" font-size="152.778" font-weight="400" font-style="normal">
<n1:circle cx="3155.91" cy="1017.72" r="62.4016"/>
</n1:g>

<n1:g fill="#000000" fill-opacity="1" stroke="#f0f000" stroke-opacity="1" stroke-width="10" stroke-linecap="round" stroke-linejoin="bevel" transform="matrix(1,0,0,1,-2554.53,-598.346)" font-family="Sans" font-size="152.778" font-weight="400" font-style="normal">
<n1:polyline fill="none" vector-effect="none" points="3245.87,1283.86 2615.94,1283.86 "/>
<n1:polyline fill="none" vector-effect="none" points="3245.87,628.346 3245.87,1283.86 "/>
<n1:polyline fill="none" vector-effect="none" points="2615.94,1283.86 2615.94,628.346 "/>
<n1:polyline fill="none" vector-effect="none" points="2615.94,628.346 3245.87,628.346 "/>
</n1:g>
</n1:g>
</svg>
