<?xml version="1.0" encoding="UTF-8"?>
<svg width="179.705mm" height="200.203mm" viewBox="0 0 707.48 788.189" version="1.2" baseProfile="tiny" xmlns:n1="http://www.w3.org/2000/svg" xmlns:xlink="http://www.w3.org/1999/xlink" xmlns:cpcb="http://www.danielwagenaar.net/cpcb-ns.html">
  <cpcb:part pkg="RJ45-MTJ-889X1-FSE" partno="MTJ-889X1-FSE" catno="2057-MTJ-889X1-FSE-ND" xmlns="http://www.danielwagenaar.net/cpcb-ns.html">
    <group ref="J?" pkg="RJ45-MTJ-889X1-FSE" partno="MTJ-889X1-FSE" catno="2057-MTJ-889X1-FSE-ND">
      <trace p1="289550 207300" p2="129550 207300" w="2500" l="1"/>
      <trace p1="289550 22300" p2="289550 207300" w="2500" l="1"/>
      <nphole p="266650 101600" d="32000"/>
      <hole p="241300 190500" id="9000" od="14000" ref="2"/>
      <hole p="215900 190500" id="9000" od="14000" ref="4"/>
      <hole p="190450 190500" id="9000" od="14000" ref="6"/>
      <hole p="165100 190500" id="9000" od="14000" ref="8"/>
      <hole p="228650 165100" id="9000" od="14000" ref="3"/>
      <hole p="254050 165100" id="9000" od="14000" sq="1" ref="1"/>
      <hole p="177850 165100" id="9000" od="14000" ref="7"/>
      <trace p1="129550 207300" p2="129550 22300" w="2500" l="1"/>
      <hole p="203200 165100" id="9000" od="14000" ref="5"/>
      <nphole p="152450 101600" d="32000"/>
      <trace p1="129550 22300" p2="289550 22300" w="2500" l="1"/>
      <hole p="287150 71150" id="8000" od="12000" ref="" sl="10000" rot="90"/>
      <hole p="132150 71150" id="8000" od="12000" ref="9" sl="10000" rot="90"/>
    </group>
    <text p="187050 219600" fs="12700" l="1" rot="0" text="J?"/>
  </cpcb:part>
<n1:title>PCB Component</n1:title>
<n1:desc>Generated by CPCB</n1:desc>
<n1:defs>
</n1:defs>
<n1:g fill="none" stroke="black" stroke-width="1" fill-rule="evenodd" stroke-linecap="square" stroke-linejoin="bevel">

<n1:g fill="#000000" fill-opacity="1" stroke="none" transform="matrix(1,0,0,1,-471.654,-57.874)" font-family="Ubuntu" font-size="152.778" font-weight="400" font-style="normal">
<n1:rect x="471.654" y="57.874" width="707.48" height="788.189"/>
</n1:g>

<n1:g fill="#00b400" fill-opacity="1" stroke="none" transform="matrix(1,0,0,1,-471.654,-57.874)" font-family="Ubuntu" font-size="152.778" font-weight="400" font-style="normal">
<n1:circle cx="950" cy="750" r="27.5591"/>
</n1:g>

<n1:g fill="#00b400" fill-opacity="1" stroke="none" transform="matrix(1,0,0,1,-471.654,-57.874)" font-family="Ubuntu" font-size="152.778" font-weight="400" font-style="normal">
<n1:circle cx="850" cy="750" r="27.5591"/>
</n1:g>

<n1:g fill="#00b400" fill-opacity="1" stroke="none" transform="matrix(1,0,0,1,-471.654,-57.874)" font-family="Ubuntu" font-size="152.778" font-weight="400" font-style="normal">
<n1:circle cx="749.803" cy="750" r="27.5591"/>
</n1:g>

<n1:g fill="#00b400" fill-opacity="1" stroke="none" transform="matrix(1,0,0,1,-471.654,-57.874)" font-family="Ubuntu" font-size="152.778" font-weight="400" font-style="normal">
<n1:circle cx="650" cy="750" r="27.5591"/>
</n1:g>

<n1:g fill="#00b400" fill-opacity="1" stroke="none" transform="matrix(1,0,0,1,-471.654,-57.874)" font-family="Ubuntu" font-size="152.778" font-weight="400" font-style="normal">
<n1:circle cx="900.197" cy="650" r="27.5591"/>
</n1:g>

<n1:g fill="#00b400" fill-opacity="1" stroke="#00b400" stroke-opacity="1" stroke-width="55.1181" stroke-linecap="butt" stroke-linejoin="bevel" transform="matrix(1,0,0,1,-471.654,-57.874)" font-family="Ubuntu" font-size="152.778" font-weight="400" font-style="normal">
<n1:polyline fill="none" vector-effect="none" points="972.638,650 1027.76,650 "/>
</n1:g>

<n1:g fill="#00b400" fill-opacity="1" stroke="none" transform="matrix(1,0,0,1,-471.654,-57.874)" font-family="Ubuntu" font-size="152.778" font-weight="400" font-style="normal">
<n1:circle cx="700.197" cy="650" r="27.5591"/>
</n1:g>

<n1:g fill="#00b400" fill-opacity="1" stroke="none" transform="matrix(1,0,0,1,-471.654,-57.874)" font-family="Ubuntu" font-size="152.778" font-weight="400" font-style="normal">
<n1:circle cx="800" cy="650" r="27.5591"/>
</n1:g>

<n1:g fill="#00b400" fill-opacity="1" stroke="#00b400" stroke-opacity="1" stroke-width="47.2441" stroke-linecap="round" stroke-linejoin="bevel" transform="matrix(1,0,0,1,-471.654,-57.874)" font-family="Ubuntu" font-size="152.778" font-weight="400" font-style="normal">
<n1:polyline fill="none" vector-effect="none" points="1130.51,260.433 1130.51,299.803 "/>
<n1:polyline fill="none" vector-effect="none" points="520.276,260.433 520.276,299.803 "/>
</n1:g>

<n1:g fill="#ff0000" fill-opacity="1" stroke="none" transform="matrix(1,0,0,1,-471.654,-57.874)" font-family="Ubuntu" font-size="152.778" font-weight="400" font-style="normal">
<n1:circle cx="950" cy="750" r="27.5591"/>
</n1:g>

<n1:g fill="#ff0000" fill-opacity="1" stroke="none" transform="matrix(1,0,0,1,-471.654,-57.874)" font-family="Ubuntu" font-size="152.778" font-weight="400" font-style="normal">
<n1:circle cx="850" cy="750" r="27.5591"/>
</n1:g>

<n1:g fill="#ff0000" fill-opacity="1" stroke="none" transform="matrix(1,0,0,1,-471.654,-57.874)" font-family="Ubuntu" font-size="152.778" font-weight="400" font-style="normal">
<n1:circle cx="749.803" cy="750" r="27.5591"/>
</n1:g>

<n1:g fill="#ff0000" fill-opacity="1" stroke="none" transform="matrix(1,0,0,1,-471.654,-57.874)" font-family="Ubuntu" font-size="152.778" font-weight="400" font-style="normal">
<n1:circle cx="650" cy="750" r="27.5591"/>
</n1:g>

<n1:g fill="#ff0000" fill-opacity="1" stroke="none" transform="matrix(1,0,0,1,-471.654,-57.874)" font-family="Ubuntu" font-size="152.778" font-weight="400" font-style="normal">
<n1:circle cx="900.197" cy="650" r="27.5591"/>
</n1:g>

<n1:g fill="#ff0000" fill-opacity="1" stroke="#ff0000" stroke-opacity="1" stroke-width="55.1181" stroke-linecap="butt" stroke-linejoin="bevel" transform="matrix(1,0,0,1,-471.654,-57.874)" font-family="Ubuntu" font-size="152.778" font-weight="400" font-style="normal">
<n1:polyline fill="none" vector-effect="none" points="972.638,650 1027.76,650 "/>
</n1:g>

<n1:g fill="#ff0000" fill-opacity="1" stroke="none" transform="matrix(1,0,0,1,-471.654,-57.874)" font-family="Ubuntu" font-size="152.778" font-weight="400" font-style="normal">
<n1:circle cx="700.197" cy="650" r="27.5591"/>
</n1:g>

<n1:g fill="#ff0000" fill-opacity="1" stroke="none" transform="matrix(1,0,0,1,-471.654,-57.874)" font-family="Ubuntu" font-size="152.778" font-weight="400" font-style="normal">
<n1:circle cx="800" cy="650" r="27.5591"/>
</n1:g>

<n1:g fill="#ff0000" fill-opacity="1" stroke="#ff0000" stroke-opacity="1" stroke-width="47.2441" stroke-linecap="round" stroke-linejoin="bevel" transform="matrix(1,0,0,1,-471.654,-57.874)" font-family="Ubuntu" font-size="152.778" font-weight="400" font-style="normal">
<n1:polyline fill="none" vector-effect="none" points="1130.51,260.433 1130.51,299.803 "/>
<n1:polyline fill="none" vector-effect="none" points="520.276,260.433 520.276,299.803 "/>
</n1:g>

<n1:g fill="#ffffff" fill-opacity="1" stroke="none" transform="matrix(1,0,0,1,-471.654,-57.874)" font-family="Ubuntu" font-size="152.778" font-weight="400" font-style="normal">
<n1:circle cx="1049.8" cy="400" r="62.9921"/>
</n1:g>

<n1:g fill="#ffffff" fill-opacity="1" stroke="#787878" stroke-opacity="1" stroke-width="8" stroke-linecap="butt" stroke-linejoin="bevel" transform="matrix(1,0,0,1,-471.654,-57.874)" font-family="Ubuntu" font-size="152.778" font-weight="400" font-style="normal">
<n1:polyline fill="none" vector-effect="none" points="1054.26,404.454 1089.89,440.088 "/>
<n1:polyline fill="none" vector-effect="none" points="1045.35,404.454 1009.72,440.088 "/>
<n1:polyline fill="none" vector-effect="none" points="1045.35,395.546 1009.72,359.912 "/>
<n1:polyline fill="none" vector-effect="none" points="1054.26,395.546 1089.89,359.912 "/>
</n1:g>

<n1:g fill="#000000" fill-opacity="1" stroke="none" transform="matrix(1,0,0,1,-471.654,-57.874)" font-family="Ubuntu" font-size="152.778" font-weight="400" font-style="normal">
<n1:circle cx="950" cy="750" r="17.7165"/>
</n1:g>

<n1:g fill="#000000" fill-opacity="1" stroke="none" transform="matrix(1,0,0,1,-471.654,-57.874)" font-family="Ubuntu" font-size="152.778" font-weight="400" font-style="normal">
<n1:circle cx="850" cy="750" r="17.7165"/>
</n1:g>

<n1:g fill="#000000" fill-opacity="1" stroke="none" transform="matrix(1,0,0,1,-471.654,-57.874)" font-family="Ubuntu" font-size="152.778" font-weight="400" font-style="normal">
<n1:circle cx="749.803" cy="750" r="17.7165"/>
</n1:g>

<n1:g fill="#000000" fill-opacity="1" stroke="none" transform="matrix(1,0,0,1,-471.654,-57.874)" font-family="Ubuntu" font-size="152.778" font-weight="400" font-style="normal">
<n1:circle cx="650" cy="750" r="17.7165"/>
</n1:g>

<n1:g fill="#000000" fill-opacity="1" stroke="none" transform="matrix(1,0,0,1,-471.654,-57.874)" font-family="Ubuntu" font-size="152.778" font-weight="400" font-style="normal">
<n1:circle cx="900.197" cy="650" r="17.7165"/>
</n1:g>

<n1:g fill="#000000" fill-opacity="1" stroke="none" transform="matrix(1,0,0,1,-471.654,-57.874)" font-family="Ubuntu" font-size="152.778" font-weight="400" font-style="normal">
<n1:circle cx="1000.2" cy="650" r="17.7165"/>
</n1:g>

<n1:g fill="#000000" fill-opacity="1" stroke="none" transform="matrix(1,0,0,1,-471.654,-57.874)" font-family="Ubuntu" font-size="152.778" font-weight="400" font-style="normal">
<n1:circle cx="700.197" cy="650" r="17.7165"/>
</n1:g>

<n1:g fill="#000000" fill-opacity="1" stroke="none" transform="matrix(1,0,0,1,-471.654,-57.874)" font-family="Ubuntu" font-size="152.778" font-weight="400" font-style="normal">
<n1:circle cx="800" cy="650" r="17.7165"/>
</n1:g>

<n1:g fill="#ffffff" fill-opacity="1" stroke="none" transform="matrix(1,0,0,1,-471.654,-57.874)" font-family="Ubuntu" font-size="152.778" font-weight="400" font-style="normal">
<n1:circle cx="600.197" cy="400" r="62.9921"/>
</n1:g>

<n1:g fill="#ffffff" fill-opacity="1" stroke="#787878" stroke-opacity="1" stroke-width="8" stroke-linecap="butt" stroke-linejoin="bevel" transform="matrix(1,0,0,1,-471.654,-57.874)" font-family="Ubuntu" font-size="152.778" font-weight="400" font-style="normal">
<n1:polyline fill="none" vector-effect="none" points="604.651,404.454 640.285,440.088 "/>
<n1:polyline fill="none" vector-effect="none" points="595.743,404.454 560.109,440.088 "/>
<n1:polyline fill="none" vector-effect="none" points="595.743,395.546 560.109,359.912 "/>
<n1:polyline fill="none" vector-effect="none" points="604.651,395.546 640.285,359.912 "/>
</n1:g>

<n1:g fill="#ffffff" fill-opacity="1" stroke="#000000" stroke-opacity="1" stroke-width="31.4961" stroke-linecap="round" stroke-linejoin="bevel" transform="matrix(1,0,0,1,-471.654,-57.874)" font-family="Ubuntu" font-size="152.778" font-weight="400" font-style="normal">
<n1:polyline fill="none" vector-effect="none" points="1130.51,260.433 1130.51,299.803 "/>
<n1:polyline fill="none" vector-effect="none" points="520.276,260.433 520.276,299.803 "/>
</n1:g>

<n1:g fill="#ffffff" fill-opacity="1" stroke="#f0f000" stroke-opacity="1" stroke-width="9.84252" stroke-linecap="round" stroke-linejoin="bevel" transform="matrix(1,0,0,1,-471.654,-57.874)" font-family="Ubuntu" font-size="152.778" font-weight="400" font-style="normal">
<n1:polyline fill="none" vector-effect="none" points="1139.96,816.142 510.039,816.142 "/>
<n1:polyline fill="none" vector-effect="none" points="1139.96,87.7953 1139.96,816.142 "/>
<n1:polyline fill="none" vector-effect="none" points="510.039,816.142 510.039,87.7953 "/>
<n1:polyline fill="none" vector-effect="none" points="510.039,87.7953 1139.96,87.7953 "/>
</n1:g>
</n1:g>
</svg>
