<?xml version="1.0" encoding="UTF-8"?>
<svg width="215.189mm" height="115.545mm" viewBox="0 0 847.244 454.921" version="1.2" baseProfile="tiny" xmlns:n1="http://www.w3.org/2000/svg" xmlns:xlink="http://www.w3.org/1999/xlink" xmlns:cpcb="http://www.danielwagenaar.net/cpcb-ns.html">
  <cpcb:part pkg="USB-C" notes="Drawn from SameSky UJ20-C-H-G-TH-P16-TR. Also, e.g., Amphenol GSB1C211110DS1HR" xmlns="http://www.danielwagenaar.net/cpcb-ns.html">
    <group ref="J?" pkg="USB-C" notes="Drawn from SameSky UJ20-C-H-G-TH-P16-TR. Also, e.g., Amphenol GSB1C211110DS1HR">
      <hole p="295950 61500" id="3190" od="7000" ref="A5"/>
      <hole p="295950 48000" id="3190" od="7000" ref="B8"/>
      <trace p1="312950 48000" p2="312950 35000" w="5000" l="3"/>
      <hole p="270450 61500" id="3190" od="7000" ref="A8"/>
      <hole p="270450 48000" id="3190" od="7000" ref="B5"/>
      <trace p1="253450 35000" p2="262000 25000" w="5000" l="3"/>
      <trace p1="253450 48000" p2="253450 35000" w="5000" l="3"/>
      <hole p="253450 48000" id="3190" od="7000" ref="B1"/>
      <hole p="287450 61500" id="3190" od="7000" ref="A6/D+"/>
      <trace p1="278950 61500" p2="287450 48000" w="2500" l="2"/>
      <hole p="312950 48000" id="3190" od="7000" ref="B12"/>
      <hole p="240000 15000" id="7000" od="13000" ref="" sl="9000" rot="270"/>
      <hole p="240000 56500" id="7000" od="13000" ref="" sl="13000" rot="270"/>
      <trace p1="278950 48000" p2="287450 61500" w="2500" l="3"/>
      <trace p1="312950 35000" p2="305000 25000" w="5000" l="3"/>
      <trace p1="304450 61500" p2="304450 48000" w="5000" l="3"/>
      <hole p="261950 48000" id="3190" od="7000" ref="B4"/>
      <hole p="326400 56500" id="7000" od="13000" ref="" sl="13000" rot="270"/>
      <trace p1="300000 35000" p2="295000 35000" w="5000" l="3"/>
      <trace p1="261950 40000" p2="267000 35000" w="5000" l="3"/>
      <hole p="261950 61500" id="3190" od="7000" ref="A9"/>
      <hole p="312950 61500" id="3190" od="7000" ref="A1/Gnd"/>
      <trace p1="253450 61500" p2="253450 48000" w="5000" l="3"/>
      <trace p1="261950 48000" p2="261950 40000" w="5000" l="3"/>
      <trace p1="270000 25000" p2="305000 25000" w="5000" l="3"/>
      <hole p="304450 61500" id="3190" od="7000" ref="A4/VBus"/>
      <hole p="287450 48000" id="3190" od="7000" ref="B7"/>
      <trace p1="261950 61500" p2="261950 48000" w="5000" l="3"/>
      <trace p1="304450 40000" p2="300000 35000" w="5000" l="3"/>
      <hole p="278950 48000" id="3190" od="7000" ref="B6"/>
      <trace p1="295000 35000" p2="269000 35000" w="5000" l="3"/>
      <hole p="326400 15000" id="7000" od="13000" ref="" sl="9000" rot="270"/>
      <hole p="278950 61500" id="3190" od="7000" ref="A7/D-"/>
      <trace p1="262000 25000" p2="270000 25000" w="5000" l="3"/>
      <hole p="253450 61500" id="3190" od="7000" ref="A12"/>
      <trace p1="267000 35000" p2="269000 35000" w="5000" l="3"/>
      <hole p="304450 48000" id="3190" od="7000" ref="B9"/>
      <trace p1="312950 61500" p2="312950 48000" w="5000" l="3"/>
      <trace p1="304450 48000" p2="304450 40000" w="5000" l="3"/>
      <trace p1="183200 0" p2="383200 0" w="2500" l="4"/>
      <trace p1="260070 -32100" p2="306350 -32100" w="2500" l="4"/>
      <arc p="307600 -15995" r="16050" lw="2500" l="4" ang="180" rota="0"/>
      <arc p="258820 -16005" r="16050" lw="2500" l="4" ang="180" rota="180"/>
    </group>
    <text p="203500 16300" fs="12700" l="1" rot="0" text="J?"/>
  </cpcb:part>
<n1:title>PCB Component</n1:title>
<n1:desc>Generated by CPCB</n1:desc>
<n1:defs>
</n1:defs>
<n1:g fill="none" stroke="black" stroke-width="1" fill-rule="evenodd" stroke-linecap="square" stroke-linejoin="bevel">

<n1:g fill="#000000" fill-opacity="1" stroke="none" transform="matrix(1,0,0,1,-691.339,156.299)" font-family="Sans" font-size="152.778" font-weight="400" font-style="normal">
<n1:rect x="691.339" y="-156.299" width="847.244" height="454.921"/>
</n1:g>

<n1:g fill="#00b400" fill-opacity="1" stroke="none" transform="matrix(1,0,0,1,-691.339,156.299)" font-family="Sans" font-size="152.778" font-weight="400" font-style="normal">
<n1:circle cx="1165.16" cy="242.126" r="13.7795"/>
</n1:g>

<n1:g fill="#00b400" fill-opacity="1" stroke="none" transform="matrix(1,0,0,1,-691.339,156.299)" font-family="Sans" font-size="152.778" font-weight="400" font-style="normal">
<n1:circle cx="1165.16" cy="188.976" r="13.7795"/>
</n1:g>

<n1:g fill="#00b400" fill-opacity="1" stroke="#00b400" stroke-opacity="1" stroke-width="19.685" stroke-linecap="round" stroke-linejoin="bevel" transform="matrix(1,0,0,1,-691.339,156.299)" font-family="Sans" font-size="152.778" font-weight="400" font-style="normal">
<n1:polyline fill="none" vector-effect="none" points="1232.09,188.976 1232.09,137.795 "/>
</n1:g>

<n1:g fill="#00b400" fill-opacity="1" stroke="none" transform="matrix(1,0,0,1,-691.339,156.299)" font-family="Sans" font-size="152.778" font-weight="400" font-style="normal">
<n1:circle cx="1064.76" cy="242.126" r="13.7795"/>
</n1:g>

<n1:g fill="#00b400" fill-opacity="1" stroke="none" transform="matrix(1,0,0,1,-691.339,156.299)" font-family="Sans" font-size="152.778" font-weight="400" font-style="normal">
<n1:circle cx="1064.76" cy="188.976" r="13.7795"/>
</n1:g>

<n1:g fill="#00b400" fill-opacity="1" stroke="#00b400" stroke-opacity="1" stroke-width="19.685" stroke-linecap="round" stroke-linejoin="bevel" transform="matrix(1,0,0,1,-691.339,156.299)" font-family="Sans" font-size="152.778" font-weight="400" font-style="normal">
<n1:polyline fill="none" vector-effect="none" points="997.835,137.795 1031.5,98.4252 "/>
<n1:polyline fill="none" vector-effect="none" points="997.835,188.976 997.835,137.795 "/>
</n1:g>

<n1:g fill="#00b400" fill-opacity="1" stroke="none" transform="matrix(1,0,0,1,-691.339,156.299)" font-family="Sans" font-size="152.778" font-weight="400" font-style="normal">
<n1:circle cx="997.835" cy="188.976" r="13.7795"/>
</n1:g>

<n1:g fill="#00b400" fill-opacity="1" stroke="none" transform="matrix(1,0,0,1,-691.339,156.299)" font-family="Sans" font-size="152.778" font-weight="400" font-style="normal">
<n1:circle cx="1131.69" cy="242.126" r="13.7795"/>
</n1:g>

<n1:g fill="#00b400" fill-opacity="1" stroke="none" transform="matrix(1,0,0,1,-691.339,156.299)" font-family="Sans" font-size="152.778" font-weight="400" font-style="normal">
<n1:circle cx="1232.09" cy="188.976" r="13.7795"/>
</n1:g>

<n1:g fill="#00b400" fill-opacity="1" stroke="#00b400" stroke-opacity="1" stroke-width="51.1811" stroke-linecap="round" stroke-linejoin="bevel" transform="matrix(1,0,0,1,-691.339,156.299)" font-family="Sans" font-size="152.778" font-weight="400" font-style="normal">
<n1:polyline fill="none" vector-effect="none" points="944.882,76.7717 944.882,41.3386 "/>
<n1:polyline fill="none" vector-effect="none" points="944.882,248.031 944.882,196.85 "/>
</n1:g>

<n1:g fill="#00b400" fill-opacity="1" stroke="#00b400" stroke-opacity="1" stroke-width="9.84252" stroke-linecap="round" stroke-linejoin="bevel" transform="matrix(1,0,0,1,-691.339,156.299)" font-family="Sans" font-size="152.778" font-weight="400" font-style="normal">
<n1:polyline fill="none" vector-effect="none" points="1098.23,188.976 1131.69,242.126 "/>
</n1:g>

<n1:g fill="#00b400" fill-opacity="1" stroke="#00b400" stroke-opacity="1" stroke-width="19.685" stroke-linecap="round" stroke-linejoin="bevel" transform="matrix(1,0,0,1,-691.339,156.299)" font-family="Sans" font-size="152.778" font-weight="400" font-style="normal">
<n1:polyline fill="none" vector-effect="none" points="1232.09,137.795 1200.79,98.4252 "/>
<n1:polyline fill="none" vector-effect="none" points="1198.62,242.126 1198.62,188.976 "/>
</n1:g>

<n1:g fill="#00b400" fill-opacity="1" stroke="none" transform="matrix(1,0,0,1,-691.339,156.299)" font-family="Sans" font-size="152.778" font-weight="400" font-style="normal">
<n1:circle cx="1031.3" cy="188.976" r="13.7795"/>
</n1:g>

<n1:g fill="#00b400" fill-opacity="1" stroke="#00b400" stroke-opacity="1" stroke-width="51.1811" stroke-linecap="round" stroke-linejoin="bevel" transform="matrix(1,0,0,1,-691.339,156.299)" font-family="Sans" font-size="152.778" font-weight="400" font-style="normal">
<n1:polyline fill="none" vector-effect="none" points="1285.04,248.031 1285.04,196.85 "/>
</n1:g>

<n1:g fill="#00b400" fill-opacity="1" stroke="#00b400" stroke-opacity="1" stroke-width="19.685" stroke-linecap="round" stroke-linejoin="bevel" transform="matrix(1,0,0,1,-691.339,156.299)" font-family="Sans" font-size="152.778" font-weight="400" font-style="normal">
<n1:polyline fill="none" vector-effect="none" points="1181.1,137.795 1161.42,137.795 "/>
<n1:polyline fill="none" vector-effect="none" points="1031.3,157.48 1051.18,137.795 "/>
</n1:g>

<n1:g fill="#00b400" fill-opacity="1" stroke="none" transform="matrix(1,0,0,1,-691.339,156.299)" font-family="Sans" font-size="152.778" font-weight="400" font-style="normal">
<n1:circle cx="1031.3" cy="242.126" r="13.7795"/>
</n1:g>

<n1:g fill="#00b400" fill-opacity="1" stroke="none" transform="matrix(1,0,0,1,-691.339,156.299)" font-family="Sans" font-size="152.778" font-weight="400" font-style="normal">
<n1:circle cx="1232.09" cy="242.126" r="13.7795"/>
</n1:g>

<n1:g fill="#00b400" fill-opacity="1" stroke="#00b400" stroke-opacity="1" stroke-width="19.685" stroke-linecap="round" stroke-linejoin="bevel" transform="matrix(1,0,0,1,-691.339,156.299)" font-family="Sans" font-size="152.778" font-weight="400" font-style="normal">
<n1:polyline fill="none" vector-effect="none" points="997.835,242.126 997.835,188.976 "/>
<n1:polyline fill="none" vector-effect="none" points="1031.3,188.976 1031.3,157.48 "/>
<n1:polyline fill="none" vector-effect="none" points="1062.99,98.4252 1200.79,98.4252 "/>
</n1:g>

<n1:g fill="#00b400" fill-opacity="1" stroke="none" transform="matrix(1,0,0,1,-691.339,156.299)" font-family="Sans" font-size="152.778" font-weight="400" font-style="normal">
<n1:circle cx="1198.62" cy="242.126" r="13.7795"/>
</n1:g>

<n1:g fill="#00b400" fill-opacity="1" stroke="none" transform="matrix(1,0,0,1,-691.339,156.299)" font-family="Sans" font-size="152.778" font-weight="400" font-style="normal">
<n1:circle cx="1131.69" cy="188.976" r="13.7795"/>
</n1:g>

<n1:g fill="#00b400" fill-opacity="1" stroke="#00b400" stroke-opacity="1" stroke-width="19.685" stroke-linecap="round" stroke-linejoin="bevel" transform="matrix(1,0,0,1,-691.339,156.299)" font-family="Sans" font-size="152.778" font-weight="400" font-style="normal">
<n1:polyline fill="none" vector-effect="none" points="1031.3,242.126 1031.3,188.976 "/>
<n1:polyline fill="none" vector-effect="none" points="1198.62,157.48 1181.1,137.795 "/>
</n1:g>

<n1:g fill="#00b400" fill-opacity="1" stroke="none" transform="matrix(1,0,0,1,-691.339,156.299)" font-family="Sans" font-size="152.778" font-weight="400" font-style="normal">
<n1:circle cx="1098.23" cy="188.976" r="13.7795"/>
</n1:g>

<n1:g fill="#00b400" fill-opacity="1" stroke="#00b400" stroke-opacity="1" stroke-width="19.685" stroke-linecap="round" stroke-linejoin="bevel" transform="matrix(1,0,0,1,-691.339,156.299)" font-family="Sans" font-size="152.778" font-weight="400" font-style="normal">
<n1:polyline fill="none" vector-effect="none" points="1161.42,137.795 1059.06,137.795 "/>
</n1:g>

<n1:g fill="#00b400" fill-opacity="1" stroke="#00b400" stroke-opacity="1" stroke-width="51.1811" stroke-linecap="round" stroke-linejoin="bevel" transform="matrix(1,0,0,1,-691.339,156.299)" font-family="Sans" font-size="152.778" font-weight="400" font-style="normal">
<n1:polyline fill="none" vector-effect="none" points="1285.04,76.7717 1285.04,41.3386 "/>
</n1:g>

<n1:g fill="#00b400" fill-opacity="1" stroke="none" transform="matrix(1,0,0,1,-691.339,156.299)" font-family="Sans" font-size="152.778" font-weight="400" font-style="normal">
<n1:circle cx="1098.23" cy="242.126" r="13.7795"/>
</n1:g>

<n1:g fill="#00b400" fill-opacity="1" stroke="#00b400" stroke-opacity="1" stroke-width="19.685" stroke-linecap="round" stroke-linejoin="bevel" transform="matrix(1,0,0,1,-691.339,156.299)" font-family="Sans" font-size="152.778" font-weight="400" font-style="normal">
<n1:polyline fill="none" vector-effect="none" points="1031.5,98.4252 1062.99,98.4252 "/>
</n1:g>

<n1:g fill="#00b400" fill-opacity="1" stroke="none" transform="matrix(1,0,0,1,-691.339,156.299)" font-family="Sans" font-size="152.778" font-weight="400" font-style="normal">
<n1:circle cx="997.835" cy="242.126" r="13.7795"/>
</n1:g>

<n1:g fill="#00b400" fill-opacity="1" stroke="#00b400" stroke-opacity="1" stroke-width="19.685" stroke-linecap="round" stroke-linejoin="bevel" transform="matrix(1,0,0,1,-691.339,156.299)" font-family="Sans" font-size="152.778" font-weight="400" font-style="normal">
<n1:polyline fill="none" vector-effect="none" points="1051.18,137.795 1059.06,137.795 "/>
</n1:g>

<n1:g fill="#00b400" fill-opacity="1" stroke="none" transform="matrix(1,0,0,1,-691.339,156.299)" font-family="Sans" font-size="152.778" font-weight="400" font-style="normal">
<n1:circle cx="1198.62" cy="188.976" r="13.7795"/>
</n1:g>

<n1:g fill="#00b400" fill-opacity="1" stroke="#00b400" stroke-opacity="1" stroke-width="19.685" stroke-linecap="round" stroke-linejoin="bevel" transform="matrix(1,0,0,1,-691.339,156.299)" font-family="Sans" font-size="152.778" font-weight="400" font-style="normal">
<n1:polyline fill="none" vector-effect="none" points="1232.09,242.126 1232.09,188.976 "/>
<n1:polyline fill="none" vector-effect="none" points="1198.62,188.976 1198.62,157.48 "/>
</n1:g>

<n1:g fill="#ff0000" fill-opacity="1" stroke="none" transform="matrix(1,0,0,1,-691.339,156.299)" font-family="Sans" font-size="152.778" font-weight="400" font-style="normal">
<n1:circle cx="1165.16" cy="242.126" r="13.7795"/>
</n1:g>

<n1:g fill="#ff0000" fill-opacity="1" stroke="none" transform="matrix(1,0,0,1,-691.339,156.299)" font-family="Sans" font-size="152.778" font-weight="400" font-style="normal">
<n1:circle cx="1165.16" cy="188.976" r="13.7795"/>
</n1:g>

<n1:g fill="#ff0000" fill-opacity="1" stroke="none" transform="matrix(1,0,0,1,-691.339,156.299)" font-family="Sans" font-size="152.778" font-weight="400" font-style="normal">
<n1:circle cx="1064.76" cy="242.126" r="13.7795"/>
</n1:g>

<n1:g fill="#ff0000" fill-opacity="1" stroke="none" transform="matrix(1,0,0,1,-691.339,156.299)" font-family="Sans" font-size="152.778" font-weight="400" font-style="normal">
<n1:circle cx="1064.76" cy="188.976" r="13.7795"/>
</n1:g>

<n1:g fill="#ff0000" fill-opacity="1" stroke="none" transform="matrix(1,0,0,1,-691.339,156.299)" font-family="Sans" font-size="152.778" font-weight="400" font-style="normal">
<n1:circle cx="997.835" cy="188.976" r="13.7795"/>
</n1:g>

<n1:g fill="#ff0000" fill-opacity="1" stroke="none" transform="matrix(1,0,0,1,-691.339,156.299)" font-family="Sans" font-size="152.778" font-weight="400" font-style="normal">
<n1:circle cx="1131.69" cy="242.126" r="13.7795"/>
</n1:g>

<n1:g fill="#ff0000" fill-opacity="1" stroke="#ff0000" stroke-opacity="1" stroke-width="9.84252" stroke-linecap="round" stroke-linejoin="bevel" transform="matrix(1,0,0,1,-691.339,156.299)" font-family="Sans" font-size="152.778" font-weight="400" font-style="normal">
<n1:polyline fill="none" vector-effect="none" points="1098.23,242.126 1131.69,188.976 "/>
</n1:g>

<n1:g fill="#ff0000" fill-opacity="1" stroke="none" transform="matrix(1,0,0,1,-691.339,156.299)" font-family="Sans" font-size="152.778" font-weight="400" font-style="normal">
<n1:circle cx="1232.09" cy="188.976" r="13.7795"/>
</n1:g>

<n1:g fill="#ff0000" fill-opacity="1" stroke="#ff0000" stroke-opacity="1" stroke-width="51.1811" stroke-linecap="round" stroke-linejoin="bevel" transform="matrix(1,0,0,1,-691.339,156.299)" font-family="Sans" font-size="152.778" font-weight="400" font-style="normal">
<n1:polyline fill="none" vector-effect="none" points="944.882,76.7717 944.882,41.3386 "/>
<n1:polyline fill="none" vector-effect="none" points="944.882,248.031 944.882,196.85 "/>
</n1:g>

<n1:g fill="#ff0000" fill-opacity="1" stroke="none" transform="matrix(1,0,0,1,-691.339,156.299)" font-family="Sans" font-size="152.778" font-weight="400" font-style="normal">
<n1:circle cx="1031.3" cy="188.976" r="13.7795"/>
</n1:g>

<n1:g fill="#ff0000" fill-opacity="1" stroke="#ff0000" stroke-opacity="1" stroke-width="51.1811" stroke-linecap="round" stroke-linejoin="bevel" transform="matrix(1,0,0,1,-691.339,156.299)" font-family="Sans" font-size="152.778" font-weight="400" font-style="normal">
<n1:polyline fill="none" vector-effect="none" points="1285.04,248.031 1285.04,196.85 "/>
</n1:g>

<n1:g fill="#ff0000" fill-opacity="1" stroke="none" transform="matrix(1,0,0,1,-691.339,156.299)" font-family="Sans" font-size="152.778" font-weight="400" font-style="normal">
<n1:circle cx="1031.3" cy="242.126" r="13.7795"/>
</n1:g>

<n1:g fill="#ff0000" fill-opacity="1" stroke="none" transform="matrix(1,0,0,1,-691.339,156.299)" font-family="Sans" font-size="152.778" font-weight="400" font-style="normal">
<n1:circle cx="1232.09" cy="242.126" r="13.7795"/>
</n1:g>

<n1:g fill="#ff0000" fill-opacity="1" stroke="none" transform="matrix(1,0,0,1,-691.339,156.299)" font-family="Sans" font-size="152.778" font-weight="400" font-style="normal">
<n1:circle cx="1198.62" cy="242.126" r="13.7795"/>
</n1:g>

<n1:g fill="#ff0000" fill-opacity="1" stroke="none" transform="matrix(1,0,0,1,-691.339,156.299)" font-family="Sans" font-size="152.778" font-weight="400" font-style="normal">
<n1:circle cx="1131.69" cy="188.976" r="13.7795"/>
</n1:g>

<n1:g fill="#ff0000" fill-opacity="1" stroke="none" transform="matrix(1,0,0,1,-691.339,156.299)" font-family="Sans" font-size="152.778" font-weight="400" font-style="normal">
<n1:circle cx="1098.23" cy="188.976" r="13.7795"/>
</n1:g>

<n1:g fill="#ff0000" fill-opacity="1" stroke="#ff0000" stroke-opacity="1" stroke-width="51.1811" stroke-linecap="round" stroke-linejoin="bevel" transform="matrix(1,0,0,1,-691.339,156.299)" font-family="Sans" font-size="152.778" font-weight="400" font-style="normal">
<n1:polyline fill="none" vector-effect="none" points="1285.04,76.7717 1285.04,41.3386 "/>
</n1:g>

<n1:g fill="#ff0000" fill-opacity="1" stroke="none" transform="matrix(1,0,0,1,-691.339,156.299)" font-family="Sans" font-size="152.778" font-weight="400" font-style="normal">
<n1:circle cx="1098.23" cy="242.126" r="13.7795"/>
</n1:g>

<n1:g fill="#ff0000" fill-opacity="1" stroke="none" transform="matrix(1,0,0,1,-691.339,156.299)" font-family="Sans" font-size="152.778" font-weight="400" font-style="normal">
<n1:circle cx="997.835" cy="242.126" r="13.7795"/>
</n1:g>

<n1:g fill="#ff0000" fill-opacity="1" stroke="none" transform="matrix(1,0,0,1,-691.339,156.299)" font-family="Sans" font-size="152.778" font-weight="400" font-style="normal">
<n1:circle cx="1198.62" cy="188.976" r="13.7795"/>
</n1:g>

<n1:g fill="#000000" fill-opacity="1" stroke="none" transform="matrix(1,0,0,1,-691.339,156.299)" font-family="Sans" font-size="152.778" font-weight="400" font-style="normal">
<n1:circle cx="1165.16" cy="242.126" r="6.27953"/>
</n1:g>

<n1:g fill="#000000" fill-opacity="1" stroke="none" transform="matrix(1,0,0,1,-691.339,156.299)" font-family="Sans" font-size="152.778" font-weight="400" font-style="normal">
<n1:circle cx="1165.16" cy="188.976" r="6.27953"/>
</n1:g>

<n1:g fill="#000000" fill-opacity="1" stroke="none" transform="matrix(1,0,0,1,-691.339,156.299)" font-family="Sans" font-size="152.778" font-weight="400" font-style="normal">
<n1:circle cx="1064.76" cy="242.126" r="6.27953"/>
</n1:g>

<n1:g fill="#000000" fill-opacity="1" stroke="none" transform="matrix(1,0,0,1,-691.339,156.299)" font-family="Sans" font-size="152.778" font-weight="400" font-style="normal">
<n1:circle cx="1064.76" cy="188.976" r="6.27953"/>
</n1:g>

<n1:g fill="#000000" fill-opacity="1" stroke="none" transform="matrix(1,0,0,1,-691.339,156.299)" font-family="Sans" font-size="152.778" font-weight="400" font-style="normal">
<n1:circle cx="997.835" cy="188.976" r="6.27953"/>
</n1:g>

<n1:g fill="#000000" fill-opacity="1" stroke="none" transform="matrix(1,0,0,1,-691.339,156.299)" font-family="Sans" font-size="152.778" font-weight="400" font-style="normal">
<n1:circle cx="1131.69" cy="242.126" r="6.27953"/>
</n1:g>

<n1:g fill="#000000" fill-opacity="1" stroke="none" transform="matrix(1,0,0,1,-691.339,156.299)" font-family="Sans" font-size="152.778" font-weight="400" font-style="normal">
<n1:circle cx="1232.09" cy="188.976" r="6.27953"/>
</n1:g>

<n1:g fill="#000000" fill-opacity="1" stroke="#000000" stroke-opacity="1" stroke-width="27.5591" stroke-linecap="round" stroke-linejoin="bevel" transform="matrix(1,0,0,1,-691.339,156.299)" font-family="Sans" font-size="152.778" font-weight="400" font-style="normal">
<n1:polyline fill="none" vector-effect="none" points="944.882,76.7717 944.882,41.3386 "/>
<n1:polyline fill="none" vector-effect="none" points="944.882,248.031 944.882,196.85 "/>
</n1:g>

<n1:g fill="#000000" fill-opacity="1" stroke="none" transform="matrix(1,0,0,1,-691.339,156.299)" font-family="Sans" font-size="152.778" font-weight="400" font-style="normal">
<n1:circle cx="1031.3" cy="188.976" r="6.27953"/>
</n1:g>

<n1:g fill="#000000" fill-opacity="1" stroke="#000000" stroke-opacity="1" stroke-width="27.5591" stroke-linecap="round" stroke-linejoin="bevel" transform="matrix(1,0,0,1,-691.339,156.299)" font-family="Sans" font-size="152.778" font-weight="400" font-style="normal">
<n1:polyline fill="none" vector-effect="none" points="1285.04,248.031 1285.04,196.85 "/>
</n1:g>

<n1:g fill="#000000" fill-opacity="1" stroke="none" transform="matrix(1,0,0,1,-691.339,156.299)" font-family="Sans" font-size="152.778" font-weight="400" font-style="normal">
<n1:circle cx="1031.3" cy="242.126" r="6.27953"/>
</n1:g>

<n1:g fill="#000000" fill-opacity="1" stroke="none" transform="matrix(1,0,0,1,-691.339,156.299)" font-family="Sans" font-size="152.778" font-weight="400" font-style="normal">
<n1:circle cx="1232.09" cy="242.126" r="6.27953"/>
</n1:g>

<n1:g fill="#000000" fill-opacity="1" stroke="none" transform="matrix(1,0,0,1,-691.339,156.299)" font-family="Sans" font-size="152.778" font-weight="400" font-style="normal">
<n1:circle cx="1198.62" cy="242.126" r="6.27953"/>
</n1:g>

<n1:g fill="#000000" fill-opacity="1" stroke="none" transform="matrix(1,0,0,1,-691.339,156.299)" font-family="Sans" font-size="152.778" font-weight="400" font-style="normal">
<n1:circle cx="1131.69" cy="188.976" r="6.27953"/>
</n1:g>

<n1:g fill="#000000" fill-opacity="1" stroke="none" transform="matrix(1,0,0,1,-691.339,156.299)" font-family="Sans" font-size="152.778" font-weight="400" font-style="normal">
<n1:circle cx="1098.23" cy="188.976" r="6.27953"/>
</n1:g>

<n1:g fill="#000000" fill-opacity="1" stroke="#000000" stroke-opacity="1" stroke-width="27.5591" stroke-linecap="round" stroke-linejoin="bevel" transform="matrix(1,0,0,1,-691.339,156.299)" font-family="Sans" font-size="152.778" font-weight="400" font-style="normal">
<n1:polyline fill="none" vector-effect="none" points="1285.04,76.7717 1285.04,41.3386 "/>
</n1:g>

<n1:g fill="#000000" fill-opacity="1" stroke="none" transform="matrix(1,0,0,1,-691.339,156.299)" font-family="Sans" font-size="152.778" font-weight="400" font-style="normal">
<n1:circle cx="1098.23" cy="242.126" r="6.27953"/>
</n1:g>

<n1:g fill="#000000" fill-opacity="1" stroke="none" transform="matrix(1,0,0,1,-691.339,156.299)" font-family="Sans" font-size="152.778" font-weight="400" font-style="normal">
<n1:circle cx="997.835" cy="242.126" r="6.27953"/>
</n1:g>

<n1:g fill="#000000" fill-opacity="1" stroke="none" transform="matrix(1,0,0,1,-691.339,156.299)" font-family="Sans" font-size="152.778" font-weight="400" font-style="normal">
<n1:circle cx="1198.62" cy="188.976" r="6.27953"/>
</n1:g>

<n1:g fill="#000000" fill-opacity="1" stroke="#9664ff" stroke-opacity="1" stroke-width="9.84252" stroke-linecap="round" stroke-linejoin="bevel" transform="matrix(1,0,0,1,-691.339,156.299)" font-family="Sans" font-size="152.778" font-weight="400" font-style="normal">
<n1:polyline fill="none" vector-effect="none" points="721.26,0 1508.66,0 "/>
<n1:polyline fill="none" vector-effect="none" points="1023.9,-126.378 1206.1,-126.378 "/>
</n1:g>

<n1:g fill="none" stroke="#9664ff" stroke-opacity="1" stroke-width="9.84252" stroke-linecap="round" stroke-linejoin="bevel" transform="matrix(1,0,0,1,-691.339,156.299)" font-family="Sans" font-size="152.778" font-weight="400" font-style="normal">
<n1:path vector-effect="none" fill-rule="evenodd" d="M1211.02,0.216535 C1245.92,0.216535 1274.21,-28.0741 1274.21,-62.9724 C1274.21,-97.8707 1245.92,-126.161 1211.02,-126.161 "/>
<n1:path vector-effect="none" fill-rule="evenodd" d="M1018.98,-126.201 C984.078,-126.201 955.787,-97.9101 955.787,-63.0118 C955.787,-28.1135 984.078,0.177165 1018.98,0.177165 "/>
</n1:g>
</n1:g>
</svg>
