<?xml version="1.0" encoding="UTF-8"?>
<svg width="12.7mm" height="12.7mm" viewBox="0 0 500 500" version="1.2" baseProfile="tiny" xmlns:n1="http://www.w3.org/2000/svg" xmlns:xlink="http://www.w3.org/1999/xlink" xmlns:cpcb="http://www.danielwagenaar.net/cpcb-ns.html">
  <cpcb:part pkg="part-passive-resistor" xmlns="http://www.danielwagenaar.net/cpcb-ns.html">
    <group ref="R?">
      <hole p="495300 177800" id="8890" od="16510" sq="0" ref="2"/>
      <hole p="406400 177800" id="8890" od="16510" sq="0" ref="1"/>
      <trace p1="482600 165100" p2="419100 165100" w="2540" l="1"/>
      <trace p1="419100 190500" p2="482600 190500" w="2540" l="1"/>
      <trace p1="482600 190500" p2="482600 177800" w="2540" l="1"/>
      <trace p1="419100 177800" p2="412750 177800" w="2540" l="1"/>
      <trace p1="419100 177800" p2="419100 190500" w="2540" l="1"/>
      <trace p1="419100 165100" p2="419100 177800" w="2540" l="1"/>
      <trace p1="482600 177800" p2="488950 177800" w="2540" l="1"/>
      <trace p1="482600 177800" p2="482600 165100" w="2540" l="1"/>
    </group>
    <text p="0 0" fs="0" l="76" ori="0 0" text=""/>
  </cpcb:part>
<n1:title>PCB Component</n1:title>
<n1:desc>Generated by CPCB</n1:desc>
<n1:defs>
</n1:defs>
<n1:g fill="none" stroke="black" stroke-width="1" fill-rule="evenodd" stroke-linecap="square" stroke-linejoin="bevel">

<n1:g fill="#000000" fill-opacity="1" stroke="none" transform="matrix(1,0,0,1,-1525,-450)" font-family="Sans" font-size="152.778" font-weight="400" font-style="normal">
<n1:rect x="1525" y="450" width="500" height="500"/>
</n1:g>

<n1:g fill="#00b400" fill-opacity="1" stroke="none" transform="matrix(1,0,0,1,-1525,-450)" font-family="Sans" font-size="152.778" font-weight="400" font-style="normal">
<n1:circle cx="1950" cy="700" r="32.5"/>
</n1:g>

<n1:g fill="#00b400" fill-opacity="1" stroke="none" transform="matrix(1,0,0,1,-1525,-450)" font-family="Sans" font-size="152.778" font-weight="400" font-style="normal">
<n1:circle cx="1600" cy="700" r="32.5"/>
</n1:g>

<n1:g fill="#ff0000" fill-opacity="1" stroke="none" transform="matrix(1,0,0,1,-1525,-450)" font-family="Sans" font-size="152.778" font-weight="400" font-style="normal">
<n1:circle cx="1950" cy="700" r="32.5"/>
</n1:g>

<n1:g fill="#ff0000" fill-opacity="1" stroke="none" transform="matrix(1,0,0,1,-1525,-450)" font-family="Sans" font-size="152.778" font-weight="400" font-style="normal">
<n1:circle cx="1600" cy="700" r="32.5"/>
</n1:g>

<n1:g fill="#000000" fill-opacity="1" stroke="none" transform="matrix(1,0,0,1,-1525,-450)" font-family="Sans" font-size="152.778" font-weight="400" font-style="normal">
<n1:circle cx="1950" cy="700" r="17.5"/>
</n1:g>

<n1:g fill="#000000" fill-opacity="1" stroke="none" transform="matrix(1,0,0,1,-1525,-450)" font-family="Sans" font-size="152.778" font-weight="400" font-style="normal">
<n1:circle cx="1600" cy="700" r="17.5"/>
</n1:g>

<n1:g fill="#000000" fill-opacity="1" stroke="#f0f000" stroke-opacity="1" stroke-width="10" stroke-linecap="round" stroke-linejoin="bevel" transform="matrix(1,0,0,1,-1525,-450)" font-family="Sans" font-size="152.778" font-weight="400" font-style="normal">
<n1:polyline fill="none" vector-effect="none" points="1900,650 1650,650 "/>
<n1:polyline fill="none" vector-effect="none" points="1650,750 1900,750 "/>
<n1:polyline fill="none" vector-effect="none" points="1900,750 1900,700 "/>
<n1:polyline fill="none" vector-effect="none" points="1650,700 1625,700 "/>
<n1:polyline fill="none" vector-effect="none" points="1650,700 1650,750 "/>
<n1:polyline fill="none" vector-effect="none" points="1650,650 1650,700 "/>
<n1:polyline fill="none" vector-effect="none" points="1900,700 1925,700 "/>
<n1:polyline fill="none" vector-effect="none" points="1900,700 1900,650 "/>
</n1:g>
</n1:g>
</svg>
