<?xml version="1.0" encoding="UTF-8"?>
<svg width="12.7mm" height="12.7mm" viewBox="0 0 500 500" version="1.2" baseProfile="tiny" xmlns:n1="http://www.w3.org/2000/svg" xmlns:xlink="http://www.w3.org/1999/xlink" xmlns:cpcb="http://www.danielwagenaar.net/cpcb-ns.html">
  <cpcb:part pkg="part-passive-resistor-pot" xmlns="http://www.danielwagenaar.net/cpcb-ns.html">
    <group ref="J?">
      <hole p="406400 317500" id="10160" od="16510" sq="0" ref="3"/>
      <trace p1="393700 254000" p2="393700 330200" w="2540" l="1"/>
      <hole p="406400 266700" id="10160" od="16510" sq="1" ref="1"/>
      <hole p="406400 292100" id="10160" od="16510" sq="0" ref="2"/>
      <trace p1="419100 330200" p2="419100 254000" w="2540" l="1"/>
      <trace p1="393700 330200" p2="419100 330200" w="2540" l="1"/>
      <trace p1="419100 254000" p2="393700 254000" w="2540" l="1"/>
    </group>
    <text p="0 0" fs="0" l="76" ori="0 0" text=""/>
  </cpcb:part>
<n1:title>PCB Component</n1:title>
<n1:desc>Generated by CPCB</n1:desc>
<n1:defs>
</n1:defs>
<n1:g fill="none" stroke="black" stroke-width="1" fill-rule="evenodd" stroke-linecap="square" stroke-linejoin="bevel">

<n1:g fill="#000000" fill-opacity="1" stroke="none" transform="matrix(1,0,0,1,-1350,-900)" font-family="Sans" font-size="152.778" font-weight="400" font-style="normal">
<n1:rect x="1350" y="900" width="500" height="500"/>
</n1:g>

<n1:g fill="#00b400" fill-opacity="1" stroke="none" transform="matrix(1,0,0,1,-1350,-900)" font-family="Sans" font-size="152.778" font-weight="400" font-style="normal">
<n1:circle cx="1600" cy="1250" r="32.5"/>
</n1:g>

<n1:g fill="#00b400" fill-opacity="1" stroke="none" transform="matrix(1,0,0,1,-1350,-900)" font-family="Sans" font-size="152.778" font-weight="400" font-style="normal">
<n1:rect x="1567.5" y="1017.5" width="65" height="65"/>
</n1:g>

<n1:g fill="#00b400" fill-opacity="1" stroke="none" transform="matrix(1,0,0,1,-1350,-900)" font-family="Sans" font-size="152.778" font-weight="400" font-style="normal">
<n1:circle cx="1600" cy="1150" r="32.5"/>
</n1:g>

<n1:g fill="#ff0000" fill-opacity="1" stroke="none" transform="matrix(1,0,0,1,-1350,-900)" font-family="Sans" font-size="152.778" font-weight="400" font-style="normal">
<n1:circle cx="1600" cy="1250" r="32.5"/>
</n1:g>

<n1:g fill="#ff0000" fill-opacity="1" stroke="none" transform="matrix(1,0,0,1,-1350,-900)" font-family="Sans" font-size="152.778" font-weight="400" font-style="normal">
<n1:rect x="1567.5" y="1017.5" width="65" height="65"/>
</n1:g>

<n1:g fill="#ff0000" fill-opacity="1" stroke="none" transform="matrix(1,0,0,1,-1350,-900)" font-family="Sans" font-size="152.778" font-weight="400" font-style="normal">
<n1:circle cx="1600" cy="1150" r="32.5"/>
</n1:g>

<n1:g fill="#000000" fill-opacity="1" stroke="none" transform="matrix(1,0,0,1,-1350,-900)" font-family="Sans" font-size="152.778" font-weight="400" font-style="normal">
<n1:circle cx="1600" cy="1250" r="20"/>
</n1:g>

<n1:g fill="#000000" fill-opacity="1" stroke="none" transform="matrix(1,0,0,1,-1350,-900)" font-family="Sans" font-size="152.778" font-weight="400" font-style="normal">
<n1:circle cx="1600" cy="1050" r="20"/>
</n1:g>

<n1:g fill="#000000" fill-opacity="1" stroke="none" transform="matrix(1,0,0,1,-1350,-900)" font-family="Sans" font-size="152.778" font-weight="400" font-style="normal">
<n1:circle cx="1600" cy="1150" r="20"/>
</n1:g>

<n1:g fill="#000000" fill-opacity="1" stroke="#f0f000" stroke-opacity="1" stroke-width="10" stroke-linecap="round" stroke-linejoin="bevel" transform="matrix(1,0,0,1,-1350,-900)" font-family="Sans" font-size="152.778" font-weight="400" font-style="normal">
<n1:polyline fill="none" vector-effect="none" points="1550,1000 1550,1300 "/>
<n1:polyline fill="none" vector-effect="none" points="1650,1300 1650,1000 "/>
<n1:polyline fill="none" vector-effect="none" points="1550,1300 1650,1300 "/>
<n1:polyline fill="none" vector-effect="none" points="1650,1000 1550,1000 "/>
</n1:g>
</n1:g>
</svg>
