<?xml version="1.0" encoding="UTF-8"?>
<svg width="12.7mm" height="12.7mm" viewBox="0 0 500 500" version="1.2" baseProfile="tiny" xmlns:n1="http://www.w3.org/2000/svg" xmlns:xlink="http://www.w3.org/1999/xlink" xmlns:cpcb="http://www.danielwagenaar.net/cpcb-ns.html">
  <cpcb:part pkg="part-container-opamp-1" xmlns="http://www.danielwagenaar.net/cpcb-ns.html">
    <group ref="J?">
      <hole p="381000 330200" id="10160" od="16510" sq="0" ref="5"/>
      <arc p="342900 241300" r="12700" lw="2540" l="1" ang="180" rot="2"/>
      <trace p1="393700 241300" p2="355600 241300" w="2540" l="1"/>
      <trace p1="393700 342900" p2="393700 241300" w="2540" l="1"/>
      <hole p="304800 304800" id="10160" od="16510" sq="0" ref="3"/>
      <hole p="304800 279400" id="10160" od="16510" sq="0" ref="2"/>
      <hole p="304800 254000" id="10160" od="16510" sq="1" ref="1"/>
      <hole p="381000 304800" id="10160" od="16510" sq="0" ref="6"/>
      <hole p="381000 279400" id="10160" od="16510" sq="0" ref="7"/>
      <hole p="381000 254000" id="10160" od="16510" sq="0" ref="8"/>
      <hole p="304800 330200" id="10160" od="16510" sq="0" ref="4"/>
      <trace p1="292100 342900" p2="393700 342900" w="2540" l="1"/>
      <trace p1="292100 241300" p2="292100 342900" w="2540" l="1"/>
      <trace p1="330200 241300" p2="292100 241300" w="2540" l="1"/>
    </group>
    <text p="0 0" fs="0" l="76" ori="0 0" text=""/>
  </cpcb:part>
<n1:title>PCB Component</n1:title>
<n1:desc>Generated by CPCB</n1:desc>
<n1:defs>
</n1:defs>
<n1:g fill="none" stroke="black" stroke-width="1" fill-rule="evenodd" stroke-linecap="square" stroke-linejoin="bevel">

<n1:g fill="#000000" fill-opacity="1" stroke="none" transform="matrix(1,0,0,1,-1100,-899.98)" font-family="Sans" font-size="152.778" font-weight="400" font-style="normal">
<n1:rect x="1100" y="899.98" width="500" height="500"/>
</n1:g>

<n1:g fill="#00b400" fill-opacity="1" stroke="none" transform="matrix(1,0,0,1,-1100,-899.98)" font-family="Sans" font-size="152.778" font-weight="400" font-style="normal">
<n1:circle cx="1500" cy="1300" r="32.5"/>
</n1:g>

<n1:g fill="#00b400" fill-opacity="1" stroke="none" transform="matrix(1,0,0,1,-1100,-899.98)" font-family="Sans" font-size="152.778" font-weight="400" font-style="normal">
<n1:circle cx="1200" cy="1200" r="32.5"/>
</n1:g>

<n1:g fill="#00b400" fill-opacity="1" stroke="none" transform="matrix(1,0,0,1,-1100,-899.98)" font-family="Sans" font-size="152.778" font-weight="400" font-style="normal">
<n1:circle cx="1200" cy="1100" r="32.5"/>
</n1:g>

<n1:g fill="#00b400" fill-opacity="1" stroke="none" transform="matrix(1,0,0,1,-1100,-899.98)" font-family="Sans" font-size="152.778" font-weight="400" font-style="normal">
<n1:rect x="1167.5" y="967.5" width="65" height="65"/>
</n1:g>

<n1:g fill="#00b400" fill-opacity="1" stroke="none" transform="matrix(1,0,0,1,-1100,-899.98)" font-family="Sans" font-size="152.778" font-weight="400" font-style="normal">
<n1:circle cx="1500" cy="1200" r="32.5"/>
</n1:g>

<n1:g fill="#00b400" fill-opacity="1" stroke="none" transform="matrix(1,0,0,1,-1100,-899.98)" font-family="Sans" font-size="152.778" font-weight="400" font-style="normal">
<n1:circle cx="1500" cy="1100" r="32.5"/>
</n1:g>

<n1:g fill="#00b400" fill-opacity="1" stroke="none" transform="matrix(1,0,0,1,-1100,-899.98)" font-family="Sans" font-size="152.778" font-weight="400" font-style="normal">
<n1:circle cx="1500" cy="1000" r="32.5"/>
</n1:g>

<n1:g fill="#00b400" fill-opacity="1" stroke="none" transform="matrix(1,0,0,1,-1100,-899.98)" font-family="Sans" font-size="152.778" font-weight="400" font-style="normal">
<n1:circle cx="1200" cy="1300" r="32.5"/>
</n1:g>

<n1:g fill="#ff0000" fill-opacity="1" stroke="none" transform="matrix(1,0,0,1,-1100,-899.98)" font-family="Sans" font-size="152.778" font-weight="400" font-style="normal">
<n1:circle cx="1500" cy="1300" r="32.5"/>
</n1:g>

<n1:g fill="#ff0000" fill-opacity="1" stroke="none" transform="matrix(1,0,0,1,-1100,-899.98)" font-family="Sans" font-size="152.778" font-weight="400" font-style="normal">
<n1:circle cx="1200" cy="1200" r="32.5"/>
</n1:g>

<n1:g fill="#ff0000" fill-opacity="1" stroke="none" transform="matrix(1,0,0,1,-1100,-899.98)" font-family="Sans" font-size="152.778" font-weight="400" font-style="normal">
<n1:circle cx="1200" cy="1100" r="32.5"/>
</n1:g>

<n1:g fill="#ff0000" fill-opacity="1" stroke="none" transform="matrix(1,0,0,1,-1100,-899.98)" font-family="Sans" font-size="152.778" font-weight="400" font-style="normal">
<n1:rect x="1167.5" y="967.5" width="65" height="65"/>
</n1:g>

<n1:g fill="#ff0000" fill-opacity="1" stroke="none" transform="matrix(1,0,0,1,-1100,-899.98)" font-family="Sans" font-size="152.778" font-weight="400" font-style="normal">
<n1:circle cx="1500" cy="1200" r="32.5"/>
</n1:g>

<n1:g fill="#ff0000" fill-opacity="1" stroke="none" transform="matrix(1,0,0,1,-1100,-899.98)" font-family="Sans" font-size="152.778" font-weight="400" font-style="normal">
<n1:circle cx="1500" cy="1100" r="32.5"/>
</n1:g>

<n1:g fill="#ff0000" fill-opacity="1" stroke="none" transform="matrix(1,0,0,1,-1100,-899.98)" font-family="Sans" font-size="152.778" font-weight="400" font-style="normal">
<n1:circle cx="1500" cy="1000" r="32.5"/>
</n1:g>

<n1:g fill="#ff0000" fill-opacity="1" stroke="none" transform="matrix(1,0,0,1,-1100,-899.98)" font-family="Sans" font-size="152.778" font-weight="400" font-style="normal">
<n1:circle cx="1200" cy="1300" r="32.5"/>
</n1:g>

<n1:g fill="#000000" fill-opacity="1" stroke="none" transform="matrix(1,0,0,1,-1100,-899.98)" font-family="Sans" font-size="152.778" font-weight="400" font-style="normal">
<n1:circle cx="1500" cy="1300" r="20"/>
</n1:g>

<n1:g fill="#000000" fill-opacity="1" stroke="none" transform="matrix(1,0,0,1,-1100,-899.98)" font-family="Sans" font-size="152.778" font-weight="400" font-style="normal">
<n1:circle cx="1200" cy="1200" r="20"/>
</n1:g>

<n1:g fill="#000000" fill-opacity="1" stroke="none" transform="matrix(1,0,0,1,-1100,-899.98)" font-family="Sans" font-size="152.778" font-weight="400" font-style="normal">
<n1:circle cx="1200" cy="1100" r="20"/>
</n1:g>

<n1:g fill="#000000" fill-opacity="1" stroke="none" transform="matrix(1,0,0,1,-1100,-899.98)" font-family="Sans" font-size="152.778" font-weight="400" font-style="normal">
<n1:circle cx="1200" cy="1000" r="20"/>
</n1:g>

<n1:g fill="#000000" fill-opacity="1" stroke="none" transform="matrix(1,0,0,1,-1100,-899.98)" font-family="Sans" font-size="152.778" font-weight="400" font-style="normal">
<n1:circle cx="1500" cy="1200" r="20"/>
</n1:g>

<n1:g fill="#000000" fill-opacity="1" stroke="none" transform="matrix(1,0,0,1,-1100,-899.98)" font-family="Sans" font-size="152.778" font-weight="400" font-style="normal">
<n1:circle cx="1500" cy="1100" r="20"/>
</n1:g>

<n1:g fill="#000000" fill-opacity="1" stroke="none" transform="matrix(1,0,0,1,-1100,-899.98)" font-family="Sans" font-size="152.778" font-weight="400" font-style="normal">
<n1:circle cx="1500" cy="1000" r="20"/>
</n1:g>

<n1:g fill="#000000" fill-opacity="1" stroke="none" transform="matrix(1,0,0,1,-1100,-899.98)" font-family="Sans" font-size="152.778" font-weight="400" font-style="normal">
<n1:circle cx="1200" cy="1300" r="20"/>
</n1:g>

<n1:g fill="none" stroke="#f0f000" stroke-opacity="1" stroke-width="10" stroke-linecap="round" stroke-linejoin="bevel" transform="matrix(1,0,0,1,-1100,-899.98)" font-family="Sans" font-size="152.778" font-weight="400" font-style="normal">
<n1:path vector-effect="none" fill-rule="evenodd" d="M1300,950 C1300,977.614 1322.39,1000 1350,1000 C1377.61,1000 1400,977.614 1400,950 "/>
<n1:polyline fill="none" vector-effect="none" points="1550,950 1400,950 "/>
<n1:polyline fill="none" vector-effect="none" points="1550,1350 1550,950 "/>
<n1:polyline fill="none" vector-effect="none" points="1150,1350 1550,1350 "/>
<n1:polyline fill="none" vector-effect="none" points="1150,950 1150,1350 "/>
<n1:polyline fill="none" vector-effect="none" points="1300,950 1150,950 "/>
</n1:g>
</n1:g>
</svg>
