<?xml version="1.0" encoding="UTF-8"?>
<svg width="12.7mm" height="12.7mm" viewBox="0 0 500 500" version="1.2" baseProfile="tiny" xmlns:n1="http://www.w3.org/2000/svg" xmlns:xlink="http://www.w3.org/1999/xlink" xmlns:cpcb="http://www.danielwagenaar.net/cpcb-ns.html">
  <cpcb:part pkg="part-transistor-MOSFET-n" xmlns="http://www.danielwagenaar.net/cpcb-ns.html">
    <group ref="Q?">
      <hole p="329946 381000" id="8890" od="16510" sq="1" ref="1"/>
      <hole p="380746 381000" id="8890" od="16510" sq="0" ref="3"/>
      <hole p="355346 381000" id="8890" od="16510" sq="0" ref="2"/>
      <trace p1="393446 361950" p2="317246 361950" w="2540" l="1"/>
      <trace p1="393446 393700" p2="393446 361950" w="2540" l="1"/>
      <trace p1="317246 393700" p2="393446 393700" w="2540" l="1"/>
      <trace p1="317246 361950" p2="317246 368300" w="2540" l="1"/>
      <trace p1="317246 368300" p2="317246 393700" w="2540" l="1"/>
      <trace p1="317246 368300" p2="393446 368300" w="2540" l="1"/>
      <trace p1="318008 365760" p2="392430 366014" w="2540" l="1"/>
      <trace p1="318008 363728" p2="393192 363474" w="2540" l="1"/>
    </group>
    <text p="0 0" fs="0" l="76" ori="0 0" text=""/>
  </cpcb:part>
<n1:title>PCB Component</n1:title>
<n1:desc>Generated by CPCB</n1:desc>
<n1:defs>
</n1:defs>
<n1:g fill="none" stroke="black" stroke-width="1" fill-rule="evenodd" stroke-linecap="square" stroke-linejoin="bevel">

<n1:g fill="#000000" fill-opacity="1" stroke="none" transform="matrix(1,0,0,1,-1149,-1237.5)" font-family="Sans" font-size="152.778" font-weight="400" font-style="normal">
<n1:rect x="1149" y="1237.5" width="500" height="500"/>
</n1:g>

<n1:g fill="#00b400" fill-opacity="1" stroke="none" transform="matrix(1,0,0,1,-1149,-1237.5)" font-family="Sans" font-size="152.778" font-weight="400" font-style="normal">
<n1:rect x="1266.5" y="1467.5" width="65" height="65"/>
</n1:g>

<n1:g fill="#00b400" fill-opacity="1" stroke="none" transform="matrix(1,0,0,1,-1149,-1237.5)" font-family="Sans" font-size="152.778" font-weight="400" font-style="normal">
<n1:circle cx="1499" cy="1500" r="32.5"/>
</n1:g>

<n1:g fill="#00b400" fill-opacity="1" stroke="none" transform="matrix(1,0,0,1,-1149,-1237.5)" font-family="Sans" font-size="152.778" font-weight="400" font-style="normal">
<n1:circle cx="1399" cy="1500" r="32.5"/>
</n1:g>

<n1:g fill="#ff0000" fill-opacity="1" stroke="none" transform="matrix(1,0,0,1,-1149,-1237.5)" font-family="Sans" font-size="152.778" font-weight="400" font-style="normal">
<n1:rect x="1266.5" y="1467.5" width="65" height="65"/>
</n1:g>

<n1:g fill="#ff0000" fill-opacity="1" stroke="none" transform="matrix(1,0,0,1,-1149,-1237.5)" font-family="Sans" font-size="152.778" font-weight="400" font-style="normal">
<n1:circle cx="1499" cy="1500" r="32.5"/>
</n1:g>

<n1:g fill="#ff0000" fill-opacity="1" stroke="none" transform="matrix(1,0,0,1,-1149,-1237.5)" font-family="Sans" font-size="152.778" font-weight="400" font-style="normal">
<n1:circle cx="1399" cy="1500" r="32.5"/>
</n1:g>

<n1:g fill="#000000" fill-opacity="1" stroke="none" transform="matrix(1,0,0,1,-1149,-1237.5)" font-family="Sans" font-size="152.778" font-weight="400" font-style="normal">
<n1:circle cx="1299" cy="1500" r="17.5"/>
</n1:g>

<n1:g fill="#000000" fill-opacity="1" stroke="none" transform="matrix(1,0,0,1,-1149,-1237.5)" font-family="Sans" font-size="152.778" font-weight="400" font-style="normal">
<n1:circle cx="1499" cy="1500" r="17.5"/>
</n1:g>

<n1:g fill="#000000" fill-opacity="1" stroke="none" transform="matrix(1,0,0,1,-1149,-1237.5)" font-family="Sans" font-size="152.778" font-weight="400" font-style="normal">
<n1:circle cx="1399" cy="1500" r="17.5"/>
</n1:g>

<n1:g fill="#000000" fill-opacity="1" stroke="#f0f000" stroke-opacity="1" stroke-width="10" stroke-linecap="round" stroke-linejoin="bevel" transform="matrix(1,0,0,1,-1149,-1237.5)" font-family="Sans" font-size="152.778" font-weight="400" font-style="normal">
<n1:polyline fill="none" vector-effect="none" points="1549,1425 1249,1425 "/>
<n1:polyline fill="none" vector-effect="none" points="1549,1550 1549,1425 "/>
<n1:polyline fill="none" vector-effect="none" points="1249,1550 1549,1550 "/>
<n1:polyline fill="none" vector-effect="none" points="1249,1425 1249,1450 "/>
<n1:polyline fill="none" vector-effect="none" points="1249,1450 1249,1550 "/>
<n1:polyline fill="none" vector-effect="none" points="1249,1450 1549,1450 "/>
<n1:polyline fill="none" vector-effect="none" points="1252,1440 1545,1441 "/>
<n1:polyline fill="none" vector-effect="none" points="1252,1432 1548,1431 "/>
</n1:g>
</n1:g>
</svg>
