<?xml version="1.0" encoding="UTF-8"?>
<svg width="76.2mm" height="76.2mm" viewBox="0 0 300 300" version="1.2" baseProfile="tiny" xmlns:n1="http://www.w3.org/2000/svg" xmlns:xlink="http://www.w3.org/1999/xlink" xmlns:cpcb="http://www.danielwagenaar.net/cpcb-ns.html">
  <cpcb:part pkg="4-USOP" notes="TLP3341" xmlns="http://www.danielwagenaar.net/cpcb-ns.html">
    <group ref="S?" pkg="4-USOP" notes="TLP3341">
      <trace p1="172500 40000" p2="200000 40000" w="2540" l="1"/>
      <trace p1="200000 69000" p2="172500 69000" w="2540" l="1"/>
      <pad p="192700 40000" w="5000" h="7500" l="2" ref="3"/>
      <pad p="192700 69000" w="5000" h="7500" l="2" ref="2"/>
      <pad p="180000 40000" w="5000" h="7500" l="2" ref="4"/>
      <trace p1="200000 40000" p2="200000 69000" w="2540" l="1"/>
      <arc p="186300 62500" r="1500" lw="2540" l="1" ang="360" rota="180"/>
      <pad p="180000 69000" w="5000" h="7500" l="2" ref="1"/>
      <trace p1="172500 40000" p2="172500 69000" w="2540" l="1"/>
    </group>
    <text p="171230 23550" fs="12700" l="1" rot="0" text="S?"/>
  </cpcb:part>
<n1:title>PCB Component</n1:title>
<n1:desc>Generated by CPCB</n1:desc>
<n1:defs>
</n1:defs>
<n1:g fill="none" stroke="black" stroke-width="1" fill-rule="evenodd" stroke-linecap="square" stroke-linejoin="bevel">

<n1:g fill="#000000" fill-opacity="1" stroke="none" transform="matrix(1,0,0,1,-583.268,-64.5669)" font-family="Ubuntu" font-size="152.778" font-weight="400" font-style="normal">
<n1:rect x="583.268" y="64.5669" width="300" height="300"/>
</n1:g>

<n1:g fill="#ff0000" fill-opacity="1" stroke="none" transform="matrix(1,0,0,1,-583.268,-64.5669)" font-family="Ubuntu" font-size="152.778" font-weight="400" font-style="normal">
<n1:rect x="748.819" y="142.717" width="19.685" height="29.5276"/>
</n1:g>

<n1:g fill="#ff0000" fill-opacity="1" stroke="none" transform="matrix(1,0,0,1,-583.268,-64.5669)" font-family="Ubuntu" font-size="152.778" font-weight="400" font-style="normal">
<n1:rect x="748.819" y="256.89" width="19.685" height="29.5276"/>
</n1:g>

<n1:g fill="#ff0000" fill-opacity="1" stroke="none" transform="matrix(1,0,0,1,-583.268,-64.5669)" font-family="Ubuntu" font-size="152.778" font-weight="400" font-style="normal">
<n1:rect x="698.819" y="142.717" width="19.685" height="29.5276"/>
</n1:g>

<n1:g fill="#ff0000" fill-opacity="1" stroke="none" transform="matrix(1,0,0,1,-583.268,-64.5669)" font-family="Ubuntu" font-size="152.778" font-weight="400" font-style="normal">
<n1:rect x="698.819" y="256.89" width="19.685" height="29.5276"/>
</n1:g>

<n1:g fill="#ff0000" fill-opacity="1" stroke="#f0f000" stroke-opacity="1" stroke-width="10" stroke-linecap="round" stroke-linejoin="bevel" transform="matrix(1,0,0,1,-583.268,-64.5669)" font-family="Ubuntu" font-size="152.778" font-weight="400" font-style="normal">
<n1:polyline fill="none" vector-effect="none" points="679.134,157.48 787.402,157.48 "/>
<n1:polyline fill="none" vector-effect="none" points="787.402,271.654 679.134,271.654 "/>
<n1:polyline fill="none" vector-effect="none" points="787.402,157.48 787.402,271.654 "/>
</n1:g>

<n1:g fill="none" stroke="#f0f000" stroke-opacity="1" stroke-width="10" stroke-linecap="round" stroke-linejoin="bevel" transform="matrix(1,0,0,1,-583.268,-64.5669)" font-family="Ubuntu" font-size="152.778" font-weight="400" font-style="normal">
<n1:path vector-effect="none" fill-rule="evenodd" d="M733.465,251.969 C736.726,251.969 739.37,249.325 739.37,246.063 C739.37,242.801 736.726,240.157 733.465,240.157 C730.203,240.157 727.559,242.801 727.559,246.063 C727.559,249.325 730.203,251.969 733.465,251.969 "/>
<n1:polyline fill="none" vector-effect="none" points="679.134,157.48 679.134,271.654 "/>
</n1:g>
</n1:g>
</svg>
