<?xml version="1.0" encoding="UTF-8"?>
<svg width="141.707mm" height="141.707mm" viewBox="0 0 557.874 557.874" version="1.2" baseProfile="tiny" xmlns:n1="http://www.w3.org/2000/svg" xmlns:xlink="http://www.w3.org/1999/xlink" xmlns:cpcb="http://www.danielwagenaar.net/cpcb-ns.html">
  <cpcb:part pkg="ADS8584S" xmlns="http://www.danielwagenaar.net/cpcb-ns.html">
    <group ref="U?" pkg="ADS8584S">
      <pad p="194500 28500" w="15000" h="3000" l="2" ref="46"/>
      <pad p="194500 18500" w="15000" h="3000" l="2" ref="48"/>
      <pad p="194500 58500" w="15000" h="3000" l="2" ref=""/>
      <arc p="95000 15000" r="5080" lw="2540" l="1" ang="360" rota="180"/>
      <trace p1="87000 107000" p2="87000 7000" w="2540" l="1"/>
      <trace p1="87000 7000" p2="187000 7000" w="2540" l="1"/>
      <trace p1="187000 107000" p2="187000 7000" w="2540" l="1"/>
      <pad p="145000 114000" w="3000" h="15000" l="2" ref=""/>
      <pad p="140000 114000" w="3000" h="15000" l="2" ref="25"/>
      <pad p="150000 114000" w="3000" h="15000" l="2" ref=""/>
      <pad p="160000 114000" w="3000" h="15000" l="2" ref=""/>
      <pad p="170000 114000" w="3000" h="15000" l="2" ref=""/>
      <pad p="130000 114000" w="3000" h="15000" l="2" ref="23"/>
      <pad p="120000 114000" w="3000" h="15000" l="2" ref=""/>
      <pad p="110000 114000" w="3000" h="15000" l="2" ref=""/>
      <pad p="115000 0" w="3000" h="15000" l="2" ref=""/>
      <pad p="100000 0" w="3000" h="15000" l="2" ref=""/>
      <pad p="110000 0" w="3000" h="15000" l="2" ref=""/>
      <pad p="120000 0" w="3000" h="15000" l="2" ref="60"/>
      <pad p="130000 0" w="3000" h="15000" l="2" ref="58"/>
      <pad p="170000 0" w="3000" h="15000" l="2" ref="50"/>
      <pad p="160000 0" w="3000" h="15000" l="2" ref="52"/>
      <pad p="150000 0" w="3000" h="15000" l="2" ref=""/>
      <pad p="194500 23500" w="15000" h="3000" l="2" ref=""/>
      <pad p="80500 28500" w="15000" h="3000" l="2" ref="3"/>
      <pad p="80500 38500" w="15000" h="3000" l="2" ref="5"/>
      <pad p="80500 48500" w="15000" h="3000" l="2" ref="7"/>
      <pad p="80500 88500" w="15000" h="3000" l="2" ref="15"/>
      <pad p="80500 78500" w="15000" h="3000" l="2" ref="13"/>
      <pad p="80500 68500" w="15000" h="3000" l="2" ref="11"/>
      <pad p="80500 58500" w="15000" h="3000" l="2" ref="9"/>
      <pad p="105000 0" w="3000" h="15000" l="2" ref=""/>
      <pad p="115000 114000" w="3000" h="15000" l="2" ref=""/>
      <pad p="105000 114000" w="3000" h="15000" l="2" ref=""/>
      <pad p="125000 114000" w="3000" h="15000" l="2" ref=""/>
      <pad p="135000 114000" w="3000" h="15000" l="2" ref="24"/>
      <pad p="175000 114000" w="3000" h="15000" l="2" ref=""/>
      <pad p="165000 114000" w="3000" h="15000" l="2" ref=""/>
      <pad p="155000 114000" w="3000" h="15000" l="2" ref=""/>
      <pad p="194500 33500" w="15000" h="3000" l="2" ref="45"/>
      <pad p="194500 43500" w="15000" h="3000" l="2" ref=""/>
      <pad p="194500 53500" w="15000" h="3000" l="2" ref=""/>
      <pad p="194500 93500" w="15000" h="3000" l="2" ref=""/>
      <text p="100000 50000" fs="8000" l="1" rot="0" text="A.gnd plane"/>
      <trace p1="145000 114000" p2="145000 100000" w="3000" l="2" noclear="1"/>
      <trace p1="194500 58500" p2="180000 58500" w="3000" l="2" noclear="1"/>
      <pad p="100000 114000" w="3000" h="15000" l="2" ref=""/>
      <pad p="80500 73500" w="15000" h="3000" l="2" ref="12"/>
      <pad p="80500 83500" w="15000" h="3000" l="2" ref="14"/>
      <pad p="80500 93500" w="15000" h="3000" l="2" ref=""/>
      <pad p="80500 53500" w="15000" h="3000" l="2" ref="8"/>
      <pad p="80500 43500" w="15000" h="3000" l="2" ref="6"/>
      <pad p="80500 23500" w="15000" h="3000" l="2" ref="2"/>
      <pad p="80500 33500" w="15000" h="3000" l="2" ref="4"/>
      <trace p1="105000 0" p2="105000 15000" w="3000" l="2" noclear="1"/>
      <plane pp="182000 102000;92000 102000;92000 12000;182000 12000" l="2"/>
      <trace p1="185000 70000" p2="194500 73500" w="3000" l="2"/>
      <trace p1="90000 15000" p2="80500 18500" w="3000" l="2"/>
      <hole p="90000 15000" id="3000" od="6000" via="1" ref=""/>
      <trace p1="185000 15000" p2="90000 15000" w="3000" l="3"/>
      <trace p1="185000 70000" p2="185000 15000" w="3000" l="3"/>
      <trace p1="155000 0" p2="155000 15000" w="3000" l="2" noclear="1"/>
      <trace p1="150000 0" p2="150000 15000" w="3000" l="2" noclear="1"/>
      <trace p1="140000 0" p2="140000 15000" w="3000" l="2" noclear="1"/>
      <trace p1="145000 0" p2="145000 15000" w="3000" l="2" noclear="1"/>
      <trace p1="100000 -5000" p2="100000 15000" w="3000" l="2" noclear="1"/>
      <trace p1="115000 0" p2="115000 15000" w="3000" l="2" noclear="1"/>
      <trace p1="110000 0" p2="110000 15000" w="3000" l="2" noclear="1"/>
      <hole p="190000 100000" id="3000" od="6000" via="1" ref=""/>
      <trace p1="94000 110000" p2="100000 114000" w="3000" l="2"/>
      <hole p="94000 110000" id="3000" od="6000" via="1" ref=""/>
      <trace p1="175000 114000" p2="181000 110000" w="3000" l="2"/>
      <hole p="181000 110000" id="3000" od="6000" via="1" ref=""/>
      <trace p1="175000 114000" p2="150000 114000" w="3000" l="2"/>
      <trace p1="185000 70000" p2="194500 68500" w="3000" l="2"/>
      <trace p1="194500 18500" p2="185000 15000" w="3000" l="2"/>
      <hole p="185000 15000" id="3000" od="6000" via="1" ref=""/>
      <hole p="185000 70000" id="3000" od="6000" via="1" ref=""/>
      <trace p1="85000 100000" p2="80000 95000" w="3000" l="2"/>
      <hole p="85000 100000" id="3000" od="6000" via="1" ref=""/>
      <trace p1="190000 100000" p2="194500 93500" w="3000" l="2"/>
      <trace p1="194500 83500" p2="180000 83500" w="3000" l="2" noclear="1"/>
      <trace p1="194500 23500" p2="180000 23500" w="3000" l="2" noclear="1"/>
      <trace p1="100000 114000" p2="125000 114000" w="3000" l="2"/>
      <trace p1="180000 45000" p2="180000 45000" w="3000" l="2"/>
      <trace p1="194500 43500" p2="180000 43500" w="3000" l="2" noclear="1"/>
      <trace p1="194500 53500" p2="180000 53500" w="3000" l="2" noclear="1"/>
      <pad p="80500 18500" w="15000" h="3000" l="2" ref="1"/>
      <pad p="194500 73500" w="15000" h="3000" l="2" ref="37"/>
      <pad p="194500 63500" w="15000" h="3000" l="2" ref="39"/>
      <pad p="80500 63500" w="15000" h="3000" l="2" ref="10"/>
      <pad p="194500 68500" w="15000" h="3000" l="2" ref="38"/>
      <pad p="194500 78500" w="15000" h="3000" l="2" ref="36"/>
      <pad p="194500 88500" w="15000" h="3000" l="2" ref="34"/>
      <pad p="194500 48500" w="15000" h="3000" l="2" ref="42"/>
      <trace p1="80500 23500" p2="95000 23500" w="3000" l="2" noclear="1"/>
      <pad p="194500 83500" w="15000" h="3000" l="2" ref=""/>
      <trace p1="87000 107000" p2="187000 107000" w="2540" l="1"/>
      <pad p="140000 0" w="3000" h="15000" l="2" ref=""/>
      <pad p="145000 0" w="3000" h="15000" l="2" ref=""/>
      <pad p="155000 0" w="3000" h="15000" l="2" ref=""/>
      <pad p="165000 0" w="3000" h="15000" l="2" ref="51"/>
      <pad p="175000 0" w="3000" h="15000" l="2" ref="49"/>
      <pad p="135000 0" w="3000" h="15000" l="2" ref="57"/>
      <pad p="125000 0" w="3000" h="15000" l="2" ref="59"/>
      <pad p="194500 38500" w="15000" h="3000" l="2" ref="44"/>
      <trace p1="199000 28500" p2="180000 28500" w="3000" l="2" noclear="1"/>
    </group>
    <text p="73000 -20200" fs="12700" l="1" rot="0" text="U?"/>
  </cpcb:part>
<n1:title>PCB Component</n1:title>
<n1:desc>Generated by CPCB</n1:desc>
<n1:defs>
<n1:mask id="patternmask4" x="0" y="0" width="8" height="8" stroke="none" fill="#ffffff" patternUnits="userSpaceOnUse">
<n1:rect x="0" y="0" width="1" height="1"/>
<n1:rect x="2" y="0" width="1" height="1"/>
<n1:rect x="4" y="0" width="1" height="1"/>
<n1:rect x="6" y="0" width="1" height="1"/>
<n1:rect x="0" y="1" width="2" height="1"/>
<n1:rect x="3" y="1" width="3" height="1"/>
<n1:rect x="7" y="1" width="1" height="1"/>
<n1:rect x="0" y="2" width="1" height="1"/>
<n1:rect x="2" y="2" width="1" height="1"/>
<n1:rect x="4" y="2" width="1" height="1"/>
<n1:rect x="6" y="2" width="1" height="1"/>
<n1:rect x="1" y="3" width="3" height="1"/>
<n1:rect x="5" y="3" width="3" height="1"/>
<n1:rect x="0" y="4" width="1" height="1"/>
<n1:rect x="2" y="4" width="1" height="1"/>
<n1:rect x="4" y="4" width="1" height="1"/>
<n1:rect x="6" y="4" width="1" height="1"/>
<n1:rect x="0" y="5" width="2" height="1"/>
<n1:rect x="3" y="5" width="3" height="1"/>
<n1:rect x="7" y="5" width="1" height="1"/>
<n1:rect x="0" y="6" width="1" height="1"/>
<n1:rect x="2" y="6" width="1" height="1"/>
<n1:rect x="4" y="6" width="1" height="1"/>
<n1:rect x="6" y="6" width="1" height="1"/>
<n1:rect x="1" y="7" width="3" height="1"/>
<n1:rect x="5" y="7" width="3" height="1"/>
</n1:mask>

<n1:pattern id="fillpattern4_00b400" x="0" y="0" width="8" height="8" patternUnits="userSpaceOnUse">
<n1:rect x="0" y="0" width="8" height="8" stroke="none" fill="#00b400" mask="url(#patternmask4)"/>
</n1:pattern>

<n1:mask id="patternmask6" x="0" y="0" width="8" height="8" stroke="none" fill="#ffffff" patternUnits="userSpaceOnUse">
<n1:rect x="1" y="0" width="1" height="1"/>
<n1:rect x="3" y="0" width="1" height="1"/>
<n1:rect x="5" y="0" width="1" height="1"/>
<n1:rect x="7" y="0" width="1" height="1"/>
<n1:rect x="2" y="1" width="1" height="1"/>
<n1:rect x="6" y="1" width="1" height="1"/>
<n1:rect x="1" y="2" width="1" height="1"/>
<n1:rect x="3" y="2" width="1" height="1"/>
<n1:rect x="5" y="2" width="1" height="1"/>
<n1:rect x="7" y="2" width="1" height="1"/>
<n1:rect x="0" y="3" width="1" height="1"/>
<n1:rect x="4" y="3" width="1" height="1"/>
<n1:rect x="1" y="4" width="1" height="1"/>
<n1:rect x="3" y="4" width="1" height="1"/>
<n1:rect x="5" y="4" width="1" height="1"/>
<n1:rect x="7" y="4" width="1" height="1"/>
<n1:rect x="2" y="5" width="1" height="1"/>
<n1:rect x="6" y="5" width="1" height="1"/>
<n1:rect x="1" y="6" width="1" height="1"/>
<n1:rect x="3" y="6" width="1" height="1"/>
<n1:rect x="5" y="6" width="1" height="1"/>
<n1:rect x="7" y="6" width="1" height="1"/>
<n1:rect x="0" y="7" width="1" height="1"/>
<n1:rect x="4" y="7" width="1" height="1"/>
</n1:mask>

<n1:pattern id="fillpattern6_ff0000" x="0" y="0" width="8" height="8" patternUnits="userSpaceOnUse">
<n1:rect x="0" y="0" width="8" height="8" stroke="none" fill="#ff0000" mask="url(#patternmask6)"/>
</n1:pattern>

</n1:defs>
<n1:g fill="none" stroke="black" stroke-width="1" fill-rule="evenodd" stroke-linecap="square" stroke-linejoin="bevel">

<n1:g fill="#000000" fill-opacity="1" stroke="none" transform="matrix(1,0,0,1,-262.402,54.5276)" font-family="Ubuntu" font-size="152.778" font-weight="400" font-style="normal">
<n1:rect x="262.402" y="-54.5276" width="557.874" height="557.874"/>
</n1:g>

<n1:g fill="url(#fillpattern4_00b400)" fill-opacity="1" stroke="none" transform="matrix(1,0,0,1,-262.402,54.5276)" font-family="Ubuntu" font-size="152.778" font-weight="400" font-style="normal">
<n1:circle cx="354.331" cy="59.0551" r="11.811"/>
</n1:g>

<n1:g fill="url(#fillpattern4_00b400)" fill-opacity="1" stroke="#00b400" stroke-opacity="1" stroke-width="11.811" stroke-linecap="round" stroke-linejoin="bevel" transform="matrix(1,0,0,1,-262.402,54.5276)" font-family="Ubuntu" font-size="152.778" font-weight="400" font-style="normal">
<n1:polyline fill="none" vector-effect="none" points="728.346,59.0551 354.331,59.0551 "/>
<n1:polyline fill="none" vector-effect="none" points="728.346,275.591 728.346,59.0551 "/>
</n1:g>

<n1:g fill="url(#fillpattern4_00b400)" fill-opacity="1" stroke="none" transform="matrix(1,0,0,1,-262.402,54.5276)" font-family="Ubuntu" font-size="152.778" font-weight="400" font-style="normal">
<n1:circle cx="748.031" cy="393.701" r="11.811"/>
</n1:g>

<n1:g fill="url(#fillpattern4_00b400)" fill-opacity="1" stroke="none" transform="matrix(1,0,0,1,-262.402,54.5276)" font-family="Ubuntu" font-size="152.778" font-weight="400" font-style="normal">
<n1:circle cx="370.079" cy="433.071" r="11.811"/>
</n1:g>

<n1:g fill="url(#fillpattern4_00b400)" fill-opacity="1" stroke="none" transform="matrix(1,0,0,1,-262.402,54.5276)" font-family="Ubuntu" font-size="152.778" font-weight="400" font-style="normal">
<n1:circle cx="712.598" cy="433.071" r="11.811"/>
</n1:g>

<n1:g fill="url(#fillpattern4_00b400)" fill-opacity="1" stroke="none" transform="matrix(1,0,0,1,-262.402,54.5276)" font-family="Ubuntu" font-size="152.778" font-weight="400" font-style="normal">
<n1:circle cx="728.346" cy="59.0551" r="11.811"/>
</n1:g>

<n1:g fill="url(#fillpattern4_00b400)" fill-opacity="1" stroke="none" transform="matrix(1,0,0,1,-262.402,54.5276)" font-family="Ubuntu" font-size="152.778" font-weight="400" font-style="normal">
<n1:circle cx="728.346" cy="275.591" r="11.811"/>
</n1:g>

<n1:g fill="url(#fillpattern4_00b400)" fill-opacity="1" stroke="none" transform="matrix(1,0,0,1,-262.402,54.5276)" font-family="Ubuntu" font-size="152.778" font-weight="400" font-style="normal">
<n1:circle cx="334.646" cy="393.701" r="11.811"/>
</n1:g>

<n1:g fill="#ff0000" fill-opacity="1" stroke="none" transform="matrix(1,0,0,1,-262.402,54.5276)" font-family="Ubuntu" font-size="152.778" font-weight="400" font-style="normal">
<n1:rect x="736.22" y="106.299" width="59.0551" height="11.811"/>
</n1:g>

<n1:g fill="#ff0000" fill-opacity="1" stroke="none" transform="matrix(1,0,0,1,-262.402,54.5276)" font-family="Ubuntu" font-size="152.778" font-weight="400" font-style="normal">
<n1:rect x="736.22" y="66.9291" width="59.0551" height="11.811"/>
</n1:g>

<n1:g fill="#ff0000" fill-opacity="1" stroke="none" transform="matrix(1,0,0,1,-262.402,54.5276)" font-family="Ubuntu" font-size="152.778" font-weight="400" font-style="normal">
<n1:rect x="736.22" y="224.409" width="59.0551" height="11.811"/>
</n1:g>

<n1:g fill="#ff0000" fill-opacity="1" stroke="none" transform="matrix(1,0,0,1,-262.402,54.5276)" font-family="Ubuntu" font-size="152.778" font-weight="400" font-style="normal">
<n1:rect x="564.961" y="419.291" width="11.811" height="59.0551"/>
</n1:g>

<n1:g fill="#ff0000" fill-opacity="1" stroke="none" transform="matrix(1,0,0,1,-262.402,54.5276)" font-family="Ubuntu" font-size="152.778" font-weight="400" font-style="normal">
<n1:rect x="545.276" y="419.291" width="11.811" height="59.0551"/>
</n1:g>

<n1:g fill="#ff0000" fill-opacity="1" stroke="none" transform="matrix(1,0,0,1,-262.402,54.5276)" font-family="Ubuntu" font-size="152.778" font-weight="400" font-style="normal">
<n1:rect x="584.646" y="419.291" width="11.811" height="59.0551"/>
</n1:g>

<n1:g fill="#ff0000" fill-opacity="1" stroke="none" transform="matrix(1,0,0,1,-262.402,54.5276)" font-family="Ubuntu" font-size="152.778" font-weight="400" font-style="normal">
<n1:rect x="624.016" y="419.291" width="11.811" height="59.0551"/>
</n1:g>

<n1:g fill="#ff0000" fill-opacity="1" stroke="none" transform="matrix(1,0,0,1,-262.402,54.5276)" font-family="Ubuntu" font-size="152.778" font-weight="400" font-style="normal">
<n1:rect x="663.386" y="419.291" width="11.811" height="59.0551"/>
</n1:g>

<n1:g fill="#ff0000" fill-opacity="1" stroke="none" transform="matrix(1,0,0,1,-262.402,54.5276)" font-family="Ubuntu" font-size="152.778" font-weight="400" font-style="normal">
<n1:rect x="505.906" y="419.291" width="11.811" height="59.0551"/>
</n1:g>

<n1:g fill="#ff0000" fill-opacity="1" stroke="none" transform="matrix(1,0,0,1,-262.402,54.5276)" font-family="Ubuntu" font-size="152.778" font-weight="400" font-style="normal">
<n1:rect x="466.535" y="419.291" width="11.811" height="59.0551"/>
</n1:g>

<n1:g fill="#ff0000" fill-opacity="1" stroke="none" transform="matrix(1,0,0,1,-262.402,54.5276)" font-family="Ubuntu" font-size="152.778" font-weight="400" font-style="normal">
<n1:rect x="427.165" y="419.291" width="11.811" height="59.0551"/>
</n1:g>

<n1:g fill="#ff0000" fill-opacity="1" stroke="none" transform="matrix(1,0,0,1,-262.402,54.5276)" font-family="Ubuntu" font-size="152.778" font-weight="400" font-style="normal">
<n1:rect x="446.85" y="-29.5276" width="11.811" height="59.0551"/>
</n1:g>

<n1:g fill="#ff0000" fill-opacity="1" stroke="none" transform="matrix(1,0,0,1,-262.402,54.5276)" font-family="Ubuntu" font-size="152.778" font-weight="400" font-style="normal">
<n1:rect x="387.795" y="-29.5276" width="11.811" height="59.0551"/>
</n1:g>

<n1:g fill="#ff0000" fill-opacity="1" stroke="none" transform="matrix(1,0,0,1,-262.402,54.5276)" font-family="Ubuntu" font-size="152.778" font-weight="400" font-style="normal">
<n1:rect x="427.165" y="-29.5276" width="11.811" height="59.0551"/>
</n1:g>

<n1:g fill="#ff0000" fill-opacity="1" stroke="none" transform="matrix(1,0,0,1,-262.402,54.5276)" font-family="Ubuntu" font-size="152.778" font-weight="400" font-style="normal">
<n1:rect x="466.535" y="-29.5276" width="11.811" height="59.0551"/>
</n1:g>

<n1:g fill="#ff0000" fill-opacity="1" stroke="none" transform="matrix(1,0,0,1,-262.402,54.5276)" font-family="Ubuntu" font-size="152.778" font-weight="400" font-style="normal">
<n1:rect x="505.906" y="-29.5276" width="11.811" height="59.0551"/>
</n1:g>

<n1:g fill="#ff0000" fill-opacity="1" stroke="none" transform="matrix(1,0,0,1,-262.402,54.5276)" font-family="Ubuntu" font-size="152.778" font-weight="400" font-style="normal">
<n1:rect x="663.386" y="-29.5276" width="11.811" height="59.0551"/>
</n1:g>

<n1:g fill="#ff0000" fill-opacity="1" stroke="none" transform="matrix(1,0,0,1,-262.402,54.5276)" font-family="Ubuntu" font-size="152.778" font-weight="400" font-style="normal">
<n1:rect x="624.016" y="-29.5276" width="11.811" height="59.0551"/>
</n1:g>

<n1:g fill="#ff0000" fill-opacity="1" stroke="none" transform="matrix(1,0,0,1,-262.402,54.5276)" font-family="Ubuntu" font-size="152.778" font-weight="400" font-style="normal">
<n1:rect x="584.646" y="-29.5276" width="11.811" height="59.0551"/>
</n1:g>

<n1:g fill="#ff0000" fill-opacity="1" stroke="none" transform="matrix(1,0,0,1,-262.402,54.5276)" font-family="Ubuntu" font-size="152.778" font-weight="400" font-style="normal">
<n1:rect x="736.22" y="86.6142" width="59.0551" height="11.811"/>
</n1:g>

<n1:g fill="#ff0000" fill-opacity="1" stroke="none" transform="matrix(1,0,0,1,-262.402,54.5276)" font-family="Ubuntu" font-size="152.778" font-weight="400" font-style="normal">
<n1:rect x="287.402" y="106.299" width="59.0551" height="11.811"/>
</n1:g>

<n1:g fill="#ff0000" fill-opacity="1" stroke="none" transform="matrix(1,0,0,1,-262.402,54.5276)" font-family="Ubuntu" font-size="152.778" font-weight="400" font-style="normal">
<n1:rect x="287.402" y="145.669" width="59.0551" height="11.811"/>
</n1:g>

<n1:g fill="#ff0000" fill-opacity="1" stroke="none" transform="matrix(1,0,0,1,-262.402,54.5276)" font-family="Ubuntu" font-size="152.778" font-weight="400" font-style="normal">
<n1:rect x="287.402" y="185.039" width="59.0551" height="11.811"/>
</n1:g>

<n1:g fill="#ff0000" fill-opacity="1" stroke="none" transform="matrix(1,0,0,1,-262.402,54.5276)" font-family="Ubuntu" font-size="152.778" font-weight="400" font-style="normal">
<n1:rect x="287.402" y="342.52" width="59.0551" height="11.811"/>
</n1:g>

<n1:g fill="#ff0000" fill-opacity="1" stroke="none" transform="matrix(1,0,0,1,-262.402,54.5276)" font-family="Ubuntu" font-size="152.778" font-weight="400" font-style="normal">
<n1:rect x="287.402" y="303.15" width="59.0551" height="11.811"/>
</n1:g>

<n1:g fill="#ff0000" fill-opacity="1" stroke="none" transform="matrix(1,0,0,1,-262.402,54.5276)" font-family="Ubuntu" font-size="152.778" font-weight="400" font-style="normal">
<n1:rect x="287.402" y="263.78" width="59.0551" height="11.811"/>
</n1:g>

<n1:g fill="#ff0000" fill-opacity="1" stroke="none" transform="matrix(1,0,0,1,-262.402,54.5276)" font-family="Ubuntu" font-size="152.778" font-weight="400" font-style="normal">
<n1:rect x="287.402" y="224.409" width="59.0551" height="11.811"/>
</n1:g>

<n1:g fill="#ff0000" fill-opacity="1" stroke="none" transform="matrix(1,0,0,1,-262.402,54.5276)" font-family="Ubuntu" font-size="152.778" font-weight="400" font-style="normal">
<n1:rect x="407.48" y="-29.5276" width="11.811" height="59.0551"/>
</n1:g>

<n1:g fill="#ff0000" fill-opacity="1" stroke="none" transform="matrix(1,0,0,1,-262.402,54.5276)" font-family="Ubuntu" font-size="152.778" font-weight="400" font-style="normal">
<n1:rect x="446.85" y="419.291" width="11.811" height="59.0551"/>
</n1:g>

<n1:g fill="#ff0000" fill-opacity="1" stroke="none" transform="matrix(1,0,0,1,-262.402,54.5276)" font-family="Ubuntu" font-size="152.778" font-weight="400" font-style="normal">
<n1:rect x="407.48" y="419.291" width="11.811" height="59.0551"/>
</n1:g>

<n1:g fill="#ff0000" fill-opacity="1" stroke="none" transform="matrix(1,0,0,1,-262.402,54.5276)" font-family="Ubuntu" font-size="152.778" font-weight="400" font-style="normal">
<n1:rect x="486.22" y="419.291" width="11.811" height="59.0551"/>
</n1:g>

<n1:g fill="#ff0000" fill-opacity="1" stroke="none" transform="matrix(1,0,0,1,-262.402,54.5276)" font-family="Ubuntu" font-size="152.778" font-weight="400" font-style="normal">
<n1:rect x="525.591" y="419.291" width="11.811" height="59.0551"/>
</n1:g>

<n1:g fill="#ff0000" fill-opacity="1" stroke="none" transform="matrix(1,0,0,1,-262.402,54.5276)" font-family="Ubuntu" font-size="152.778" font-weight="400" font-style="normal">
<n1:rect x="683.071" y="419.291" width="11.811" height="59.0551"/>
</n1:g>

<n1:g fill="#ff0000" fill-opacity="1" stroke="none" transform="matrix(1,0,0,1,-262.402,54.5276)" font-family="Ubuntu" font-size="152.778" font-weight="400" font-style="normal">
<n1:rect x="643.701" y="419.291" width="11.811" height="59.0551"/>
</n1:g>

<n1:g fill="#ff0000" fill-opacity="1" stroke="none" transform="matrix(1,0,0,1,-262.402,54.5276)" font-family="Ubuntu" font-size="152.778" font-weight="400" font-style="normal">
<n1:rect x="604.331" y="419.291" width="11.811" height="59.0551"/>
</n1:g>

<n1:g fill="#ff0000" fill-opacity="1" stroke="none" transform="matrix(1,0,0,1,-262.402,54.5276)" font-family="Ubuntu" font-size="152.778" font-weight="400" font-style="normal">
<n1:rect x="736.22" y="125.984" width="59.0551" height="11.811"/>
</n1:g>

<n1:g fill="#ff0000" fill-opacity="1" stroke="none" transform="matrix(1,0,0,1,-262.402,54.5276)" font-family="Ubuntu" font-size="152.778" font-weight="400" font-style="normal">
<n1:rect x="736.22" y="165.354" width="59.0551" height="11.811"/>
</n1:g>

<n1:g fill="#ff0000" fill-opacity="1" stroke="none" transform="matrix(1,0,0,1,-262.402,54.5276)" font-family="Ubuntu" font-size="152.778" font-weight="400" font-style="normal">
<n1:rect x="736.22" y="204.724" width="59.0551" height="11.811"/>
</n1:g>

<n1:g fill="#ff0000" fill-opacity="1" stroke="none" transform="matrix(1,0,0,1,-262.402,54.5276)" font-family="Ubuntu" font-size="152.778" font-weight="400" font-style="normal">
<n1:rect x="736.22" y="362.205" width="59.0551" height="11.811"/>
</n1:g>

<n1:g fill="#ff0000" fill-opacity="1" stroke="#ff0000" stroke-opacity="1" stroke-width="11.811" stroke-linecap="round" stroke-linejoin="bevel" transform="matrix(1,0,0,1,-262.402,54.5276)" font-family="Ubuntu" font-size="152.778" font-weight="400" font-style="normal">
<n1:polyline fill="none" vector-effect="none" points="570.866,448.819 570.866,393.701 "/>
<n1:polyline fill="none" vector-effect="none" points="765.748,230.315 708.661,230.315 "/>
</n1:g>

<n1:g fill="#ff0000" fill-opacity="1" stroke="none" transform="matrix(1,0,0,1,-262.402,54.5276)" font-family="Ubuntu" font-size="152.778" font-weight="400" font-style="normal">
<n1:rect x="387.795" y="419.291" width="11.811" height="59.0551"/>
</n1:g>

<n1:g fill="#ff0000" fill-opacity="1" stroke="none" transform="matrix(1,0,0,1,-262.402,54.5276)" font-family="Ubuntu" font-size="152.778" font-weight="400" font-style="normal">
<n1:rect x="287.402" y="283.465" width="59.0551" height="11.811"/>
</n1:g>

<n1:g fill="#ff0000" fill-opacity="1" stroke="none" transform="matrix(1,0,0,1,-262.402,54.5276)" font-family="Ubuntu" font-size="152.778" font-weight="400" font-style="normal">
<n1:rect x="287.402" y="322.835" width="59.0551" height="11.811"/>
</n1:g>

<n1:g fill="#ff0000" fill-opacity="1" stroke="none" transform="matrix(1,0,0,1,-262.402,54.5276)" font-family="Ubuntu" font-size="152.778" font-weight="400" font-style="normal">
<n1:rect x="287.402" y="362.205" width="59.0551" height="11.811"/>
</n1:g>

<n1:g fill="#ff0000" fill-opacity="1" stroke="none" transform="matrix(1,0,0,1,-262.402,54.5276)" font-family="Ubuntu" font-size="152.778" font-weight="400" font-style="normal">
<n1:rect x="287.402" y="204.724" width="59.0551" height="11.811"/>
</n1:g>

<n1:g fill="#ff0000" fill-opacity="1" stroke="none" transform="matrix(1,0,0,1,-262.402,54.5276)" font-family="Ubuntu" font-size="152.778" font-weight="400" font-style="normal">
<n1:rect x="287.402" y="165.354" width="59.0551" height="11.811"/>
</n1:g>

<n1:g fill="#ff0000" fill-opacity="1" stroke="none" transform="matrix(1,0,0,1,-262.402,54.5276)" font-family="Ubuntu" font-size="152.778" font-weight="400" font-style="normal">
<n1:rect x="287.402" y="86.6142" width="59.0551" height="11.811"/>
</n1:g>

<n1:g fill="#ff0000" fill-opacity="1" stroke="none" transform="matrix(1,0,0,1,-262.402,54.5276)" font-family="Ubuntu" font-size="152.778" font-weight="400" font-style="normal">
<n1:rect x="287.402" y="125.984" width="59.0551" height="11.811"/>
</n1:g>

<n1:g fill="#ff0000" fill-opacity="1" stroke="#ff0000" stroke-opacity="1" stroke-width="11.811" stroke-linecap="round" stroke-linejoin="bevel" transform="matrix(1,0,0,1,-262.402,54.5276)" font-family="Ubuntu" font-size="152.778" font-weight="400" font-style="normal">
<n1:polyline fill="none" vector-effect="none" points="413.386,0 413.386,59.0551 "/>
<n1:polyline fill="none" vector-effect="none" points="728.346,275.591 765.748,289.37 "/>
<n1:polyline fill="none" vector-effect="none" points="354.331,59.0551 316.929,72.8346 "/>
</n1:g>

<n1:g fill="url(#fillpattern6_ff0000)" fill-opacity="1" stroke="none" transform="matrix(1,0,0,1,-262.402,54.5276)" font-family="Ubuntu" font-size="152.778" font-weight="400" font-style="normal">
<n1:circle cx="354.331" cy="59.0551" r="11.811"/>
</n1:g>

<n1:g fill="url(#fillpattern6_ff0000)" fill-opacity="1" stroke="#ff0000" stroke-opacity="1" stroke-width="11.811" stroke-linecap="round" stroke-linejoin="bevel" transform="matrix(1,0,0,1,-262.402,54.5276)" font-family="Ubuntu" font-size="152.778" font-weight="400" font-style="normal">
<n1:polyline fill="none" vector-effect="none" points="610.236,0 610.236,59.0551 "/>
<n1:polyline fill="none" vector-effect="none" points="590.551,0 590.551,59.0551 "/>
<n1:polyline fill="none" vector-effect="none" points="551.181,0 551.181,59.0551 "/>
<n1:polyline fill="none" vector-effect="none" points="570.866,0 570.866,59.0551 "/>
<n1:polyline fill="none" vector-effect="none" points="393.701,-19.685 393.701,59.0551 "/>
<n1:polyline fill="none" vector-effect="none" points="452.756,0 452.756,59.0551 "/>
<n1:polyline fill="none" vector-effect="none" points="433.071,0 433.071,59.0551 "/>
</n1:g>

<n1:g fill="url(#fillpattern6_ff0000)" fill-opacity="1" stroke="none" transform="matrix(1,0,0,1,-262.402,54.5276)" font-family="Ubuntu" font-size="152.778" font-weight="400" font-style="normal">
<n1:circle cx="748.031" cy="393.701" r="11.811"/>
</n1:g>

<n1:g fill="url(#fillpattern6_ff0000)" fill-opacity="1" stroke="#ff0000" stroke-opacity="1" stroke-width="11.811" stroke-linecap="round" stroke-linejoin="bevel" transform="matrix(1,0,0,1,-262.402,54.5276)" font-family="Ubuntu" font-size="152.778" font-weight="400" font-style="normal">
<n1:polyline fill="none" vector-effect="none" points="370.079,433.071 393.701,448.819 "/>
</n1:g>

<n1:g fill="url(#fillpattern6_ff0000)" fill-opacity="1" stroke="none" transform="matrix(1,0,0,1,-262.402,54.5276)" font-family="Ubuntu" font-size="152.778" font-weight="400" font-style="normal">
<n1:circle cx="370.079" cy="433.071" r="11.811"/>
</n1:g>

<n1:g fill="url(#fillpattern6_ff0000)" fill-opacity="1" stroke="#ff0000" stroke-opacity="1" stroke-width="11.811" stroke-linecap="round" stroke-linejoin="bevel" transform="matrix(1,0,0,1,-262.402,54.5276)" font-family="Ubuntu" font-size="152.778" font-weight="400" font-style="normal">
<n1:polyline fill="none" vector-effect="none" points="688.976,448.819 712.598,433.071 "/>
</n1:g>

<n1:g fill="url(#fillpattern6_ff0000)" fill-opacity="1" stroke="none" transform="matrix(1,0,0,1,-262.402,54.5276)" font-family="Ubuntu" font-size="152.778" font-weight="400" font-style="normal">
<n1:circle cx="712.598" cy="433.071" r="11.811"/>
</n1:g>

<n1:g fill="url(#fillpattern6_ff0000)" fill-opacity="1" stroke="#ff0000" stroke-opacity="1" stroke-width="11.811" stroke-linecap="round" stroke-linejoin="bevel" transform="matrix(1,0,0,1,-262.402,54.5276)" font-family="Ubuntu" font-size="152.778" font-weight="400" font-style="normal">
<n1:polyline fill="none" vector-effect="none" points="688.976,448.819 590.551,448.819 "/>
<n1:polyline fill="none" vector-effect="none" points="728.346,275.591 765.748,269.685 "/>
<n1:polyline fill="none" vector-effect="none" points="765.748,72.8346 728.346,59.0551 "/>
</n1:g>

<n1:g fill="url(#fillpattern6_ff0000)" fill-opacity="1" stroke="none" transform="matrix(1,0,0,1,-262.402,54.5276)" font-family="Ubuntu" font-size="152.778" font-weight="400" font-style="normal">
<n1:circle cx="728.346" cy="59.0551" r="11.811"/>
</n1:g>

<n1:g fill="url(#fillpattern6_ff0000)" fill-opacity="1" stroke="none" transform="matrix(1,0,0,1,-262.402,54.5276)" font-family="Ubuntu" font-size="152.778" font-weight="400" font-style="normal">
<n1:circle cx="728.346" cy="275.591" r="11.811"/>
</n1:g>

<n1:g fill="url(#fillpattern6_ff0000)" fill-opacity="1" stroke="#ff0000" stroke-opacity="1" stroke-width="11.811" stroke-linecap="round" stroke-linejoin="bevel" transform="matrix(1,0,0,1,-262.402,54.5276)" font-family="Ubuntu" font-size="152.778" font-weight="400" font-style="normal">
<n1:polyline fill="none" vector-effect="none" points="334.646,393.701 314.961,374.016 "/>
</n1:g>

<n1:g fill="url(#fillpattern6_ff0000)" fill-opacity="1" stroke="none" transform="matrix(1,0,0,1,-262.402,54.5276)" font-family="Ubuntu" font-size="152.778" font-weight="400" font-style="normal">
<n1:circle cx="334.646" cy="393.701" r="11.811"/>
</n1:g>

<n1:g fill="url(#fillpattern6_ff0000)" fill-opacity="1" stroke="#ff0000" stroke-opacity="1" stroke-width="11.811" stroke-linecap="round" stroke-linejoin="bevel" transform="matrix(1,0,0,1,-262.402,54.5276)" font-family="Ubuntu" font-size="152.778" font-weight="400" font-style="normal">
<n1:polyline fill="none" vector-effect="none" points="748.031,393.701 765.748,368.11 "/>
<n1:polyline fill="none" vector-effect="none" points="765.748,328.74 708.661,328.74 "/>
<n1:polyline fill="none" vector-effect="none" points="765.748,92.5197 708.661,92.5197 "/>
<n1:polyline fill="none" vector-effect="none" points="393.701,448.819 492.126,448.819 "/>
</n1:g>

<n1:g fill="#ff0000" fill-opacity="1" stroke="none" transform="matrix(1,0,0,1,-262.402,54.5276)" font-family="Ubuntu" font-size="152.778" font-weight="400" font-style="normal">
<n1:circle cx="708.661" cy="177.165" r="5.90551"/>
</n1:g>

<n1:g fill="url(#fillpattern6_ff0000)" fill-opacity="1" stroke="#ff0000" stroke-opacity="1" stroke-width="11.811" stroke-linecap="round" stroke-linejoin="bevel" transform="matrix(1,0,0,1,-262.402,54.5276)" font-family="Ubuntu" font-size="152.778" font-weight="400" font-style="normal">
<n1:polyline fill="none" vector-effect="none" points="765.748,171.26 708.661,171.26 "/>
<n1:polyline fill="none" vector-effect="none" points="765.748,210.63 708.661,210.63 "/>
</n1:g>

<n1:g fill="#ff0000" fill-opacity="1" stroke="none" transform="matrix(1,0,0,1,-262.402,54.5276)" font-family="Ubuntu" font-size="152.778" font-weight="400" font-style="normal">
<n1:rect x="287.402" y="66.9291" width="59.0551" height="11.811"/>
</n1:g>

<n1:g fill="#ff0000" fill-opacity="1" stroke="none" transform="matrix(1,0,0,1,-262.402,54.5276)" font-family="Ubuntu" font-size="152.778" font-weight="400" font-style="normal">
<n1:rect x="736.22" y="283.465" width="59.0551" height="11.811"/>
</n1:g>

<n1:g fill="#ff0000" fill-opacity="1" stroke="none" transform="matrix(1,0,0,1,-262.402,54.5276)" font-family="Ubuntu" font-size="152.778" font-weight="400" font-style="normal">
<n1:rect x="736.22" y="244.094" width="59.0551" height="11.811"/>
</n1:g>

<n1:g fill="#ff0000" fill-opacity="1" stroke="none" transform="matrix(1,0,0,1,-262.402,54.5276)" font-family="Ubuntu" font-size="152.778" font-weight="400" font-style="normal">
<n1:rect x="287.402" y="244.094" width="59.0551" height="11.811"/>
</n1:g>

<n1:g fill="#ff0000" fill-opacity="1" stroke="none" transform="matrix(1,0,0,1,-262.402,54.5276)" font-family="Ubuntu" font-size="152.778" font-weight="400" font-style="normal">
<n1:rect x="736.22" y="263.78" width="59.0551" height="11.811"/>
</n1:g>

<n1:g fill="#ff0000" fill-opacity="1" stroke="none" transform="matrix(1,0,0,1,-262.402,54.5276)" font-family="Ubuntu" font-size="152.778" font-weight="400" font-style="normal">
<n1:rect x="736.22" y="303.15" width="59.0551" height="11.811"/>
</n1:g>

<n1:g fill="#ff0000" fill-opacity="1" stroke="none" transform="matrix(1,0,0,1,-262.402,54.5276)" font-family="Ubuntu" font-size="152.778" font-weight="400" font-style="normal">
<n1:rect x="736.22" y="342.52" width="59.0551" height="11.811"/>
</n1:g>

<n1:g fill="#ff0000" fill-opacity="1" stroke="none" transform="matrix(1,0,0,1,-262.402,54.5276)" font-family="Ubuntu" font-size="152.778" font-weight="400" font-style="normal">
<n1:rect x="736.22" y="185.039" width="59.0551" height="11.811"/>
</n1:g>

<n1:g fill="#ff0000" fill-opacity="1" stroke="#ff0000" stroke-opacity="1" stroke-width="11.811" stroke-linecap="round" stroke-linejoin="bevel" transform="matrix(1,0,0,1,-262.402,54.5276)" font-family="Ubuntu" font-size="152.778" font-weight="400" font-style="normal">
<n1:polyline fill="none" vector-effect="none" points="316.929,92.5197 374.016,92.5197 "/>
</n1:g>

<n1:g fill="#ff0000" fill-opacity="1" stroke="none" transform="matrix(1,0,0,1,-262.402,54.5276)" font-family="Ubuntu" font-size="152.778" font-weight="400" font-style="normal">
<n1:rect x="736.22" y="322.835" width="59.0551" height="11.811"/>
</n1:g>

<n1:g fill="#ff0000" fill-opacity="1" stroke="none" transform="matrix(1,0,0,1,-262.402,54.5276)" font-family="Ubuntu" font-size="152.778" font-weight="400" font-style="normal">
<n1:rect x="545.276" y="-29.5276" width="11.811" height="59.0551"/>
</n1:g>

<n1:g fill="#ff0000" fill-opacity="1" stroke="none" transform="matrix(1,0,0,1,-262.402,54.5276)" font-family="Ubuntu" font-size="152.778" font-weight="400" font-style="normal">
<n1:rect x="564.961" y="-29.5276" width="11.811" height="59.0551"/>
</n1:g>

<n1:g fill="#ff0000" fill-opacity="1" stroke="none" transform="matrix(1,0,0,1,-262.402,54.5276)" font-family="Ubuntu" font-size="152.778" font-weight="400" font-style="normal">
<n1:rect x="604.331" y="-29.5276" width="11.811" height="59.0551"/>
</n1:g>

<n1:g fill="#ff0000" fill-opacity="1" stroke="none" transform="matrix(1,0,0,1,-262.402,54.5276)" font-family="Ubuntu" font-size="152.778" font-weight="400" font-style="normal">
<n1:rect x="643.701" y="-29.5276" width="11.811" height="59.0551"/>
</n1:g>

<n1:g fill="#ff0000" fill-opacity="1" stroke="none" transform="matrix(1,0,0,1,-262.402,54.5276)" font-family="Ubuntu" font-size="152.778" font-weight="400" font-style="normal">
<n1:rect x="683.071" y="-29.5276" width="11.811" height="59.0551"/>
</n1:g>

<n1:g fill="#ff0000" fill-opacity="1" stroke="none" transform="matrix(1,0,0,1,-262.402,54.5276)" font-family="Ubuntu" font-size="152.778" font-weight="400" font-style="normal">
<n1:rect x="525.591" y="-29.5276" width="11.811" height="59.0551"/>
</n1:g>

<n1:g fill="#ff0000" fill-opacity="1" stroke="none" transform="matrix(1,0,0,1,-262.402,54.5276)" font-family="Ubuntu" font-size="152.778" font-weight="400" font-style="normal">
<n1:rect x="486.22" y="-29.5276" width="11.811" height="59.0551"/>
</n1:g>

<n1:g fill="#ff0000" fill-opacity="1" stroke="none" transform="matrix(1,0,0,1,-262.402,54.5276)" font-family="Ubuntu" font-size="152.778" font-weight="400" font-style="normal">
<n1:rect x="736.22" y="145.669" width="59.0551" height="11.811"/>
</n1:g>

<n1:g fill="#ff0000" fill-opacity="1" stroke="#ff0000" stroke-opacity="1" stroke-width="11.811" stroke-linecap="round" stroke-linejoin="bevel" transform="matrix(1,0,0,1,-262.402,54.5276)" font-family="Ubuntu" font-size="152.778" font-weight="400" font-style="normal">
<n1:polyline fill="none" vector-effect="none" points="783.465,112.205 708.661,112.205 "/>
</n1:g>

<n1:g fill="#000000" fill-opacity="1" stroke="none" transform="matrix(1,0,0,1,-262.402,54.5276)" font-family="Ubuntu" font-size="152.778" font-weight="400" font-style="normal">
<n1:circle cx="354.331" cy="59.0551" r="5.90551"/>
</n1:g>

<n1:g fill="#000000" fill-opacity="1" stroke="none" transform="matrix(1,0,0,1,-262.402,54.5276)" font-family="Ubuntu" font-size="152.778" font-weight="400" font-style="normal">
<n1:circle cx="748.031" cy="393.701" r="5.90551"/>
</n1:g>

<n1:g fill="#000000" fill-opacity="1" stroke="none" transform="matrix(1,0,0,1,-262.402,54.5276)" font-family="Ubuntu" font-size="152.778" font-weight="400" font-style="normal">
<n1:circle cx="370.079" cy="433.071" r="5.90551"/>
</n1:g>

<n1:g fill="#000000" fill-opacity="1" stroke="none" transform="matrix(1,0,0,1,-262.402,54.5276)" font-family="Ubuntu" font-size="152.778" font-weight="400" font-style="normal">
<n1:circle cx="712.598" cy="433.071" r="5.90551"/>
</n1:g>

<n1:g fill="#000000" fill-opacity="1" stroke="none" transform="matrix(1,0,0,1,-262.402,54.5276)" font-family="Ubuntu" font-size="152.778" font-weight="400" font-style="normal">
<n1:circle cx="728.346" cy="59.0551" r="5.90551"/>
</n1:g>

<n1:g fill="#000000" fill-opacity="1" stroke="none" transform="matrix(1,0,0,1,-262.402,54.5276)" font-family="Ubuntu" font-size="152.778" font-weight="400" font-style="normal">
<n1:circle cx="728.346" cy="275.591" r="5.90551"/>
</n1:g>

<n1:g fill="#000000" fill-opacity="1" stroke="none" transform="matrix(1,0,0,1,-262.402,54.5276)" font-family="Ubuntu" font-size="152.778" font-weight="400" font-style="normal">
<n1:circle cx="334.646" cy="393.701" r="5.90551"/>
</n1:g>

<n1:g fill="none" stroke="#f0f000" stroke-opacity="1" stroke-width="10" stroke-linecap="round" stroke-linejoin="bevel" transform="matrix(1,0,0,1,-262.402,54.5276)" font-family="Ubuntu" font-size="152.778" font-weight="400" font-style="normal">
<n1:path vector-effect="none" fill-rule="evenodd" d="M374.016,79.0551 C385.061,79.0551 394.016,70.1008 394.016,59.0551 C394.016,48.0094 385.061,39.0551 374.016,39.0551 C362.97,39.0551 354.016,48.0094 354.016,59.0551 C354.016,70.1008 362.97,79.0551 374.016,79.0551 "/>
<n1:polyline fill="none" vector-effect="none" points="342.52,421.26 342.52,27.5591 "/>
<n1:polyline fill="none" vector-effect="none" points="342.52,27.5591 736.22,27.5591 "/>
<n1:polyline fill="none" vector-effect="none" points="736.22,421.26 736.22,27.5591 "/>
</n1:g>

<n1:g fill="none" stroke="#f0f000" stroke-opacity="1" stroke-width="3" stroke-linecap="round" stroke-linejoin="round" transform="matrix(1.5748,0,0,-1.5748,131.299,251.378)" font-family="Ubuntu" font-size="152.778" font-weight="400" font-style="normal">
<n1:polyline fill="none" vector-effect="none" points="0,-10 0,2 4,8 8,8 12,2 12,-10 "/>
<n1:polyline fill="none" vector-effect="none" points="0,-2 12,-2 "/>
</n1:g>

<n1:g fill="none" stroke="#f0f000" stroke-opacity="1" stroke-width="3" stroke-linecap="round" stroke-linejoin="round" transform="matrix(1.5748,0,0,-1.5748,159.646,251.378)" font-family="Ubuntu" font-size="152.778" font-weight="400" font-style="normal">
</n1:g>

<n1:g fill="#f0f000" fill-opacity="1" stroke="none" transform="matrix(1.5748,0,0,-1.5748,159.646,251.378)" font-family="Ubuntu" font-size="152.778" font-weight="400" font-style="normal">
<n1:circle cx="6" cy="-10" r="1.5"/>
</n1:g>

<n1:g fill="none" stroke="#f0f000" stroke-opacity="1" stroke-width="3" stroke-linecap="round" stroke-linejoin="round" transform="matrix(1.5748,0,0,-1.5748,159.646,251.378)" font-family="Ubuntu" font-size="152.778" font-weight="400" font-style="normal">
</n1:g>

<n1:g fill="none" stroke="#f0f000" stroke-opacity="1" stroke-width="3" stroke-linecap="round" stroke-linejoin="round" transform="matrix(1.5748,0,0,-1.5748,187.992,251.378)" font-family="Ubuntu" font-size="152.778" font-weight="400" font-style="normal">
<n1:polyline fill="none" vector-effect="none" points="11,-8 6,-10 0,-8 0,-1 6,1 11,-1 "/>
<n1:polyline fill="none" vector-effect="none" points="11,1 11,-15 6,-17 0,-15 "/>
</n1:g>

<n1:g fill="none" stroke="#f0f000" stroke-opacity="1" stroke-width="3" stroke-linecap="round" stroke-linejoin="round" transform="matrix(1.5748,0,0,-1.5748,216.339,251.378)" font-family="Ubuntu" font-size="152.778" font-weight="400" font-style="normal">
<n1:polyline fill="none" vector-effect="none" points="0,-10 0,1 "/>
<n1:polyline fill="none" vector-effect="none" points="0,-2 6,1 12,-2 12,-10 "/>
</n1:g>

<n1:g fill="none" stroke="#f0f000" stroke-opacity="1" stroke-width="3" stroke-linecap="round" stroke-linejoin="round" transform="matrix(1.5748,0,0,-1.5748,244.685,251.378)" font-family="Ubuntu" font-size="152.778" font-weight="400" font-style="normal">
<n1:polyline fill="none" vector-effect="none" points="12,-8 6,-10 0,-8 0,-1 6,1 12,-1 "/>
<n1:polyline fill="none" vector-effect="none" points="12,8 12,-10 "/>
</n1:g>

<n1:g fill="none" stroke="#f0f000" stroke-opacity="1" stroke-width="3" stroke-linecap="round" stroke-linejoin="round" transform="matrix(1.5748,0,0,-1.5748,301.378,251.378)" font-family="Ubuntu" font-size="152.778" font-weight="400" font-style="normal">
<n1:polyline fill="none" vector-effect="none" points="0,-17 0,1 "/>
<n1:polyline fill="none" vector-effect="none" points="0,-1 6,1 12,-1 12,-8 6,-10 0,-8 "/>
</n1:g>

<n1:g fill="none" stroke="#f0f000" stroke-opacity="1" stroke-width="3" stroke-linecap="round" stroke-linejoin="round" transform="matrix(1.5748,0,0,-1.5748,329.724,251.378)" font-family="Ubuntu" font-size="152.778" font-weight="400" font-style="normal">
<n1:polyline fill="none" vector-effect="none" points="3,-10 9,-10 "/>
<n1:polyline fill="none" vector-effect="none" points="6,-10 6,8 3,8 "/>
</n1:g>

<n1:g fill="none" stroke="#f0f000" stroke-opacity="1" stroke-width="3" stroke-linecap="round" stroke-linejoin="round" transform="matrix(1.5748,0,0,-1.5748,358.071,251.378)" font-family="Ubuntu" font-size="152.778" font-weight="400" font-style="normal">
<n1:polyline fill="none" vector-effect="none" points="0,0 5,2 11,0 11,-8 8,-10 4,-10 0,-8 0,-5 11,-4 "/>
<n1:polyline fill="none" vector-effect="none" points="11,-8 13,-10 "/>
</n1:g>

<n1:g fill="none" stroke="#f0f000" stroke-opacity="1" stroke-width="3" stroke-linecap="round" stroke-linejoin="round" transform="matrix(1.5748,0,0,-1.5748,386.417,251.378)" font-family="Ubuntu" font-size="152.778" font-weight="400" font-style="normal">
<n1:polyline fill="none" vector-effect="none" points="0,-10 0,1 "/>
<n1:polyline fill="none" vector-effect="none" points="0,-2 6,1 12,-2 12,-10 "/>
</n1:g>

<n1:g fill="none" stroke="#f0f000" stroke-opacity="1" stroke-width="3" stroke-linecap="round" stroke-linejoin="round" transform="matrix(1.5748,0,0,-1.5748,414.764,251.378)" font-family="Ubuntu" font-size="152.778" font-weight="400" font-style="normal">
<n1:polyline fill="none" vector-effect="none" points="0,-4 12,-3 9,2 3,2 0,-1 0,-8 3,-10 9,-10 12,-8 "/>
</n1:g>

<n1:g fill="none" stroke="#f0f000" stroke-opacity="1" stroke-width="10" stroke-linecap="round" stroke-linejoin="bevel" transform="matrix(1,0,0,1,-262.402,54.5276)" font-family="Ubuntu" font-size="152.778" font-weight="400" font-style="normal">
<n1:polyline fill="none" vector-effect="none" points="342.52,421.26 736.22,421.26 "/>
</n1:g>
</n1:g>
</svg>
