<?xml version="1.0" encoding="UTF-8"?>
<svg width="12.7mm" height="12.7mm" viewBox="0 0 500 500" version="1.2" baseProfile="tiny" xmlns:n1="http://www.w3.org/2000/svg" xmlns:xlink="http://www.w3.org/1999/xlink" xmlns:cpcb="http://www.danielwagenaar.net/cpcb-ns.html">
  <cpcb:part pkg="Capacitor-Polarized-1206-3216" xmlns="http://www.danielwagenaar.net/cpcb-ns.html">
    <group ref="C?" pkg="Capacitor-Polarized-1206-3216">
      <trace p1="946150 762000" p2="950150 762000" w="2500" l="1"/>
      <trace p1="950150 762000" p2="950150 757000" w="2500" l="1"/>
      <pad p="939800 762000" w="9000" h="17000" l="2" ref="1"/>
      <pad p="968800 762000" w="9000" h="17000" l="2" ref="2"/>
      <trace p1="950150 767000" p2="950150 762000" w="2500" l="1"/>
      <trace p1="955675 762000" p2="962025 762000" w="2500" l="1"/>
      <arc p="960426 762000" r="5080" lw="2500" l="1" ang="180" rota="180"/>
      <trace p1="949325 752475" p2="949325 746125" w="2500" l="1"/>
      <trace p1="952500 749300" p2="946150 749300" w="2500" l="1"/>
    </group>
    <text p="940475 734950" fs="12700" l="1" rot="0" text="C?"/>
  </cpcb:part>
<n1:title>PCB Component</n1:title>
<n1:desc>Generated by CPCB</n1:desc>
<n1:defs>
</n1:defs>
<n1:g fill="none" stroke="black" stroke-width="1" fill-rule="evenodd" stroke-linecap="square" stroke-linejoin="bevel">

<n1:g fill="#000000" fill-opacity="1" stroke="none" transform="matrix(1,0,0,1,-3507.09,-2733.02)" font-family="Sans" font-size="152.778" font-weight="400" font-style="normal">
<n1:rect x="3507.09" y="2733.02" width="500" height="500"/>
</n1:g>

<n1:g fill="#ff0000" fill-opacity="1" stroke="none" transform="matrix(1,0,0,1,-3507.09,-2733.02)" font-family="Sans" font-size="152.778" font-weight="400" font-style="normal">
<n1:rect x="3682.28" y="2966.54" width="35.4331" height="66.9291"/>
</n1:g>

<n1:g fill="#ff0000" fill-opacity="1" stroke="none" transform="matrix(1,0,0,1,-3507.09,-2733.02)" font-family="Sans" font-size="152.778" font-weight="400" font-style="normal">
<n1:rect x="3796.46" y="2966.54" width="35.4331" height="66.9291"/>
</n1:g>

<n1:g fill="#ff0000" fill-opacity="1" stroke="#f0f000" stroke-opacity="1" stroke-width="9.84252" stroke-linecap="round" stroke-linejoin="bevel" transform="matrix(1,0,0,1,-3507.09,-2733.02)" font-family="Sans" font-size="152.778" font-weight="400" font-style="normal">
<n1:polyline fill="none" vector-effect="none" points="3725,3000 3740.75,3000 "/>
<n1:polyline fill="none" vector-effect="none" points="3740.75,3000 3740.75,2980.31 "/>
<n1:polyline fill="none" vector-effect="none" points="3740.75,3019.69 3740.75,3000 "/>
<n1:polyline fill="none" vector-effect="none" points="3762.5,3000 3787.5,3000 "/>
</n1:g>

<n1:g fill="none" stroke="#f0f000" stroke-opacity="1" stroke-width="9.84252" stroke-linecap="round" stroke-linejoin="bevel" transform="matrix(1,0,0,1,-3507.09,-2733.02)" font-family="Sans" font-size="152.778" font-weight="400" font-style="normal">
<n1:path vector-effect="none" fill-rule="evenodd" d="M3781.2,2980 C3770.16,2980 3761.2,2988.95 3761.2,3000 C3761.2,3011.05 3770.16,3020 3781.2,3020 "/>
<n1:polyline fill="none" vector-effect="none" points="3737.5,2962.5 3737.5,2937.5 "/>
<n1:polyline fill="none" vector-effect="none" points="3750,2950 3725,2950 "/>
</n1:g>
</n1:g>
</svg>
