<?xml version="1.0" encoding="UTF-8"?>
<svg width="141.707mm" height="141.707mm" viewBox="0 0 557.874 557.874" version="1.2" baseProfile="tiny" xmlns:n1="http://www.w3.org/2000/svg" xmlns:xlink="http://www.w3.org/1999/xlink" xmlns:cpcb="http://www.danielwagenaar.net/cpcb-ns.html">
  <cpcb:part pkg="LQFP-64" xmlns="http://www.danielwagenaar.net/cpcb-ns.html">
    <group ref="U?" pkg="LQFP-64">
      <pad p="194500 93500" w="15000" h="3000" l="2" ref="33"/>
      <pad p="194500 53500" w="15000" h="3000" l="2" ref="41"/>
      <pad p="194500 43500" w="15000" h="3000" l="2" ref="43"/>
      <pad p="194500 33500" w="15000" h="3000" l="2" ref="45"/>
      <pad p="80500 33500" w="15000" h="3000" l="2" ref="4"/>
      <pad p="80500 23500" w="15000" h="3000" l="2" ref="2"/>
      <pad p="80500 43500" w="15000" h="3000" l="2" ref="6"/>
      <pad p="80500 53500" w="15000" h="3000" l="2" ref="8"/>
      <pad p="80500 93500" w="15000" h="3000" l="2" ref="16"/>
      <pad p="80500 83500" w="15000" h="3000" l="2" ref="14"/>
      <pad p="80500 73500" w="15000" h="3000" l="2" ref="12"/>
      <pad p="100000 114000" w="3000" h="15000" l="2" ref="17"/>
      <pad p="80500 58500" w="15000" h="3000" l="2" ref="9"/>
      <pad p="80500 68500" w="15000" h="3000" l="2" ref="11"/>
      <pad p="80500 78500" w="15000" h="3000" l="2" ref="13"/>
      <pad p="80500 88500" w="15000" h="3000" l="2" ref="15"/>
      <pad p="80500 48500" w="15000" h="3000" l="2" ref="7"/>
      <pad p="80500 38500" w="15000" h="3000" l="2" ref="5"/>
      <pad p="80500 28500" w="15000" h="3000" l="2" ref="3"/>
      <pad p="194500 23500" w="15000" h="3000" l="2" ref="47"/>
      <pad p="155000 114000" w="3000" h="15000" l="2" ref="28"/>
      <pad p="165000 114000" w="3000" h="15000" l="2" ref="30"/>
      <pad p="175000 114000" w="3000" h="15000" l="2" ref="32"/>
      <pad p="135000 114000" w="3000" h="15000" l="2" ref="24"/>
      <pad p="125000 114000" w="3000" h="15000" l="2" ref="22"/>
      <pad p="105000 114000" w="3000" h="15000" l="2" ref="18"/>
      <pad p="115000 114000" w="3000" h="15000" l="2" ref="20"/>
      <pad p="105000 0" w="3000" h="15000" l="2" ref="63"/>
      <pad p="110000 114000" w="3000" h="15000" l="2" ref="19"/>
      <pad p="120000 114000" w="3000" h="15000" l="2" ref="21"/>
      <pad p="130000 114000" w="3000" h="15000" l="2" ref="23"/>
      <pad p="170000 114000" w="3000" h="15000" l="2" ref="31"/>
      <pad p="160000 114000" w="3000" h="15000" l="2" ref="29"/>
      <pad p="150000 114000" w="3000" h="15000" l="2" ref="27"/>
      <pad p="140000 114000" w="3000" h="15000" l="2" ref="25"/>
      <pad p="145000 114000" w="3000" h="15000" l="2" ref="26"/>
      <pad p="150000 0" w="3000" h="15000" l="2" ref="54"/>
      <pad p="160000 0" w="3000" h="15000" l="2" ref="52"/>
      <pad p="170000 0" w="3000" h="15000" l="2" ref="50"/>
      <pad p="130000 0" w="3000" h="15000" l="2" ref="58"/>
      <pad p="120000 0" w="3000" h="15000" l="2" ref="60"/>
      <pad p="110000 0" w="3000" h="15000" l="2" ref="62"/>
      <pad p="100000 0" w="3000" h="15000" l="2" ref="64"/>
      <pad p="115000 0" w="3000" h="15000" l="2" ref="61"/>
      <pad p="125000 0" w="3000" h="15000" l="2" ref="59"/>
      <pad p="135000 0" w="3000" h="15000" l="2" ref="57"/>
      <pad p="175000 0" w="3000" h="15000" l="2" ref="49"/>
      <pad p="165000 0" w="3000" h="15000" l="2" ref="51"/>
      <pad p="155000 0" w="3000" h="15000" l="2" ref="53"/>
      <pad p="145000 0" w="3000" h="15000" l="2" ref="55"/>
      <pad p="140000 0" w="3000" h="15000" l="2" ref="56"/>
      <trace p1="87000 107000" p2="187000 107000" w="2540" l="1"/>
      <trace p1="187000 107000" p2="187000 7000" w="2540" l="1"/>
      <trace p1="87000 7000" p2="187000 7000" w="2540" l="1"/>
      <trace p1="87000 107000" p2="87000 7000" w="2540" l="1"/>
      <arc p="95000 15000" r="5080" lw="2540" l="1" ang="360" rota="180"/>
      <pad p="194500 58500" w="15000" h="3000" l="2" ref="40"/>
      <pad p="194500 18500" w="15000" h="3000" l="2" ref="48"/>
      <pad p="194500 28500" w="15000" h="3000" l="2" ref="46"/>
      <pad p="194500 38500" w="15000" h="3000" l="2" ref="44"/>
      <pad p="194500 48500" w="15000" h="3000" l="2" ref="42"/>
      <pad p="194500 88500" w="15000" h="3000" l="2" ref="34"/>
      <pad p="194500 78500" w="15000" h="3000" l="2" ref="36"/>
      <pad p="194500 68500" w="15000" h="3000" l="2" ref="38"/>
      <pad p="80500 63500" w="15000" h="3000" l="2" ref="10"/>
      <pad p="194500 63500" w="15000" h="3000" l="2" ref="39"/>
      <pad p="194500 73500" w="15000" h="3000" l="2" ref="37"/>
      <pad p="80500 18500" w="15000" h="3000" l="2" ref="1"/>
      <pad p="194500 83500" w="15000" h="3000" l="2" ref="35"/>
    </group>
    <text p="68000 -5200" fs="12700" l="1" rot="0" text="U?"/>
  </cpcb:part>
<n1:title>PCB Component</n1:title>
<n1:desc>Generated by CPCB</n1:desc>
<n1:defs>
</n1:defs>
<n1:g fill="none" stroke="black" stroke-width="1" fill-rule="evenodd" stroke-linecap="square" stroke-linejoin="bevel">

<n1:g fill="#000000" fill-opacity="1" stroke="none" transform="matrix(1,0,0,1,-262.402,54.5276)" font-family="Ubuntu" font-size="152.778" font-weight="400" font-style="normal">
<n1:rect x="262.402" y="-54.5276" width="557.874" height="557.874"/>
</n1:g>

<n1:g fill="#ff0000" fill-opacity="1" stroke="none" transform="matrix(1,0,0,1,-262.402,54.5276)" font-family="Ubuntu" font-size="152.778" font-weight="400" font-style="normal">
<n1:rect x="736.22" y="362.205" width="59.0551" height="11.811"/>
</n1:g>

<n1:g fill="#ff0000" fill-opacity="1" stroke="none" transform="matrix(1,0,0,1,-262.402,54.5276)" font-family="Ubuntu" font-size="152.778" font-weight="400" font-style="normal">
<n1:rect x="736.22" y="204.724" width="59.0551" height="11.811"/>
</n1:g>

<n1:g fill="#ff0000" fill-opacity="1" stroke="none" transform="matrix(1,0,0,1,-262.402,54.5276)" font-family="Ubuntu" font-size="152.778" font-weight="400" font-style="normal">
<n1:rect x="736.22" y="165.354" width="59.0551" height="11.811"/>
</n1:g>

<n1:g fill="#ff0000" fill-opacity="1" stroke="none" transform="matrix(1,0,0,1,-262.402,54.5276)" font-family="Ubuntu" font-size="152.778" font-weight="400" font-style="normal">
<n1:rect x="736.22" y="125.984" width="59.0551" height="11.811"/>
</n1:g>

<n1:g fill="#ff0000" fill-opacity="1" stroke="none" transform="matrix(1,0,0,1,-262.402,54.5276)" font-family="Ubuntu" font-size="152.778" font-weight="400" font-style="normal">
<n1:rect x="287.402" y="125.984" width="59.0551" height="11.811"/>
</n1:g>

<n1:g fill="#ff0000" fill-opacity="1" stroke="none" transform="matrix(1,0,0,1,-262.402,54.5276)" font-family="Ubuntu" font-size="152.778" font-weight="400" font-style="normal">
<n1:rect x="287.402" y="86.6142" width="59.0551" height="11.811"/>
</n1:g>

<n1:g fill="#ff0000" fill-opacity="1" stroke="none" transform="matrix(1,0,0,1,-262.402,54.5276)" font-family="Ubuntu" font-size="152.778" font-weight="400" font-style="normal">
<n1:rect x="287.402" y="165.354" width="59.0551" height="11.811"/>
</n1:g>

<n1:g fill="#ff0000" fill-opacity="1" stroke="none" transform="matrix(1,0,0,1,-262.402,54.5276)" font-family="Ubuntu" font-size="152.778" font-weight="400" font-style="normal">
<n1:rect x="287.402" y="204.724" width="59.0551" height="11.811"/>
</n1:g>

<n1:g fill="#ff0000" fill-opacity="1" stroke="none" transform="matrix(1,0,0,1,-262.402,54.5276)" font-family="Ubuntu" font-size="152.778" font-weight="400" font-style="normal">
<n1:rect x="287.402" y="362.205" width="59.0551" height="11.811"/>
</n1:g>

<n1:g fill="#ff0000" fill-opacity="1" stroke="none" transform="matrix(1,0,0,1,-262.402,54.5276)" font-family="Ubuntu" font-size="152.778" font-weight="400" font-style="normal">
<n1:rect x="287.402" y="322.835" width="59.0551" height="11.811"/>
</n1:g>

<n1:g fill="#ff0000" fill-opacity="1" stroke="none" transform="matrix(1,0,0,1,-262.402,54.5276)" font-family="Ubuntu" font-size="152.778" font-weight="400" font-style="normal">
<n1:rect x="287.402" y="283.465" width="59.0551" height="11.811"/>
</n1:g>

<n1:g fill="#ff0000" fill-opacity="1" stroke="none" transform="matrix(1,0,0,1,-262.402,54.5276)" font-family="Ubuntu" font-size="152.778" font-weight="400" font-style="normal">
<n1:rect x="387.795" y="419.291" width="11.811" height="59.0551"/>
</n1:g>

<n1:g fill="#ff0000" fill-opacity="1" stroke="none" transform="matrix(1,0,0,1,-262.402,54.5276)" font-family="Ubuntu" font-size="152.778" font-weight="400" font-style="normal">
<n1:rect x="287.402" y="224.409" width="59.0551" height="11.811"/>
</n1:g>

<n1:g fill="#ff0000" fill-opacity="1" stroke="none" transform="matrix(1,0,0,1,-262.402,54.5276)" font-family="Ubuntu" font-size="152.778" font-weight="400" font-style="normal">
<n1:rect x="287.402" y="263.78" width="59.0551" height="11.811"/>
</n1:g>

<n1:g fill="#ff0000" fill-opacity="1" stroke="none" transform="matrix(1,0,0,1,-262.402,54.5276)" font-family="Ubuntu" font-size="152.778" font-weight="400" font-style="normal">
<n1:rect x="287.402" y="303.15" width="59.0551" height="11.811"/>
</n1:g>

<n1:g fill="#ff0000" fill-opacity="1" stroke="none" transform="matrix(1,0,0,1,-262.402,54.5276)" font-family="Ubuntu" font-size="152.778" font-weight="400" font-style="normal">
<n1:rect x="287.402" y="342.52" width="59.0551" height="11.811"/>
</n1:g>

<n1:g fill="#ff0000" fill-opacity="1" stroke="none" transform="matrix(1,0,0,1,-262.402,54.5276)" font-family="Ubuntu" font-size="152.778" font-weight="400" font-style="normal">
<n1:rect x="287.402" y="185.039" width="59.0551" height="11.811"/>
</n1:g>

<n1:g fill="#ff0000" fill-opacity="1" stroke="none" transform="matrix(1,0,0,1,-262.402,54.5276)" font-family="Ubuntu" font-size="152.778" font-weight="400" font-style="normal">
<n1:rect x="287.402" y="145.669" width="59.0551" height="11.811"/>
</n1:g>

<n1:g fill="#ff0000" fill-opacity="1" stroke="none" transform="matrix(1,0,0,1,-262.402,54.5276)" font-family="Ubuntu" font-size="152.778" font-weight="400" font-style="normal">
<n1:rect x="287.402" y="106.299" width="59.0551" height="11.811"/>
</n1:g>

<n1:g fill="#ff0000" fill-opacity="1" stroke="none" transform="matrix(1,0,0,1,-262.402,54.5276)" font-family="Ubuntu" font-size="152.778" font-weight="400" font-style="normal">
<n1:rect x="736.22" y="86.6142" width="59.0551" height="11.811"/>
</n1:g>

<n1:g fill="#ff0000" fill-opacity="1" stroke="none" transform="matrix(1,0,0,1,-262.402,54.5276)" font-family="Ubuntu" font-size="152.778" font-weight="400" font-style="normal">
<n1:rect x="604.331" y="419.291" width="11.811" height="59.0551"/>
</n1:g>

<n1:g fill="#ff0000" fill-opacity="1" stroke="none" transform="matrix(1,0,0,1,-262.402,54.5276)" font-family="Ubuntu" font-size="152.778" font-weight="400" font-style="normal">
<n1:rect x="643.701" y="419.291" width="11.811" height="59.0551"/>
</n1:g>

<n1:g fill="#ff0000" fill-opacity="1" stroke="none" transform="matrix(1,0,0,1,-262.402,54.5276)" font-family="Ubuntu" font-size="152.778" font-weight="400" font-style="normal">
<n1:rect x="683.071" y="419.291" width="11.811" height="59.0551"/>
</n1:g>

<n1:g fill="#ff0000" fill-opacity="1" stroke="none" transform="matrix(1,0,0,1,-262.402,54.5276)" font-family="Ubuntu" font-size="152.778" font-weight="400" font-style="normal">
<n1:rect x="525.591" y="419.291" width="11.811" height="59.0551"/>
</n1:g>

<n1:g fill="#ff0000" fill-opacity="1" stroke="none" transform="matrix(1,0,0,1,-262.402,54.5276)" font-family="Ubuntu" font-size="152.778" font-weight="400" font-style="normal">
<n1:rect x="486.22" y="419.291" width="11.811" height="59.0551"/>
</n1:g>

<n1:g fill="#ff0000" fill-opacity="1" stroke="none" transform="matrix(1,0,0,1,-262.402,54.5276)" font-family="Ubuntu" font-size="152.778" font-weight="400" font-style="normal">
<n1:rect x="407.48" y="419.291" width="11.811" height="59.0551"/>
</n1:g>

<n1:g fill="#ff0000" fill-opacity="1" stroke="none" transform="matrix(1,0,0,1,-262.402,54.5276)" font-family="Ubuntu" font-size="152.778" font-weight="400" font-style="normal">
<n1:rect x="446.85" y="419.291" width="11.811" height="59.0551"/>
</n1:g>

<n1:g fill="#ff0000" fill-opacity="1" stroke="none" transform="matrix(1,0,0,1,-262.402,54.5276)" font-family="Ubuntu" font-size="152.778" font-weight="400" font-style="normal">
<n1:rect x="407.48" y="-29.5276" width="11.811" height="59.0551"/>
</n1:g>

<n1:g fill="#ff0000" fill-opacity="1" stroke="none" transform="matrix(1,0,0,1,-262.402,54.5276)" font-family="Ubuntu" font-size="152.778" font-weight="400" font-style="normal">
<n1:rect x="427.165" y="419.291" width="11.811" height="59.0551"/>
</n1:g>

<n1:g fill="#ff0000" fill-opacity="1" stroke="none" transform="matrix(1,0,0,1,-262.402,54.5276)" font-family="Ubuntu" font-size="152.778" font-weight="400" font-style="normal">
<n1:rect x="466.535" y="419.291" width="11.811" height="59.0551"/>
</n1:g>

<n1:g fill="#ff0000" fill-opacity="1" stroke="none" transform="matrix(1,0,0,1,-262.402,54.5276)" font-family="Ubuntu" font-size="152.778" font-weight="400" font-style="normal">
<n1:rect x="505.906" y="419.291" width="11.811" height="59.0551"/>
</n1:g>

<n1:g fill="#ff0000" fill-opacity="1" stroke="none" transform="matrix(1,0,0,1,-262.402,54.5276)" font-family="Ubuntu" font-size="152.778" font-weight="400" font-style="normal">
<n1:rect x="663.386" y="419.291" width="11.811" height="59.0551"/>
</n1:g>

<n1:g fill="#ff0000" fill-opacity="1" stroke="none" transform="matrix(1,0,0,1,-262.402,54.5276)" font-family="Ubuntu" font-size="152.778" font-weight="400" font-style="normal">
<n1:rect x="624.016" y="419.291" width="11.811" height="59.0551"/>
</n1:g>

<n1:g fill="#ff0000" fill-opacity="1" stroke="none" transform="matrix(1,0,0,1,-262.402,54.5276)" font-family="Ubuntu" font-size="152.778" font-weight="400" font-style="normal">
<n1:rect x="584.646" y="419.291" width="11.811" height="59.0551"/>
</n1:g>

<n1:g fill="#ff0000" fill-opacity="1" stroke="none" transform="matrix(1,0,0,1,-262.402,54.5276)" font-family="Ubuntu" font-size="152.778" font-weight="400" font-style="normal">
<n1:rect x="545.276" y="419.291" width="11.811" height="59.0551"/>
</n1:g>

<n1:g fill="#ff0000" fill-opacity="1" stroke="none" transform="matrix(1,0,0,1,-262.402,54.5276)" font-family="Ubuntu" font-size="152.778" font-weight="400" font-style="normal">
<n1:rect x="564.961" y="419.291" width="11.811" height="59.0551"/>
</n1:g>

<n1:g fill="#ff0000" fill-opacity="1" stroke="none" transform="matrix(1,0,0,1,-262.402,54.5276)" font-family="Ubuntu" font-size="152.778" font-weight="400" font-style="normal">
<n1:rect x="584.646" y="-29.5276" width="11.811" height="59.0551"/>
</n1:g>

<n1:g fill="#ff0000" fill-opacity="1" stroke="none" transform="matrix(1,0,0,1,-262.402,54.5276)" font-family="Ubuntu" font-size="152.778" font-weight="400" font-style="normal">
<n1:rect x="624.016" y="-29.5276" width="11.811" height="59.0551"/>
</n1:g>

<n1:g fill="#ff0000" fill-opacity="1" stroke="none" transform="matrix(1,0,0,1,-262.402,54.5276)" font-family="Ubuntu" font-size="152.778" font-weight="400" font-style="normal">
<n1:rect x="663.386" y="-29.5276" width="11.811" height="59.0551"/>
</n1:g>

<n1:g fill="#ff0000" fill-opacity="1" stroke="none" transform="matrix(1,0,0,1,-262.402,54.5276)" font-family="Ubuntu" font-size="152.778" font-weight="400" font-style="normal">
<n1:rect x="505.906" y="-29.5276" width="11.811" height="59.0551"/>
</n1:g>

<n1:g fill="#ff0000" fill-opacity="1" stroke="none" transform="matrix(1,0,0,1,-262.402,54.5276)" font-family="Ubuntu" font-size="152.778" font-weight="400" font-style="normal">
<n1:rect x="466.535" y="-29.5276" width="11.811" height="59.0551"/>
</n1:g>

<n1:g fill="#ff0000" fill-opacity="1" stroke="none" transform="matrix(1,0,0,1,-262.402,54.5276)" font-family="Ubuntu" font-size="152.778" font-weight="400" font-style="normal">
<n1:rect x="427.165" y="-29.5276" width="11.811" height="59.0551"/>
</n1:g>

<n1:g fill="#ff0000" fill-opacity="1" stroke="none" transform="matrix(1,0,0,1,-262.402,54.5276)" font-family="Ubuntu" font-size="152.778" font-weight="400" font-style="normal">
<n1:rect x="387.795" y="-29.5276" width="11.811" height="59.0551"/>
</n1:g>

<n1:g fill="#ff0000" fill-opacity="1" stroke="none" transform="matrix(1,0,0,1,-262.402,54.5276)" font-family="Ubuntu" font-size="152.778" font-weight="400" font-style="normal">
<n1:rect x="446.85" y="-29.5276" width="11.811" height="59.0551"/>
</n1:g>

<n1:g fill="#ff0000" fill-opacity="1" stroke="none" transform="matrix(1,0,0,1,-262.402,54.5276)" font-family="Ubuntu" font-size="152.778" font-weight="400" font-style="normal">
<n1:rect x="486.22" y="-29.5276" width="11.811" height="59.0551"/>
</n1:g>

<n1:g fill="#ff0000" fill-opacity="1" stroke="none" transform="matrix(1,0,0,1,-262.402,54.5276)" font-family="Ubuntu" font-size="152.778" font-weight="400" font-style="normal">
<n1:rect x="525.591" y="-29.5276" width="11.811" height="59.0551"/>
</n1:g>

<n1:g fill="#ff0000" fill-opacity="1" stroke="none" transform="matrix(1,0,0,1,-262.402,54.5276)" font-family="Ubuntu" font-size="152.778" font-weight="400" font-style="normal">
<n1:rect x="683.071" y="-29.5276" width="11.811" height="59.0551"/>
</n1:g>

<n1:g fill="#ff0000" fill-opacity="1" stroke="none" transform="matrix(1,0,0,1,-262.402,54.5276)" font-family="Ubuntu" font-size="152.778" font-weight="400" font-style="normal">
<n1:rect x="643.701" y="-29.5276" width="11.811" height="59.0551"/>
</n1:g>

<n1:g fill="#ff0000" fill-opacity="1" stroke="none" transform="matrix(1,0,0,1,-262.402,54.5276)" font-family="Ubuntu" font-size="152.778" font-weight="400" font-style="normal">
<n1:rect x="604.331" y="-29.5276" width="11.811" height="59.0551"/>
</n1:g>

<n1:g fill="#ff0000" fill-opacity="1" stroke="none" transform="matrix(1,0,0,1,-262.402,54.5276)" font-family="Ubuntu" font-size="152.778" font-weight="400" font-style="normal">
<n1:rect x="564.961" y="-29.5276" width="11.811" height="59.0551"/>
</n1:g>

<n1:g fill="#ff0000" fill-opacity="1" stroke="none" transform="matrix(1,0,0,1,-262.402,54.5276)" font-family="Ubuntu" font-size="152.778" font-weight="400" font-style="normal">
<n1:rect x="545.276" y="-29.5276" width="11.811" height="59.0551"/>
</n1:g>

<n1:g fill="#ff0000" fill-opacity="1" stroke="none" transform="matrix(1,0,0,1,-262.402,54.5276)" font-family="Ubuntu" font-size="152.778" font-weight="400" font-style="normal">
<n1:rect x="736.22" y="224.409" width="59.0551" height="11.811"/>
</n1:g>

<n1:g fill="#ff0000" fill-opacity="1" stroke="none" transform="matrix(1,0,0,1,-262.402,54.5276)" font-family="Ubuntu" font-size="152.778" font-weight="400" font-style="normal">
<n1:rect x="736.22" y="66.9291" width="59.0551" height="11.811"/>
</n1:g>

<n1:g fill="#ff0000" fill-opacity="1" stroke="none" transform="matrix(1,0,0,1,-262.402,54.5276)" font-family="Ubuntu" font-size="152.778" font-weight="400" font-style="normal">
<n1:rect x="736.22" y="106.299" width="59.0551" height="11.811"/>
</n1:g>

<n1:g fill="#ff0000" fill-opacity="1" stroke="none" transform="matrix(1,0,0,1,-262.402,54.5276)" font-family="Ubuntu" font-size="152.778" font-weight="400" font-style="normal">
<n1:rect x="736.22" y="145.669" width="59.0551" height="11.811"/>
</n1:g>

<n1:g fill="#ff0000" fill-opacity="1" stroke="none" transform="matrix(1,0,0,1,-262.402,54.5276)" font-family="Ubuntu" font-size="152.778" font-weight="400" font-style="normal">
<n1:rect x="736.22" y="185.039" width="59.0551" height="11.811"/>
</n1:g>

<n1:g fill="#ff0000" fill-opacity="1" stroke="none" transform="matrix(1,0,0,1,-262.402,54.5276)" font-family="Ubuntu" font-size="152.778" font-weight="400" font-style="normal">
<n1:rect x="736.22" y="342.52" width="59.0551" height="11.811"/>
</n1:g>

<n1:g fill="#ff0000" fill-opacity="1" stroke="none" transform="matrix(1,0,0,1,-262.402,54.5276)" font-family="Ubuntu" font-size="152.778" font-weight="400" font-style="normal">
<n1:rect x="736.22" y="303.15" width="59.0551" height="11.811"/>
</n1:g>

<n1:g fill="#ff0000" fill-opacity="1" stroke="none" transform="matrix(1,0,0,1,-262.402,54.5276)" font-family="Ubuntu" font-size="152.778" font-weight="400" font-style="normal">
<n1:rect x="736.22" y="263.78" width="59.0551" height="11.811"/>
</n1:g>

<n1:g fill="#ff0000" fill-opacity="1" stroke="none" transform="matrix(1,0,0,1,-262.402,54.5276)" font-family="Ubuntu" font-size="152.778" font-weight="400" font-style="normal">
<n1:rect x="287.402" y="244.094" width="59.0551" height="11.811"/>
</n1:g>

<n1:g fill="#ff0000" fill-opacity="1" stroke="none" transform="matrix(1,0,0,1,-262.402,54.5276)" font-family="Ubuntu" font-size="152.778" font-weight="400" font-style="normal">
<n1:rect x="736.22" y="244.094" width="59.0551" height="11.811"/>
</n1:g>

<n1:g fill="#ff0000" fill-opacity="1" stroke="none" transform="matrix(1,0,0,1,-262.402,54.5276)" font-family="Ubuntu" font-size="152.778" font-weight="400" font-style="normal">
<n1:rect x="736.22" y="283.465" width="59.0551" height="11.811"/>
</n1:g>

<n1:g fill="#ff0000" fill-opacity="1" stroke="none" transform="matrix(1,0,0,1,-262.402,54.5276)" font-family="Ubuntu" font-size="152.778" font-weight="400" font-style="normal">
<n1:rect x="287.402" y="66.9291" width="59.0551" height="11.811"/>
</n1:g>

<n1:g fill="#ff0000" fill-opacity="1" stroke="none" transform="matrix(1,0,0,1,-262.402,54.5276)" font-family="Ubuntu" font-size="152.778" font-weight="400" font-style="normal">
<n1:rect x="736.22" y="322.835" width="59.0551" height="11.811"/>
</n1:g>

<n1:g fill="#ff0000" fill-opacity="1" stroke="#f0f000" stroke-opacity="1" stroke-width="10" stroke-linecap="round" stroke-linejoin="bevel" transform="matrix(1,0,0,1,-262.402,54.5276)" font-family="Ubuntu" font-size="152.778" font-weight="400" font-style="normal">
<n1:polyline fill="none" vector-effect="none" points="342.52,421.26 736.22,421.26 "/>
<n1:polyline fill="none" vector-effect="none" points="736.22,421.26 736.22,27.5591 "/>
<n1:polyline fill="none" vector-effect="none" points="342.52,27.5591 736.22,27.5591 "/>
<n1:polyline fill="none" vector-effect="none" points="342.52,421.26 342.52,27.5591 "/>
</n1:g>

<n1:g fill="none" stroke="#f0f000" stroke-opacity="1" stroke-width="10" stroke-linecap="round" stroke-linejoin="bevel" transform="matrix(1,0,0,1,-262.402,54.5276)" font-family="Ubuntu" font-size="152.778" font-weight="400" font-style="normal">
<n1:path vector-effect="none" fill-rule="evenodd" d="M374.016,79.0551 C385.061,79.0551 394.016,70.1008 394.016,59.0551 C394.016,48.0094 385.061,39.0551 374.016,39.0551 C362.97,39.0551 354.016,48.0094 354.016,59.0551 C354.016,70.1008 362.97,79.0551 374.016,79.0551 "/>
</n1:g>
</n1:g>
</svg>
