<?xml version="1.0" encoding="UTF-8"?>
<svg width="12.7mm" height="12.7mm" viewBox="0 0 500 500" version="1.2" baseProfile="tiny" xmlns:n1="http://www.w3.org/2000/svg" xmlns:xlink="http://www.w3.org/1999/xlink" xmlns:cpcb="http://www.danielwagenaar.net/cpcb-ns.html">
  <cpcb:part pkg="MSOP-8" xmlns="http://www.danielwagenaar.net/cpcb-ns.html">
    <group ref="U?" pkg="MSOP-8">
      <pad p="1098700 514350" w="4000" h="9000" l="2" ref="2"/>
      <pad p="1092200 514350" w="4000" h="9000" l="2" ref="1"/>
      <arc p="1082800 493350" r="6350" lw="2540" l="1" ang="180" rota="0"/>
      <trace p1="1082800 478350" p2="1082802 486156" w="2540" l="1"/>
      <trace p1="1082802 508508" p2="1082802 501350" w="2540" l="1"/>
      <trace p1="1118700 508508" p2="1082802 508508" w="2540" l="1"/>
      <trace p1="1118700 478350" p2="1118700 508508" w="2540" l="1"/>
      <trace p1="1082800 478350" p2="1118700 478350" w="2540" l="1"/>
      <pad p="1111700 472850" w="4000" h="9000" l="2" ref="5"/>
      <pad p="1098700 472850" w="4000" h="9000" l="2" ref="7"/>
      <pad p="1105200 472850" w="4000" h="9000" l="2" ref="6"/>
      <pad p="1092200 472850" w="4000" h="9000" l="2" ref="8"/>
      <pad p="1111700 514350" w="4000" h="9000" l="2" ref="4"/>
      <pad p="1105200 514350" w="4000" h="9000" l="2" ref="3"/>
    </group>
    <text p="1071961 502935" fs="12700" l="1" rot="270" text="U?"/>
  </cpcb:part>
<n1:title>PCB Component</n1:title>
<n1:desc>Generated by CPCB</n1:desc>
<n1:defs>
</n1:defs>
<n1:g fill="none" stroke="black" stroke-width="1" fill-rule="evenodd" stroke-linecap="square" stroke-linejoin="bevel">

<n1:g fill="#000000" fill-opacity="1" stroke="none" transform="matrix(1,0,0,1,-4083.64,-1693.31)" font-family="Sans" font-size="152.778" font-weight="400" font-style="normal">
<n1:rect x="4083.64" y="1693.31" width="500" height="500"/>
</n1:g>

<n1:g fill="#ff0000" fill-opacity="1" stroke="none" transform="matrix(1,0,0,1,-4083.64,-1693.31)" font-family="Sans" font-size="152.778" font-weight="400" font-style="normal">
<n1:rect x="4317.72" y="2007.28" width="15.748" height="35.4331"/>
</n1:g>

<n1:g fill="#ff0000" fill-opacity="1" stroke="none" transform="matrix(1,0,0,1,-4083.64,-1693.31)" font-family="Sans" font-size="152.778" font-weight="400" font-style="normal">
<n1:rect x="4292.13" y="2007.28" width="15.748" height="35.4331"/>
</n1:g>

<n1:g fill="#ff0000" fill-opacity="1" stroke="none" transform="matrix(1,0,0,1,-4083.64,-1693.31)" font-family="Sans" font-size="152.778" font-weight="400" font-style="normal">
<n1:rect x="4368.9" y="1843.9" width="15.748" height="35.4331"/>
</n1:g>

<n1:g fill="#ff0000" fill-opacity="1" stroke="none" transform="matrix(1,0,0,1,-4083.64,-1693.31)" font-family="Sans" font-size="152.778" font-weight="400" font-style="normal">
<n1:rect x="4317.72" y="1843.9" width="15.748" height="35.4331"/>
</n1:g>

<n1:g fill="#ff0000" fill-opacity="1" stroke="none" transform="matrix(1,0,0,1,-4083.64,-1693.31)" font-family="Sans" font-size="152.778" font-weight="400" font-style="normal">
<n1:rect x="4343.31" y="1843.9" width="15.748" height="35.4331"/>
</n1:g>

<n1:g fill="#ff0000" fill-opacity="1" stroke="none" transform="matrix(1,0,0,1,-4083.64,-1693.31)" font-family="Sans" font-size="152.778" font-weight="400" font-style="normal">
<n1:rect x="4292.13" y="1843.9" width="15.748" height="35.4331"/>
</n1:g>

<n1:g fill="#ff0000" fill-opacity="1" stroke="none" transform="matrix(1,0,0,1,-4083.64,-1693.31)" font-family="Sans" font-size="152.778" font-weight="400" font-style="normal">
<n1:rect x="4368.9" y="2007.28" width="15.748" height="35.4331"/>
</n1:g>

<n1:g fill="#ff0000" fill-opacity="1" stroke="none" transform="matrix(1,0,0,1,-4083.64,-1693.31)" font-family="Sans" font-size="152.778" font-weight="400" font-style="normal">
<n1:rect x="4343.31" y="2007.28" width="15.748" height="35.4331"/>
</n1:g>

<n1:g fill="none" stroke="#f0f000" stroke-opacity="1" stroke-width="10" stroke-linecap="round" stroke-linejoin="bevel" transform="matrix(1,0,0,1,-4083.64,-1693.31)" font-family="Sans" font-size="152.778" font-weight="400" font-style="normal">
<n1:path vector-effect="none" fill-rule="evenodd" d="M4262.99,1967.32 C4276.8,1967.32 4287.99,1956.13 4287.99,1942.32 C4287.99,1928.52 4276.8,1917.32 4262.99,1917.32 "/>
<n1:polyline fill="none" vector-effect="none" points="4262.99,1883.27 4263,1914 "/>
<n1:polyline fill="none" vector-effect="none" points="4263,2002 4263,1973.82 "/>
<n1:polyline fill="none" vector-effect="none" points="4404.33,2002 4263,2002 "/>
<n1:polyline fill="none" vector-effect="none" points="4404.33,1883.27 4404.33,2002 "/>
<n1:polyline fill="none" vector-effect="none" points="4262.99,1883.27 4404.33,1883.27 "/>
</n1:g>
</n1:g>
</svg>
