<?xml version="1.0" encoding="UTF-8"?>
<svg width="12.7mm" height="12.7mm" viewBox="0 0 500 500" version="1.2" baseProfile="tiny" xmlns:n1="http://www.w3.org/2000/svg" xmlns:xlink="http://www.w3.org/1999/xlink" xmlns:cpcb="http://www.danielwagenaar.net/cpcb-ns.html">
  <cpcb:part pkg="MSOP-10" xmlns="http://www.danielwagenaar.net/cpcb-ns.html">
    <group ref="U?" pkg="MSOP-10">
      <pad p="57150 325800" w="3000" h="9000" l="2" ref="2"/>
      <pad p="52150 325800" w="3000" h="9000" l="2" ref="1"/>
      <arc p="42750 304800" r="6350" lw="2540" l="1" ang="180" rota="0"/>
      <trace p1="42750 289800" p2="42752 297606" w="2540" l="1"/>
      <trace p1="42752 319958" p2="42752 312800" w="2540" l="1"/>
      <trace p1="78650 319958" p2="42752 319958" w="2540" l="1"/>
      <trace p1="78650 289800" p2="78650 319958" w="2540" l="1"/>
      <trace p1="42750 289800" p2="78650 289800" w="2540" l="1"/>
      <pad p="67150 282800" w="3000" h="9000" l="2" ref="7"/>
      <pad p="57150 282800" w="3000" h="9000" l="2" ref="9"/>
      <pad p="62150 282800" w="3000" h="9000" l="2" ref="8"/>
      <pad p="52150 282800" w="3000" h="9000" l="2" ref="10"/>
      <pad p="67150 325800" w="3000" h="9000" l="2" ref="4"/>
      <pad p="62150 325800" w="3000" h="9000" l="2" ref="3"/>
      <pad p="72150 325800" w="3000" h="9000" l="2" ref="5"/>
      <pad p="72150 282800" w="3000" h="9000" l="2" ref="6"/>
    </group>
    <text p="31911 314385" fs="12700" l="1" rot="270" text="U?"/>
  </cpcb:part>
<n1:title>PCB Component</n1:title>
<n1:desc>Generated by CPCB</n1:desc>
<n1:defs>
</n1:defs>
<n1:g fill="none" stroke="black" stroke-width="1" fill-rule="evenodd" stroke-linecap="square" stroke-linejoin="bevel">

<n1:g fill="#000000" fill-opacity="1" stroke="none" transform="matrix(1,0,0,1,11.0433,-948.031)" font-family="Sans" font-size="152.778" font-weight="400" font-style="normal">
<n1:rect x="-11.0433" y="948.031" width="500" height="500"/>
</n1:g>

<n1:g fill="#ff0000" fill-opacity="1" stroke="none" transform="matrix(1,0,0,1,11.0433,-948.031)" font-family="Sans" font-size="152.778" font-weight="400" font-style="normal">
<n1:rect x="219.094" y="1264.96" width="11.811" height="35.4331"/>
</n1:g>

<n1:g fill="#ff0000" fill-opacity="1" stroke="none" transform="matrix(1,0,0,1,11.0433,-948.031)" font-family="Sans" font-size="152.778" font-weight="400" font-style="normal">
<n1:rect x="199.409" y="1264.96" width="11.811" height="35.4331"/>
</n1:g>

<n1:g fill="#ff0000" fill-opacity="1" stroke="none" transform="matrix(1,0,0,1,11.0433,-948.031)" font-family="Sans" font-size="152.778" font-weight="400" font-style="normal">
<n1:rect x="258.465" y="1095.67" width="11.811" height="35.4331"/>
</n1:g>

<n1:g fill="#ff0000" fill-opacity="1" stroke="none" transform="matrix(1,0,0,1,11.0433,-948.031)" font-family="Sans" font-size="152.778" font-weight="400" font-style="normal">
<n1:rect x="219.094" y="1095.67" width="11.811" height="35.4331"/>
</n1:g>

<n1:g fill="#ff0000" fill-opacity="1" stroke="none" transform="matrix(1,0,0,1,11.0433,-948.031)" font-family="Sans" font-size="152.778" font-weight="400" font-style="normal">
<n1:rect x="238.78" y="1095.67" width="11.811" height="35.4331"/>
</n1:g>

<n1:g fill="#ff0000" fill-opacity="1" stroke="none" transform="matrix(1,0,0,1,11.0433,-948.031)" font-family="Sans" font-size="152.778" font-weight="400" font-style="normal">
<n1:rect x="199.409" y="1095.67" width="11.811" height="35.4331"/>
</n1:g>

<n1:g fill="#ff0000" fill-opacity="1" stroke="none" transform="matrix(1,0,0,1,11.0433,-948.031)" font-family="Sans" font-size="152.778" font-weight="400" font-style="normal">
<n1:rect x="258.465" y="1264.96" width="11.811" height="35.4331"/>
</n1:g>

<n1:g fill="#ff0000" fill-opacity="1" stroke="none" transform="matrix(1,0,0,1,11.0433,-948.031)" font-family="Sans" font-size="152.778" font-weight="400" font-style="normal">
<n1:rect x="238.78" y="1264.96" width="11.811" height="35.4331"/>
</n1:g>

<n1:g fill="#ff0000" fill-opacity="1" stroke="none" transform="matrix(1,0,0,1,11.0433,-948.031)" font-family="Sans" font-size="152.778" font-weight="400" font-style="normal">
<n1:rect x="278.15" y="1264.96" width="11.811" height="35.4331"/>
</n1:g>

<n1:g fill="#ff0000" fill-opacity="1" stroke="none" transform="matrix(1,0,0,1,11.0433,-948.031)" font-family="Sans" font-size="152.778" font-weight="400" font-style="normal">
<n1:rect x="278.15" y="1095.67" width="11.811" height="35.4331"/>
</n1:g>

<n1:g fill="none" stroke="#f0f000" stroke-opacity="1" stroke-width="10" stroke-linecap="round" stroke-linejoin="bevel" transform="matrix(1,0,0,1,11.0433,-948.031)" font-family="Sans" font-size="152.778" font-weight="400" font-style="normal">
<n1:path vector-effect="none" fill-rule="evenodd" d="M168.307,1225 C182.114,1225 193.307,1213.81 193.307,1200 C193.307,1186.19 182.114,1175 168.307,1175 "/>
<n1:polyline fill="none" vector-effect="none" points="168.307,1140.94 168.315,1171.68 "/>
<n1:polyline fill="none" vector-effect="none" points="168.315,1259.68 168.315,1231.5 "/>
<n1:polyline fill="none" vector-effect="none" points="309.646,1259.68 168.315,1259.68 "/>
<n1:polyline fill="none" vector-effect="none" points="309.646,1140.94 309.646,1259.68 "/>
<n1:polyline fill="none" vector-effect="none" points="168.307,1140.94 309.646,1140.94 "/>
</n1:g>
</n1:g>
</svg>
