<?xml version="1.0" encoding="UTF-8"?>
<svg width="12.7mm" height="12.7mm" viewBox="0 0 500 500" version="1.2" baseProfile="tiny" xmlns:n1="http://www.w3.org/2000/svg" xmlns:xlink="http://www.w3.org/1999/xlink" xmlns:cpcb="http://www.danielwagenaar.net/cpcb-ns.html">
  <cpcb:part pkg="MSSOP-10" xmlns="http://www.danielwagenaar.net/cpcb-ns.html">
    <group ref="U?" pkg="MSSOP-10">
      <pad p="-44450 565150" w="3000" h="12000" l="2" ref="1"/>
      <trace p1="-19450 529150" p2="-49450 529150" w="2540" l="1"/>
      <trace p1="-19450 557150" p2="-19450 529150" w="2540" l="1"/>
      <trace p1="-49450 557150" p2="-19450 557150" w="2540" l="1"/>
      <trace p1="-49450 529150" p2="-49450 557150" w="2540" l="1"/>
      <pad p="-44450 521150" w="3000" h="12000" l="2" ref="10"/>
      <pad p="-39450 521150" w="3000" h="12000" l="2" ref="9"/>
      <pad p="-29450 521150" w="3000" h="12000" l="2" ref="7"/>
      <pad p="-34450 521150" w="3000" h="12000" l="2" ref="8"/>
      <pad p="-24450 521150" w="3000" h="12000" l="2" ref="6"/>
      <pad p="-24450 565150" w="3000" h="12000" l="2" ref="5"/>
      <pad p="-34450 565150" w="3000" h="12000" l="2" ref="3"/>
      <pad p="-29450 565150" w="3000" h="12000" l="2" ref="4"/>
      <pad p="-39450 565150" w="3000" h="12000" l="2" ref="2"/>
      <text p="-50000 542000" fs="20000" l="1" rot="0" text="."/>
    </group>
    <text p="-50720 486200" fs="12700" l="1" rot="0" text="U?"/>
  </cpcb:part>
<n1:title>PCB Component</n1:title>
<n1:desc>Generated by CPCB</n1:desc>
<n1:defs>
</n1:defs>
<n1:g fill="none" stroke="black" stroke-width="1" fill-rule="evenodd" stroke-linecap="square" stroke-linejoin="bevel">

<n1:g fill="#000000" fill-opacity="1" stroke="none" transform="matrix(1,0,0,1,385.63,-1888.39)" font-family="Sans" font-size="125" font-weight="400" font-style="normal">
<n1:rect x="-385.63" y="1888.39" width="500" height="500"/>
</n1:g>

<n1:g fill="#ff0000" fill-opacity="1" stroke="none" transform="matrix(1,0,0,1,385.63,-1888.39)" font-family="Sans" font-size="125" font-weight="400" font-style="normal">
<n1:rect x="-180.906" y="2201.38" width="11.811" height="47.2441"/>
</n1:g>

<n1:g fill="#ff0000" fill-opacity="1" stroke="none" transform="matrix(1,0,0,1,385.63,-1888.39)" font-family="Sans" font-size="125" font-weight="400" font-style="normal">
<n1:rect x="-180.906" y="2028.15" width="11.811" height="47.2441"/>
</n1:g>

<n1:g fill="#ff0000" fill-opacity="1" stroke="none" transform="matrix(1,0,0,1,385.63,-1888.39)" font-family="Sans" font-size="125" font-weight="400" font-style="normal">
<n1:rect x="-161.22" y="2028.15" width="11.811" height="47.2441"/>
</n1:g>

<n1:g fill="#ff0000" fill-opacity="1" stroke="none" transform="matrix(1,0,0,1,385.63,-1888.39)" font-family="Sans" font-size="125" font-weight="400" font-style="normal">
<n1:rect x="-121.85" y="2028.15" width="11.811" height="47.2441"/>
</n1:g>

<n1:g fill="#ff0000" fill-opacity="1" stroke="none" transform="matrix(1,0,0,1,385.63,-1888.39)" font-family="Sans" font-size="125" font-weight="400" font-style="normal">
<n1:rect x="-141.535" y="2028.15" width="11.811" height="47.2441"/>
</n1:g>

<n1:g fill="#ff0000" fill-opacity="1" stroke="none" transform="matrix(1,0,0,1,385.63,-1888.39)" font-family="Sans" font-size="125" font-weight="400" font-style="normal">
<n1:rect x="-102.165" y="2028.15" width="11.811" height="47.2441"/>
</n1:g>

<n1:g fill="#ff0000" fill-opacity="1" stroke="none" transform="matrix(1,0,0,1,385.63,-1888.39)" font-family="Sans" font-size="125" font-weight="400" font-style="normal">
<n1:rect x="-102.165" y="2201.38" width="11.811" height="47.2441"/>
</n1:g>

<n1:g fill="#ff0000" fill-opacity="1" stroke="none" transform="matrix(1,0,0,1,385.63,-1888.39)" font-family="Sans" font-size="125" font-weight="400" font-style="normal">
<n1:rect x="-141.535" y="2201.38" width="11.811" height="47.2441"/>
</n1:g>

<n1:g fill="#ff0000" fill-opacity="1" stroke="none" transform="matrix(1,0,0,1,385.63,-1888.39)" font-family="Sans" font-size="125" font-weight="400" font-style="normal">
<n1:rect x="-121.85" y="2201.38" width="11.811" height="47.2441"/>
</n1:g>

<n1:g fill="#ff0000" fill-opacity="1" stroke="none" transform="matrix(1,0,0,1,385.63,-1888.39)" font-family="Sans" font-size="125" font-weight="400" font-style="normal">
<n1:rect x="-161.22" y="2201.38" width="11.811" height="47.2441"/>
</n1:g>

<n1:g fill="#ff0000" fill-opacity="1" stroke="#f0f000" stroke-opacity="1" stroke-width="10" stroke-linecap="round" stroke-linejoin="bevel" transform="matrix(1,0,0,1,385.63,-1888.39)" font-family="Sans" font-size="125" font-weight="400" font-style="normal">
<n1:polyline fill="none" vector-effect="none" points="-76.5748,2083.27 -194.685,2083.27 "/>
<n1:polyline fill="none" vector-effect="none" points="-76.5748,2193.5 -76.5748,2083.27 "/>
<n1:polyline fill="none" vector-effect="none" points="-194.685,2193.5 -76.5748,2193.5 "/>
<n1:polyline fill="none" vector-effect="none" points="-194.685,2083.27 -194.685,2193.5 "/>
</n1:g>

<n1:g fill="#ff0000" fill-opacity="1" stroke="#f0f000" stroke-opacity="1" stroke-width="3" stroke-linecap="round" stroke-linejoin="round" transform="matrix(3.93701,0,0,-3.93701,188.78,245.472)" font-family="Sans" font-size="125" font-weight="400" font-style="normal">
</n1:g>

<n1:g fill="#f0f000" fill-opacity="1" stroke="none" transform="matrix(3.93701,0,0,-3.93701,188.78,245.472)" font-family="Sans" font-size="125" font-weight="400" font-style="normal">
<n1:circle cx="6" cy="-10" r="1.5"/>
</n1:g>

<n1:g fill="#ff0000" fill-opacity="1" stroke="#f0f000" stroke-opacity="1" stroke-width="3" stroke-linecap="round" stroke-linejoin="round" transform="matrix(3.93701,0,0,-3.93701,188.78,245.472)" font-family="Sans" font-size="125" font-weight="400" font-style="normal">
</n1:g>

<n1:g fill="#ff0000" fill-opacity="1" stroke="#f0f000" stroke-opacity="1" stroke-width="10" stroke-linecap="round" stroke-linejoin="bevel" transform="matrix(1,0,0,1,385.63,-1888.39)" font-family="Sans" font-size="125" font-weight="400" font-style="normal">
</n1:g>
</n1:g>
</svg>
