<?xml version="1.0" encoding="UTF-8"?>
<svg width="12.7mm" height="12.7mm" viewBox="0 0 500 500" version="1.2" baseProfile="tiny" xmlns:n1="http://www.w3.org/2000/svg" xmlns:xlink="http://www.w3.org/1999/xlink" xmlns:cpcb="http://www.danielwagenaar.net/cpcb-ns.html">
  <cpcb:part pkg="SMD-4" xmlns="http://www.danielwagenaar.net/cpcb-ns.html">
    <group ref="U?" pkg="SMD-4">
      <trace p1="342900 388570" p2="342900 445720" w="2540" l="1"/>
      <trace p1="342900 445720" p2="292100 445720" w="2540" l="1"/>
      <pad p="304800 457200" w="12000" h="20000" l="2" ref="1"/>
      <trace p1="292100 388570" p2="342900 388570" w="2540" l="1"/>
      <arc p="293142 417018" r="8255" lw="2540" l="1" ang="180" rota="0"/>
      <trace p1="292100 445720" p2="292100 426670" w="2540" l="1"/>
      <trace p1="292100 388570" p2="292100 407620" w="2540" l="1"/>
      <pad p="330200 377200" w="12000" h="20000" l="2" ref="3"/>
      <pad p="330200 457200" w="12000" h="20000" l="2" ref="2"/>
      <pad p="304800 377200" w="12000" h="20000" l="2" ref="4"/>
    </group>
    <text p="290830 354500" fs="12700" l="1" rot="0" text="U?"/>
  </cpcb:part>
<n1:title>PCB Component</n1:title>
<n1:desc>Generated by CPCB</n1:desc>
<n1:defs>
</n1:defs>
<n1:g fill="none" stroke="black" stroke-width="1" fill-rule="evenodd" stroke-linecap="square" stroke-linejoin="bevel">

<n1:g fill="#000000" fill-opacity="1" stroke="none" transform="matrix(1,0,0,1,-1000,-1392.52)" font-family="Sans" font-size="152.778" font-weight="400" font-style="normal">
<n1:rect x="1000" y="1392.52" width="500" height="500"/>
</n1:g>

<n1:g fill="#ff0000" fill-opacity="1" stroke="none" transform="matrix(1,0,0,1,-1000,-1392.52)" font-family="Sans" font-size="152.778" font-weight="400" font-style="normal">
<n1:rect x="1176.38" y="1760.63" width="47.2441" height="78.7402"/>
</n1:g>

<n1:g fill="#ff0000" fill-opacity="1" stroke="none" transform="matrix(1,0,0,1,-1000,-1392.52)" font-family="Sans" font-size="152.778" font-weight="400" font-style="normal">
<n1:rect x="1276.38" y="1445.67" width="47.2441" height="78.7402"/>
</n1:g>

<n1:g fill="#ff0000" fill-opacity="1" stroke="none" transform="matrix(1,0,0,1,-1000,-1392.52)" font-family="Sans" font-size="152.778" font-weight="400" font-style="normal">
<n1:rect x="1276.38" y="1760.63" width="47.2441" height="78.7402"/>
</n1:g>

<n1:g fill="#ff0000" fill-opacity="1" stroke="none" transform="matrix(1,0,0,1,-1000,-1392.52)" font-family="Sans" font-size="152.778" font-weight="400" font-style="normal">
<n1:rect x="1176.38" y="1445.67" width="47.2441" height="78.7402"/>
</n1:g>

<n1:g fill="#ff0000" fill-opacity="1" stroke="#f0f000" stroke-opacity="1" stroke-width="10" stroke-linecap="round" stroke-linejoin="bevel" transform="matrix(1,0,0,1,-1000,-1392.52)" font-family="Sans" font-size="152.778" font-weight="400" font-style="normal">
<n1:polyline fill="none" vector-effect="none" points="1350,1529.8 1350,1754.8 "/>
<n1:polyline fill="none" vector-effect="none" points="1350,1754.8 1150,1754.8 "/>
<n1:polyline fill="none" vector-effect="none" points="1150,1529.8 1350,1529.8 "/>
</n1:g>

<n1:g fill="none" stroke="#f0f000" stroke-opacity="1" stroke-width="10" stroke-linecap="round" stroke-linejoin="bevel" transform="matrix(1,0,0,1,-1000,-1392.52)" font-family="Sans" font-size="152.778" font-weight="400" font-style="normal">
<n1:path vector-effect="none" fill-rule="evenodd" d="M1154.1,1674.3 C1172.05,1674.3 1186.6,1659.75 1186.6,1641.8 C1186.6,1623.85 1172.05,1609.3 1154.1,1609.3 "/>
<n1:polyline fill="none" vector-effect="none" points="1150,1754.8 1150,1679.8 "/>
<n1:polyline fill="none" vector-effect="none" points="1150,1529.8 1150,1604.8 "/>
</n1:g>
</n1:g>
</svg>
