<?xml version="1.0" encoding="UTF-8"?>
<svg width="12.7mm" height="12.7mm" viewBox="0 0 500 500" version="1.2" baseProfile="tiny" xmlns:n1="http://www.w3.org/2000/svg" xmlns:xlink="http://www.w3.org/1999/xlink" xmlns:cpcb="http://www.danielwagenaar.net/cpcb-ns.html">
  <cpcb:part pkg="SOIC-8-Powerpad" xmlns="http://www.danielwagenaar.net/cpcb-ns.html">
    <group ref="A?">
      <pad p="700500 508000" w="15500" h="6000" l="2" ref="2" ell="1"/>
      <pad p="700500 520700" w="15500" h="6000" l="2" ref="1" ell="1"/>
      <arc p="673100 530100" r="6350" lw="2540" l="1" ang="180" rota="270"/>
      <trace p1="634500 530100" p2="666800 530100" w="2540" l="1"/>
      <trace p1="713100 530100" p2="679400 530100" w="2540" l="1"/>
      <hole p="679450 482600" id="2000" od="8890" via="1" ref="X?"/>
      <trace p1="713100 474200" p2="713100 530100" w="2540" l="1"/>
      <trace p1="634500 474200" p2="713100 474200" w="2540" l="1"/>
      <trace p1="634500 530100" p2="634500 474200" w="2540" l="1"/>
      <pad p="646500 482600" w="15500" h="6000" l="2" ref="5" ell="1"/>
      <pad p="646500 508000" w="15500" h="6000" l="2" ref="7" ell="1"/>
      <pad p="646500 495300" w="15500" h="6000" l="2" ref="6" ell="1"/>
      <pad p="646500 520700" w="15500" h="6000" l="2" ref="8" ell="1"/>
      <pad p="700500 482600" w="15500" h="6000" l="2" ref="4" ell="1"/>
      <pad p="700500 495300" w="15500" h="6000" l="2" ref="3" ell="1"/>
      <pad p="673100 501650" w="63500" h="45000" l="3" ref="" ell="1"/>
      <hole p="679450 495300" id="2000" od="8890" via="1" ref="X32"/>
      <pad p="673100 501650" w="25000" h="45000" l="2" ref="" ell="1"/>
      <hole p="679450 520700" id="2000" od="8890" via="1" ref="X34"/>
      <hole p="679450 508000" id="2000" od="8890" via="1" ref="X33"/>
      <hole p="666750 495300" id="2000" od="8890" via="1" ref="X36"/>
      <hole p="666750 482600" id="2000" od="8890" via="1" ref="X35"/>
      <hole p="666750 520700" id="2000" od="8890" via="1" ref="X38"/>
      <hole p="666750 508000" id="2000" od="8890" via="1" ref="X37"/>
    </group>
    <text p="633230 460230" fs="12700" l="1" rot="0" text="A?"/>
  </cpcb:part>
<n1:title>PCB Component</n1:title>
<n1:desc>Generated by CPCB</n1:desc>
<n1:defs>
<n1:mask id="patternmask4" x="0" y="0" width="8" height="8" stroke="none" fill="#ffffff" patternUnits="userSpaceOnUse">
<n1:rect x="0" y="0" width="1" height="1"/>
<n1:rect x="2" y="0" width="1" height="1"/>
<n1:rect x="4" y="0" width="1" height="1"/>
<n1:rect x="6" y="0" width="1" height="1"/>
<n1:rect x="0" y="1" width="2" height="1"/>
<n1:rect x="3" y="1" width="3" height="1"/>
<n1:rect x="7" y="1" width="1" height="1"/>
<n1:rect x="0" y="2" width="1" height="1"/>
<n1:rect x="2" y="2" width="1" height="1"/>
<n1:rect x="4" y="2" width="1" height="1"/>
<n1:rect x="6" y="2" width="1" height="1"/>
<n1:rect x="1" y="3" width="3" height="1"/>
<n1:rect x="5" y="3" width="3" height="1"/>
<n1:rect x="0" y="4" width="1" height="1"/>
<n1:rect x="2" y="4" width="1" height="1"/>
<n1:rect x="4" y="4" width="1" height="1"/>
<n1:rect x="6" y="4" width="1" height="1"/>
<n1:rect x="0" y="5" width="2" height="1"/>
<n1:rect x="3" y="5" width="3" height="1"/>
<n1:rect x="7" y="5" width="1" height="1"/>
<n1:rect x="0" y="6" width="1" height="1"/>
<n1:rect x="2" y="6" width="1" height="1"/>
<n1:rect x="4" y="6" width="1" height="1"/>
<n1:rect x="6" y="6" width="1" height="1"/>
<n1:rect x="1" y="7" width="3" height="1"/>
<n1:rect x="5" y="7" width="3" height="1"/>
</n1:mask>

<n1:pattern id="fillpattern4_00b400" x="0" y="0" width="8" height="8" patternUnits="userSpaceOnUse">
<n1:rect x="0" y="0" width="8" height="8" stroke="none" fill="#00b400" mask="url(#patternmask4);"/>
</n1:pattern>

<n1:mask id="patternmask6" x="0" y="0" width="8" height="8" stroke="none" fill="#ffffff" patternUnits="userSpaceOnUse">
<n1:rect x="1" y="0" width="1" height="1"/>
<n1:rect x="3" y="0" width="1" height="1"/>
<n1:rect x="5" y="0" width="1" height="1"/>
<n1:rect x="7" y="0" width="1" height="1"/>
<n1:rect x="2" y="1" width="1" height="1"/>
<n1:rect x="6" y="1" width="1" height="1"/>
<n1:rect x="1" y="2" width="1" height="1"/>
<n1:rect x="3" y="2" width="1" height="1"/>
<n1:rect x="5" y="2" width="1" height="1"/>
<n1:rect x="7" y="2" width="1" height="1"/>
<n1:rect x="0" y="3" width="1" height="1"/>
<n1:rect x="4" y="3" width="1" height="1"/>
<n1:rect x="1" y="4" width="1" height="1"/>
<n1:rect x="3" y="4" width="1" height="1"/>
<n1:rect x="5" y="4" width="1" height="1"/>
<n1:rect x="7" y="4" width="1" height="1"/>
<n1:rect x="2" y="5" width="1" height="1"/>
<n1:rect x="6" y="5" width="1" height="1"/>
<n1:rect x="1" y="6" width="1" height="1"/>
<n1:rect x="3" y="6" width="1" height="1"/>
<n1:rect x="5" y="6" width="1" height="1"/>
<n1:rect x="7" y="6" width="1" height="1"/>
<n1:rect x="0" y="7" width="1" height="1"/>
<n1:rect x="4" y="7" width="1" height="1"/>
</n1:mask>

<n1:pattern id="fillpattern6_ff0000" x="0" y="0" width="8" height="8" patternUnits="userSpaceOnUse">
<n1:rect x="0" y="0" width="8" height="8" stroke="none" fill="#ff0000" mask="url(#patternmask6);"/>
</n1:pattern>

</n1:defs>
<n1:g fill="none" stroke="black" stroke-width="1" fill-rule="evenodd" stroke-linecap="square" stroke-linejoin="bevel">

<n1:g fill="#000000" fill-opacity="1" stroke="none" transform="matrix(1,0,0,1,-2402.76,-1726.99)" font-family="Sans" font-size="152.778" font-weight="400" font-style="normal">
<n1:rect x="2402.76" y="1726.99" width="500" height="500"/>
</n1:g>

<n1:g fill="url(#fillpattern4_00b400)" fill-opacity="1" stroke="none" transform="matrix(1,0,0,1,-2402.76,-1726.99)" font-family="Sans" font-size="152.778" font-weight="400" font-style="normal">
<n1:circle cx="2675" cy="1900" r="17.5"/>
</n1:g>

<n1:g fill="#00b400" fill-opacity="1" stroke="none" transform="matrix(1,0,0,1,-2402.76,-1726.99)" font-family="Sans" font-size="152.778" font-weight="400" font-style="normal">
<n1:rect x="2525" y="1886.42" width="250" height="177.165"/>
</n1:g>

<n1:g fill="url(#fillpattern4_00b400)" fill-opacity="1" stroke="none" transform="matrix(1,0,0,1,-2402.76,-1726.99)" font-family="Sans" font-size="152.778" font-weight="400" font-style="normal">
<n1:circle cx="2675" cy="1950" r="17.5"/>
</n1:g>

<n1:g fill="url(#fillpattern4_00b400)" fill-opacity="1" stroke="none" transform="matrix(1,0,0,1,-2402.76,-1726.99)" font-family="Sans" font-size="152.778" font-weight="400" font-style="normal">
<n1:circle cx="2675" cy="2050" r="17.5"/>
</n1:g>

<n1:g fill="url(#fillpattern4_00b400)" fill-opacity="1" stroke="none" transform="matrix(1,0,0,1,-2402.76,-1726.99)" font-family="Sans" font-size="152.778" font-weight="400" font-style="normal">
<n1:circle cx="2675" cy="2000" r="17.5"/>
</n1:g>

<n1:g fill="url(#fillpattern4_00b400)" fill-opacity="1" stroke="none" transform="matrix(1,0,0,1,-2402.76,-1726.99)" font-family="Sans" font-size="152.778" font-weight="400" font-style="normal">
<n1:circle cx="2625" cy="1950" r="17.5"/>
</n1:g>

<n1:g fill="url(#fillpattern4_00b400)" fill-opacity="1" stroke="none" transform="matrix(1,0,0,1,-2402.76,-1726.99)" font-family="Sans" font-size="152.778" font-weight="400" font-style="normal">
<n1:circle cx="2625" cy="1900" r="17.5"/>
</n1:g>

<n1:g fill="url(#fillpattern4_00b400)" fill-opacity="1" stroke="none" transform="matrix(1,0,0,1,-2402.76,-1726.99)" font-family="Sans" font-size="152.778" font-weight="400" font-style="normal">
<n1:circle cx="2625" cy="2050" r="17.5"/>
</n1:g>

<n1:g fill="url(#fillpattern4_00b400)" fill-opacity="1" stroke="none" transform="matrix(1,0,0,1,-2402.76,-1726.99)" font-family="Sans" font-size="152.778" font-weight="400" font-style="normal">
<n1:circle cx="2625" cy="2000" r="17.5"/>
</n1:g>

<n1:g fill="#ff0000" fill-opacity="1" stroke="none" transform="matrix(1,0,0,1,-2402.76,-1726.99)" font-family="Sans" font-size="152.778" font-weight="400" font-style="normal">
<n1:rect x="2727.36" y="1988.19" width="61.0236" height="23.622"/>
</n1:g>

<n1:g fill="#ff0000" fill-opacity="1" stroke="none" transform="matrix(1,0,0,1,-2402.76,-1726.99)" font-family="Sans" font-size="152.778" font-weight="400" font-style="normal">
<n1:rect x="2727.36" y="2038.19" width="61.0236" height="23.622"/>
</n1:g>

<n1:g fill="url(#fillpattern6_ff0000)" fill-opacity="1" stroke="none" transform="matrix(1,0,0,1,-2402.76,-1726.99)" font-family="Sans" font-size="152.778" font-weight="400" font-style="normal">
<n1:circle cx="2675" cy="1900" r="17.5"/>
</n1:g>

<n1:g fill="#ff0000" fill-opacity="1" stroke="none" transform="matrix(1,0,0,1,-2402.76,-1726.99)" font-family="Sans" font-size="152.778" font-weight="400" font-style="normal">
<n1:rect x="2514.76" y="1888.19" width="61.0236" height="23.622"/>
</n1:g>

<n1:g fill="#ff0000" fill-opacity="1" stroke="none" transform="matrix(1,0,0,1,-2402.76,-1726.99)" font-family="Sans" font-size="152.778" font-weight="400" font-style="normal">
<n1:rect x="2514.76" y="1988.19" width="61.0236" height="23.622"/>
</n1:g>

<n1:g fill="#ff0000" fill-opacity="1" stroke="none" transform="matrix(1,0,0,1,-2402.76,-1726.99)" font-family="Sans" font-size="152.778" font-weight="400" font-style="normal">
<n1:rect x="2514.76" y="1938.19" width="61.0236" height="23.622"/>
</n1:g>

<n1:g fill="#ff0000" fill-opacity="1" stroke="none" transform="matrix(1,0,0,1,-2402.76,-1726.99)" font-family="Sans" font-size="152.778" font-weight="400" font-style="normal">
<n1:rect x="2514.76" y="2038.19" width="61.0236" height="23.622"/>
</n1:g>

<n1:g fill="#ff0000" fill-opacity="1" stroke="none" transform="matrix(1,0,0,1,-2402.76,-1726.99)" font-family="Sans" font-size="152.778" font-weight="400" font-style="normal">
<n1:rect x="2727.36" y="1888.19" width="61.0236" height="23.622"/>
</n1:g>

<n1:g fill="#ff0000" fill-opacity="1" stroke="none" transform="matrix(1,0,0,1,-2402.76,-1726.99)" font-family="Sans" font-size="152.778" font-weight="400" font-style="normal">
<n1:rect x="2727.36" y="1938.19" width="61.0236" height="23.622"/>
</n1:g>

<n1:g fill="url(#fillpattern6_ff0000)" fill-opacity="1" stroke="none" transform="matrix(1,0,0,1,-2402.76,-1726.99)" font-family="Sans" font-size="152.778" font-weight="400" font-style="normal">
<n1:circle cx="2675" cy="1950" r="17.5"/>
</n1:g>

<n1:g fill="#ff0000" fill-opacity="1" stroke="none" transform="matrix(1,0,0,1,-2402.76,-1726.99)" font-family="Sans" font-size="152.778" font-weight="400" font-style="normal">
<n1:rect x="2600.79" y="1886.42" width="98.4252" height="177.165"/>
</n1:g>

<n1:g fill="url(#fillpattern6_ff0000)" fill-opacity="1" stroke="none" transform="matrix(1,0,0,1,-2402.76,-1726.99)" font-family="Sans" font-size="152.778" font-weight="400" font-style="normal">
<n1:circle cx="2675" cy="2050" r="17.5"/>
</n1:g>

<n1:g fill="url(#fillpattern6_ff0000)" fill-opacity="1" stroke="none" transform="matrix(1,0,0,1,-2402.76,-1726.99)" font-family="Sans" font-size="152.778" font-weight="400" font-style="normal">
<n1:circle cx="2675" cy="2000" r="17.5"/>
</n1:g>

<n1:g fill="url(#fillpattern6_ff0000)" fill-opacity="1" stroke="none" transform="matrix(1,0,0,1,-2402.76,-1726.99)" font-family="Sans" font-size="152.778" font-weight="400" font-style="normal">
<n1:circle cx="2625" cy="1950" r="17.5"/>
</n1:g>

<n1:g fill="url(#fillpattern6_ff0000)" fill-opacity="1" stroke="none" transform="matrix(1,0,0,1,-2402.76,-1726.99)" font-family="Sans" font-size="152.778" font-weight="400" font-style="normal">
<n1:circle cx="2625" cy="1900" r="17.5"/>
</n1:g>

<n1:g fill="url(#fillpattern6_ff0000)" fill-opacity="1" stroke="none" transform="matrix(1,0,0,1,-2402.76,-1726.99)" font-family="Sans" font-size="152.778" font-weight="400" font-style="normal">
<n1:circle cx="2625" cy="2050" r="17.5"/>
</n1:g>

<n1:g fill="url(#fillpattern6_ff0000)" fill-opacity="1" stroke="none" transform="matrix(1,0,0,1,-2402.76,-1726.99)" font-family="Sans" font-size="152.778" font-weight="400" font-style="normal">
<n1:circle cx="2625" cy="2000" r="17.5"/>
</n1:g>

<n1:g fill="#ffffff" fill-opacity="1" stroke="none" transform="matrix(1,0,0,1,-2402.76,-1726.99)" font-family="Sans" font-size="152.778" font-weight="400" font-style="normal">
<n1:circle cx="2675" cy="1900" r="3.93701"/>
</n1:g>

<n1:g fill="#ffffff" fill-opacity="1" stroke="none" transform="matrix(1,0,0,1,-2402.76,-1726.99)" font-family="Sans" font-size="152.778" font-weight="400" font-style="normal">
<n1:circle cx="2675" cy="1950" r="3.93701"/>
</n1:g>

<n1:g fill="#ffffff" fill-opacity="1" stroke="none" transform="matrix(1,0,0,1,-2402.76,-1726.99)" font-family="Sans" font-size="152.778" font-weight="400" font-style="normal">
<n1:circle cx="2675" cy="2050" r="3.93701"/>
</n1:g>

<n1:g fill="#ffffff" fill-opacity="1" stroke="none" transform="matrix(1,0,0,1,-2402.76,-1726.99)" font-family="Sans" font-size="152.778" font-weight="400" font-style="normal">
<n1:circle cx="2675" cy="2000" r="3.93701"/>
</n1:g>

<n1:g fill="#ffffff" fill-opacity="1" stroke="none" transform="matrix(1,0,0,1,-2402.76,-1726.99)" font-family="Sans" font-size="152.778" font-weight="400" font-style="normal">
<n1:circle cx="2625" cy="1950" r="3.93701"/>
</n1:g>

<n1:g fill="#ffffff" fill-opacity="1" stroke="none" transform="matrix(1,0,0,1,-2402.76,-1726.99)" font-family="Sans" font-size="152.778" font-weight="400" font-style="normal">
<n1:circle cx="2625" cy="1900" r="3.93701"/>
</n1:g>

<n1:g fill="#ffffff" fill-opacity="1" stroke="none" transform="matrix(1,0,0,1,-2402.76,-1726.99)" font-family="Sans" font-size="152.778" font-weight="400" font-style="normal">
<n1:circle cx="2625" cy="2050" r="3.93701"/>
</n1:g>

<n1:g fill="#ffffff" fill-opacity="1" stroke="none" transform="matrix(1,0,0,1,-2402.76,-1726.99)" font-family="Sans" font-size="152.778" font-weight="400" font-style="normal">
<n1:circle cx="2625" cy="2000" r="3.93701"/>
</n1:g>

<n1:g fill="none" stroke="#f0f000" stroke-opacity="1" stroke-width="10" stroke-linecap="round" stroke-linejoin="bevel" transform="matrix(1,0,0,1,-2402.76,-1726.99)" font-family="Sans" font-size="152.778" font-weight="400" font-style="normal">
<n1:path vector-effect="none" fill-rule="evenodd" d="M2675,2087.01 C2675,2073.2 2663.81,2062.01 2650,2062.01 C2636.19,2062.01 2625,2073.2 2625,2087.01 "/>
<n1:polyline fill="none" vector-effect="none" points="2498.03,2087.01 2625.2,2087.01 "/>
<n1:polyline fill="none" vector-effect="none" points="2807.48,2087.01 2674.8,2087.01 "/>
<n1:polyline fill="none" vector-effect="none" points="2807.48,1866.93 2807.48,2087.01 "/>
<n1:polyline fill="none" vector-effect="none" points="2498.03,1866.93 2807.48,1866.93 "/>
<n1:polyline fill="none" vector-effect="none" points="2498.03,2087.01 2498.03,1866.93 "/>
</n1:g>
</n1:g>
</svg>
