<?xml version="1.0" encoding="UTF-8"?>
<svg width="12.7mm" height="12.7mm" viewBox="0 0 500 500" version="1.2" baseProfile="tiny" xmlns:n1="http://www.w3.org/2000/svg" xmlns:xlink="http://www.w3.org/1999/xlink" xmlns:cpcb="http://www.danielwagenaar.net/cpcb-ns.html">
  <cpcb:part pkg="SOT-23-5" xmlns="http://www.danielwagenaar.net/cpcb-ns.html">
    <group ref="U?" pkg="SOT-23-5">
      <trace p1="192850 256350" p2="219850 256350" w="2540" l="1"/>
      <trace p1="219850 256350" p2="219850 246350" w="2540" l="1"/>
      <trace p1="219850 246350" p2="192850 246350" w="2540" l="1"/>
      <trace p1="192850 246350" p2="192850 256350" w="2540" l="1"/>
      <pad p="196850 260350" w="5080" h="10160" l="2" ref="1"/>
      <pad p="215850 260350" w="5080" h="10160" l="2" ref="3"/>
      <pad p="196850 242350" w="5080" h="10160" l="2" ref="5"/>
      <arc p="196850 252350" r="1250" lw="2540" l="1" ang="360" rota="180"/>
      <pad p="206350 260350" w="5100" h="10160" l="2" ref="2"/>
      <pad p="215850 242350" w="5100" h="10200" l="2" ref="4"/>
    </group>
    <text p="191580 224570" fs="12700" l="1" rot="0" text="U?"/>
  </cpcb:part>
<n1:title>PCB Component</n1:title>
<n1:desc>Generated by CPCB</n1:desc>
<n1:defs>
</n1:defs>
<n1:g fill="none" stroke="black" stroke-width="1" fill-rule="evenodd" stroke-linecap="square" stroke-linejoin="bevel">

<n1:g fill="#000000" fill-opacity="1" stroke="none" transform="matrix(1,0,0,1,-562.402,-739.528)" font-family="Sans" font-size="152.778" font-weight="400" font-style="normal">
<n1:rect x="562.402" y="739.528" width="500" height="500"/>
</n1:g>

<n1:g fill="#ff0000" fill-opacity="1" stroke="none" transform="matrix(1,0,0,1,-562.402,-739.528)" font-family="Sans" font-size="152.778" font-weight="400" font-style="normal">
<n1:rect x="765" y="1005" width="20" height="40"/>
</n1:g>

<n1:g fill="#ff0000" fill-opacity="1" stroke="none" transform="matrix(1,0,0,1,-562.402,-739.528)" font-family="Sans" font-size="152.778" font-weight="400" font-style="normal">
<n1:rect x="839.803" y="1005" width="20" height="40"/>
</n1:g>

<n1:g fill="#ff0000" fill-opacity="1" stroke="none" transform="matrix(1,0,0,1,-562.402,-739.528)" font-family="Sans" font-size="152.778" font-weight="400" font-style="normal">
<n1:rect x="765" y="934.134" width="20" height="40"/>
</n1:g>

<n1:g fill="#ff0000" fill-opacity="1" stroke="none" transform="matrix(1,0,0,1,-562.402,-739.528)" font-family="Sans" font-size="152.778" font-weight="400" font-style="normal">
<n1:rect x="802.362" y="1005" width="20.0787" height="40"/>
</n1:g>

<n1:g fill="#ff0000" fill-opacity="1" stroke="none" transform="matrix(1,0,0,1,-562.402,-739.528)" font-family="Sans" font-size="152.778" font-weight="400" font-style="normal">
<n1:rect x="839.764" y="934.055" width="20.0787" height="40.1575"/>
</n1:g>

<n1:g fill="#ff0000" fill-opacity="1" stroke="#f0f000" stroke-opacity="1" stroke-width="10" stroke-linecap="round" stroke-linejoin="bevel" transform="matrix(1,0,0,1,-562.402,-739.528)" font-family="Sans" font-size="152.778" font-weight="400" font-style="normal">
<n1:polyline fill="none" vector-effect="none" points="759.252,1009.25 865.551,1009.25 "/>
<n1:polyline fill="none" vector-effect="none" points="865.551,1009.25 865.551,969.882 "/>
<n1:polyline fill="none" vector-effect="none" points="865.551,969.882 759.252,969.882 "/>
<n1:polyline fill="none" vector-effect="none" points="759.252,969.882 759.252,1009.25 "/>
</n1:g>

<n1:g fill="none" stroke="#f0f000" stroke-opacity="1" stroke-width="10" stroke-linecap="round" stroke-linejoin="bevel" transform="matrix(1,0,0,1,-562.402,-739.528)" font-family="Sans" font-size="152.778" font-weight="400" font-style="normal">
<n1:path vector-effect="none" fill-rule="evenodd" d="M775,998.425 C777.718,998.425 779.921,996.222 779.921,993.504 C779.921,990.786 777.718,988.583 775,988.583 C772.282,988.583 770.079,990.786 770.079,993.504 C770.079,996.222 772.282,998.425 775,998.425 "/>
</n1:g>
</n1:g>
</svg>
