<?xml version="1.0" encoding="UTF-8"?>
<svg width="12.7mm" height="12.7mm" viewBox="0 0 500 500" version="1.2" baseProfile="tiny" xmlns:n1="http://www.w3.org/2000/svg" xmlns:xlink="http://www.w3.org/1999/xlink" xmlns:cpcb="http://www.danielwagenaar.net/cpcb-ns.html">
  <cpcb:part pkg="SOT-23-6" xmlns="http://www.danielwagenaar.net/cpcb-ns.html">
    <group ref="U?" pkg="SOT-23-6">
      <trace p1="127826 350964" p2="154826 350964" w="2540" l="1"/>
      <trace p1="154826 350964" p2="154826 340964" w="2540" l="1"/>
      <trace p1="154826 340964" p2="127826 340964" w="2540" l="1"/>
      <trace p1="127826 340964" p2="127826 350964" w="2540" l="1"/>
      <pad p="131826 354964" w="5080" h="10160" l="2" ref="1"/>
      <pad p="150826 354964" w="5080" h="10160" l="2" ref="3"/>
      <pad p="131826 336964" w="5080" h="10160" l="2" ref="6"/>
      <arc p="131826 346964" r="1250" lw="2540" l="1" ang="360" rota="180"/>
      <pad p="141326 354964" w="5100" h="10160" l="2" ref="2"/>
      <pad p="150826 336964" w="5100" h="10200" l="2" ref="4"/>
      <pad p="141326 336930" w="5080" h="10160" l="2" ref="5"/>
    </group>
    <text p="126556 319184" fs="12700" l="1" rot="0" text="U?"/>
  </cpcb:part>
<n1:title>PCB Component</n1:title>
<n1:desc>Generated by CPCB</n1:desc>
<n1:defs>
</n1:defs>
<n1:g fill="none" stroke="black" stroke-width="1" fill-rule="evenodd" stroke-linecap="square" stroke-linejoin="bevel">

<n1:g fill="#000000" fill-opacity="1" stroke="none" transform="matrix(1,0,0,1,-306.402,-1112)" font-family="Sans" font-size="152.778" font-weight="400" font-style="normal">
<n1:rect x="306.402" y="1112" width="500" height="500"/>
</n1:g>

<n1:g fill="#ff0000" fill-opacity="1" stroke="none" transform="matrix(1,0,0,1,-306.402,-1112)" font-family="Sans" font-size="152.778" font-weight="400" font-style="normal">
<n1:rect x="509" y="1377.5" width="20" height="40"/>
</n1:g>

<n1:g fill="#ff0000" fill-opacity="1" stroke="none" transform="matrix(1,0,0,1,-306.402,-1112)" font-family="Sans" font-size="152.778" font-weight="400" font-style="normal">
<n1:rect x="583.803" y="1377.5" width="20" height="40"/>
</n1:g>

<n1:g fill="#ff0000" fill-opacity="1" stroke="none" transform="matrix(1,0,0,1,-306.402,-1112)" font-family="Sans" font-size="152.778" font-weight="400" font-style="normal">
<n1:rect x="509" y="1306.63" width="20" height="40"/>
</n1:g>

<n1:g fill="#ff0000" fill-opacity="1" stroke="none" transform="matrix(1,0,0,1,-306.402,-1112)" font-family="Sans" font-size="152.778" font-weight="400" font-style="normal">
<n1:rect x="546.362" y="1377.5" width="20.0787" height="40"/>
</n1:g>

<n1:g fill="#ff0000" fill-opacity="1" stroke="none" transform="matrix(1,0,0,1,-306.402,-1112)" font-family="Sans" font-size="152.778" font-weight="400" font-style="normal">
<n1:rect x="583.764" y="1306.55" width="20.0787" height="40.1575"/>
</n1:g>

<n1:g fill="#ff0000" fill-opacity="1" stroke="none" transform="matrix(1,0,0,1,-306.402,-1112)" font-family="Sans" font-size="152.778" font-weight="400" font-style="normal">
<n1:rect x="546.402" y="1306.5" width="20" height="40"/>
</n1:g>

<n1:g fill="#ff0000" fill-opacity="1" stroke="#f0f000" stroke-opacity="1" stroke-width="10" stroke-linecap="round" stroke-linejoin="bevel" transform="matrix(1,0,0,1,-306.402,-1112)" font-family="Sans" font-size="152.778" font-weight="400" font-style="normal">
<n1:polyline fill="none" vector-effect="none" points="503.252,1381.75 609.551,1381.75 "/>
<n1:polyline fill="none" vector-effect="none" points="609.551,1381.75 609.551,1342.38 "/>
<n1:polyline fill="none" vector-effect="none" points="609.551,1342.38 503.252,1342.38 "/>
<n1:polyline fill="none" vector-effect="none" points="503.252,1342.38 503.252,1381.75 "/>
</n1:g>

<n1:g fill="none" stroke="#f0f000" stroke-opacity="1" stroke-width="10" stroke-linecap="round" stroke-linejoin="bevel" transform="matrix(1,0,0,1,-306.402,-1112)" font-family="Sans" font-size="152.778" font-weight="400" font-style="normal">
<n1:path vector-effect="none" fill-rule="evenodd" d="M519,1370.92 C521.718,1370.92 523.921,1368.72 523.921,1366 C523.921,1363.28 521.718,1361.08 519,1361.08 C516.282,1361.08 514.079,1363.28 514.079,1366 C514.079,1368.72 516.282,1370.92 519,1370.92 "/>
</n1:g>
</n1:g>
</svg>
