<?xml version="1.0" encoding="UTF-8"?>
<svg width="12.7mm" height="12.7mm" viewBox="0 0 500 500" version="1.2" baseProfile="tiny" xmlns:n1="http://www.w3.org/2000/svg" xmlns:xlink="http://www.w3.org/1999/xlink" xmlns:cpcb="http://www.danielwagenaar.net/cpcb-ns.html">
  <cpcb:part pkg="TSOP-5" xmlns="http://www.danielwagenaar.net/cpcb-ns.html">
    <group ref="U?" pkg="TSOP-5">
      <trace p1="307150 446850" p2="334150 446850" w="2540" l="1"/>
      <trace p1="334150 446850" p2="334150 431850" w="2540" l="1"/>
      <trace p1="334150 431850" p2="307150 431850" w="2540" l="1"/>
      <trace p1="307150 431850" p2="307150 446850" w="2540" l="1"/>
      <pad p="311150 450850" w="5080" h="10160" l="2" ref="1"/>
      <pad p="330150 450850" w="5080" h="10160" l="2" ref="3"/>
      <pad p="311150 426850" w="5080" h="10160" l="2" ref="5"/>
      <arc p="311150 442850" r="1250" lw="2540" l="1" ang="360" rota="180"/>
      <pad p="320650 450850" w="5100" h="10160" l="2" ref="2"/>
      <pad p="330150 426850" w="5100" h="10200" l="2" ref="4"/>
    </group>
    <text p="305880 415070" fs="12700" l="1" rot="0" text="U?"/>
  </cpcb:part>
<n1:title>PCB Component</n1:title>
<n1:desc>Generated by CPCB</n1:desc>
<n1:defs>
</n1:defs>
<n1:g fill="none" stroke="black" stroke-width="1" fill-rule="evenodd" stroke-linecap="square" stroke-linejoin="bevel">

<n1:g fill="#000000" fill-opacity="1" stroke="none" transform="matrix(1,0,0,1,-1012.4,-1477.72)" font-family="Sans" font-size="152.778" font-weight="400" font-style="normal">
<n1:rect x="1012.4" y="1477.72" width="500" height="500"/>
</n1:g>

<n1:g fill="#ff0000" fill-opacity="1" stroke="none" transform="matrix(1,0,0,1,-1012.4,-1477.72)" font-family="Sans" font-size="152.778" font-weight="400" font-style="normal">
<n1:rect x="1215" y="1755" width="20" height="40"/>
</n1:g>

<n1:g fill="#ff0000" fill-opacity="1" stroke="none" transform="matrix(1,0,0,1,-1012.4,-1477.72)" font-family="Sans" font-size="152.778" font-weight="400" font-style="normal">
<n1:rect x="1289.8" y="1755" width="20" height="40"/>
</n1:g>

<n1:g fill="#ff0000" fill-opacity="1" stroke="none" transform="matrix(1,0,0,1,-1012.4,-1477.72)" font-family="Sans" font-size="152.778" font-weight="400" font-style="normal">
<n1:rect x="1215" y="1660.51" width="20" height="40"/>
</n1:g>

<n1:g fill="#ff0000" fill-opacity="1" stroke="none" transform="matrix(1,0,0,1,-1012.4,-1477.72)" font-family="Sans" font-size="152.778" font-weight="400" font-style="normal">
<n1:rect x="1252.36" y="1755" width="20.0787" height="40"/>
</n1:g>

<n1:g fill="#ff0000" fill-opacity="1" stroke="none" transform="matrix(1,0,0,1,-1012.4,-1477.72)" font-family="Sans" font-size="152.778" font-weight="400" font-style="normal">
<n1:rect x="1289.76" y="1660.43" width="20.0787" height="40.1575"/>
</n1:g>

<n1:g fill="#ff0000" fill-opacity="1" stroke="#f0f000" stroke-opacity="1" stroke-width="10" stroke-linecap="round" stroke-linejoin="bevel" transform="matrix(1,0,0,1,-1012.4,-1477.72)" font-family="Sans" font-size="152.778" font-weight="400" font-style="normal">
<n1:polyline fill="none" vector-effect="none" points="1209.25,1759.25 1315.55,1759.25 "/>
<n1:polyline fill="none" vector-effect="none" points="1315.55,1759.25 1315.55,1700.2 "/>
<n1:polyline fill="none" vector-effect="none" points="1315.55,1700.2 1209.25,1700.2 "/>
<n1:polyline fill="none" vector-effect="none" points="1209.25,1700.2 1209.25,1759.25 "/>
</n1:g>

<n1:g fill="none" stroke="#f0f000" stroke-opacity="1" stroke-width="10" stroke-linecap="round" stroke-linejoin="bevel" transform="matrix(1,0,0,1,-1012.4,-1477.72)" font-family="Sans" font-size="152.778" font-weight="400" font-style="normal">
<n1:path vector-effect="none" fill-rule="evenodd" d="M1225,1748.43 C1227.72,1748.43 1229.92,1746.22 1229.92,1743.5 C1229.92,1740.79 1227.72,1738.58 1225,1738.58 C1222.28,1738.58 1220.08,1740.79 1220.08,1743.5 C1220.08,1746.22 1222.28,1748.43 1225,1748.43 "/>
</n1:g>
</n1:g>
</svg>
