<?xml version="1.0" encoding="UTF-8"?>
<svg width="12.7mm" height="12.7mm" viewBox="0 0 500 500" version="1.2" baseProfile="tiny" xmlns:n1="http://www.w3.org/2000/svg" xmlns:xlink="http://www.w3.org/1999/xlink" xmlns:cpcb="http://www.danielwagenaar.net/cpcb-ns.html">
  <cpcb:part pkg="TSSOP-20" xmlns="http://www.danielwagenaar.net/cpcb-ns.html">
    <group ref="U?" pkg="TSSOP-20">
      <pad p="740000 660000" w="4500" h="14500" l="2" ref="1"/>
      <trace p1="735000 635000" p2="745000 630000" w="2540" l="1"/>
      <trace p1="805000 610000" p2="735000 610000" w="2540" l="1"/>
      <trace p1="805000 650000" p2="805000 610000" w="2540" l="1"/>
      <trace p1="735000 650000" p2="805000 650000" w="2540" l="1"/>
      <trace p1="735000 610000" p2="735000 650000" w="2540" l="1"/>
      <pad p="798500 601000" w="4500" h="14500" l="2" ref="11"/>
      <pad p="792000 601000" w="4500" h="14500" l="2" ref="12"/>
      <pad p="740000 601000" w="4500" h="14500" l="2" ref="20"/>
      <pad p="746500 601000" w="4500" h="14500" l="2" ref="19"/>
      <pad p="759500 601000" w="4500" h="14500" l="2" ref="17"/>
      <pad p="753000 601000" w="4500" h="14500" l="2" ref="18"/>
      <pad p="779000 601000" w="4500" h="14500" l="2" ref="14"/>
      <pad p="785500 601000" w="4500" h="14500" l="2" ref="13"/>
      <pad p="772500 601000" w="4500" h="14500" l="2" ref="15"/>
      <pad p="766000 601000" w="4500" h="14500" l="2" ref="16"/>
      <pad p="792000 660000" w="4500" h="14500" l="2" ref="9"/>
      <pad p="798500 660000" w="4500" h="14500" l="2" ref="10"/>
      <pad p="766000 660000" w="4500" h="14500" l="2" ref="5"/>
      <pad p="772500 660000" w="4500" h="14500" l="2" ref="6"/>
      <pad p="785500 660000" w="4500" h="14500" l="2" ref="8"/>
      <pad p="779000 660000" w="4500" h="14500" l="2" ref="7"/>
      <pad p="753000 660000" w="4500" h="14500" l="2" ref="3"/>
      <pad p="759500 660000" w="4500" h="14500" l="2" ref="4"/>
      <pad p="746500 660000" w="4500" h="14500" l="2" ref="2"/>
      <trace p1="745000 630000" p2="735000 625000" w="2540" l="1"/>
    </group>
    <text p="733730 581050" fs="12700" l="1" rot="0" text="U?"/>
  </cpcb:part>
<n1:title>PCB Component</n1:title>
<n1:desc>Generated by CPCB</n1:desc>
<n1:defs>
</n1:defs>
<n1:g fill="none" stroke="black" stroke-width="1" fill-rule="evenodd" stroke-linecap="square" stroke-linejoin="bevel">

<n1:g fill="#000000" fill-opacity="1" stroke="none" transform="matrix(1,0,0,1,-2781.5,-2232.28)" font-family="Sans" font-size="152.778" font-weight="400" font-style="normal">
<n1:rect x="2781.5" y="2232.28" width="500" height="500"/>
</n1:g>

<n1:g fill="#ff0000" fill-opacity="1" stroke="none" transform="matrix(1,0,0,1,-2781.5,-2232.28)" font-family="Sans" font-size="152.778" font-weight="400" font-style="normal">
<n1:rect x="2904.53" y="2569.88" width="17.7165" height="57.0866"/>
</n1:g>

<n1:g fill="#ff0000" fill-opacity="1" stroke="none" transform="matrix(1,0,0,1,-2781.5,-2232.28)" font-family="Sans" font-size="152.778" font-weight="400" font-style="normal">
<n1:rect x="3134.84" y="2337.6" width="17.7165" height="57.0866"/>
</n1:g>

<n1:g fill="#ff0000" fill-opacity="1" stroke="none" transform="matrix(1,0,0,1,-2781.5,-2232.28)" font-family="Sans" font-size="152.778" font-weight="400" font-style="normal">
<n1:rect x="3109.25" y="2337.6" width="17.7165" height="57.0866"/>
</n1:g>

<n1:g fill="#ff0000" fill-opacity="1" stroke="none" transform="matrix(1,0,0,1,-2781.5,-2232.28)" font-family="Sans" font-size="152.778" font-weight="400" font-style="normal">
<n1:rect x="2904.53" y="2337.6" width="17.7165" height="57.0866"/>
</n1:g>

<n1:g fill="#ff0000" fill-opacity="1" stroke="none" transform="matrix(1,0,0,1,-2781.5,-2232.28)" font-family="Sans" font-size="152.778" font-weight="400" font-style="normal">
<n1:rect x="2930.12" y="2337.6" width="17.7165" height="57.0866"/>
</n1:g>

<n1:g fill="#ff0000" fill-opacity="1" stroke="none" transform="matrix(1,0,0,1,-2781.5,-2232.28)" font-family="Sans" font-size="152.778" font-weight="400" font-style="normal">
<n1:rect x="2981.3" y="2337.6" width="17.7165" height="57.0866"/>
</n1:g>

<n1:g fill="#ff0000" fill-opacity="1" stroke="none" transform="matrix(1,0,0,1,-2781.5,-2232.28)" font-family="Sans" font-size="152.778" font-weight="400" font-style="normal">
<n1:rect x="2955.71" y="2337.6" width="17.7165" height="57.0866"/>
</n1:g>

<n1:g fill="#ff0000" fill-opacity="1" stroke="none" transform="matrix(1,0,0,1,-2781.5,-2232.28)" font-family="Sans" font-size="152.778" font-weight="400" font-style="normal">
<n1:rect x="3058.07" y="2337.6" width="17.7165" height="57.0866"/>
</n1:g>

<n1:g fill="#ff0000" fill-opacity="1" stroke="none" transform="matrix(1,0,0,1,-2781.5,-2232.28)" font-family="Sans" font-size="152.778" font-weight="400" font-style="normal">
<n1:rect x="3083.66" y="2337.6" width="17.7165" height="57.0866"/>
</n1:g>

<n1:g fill="#ff0000" fill-opacity="1" stroke="none" transform="matrix(1,0,0,1,-2781.5,-2232.28)" font-family="Sans" font-size="152.778" font-weight="400" font-style="normal">
<n1:rect x="3032.48" y="2337.6" width="17.7165" height="57.0866"/>
</n1:g>

<n1:g fill="#ff0000" fill-opacity="1" stroke="none" transform="matrix(1,0,0,1,-2781.5,-2232.28)" font-family="Sans" font-size="152.778" font-weight="400" font-style="normal">
<n1:rect x="3006.89" y="2337.6" width="17.7165" height="57.0866"/>
</n1:g>

<n1:g fill="#ff0000" fill-opacity="1" stroke="none" transform="matrix(1,0,0,1,-2781.5,-2232.28)" font-family="Sans" font-size="152.778" font-weight="400" font-style="normal">
<n1:rect x="3109.25" y="2569.88" width="17.7165" height="57.0866"/>
</n1:g>

<n1:g fill="#ff0000" fill-opacity="1" stroke="none" transform="matrix(1,0,0,1,-2781.5,-2232.28)" font-family="Sans" font-size="152.778" font-weight="400" font-style="normal">
<n1:rect x="3134.84" y="2569.88" width="17.7165" height="57.0866"/>
</n1:g>

<n1:g fill="#ff0000" fill-opacity="1" stroke="none" transform="matrix(1,0,0,1,-2781.5,-2232.28)" font-family="Sans" font-size="152.778" font-weight="400" font-style="normal">
<n1:rect x="3006.89" y="2569.88" width="17.7165" height="57.0866"/>
</n1:g>

<n1:g fill="#ff0000" fill-opacity="1" stroke="none" transform="matrix(1,0,0,1,-2781.5,-2232.28)" font-family="Sans" font-size="152.778" font-weight="400" font-style="normal">
<n1:rect x="3032.48" y="2569.88" width="17.7165" height="57.0866"/>
</n1:g>

<n1:g fill="#ff0000" fill-opacity="1" stroke="none" transform="matrix(1,0,0,1,-2781.5,-2232.28)" font-family="Sans" font-size="152.778" font-weight="400" font-style="normal">
<n1:rect x="3083.66" y="2569.88" width="17.7165" height="57.0866"/>
</n1:g>

<n1:g fill="#ff0000" fill-opacity="1" stroke="none" transform="matrix(1,0,0,1,-2781.5,-2232.28)" font-family="Sans" font-size="152.778" font-weight="400" font-style="normal">
<n1:rect x="3058.07" y="2569.88" width="17.7165" height="57.0866"/>
</n1:g>

<n1:g fill="#ff0000" fill-opacity="1" stroke="none" transform="matrix(1,0,0,1,-2781.5,-2232.28)" font-family="Sans" font-size="152.778" font-weight="400" font-style="normal">
<n1:rect x="2955.71" y="2569.88" width="17.7165" height="57.0866"/>
</n1:g>

<n1:g fill="#ff0000" fill-opacity="1" stroke="none" transform="matrix(1,0,0,1,-2781.5,-2232.28)" font-family="Sans" font-size="152.778" font-weight="400" font-style="normal">
<n1:rect x="2981.3" y="2569.88" width="17.7165" height="57.0866"/>
</n1:g>

<n1:g fill="#ff0000" fill-opacity="1" stroke="none" transform="matrix(1,0,0,1,-2781.5,-2232.28)" font-family="Sans" font-size="152.778" font-weight="400" font-style="normal">
<n1:rect x="2930.12" y="2569.88" width="17.7165" height="57.0866"/>
</n1:g>

<n1:g fill="#ff0000" fill-opacity="1" stroke="#f0f000" stroke-opacity="1" stroke-width="10" stroke-linecap="round" stroke-linejoin="bevel" transform="matrix(1,0,0,1,-2781.5,-2232.28)" font-family="Sans" font-size="152.778" font-weight="400" font-style="normal">
<n1:polyline fill="none" vector-effect="none" points="2893.7,2500 2933.07,2480.31 "/>
<n1:polyline fill="none" vector-effect="none" points="3169.29,2401.57 2893.7,2401.57 "/>
<n1:polyline fill="none" vector-effect="none" points="3169.29,2559.06 3169.29,2401.57 "/>
<n1:polyline fill="none" vector-effect="none" points="2893.7,2559.06 3169.29,2559.06 "/>
<n1:polyline fill="none" vector-effect="none" points="2893.7,2401.57 2893.7,2559.06 "/>
<n1:polyline fill="none" vector-effect="none" points="2933.07,2480.31 2893.7,2460.63 "/>
</n1:g>
</n1:g>
</svg>
