<?xml version="1.0" encoding="UTF-8"?>
<svg width="76.2mm" height="76.2mm" viewBox="0 0 300 300" version="1.2" baseProfile="tiny" xmlns:n1="http://www.w3.org/2000/svg" xmlns:xlink="http://www.w3.org/1999/xlink" xmlns:cpcb="http://www.danielwagenaar.net/cpcb-ns.html">
  <cpcb:part pkg="L1212" xmlns="http://www.danielwagenaar.net/cpcb-ns.html">
    <group ref="L?" pkg="L1212">
      <arc p="610000 313000" r="5080" lw="2540" l="1" ang="180" rota="270"/>
      <arc p="600000 313000" r="5080" lw="2540" l="1" ang="180" rota="270"/>
      <arc p="590000 313000" r="5080" lw="2540" l="1" ang="180" rota="270"/>
      <pad p="600000 320000" w="30000" h="10000" l="2" ref="2"/>
      <pad p="600000 300000" w="30000" h="10000" l="2" ref="1"/>
    </group>
    <text p="583640 282300" fs="12700" l="1" rot="0" text="L?"/>
  </cpcb:part>
<n1:title>PCB Component</n1:title>
<n1:desc>Generated by CPCB</n1:desc>
<n1:defs>
</n1:defs>
<n1:g fill="none" stroke="black" stroke-width="1" fill-rule="evenodd" stroke-linecap="square" stroke-linejoin="bevel">

<n1:g fill="#000000" fill-opacity="1" stroke="none" transform="matrix(1,0,0,1,-2212.19,-1070.47)" font-family="Ubuntu" font-size="152.778" font-weight="400" font-style="normal">
<n1:rect x="2212.19" y="1070.47" width="300" height="300"/>
</n1:g>

<n1:g fill="#ff0000" fill-opacity="1" stroke="none" transform="matrix(1,0,0,1,-2212.19,-1070.47)" font-family="Ubuntu" font-size="152.778" font-weight="400" font-style="normal">
<n1:rect x="2303.15" y="1240.16" width="118.11" height="39.3701"/>
</n1:g>

<n1:g fill="#ff0000" fill-opacity="1" stroke="none" transform="matrix(1,0,0,1,-2212.19,-1070.47)" font-family="Ubuntu" font-size="152.778" font-weight="400" font-style="normal">
<n1:rect x="2303.15" y="1161.42" width="118.11" height="39.3701"/>
</n1:g>

<n1:g fill="none" stroke="#f0f000" stroke-opacity="1" stroke-width="10" stroke-linecap="round" stroke-linejoin="bevel" transform="matrix(1,0,0,1,-2212.19,-1070.47)" font-family="Ubuntu" font-size="152.778" font-weight="400" font-style="normal">
<n1:path vector-effect="none" fill-rule="evenodd" d="M2421.57,1232.28 C2421.57,1221.24 2412.62,1212.28 2401.57,1212.28 C2390.53,1212.28 2381.57,1221.24 2381.57,1232.28 "/>
<n1:path vector-effect="none" fill-rule="evenodd" d="M2382.2,1232.28 C2382.2,1221.24 2373.25,1212.28 2362.2,1212.28 C2351.16,1212.28 2342.2,1221.24 2342.2,1232.28 "/>
<n1:path vector-effect="none" fill-rule="evenodd" d="M2342.83,1232.28 C2342.83,1221.24 2333.88,1212.28 2322.83,1212.28 C2311.79,1212.28 2302.83,1221.24 2302.83,1232.28 "/>
</n1:g>
</n1:g>
</svg>
