<?xml version="1.0" encoding="UTF-8"?>
<svg width="19.812mm" height="12.7mm" viewBox="0 0 780 500" version="1.2" baseProfile="tiny" xmlns:n1="http://www.w3.org/2000/svg" xmlns:xlink="http://www.w3.org/1999/xlink" xmlns:cpcb="http://www.danielwagenaar.net/cpcb-ns.html">
  <cpcb:part pkg="Resistor-1W-0650" xmlns="http://www.danielwagenaar.net/cpcb-ns.html">
    <group ref="R5">
      <hole p="882396 511048" id="13970" od="20320" ref="2"/>
      <hole p="717296 511048" id="13970" od="20320" ref="1"/>
      <trace p1="844296 491998" p2="755396 491998" w="2540" l="1"/>
      <trace p1="755396 530098" p2="844296 530098" w="2540" l="1"/>
      <trace p1="844296 530098" p2="844296 511048" w="2540" l="1"/>
      <trace p1="755396 511048" p2="736346 511048" w="2540" l="1"/>
      <trace p1="755396 511048" p2="755396 530098" w="2540" l="1"/>
      <trace p1="755396 491998" p2="755396 511048" w="2540" l="1"/>
      <trace p1="844296 511048" p2="863346 511048" w="2540" l="1"/>
      <trace p1="844296 511048" p2="844296 491998" w="2540" l="1"/>
    </group>
    <text p="778891 509778" fs="12700" l="1" rot="0" text="R5"/>
  </cpcb:part>
<n1:title>PCB Component</n1:title>
<n1:desc>Generated by CPCB</n1:desc>
<n1:defs>
</n1:defs>
<n1:g fill="none" stroke="black" stroke-width="1" fill-rule="evenodd" stroke-linecap="square" stroke-linejoin="bevel">

<n1:g fill="#000000" fill-opacity="1" stroke="none" transform="matrix(1,0,0,1,-2759,-1762)" font-family="Sans" font-size="152.778" font-weight="400" font-style="normal">
<n1:rect x="2759" y="1762" width="780" height="500"/>
</n1:g>

<n1:g fill="#00b400" fill-opacity="1" stroke="none" transform="matrix(1,0,0,1,-2759,-1762)" font-family="Sans" font-size="152.778" font-weight="400" font-style="normal">
<n1:circle cx="3474" cy="2012" r="40"/>
</n1:g>

<n1:g fill="#00b400" fill-opacity="1" stroke="none" transform="matrix(1,0,0,1,-2759,-1762)" font-family="Sans" font-size="152.778" font-weight="400" font-style="normal">
<n1:circle cx="2824" cy="2012" r="40"/>
</n1:g>

<n1:g fill="#ff0000" fill-opacity="1" stroke="none" transform="matrix(1,0,0,1,-2759,-1762)" font-family="Sans" font-size="152.778" font-weight="400" font-style="normal">
<n1:circle cx="3474" cy="2012" r="40"/>
</n1:g>

<n1:g fill="#ff0000" fill-opacity="1" stroke="none" transform="matrix(1,0,0,1,-2759,-1762)" font-family="Sans" font-size="152.778" font-weight="400" font-style="normal">
<n1:circle cx="2824" cy="2012" r="40"/>
</n1:g>

<n1:g fill="#000000" fill-opacity="1" stroke="none" transform="matrix(1,0,0,1,-2759,-1762)" font-family="Sans" font-size="152.778" font-weight="400" font-style="normal">
<n1:circle cx="3474" cy="2012" r="27.5"/>
</n1:g>

<n1:g fill="#000000" fill-opacity="1" stroke="none" transform="matrix(1,0,0,1,-2759,-1762)" font-family="Sans" font-size="152.778" font-weight="400" font-style="normal">
<n1:circle cx="2824" cy="2012" r="27.5"/>
</n1:g>

<n1:g fill="#000000" fill-opacity="1" stroke="#f0f000" stroke-opacity="1" stroke-width="10" stroke-linecap="round" stroke-linejoin="bevel" transform="matrix(1,0,0,1,-2759,-1762)" font-family="Sans" font-size="152.778" font-weight="400" font-style="normal">
<n1:polyline fill="none" vector-effect="none" points="3324,1937 2974,1937 "/>
<n1:polyline fill="none" vector-effect="none" points="2974,2087 3324,2087 "/>
<n1:polyline fill="none" vector-effect="none" points="3324,2087 3324,2012 "/>
<n1:polyline fill="none" vector-effect="none" points="2974,2012 2899,2012 "/>
<n1:polyline fill="none" vector-effect="none" points="2974,2012 2974,2087 "/>
<n1:polyline fill="none" vector-effect="none" points="2974,1937 2974,2012 "/>
<n1:polyline fill="none" vector-effect="none" points="3324,2012 3399,2012 "/>
<n1:polyline fill="none" vector-effect="none" points="3324,2012 3324,1937 "/>
</n1:g>
</n1:g>
</svg>
