<?xml version="1.0" encoding="UTF-8"?>
<svg width="12.7mm" height="12.7mm" viewBox="0 0 500 500" version="1.2" baseProfile="tiny" xmlns:n1="http://www.w3.org/2000/svg" xmlns:xlink="http://www.w3.org/1999/xlink" xmlns:cpcb="http://www.danielwagenaar.net/cpcb-ns.html">
  <cpcb:part pkg="Trimpot1" xmlns="http://www.danielwagenaar.net/cpcb-ns.html">
    <group ref="R?">
      <hole p="787400 279400" id="10160" od="15240" sq="1" ref="1"/>
      <hole p="838200 279400" id="10160" od="15240" ref="3"/>
      <hole p="812800 304800" id="10160" od="15240" ref="2"/>
      <trace p1="765048 231648" p2="765048 327152" w="2540" l="1"/>
      <trace p1="765048 327152" p2="860552 327152" w="2540" l="1"/>
      <trace p1="860552 327152" p2="860552 231648" w="2540" l="1"/>
      <trace p1="860552 231648" p2="765048 231648" w="2540" l="1"/>
    </group>
    <text p="763778 217678" fs="12700" l="1" rot="0" text="R?"/>
  </cpcb:part>
<n1:title>PCB Component</n1:title>
<n1:desc>Generated by CPCB</n1:desc>
<n1:defs>
</n1:defs>
<n1:g fill="none" stroke="black" stroke-width="1" fill-rule="evenodd" stroke-linecap="square" stroke-linejoin="bevel">

<n1:g fill="#000000" fill-opacity="1" stroke="none" transform="matrix(1,0,0,1,-2950,-850)" font-family="Sans" font-size="152.778" font-weight="400" font-style="normal">
<n1:rect x="2950" y="850" width="500" height="500"/>
</n1:g>

<n1:g fill="#000000" fill-opacity="1" stroke="#00b400" stroke-opacity="1" stroke-width="60" stroke-linecap="butt" stroke-linejoin="bevel" transform="matrix(1,0,0,1,-2950,-850)" font-family="Sans" font-size="152.778" font-weight="400" font-style="normal">
<n1:polyline fill="none" vector-effect="none" points="3070,1100 3130,1100 "/>
</n1:g>

<n1:g fill="#00b400" fill-opacity="1" stroke="none" transform="matrix(1,0,0,1,-2950,-850)" font-family="Sans" font-size="152.778" font-weight="400" font-style="normal">
<n1:circle cx="3300" cy="1100" r="30"/>
</n1:g>

<n1:g fill="#00b400" fill-opacity="1" stroke="none" transform="matrix(1,0,0,1,-2950,-850)" font-family="Sans" font-size="152.778" font-weight="400" font-style="normal">
<n1:circle cx="3200" cy="1200" r="30"/>
</n1:g>

<n1:g fill="#00b400" fill-opacity="1" stroke="#ff0000" stroke-opacity="1" stroke-width="60" stroke-linecap="butt" stroke-linejoin="bevel" transform="matrix(1,0,0,1,-2950,-850)" font-family="Sans" font-size="152.778" font-weight="400" font-style="normal">
<n1:polyline fill="none" vector-effect="none" points="3070,1100 3130,1100 "/>
</n1:g>

<n1:g fill="#ff0000" fill-opacity="1" stroke="none" transform="matrix(1,0,0,1,-2950,-850)" font-family="Sans" font-size="152.778" font-weight="400" font-style="normal">
<n1:circle cx="3300" cy="1100" r="30"/>
</n1:g>

<n1:g fill="#ff0000" fill-opacity="1" stroke="none" transform="matrix(1,0,0,1,-2950,-850)" font-family="Sans" font-size="152.778" font-weight="400" font-style="normal">
<n1:circle cx="3200" cy="1200" r="30"/>
</n1:g>

<n1:g fill="#ffffff" fill-opacity="1" stroke="none" transform="matrix(1,0,0,1,-2950,-850)" font-family="Sans" font-size="152.778" font-weight="400" font-style="normal">
<n1:circle cx="3100" cy="1100" r="20"/>
</n1:g>

<n1:g fill="#ffffff" fill-opacity="1" stroke="none" transform="matrix(1,0,0,1,-2950,-850)" font-family="Sans" font-size="152.778" font-weight="400" font-style="normal">
<n1:circle cx="3300" cy="1100" r="20"/>
</n1:g>

<n1:g fill="#ffffff" fill-opacity="1" stroke="none" transform="matrix(1,0,0,1,-2950,-850)" font-family="Sans" font-size="152.778" font-weight="400" font-style="normal">
<n1:circle cx="3200" cy="1200" r="20"/>
</n1:g>

<n1:g fill="#ffffff" fill-opacity="1" stroke="#f0f000" stroke-opacity="1" stroke-width="10" stroke-linecap="round" stroke-linejoin="bevel" transform="matrix(1,0,0,1,-2950,-850)" font-family="Sans" font-size="152.778" font-weight="400" font-style="normal">
<n1:polyline fill="none" vector-effect="none" points="3012,912 3012,1288 "/>
<n1:polyline fill="none" vector-effect="none" points="3012,1288 3388,1288 "/>
<n1:polyline fill="none" vector-effect="none" points="3388,1288 3388,912 "/>
<n1:polyline fill="none" vector-effect="none" points="3388,912 3012,912 "/>
</n1:g>
</n1:g>
</svg>
