<?xml version="1.0" encoding="UTF-8"?>
<svg width="12.7mm" height="12.7mm" viewBox="0 0 500 500" version="1.2" baseProfile="tiny" xmlns:n1="http://www.w3.org/2000/svg" xmlns:xlink="http://www.w3.org/1999/xlink" xmlns:cpcb="http://www.danielwagenaar.net/cpcb-ns.html">
  <cpcb:part pkg="Trimpot2" xmlns="http://www.danielwagenaar.net/cpcb-ns.html">
    <group ref="R?">
      <hole p="850900 266700" id="10160" od="15240" sq="1" ref="1"/>
      <hole p="901700 266700" id="10160" od="15240" ref="3"/>
      <hole p="876300 317500" id="10160" od="15240" ref="2"/>
      <trace p1="828548 244348" p2="828548 339852" w="2540" l="1"/>
      <trace p1="828548 339852" p2="924052 339852" w="2540" l="1"/>
      <trace p1="924052 339852" p2="924052 244348" w="2540" l="1"/>
      <trace p1="924052 244348" p2="828548 244348" w="2540" l="1"/>
    </group>
    <text p="827278 230378" fs="12700" l="1" rot="0" text="R?"/>
  </cpcb:part>
<n1:title>PCB Component</n1:title>
<n1:desc>Generated by CPCB</n1:desc>
<n1:defs>
</n1:defs>
<n1:g fill="none" stroke="black" stroke-width="1" fill-rule="evenodd" stroke-linecap="square" stroke-linejoin="bevel">

<n1:g fill="#000000" fill-opacity="1" stroke="none" transform="matrix(1,0,0,1,-3200,-900)" font-family="Sans" font-size="152.778" font-weight="400" font-style="normal">
<n1:rect x="3200" y="900" width="500" height="500"/>
</n1:g>

<n1:g fill="#000000" fill-opacity="1" stroke="#00b400" stroke-opacity="1" stroke-width="60" stroke-linecap="butt" stroke-linejoin="bevel" transform="matrix(1,0,0,1,-3200,-900)" font-family="Sans" font-size="152.778" font-weight="400" font-style="normal">
<n1:polyline fill="none" vector-effect="none" points="3320,1050 3380,1050 "/>
</n1:g>

<n1:g fill="#00b400" fill-opacity="1" stroke="none" transform="matrix(1,0,0,1,-3200,-900)" font-family="Sans" font-size="152.778" font-weight="400" font-style="normal">
<n1:circle cx="3550" cy="1050" r="30"/>
</n1:g>

<n1:g fill="#00b400" fill-opacity="1" stroke="none" transform="matrix(1,0,0,1,-3200,-900)" font-family="Sans" font-size="152.778" font-weight="400" font-style="normal">
<n1:circle cx="3450" cy="1250" r="30"/>
</n1:g>

<n1:g fill="#00b400" fill-opacity="1" stroke="#ff0000" stroke-opacity="1" stroke-width="60" stroke-linecap="butt" stroke-linejoin="bevel" transform="matrix(1,0,0,1,-3200,-900)" font-family="Sans" font-size="152.778" font-weight="400" font-style="normal">
<n1:polyline fill="none" vector-effect="none" points="3320,1050 3380,1050 "/>
</n1:g>

<n1:g fill="#ff0000" fill-opacity="1" stroke="none" transform="matrix(1,0,0,1,-3200,-900)" font-family="Sans" font-size="152.778" font-weight="400" font-style="normal">
<n1:circle cx="3550" cy="1050" r="30"/>
</n1:g>

<n1:g fill="#ff0000" fill-opacity="1" stroke="none" transform="matrix(1,0,0,1,-3200,-900)" font-family="Sans" font-size="152.778" font-weight="400" font-style="normal">
<n1:circle cx="3450" cy="1250" r="30"/>
</n1:g>

<n1:g fill="#ffffff" fill-opacity="1" stroke="none" transform="matrix(1,0,0,1,-3200,-900)" font-family="Sans" font-size="152.778" font-weight="400" font-style="normal">
<n1:circle cx="3350" cy="1050" r="20"/>
</n1:g>

<n1:g fill="#ffffff" fill-opacity="1" stroke="none" transform="matrix(1,0,0,1,-3200,-900)" font-family="Sans" font-size="152.778" font-weight="400" font-style="normal">
<n1:circle cx="3550" cy="1050" r="20"/>
</n1:g>

<n1:g fill="#ffffff" fill-opacity="1" stroke="none" transform="matrix(1,0,0,1,-3200,-900)" font-family="Sans" font-size="152.778" font-weight="400" font-style="normal">
<n1:circle cx="3450" cy="1250" r="20"/>
</n1:g>

<n1:g fill="#ffffff" fill-opacity="1" stroke="#f0f000" stroke-opacity="1" stroke-width="10" stroke-linecap="round" stroke-linejoin="bevel" transform="matrix(1,0,0,1,-3200,-900)" font-family="Sans" font-size="152.778" font-weight="400" font-style="normal">
<n1:polyline fill="none" vector-effect="none" points="3262,962 3262,1338 "/>
<n1:polyline fill="none" vector-effect="none" points="3262,1338 3638,1338 "/>
<n1:polyline fill="none" vector-effect="none" points="3638,1338 3638,962 "/>
<n1:polyline fill="none" vector-effect="none" points="3638,962 3262,962 "/>
</n1:g>
</n1:g>
</svg>
