<?xml version="1.0" encoding="UTF-8"?>
<svg width="135.128mm" height="135.128mm" viewBox="0 0 532 532.039" version="1.2" baseProfile="tiny" xmlns:n1="http://www.w3.org/2000/svg" xmlns:xlink="http://www.w3.org/1999/xlink" xmlns:cpcb="http://www.danielwagenaar.net/cpcb-ns.html">
  <cpcb:part pkg="D6R" notes="E.g., D6R90 F2 LFS&#10;or D6RLWHF1 LFS&#10;Height above board is 5.8 + 7.0 mm. Button diam is 9.0." xmlns="http://www.danielwagenaar.net/cpcb-ns.html">
    <group ref="S?" pkg="D6R" notes="E.g., D6R90 F2 LFS&#10;or D6RLWHF1 LFS&#10;Height above board is 5.8 + 7.0 mm. Button diam is 9.0.">
      <arc p="507600 152400" r="59944" lw="2540" l="1" ang="360" rota="180"/>
      <trace p1="482600 177400" p2="532600 177400" w="2540" l="2"/>
      <trace p1="482600 127400" p2="532600 127400" w="2540" l="2"/>
      <hole p="532600 127400" id="10160" od="16510" ref="2"/>
      <hole p="482600 127400" id="10160" od="16510" ref="1"/>
      <hole p="482600 177400" id="10160" od="16510" ref="3"/>
      <hole p="532600 177400" id="10160" od="16510" ref="4"/>
      <hole p="538600 152400" id="10160" od="16510" ref="K" fp="3" noclear="1"/>
      <hole p="476600 152400" id="10160" od="16510" ref="A"/>
      <trace p1="452600 132400" p2="452600 172400" w="2540" l="1"/>
      <arc p="507600 152400" r="45000" lw="2540" l="1" ang="360" rota="180"/>
    </group>
    <text p="446386 91186" fs="12700" l="1" rot="0" text="S?"/>
  </cpcb:part>
<n1:title>PCB Component</n1:title>
<n1:desc>Generated by CPCB</n1:desc>
<n1:defs>
</n1:defs>
<n1:g fill="none" stroke="black" stroke-width="1" fill-rule="evenodd" stroke-linecap="square" stroke-linejoin="bevel">

<n1:g fill="#000000" fill-opacity="1" stroke="none" transform="matrix(1,0,0,1,-1732.43,-334)" font-family="Sans" font-size="152.778" font-weight="400" font-style="normal">
<n1:rect x="1732.43" y="334" width="532" height="532.039"/>
</n1:g>

<n1:g fill="#00b400" fill-opacity="1" stroke="none" transform="matrix(1,0,0,1,-1732.43,-334)" font-family="Sans" font-size="152.778" font-weight="400" font-style="normal">
<n1:circle cx="2096.85" cy="501.575" r="32.5"/>
</n1:g>

<n1:g fill="#00b400" fill-opacity="1" stroke="none" transform="matrix(1,0,0,1,-1732.43,-334)" font-family="Sans" font-size="152.778" font-weight="400" font-style="normal">
<n1:circle cx="1900" cy="501.575" r="32.5"/>
</n1:g>

<n1:g fill="#00b400" fill-opacity="1" stroke="none" transform="matrix(1,0,0,1,-1732.43,-334)" font-family="Sans" font-size="152.778" font-weight="400" font-style="normal">
<n1:circle cx="1900" cy="698.425" r="32.5"/>
</n1:g>

<n1:g fill="#00b400" fill-opacity="1" stroke="none" transform="matrix(1,0,0,1,-1732.43,-334)" font-family="Sans" font-size="152.778" font-weight="400" font-style="normal">
<n1:circle cx="2096.85" cy="698.425" r="32.5"/>
</n1:g>

<n1:g fill="#00b400" fill-opacity="1" stroke="none" transform="matrix(1,0,0,1,-1732.43,-334)" font-family="Sans" font-size="152.778" font-weight="400" font-style="normal">
<n1:circle cx="2120.47" cy="600" r="32.5"/>
</n1:g>

<n1:g fill="#00b400" fill-opacity="1" stroke="none" transform="matrix(1,0,0,1,-1732.43,-334)" font-family="Sans" font-size="152.778" font-weight="400" font-style="normal">
<n1:circle cx="1876.38" cy="600" r="32.5"/>
</n1:g>

<n1:g fill="#00b400" fill-opacity="1" stroke="#ff0000" stroke-opacity="1" stroke-width="10" stroke-linecap="round" stroke-linejoin="bevel" transform="matrix(1,0,0,1,-1732.43,-334)" font-family="Sans" font-size="152.778" font-weight="400" font-style="normal">
<n1:polyline fill="none" vector-effect="none" points="1900,698.425 2096.85,698.425 "/>
<n1:polyline fill="none" vector-effect="none" points="1900,501.575 2096.85,501.575 "/>
</n1:g>

<n1:g fill="#ff0000" fill-opacity="1" stroke="none" transform="matrix(1,0,0,1,-1732.43,-334)" font-family="Sans" font-size="152.778" font-weight="400" font-style="normal">
<n1:circle cx="2096.85" cy="501.575" r="32.5"/>
</n1:g>

<n1:g fill="#ff0000" fill-opacity="1" stroke="none" transform="matrix(1,0,0,1,-1732.43,-334)" font-family="Sans" font-size="152.778" font-weight="400" font-style="normal">
<n1:circle cx="1900" cy="501.575" r="32.5"/>
</n1:g>

<n1:g fill="#ff0000" fill-opacity="1" stroke="none" transform="matrix(1,0,0,1,-1732.43,-334)" font-family="Sans" font-size="152.778" font-weight="400" font-style="normal">
<n1:circle cx="1900" cy="698.425" r="32.5"/>
</n1:g>

<n1:g fill="#ff0000" fill-opacity="1" stroke="none" transform="matrix(1,0,0,1,-1732.43,-334)" font-family="Sans" font-size="152.778" font-weight="400" font-style="normal">
<n1:circle cx="2096.85" cy="698.425" r="32.5"/>
</n1:g>

<n1:g fill="#ff0000" fill-opacity="1" stroke="none" transform="matrix(1,0,0,1,-1732.43,-334)" font-family="Sans" font-size="152.778" font-weight="400" font-style="normal">
<n1:circle cx="2120.47" cy="600" r="32.5"/>
</n1:g>

<n1:g fill="#ff0000" fill-opacity="1" stroke="none" transform="matrix(1,0,0,1,-1732.43,-334)" font-family="Sans" font-size="152.778" font-weight="400" font-style="normal">
<n1:circle cx="1876.38" cy="600" r="32.5"/>
</n1:g>

<n1:g fill="#000000" fill-opacity="1" stroke="none" transform="matrix(1,0,0,1,-1732.43,-334)" font-family="Sans" font-size="152.778" font-weight="400" font-style="normal">
<n1:circle cx="2096.85" cy="501.575" r="20"/>
</n1:g>

<n1:g fill="#000000" fill-opacity="1" stroke="none" transform="matrix(1,0,0,1,-1732.43,-334)" font-family="Sans" font-size="152.778" font-weight="400" font-style="normal">
<n1:circle cx="1900" cy="501.575" r="20"/>
</n1:g>

<n1:g fill="#000000" fill-opacity="1" stroke="none" transform="matrix(1,0,0,1,-1732.43,-334)" font-family="Sans" font-size="152.778" font-weight="400" font-style="normal">
<n1:circle cx="1900" cy="698.425" r="20"/>
</n1:g>

<n1:g fill="#000000" fill-opacity="1" stroke="none" transform="matrix(1,0,0,1,-1732.43,-334)" font-family="Sans" font-size="152.778" font-weight="400" font-style="normal">
<n1:circle cx="2096.85" cy="698.425" r="20"/>
</n1:g>

<n1:g fill="#000000" fill-opacity="1" stroke="none" transform="matrix(1,0,0,1,-1732.43,-334)" font-family="Sans" font-size="152.778" font-weight="400" font-style="normal">
<n1:circle cx="2120.47" cy="600" r="20"/>
</n1:g>

<n1:g fill="#000000" fill-opacity="1" stroke="none" transform="matrix(1,0,0,1,-1732.43,-334)" font-family="Sans" font-size="152.778" font-weight="400" font-style="normal">
<n1:circle cx="1876.38" cy="600" r="20"/>
</n1:g>

<n1:g fill="none" stroke="#f0f000" stroke-opacity="1" stroke-width="10" stroke-linecap="round" stroke-linejoin="bevel" transform="matrix(1,0,0,1,-1732.43,-334)" font-family="Sans" font-size="152.778" font-weight="400" font-style="normal">
<n1:path vector-effect="none" fill-rule="evenodd" d="M1998.43,836 C2128.76,836 2234.43,730.339 2234.43,600 C2234.43,469.661 2128.76,364 1998.43,364 C1868.09,364 1762.43,469.661 1762.43,600 C1762.43,730.339 1868.09,836 1998.43,836 "/>
<n1:polyline fill="none" vector-effect="none" points="1781.89,521.26 1781.89,678.74 "/>
<n1:path vector-effect="none" fill-rule="evenodd" d="M1998.43,777.165 C2096.27,777.165 2175.59,697.846 2175.59,600 C2175.59,502.154 2096.27,422.835 1998.43,422.835 C1900.58,422.835 1821.26,502.154 1821.26,600 C1821.26,697.846 1900.58,777.165 1998.43,777.165 "/>
</n1:g>
</n1:g>
</svg>
