<?xml version="1.0" encoding="UTF-8"?>
<svg width="12.954mm" height="14.224mm" viewBox="0 0 510 560.039" version="1.2" baseProfile="tiny" xmlns:n1="http://www.w3.org/2000/svg" xmlns:xlink="http://www.w3.org/1999/xlink" xmlns:cpcb="http://www.danielwagenaar.net/cpcb-ns.html">
  <cpcb:part pkg="DPDT-Newark-1MD1T1B1M1QE" xmlns="http://www.danielwagenaar.net/cpcb-ns.html">
    <group ref="S?">
      <trace p1="565150 190500" p2="565150 317500" w="2540" l="1"/>
      <hole p="532130 254000" id="10160" od="16510" ref="5/2:com" sl="19050"/>
      <hole p="532130 300990" id="10160" od="16510" ref="4/2:no" sl="19050"/>
      <hole p="532130 207010" id="10160" od="16510" ref="6/2:nc" sl="19050"/>
      <arc p="508000 190500" r="6350" lw="2540" l="1" ang="180" rota="90"/>
      <hole p="483870 207010" id="10160" od="16510" ref="3/1:nc" sl="19050"/>
      <hole p="483870 300990" id="10160" od="16510" sq="1" ref="1/1:no" sl="19050"/>
      <trace p1="450850 190500" p2="565150 190500" w="2540" l="1"/>
      <trace p1="450850 190500" p2="450850 317500" w="2540" l="1"/>
      <hole p="483870 254000" id="10160" od="16510" ref="2/1:com" sl="19050"/>
      <trace p1="565150 317500" p2="450850 317500" w="2540" l="1"/>
    </group>
    <text p="449580 176520" fs="12700" l="1" rot="0" text="S?"/>
  </cpcb:part>
<n1:title>PCB Component</n1:title>
<n1:desc>Generated by CPCB</n1:desc>
<n1:defs>
</n1:defs>
<n1:g fill="none" stroke="black" stroke-width="1" fill-rule="evenodd" stroke-linecap="square" stroke-linejoin="bevel">

<n1:g fill="#000000" fill-opacity="1" stroke="none" transform="matrix(1,0,0,1,-1745,-719.961)" font-family="Sans" font-size="152.778" font-weight="400" font-style="normal">
<n1:rect x="1745" y="719.961" width="510" height="560.039"/>
</n1:g>

<n1:g fill="#000000" fill-opacity="1" stroke="#00b400" stroke-opacity="1" stroke-width="65" stroke-linecap="round" stroke-linejoin="bevel" transform="matrix(1,0,0,1,-1745,-719.961)" font-family="Sans" font-size="152.778" font-weight="400" font-style="normal">
<n1:polyline fill="none" vector-effect="none" points="2058,1000 2132,1000 "/>
<n1:polyline fill="none" vector-effect="none" points="2058,1185 2132,1185 "/>
<n1:polyline fill="none" vector-effect="none" points="2058,815 2132,815 "/>
<n1:polyline fill="none" vector-effect="none" points="1868,815 1942,815 "/>
</n1:g>

<n1:g fill="#000000" fill-opacity="1" stroke="#00b400" stroke-opacity="1" stroke-width="65" stroke-linecap="butt" stroke-linejoin="bevel" transform="matrix(1,0,0,1,-1745,-719.961)" font-family="Sans" font-size="152.778" font-weight="400" font-style="normal">
<n1:polyline fill="none" vector-effect="none" points="1835,1185 1975,1185 "/>
</n1:g>

<n1:g fill="#000000" fill-opacity="1" stroke="#00b400" stroke-opacity="1" stroke-width="65" stroke-linecap="round" stroke-linejoin="bevel" transform="matrix(1,0,0,1,-1745,-719.961)" font-family="Sans" font-size="152.778" font-weight="400" font-style="normal">
<n1:polyline fill="none" vector-effect="none" points="1868,1000 1942,1000 "/>
</n1:g>

<n1:g fill="#000000" fill-opacity="1" stroke="#ff0000" stroke-opacity="1" stroke-width="65" stroke-linecap="round" stroke-linejoin="bevel" transform="matrix(1,0,0,1,-1745,-719.961)" font-family="Sans" font-size="152.778" font-weight="400" font-style="normal">
<n1:polyline fill="none" vector-effect="none" points="2058,1000 2132,1000 "/>
<n1:polyline fill="none" vector-effect="none" points="2058,1185 2132,1185 "/>
<n1:polyline fill="none" vector-effect="none" points="2058,815 2132,815 "/>
<n1:polyline fill="none" vector-effect="none" points="1868,815 1942,815 "/>
</n1:g>

<n1:g fill="#000000" fill-opacity="1" stroke="#ff0000" stroke-opacity="1" stroke-width="65" stroke-linecap="butt" stroke-linejoin="bevel" transform="matrix(1,0,0,1,-1745,-719.961)" font-family="Sans" font-size="152.778" font-weight="400" font-style="normal">
<n1:polyline fill="none" vector-effect="none" points="1835,1185 1975,1185 "/>
</n1:g>

<n1:g fill="#000000" fill-opacity="1" stroke="#ff0000" stroke-opacity="1" stroke-width="65" stroke-linecap="round" stroke-linejoin="bevel" transform="matrix(1,0,0,1,-1745,-719.961)" font-family="Sans" font-size="152.778" font-weight="400" font-style="normal">
<n1:polyline fill="none" vector-effect="none" points="1868,1000 1942,1000 "/>
</n1:g>

<n1:g fill="#000000" fill-opacity="1" stroke="#ffffff" stroke-opacity="1" stroke-width="40" stroke-linecap="round" stroke-linejoin="bevel" transform="matrix(1,0,0,1,-1745,-719.961)" font-family="Sans" font-size="152.778" font-weight="400" font-style="normal">
<n1:polyline fill="none" vector-effect="none" points="2058,1000 2132,1000 "/>
<n1:polyline fill="none" vector-effect="none" points="2058,1185 2132,1185 "/>
<n1:polyline fill="none" vector-effect="none" points="2058,815 2132,815 "/>
<n1:polyline fill="none" vector-effect="none" points="1868,815 1942,815 "/>
<n1:polyline fill="none" vector-effect="none" points="1868,1185 1942,1185 "/>
<n1:polyline fill="none" vector-effect="none" points="1868,1000 1942,1000 "/>
</n1:g>

<n1:g fill="#000000" fill-opacity="1" stroke="#f0f000" stroke-opacity="1" stroke-width="10" stroke-linecap="round" stroke-linejoin="bevel" transform="matrix(1,0,0,1,-1745,-719.961)" font-family="Sans" font-size="152.778" font-weight="400" font-style="normal">
<n1:polyline fill="none" vector-effect="none" points="2225,750 2225,1250 "/>
</n1:g>

<n1:g fill="none" stroke="#f0f000" stroke-opacity="1" stroke-width="10" stroke-linecap="round" stroke-linejoin="bevel" transform="matrix(1,0,0,1,-1745,-719.961)" font-family="Sans" font-size="152.778" font-weight="400" font-style="normal">
<n1:path vector-effect="none" fill-rule="evenodd" d="M1975,750 C1975,763.807 1986.19,775 2000,775 C2013.81,775 2025,763.807 2025,750 "/>
<n1:polyline fill="none" vector-effect="none" points="1775,750 2225,750 "/>
<n1:polyline fill="none" vector-effect="none" points="1775,750 1775,1250 "/>
<n1:polyline fill="none" vector-effect="none" points="2225,1250 1775,1250 "/>
</n1:g>
</n1:g>
</svg>
