<?xml version="1.0" encoding="UTF-8"?>
<svg width="146.71mm" height="172.695mm" viewBox="0 0 577.559 679.921" version="1.2" baseProfile="tiny" xmlns:n1="http://www.w3.org/2000/svg" xmlns:xlink="http://www.w3.org/1999/xlink" xmlns:cpcb="http://www.danielwagenaar.net/cpcb-ns.html">
  <cpcb:part pkg="PEC11R" notes="E.g., PEC11R-4215K-N0024&#10;Rotary encoder&#10;Height is 6.5 + 15 mm&#10;Knurl has 18 teeth, 6 mm diam.&#10;Thread is 5 mm tall M7. Washer is 12 mm diam, nut is 10 mm flat to flat x 2 mm thick." xmlns="http://www.danielwagenaar.net/cpcb-ns.html">
    <group ref="S?" pkg="PEC11R" notes="E.g., PEC11R-4215K-N0024&#10;Rotary encoder&#10;Height is 6.5 + 15 mm&#10;Knurl has 18 teeth, 6 mm diam.&#10;Thread is 5 mm tall M7. Washer is 12 mm diam, nut is 10 mm flat to flat x 2 mm thick.">
      <trace p1="337500 467000" p2="337500 333000" w="2540" l="1"/>
      <trace p1="462500 467000" p2="337500 467000" w="2540" l="1"/>
      <arc p="400000 400000" r="35000" lw="2540" l="1" ang="360" rota="180"/>
      <hole p="343000 400000" id="16190" od="20000" ref="" sl="13000" rot="270"/>
      <hole p="457000 400000" id="16190" od="20000" ref="" sl="13000" rot="270"/>
      <hole p="400000 475000" id="10000" od="15000" ref="C"/>
      <hole p="375000 475000" id="10000" od="15000" ref="A"/>
      <hole p="425000 475000" id="10000" od="15000" ref="B"/>
      <hole p="425000 330000" id="10000" od="15000" ref="S2"/>
      <hole p="375000 330000" id="10000" od="15000" ref="S1"/>
      <trace p1="462500 333000" p2="462500 467000" w="2540" l="1"/>
      <trace p1="337500 333000" p2="462500 333000" w="2540" l="1"/>
    </group>
    <text p="333000 309800" fs="12700" l="1" rot="0" text="S?"/>
  </cpcb:part>
<n1:title>PCB Component</n1:title>
<n1:desc>Generated by CPCB</n1:desc>
<n1:defs>
</n1:defs>
<n1:g fill="none" stroke="black" stroke-width="1" fill-rule="evenodd" stroke-linecap="square" stroke-linejoin="bevel">

<n1:g fill="#000000" fill-opacity="1" stroke="none" transform="matrix(1,0,0,1,-1286.02,-1244.69)" font-family="Sans" font-size="152.778" font-weight="400" font-style="normal">
<n1:rect x="1286.02" y="1244.69" width="577.559" height="679.921"/>
</n1:g>

<n1:g fill="#000000" fill-opacity="1" stroke="#00b400" stroke-opacity="1" stroke-width="78.7402" stroke-linecap="round" stroke-linejoin="bevel" transform="matrix(1,0,0,1,-1286.02,-1244.69)" font-family="Sans" font-size="152.778" font-weight="400" font-style="normal">
<n1:polyline fill="none" vector-effect="none" points="1350.39,1600.39 1350.39,1549.21 "/>
<n1:polyline fill="none" vector-effect="none" points="1799.21,1600.39 1799.21,1549.21 "/>
</n1:g>

<n1:g fill="#00b400" fill-opacity="1" stroke="none" transform="matrix(1,0,0,1,-1286.02,-1244.69)" font-family="Sans" font-size="152.778" font-weight="400" font-style="normal">
<n1:circle cx="1574.8" cy="1870.08" r="29.5276"/>
</n1:g>

<n1:g fill="#00b400" fill-opacity="1" stroke="none" transform="matrix(1,0,0,1,-1286.02,-1244.69)" font-family="Sans" font-size="152.778" font-weight="400" font-style="normal">
<n1:circle cx="1476.38" cy="1870.08" r="29.5276"/>
</n1:g>

<n1:g fill="#00b400" fill-opacity="1" stroke="none" transform="matrix(1,0,0,1,-1286.02,-1244.69)" font-family="Sans" font-size="152.778" font-weight="400" font-style="normal">
<n1:circle cx="1673.23" cy="1870.08" r="29.5276"/>
</n1:g>

<n1:g fill="#00b400" fill-opacity="1" stroke="none" transform="matrix(1,0,0,1,-1286.02,-1244.69)" font-family="Sans" font-size="152.778" font-weight="400" font-style="normal">
<n1:circle cx="1673.23" cy="1299.21" r="29.5276"/>
</n1:g>

<n1:g fill="#00b400" fill-opacity="1" stroke="none" transform="matrix(1,0,0,1,-1286.02,-1244.69)" font-family="Sans" font-size="152.778" font-weight="400" font-style="normal">
<n1:circle cx="1476.38" cy="1299.21" r="29.5276"/>
</n1:g>

<n1:g fill="#00b400" fill-opacity="1" stroke="#ff0000" stroke-opacity="1" stroke-width="78.7402" stroke-linecap="round" stroke-linejoin="bevel" transform="matrix(1,0,0,1,-1286.02,-1244.69)" font-family="Sans" font-size="152.778" font-weight="400" font-style="normal">
<n1:polyline fill="none" vector-effect="none" points="1350.39,1600.39 1350.39,1549.21 "/>
<n1:polyline fill="none" vector-effect="none" points="1799.21,1600.39 1799.21,1549.21 "/>
</n1:g>

<n1:g fill="#ff0000" fill-opacity="1" stroke="none" transform="matrix(1,0,0,1,-1286.02,-1244.69)" font-family="Sans" font-size="152.778" font-weight="400" font-style="normal">
<n1:circle cx="1574.8" cy="1870.08" r="29.5276"/>
</n1:g>

<n1:g fill="#ff0000" fill-opacity="1" stroke="none" transform="matrix(1,0,0,1,-1286.02,-1244.69)" font-family="Sans" font-size="152.778" font-weight="400" font-style="normal">
<n1:circle cx="1476.38" cy="1870.08" r="29.5276"/>
</n1:g>

<n1:g fill="#ff0000" fill-opacity="1" stroke="none" transform="matrix(1,0,0,1,-1286.02,-1244.69)" font-family="Sans" font-size="152.778" font-weight="400" font-style="normal">
<n1:circle cx="1673.23" cy="1870.08" r="29.5276"/>
</n1:g>

<n1:g fill="#ff0000" fill-opacity="1" stroke="none" transform="matrix(1,0,0,1,-1286.02,-1244.69)" font-family="Sans" font-size="152.778" font-weight="400" font-style="normal">
<n1:circle cx="1673.23" cy="1299.21" r="29.5276"/>
</n1:g>

<n1:g fill="#ff0000" fill-opacity="1" stroke="none" transform="matrix(1,0,0,1,-1286.02,-1244.69)" font-family="Sans" font-size="152.778" font-weight="400" font-style="normal">
<n1:circle cx="1476.38" cy="1299.21" r="29.5276"/>
</n1:g>

<n1:g fill="#ff0000" fill-opacity="1" stroke="#000000" stroke-opacity="1" stroke-width="63.7402" stroke-linecap="round" stroke-linejoin="bevel" transform="matrix(1,0,0,1,-1286.02,-1244.69)" font-family="Sans" font-size="152.778" font-weight="400" font-style="normal">
<n1:polyline fill="none" vector-effect="none" points="1350.39,1600.39 1350.39,1549.21 "/>
<n1:polyline fill="none" vector-effect="none" points="1799.21,1600.39 1799.21,1549.21 "/>
</n1:g>

<n1:g fill="#000000" fill-opacity="1" stroke="none" transform="matrix(1,0,0,1,-1286.02,-1244.69)" font-family="Sans" font-size="152.778" font-weight="400" font-style="normal">
<n1:circle cx="1574.8" cy="1870.08" r="19.685"/>
</n1:g>

<n1:g fill="#000000" fill-opacity="1" stroke="none" transform="matrix(1,0,0,1,-1286.02,-1244.69)" font-family="Sans" font-size="152.778" font-weight="400" font-style="normal">
<n1:circle cx="1476.38" cy="1870.08" r="19.685"/>
</n1:g>

<n1:g fill="#000000" fill-opacity="1" stroke="none" transform="matrix(1,0,0,1,-1286.02,-1244.69)" font-family="Sans" font-size="152.778" font-weight="400" font-style="normal">
<n1:circle cx="1673.23" cy="1870.08" r="19.685"/>
</n1:g>

<n1:g fill="#000000" fill-opacity="1" stroke="none" transform="matrix(1,0,0,1,-1286.02,-1244.69)" font-family="Sans" font-size="152.778" font-weight="400" font-style="normal">
<n1:circle cx="1673.23" cy="1299.21" r="19.685"/>
</n1:g>

<n1:g fill="#000000" fill-opacity="1" stroke="none" transform="matrix(1,0,0,1,-1286.02,-1244.69)" font-family="Sans" font-size="152.778" font-weight="400" font-style="normal">
<n1:circle cx="1476.38" cy="1299.21" r="19.685"/>
</n1:g>

<n1:g fill="#000000" fill-opacity="1" stroke="#f0f000" stroke-opacity="1" stroke-width="10" stroke-linecap="round" stroke-linejoin="bevel" transform="matrix(1,0,0,1,-1286.02,-1244.69)" font-family="Sans" font-size="152.778" font-weight="400" font-style="normal">
<n1:polyline fill="none" vector-effect="none" points="1328.74,1838.58 1328.74,1311.02 "/>
<n1:polyline fill="none" vector-effect="none" points="1820.87,1838.58 1328.74,1838.58 "/>
</n1:g>

<n1:g fill="none" stroke="#f0f000" stroke-opacity="1" stroke-width="10" stroke-linecap="round" stroke-linejoin="bevel" transform="matrix(1,0,0,1,-1286.02,-1244.69)" font-family="Sans" font-size="152.778" font-weight="400" font-style="normal">
<n1:path vector-effect="none" fill-rule="evenodd" d="M1574.8,1712.6 C1650.91,1712.6 1712.6,1650.91 1712.6,1574.8 C1712.6,1498.7 1650.91,1437.01 1574.8,1437.01 C1498.7,1437.01 1437.01,1498.7 1437.01,1574.8 C1437.01,1650.91 1498.7,1712.6 1574.8,1712.6 "/>
<n1:polyline fill="none" vector-effect="none" points="1820.87,1311.02 1820.87,1838.58 "/>
<n1:polyline fill="none" vector-effect="none" points="1328.74,1311.02 1820.87,1311.02 "/>
</n1:g>
</n1:g>
</svg>
