<?xml version="1.0" encoding="UTF-8"?>
<svg width="14.224mm" height="24.13mm" viewBox="0 0 560 950" version="1.2" baseProfile="tiny" xmlns:n1="http://www.w3.org/2000/svg" xmlns:xlink="http://www.w3.org/1999/xlink" xmlns:cpcb="http://www.danielwagenaar.net/cpcb-ns.html">
  <cpcb:part pkg="SPDT-Digikey-EG2381-ND" xmlns="http://www.danielwagenaar.net/cpcb-ns.html">
    <group ref="S1" pkg="SPDT-Digikey-EG2381-ND">
      <hole p="300990 146050" id="18542" od="24130" ref="3/no" fp="3"/>
      <hole p="254000 146050" id="18542" od="24130" ref="2/com"/>
      <trace p1="279400 -38100" p2="279400 19050" w="2540" l="1"/>
      <trace p1="228600 -38100" p2="279400 -38100" w="2540" l="1"/>
      <trace p1="317500 19050" p2="190500 19050" w="2540" l="1"/>
      <trace p1="317500 146050" p2="317500 19050" w="2540" l="1"/>
      <trace p1="228600 19050" p2="228600 -38100" w="2540" l="1"/>
      <trace p1="190500 19050" p2="190500 146050" w="2540" l="1"/>
      <hole p="228600 19050" id="18542" od="24130" ref=""/>
      <hole p="207010 146050" id="18542" od="24130" ref="1/nc"/>
      <trace p1="190500 146050" p2="317500 146050" w="2540" l="1"/>
      <hole p="279400 19050" id="18542" od="24130" ref=""/>
      <arc p="254000 -34290" r="31115" lw="2540" l="4" ang="360" rota="180"/>
      <trace p1="228600 0" p2="279400 0" w="3810" l="4"/>
    </group>
    <text p="163830 24130" fs="12700" l="1" rot="0" text="S1"/>
  </cpcb:part>
<n1:title>PCB Component</n1:title>
<n1:desc>Generated by CPCB</n1:desc>
<n1:defs>
</n1:defs>
<n1:g fill="none" stroke="black" stroke-width="1" fill-rule="evenodd" stroke-linecap="square" stroke-linejoin="bevel">

<n1:g fill="#000000" fill-opacity="1" stroke="none" transform="matrix(1,0,0,1,-720,287.5)" font-family="Sans" font-size="125" font-weight="400" font-style="normal">
<n1:rect x="720" y="-287.5" width="560" height="950"/>
</n1:g>

<n1:g fill="#00b400" fill-opacity="1" stroke="none" transform="matrix(1,0,0,1,-720,287.5)" font-family="Sans" font-size="125" font-weight="400" font-style="normal">
<n1:circle cx="1185" cy="575" r="47.5"/>
</n1:g>

<n1:g fill="#00b400" fill-opacity="1" stroke="#00b400" stroke-opacity="1" stroke-width="12" stroke-linecap="butt" stroke-linejoin="bevel" transform="matrix(1,0,0,1,-720,287.5)" font-family="Sans" font-size="125" font-weight="400" font-style="normal">
<n1:polyline fill="none" vector-effect="none" points="1120.5,575 1249.5,575 "/>
<n1:polyline fill="none" vector-effect="none" points="1185,510.5 1185,639.5 "/>
</n1:g>

<n1:g fill="#00b400" fill-opacity="1" stroke="none" transform="matrix(1,0,0,1,-720,287.5)" font-family="Sans" font-size="125" font-weight="400" font-style="normal">
<n1:circle cx="1000" cy="575" r="47.5"/>
</n1:g>

<n1:g fill="#00b400" fill-opacity="1" stroke="none" transform="matrix(1,0,0,1,-720,287.5)" font-family="Sans" font-size="125" font-weight="400" font-style="normal">
<n1:circle cx="900" cy="75" r="47.5"/>
</n1:g>

<n1:g fill="#00b400" fill-opacity="1" stroke="none" transform="matrix(1,0,0,1,-720,287.5)" font-family="Sans" font-size="125" font-weight="400" font-style="normal">
<n1:circle cx="815" cy="575" r="47.5"/>
</n1:g>

<n1:g fill="#00b400" fill-opacity="1" stroke="none" transform="matrix(1,0,0,1,-720,287.5)" font-family="Sans" font-size="125" font-weight="400" font-style="normal">
<n1:circle cx="1100" cy="75" r="47.5"/>
</n1:g>

<n1:g fill="#ff0000" fill-opacity="1" stroke="none" transform="matrix(1,0,0,1,-720,287.5)" font-family="Sans" font-size="125" font-weight="400" font-style="normal">
<n1:circle cx="1185" cy="575" r="47.5"/>
</n1:g>

<n1:g fill="#ff0000" fill-opacity="1" stroke="none" transform="matrix(1,0,0,1,-720,287.5)" font-family="Sans" font-size="125" font-weight="400" font-style="normal">
<n1:circle cx="1000" cy="575" r="47.5"/>
</n1:g>

<n1:g fill="#ff0000" fill-opacity="1" stroke="none" transform="matrix(1,0,0,1,-720,287.5)" font-family="Sans" font-size="125" font-weight="400" font-style="normal">
<n1:circle cx="900" cy="75" r="47.5"/>
</n1:g>

<n1:g fill="#ff0000" fill-opacity="1" stroke="none" transform="matrix(1,0,0,1,-720,287.5)" font-family="Sans" font-size="125" font-weight="400" font-style="normal">
<n1:circle cx="815" cy="575" r="47.5"/>
</n1:g>

<n1:g fill="#ff0000" fill-opacity="1" stroke="none" transform="matrix(1,0,0,1,-720,287.5)" font-family="Sans" font-size="125" font-weight="400" font-style="normal">
<n1:circle cx="1100" cy="75" r="47.5"/>
</n1:g>

<n1:g fill="#ffffff" fill-opacity="1" stroke="none" transform="matrix(1,0,0,1,-720,287.5)" font-family="Sans" font-size="125" font-weight="400" font-style="normal">
<n1:circle cx="1185" cy="575" r="36.5"/>
</n1:g>

<n1:g fill="#ffffff" fill-opacity="1" stroke="none" transform="matrix(1,0,0,1,-720,287.5)" font-family="Sans" font-size="125" font-weight="400" font-style="normal">
<n1:circle cx="1000" cy="575" r="36.5"/>
</n1:g>

<n1:g fill="#ffffff" fill-opacity="1" stroke="none" transform="matrix(1,0,0,1,-720,287.5)" font-family="Sans" font-size="125" font-weight="400" font-style="normal">
<n1:circle cx="900" cy="75" r="36.5"/>
</n1:g>

<n1:g fill="#ffffff" fill-opacity="1" stroke="none" transform="matrix(1,0,0,1,-720,287.5)" font-family="Sans" font-size="125" font-weight="400" font-style="normal">
<n1:circle cx="815" cy="575" r="36.5"/>
</n1:g>

<n1:g fill="#ffffff" fill-opacity="1" stroke="none" transform="matrix(1,0,0,1,-720,287.5)" font-family="Sans" font-size="125" font-weight="400" font-style="normal">
<n1:circle cx="1100" cy="75" r="36.5"/>
</n1:g>

<n1:g fill="#ffffff" fill-opacity="1" stroke="#f0f000" stroke-opacity="1" stroke-width="10" stroke-linecap="round" stroke-linejoin="bevel" transform="matrix(1,0,0,1,-720,287.5)" font-family="Sans" font-size="125" font-weight="400" font-style="normal">
<n1:polyline fill="none" vector-effect="none" points="1100,-150 1100,75 "/>
<n1:polyline fill="none" vector-effect="none" points="900,-150 1100,-150 "/>
<n1:polyline fill="none" vector-effect="none" points="1250,75 750,75 "/>
<n1:polyline fill="none" vector-effect="none" points="1250,575 1250,75 "/>
<n1:polyline fill="none" vector-effect="none" points="900,75 900,-150 "/>
<n1:polyline fill="none" vector-effect="none" points="750,75 750,575 "/>
<n1:polyline fill="none" vector-effect="none" points="750,575 1250,575 "/>
</n1:g>

<n1:g fill="none" stroke="#9664ff" stroke-opacity="1" stroke-width="10" stroke-linecap="round" stroke-linejoin="bevel" transform="matrix(1,0,0,1,-720,287.5)" font-family="Sans" font-size="125" font-weight="400" font-style="normal">
<n1:path vector-effect="none" fill-rule="evenodd" d="M1000,-12.5 C1067.65,-12.5 1122.5,-67.3451 1122.5,-135 C1122.5,-202.655 1067.65,-257.5 1000,-257.5 C932.345,-257.5 877.5,-202.655 877.5,-135 C877.5,-67.3451 932.345,-12.5 1000,-12.5 "/>
</n1:g>

<n1:g fill="none" stroke="#9664ff" stroke-opacity="1" stroke-width="15" stroke-linecap="round" stroke-linejoin="bevel" transform="matrix(1,0,0,1,-720,287.5)" font-family="Sans" font-size="125" font-weight="400" font-style="normal">
<n1:polyline fill="none" vector-effect="none" points="900,0 1100,0 "/>
</n1:g>
</n1:g>
</svg>
