<?xml version="1.0" encoding="UTF-8"?>
<svg width="76.2mm" height="76.2mm" viewBox="0 0 300 300" version="1.2" baseProfile="tiny" xmlns:n1="http://www.w3.org/2000/svg" xmlns:xlink="http://www.w3.org/1999/xlink" xmlns:cpcb="http://www.danielwagenaar.net/cpcb-ns.html">
  <cpcb:part pkg="PowerPAK 1212-8" xmlns="http://www.danielwagenaar.net/cpcb-ns.html">
    <group ref="Q?" pkg="PowerPAK 1212-8">
      <pad p="419500 330600" w="3000" h="8000" l="2" ref="G"/>
      <pad p="406400 330600" w="3000" h="8000" l="2" ref=""/>
      <pad p="413000 330600" w="3000" h="8000" l="2" ref=""/>
      <pad p="409800 310000" w="21000" h="16000" l="2" ref="D"/>
      <pad p="419500 298000" w="3000" h="8000" l="2" ref=""/>
      <pad p="396100 316700" w="7000" h="2540" l="2" ref=""/>
      <pad p="423500 316700" w="7000" h="2540" l="2" ref=""/>
      <pad p="400000 298000" w="3000" h="8000" l="2" ref=""/>
      <pad p="413000 298000" w="3000" h="8000" l="2" ref=""/>
      <pad p="406400 298000" w="3000" h="8000" l="2" ref=""/>
      <trace p1="400000 330600" p2="413000 330600" w="2540" l="2"/>
      <pad p="400000 330600" w="3000" h="8000" l="2" ref="S"/>
    </group>
    <text p="392600 281300" fs="12700" l="1" rot="0" text="Q?"/>
  </cpcb:part>
<n1:title>PCB Component</n1:title>
<n1:desc>Generated by CPCB</n1:desc>
<n1:defs>
</n1:defs>
<n1:g fill="none" stroke="black" stroke-width="1" fill-rule="evenodd" stroke-linecap="square" stroke-linejoin="bevel">

<n1:g fill="#000000" fill-opacity="1" stroke="none" transform="matrix(1,0,0,1,-1463.39,-1087.4)" font-family="Ubuntu" font-size="152.778" font-weight="400" font-style="normal">
<n1:rect x="1463.39" y="1087.4" width="300" height="300"/>
</n1:g>

<n1:g fill="#ff0000" fill-opacity="1" stroke="none" transform="matrix(1,0,0,1,-1463.39,-1087.4)" font-family="Ubuntu" font-size="152.778" font-weight="400" font-style="normal">
<n1:rect x="1645.67" y="1285.83" width="11.811" height="31.4961"/>
</n1:g>

<n1:g fill="#ff0000" fill-opacity="1" stroke="none" transform="matrix(1,0,0,1,-1463.39,-1087.4)" font-family="Ubuntu" font-size="152.778" font-weight="400" font-style="normal">
<n1:rect x="1594.09" y="1285.83" width="11.811" height="31.4961"/>
</n1:g>

<n1:g fill="#ff0000" fill-opacity="1" stroke="none" transform="matrix(1,0,0,1,-1463.39,-1087.4)" font-family="Ubuntu" font-size="152.778" font-weight="400" font-style="normal">
<n1:rect x="1620.08" y="1285.83" width="11.811" height="31.4961"/>
</n1:g>

<n1:g fill="#ff0000" fill-opacity="1" stroke="none" transform="matrix(1,0,0,1,-1463.39,-1087.4)" font-family="Ubuntu" font-size="152.778" font-weight="400" font-style="normal">
<n1:rect x="1572.05" y="1188.98" width="82.6772" height="62.9921"/>
</n1:g>

<n1:g fill="#ff0000" fill-opacity="1" stroke="none" transform="matrix(1,0,0,1,-1463.39,-1087.4)" font-family="Ubuntu" font-size="152.778" font-weight="400" font-style="normal">
<n1:rect x="1645.67" y="1157.48" width="11.811" height="31.4961"/>
</n1:g>

<n1:g fill="#ff0000" fill-opacity="1" stroke="none" transform="matrix(1,0,0,1,-1463.39,-1087.4)" font-family="Ubuntu" font-size="152.778" font-weight="400" font-style="normal">
<n1:rect x="1545.67" y="1241.85" width="27.5591" height="10"/>
</n1:g>

<n1:g fill="#ff0000" fill-opacity="1" stroke="none" transform="matrix(1,0,0,1,-1463.39,-1087.4)" font-family="Ubuntu" font-size="152.778" font-weight="400" font-style="normal">
<n1:rect x="1653.54" y="1241.85" width="27.5591" height="10"/>
</n1:g>

<n1:g fill="#ff0000" fill-opacity="1" stroke="none" transform="matrix(1,0,0,1,-1463.39,-1087.4)" font-family="Ubuntu" font-size="152.778" font-weight="400" font-style="normal">
<n1:rect x="1568.9" y="1157.48" width="11.811" height="31.4961"/>
</n1:g>

<n1:g fill="#ff0000" fill-opacity="1" stroke="none" transform="matrix(1,0,0,1,-1463.39,-1087.4)" font-family="Ubuntu" font-size="152.778" font-weight="400" font-style="normal">
<n1:rect x="1620.08" y="1157.48" width="11.811" height="31.4961"/>
</n1:g>

<n1:g fill="#ff0000" fill-opacity="1" stroke="none" transform="matrix(1,0,0,1,-1463.39,-1087.4)" font-family="Ubuntu" font-size="152.778" font-weight="400" font-style="normal">
<n1:rect x="1594.09" y="1157.48" width="11.811" height="31.4961"/>
</n1:g>

<n1:g fill="#ff0000" fill-opacity="1" stroke="#ff0000" stroke-opacity="1" stroke-width="10" stroke-linecap="round" stroke-linejoin="bevel" transform="matrix(1,0,0,1,-1463.39,-1087.4)" font-family="Ubuntu" font-size="152.778" font-weight="400" font-style="normal">
<n1:polyline fill="none" vector-effect="none" points="1574.8,1301.57 1625.98,1301.57 "/>
</n1:g>

<n1:g fill="#ff0000" fill-opacity="1" stroke="none" transform="matrix(1,0,0,1,-1463.39,-1087.4)" font-family="Ubuntu" font-size="152.778" font-weight="400" font-style="normal">
<n1:rect x="1568.9" y="1285.83" width="11.811" height="31.4961"/>
</n1:g>
</n1:g>
</svg>
