G04 Layer: TopSilkscreenLayer*
G04 EasyEDA v6.5.22, 2022-12-21 08:12:38*
G04 8e17229fd1eb40258f3fcda7e00a02c7,ccb042887e1b45bcae5c3cd8497bc615,10*
G04 Gerber Generator version 0.2*
G04 Scale: 100 percent, Rotated: No, Reflected: No *
G04 Dimensions in millimeters *
G04 leading zeros omitted , absolute positions ,4 integer and 5 decimal *
%FSLAX45Y45*%
%MOMM*%

%ADD10C,0.1524*%
%ADD11C,0.2540*%
%ADD12C,0.3000*%

%LPD*%
D10*
X4381500Y4534915D02*
G01*
X4381500Y4456937D01*
X4386579Y4441444D01*
X4396993Y4431029D01*
X4412741Y4425950D01*
X4423156Y4425950D01*
X4438650Y4431029D01*
X4449063Y4441444D01*
X4454143Y4456937D01*
X4454143Y4534915D01*
X4488434Y4514087D02*
G01*
X4498847Y4519421D01*
X4514595Y4534915D01*
X4514595Y4425950D01*
X5129784Y3949700D02*
G01*
X5207761Y3949700D01*
X5223256Y3954779D01*
X5233670Y3965194D01*
X5238750Y3980942D01*
X5238750Y3991355D01*
X5233670Y4006850D01*
X5223256Y4017263D01*
X5207761Y4022344D01*
X5129784Y4022344D01*
X5155691Y4061968D02*
G01*
X5150611Y4061968D01*
X5140197Y4067047D01*
X5134863Y4072381D01*
X5129784Y4082795D01*
X5129784Y4103370D01*
X5134863Y4113784D01*
X5140197Y4119118D01*
X5150611Y4124197D01*
X5161025Y4124197D01*
X5171440Y4119118D01*
X5186934Y4108704D01*
X5238750Y4056634D01*
X5238750Y4129531D01*
X6832600Y3415284D02*
G01*
X6832600Y3493262D01*
X6827520Y3508755D01*
X6817106Y3519170D01*
X6801358Y3524250D01*
X6790943Y3524250D01*
X6775450Y3519170D01*
X6765036Y3508755D01*
X6759956Y3493262D01*
X6759956Y3415284D01*
X6715252Y3415284D02*
G01*
X6658102Y3415284D01*
X6689090Y3456939D01*
X6673595Y3456939D01*
X6663181Y3462020D01*
X6658102Y3467100D01*
X6652768Y3482847D01*
X6652768Y3493262D01*
X6658102Y3508755D01*
X6668515Y3519170D01*
X6684009Y3524250D01*
X6699504Y3524250D01*
X6715252Y3519170D01*
X6720331Y3514089D01*
X6725665Y3503676D01*
X8446515Y3924300D02*
G01*
X8368538Y3924300D01*
X8353043Y3919220D01*
X8342629Y3908805D01*
X8337550Y3893057D01*
X8337550Y3882644D01*
X8342629Y3867150D01*
X8353043Y3856736D01*
X8368538Y3851655D01*
X8446515Y3851655D01*
X8446515Y3765295D02*
G01*
X8373872Y3817365D01*
X8373872Y3739387D01*
X8446515Y3765295D02*
G01*
X8337550Y3765295D01*
X3124200Y2947415D02*
G01*
X3124200Y2838450D01*
X3124200Y2947415D02*
G01*
X3170936Y2947415D01*
X3186429Y2942336D01*
X3191763Y2937002D01*
X3196843Y2926587D01*
X3196843Y2916173D01*
X3191763Y2905760D01*
X3186429Y2900679D01*
X3170936Y2895600D01*
X3124200Y2895600D01*
X3160522Y2895600D02*
G01*
X3196843Y2838450D01*
X3231134Y2926587D02*
G01*
X3241547Y2931921D01*
X3257295Y2947415D01*
X3257295Y2838450D01*
X3859784Y2730500D02*
G01*
X3968750Y2730500D01*
X3859784Y2730500D02*
G01*
X3859784Y2777236D01*
X3864863Y2792729D01*
X3870197Y2798063D01*
X3880611Y2803144D01*
X3891025Y2803144D01*
X3901440Y2798063D01*
X3906520Y2792729D01*
X3911600Y2777236D01*
X3911600Y2730500D01*
X3911600Y2766821D02*
G01*
X3968750Y2803144D01*
X3885691Y2842768D02*
G01*
X3880611Y2842768D01*
X3870197Y2847847D01*
X3864863Y2853181D01*
X3859784Y2863595D01*
X3859784Y2884170D01*
X3864863Y2894584D01*
X3870197Y2899918D01*
X3880611Y2904997D01*
X3891025Y2904997D01*
X3901440Y2899918D01*
X3916934Y2889504D01*
X3968750Y2837434D01*
X3968750Y2910331D01*
X4902200Y2437384D02*
G01*
X4902200Y2546350D01*
X4902200Y2437384D02*
G01*
X4855463Y2437384D01*
X4839970Y2442463D01*
X4834636Y2447797D01*
X4829556Y2458212D01*
X4829556Y2468626D01*
X4834636Y2479039D01*
X4839970Y2484120D01*
X4855463Y2489200D01*
X4902200Y2489200D01*
X4865877Y2489200D02*
G01*
X4829556Y2546350D01*
X4784852Y2437384D02*
G01*
X4727702Y2437384D01*
X4758690Y2479039D01*
X4743195Y2479039D01*
X4732781Y2484120D01*
X4727702Y2489200D01*
X4722368Y2504947D01*
X4722368Y2515362D01*
X4727702Y2530855D01*
X4738115Y2541270D01*
X4753609Y2546350D01*
X4769104Y2546350D01*
X4784852Y2541270D01*
X4789931Y2536189D01*
X4795265Y2525776D01*
X6033515Y2705100D02*
G01*
X5924550Y2705100D01*
X6033515Y2705100D02*
G01*
X6033515Y2658363D01*
X6028436Y2642870D01*
X6023102Y2637536D01*
X6012688Y2632455D01*
X6002274Y2632455D01*
X5991859Y2637536D01*
X5986779Y2642870D01*
X5981700Y2658363D01*
X5981700Y2705100D01*
X5981700Y2668778D02*
G01*
X5924550Y2632455D01*
X6033515Y2546095D02*
G01*
X5960872Y2598165D01*
X5960872Y2520187D01*
X6033515Y2546095D02*
G01*
X5924550Y2546095D01*
X2921000Y1791715D02*
G01*
X2921000Y1713737D01*
X2926079Y1698244D01*
X2936493Y1687829D01*
X2952241Y1682750D01*
X2962656Y1682750D01*
X2978150Y1687829D01*
X2988563Y1698244D01*
X2993643Y1713737D01*
X2993643Y1791715D01*
X3090418Y1791715D02*
G01*
X3038347Y1791715D01*
X3033268Y1744979D01*
X3038347Y1750060D01*
X3054095Y1755394D01*
X3069590Y1755394D01*
X3085084Y1750060D01*
X3095497Y1739900D01*
X3100831Y1724152D01*
X3100831Y1713737D01*
X3095497Y1698244D01*
X3085084Y1687829D01*
X3069590Y1682750D01*
X3054095Y1682750D01*
X3038347Y1687829D01*
X3033268Y1692910D01*
X3027934Y1703323D01*
X3656584Y1574800D02*
G01*
X3734561Y1574800D01*
X3750056Y1579879D01*
X3760470Y1590294D01*
X3765550Y1606042D01*
X3765550Y1616455D01*
X3760470Y1631950D01*
X3750056Y1642363D01*
X3734561Y1647444D01*
X3656584Y1647444D01*
X3672077Y1744218D02*
G01*
X3661663Y1738884D01*
X3656584Y1723389D01*
X3656584Y1712976D01*
X3661663Y1697481D01*
X3677411Y1687068D01*
X3703320Y1681734D01*
X3729227Y1681734D01*
X3750056Y1687068D01*
X3760470Y1697481D01*
X3765550Y1712976D01*
X3765550Y1718310D01*
X3760470Y1733804D01*
X3750056Y1744218D01*
X3734561Y1749297D01*
X3729227Y1749297D01*
X3713734Y1744218D01*
X3703320Y1733804D01*
X3698240Y1718310D01*
X3698240Y1712976D01*
X3703320Y1697481D01*
X3713734Y1687068D01*
X3729227Y1681734D01*
X4902200Y1281684D02*
G01*
X4902200Y1359662D01*
X4897120Y1375155D01*
X4886706Y1385570D01*
X4870958Y1390650D01*
X4860543Y1390650D01*
X4845050Y1385570D01*
X4834636Y1375155D01*
X4829556Y1359662D01*
X4829556Y1281684D01*
X4722368Y1281684D02*
G01*
X4774438Y1390650D01*
X4795265Y1281684D02*
G01*
X4722368Y1281684D01*
X6173215Y1511300D02*
G01*
X6095238Y1511300D01*
X6079743Y1506220D01*
X6069329Y1495805D01*
X6064250Y1480057D01*
X6064250Y1469644D01*
X6069329Y1454150D01*
X6079743Y1443736D01*
X6095238Y1438655D01*
X6173215Y1438655D01*
X6173215Y1378204D02*
G01*
X6168136Y1393952D01*
X6157722Y1399031D01*
X6147308Y1399031D01*
X6136893Y1393952D01*
X6131559Y1383537D01*
X6126479Y1362710D01*
X6121400Y1347215D01*
X6110986Y1336802D01*
X6100572Y1331468D01*
X6084824Y1331468D01*
X6074409Y1336802D01*
X6069329Y1341881D01*
X6064250Y1357629D01*
X6064250Y1378204D01*
X6069329Y1393952D01*
X6074409Y1399031D01*
X6084824Y1404365D01*
X6100572Y1404365D01*
X6110986Y1399031D01*
X6121400Y1388618D01*
X6126479Y1373123D01*
X6131559Y1352295D01*
X6136893Y1341881D01*
X6147308Y1336802D01*
X6157722Y1336802D01*
X6168136Y1341881D01*
X6173215Y1357629D01*
X6173215Y1378204D01*
X7289800Y3099815D02*
G01*
X7289800Y3021837D01*
X7294879Y3006344D01*
X7305293Y2995929D01*
X7321041Y2990850D01*
X7331456Y2990850D01*
X7346950Y2995929D01*
X7357363Y3006344D01*
X7362443Y3021837D01*
X7362443Y3099815D01*
X7464297Y3063494D02*
G01*
X7459218Y3048000D01*
X7448804Y3037586D01*
X7433309Y3032252D01*
X7427975Y3032252D01*
X7412481Y3037586D01*
X7402068Y3048000D01*
X7396734Y3063494D01*
X7396734Y3068573D01*
X7402068Y3084321D01*
X7412481Y3094736D01*
X7427975Y3099815D01*
X7433309Y3099815D01*
X7448804Y3094736D01*
X7459218Y3084321D01*
X7464297Y3063494D01*
X7464297Y3037586D01*
X7459218Y3011423D01*
X7448804Y2995929D01*
X7433309Y2990850D01*
X7422895Y2990850D01*
X7407147Y2995929D01*
X7402068Y3006344D01*
X9170415Y2590800D02*
G01*
X9092438Y2590800D01*
X9076943Y2585720D01*
X9066529Y2575305D01*
X9061450Y2559557D01*
X9061450Y2549144D01*
X9066529Y2533650D01*
X9076943Y2523236D01*
X9092438Y2518155D01*
X9170415Y2518155D01*
X9149588Y2483865D02*
G01*
X9154922Y2473452D01*
X9170415Y2457704D01*
X9061450Y2457704D01*
X9170415Y2392426D02*
G01*
X9165336Y2407920D01*
X9149588Y2418334D01*
X9123679Y2423413D01*
X9108186Y2423413D01*
X9082024Y2418334D01*
X9066529Y2407920D01*
X9061450Y2392426D01*
X9061450Y2382012D01*
X9066529Y2366263D01*
X9082024Y2355850D01*
X9108186Y2350770D01*
X9123679Y2350770D01*
X9149588Y2355850D01*
X9165336Y2366263D01*
X9170415Y2382012D01*
X9170415Y2392426D01*
X6780784Y1282700D02*
G01*
X6858761Y1282700D01*
X6874256Y1287779D01*
X6884670Y1298194D01*
X6889750Y1313942D01*
X6889750Y1324355D01*
X6884670Y1339850D01*
X6874256Y1350263D01*
X6858761Y1355344D01*
X6780784Y1355344D01*
X6801611Y1389634D02*
G01*
X6796277Y1400047D01*
X6780784Y1415795D01*
X6889750Y1415795D01*
X6801611Y1450086D02*
G01*
X6796277Y1460500D01*
X6780784Y1475994D01*
X6889750Y1475994D01*
X8458200Y748284D02*
G01*
X8458200Y826262D01*
X8453120Y841755D01*
X8442706Y852170D01*
X8426958Y857250D01*
X8416543Y857250D01*
X8401050Y852170D01*
X8390636Y841755D01*
X8385556Y826262D01*
X8385556Y748284D01*
X8351265Y769112D02*
G01*
X8340852Y763778D01*
X8325104Y748284D01*
X8325104Y857250D01*
X8285734Y774192D02*
G01*
X8285734Y769112D01*
X8280400Y758697D01*
X8275320Y753363D01*
X8264906Y748284D01*
X8244077Y748284D01*
X8233663Y753363D01*
X8228584Y758697D01*
X8223250Y769112D01*
X8223250Y779526D01*
X8228584Y789939D01*
X8238997Y805434D01*
X8290813Y857250D01*
X8218170Y857250D01*
X1739645Y4649215D02*
G01*
X1739645Y4571237D01*
X1744726Y4555744D01*
X1755139Y4545329D01*
X1770887Y4540250D01*
X1781302Y4540250D01*
X1796795Y4545329D01*
X1807210Y4555744D01*
X1812289Y4571237D01*
X1812289Y4649215D01*
X1846579Y4628387D02*
G01*
X1856994Y4633721D01*
X1872742Y4649215D01*
X1872742Y4540250D01*
X1917445Y4649215D02*
G01*
X1974595Y4649215D01*
X1943354Y4607560D01*
X1958847Y4607560D01*
X1969261Y4602479D01*
X1974595Y4597400D01*
X1979675Y4581652D01*
X1979675Y4571237D01*
X1974595Y4555744D01*
X1964181Y4545329D01*
X1948434Y4540250D01*
X1932940Y4540250D01*
X1917445Y4545329D01*
X1912112Y4550410D01*
X1907031Y4560823D01*
X2198115Y3238754D02*
G01*
X2120138Y3238754D01*
X2104643Y3233673D01*
X2094229Y3223260D01*
X2089150Y3207512D01*
X2089150Y3197097D01*
X2094229Y3181604D01*
X2104643Y3171189D01*
X2120138Y3166110D01*
X2198115Y3166110D01*
X2177288Y3131820D02*
G01*
X2182622Y3121405D01*
X2198115Y3105657D01*
X2089150Y3105657D01*
X2198115Y3019552D02*
G01*
X2125472Y3071368D01*
X2125472Y2993644D01*
X2198115Y3019552D02*
G01*
X2089150Y3019552D01*
X1727454Y1815084D02*
G01*
X1727454Y1893062D01*
X1722373Y1908555D01*
X1711960Y1918970D01*
X1696212Y1924050D01*
X1685797Y1924050D01*
X1670304Y1918970D01*
X1659889Y1908555D01*
X1654810Y1893062D01*
X1654810Y1815084D01*
X1620520Y1835912D02*
G01*
X1610105Y1830578D01*
X1594357Y1815084D01*
X1594357Y1924050D01*
X1497837Y1815084D02*
G01*
X1549654Y1815084D01*
X1554987Y1861820D01*
X1549654Y1856739D01*
X1534160Y1851405D01*
X1518665Y1851405D01*
X1502918Y1856739D01*
X1492504Y1866900D01*
X1487423Y1882647D01*
X1487423Y1893062D01*
X1492504Y1908555D01*
X1502918Y1918970D01*
X1518665Y1924050D01*
X1534160Y1924050D01*
X1549654Y1918970D01*
X1554987Y1913889D01*
X1560068Y1903476D01*
X1383284Y1155445D02*
G01*
X1461262Y1155445D01*
X1476755Y1160526D01*
X1487170Y1170939D01*
X1492250Y1186687D01*
X1492250Y1197102D01*
X1487170Y1212595D01*
X1476755Y1223010D01*
X1461262Y1228089D01*
X1383284Y1228089D01*
X1404112Y1262379D02*
G01*
X1398778Y1272794D01*
X1383284Y1288542D01*
X1492250Y1288542D01*
X1398778Y1385062D02*
G01*
X1388363Y1379981D01*
X1383284Y1364234D01*
X1383284Y1353820D01*
X1388363Y1338326D01*
X1404112Y1327912D01*
X1430020Y1322831D01*
X1455928Y1322831D01*
X1476755Y1327912D01*
X1487170Y1338326D01*
X1492250Y1353820D01*
X1492250Y1359154D01*
X1487170Y1374647D01*
X1476755Y1385062D01*
X1461262Y1390395D01*
X1455928Y1390395D01*
X1440434Y1385062D01*
X1430020Y1374647D01*
X1424939Y1359154D01*
X1424939Y1353820D01*
X1430020Y1338326D01*
X1440434Y1327912D01*
X1455928Y1322831D01*
G36*
X1328928Y4484725D02*
G01*
X1328928Y4399330D01*
X1374648Y4399330D01*
X1374648Y4484725D01*
G37*
G36*
X1328928Y4109669D02*
G01*
X1328928Y4024274D01*
X1374648Y4024274D01*
X1374648Y4109669D01*
G37*
G36*
X1948230Y3649472D02*
G01*
X1948230Y3603751D01*
X2033625Y3603751D01*
X2033625Y3649472D01*
G37*
G36*
X1573174Y3649472D02*
G01*
X1573174Y3603751D01*
X1658569Y3603751D01*
X1658569Y3649472D01*
G37*
G36*
X2092452Y2064969D02*
G01*
X2092452Y1979574D01*
X2138172Y1979574D01*
X2138172Y2064969D01*
G37*
G36*
X2092452Y2440025D02*
G01*
X2092452Y2354630D01*
X2138172Y2354630D01*
X2138172Y2440025D01*
G37*
G36*
X1547774Y790448D02*
G01*
X1547774Y744728D01*
X1633169Y744728D01*
X1633169Y790448D01*
G37*
G36*
X1922830Y790448D02*
G01*
X1922830Y744728D01*
X2008225Y744728D01*
X2008225Y790448D01*
G37*
X4154279Y3861059D02*
G01*
X4154279Y4165340D01*
X4659520Y4165340D01*
X4659520Y3861059D01*
X4154279Y3861059D01*
X5803640Y3722479D02*
G01*
X5499359Y3722479D01*
X5499359Y4227720D01*
X5803640Y4227720D01*
X5803640Y3722479D01*
X7059820Y4089140D02*
G01*
X7059820Y3784859D01*
X6554579Y3784859D01*
X6554579Y4089140D01*
X7059820Y4089140D01*
X7772659Y4151520D02*
G01*
X8076940Y4151520D01*
X8076940Y3646279D01*
X7772659Y3646279D01*
X7772659Y4151520D01*
X3219320Y2571790D02*
G01*
X3355312Y2571790D01*
X3355312Y2787609D01*
X3219320Y2787609D01*
X3029079Y2571790D02*
G01*
X2893087Y2571790D01*
X2893087Y2787609D01*
X3029079Y2787609D01*
X4235409Y2825620D02*
G01*
X4235409Y2961612D01*
X4019590Y2961612D01*
X4019590Y2825620D01*
X4235409Y2635379D02*
G01*
X4235409Y2499387D01*
X4019590Y2499387D01*
X4019590Y2635379D01*
X4807079Y2813009D02*
G01*
X4671087Y2813009D01*
X4671087Y2597190D01*
X4807079Y2597190D01*
X4997320Y2813009D02*
G01*
X5133312Y2813009D01*
X5133312Y2597190D01*
X4997320Y2597190D01*
X5657890Y2609979D02*
G01*
X5657890Y2473987D01*
X5873709Y2473987D01*
X5873709Y2609979D01*
X5657890Y2800220D02*
G01*
X5657890Y2936212D01*
X5873709Y2936212D01*
X5873709Y2800220D01*
D11*
X2869008Y1638300D02*
G01*
X2869008Y1409700D01*
X2760997Y1409700D02*
G01*
X2908188Y1409700D01*
X2908188Y1409700D01*
X3080999Y1409700D01*
X2761000Y1638300D02*
G01*
X3081002Y1638300D01*
X2761000Y1638300D02*
G01*
X2761000Y1617113D01*
X2761000Y1430886D02*
G01*
X2761000Y1409700D01*
X3081002Y1638300D02*
G01*
X3081002Y1617113D01*
X3081002Y1430886D02*
G01*
X3081002Y1409700D01*
X3810000Y1522808D02*
G01*
X4038600Y1522808D01*
X4038600Y1414797D02*
G01*
X4038600Y1561988D01*
X4038600Y1561988D01*
X4038600Y1734799D01*
X3810000Y1414800D02*
G01*
X3810000Y1734802D01*
X3810000Y1414800D02*
G01*
X3831186Y1414800D01*
X4017413Y1414800D02*
G01*
X4038600Y1414800D01*
X3810000Y1734802D02*
G01*
X3831186Y1734802D01*
X4017413Y1734802D02*
G01*
X4038600Y1734802D01*
X4954191Y1435100D02*
G01*
X4954191Y1663700D01*
X5062202Y1663700D02*
G01*
X4915011Y1663700D01*
X4915011Y1663700D01*
X4742200Y1663700D01*
X5062199Y1435100D02*
G01*
X4742197Y1435100D01*
X5062199Y1435100D02*
G01*
X5062199Y1456286D01*
X5062199Y1642513D02*
G01*
X5062199Y1663700D01*
X4742197Y1435100D02*
G01*
X4742197Y1456286D01*
X4742197Y1642513D02*
G01*
X4742197Y1663700D01*
X6019800Y1563291D02*
G01*
X5791200Y1563291D01*
X5791200Y1671302D02*
G01*
X5791200Y1524111D01*
X5791200Y1524111D01*
X5791200Y1351300D01*
X6019800Y1671299D02*
G01*
X6019800Y1351297D01*
X6019800Y1671299D02*
G01*
X5998613Y1671299D01*
X5812386Y1671299D02*
G01*
X5791200Y1671299D01*
X6019800Y1351297D02*
G01*
X5998613Y1351297D01*
X5812386Y1351297D02*
G01*
X5791200Y1351297D01*
D10*
X7150160Y2263378D02*
G01*
X7150160Y2943621D01*
X7429439Y2943621D01*
X7429439Y2263378D01*
X7150160Y2263378D01*
X8333978Y2730439D02*
G01*
X9014221Y2730439D01*
X9014221Y2451160D01*
X8333978Y2451160D01*
X8333978Y2730439D01*
X7617221Y1143060D02*
G01*
X6936978Y1143060D01*
X6936978Y1422339D01*
X7617221Y1422339D01*
X7617221Y1143060D01*
X8597839Y1584721D02*
G01*
X8597839Y904478D01*
X8318560Y904478D01*
X8318560Y1584721D01*
X8597839Y1584721D01*
X1367022Y4031879D02*
G01*
X2112269Y4031879D01*
X1519969Y4477120D02*
G01*
X1519969Y4031879D01*
X1367022Y4477120D02*
G01*
X2112269Y4477120D01*
X2112269Y4477120D02*
G01*
X2112269Y4404418D01*
X2112269Y4031879D02*
G01*
X2112269Y4104581D01*
X1580779Y3611377D02*
G01*
X1580779Y2866130D01*
X2026020Y3458430D02*
G01*
X1580779Y3458430D01*
X2026020Y3611377D02*
G01*
X2026020Y2866130D01*
X2026020Y2866130D02*
G01*
X1953318Y2866130D01*
X1580779Y2866130D02*
G01*
X1653481Y2866130D01*
X2100077Y2432420D02*
G01*
X1354830Y2432420D01*
X1947130Y1987179D02*
G01*
X1947130Y2432420D01*
X2100077Y1987179D02*
G01*
X1354830Y1987179D01*
X1354830Y1987179D02*
G01*
X1354830Y2059881D01*
X1354830Y2432420D02*
G01*
X1354830Y2359718D01*
X2000620Y782822D02*
G01*
X2000620Y1528069D01*
X1555379Y935769D02*
G01*
X2000620Y935769D01*
X1555379Y782822D02*
G01*
X1555379Y1528069D01*
X1555379Y1528069D02*
G01*
X1628081Y1528069D01*
X2000620Y1528069D02*
G01*
X1927918Y1528069D01*
D12*
G75*
G01
X4231411Y3936289D02*
G03X4231411Y3936289I-15011J0D01*
G75*
G01
X4156761Y3735959D02*
G03X4156761Y3735959I-15011J0D01*
G75*
G01
X5743423Y3784600D02*
G03X5743423Y3784600I-15011J0D01*
G75*
G01
X5943752Y3709949D02*
G03X5943752Y3709949I-15011J0D01*
G75*
G01
X7012711Y4013911D02*
G03X7012711Y4013911I-15011J0D01*
G75*
G01
X7087362Y4214241D02*
G03X7087362Y4214241I-15011J0D01*
G75*
G01
X7862900Y4089400D02*
G03X7862900Y4089400I-15011J0D01*
G75*
G01
X7662570Y4164051D02*
G03X7662570Y4164051I-15011J0D01*
M02*
