<?xml version="1.0" encoding="UTF-8"?>
<svg width="76.2mm" height="76.2mm" viewBox="0 0 300 300" version="1.2" baseProfile="tiny" xmlns:n1="http://www.w3.org/2000/svg" xmlns:xlink="http://www.w3.org/1999/xlink" xmlns:cpcb="http://www.danielwagenaar.net/cpcb-ns.html">
  <cpcb:part pkg="TDFN-2×2-8L" xmlns="http://www.danielwagenaar.net/cpcb-ns.html">
    <group ref="U?" pkg="TDFN-2×2-8L">
      <pad p="300000 100000" w="2540" h="6500" l="2" ref="8"/>
      <pad p="305000 119500" w="2540" h="6500" l="2" ref="2"/>
      <pad p="310000 119500" w="2540" h="6500" l="2" ref="3"/>
      <text p="296785 107893" fs="12700" l="1" rot="0" text="."/>
      <pad p="305000 100000" w="2540" h="6500" l="2" ref="7"/>
      <pad p="315000 119500" w="2540" h="6500" l="2" ref="4"/>
      <pad p="307500 109750" w="12000" h="6000" l="2" ref=""/>
      <pad p="310000 100000" w="2540" h="6500" l="2" ref="6"/>
      <pad p="315000 100000" w="2540" h="6500" l="2" ref="5"/>
      <pad p="300000 119500" w="2540" h="6500" l="2" ref="1"/>
      <trace p1="297500 99750" p2="297500 119750" w="2540" l="1"/>
      <trace p1="317500 119750" p2="317500 99750" w="2540" l="1"/>
      <trace p1="317500 99750" p2="297500 99750" w="2540" l="1"/>
      <trace p1="297500 119750" p2="317500 119750" w="2540" l="1"/>
    </group>
    <text p="296230 84050" fs="9000" l="1" rot="0" text="U?"/>
  </cpcb:part>
<n1:title>PCB Component</n1:title>
<n1:desc>Generated by CPCB</n1:desc>
<n1:defs>
</n1:defs>
<n1:g fill="none" stroke="black" stroke-width="1" fill-rule="evenodd" stroke-linecap="square" stroke-linejoin="bevel">

<n1:g fill="#000000" fill-opacity="1" stroke="none" transform="matrix(1,0,0,1,-1060.63,-282.087)" font-family="Sans" font-size="152.778" font-weight="400" font-style="normal">
<n1:rect x="1060.63" y="282.087" width="300" height="300"/>
</n1:g>

<n1:g fill="#ff0000" fill-opacity="1" stroke="none" transform="matrix(1,0,0,1,-1060.63,-282.087)" font-family="Sans" font-size="152.778" font-weight="400" font-style="normal">
<n1:rect x="1176.1" y="380.906" width="10" height="25.5906"/>
</n1:g>

<n1:g fill="#ff0000" fill-opacity="1" stroke="none" transform="matrix(1,0,0,1,-1060.63,-282.087)" font-family="Sans" font-size="152.778" font-weight="400" font-style="normal">
<n1:rect x="1195.79" y="457.677" width="10" height="25.5906"/>
</n1:g>

<n1:g fill="#ff0000" fill-opacity="1" stroke="none" transform="matrix(1,0,0,1,-1060.63,-282.087)" font-family="Sans" font-size="152.778" font-weight="400" font-style="normal">
<n1:rect x="1215.47" y="457.677" width="10" height="25.5906"/>
</n1:g>

<n1:g fill="#ff0000" fill-opacity="1" stroke="none" transform="matrix(1,0,0,1,-1060.63,-282.087)" font-family="Sans" font-size="152.778" font-weight="400" font-style="normal">
<n1:rect x="1195.79" y="380.906" width="10" height="25.5906"/>
</n1:g>

<n1:g fill="#ff0000" fill-opacity="1" stroke="none" transform="matrix(1,0,0,1,-1060.63,-282.087)" font-family="Sans" font-size="152.778" font-weight="400" font-style="normal">
<n1:rect x="1235.16" y="457.677" width="10" height="25.5906"/>
</n1:g>

<n1:g fill="#ff0000" fill-opacity="1" stroke="none" transform="matrix(1,0,0,1,-1060.63,-282.087)" font-family="Sans" font-size="152.778" font-weight="400" font-style="normal">
<n1:rect x="1187.01" y="420.276" width="47.2441" height="23.622"/>
</n1:g>

<n1:g fill="#ff0000" fill-opacity="1" stroke="none" transform="matrix(1,0,0,1,-1060.63,-282.087)" font-family="Sans" font-size="152.778" font-weight="400" font-style="normal">
<n1:rect x="1215.47" y="380.906" width="10" height="25.5906"/>
</n1:g>

<n1:g fill="#ff0000" fill-opacity="1" stroke="none" transform="matrix(1,0,0,1,-1060.63,-282.087)" font-family="Sans" font-size="152.778" font-weight="400" font-style="normal">
<n1:rect x="1235.16" y="380.906" width="10" height="25.5906"/>
</n1:g>

<n1:g fill="#ff0000" fill-opacity="1" stroke="none" transform="matrix(1,0,0,1,-1060.63,-282.087)" font-family="Sans" font-size="152.778" font-weight="400" font-style="normal">
<n1:rect x="1176.1" y="457.677" width="10" height="25.5906"/>
</n1:g>

<n1:g fill="#ff0000" fill-opacity="1" stroke="#f0f000" stroke-opacity="1" stroke-width="3" stroke-linecap="round" stroke-linejoin="round" transform="matrix(2.5,0,0,-2.5,107.815,142.689)" font-family="Sans" font-size="152.778" font-weight="400" font-style="normal">
</n1:g>

<n1:g fill="#f0f000" fill-opacity="1" stroke="none" transform="matrix(2.5,0,0,-2.5,107.815,142.689)" font-family="Sans" font-size="152.778" font-weight="400" font-style="normal">
<n1:circle cx="6" cy="-10" r="1.5"/>
</n1:g>

<n1:g fill="#ff0000" fill-opacity="1" stroke="#f0f000" stroke-opacity="1" stroke-width="3" stroke-linecap="round" stroke-linejoin="round" transform="matrix(2.5,0,0,-2.5,107.815,142.689)" font-family="Sans" font-size="152.778" font-weight="400" font-style="normal">
</n1:g>

<n1:g fill="#ff0000" fill-opacity="1" stroke="none" transform="matrix(1,0,0,1,-1060.63,-282.087)" font-family="Sans" font-size="152.778" font-weight="400" font-style="normal">
</n1:g>

<n1:g fill="#ff0000" fill-opacity="1" stroke="#f0f000" stroke-opacity="1" stroke-width="10" stroke-linecap="round" stroke-linejoin="bevel" transform="matrix(1,0,0,1,-1060.63,-282.087)" font-family="Sans" font-size="152.778" font-weight="400" font-style="normal">
<n1:polyline fill="none" vector-effect="none" points="1171.26,392.717 1171.26,471.457 "/>
<n1:polyline fill="none" vector-effect="none" points="1250,471.457 1250,392.717 "/>
<n1:polyline fill="none" vector-effect="none" points="1250,392.717 1171.26,392.717 "/>
<n1:polyline fill="none" vector-effect="none" points="1171.26,471.457 1250,471.457 "/>
</n1:g>
</n1:g>
</svg>
