<?xml version="1.0" encoding="UTF-8"?>
<svg width="172.695mm" height="195.148mm" viewBox="0 0 679.921 768.268" version="1.2" baseProfile="tiny" xmlns:n1="http://www.w3.org/2000/svg" xmlns:xlink="http://www.w3.org/1999/xlink" xmlns:cpcb="http://www.danielwagenaar.net/cpcb-ns.html">
  <cpcb:part pkg="HDMI" notes="Switchcraft RAHHD19TR" xmlns="http://www.danielwagenaar.net/cpcb-ns.html">
    <group ref="J?" pkg="HDMI" notes="Switchcraft RAHHD19TR">
      <pad p="250000 200000" w="2540" h="26000" l="2" ref="5"/>
      <trace p1="165000 185000" p2="150000 185000" w="2540" l="1"/>
      <trace p1="150000 185000" p2="150000 303100" w="2540" l="1"/>
      <trace p1="300000 303100" p2="150000 303100" w="2540" l="1"/>
      <trace p1="300000 303100" p2="300000 185000" w="2540" l="1"/>
      <trace p1="285000 200000" p2="165000 200000" w="2540" l="1"/>
      <trace p1="165000 200000" p2="165000 185000" w="2540" l="1"/>
      <trace p1="300000 185000" p2="285000 185000" w="2540" l="1"/>
      <trace p1="285000 185000" p2="285000 200000" w="2540" l="1"/>
      <pad p="185000 200000" w="2540" h="26000" l="2" ref="18"/>
      <pad p="180000 200000" w="2540" h="26000" l="2" ref="19"/>
      <pad p="195000 200000" w="2540" h="26000" l="2" ref="16"/>
      <pad p="190000 200000" w="2540" h="26000" l="2" ref="17"/>
      <hole p="152500 267200" id="9000" od="15000" ref="" sl="8000" rot="270"/>
      <hole p="297500 267200" id="9000" od="15000" ref="X?" sl="8000" rot="270"/>
      <hole p="152500 207600" id="9000" od="15000" ref="" sl="16000" rot="270"/>
      <hole p="297500 207600" id="9000" od="15000" ref="" sl="16000" rot="270"/>
      <pad p="220000 200000" w="2540" h="26000" l="2" ref="11"/>
      <pad p="230000 200000" w="2540" h="26000" l="2" ref="9"/>
      <pad p="235000 200000" w="2540" h="26000" l="2" ref="8"/>
      <pad p="225000 200000" w="2540" h="26000" l="2" ref="10"/>
      <pad p="215000 200000" w="2540" h="26000" l="2" ref="12"/>
      <pad p="210000 200000" w="2540" h="26000" l="2" ref="13"/>
      <pad p="205000 200000" w="2540" h="26000" l="2" ref="14"/>
      <pad p="200000 200000" w="2540" h="26000" l="2" ref="15"/>
      <pad p="265000 200000" w="2540" h="26000" l="2" ref="2"/>
      <pad p="260000 200000" w="2540" h="26000" l="2" ref="3"/>
      <pad p="270000 200000" w="2540" h="26000" l="2" ref="1"/>
      <pad p="245000 200000" w="2540" h="26000" l="2" ref="6"/>
      <pad p="240000 200000" w="2540" h="26000" l="2" ref="7"/>
      <pad p="255000 200000" w="2540" h="26000" l="2" ref="4"/>
      <trace p1="300000 364900" p2="150000 364900" w="2540" l="4"/>
      <trace p1="165000 309400" p2="285000 309400" w="2540" l="4"/>
      <trace p1="300000 364900" p2="300000 320000" w="2540" l="4"/>
      <trace p1="300000 320000" p2="285000 309400" w="2540" l="4"/>
      <trace p1="150000 364900" p2="150000 320000" w="2540" l="4"/>
      <trace p1="150000 320000" p2="165000 309400" w="2540" l="4"/>
    </group>
    <text p="147140 166030" fs="12700" l="1" rot="0" text="J?"/>
  </cpcb:part>
<n1:title>PCB Component</n1:title>
<n1:desc>Generated by CPCB</n1:desc>
<n1:defs>
</n1:defs>
<n1:g fill="none" stroke="black" stroke-width="1" fill-rule="evenodd" stroke-linecap="square" stroke-linejoin="bevel">

<n1:g fill="#000000" fill-opacity="1" stroke="none" transform="matrix(1,0,0,1,-545.866,-698.346)" font-family="Ubuntu" font-size="152.778" font-weight="400" font-style="normal">
<n1:rect x="545.866" y="698.346" width="679.921" height="768.268"/>
</n1:g>

<n1:g fill="#000000" fill-opacity="1" stroke="#00b400" stroke-opacity="1" stroke-width="59.0551" stroke-linecap="round" stroke-linejoin="bevel" transform="matrix(1,0,0,1,-545.866,-698.346)" font-family="Ubuntu" font-size="152.778" font-weight="400" font-style="normal">
<n1:polyline fill="none" vector-effect="none" points="600.394,1066.97 600.394,1036.97 "/>
<n1:polyline fill="none" vector-effect="none" points="1171.26,1066.97 1171.26,1036.97 "/>
<n1:polyline fill="none" vector-effect="none" points="600.394,848.323 600.394,786.323 "/>
<n1:polyline fill="none" vector-effect="none" points="1171.26,848.323 1171.26,786.323 "/>
</n1:g>

<n1:g fill="#ff0000" fill-opacity="1" stroke="none" transform="matrix(1,0,0,1,-545.866,-698.346)" font-family="Ubuntu" font-size="152.778" font-weight="400" font-style="normal">
<n1:rect x="979.252" y="736.22" width="10" height="102.362"/>
</n1:g>

<n1:g fill="#ff0000" fill-opacity="1" stroke="none" transform="matrix(1,0,0,1,-545.866,-698.346)" font-family="Ubuntu" font-size="152.778" font-weight="400" font-style="normal">
<n1:rect x="723.346" y="736.22" width="10" height="102.362"/>
</n1:g>

<n1:g fill="#ff0000" fill-opacity="1" stroke="none" transform="matrix(1,0,0,1,-545.866,-698.346)" font-family="Ubuntu" font-size="152.778" font-weight="400" font-style="normal">
<n1:rect x="703.661" y="736.22" width="10" height="102.362"/>
</n1:g>

<n1:g fill="#ff0000" fill-opacity="1" stroke="none" transform="matrix(1,0,0,1,-545.866,-698.346)" font-family="Ubuntu" font-size="152.778" font-weight="400" font-style="normal">
<n1:rect x="762.717" y="736.22" width="10" height="102.362"/>
</n1:g>

<n1:g fill="#ff0000" fill-opacity="1" stroke="none" transform="matrix(1,0,0,1,-545.866,-698.346)" font-family="Ubuntu" font-size="152.778" font-weight="400" font-style="normal">
<n1:rect x="743.031" y="736.22" width="10" height="102.362"/>
</n1:g>

<n1:g fill="#ff0000" fill-opacity="1" stroke="#ff0000" stroke-opacity="1" stroke-width="59.0551" stroke-linecap="round" stroke-linejoin="bevel" transform="matrix(1,0,0,1,-545.866,-698.346)" font-family="Ubuntu" font-size="152.778" font-weight="400" font-style="normal">
<n1:polyline fill="none" vector-effect="none" points="600.394,1066.97 600.394,1036.97 "/>
<n1:polyline fill="none" vector-effect="none" points="1171.26,1066.97 1171.26,1036.97 "/>
<n1:polyline fill="none" vector-effect="none" points="600.394,848.323 600.394,786.323 "/>
<n1:polyline fill="none" vector-effect="none" points="1171.26,848.323 1171.26,786.323 "/>
</n1:g>

<n1:g fill="#ff0000" fill-opacity="1" stroke="none" transform="matrix(1,0,0,1,-545.866,-698.346)" font-family="Ubuntu" font-size="152.778" font-weight="400" font-style="normal">
<n1:rect x="861.142" y="736.22" width="10" height="102.362"/>
</n1:g>

<n1:g fill="#ff0000" fill-opacity="1" stroke="none" transform="matrix(1,0,0,1,-545.866,-698.346)" font-family="Ubuntu" font-size="152.778" font-weight="400" font-style="normal">
<n1:rect x="900.512" y="736.22" width="10" height="102.362"/>
</n1:g>

<n1:g fill="#ff0000" fill-opacity="1" stroke="none" transform="matrix(1,0,0,1,-545.866,-698.346)" font-family="Ubuntu" font-size="152.778" font-weight="400" font-style="normal">
<n1:rect x="920.197" y="736.22" width="10" height="102.362"/>
</n1:g>

<n1:g fill="#ff0000" fill-opacity="1" stroke="none" transform="matrix(1,0,0,1,-545.866,-698.346)" font-family="Ubuntu" font-size="152.778" font-weight="400" font-style="normal">
<n1:rect x="880.827" y="736.22" width="10" height="102.362"/>
</n1:g>

<n1:g fill="#ff0000" fill-opacity="1" stroke="none" transform="matrix(1,0,0,1,-545.866,-698.346)" font-family="Ubuntu" font-size="152.778" font-weight="400" font-style="normal">
<n1:rect x="841.457" y="736.22" width="10" height="102.362"/>
</n1:g>

<n1:g fill="#ff0000" fill-opacity="1" stroke="none" transform="matrix(1,0,0,1,-545.866,-698.346)" font-family="Ubuntu" font-size="152.778" font-weight="400" font-style="normal">
<n1:rect x="821.772" y="736.22" width="10" height="102.362"/>
</n1:g>

<n1:g fill="#ff0000" fill-opacity="1" stroke="none" transform="matrix(1,0,0,1,-545.866,-698.346)" font-family="Ubuntu" font-size="152.778" font-weight="400" font-style="normal">
<n1:rect x="802.087" y="736.22" width="10" height="102.362"/>
</n1:g>

<n1:g fill="#ff0000" fill-opacity="1" stroke="none" transform="matrix(1,0,0,1,-545.866,-698.346)" font-family="Ubuntu" font-size="152.778" font-weight="400" font-style="normal">
<n1:rect x="782.402" y="736.22" width="10" height="102.362"/>
</n1:g>

<n1:g fill="#ff0000" fill-opacity="1" stroke="none" transform="matrix(1,0,0,1,-545.866,-698.346)" font-family="Ubuntu" font-size="152.778" font-weight="400" font-style="normal">
<n1:rect x="1038.31" y="736.22" width="10" height="102.362"/>
</n1:g>

<n1:g fill="#ff0000" fill-opacity="1" stroke="none" transform="matrix(1,0,0,1,-545.866,-698.346)" font-family="Ubuntu" font-size="152.778" font-weight="400" font-style="normal">
<n1:rect x="1018.62" y="736.22" width="10" height="102.362"/>
</n1:g>

<n1:g fill="#ff0000" fill-opacity="1" stroke="none" transform="matrix(1,0,0,1,-545.866,-698.346)" font-family="Ubuntu" font-size="152.778" font-weight="400" font-style="normal">
<n1:rect x="1057.99" y="736.22" width="10" height="102.362"/>
</n1:g>

<n1:g fill="#ff0000" fill-opacity="1" stroke="none" transform="matrix(1,0,0,1,-545.866,-698.346)" font-family="Ubuntu" font-size="152.778" font-weight="400" font-style="normal">
<n1:rect x="959.567" y="736.22" width="10" height="102.362"/>
</n1:g>

<n1:g fill="#ff0000" fill-opacity="1" stroke="none" transform="matrix(1,0,0,1,-545.866,-698.346)" font-family="Ubuntu" font-size="152.778" font-weight="400" font-style="normal">
<n1:rect x="939.882" y="736.22" width="10" height="102.362"/>
</n1:g>

<n1:g fill="#ff0000" fill-opacity="1" stroke="none" transform="matrix(1,0,0,1,-545.866,-698.346)" font-family="Ubuntu" font-size="152.778" font-weight="400" font-style="normal">
<n1:rect x="998.937" y="736.22" width="10" height="102.362"/>
</n1:g>

<n1:g fill="#ff0000" fill-opacity="1" stroke="#ffffff" stroke-opacity="1" stroke-width="35.4331" stroke-linecap="round" stroke-linejoin="bevel" transform="matrix(1,0,0,1,-545.866,-698.346)" font-family="Ubuntu" font-size="152.778" font-weight="400" font-style="normal">
<n1:polyline fill="none" vector-effect="none" points="600.394,1066.97 600.394,1036.97 "/>
<n1:polyline fill="none" vector-effect="none" points="1171.26,1066.97 1171.26,1036.97 "/>
<n1:polyline fill="none" vector-effect="none" points="600.394,848.323 600.394,786.323 "/>
<n1:polyline fill="none" vector-effect="none" points="1171.26,848.323 1171.26,786.323 "/>
</n1:g>

<n1:g fill="#ff0000" fill-opacity="1" stroke="#f0f000" stroke-opacity="1" stroke-width="10" stroke-linecap="round" stroke-linejoin="bevel" transform="matrix(1,0,0,1,-545.866,-698.346)" font-family="Ubuntu" font-size="152.778" font-weight="400" font-style="normal">
<n1:polyline fill="none" vector-effect="none" points="649.606,728.346 590.551,728.346 "/>
<n1:polyline fill="none" vector-effect="none" points="590.551,728.346 590.551,1193.31 "/>
<n1:polyline fill="none" vector-effect="none" points="1181.1,1193.31 590.551,1193.31 "/>
<n1:polyline fill="none" vector-effect="none" points="1181.1,1193.31 1181.1,728.346 "/>
<n1:polyline fill="none" vector-effect="none" points="1122.05,787.402 649.606,787.402 "/>
<n1:polyline fill="none" vector-effect="none" points="649.606,787.402 649.606,728.346 "/>
<n1:polyline fill="none" vector-effect="none" points="1181.1,728.346 1122.05,728.346 "/>
<n1:polyline fill="none" vector-effect="none" points="1122.05,728.346 1122.05,787.402 "/>
</n1:g>

<n1:g fill="#ff0000" fill-opacity="1" stroke="#9664ff" stroke-opacity="1" stroke-width="10" stroke-linecap="round" stroke-linejoin="bevel" transform="matrix(1,0,0,1,-545.866,-698.346)" font-family="Ubuntu" font-size="152.778" font-weight="400" font-style="normal">
<n1:polyline fill="none" vector-effect="none" points="1181.1,1436.61 590.551,1436.61 "/>
<n1:polyline fill="none" vector-effect="none" points="649.606,1218.11 1122.05,1218.11 "/>
<n1:polyline fill="none" vector-effect="none" points="1181.1,1436.61 1181.1,1259.84 "/>
<n1:polyline fill="none" vector-effect="none" points="1181.1,1259.84 1122.05,1218.11 "/>
<n1:polyline fill="none" vector-effect="none" points="590.551,1436.61 590.551,1259.84 "/>
<n1:polyline fill="none" vector-effect="none" points="590.551,1259.84 649.606,1218.11 "/>
</n1:g>
</n1:g>
</svg>
