<?xml version="1.0" encoding="UTF-8"?>
<svg width="76.2mm" height="76.2mm" viewBox="0 0 300 300" version="1.2" baseProfile="tiny" xmlns:n1="http://www.w3.org/2000/svg" xmlns:xlink="http://www.w3.org/1999/xlink" xmlns:cpcb="http://www.danielwagenaar.net/cpcb-ns.html">
  <cpcb:part pkg="Omnetics A79041-001" xmlns="http://www.danielwagenaar.net/cpcb-ns.html">
    <group ref="J?" pkg="Omnetics A79041-001">
      <pad p="577850 127000" w="3800" h="10200" l="2" ref="10"/>
      <pad p="584200 111760" w="3800" h="10200" l="2" ref="18"/>
      <pad p="584200 127000" w="3800" h="10200" l="2" ref="9"/>
      <pad p="590550 111760" w="3800" h="10200" l="2" ref="17"/>
      <pad p="603250 127000" w="3800" h="10200" l="2" ref="6"/>
      <pad p="609600 111760" w="3800" h="10200" l="2" ref="14"/>
      <pad p="609600 127000" w="3800" h="10200" l="2" ref="5"/>
      <pad p="615950 111760" w="3800" h="10200" l="2" ref="13"/>
      <pad p="590550 127000" w="3800" h="10200" l="2" ref="8"/>
      <pad p="596900 111760" w="3800" h="10200" l="2" ref="16"/>
      <pad p="596900 127000" w="3800" h="10200" l="2" ref="7"/>
      <pad p="603250 111760" w="3800" h="10200" l="2" ref="15"/>
      <pad p="628650 127000" w="3800" h="10200" l="2" ref="2"/>
      <pad p="635000 127000" w="3800" h="10200" l="2" ref="1"/>
      <pad p="615950 127000" w="3800" h="10200" l="2" ref="4"/>
      <pad p="622300 111760" w="3800" h="10200" l="2" ref="12"/>
      <pad p="622300 127000" w="3800" h="10200" l="2" ref="3"/>
      <pad p="628650 111760" w="3800" h="10200" l="2" ref="11"/>
    </group>
    <text p="575950 93960" fs="12700" l="1" rot="0" text="J?"/>
  </cpcb:part>
<n1:title>PCB Component</n1:title>
<n1:desc>Generated by CPCB</n1:desc>
<n1:defs>
</n1:defs>
<n1:g fill="none" stroke="black" stroke-width="1" fill-rule="evenodd" stroke-linecap="square" stroke-linejoin="bevel">

<n1:g fill="#000000" fill-opacity="1" stroke="none" transform="matrix(1,0,0,1,-2237.5,-320)" font-family="Sans" font-size="152.778" font-weight="400" font-style="normal">
<n1:rect x="2237.5" y="320" width="300" height="300"/>
</n1:g>

<n1:g fill="#ff0000" fill-opacity="1" stroke="none" transform="matrix(1,0,0,1,-2237.5,-320)" font-family="Sans" font-size="152.778" font-weight="400" font-style="normal">
<n1:rect x="2267.52" y="479.921" width="14.9606" height="40.1575"/>
</n1:g>

<n1:g fill="#ff0000" fill-opacity="1" stroke="none" transform="matrix(1,0,0,1,-2237.5,-320)" font-family="Sans" font-size="152.778" font-weight="400" font-style="normal">
<n1:rect x="2292.52" y="419.921" width="14.9606" height="40.1575"/>
</n1:g>

<n1:g fill="#ff0000" fill-opacity="1" stroke="none" transform="matrix(1,0,0,1,-2237.5,-320)" font-family="Sans" font-size="152.778" font-weight="400" font-style="normal">
<n1:rect x="2292.52" y="479.921" width="14.9606" height="40.1575"/>
</n1:g>

<n1:g fill="#ff0000" fill-opacity="1" stroke="none" transform="matrix(1,0,0,1,-2237.5,-320)" font-family="Sans" font-size="152.778" font-weight="400" font-style="normal">
<n1:rect x="2317.52" y="419.921" width="14.9606" height="40.1575"/>
</n1:g>

<n1:g fill="#ff0000" fill-opacity="1" stroke="none" transform="matrix(1,0,0,1,-2237.5,-320)" font-family="Sans" font-size="152.778" font-weight="400" font-style="normal">
<n1:rect x="2367.52" y="479.921" width="14.9606" height="40.1575"/>
</n1:g>

<n1:g fill="#ff0000" fill-opacity="1" stroke="none" transform="matrix(1,0,0,1,-2237.5,-320)" font-family="Sans" font-size="152.778" font-weight="400" font-style="normal">
<n1:rect x="2392.52" y="419.921" width="14.9606" height="40.1575"/>
</n1:g>

<n1:g fill="#ff0000" fill-opacity="1" stroke="none" transform="matrix(1,0,0,1,-2237.5,-320)" font-family="Sans" font-size="152.778" font-weight="400" font-style="normal">
<n1:rect x="2392.52" y="479.921" width="14.9606" height="40.1575"/>
</n1:g>

<n1:g fill="#ff0000" fill-opacity="1" stroke="none" transform="matrix(1,0,0,1,-2237.5,-320)" font-family="Sans" font-size="152.778" font-weight="400" font-style="normal">
<n1:rect x="2417.52" y="419.921" width="14.9606" height="40.1575"/>
</n1:g>

<n1:g fill="#ff0000" fill-opacity="1" stroke="none" transform="matrix(1,0,0,1,-2237.5,-320)" font-family="Sans" font-size="152.778" font-weight="400" font-style="normal">
<n1:rect x="2317.52" y="479.921" width="14.9606" height="40.1575"/>
</n1:g>

<n1:g fill="#ff0000" fill-opacity="1" stroke="none" transform="matrix(1,0,0,1,-2237.5,-320)" font-family="Sans" font-size="152.778" font-weight="400" font-style="normal">
<n1:rect x="2342.52" y="419.921" width="14.9606" height="40.1575"/>
</n1:g>

<n1:g fill="#ff0000" fill-opacity="1" stroke="none" transform="matrix(1,0,0,1,-2237.5,-320)" font-family="Sans" font-size="152.778" font-weight="400" font-style="normal">
<n1:rect x="2342.52" y="479.921" width="14.9606" height="40.1575"/>
</n1:g>

<n1:g fill="#ff0000" fill-opacity="1" stroke="none" transform="matrix(1,0,0,1,-2237.5,-320)" font-family="Sans" font-size="152.778" font-weight="400" font-style="normal">
<n1:rect x="2367.52" y="419.921" width="14.9606" height="40.1575"/>
</n1:g>

<n1:g fill="#ff0000" fill-opacity="1" stroke="none" transform="matrix(1,0,0,1,-2237.5,-320)" font-family="Sans" font-size="152.778" font-weight="400" font-style="normal">
<n1:rect x="2467.52" y="479.921" width="14.9606" height="40.1575"/>
</n1:g>

<n1:g fill="#ff0000" fill-opacity="1" stroke="none" transform="matrix(1,0,0,1,-2237.5,-320)" font-family="Sans" font-size="152.778" font-weight="400" font-style="normal">
<n1:rect x="2492.52" y="479.921" width="14.9606" height="40.1575"/>
</n1:g>

<n1:g fill="#ff0000" fill-opacity="1" stroke="none" transform="matrix(1,0,0,1,-2237.5,-320)" font-family="Sans" font-size="152.778" font-weight="400" font-style="normal">
<n1:rect x="2417.52" y="479.921" width="14.9606" height="40.1575"/>
</n1:g>

<n1:g fill="#ff0000" fill-opacity="1" stroke="none" transform="matrix(1,0,0,1,-2237.5,-320)" font-family="Sans" font-size="152.778" font-weight="400" font-style="normal">
<n1:rect x="2442.52" y="419.921" width="14.9606" height="40.1575"/>
</n1:g>

<n1:g fill="#ff0000" fill-opacity="1" stroke="none" transform="matrix(1,0,0,1,-2237.5,-320)" font-family="Sans" font-size="152.778" font-weight="400" font-style="normal">
<n1:rect x="2442.52" y="479.921" width="14.9606" height="40.1575"/>
</n1:g>

<n1:g fill="#ff0000" fill-opacity="1" stroke="none" transform="matrix(1,0,0,1,-2237.5,-320)" font-family="Sans" font-size="152.778" font-weight="400" font-style="normal">
<n1:rect x="2467.52" y="419.921" width="14.9606" height="40.1575"/>
</n1:g>
</n1:g>
</svg>
