<?xml version="1.0" encoding="UTF-8"?>
<svg width="82.7024mm" height="76.2mm" viewBox="0 0 325.591 300" version="1.2" baseProfile="tiny" xmlns:n1="http://www.w3.org/2000/svg" xmlns:xlink="http://www.w3.org/1999/xlink" xmlns:cpcb="http://www.danielwagenaar.net/cpcb-ns.html">
  <cpcb:part pkg="SM05B-SURS-TF" xmlns="http://www.danielwagenaar.net/cpcb-ns.html">
    <group ref="X?" pkg="SM05B-SURS-TF">
      <pad p="-3500 -52500" w="5000" h="10000" l="3" ref=""/>
      <trace p1="43500 -29000" p2="-18500 -29000" w="2500" l="1"/>
      <trace p1="-18500 -29000" p2="-18500 -54500" w="2500" l="1"/>
      <pad p="12500 -52500" w="5000" h="10000" l="3" ref=""/>
      <pad p="41500 -33000" w="12000" h="17000" l="3" ref=""/>
      <pad p="-16500 -33000" w="12000" h="17000" l="3" ref=""/>
      <trace p1="-18500 -54500" p2="43500 -54500" w="2500" l="1"/>
      <trace p1="43500 -54500" p2="43500 -29000" w="2500" l="1"/>
      <pad p="20500 -52500" w="5000" h="10000" l="3" ref=""/>
      <pad p="28500 -52500" w="5000" h="10000" l="3" ref=""/>
      <pad p="4500 -52500" w="5000" h="10000" l="3" ref=""/>
    </group>
    <text p="-23000 -70700" fs="12700" l="1" rot="0" text="X?"/>
  </cpcb:part>
<n1:title>PCB Component</n1:title>
<n1:desc>Generated by CPCB</n1:desc>
<n1:defs>
</n1:defs>
<n1:g fill="none" stroke="black" stroke-width="1" fill-rule="evenodd" stroke-linecap="square" stroke-linejoin="bevel">

<n1:g fill="#000000" fill-opacity="1" stroke="none" transform="matrix(1,0,0,1,113.583,311.417)" font-family="Sans" font-size="152.778" font-weight="400" font-style="normal">
<n1:rect x="-113.583" y="-311.417" width="325.591" height="300"/>
</n1:g>

<n1:g fill="#00b400" fill-opacity="1" stroke="none" transform="matrix(1,0,0,1,113.583,311.417)" font-family="Sans" font-size="152.778" font-weight="400" font-style="normal">
<n1:rect x="-23.622" y="-226.378" width="19.685" height="39.3701"/>
</n1:g>

<n1:g fill="#00b400" fill-opacity="1" stroke="none" transform="matrix(1,0,0,1,113.583,311.417)" font-family="Sans" font-size="152.778" font-weight="400" font-style="normal">
<n1:rect x="39.3701" y="-226.378" width="19.685" height="39.3701"/>
</n1:g>

<n1:g fill="#00b400" fill-opacity="1" stroke="none" transform="matrix(1,0,0,1,113.583,311.417)" font-family="Sans" font-size="152.778" font-weight="400" font-style="normal">
<n1:rect x="139.764" y="-163.386" width="47.2441" height="66.9291"/>
</n1:g>

<n1:g fill="#00b400" fill-opacity="1" stroke="none" transform="matrix(1,0,0,1,113.583,311.417)" font-family="Sans" font-size="152.778" font-weight="400" font-style="normal">
<n1:rect x="-88.5827" y="-163.386" width="47.2441" height="66.9291"/>
</n1:g>

<n1:g fill="#00b400" fill-opacity="1" stroke="none" transform="matrix(1,0,0,1,113.583,311.417)" font-family="Sans" font-size="152.778" font-weight="400" font-style="normal">
<n1:rect x="70.8661" y="-226.378" width="19.685" height="39.3701"/>
</n1:g>

<n1:g fill="#00b400" fill-opacity="1" stroke="none" transform="matrix(1,0,0,1,113.583,311.417)" font-family="Sans" font-size="152.778" font-weight="400" font-style="normal">
<n1:rect x="102.362" y="-226.378" width="19.685" height="39.3701"/>
</n1:g>

<n1:g fill="#00b400" fill-opacity="1" stroke="none" transform="matrix(1,0,0,1,113.583,311.417)" font-family="Sans" font-size="152.778" font-weight="400" font-style="normal">
<n1:rect x="7.87402" y="-226.378" width="19.685" height="39.3701"/>
</n1:g>

<n1:g fill="#00b400" fill-opacity="1" stroke="#f0f000" stroke-opacity="1" stroke-width="9.84252" stroke-linecap="round" stroke-linejoin="bevel" transform="matrix(1,0,0,1,113.583,311.417)" font-family="Sans" font-size="152.778" font-weight="400" font-style="normal">
<n1:polyline fill="none" vector-effect="none" points="171.26,-114.173 -72.8346,-114.173 "/>
<n1:polyline fill="none" vector-effect="none" points="-72.8346,-114.173 -72.8346,-214.567 "/>
<n1:polyline fill="none" vector-effect="none" points="-72.8346,-214.567 171.26,-214.567 "/>
<n1:polyline fill="none" vector-effect="none" points="171.26,-214.567 171.26,-114.173 "/>
</n1:g>
</n1:g>
</svg>
