<?xml version="1.0" encoding="UTF-8"?>
<svg width="115.24mm" height="104.775mm" viewBox="0 0 453.701 412.52" version="1.2" baseProfile="tiny" xmlns:n1="http://www.w3.org/2000/svg" xmlns:xlink="http://www.w3.org/1999/xlink" xmlns:cpcb="http://www.danielwagenaar.net/cpcb-ns.html">
  <cpcb:part pkg="USB C6" notes="Shou Han Type-C 6P(073)&#10;JLCPCB C668623" xmlns="http://www.danielwagenaar.net/cpcb-ns.html">
    <group ref="J?" pkg="USB C6" notes="Shou Han Type-C 6P(073)&#10;JLCPCB C668623">
      <hole p="481800 27200" id="5000" od="10000" ref="" sl="7000" rot="90"/>
      <pad p="520000 70000" w="7000" h="12000" l="2" ref="B5/CC2"/>
      <hole p="481800 65200" id="5000" od="10000" ref="" sl="7000" rot="90"/>
      <pad p="530000 70000" w="7000" h="12000" l="2" ref="A5/CC1"/>
      <hole p="568200 27200" id="5000" od="10000" ref="" sl="7000" rot="90"/>
      <pad p="540200 70000" w="8000" h="12000" l="2" ref="Vbus"/>
      <hole p="568200 65200" id="5000" od="10000" ref="X?" sl="7000" rot="90"/>
      <pad p="509800 70000" w="8000" h="12000" l="2" ref="Vbus"/>
      <trace p1="569700 1200" p2="569700 68700" w="2540" l="1"/>
      <trace p1="569700 68700" p2="480300 68700" w="2540" l="1"/>
      <trace p1="480300 1200" p2="569700 1200" w="2540" l="1"/>
      <trace p1="480300 68700" p2="480300 1200" w="2540" l="1"/>
      <pad p="552500 70000" w="9000" h="12000" l="2" ref="Gnd"/>
      <pad p="497500 70000" w="9000" h="12000" l="2" ref="Gnd"/>
      <trace p1="490000 17200" p2="560000 17200" w="2540" l="4"/>
      <arc p="560000 7200" r="10000" lw="2540" l="4" ang="90" rota="90"/>
      <arc p="490000 7200" r="10000" lw="2540" l="4" ang="90" rota="180"/>
      <arc p="560005 -4800" r="10000" lw="2540" l="4" ang="90" rota="0"/>
      <arc p="490005 -4800" r="10000" lw="2540" l="4" ang="90" rota="270"/>
      <trace p1="490005 -14800" p2="560005 -14800" w="2540" l="4"/>
      <trace p1="480000 -4800" p2="480000 7200" w="2540" l="4"/>
      <trace p1="570000 -4800" p2="570000 7200" w="2540" l="4"/>
      <trace p1="475000 17200" p2="575000 17200" w="2540" l="4"/>
    </group>
    <text p="516800 87230" fs="9000" l="1" rot="0" text="J?"/>
  </cpcb:part>
<n1:title>PCB Component</n1:title>
<n1:desc>Generated by CPCB</n1:desc>
<n1:defs>
</n1:defs>
<n1:g fill="none" stroke="black" stroke-width="1" fill-rule="evenodd" stroke-linecap="square" stroke-linejoin="bevel">

<n1:g fill="#000000" fill-opacity="1" stroke="none" transform="matrix(1,0,0,1,-1840.08,88.3071)" font-family="Sans" font-size="152.778" font-weight="400" font-style="normal">
<n1:rect x="1840.08" y="-88.3071" width="453.701" height="412.52"/>
</n1:g>

<n1:g fill="#000000" fill-opacity="1" stroke="#00b400" stroke-opacity="1" stroke-width="39.3701" stroke-linecap="round" stroke-linejoin="bevel" transform="matrix(1,0,0,1,-1840.08,88.3071)" font-family="Sans" font-size="152.778" font-weight="400" font-style="normal">
<n1:polyline fill="none" vector-effect="none" points="1896.85,93.3071 1896.85,120.866 "/>
<n1:polyline fill="none" vector-effect="none" points="1896.85,242.913 1896.85,270.472 "/>
<n1:polyline fill="none" vector-effect="none" points="2237.01,93.3071 2237.01,120.866 "/>
<n1:polyline fill="none" vector-effect="none" points="2237.01,242.913 2237.01,270.472 "/>
</n1:g>

<n1:g fill="#000000" fill-opacity="1" stroke="#ff0000" stroke-opacity="1" stroke-width="39.3701" stroke-linecap="round" stroke-linejoin="bevel" transform="matrix(1,0,0,1,-1840.08,88.3071)" font-family="Sans" font-size="152.778" font-weight="400" font-style="normal">
<n1:polyline fill="none" vector-effect="none" points="1896.85,93.3071 1896.85,120.866 "/>
</n1:g>

<n1:g fill="#ff0000" fill-opacity="1" stroke="none" transform="matrix(1,0,0,1,-1840.08,88.3071)" font-family="Sans" font-size="152.778" font-weight="400" font-style="normal">
<n1:rect x="2033.46" y="251.969" width="27.5591" height="47.2441"/>
</n1:g>

<n1:g fill="#ff0000" fill-opacity="1" stroke="#ff0000" stroke-opacity="1" stroke-width="39.3701" stroke-linecap="round" stroke-linejoin="bevel" transform="matrix(1,0,0,1,-1840.08,88.3071)" font-family="Sans" font-size="152.778" font-weight="400" font-style="normal">
<n1:polyline fill="none" vector-effect="none" points="1896.85,242.913 1896.85,270.472 "/>
</n1:g>

<n1:g fill="#ff0000" fill-opacity="1" stroke="none" transform="matrix(1,0,0,1,-1840.08,88.3071)" font-family="Sans" font-size="152.778" font-weight="400" font-style="normal">
<n1:rect x="2072.83" y="251.969" width="27.5591" height="47.2441"/>
</n1:g>

<n1:g fill="#ff0000" fill-opacity="1" stroke="#ff0000" stroke-opacity="1" stroke-width="39.3701" stroke-linecap="round" stroke-linejoin="bevel" transform="matrix(1,0,0,1,-1840.08,88.3071)" font-family="Sans" font-size="152.778" font-weight="400" font-style="normal">
<n1:polyline fill="none" vector-effect="none" points="2237.01,93.3071 2237.01,120.866 "/>
</n1:g>

<n1:g fill="#ff0000" fill-opacity="1" stroke="none" transform="matrix(1,0,0,1,-1840.08,88.3071)" font-family="Sans" font-size="152.778" font-weight="400" font-style="normal">
<n1:rect x="2111.02" y="251.969" width="31.4961" height="47.2441"/>
</n1:g>

<n1:g fill="#ff0000" fill-opacity="1" stroke="#ff0000" stroke-opacity="1" stroke-width="39.3701" stroke-linecap="round" stroke-linejoin="bevel" transform="matrix(1,0,0,1,-1840.08,88.3071)" font-family="Sans" font-size="152.778" font-weight="400" font-style="normal">
<n1:polyline fill="none" vector-effect="none" points="2237.01,242.913 2237.01,270.472 "/>
</n1:g>

<n1:g fill="#ff0000" fill-opacity="1" stroke="none" transform="matrix(1,0,0,1,-1840.08,88.3071)" font-family="Sans" font-size="152.778" font-weight="400" font-style="normal">
<n1:rect x="1991.34" y="251.969" width="31.4961" height="47.2441"/>
</n1:g>

<n1:g fill="#ff0000" fill-opacity="1" stroke="none" transform="matrix(1,0,0,1,-1840.08,88.3071)" font-family="Sans" font-size="152.778" font-weight="400" font-style="normal">
<n1:rect x="2157.48" y="251.969" width="35.4331" height="47.2441"/>
</n1:g>

<n1:g fill="#ff0000" fill-opacity="1" stroke="none" transform="matrix(1,0,0,1,-1840.08,88.3071)" font-family="Sans" font-size="152.778" font-weight="400" font-style="normal">
<n1:rect x="1940.94" y="251.969" width="35.4331" height="47.2441"/>
</n1:g>

<n1:g fill="#ff0000" fill-opacity="1" stroke="#000000" stroke-opacity="1" stroke-width="19.685" stroke-linecap="round" stroke-linejoin="bevel" transform="matrix(1,0,0,1,-1840.08,88.3071)" font-family="Sans" font-size="152.778" font-weight="400" font-style="normal">
<n1:polyline fill="none" vector-effect="none" points="1896.85,93.3071 1896.85,120.866 "/>
<n1:polyline fill="none" vector-effect="none" points="1896.85,242.913 1896.85,270.472 "/>
<n1:polyline fill="none" vector-effect="none" points="2237.01,93.3071 2237.01,120.866 "/>
<n1:polyline fill="none" vector-effect="none" points="2237.01,242.913 2237.01,270.472 "/>
</n1:g>

<n1:g fill="#ff0000" fill-opacity="1" stroke="#f0f000" stroke-opacity="1" stroke-width="10" stroke-linecap="round" stroke-linejoin="bevel" transform="matrix(1,0,0,1,-1840.08,88.3071)" font-family="Sans" font-size="152.778" font-weight="400" font-style="normal">
<n1:polyline fill="none" vector-effect="none" points="2242.91,4.72441 2242.91,270.472 "/>
<n1:polyline fill="none" vector-effect="none" points="2242.91,270.472 1890.94,270.472 "/>
<n1:polyline fill="none" vector-effect="none" points="1890.94,4.72441 2242.91,4.72441 "/>
<n1:polyline fill="none" vector-effect="none" points="1890.94,270.472 1890.94,4.72441 "/>
</n1:g>

<n1:g fill="#ff0000" fill-opacity="1" stroke="#9664ff" stroke-opacity="1" stroke-width="10" stroke-linecap="round" stroke-linejoin="bevel" transform="matrix(1,0,0,1,-1840.08,88.3071)" font-family="Sans" font-size="152.778" font-weight="400" font-style="normal">
<n1:polyline fill="none" vector-effect="none" points="1929.13,67.7165 2204.72,67.7165 "/>
</n1:g>

<n1:g fill="none" stroke="#9664ff" stroke-opacity="1" stroke-width="10" stroke-linecap="round" stroke-linejoin="bevel" transform="matrix(1,0,0,1,-1840.08,88.3071)" font-family="Sans" font-size="152.778" font-weight="400" font-style="normal">
<n1:path vector-effect="none" fill-rule="evenodd" d="M2204.72,67.7165 C2226.47,67.7165 2244.09,50.09 2244.09,28.3465 "/>
<n1:path vector-effect="none" fill-rule="evenodd" d="M1889.76,28.3465 C1889.76,50.09 1907.39,67.7165 1929.13,67.7165 "/>
<n1:path vector-effect="none" fill-rule="evenodd" d="M2244.11,-18.8976 C2244.11,-40.6411 2226.49,-58.2677 2204.74,-58.2677 "/>
<n1:path vector-effect="none" fill-rule="evenodd" d="M1929.15,-58.2677 C1907.41,-58.2677 1889.78,-40.6411 1889.78,-18.8976 "/>
<n1:polyline fill="none" vector-effect="none" points="1929.15,-58.2677 2204.74,-58.2677 "/>
<n1:polyline fill="none" vector-effect="none" points="1889.76,-18.8976 1889.76,28.3465 "/>
<n1:polyline fill="none" vector-effect="none" points="2244.09,-18.8976 2244.09,28.3465 "/>
<n1:polyline fill="none" vector-effect="none" points="1870.08,67.7165 2263.78,67.7165 "/>
</n1:g>
</n1:g>
</svg>
