<?xml version="1.0" encoding="UTF-8"?>
<svg width="109.093mm" height="88.773mm" viewBox="0 0 429.528 349.488" version="1.2" baseProfile="tiny" xmlns:n1="http://www.w3.org/2000/svg" xmlns:xlink="http://www.w3.org/1999/xlink" xmlns:cpcb="http://www.danielwagenaar.net/cpcb-ns.html">
  <cpcb:part pkg="USB C6" notes="Shou Han Type-C 6P(073)&#10;JLCPCB C668623" xmlns="http://www.danielwagenaar.net/cpcb-ns.html">
    <group ref="J?" pkg="USB C6" notes="Shou Han Type-C 6P(073)&#10;JLCPCB C668623">
      <hole p="127000 10035" id="5000" od="10000" ref="" sl="7000" rot="90"/>
      <pad p="165200 52835" w="7000" h="12000" l="2" ref="B5/CC2"/>
      <hole p="127000 48035" id="5000" od="10000" ref="" sl="7000" rot="90"/>
      <pad p="175200 52835" w="7000" h="12000" l="2" ref="A5/CC1"/>
      <hole p="213400 10035" id="5000" od="10000" ref="" sl="7000" rot="90"/>
      <pad p="185400 52835" w="8000" h="12000" l="2" ref="Vbus"/>
      <hole p="213400 48035" id="5000" od="10000" ref="X?" sl="7000" rot="90"/>
      <pad p="155000 52835" w="8000" h="12000" l="2" ref="Vbus"/>
      <trace p1="214900 -15965" p2="214900 51535" w="2540" l="1"/>
      <trace p1="214900 51535" p2="125500 51535" w="2540" l="1"/>
      <trace p1="125500 -15965" p2="214900 -15965" w="2540" l="1"/>
      <trace p1="125500 51535" p2="125500 -15965" w="2540" l="1"/>
      <pad p="197700 52835" w="9000" h="12000" l="2" ref="Gnd"/>
      <pad p="142700 52835" w="9000" h="12000" l="2" ref="Gnd"/>
    </group>
    <text p="102000 30065" fs="9000" l="1" rot="0" text="J?"/>
  </cpcb:part>
<n1:title>PCB Component</n1:title>
<n1:desc>Generated by CPCB</n1:desc>
<n1:defs>
</n1:defs>
<n1:g fill="none" stroke="black" stroke-width="1" fill-rule="evenodd" stroke-linecap="square" stroke-linejoin="bevel">

<n1:g fill="#000000" fill-opacity="1" stroke="none" transform="matrix(1,0,0,1,-455.315,92.8543)" font-family="Sans" font-size="152.778" font-weight="400" font-style="normal">
<n1:rect x="455.315" y="-92.8543" width="429.528" height="349.488"/>
</n1:g>

<n1:g fill="#000000" fill-opacity="1" stroke="#00b400" stroke-opacity="1" stroke-width="39.3701" stroke-linecap="round" stroke-linejoin="bevel" transform="matrix(1,0,0,1,-455.315,92.8543)" font-family="Sans" font-size="152.778" font-weight="400" font-style="normal">
<n1:polyline fill="none" vector-effect="none" points="500,25.7283 500,53.2874 "/>
<n1:polyline fill="none" vector-effect="none" points="500,175.335 500,202.894 "/>
<n1:polyline fill="none" vector-effect="none" points="840.157,25.7283 840.157,53.2874 "/>
<n1:polyline fill="none" vector-effect="none" points="840.157,175.335 840.157,202.894 "/>
</n1:g>

<n1:g fill="#000000" fill-opacity="1" stroke="#ff0000" stroke-opacity="1" stroke-width="39.3701" stroke-linecap="round" stroke-linejoin="bevel" transform="matrix(1,0,0,1,-455.315,92.8543)" font-family="Sans" font-size="152.778" font-weight="400" font-style="normal">
<n1:polyline fill="none" vector-effect="none" points="500,25.7283 500,53.2874 "/>
</n1:g>

<n1:g fill="#ff0000" fill-opacity="1" stroke="none" transform="matrix(1,0,0,1,-455.315,92.8543)" font-family="Sans" font-size="152.778" font-weight="400" font-style="normal">
<n1:rect x="636.614" y="184.39" width="27.5591" height="47.2441"/>
</n1:g>

<n1:g fill="#ff0000" fill-opacity="1" stroke="#ff0000" stroke-opacity="1" stroke-width="39.3701" stroke-linecap="round" stroke-linejoin="bevel" transform="matrix(1,0,0,1,-455.315,92.8543)" font-family="Sans" font-size="152.778" font-weight="400" font-style="normal">
<n1:polyline fill="none" vector-effect="none" points="500,175.335 500,202.894 "/>
</n1:g>

<n1:g fill="#ff0000" fill-opacity="1" stroke="none" transform="matrix(1,0,0,1,-455.315,92.8543)" font-family="Sans" font-size="152.778" font-weight="400" font-style="normal">
<n1:rect x="675.984" y="184.39" width="27.5591" height="47.2441"/>
</n1:g>

<n1:g fill="#ff0000" fill-opacity="1" stroke="#ff0000" stroke-opacity="1" stroke-width="39.3701" stroke-linecap="round" stroke-linejoin="bevel" transform="matrix(1,0,0,1,-455.315,92.8543)" font-family="Sans" font-size="152.778" font-weight="400" font-style="normal">
<n1:polyline fill="none" vector-effect="none" points="840.157,25.7283 840.157,53.2874 "/>
</n1:g>

<n1:g fill="#ff0000" fill-opacity="1" stroke="none" transform="matrix(1,0,0,1,-455.315,92.8543)" font-family="Sans" font-size="152.778" font-weight="400" font-style="normal">
<n1:rect x="714.173" y="184.39" width="31.4961" height="47.2441"/>
</n1:g>

<n1:g fill="#ff0000" fill-opacity="1" stroke="#ff0000" stroke-opacity="1" stroke-width="39.3701" stroke-linecap="round" stroke-linejoin="bevel" transform="matrix(1,0,0,1,-455.315,92.8543)" font-family="Sans" font-size="152.778" font-weight="400" font-style="normal">
<n1:polyline fill="none" vector-effect="none" points="840.157,175.335 840.157,202.894 "/>
</n1:g>

<n1:g fill="#ff0000" fill-opacity="1" stroke="none" transform="matrix(1,0,0,1,-455.315,92.8543)" font-family="Sans" font-size="152.778" font-weight="400" font-style="normal">
<n1:rect x="594.488" y="184.39" width="31.4961" height="47.2441"/>
</n1:g>

<n1:g fill="#ff0000" fill-opacity="1" stroke="none" transform="matrix(1,0,0,1,-455.315,92.8543)" font-family="Sans" font-size="152.778" font-weight="400" font-style="normal">
<n1:rect x="760.63" y="184.39" width="35.4331" height="47.2441"/>
</n1:g>

<n1:g fill="#ff0000" fill-opacity="1" stroke="none" transform="matrix(1,0,0,1,-455.315,92.8543)" font-family="Sans" font-size="152.778" font-weight="400" font-style="normal">
<n1:rect x="544.094" y="184.39" width="35.4331" height="47.2441"/>
</n1:g>

<n1:g fill="#ff0000" fill-opacity="1" stroke="#000000" stroke-opacity="1" stroke-width="19.685" stroke-linecap="round" stroke-linejoin="bevel" transform="matrix(1,0,0,1,-455.315,92.8543)" font-family="Sans" font-size="152.778" font-weight="400" font-style="normal">
<n1:polyline fill="none" vector-effect="none" points="500,25.7283 500,53.2874 "/>
<n1:polyline fill="none" vector-effect="none" points="500,175.335 500,202.894 "/>
<n1:polyline fill="none" vector-effect="none" points="840.157,25.7283 840.157,53.2874 "/>
<n1:polyline fill="none" vector-effect="none" points="840.157,175.335 840.157,202.894 "/>
</n1:g>

<n1:g fill="#ff0000" fill-opacity="1" stroke="#f0f000" stroke-opacity="1" stroke-width="10" stroke-linecap="round" stroke-linejoin="bevel" transform="matrix(1,0,0,1,-455.315,92.8543)" font-family="Sans" font-size="152.778" font-weight="400" font-style="normal">
<n1:polyline fill="none" vector-effect="none" points="846.063,-62.8543 846.063,202.894 "/>
<n1:polyline fill="none" vector-effect="none" points="846.063,202.894 494.094,202.894 "/>
<n1:polyline fill="none" vector-effect="none" points="494.094,-62.8543 846.063,-62.8543 "/>
<n1:polyline fill="none" vector-effect="none" points="494.094,202.894 494.094,-62.8543 "/>
</n1:g>
</n1:g>
</svg>
