/* XPM */
static char *_2_default[] = {
/* columns rows colors chars-per-pixel */
"23 29 3 1 ",
"  c None",
". c black",
"X c white",
/* pixels */
" .                     ",
" ..                    ",
" ...                   ",
" .X..                  ",
" .XX..                 ",
" .XXX..                ",
" .XXXX..               ",
" .XXXXX..              ",
" .XXXXXX..             ",
" .XXXXXXX..            ",
" .XXXXXXXX..           ",
" .XXXXXXXXX..          ",
" .XXXXXXXXXX..         ",
" .XXXXXXXXXXX..        ",
" .XXXXXXXXXXXX..       ",
" .XXXXXXXXXXXXX..      ",
" .XXXXXXXXXXXXXX..     ",
" .XXXXXXXXXXXXXXX..    ",
" .XXXXXXXXXXXXXXXX..   ",
" .XXXXXXXXXXXXXXXXX..  ",
" .XXXXXXXXXXX........  ",
" .XXXXX..XXXX.         ",
" .XXX.. ..XXXX.        ",
" .X..    .XXXX..       ",
" ...     ..XXXX.       ",
"          .XXXX..      ",
"          ..XXXX.      ",
"           .XXXX.      ",
"           ......      ",
};
