<?xml version="1.0" encoding="UTF-8" standalone="no"?>
<svg xmlns="http://www.w3.org/2000/svg" xmlns:dc="http://purl.org/dc/elements/1.1/" xmlns:cc="http://creativecommons.org/ns#" xmlns:rdf="http://www.w3.org/1999/02/22-rdf-syntax-ns#" xmlns:svg="http://www.w3.org/2000/svg" xmlns:sodipodi="http://sodipodi.sourceforge.net/DTD/sodipodi-0.dtd" xmlns:inkscape="http://www.inkscape.org/namespaces/inkscape" width="455" height="224" viewBox="-1267 -609 455 224">
  <g style="opacity:1;fill:none;fill-opacity:1;fill-rule:nonzero;stroke:#000000;stroke-width:1.5;stroke-linecap:square;stroke-linejoin:miter;stroke-miterlimit:4;stroke-dasharray:none;stroke-dashoffset:0;stroke-opacity:1;font-style:normal;font-variant:normal;font-weight:normal;font-size:20.96px;font-family:Lato;">
    <g transform="translate(-1204,-511)">
      <g transform=" translate(-616,-807)">
        <g id="g2374" inkscape:label="part:connector:bnc:in">
    <g transform="translate(-7,460.58335)" id="g2053">
      <g transform="translate(574,-203)" id="g2041">
        <path style="fill:none;stroke:#000000;stroke-width:1.5;stroke-linecap:round;stroke-linejoin:miter;stroke-miterlimit:4;stroke-dasharray:none;stroke-opacity:1" d="m 70,514.41665 -17.25,0" id="path2037" inkscape:connector-curvature="0" sodipodi:nodetypes="cc"/>
        <circle style="opacity:1;fill:none;fill-opacity:1;fill-rule:nonzero;stroke:#000000;stroke-width:1.49999988;stroke-linecap:round;stroke-linejoin:round;stroke-miterlimit:4;stroke-dasharray:none;stroke-dashoffset:0;stroke-opacity:1" id="circle2039" cx="49" cy="514.41663" r="3.75"/>
      </g>
      <path style="opacity:1;fill:none;fill-opacity:1;fill-rule:nonzero;stroke:#000000;stroke-width:1.5;stroke-linecap:square;stroke-linejoin:bevel;stroke-miterlimit:4;stroke-dasharray:none;stroke-dashoffset:0;stroke-opacity:1" d="m 633.71999,321.8585 c -2.80221,2.81626 -6.67343,4.55816 -10.94946,4.55816 -4.27603,0 -8.14725,-1.7419 -10.94946,-4.55816 -2.80221,-2.81627 -4.53542,-6.70691 -4.53542,-11.00438 0,-4.29748 1.73321,-8.18812 4.53542,-11.00438 2.80221,-2.81627 6.67343,-4.55817 10.94946,-4.55817 4.27603,0 8.14725,1.7419 10.94946,4.55817" id="path2043" inkscape:connector-curvature="0"/>
      <path style="opacity:1;fill:none;fill-opacity:1;fill-rule:nonzero;stroke:#000000;stroke-width:1.5;stroke-linecap:round;stroke-linejoin:bevel;stroke-miterlimit:4;stroke-dasharray:none;stroke-dashoffset:0;stroke-opacity:1" d="m 623,326.41294 0,20.00371" id="path2046" inkscape:connector-curvature="0" sodipodi:nodetypes="cc"/>
    </g>
    
    
  </g>
      </g>
      <text style="fill:#000000;stroke:none;font-style:italic" x="-44.5" y="-33.5">J<tspan dy="5" style="font-style:normal;font-size:16">1</tspan>
      </text>
    </g>
    <g transform="translate(-1134,-546)">
      <g transform=" translate(-119,-1178)">
        <g id="g7619" inkscape:label="part:passive:resistor">
    <g id="g2358">
      <path inkscape:connector-curvature="0" id="path3970" style="fill:none;stroke:#000000;stroke-width:1.5;stroke-linecap:round;stroke-linejoin:bevel;stroke-miterlimit:4;stroke-dasharray:none;stroke-opacity:1" d="m 182,1178 h -10.5 l -3.5,-7 -7,14 -7,-14 -7,14 -7,-14 -7,14 -3.5,-7 H 119"/>
    </g>
    
    
  </g>
      </g>
      <text style="fill:#000000;stroke:none;font-style:italic" x="27.5" y="29">R<tspan dy="5" style="font-style:normal;font-size:16">1</tspan>
      </text>
      <text style="fill:#000000;stroke:none" x="27.5" y="57">10 kΩ</text>
    </g>
    <g transform="translate(-1001,-504)">
      <g transform=" translate(-357,-1332)">
        <g id="g7646" inkscape:label="part:passive:capacitor">
    <g transform="translate(35,432.58335)" id="g1579">
      <path style="fill:none;stroke:#000000;stroke-width:1.5;stroke-linecap:round;stroke-linejoin:miter;stroke-miterlimit:4;stroke-dasharray:none;stroke-opacity:1" d="m 322,899.41665 v 14" id="path2791" inkscape:connector-curvature="0"/>
      <path style="fill:none;stroke:#000000;stroke-width:1.5;stroke-linecap:round;stroke-linejoin:miter;stroke-miterlimit:4;stroke-dasharray:none;stroke-opacity:1" d="m 322,920.41665 v 14" id="path2793" inkscape:connector-curvature="0"/>
      <path style="fill:none;stroke:#000000;stroke-width:1.5;stroke-linecap:square;stroke-linejoin:miter;stroke-miterlimit:4;stroke-dasharray:none;stroke-opacity:1" d="m 335.99999,913.41665 h -28" id="path2795" inkscape:connector-curvature="0"/>
      <path style="fill:none;stroke:#000000;stroke-width:1.5;stroke-linecap:square;stroke-linejoin:miter;stroke-miterlimit:4;stroke-dasharray:none;stroke-opacity:1" d="m 335.99999,920.41665 h -28" id="path2797" inkscape:connector-curvature="0"/>
    </g>
    
    
  </g>
      </g>
      <text style="fill:#000000;stroke:none;font-style:italic" x="27" y="15.5">C<tspan dy="5" style="font-style:normal;font-size:16">1</tspan>
      </text>
      <text style="fill:#000000;stroke:none" x="27" y="43.5">100 pF</text>
    </g>
    <g transform="translate(-868,-511)">
      <g transform=" scale(-1,1) translate(-616,-807)">
        <g id="g2374" inkscape:label="part:connector:bnc:in">
    <g transform="translate(-7,460.58335)" id="g2053">
      <g transform="translate(574,-203)" id="g2041">
        <path style="fill:none;stroke:#000000;stroke-width:1.5;stroke-linecap:round;stroke-linejoin:miter;stroke-miterlimit:4;stroke-dasharray:none;stroke-opacity:1" d="m 70,514.41665 -17.25,0" id="path2037" inkscape:connector-curvature="0" sodipodi:nodetypes="cc"/>
        <circle style="opacity:1;fill:none;fill-opacity:1;fill-rule:nonzero;stroke:#000000;stroke-width:1.49999988;stroke-linecap:round;stroke-linejoin:round;stroke-miterlimit:4;stroke-dasharray:none;stroke-dashoffset:0;stroke-opacity:1" id="circle2039" cx="49" cy="514.41663" r="3.75"/>
      </g>
      <path style="opacity:1;fill:none;fill-opacity:1;fill-rule:nonzero;stroke:#000000;stroke-width:1.5;stroke-linecap:square;stroke-linejoin:bevel;stroke-miterlimit:4;stroke-dasharray:none;stroke-dashoffset:0;stroke-opacity:1" d="m 633.71999,321.8585 c -2.80221,2.81626 -6.67343,4.55816 -10.94946,4.55816 -4.27603,0 -8.14725,-1.7419 -10.94946,-4.55816 -2.80221,-2.81627 -4.53542,-6.70691 -4.53542,-11.00438 0,-4.29748 1.73321,-8.18812 4.53542,-11.00438 2.80221,-2.81627 6.67343,-4.55817 10.94946,-4.55817 4.27603,0 8.14725,1.7419 10.94946,4.55817" id="path2043" inkscape:connector-curvature="0"/>
      <path style="opacity:1;fill:none;fill-opacity:1;fill-rule:nonzero;stroke:#000000;stroke-width:1.5;stroke-linecap:round;stroke-linejoin:bevel;stroke-miterlimit:4;stroke-dasharray:none;stroke-dashoffset:0;stroke-opacity:1" d="m 623,326.41294 0,20.00371" id="path2046" inkscape:connector-curvature="0" sodipodi:nodetypes="cc"/>
    </g>
    
    
  </g>
      </g>
    </g>
    <g transform="translate(-1001,-546)">
      <g transform=" translate(-91,-1003)">
        <g id="g7799" inkscape:label="junction">
    
    <circle style="opacity:1;fill:#000000;fill-opacity:1;fill-rule:nonzero;stroke:none;stroke-width:1.5;stroke-linecap:round;stroke-linejoin:round;stroke-miterlimit:4;stroke-dasharray:none;stroke-dashoffset:0;stroke-opacity:1" id="circle1050" cx="91" cy="1003" r="3.5" inkscape:transform-center-x="-0.60614223" inkscape:transform-center-y="0.80818963"/>
  </g>
      </g>
    </g>
    <g transform="translate(-1001,-434)">
      <g transform=" translate(-91,-1003)">
        <g id="g7799" inkscape:label="junction">
    
    <circle style="opacity:1;fill:#000000;fill-opacity:1;fill-rule:nonzero;stroke:none;stroke-width:1.5;stroke-linecap:round;stroke-linejoin:round;stroke-miterlimit:4;stroke-dasharray:none;stroke-dashoffset:0;stroke-opacity:1" id="circle1050" cx="91" cy="1003" r="3.5" inkscape:transform-center-x="-0.60614223" inkscape:transform-center-y="0.80818963"/>
  </g>
      </g>
    </g>
    <path id="con14" d="M -1134,-546 L -1183,-546"/>
    <path id="con25" d="M -1001,-504 L -1001,-546"/>
    <path id="con38" d="M -1001,-546 L -1071,-546"/>
    <path id="con41" d="M -1001,-546 L -889,-546"/>
    <path id="con46" d="M -1001,-434 L -1204,-434 L -1204,-511"/>
    <path id="con60" d="M -1001,-469 L -1001,-434"/>
    <path id="con63" d="M -1001,-434 L -868,-434 L -868,-511"/>
  </g>
</svg>
