<?xml version="1.0" encoding="UTF-8"?>
<svg width="95.25mm" height="76.2mm" viewBox="0 0 374.961 300" version="1.2" baseProfile="tiny" xmlns:n1="http://www.w3.org/2000/svg" xmlns:xlink="http://www.w3.org/1999/xlink" xmlns:cpcb="http://www.danielwagenaar.net/cpcb-ns.html">
  <cpcb:part pkg="JST-PH-3" notes="e.g. Cvilux CI0103P1VK0-NH" xmlns="http://www.danielwagenaar.net/cpcb-ns.html">
    <group ref="J?" pkg="JST-PH-3" notes="e.g. Cvilux CI0103P1VK0-NH">
      <trace p1="450000 332500" p2="450000 380000" w="2540" l="1"/>
      <trace p1="450000 380000" p2="440000 380000" w="2540" l="1"/>
      <trace p1="370000 380000" p2="380000 380000" w="2540" l="1"/>
      <trace p1="370000 340000" p2="450000 340000" w="2540" l="1"/>
      <hole p="430000 360000" id="9000" od="14000" sq="1" ref="1"/>
      <trace p1="370000 332500" p2="450000 332500" w="2540" l="1"/>
      <hole p="410000 360000" id="9000" od="14000" ref="2"/>
      <trace p1="370000 380000" p2="370000 332500" w="2540" l="1"/>
      <hole p="390000 360000" id="9000" od="14000" ref="3"/>
    </group>
    <text p="368730 318530" fs="12700" l="1" rot="0" text="J?"/>
  </cpcb:part>
<n1:title>PCB Component</n1:title>
<n1:desc>Generated by CPCB</n1:desc>
<n1:defs>
</n1:defs>
<n1:g fill="none" stroke="black" stroke-width="1" fill-rule="evenodd" stroke-linecap="square" stroke-linejoin="bevel">

<n1:g fill="#000000" fill-opacity="1" stroke="none" transform="matrix(1,0,0,1,-1426.69,-1252.56)" font-family="Ubuntu" font-size="152.778" font-weight="400" font-style="normal">
<n1:rect x="1426.69" y="1252.56" width="374.961" height="300"/>
</n1:g>

<n1:g fill="#000000" fill-opacity="1" stroke="#00b400" stroke-opacity="1" stroke-width="55.1181" stroke-linecap="butt" stroke-linejoin="bevel" transform="matrix(1,0,0,1,-1426.69,-1252.56)" font-family="Ubuntu" font-size="152.778" font-weight="400" font-style="normal">
<n1:polyline fill="none" vector-effect="none" points="1665.35,1417.32 1720.47,1417.32 "/>
</n1:g>

<n1:g fill="#00b400" fill-opacity="1" stroke="none" transform="matrix(1,0,0,1,-1426.69,-1252.56)" font-family="Ubuntu" font-size="152.778" font-weight="400" font-style="normal">
<n1:circle cx="1614.17" cy="1417.32" r="27.5591"/>
</n1:g>

<n1:g fill="#00b400" fill-opacity="1" stroke="none" transform="matrix(1,0,0,1,-1426.69,-1252.56)" font-family="Ubuntu" font-size="152.778" font-weight="400" font-style="normal">
<n1:circle cx="1535.43" cy="1417.32" r="27.5591"/>
</n1:g>

<n1:g fill="#00b400" fill-opacity="1" stroke="#ff0000" stroke-opacity="1" stroke-width="55.1181" stroke-linecap="butt" stroke-linejoin="bevel" transform="matrix(1,0,0,1,-1426.69,-1252.56)" font-family="Ubuntu" font-size="152.778" font-weight="400" font-style="normal">
<n1:polyline fill="none" vector-effect="none" points="1665.35,1417.32 1720.47,1417.32 "/>
</n1:g>

<n1:g fill="#ff0000" fill-opacity="1" stroke="none" transform="matrix(1,0,0,1,-1426.69,-1252.56)" font-family="Ubuntu" font-size="152.778" font-weight="400" font-style="normal">
<n1:circle cx="1614.17" cy="1417.32" r="27.5591"/>
</n1:g>

<n1:g fill="#ff0000" fill-opacity="1" stroke="none" transform="matrix(1,0,0,1,-1426.69,-1252.56)" font-family="Ubuntu" font-size="152.778" font-weight="400" font-style="normal">
<n1:circle cx="1535.43" cy="1417.32" r="27.5591"/>
</n1:g>

<n1:g fill="#000000" fill-opacity="1" stroke="none" transform="matrix(1,0,0,1,-1426.69,-1252.56)" font-family="Ubuntu" font-size="152.778" font-weight="400" font-style="normal">
<n1:circle cx="1692.91" cy="1417.32" r="17.7165"/>
</n1:g>

<n1:g fill="#000000" fill-opacity="1" stroke="none" transform="matrix(1,0,0,1,-1426.69,-1252.56)" font-family="Ubuntu" font-size="152.778" font-weight="400" font-style="normal">
<n1:circle cx="1614.17" cy="1417.32" r="17.7165"/>
</n1:g>

<n1:g fill="#000000" fill-opacity="1" stroke="none" transform="matrix(1,0,0,1,-1426.69,-1252.56)" font-family="Ubuntu" font-size="152.778" font-weight="400" font-style="normal">
<n1:circle cx="1535.43" cy="1417.32" r="17.7165"/>
</n1:g>

<n1:g fill="#000000" fill-opacity="1" stroke="#f0f000" stroke-opacity="1" stroke-width="10" stroke-linecap="round" stroke-linejoin="bevel" transform="matrix(1,0,0,1,-1426.69,-1252.56)" font-family="Ubuntu" font-size="152.778" font-weight="400" font-style="normal">
<n1:polyline fill="none" vector-effect="none" points="1771.65,1309.06 1771.65,1496.06 "/>
<n1:polyline fill="none" vector-effect="none" points="1771.65,1496.06 1732.28,1496.06 "/>
<n1:polyline fill="none" vector-effect="none" points="1456.69,1496.06 1496.06,1496.06 "/>
<n1:polyline fill="none" vector-effect="none" points="1456.69,1338.58 1771.65,1338.58 "/>
<n1:polyline fill="none" vector-effect="none" points="1456.69,1309.06 1771.65,1309.06 "/>
<n1:polyline fill="none" vector-effect="none" points="1456.69,1496.06 1456.69,1309.06 "/>
</n1:g>
</n1:g>
</svg>
