<?xml version="1.0" encoding="UTF-8"?>
<svg width="115.24mm" height="76.2mm" viewBox="0 0 453.701 300" version="1.2" baseProfile="tiny" xmlns:n1="http://www.w3.org/2000/svg" xmlns:xlink="http://www.w3.org/1999/xlink" xmlns:cpcb="http://www.danielwagenaar.net/cpcb-ns.html">
  <cpcb:part pkg="JST-PH-4" notes="e.g. Cvilux CI0104P1VK0-NH" xmlns="http://www.danielwagenaar.net/cpcb-ns.html">
    <group ref="J?" pkg="JST-PH-4" notes="e.g. Cvilux CI0104P1VK0-NH">
      <trace p1="410000 412500" p2="410000 460000" w="2540" l="1"/>
      <trace p1="410000 460000" p2="400000 460000" w="2540" l="1"/>
      <trace p1="310000 460000" p2="320000 460000" w="2540" l="1"/>
      <trace p1="310000 420000" p2="410000 420000" w="2540" l="1"/>
      <hole p="390000 440000" id="9000" od="14000" sq="1" ref="1"/>
      <trace p1="310000 412500" p2="410000 412500" w="2540" l="1"/>
      <hole p="370000 440000" id="9000" od="14000" ref="2"/>
      <trace p1="310000 460000" p2="310000 412500" w="2540" l="1"/>
      <hole p="350000 440000" id="9000" od="14000" ref="3"/>
      <hole p="330000 440000" id="9000" od="14000" ref="4"/>
    </group>
    <text p="308730 398530" fs="12700" l="1" rot="0" text="J?"/>
  </cpcb:part>
<n1:title>PCB Component</n1:title>
<n1:desc>Generated by CPCB</n1:desc>
<n1:defs>
</n1:defs>
<n1:g fill="none" stroke="black" stroke-width="1" fill-rule="evenodd" stroke-linecap="square" stroke-linejoin="bevel">

<n1:g fill="#000000" fill-opacity="1" stroke="none" transform="matrix(1,0,0,1,-1190.47,-1567.52)" font-family="Ubuntu" font-size="152.778" font-weight="400" font-style="normal">
<n1:rect x="1190.47" y="1567.52" width="453.701" height="300"/>
</n1:g>

<n1:g fill="#000000" fill-opacity="1" stroke="#00b400" stroke-opacity="1" stroke-width="55.1181" stroke-linecap="butt" stroke-linejoin="bevel" transform="matrix(1,0,0,1,-1190.47,-1567.52)" font-family="Ubuntu" font-size="152.778" font-weight="400" font-style="normal">
<n1:polyline fill="none" vector-effect="none" points="1507.87,1732.28 1562.99,1732.28 "/>
</n1:g>

<n1:g fill="#00b400" fill-opacity="1" stroke="none" transform="matrix(1,0,0,1,-1190.47,-1567.52)" font-family="Ubuntu" font-size="152.778" font-weight="400" font-style="normal">
<n1:circle cx="1456.69" cy="1732.28" r="27.5591"/>
</n1:g>

<n1:g fill="#00b400" fill-opacity="1" stroke="none" transform="matrix(1,0,0,1,-1190.47,-1567.52)" font-family="Ubuntu" font-size="152.778" font-weight="400" font-style="normal">
<n1:circle cx="1377.95" cy="1732.28" r="27.5591"/>
</n1:g>

<n1:g fill="#00b400" fill-opacity="1" stroke="none" transform="matrix(1,0,0,1,-1190.47,-1567.52)" font-family="Ubuntu" font-size="152.778" font-weight="400" font-style="normal">
<n1:circle cx="1299.21" cy="1732.28" r="27.5591"/>
</n1:g>

<n1:g fill="#00b400" fill-opacity="1" stroke="#ff0000" stroke-opacity="1" stroke-width="55.1181" stroke-linecap="butt" stroke-linejoin="bevel" transform="matrix(1,0,0,1,-1190.47,-1567.52)" font-family="Ubuntu" font-size="152.778" font-weight="400" font-style="normal">
<n1:polyline fill="none" vector-effect="none" points="1507.87,1732.28 1562.99,1732.28 "/>
</n1:g>

<n1:g fill="#ff0000" fill-opacity="1" stroke="none" transform="matrix(1,0,0,1,-1190.47,-1567.52)" font-family="Ubuntu" font-size="152.778" font-weight="400" font-style="normal">
<n1:circle cx="1456.69" cy="1732.28" r="27.5591"/>
</n1:g>

<n1:g fill="#ff0000" fill-opacity="1" stroke="none" transform="matrix(1,0,0,1,-1190.47,-1567.52)" font-family="Ubuntu" font-size="152.778" font-weight="400" font-style="normal">
<n1:circle cx="1377.95" cy="1732.28" r="27.5591"/>
</n1:g>

<n1:g fill="#ff0000" fill-opacity="1" stroke="none" transform="matrix(1,0,0,1,-1190.47,-1567.52)" font-family="Ubuntu" font-size="152.778" font-weight="400" font-style="normal">
<n1:circle cx="1299.21" cy="1732.28" r="27.5591"/>
</n1:g>

<n1:g fill="#000000" fill-opacity="1" stroke="none" transform="matrix(1,0,0,1,-1190.47,-1567.52)" font-family="Ubuntu" font-size="152.778" font-weight="400" font-style="normal">
<n1:circle cx="1535.43" cy="1732.28" r="17.7165"/>
</n1:g>

<n1:g fill="#000000" fill-opacity="1" stroke="none" transform="matrix(1,0,0,1,-1190.47,-1567.52)" font-family="Ubuntu" font-size="152.778" font-weight="400" font-style="normal">
<n1:circle cx="1456.69" cy="1732.28" r="17.7165"/>
</n1:g>

<n1:g fill="#000000" fill-opacity="1" stroke="none" transform="matrix(1,0,0,1,-1190.47,-1567.52)" font-family="Ubuntu" font-size="152.778" font-weight="400" font-style="normal">
<n1:circle cx="1377.95" cy="1732.28" r="17.7165"/>
</n1:g>

<n1:g fill="#000000" fill-opacity="1" stroke="none" transform="matrix(1,0,0,1,-1190.47,-1567.52)" font-family="Ubuntu" font-size="152.778" font-weight="400" font-style="normal">
<n1:circle cx="1299.21" cy="1732.28" r="17.7165"/>
</n1:g>

<n1:g fill="#000000" fill-opacity="1" stroke="#f0f000" stroke-opacity="1" stroke-width="10" stroke-linecap="round" stroke-linejoin="bevel" transform="matrix(1,0,0,1,-1190.47,-1567.52)" font-family="Ubuntu" font-size="152.778" font-weight="400" font-style="normal">
<n1:polyline fill="none" vector-effect="none" points="1614.17,1624.02 1614.17,1811.02 "/>
<n1:polyline fill="none" vector-effect="none" points="1614.17,1811.02 1574.8,1811.02 "/>
<n1:polyline fill="none" vector-effect="none" points="1220.47,1811.02 1259.84,1811.02 "/>
<n1:polyline fill="none" vector-effect="none" points="1220.47,1653.54 1614.17,1653.54 "/>
<n1:polyline fill="none" vector-effect="none" points="1220.47,1624.02 1614.17,1624.02 "/>
<n1:polyline fill="none" vector-effect="none" points="1220.47,1811.02 1220.47,1624.02 "/>
</n1:g>
</n1:g>
</svg>
