<?xml version="1.0" encoding="UTF-8"?>
<svg width="135.23mm" height="76.2mm" viewBox="0 0 532.441 300" version="1.2" baseProfile="tiny" xmlns:n1="http://www.w3.org/2000/svg" xmlns:xlink="http://www.w3.org/1999/xlink" xmlns:cpcb="http://www.danielwagenaar.net/cpcb-ns.html">
  <cpcb:part pkg="JST-PH-5" notes="e.g. Cvilux CI0105P1VK0-NH" xmlns="http://www.danielwagenaar.net/cpcb-ns.html">
    <group ref="J?" pkg="JST-PH-5" notes="e.g. Cvilux CI0105P1VK0-NH">
      <trace p1="200000 172500" p2="200000 220000" w="2540" l="1"/>
      <trace p1="200000 220000" p2="190000 220000" w="2540" l="1"/>
      <trace p1="80000 220000" p2="90000 220000" w="2540" l="1"/>
      <trace p1="80000 180000" p2="200000 180000" w="2540" l="1"/>
      <hole p="180000 200000" id="9000" od="14000" sq="1" ref="1"/>
      <trace p1="80000 172500" p2="200000 172500" w="2540" l="1"/>
      <hole p="160000 200000" id="9000" od="14000" ref="2"/>
      <trace p1="80000 220000" p2="80000 172500" w="2540" l="1"/>
      <hole p="140000 200000" id="9000" od="14000" ref="3"/>
      <hole p="120000 200000" id="9000" od="14000" ref="4"/>
      <hole p="100000 200000" id="9000" od="14000" ref="5"/>
    </group>
    <text p="78730 158530" fs="12700" l="1" rot="0" text="J?"/>
  </cpcb:part>
<n1:title>PCB Component</n1:title>
<n1:desc>Generated by CPCB</n1:desc>
<n1:defs>
</n1:defs>
<n1:g fill="none" stroke="black" stroke-width="1" fill-rule="evenodd" stroke-linecap="square" stroke-linejoin="bevel">

<n1:g fill="#000000" fill-opacity="1" stroke="none" transform="matrix(1,0,0,1,-284.961,-622.638)" font-family="Ubuntu" font-size="152.778" font-weight="400" font-style="normal">
<n1:rect x="284.961" y="622.638" width="532.441" height="300"/>
</n1:g>

<n1:g fill="#000000" fill-opacity="1" stroke="#00b400" stroke-opacity="1" stroke-width="55.1181" stroke-linecap="butt" stroke-linejoin="bevel" transform="matrix(1,0,0,1,-284.961,-622.638)" font-family="Ubuntu" font-size="152.778" font-weight="400" font-style="normal">
<n1:polyline fill="none" vector-effect="none" points="681.102,787.402 736.22,787.402 "/>
</n1:g>

<n1:g fill="#00b400" fill-opacity="1" stroke="none" transform="matrix(1,0,0,1,-284.961,-622.638)" font-family="Ubuntu" font-size="152.778" font-weight="400" font-style="normal">
<n1:circle cx="629.921" cy="787.402" r="27.5591"/>
</n1:g>

<n1:g fill="#00b400" fill-opacity="1" stroke="none" transform="matrix(1,0,0,1,-284.961,-622.638)" font-family="Ubuntu" font-size="152.778" font-weight="400" font-style="normal">
<n1:circle cx="551.181" cy="787.402" r="27.5591"/>
</n1:g>

<n1:g fill="#00b400" fill-opacity="1" stroke="none" transform="matrix(1,0,0,1,-284.961,-622.638)" font-family="Ubuntu" font-size="152.778" font-weight="400" font-style="normal">
<n1:circle cx="472.441" cy="787.402" r="27.5591"/>
</n1:g>

<n1:g fill="#00b400" fill-opacity="1" stroke="none" transform="matrix(1,0,0,1,-284.961,-622.638)" font-family="Ubuntu" font-size="152.778" font-weight="400" font-style="normal">
<n1:circle cx="393.701" cy="787.402" r="27.5591"/>
</n1:g>

<n1:g fill="#00b400" fill-opacity="1" stroke="#ff0000" stroke-opacity="1" stroke-width="55.1181" stroke-linecap="butt" stroke-linejoin="bevel" transform="matrix(1,0,0,1,-284.961,-622.638)" font-family="Ubuntu" font-size="152.778" font-weight="400" font-style="normal">
<n1:polyline fill="none" vector-effect="none" points="681.102,787.402 736.22,787.402 "/>
</n1:g>

<n1:g fill="#ff0000" fill-opacity="1" stroke="none" transform="matrix(1,0,0,1,-284.961,-622.638)" font-family="Ubuntu" font-size="152.778" font-weight="400" font-style="normal">
<n1:circle cx="629.921" cy="787.402" r="27.5591"/>
</n1:g>

<n1:g fill="#ff0000" fill-opacity="1" stroke="none" transform="matrix(1,0,0,1,-284.961,-622.638)" font-family="Ubuntu" font-size="152.778" font-weight="400" font-style="normal">
<n1:circle cx="551.181" cy="787.402" r="27.5591"/>
</n1:g>

<n1:g fill="#ff0000" fill-opacity="1" stroke="none" transform="matrix(1,0,0,1,-284.961,-622.638)" font-family="Ubuntu" font-size="152.778" font-weight="400" font-style="normal">
<n1:circle cx="472.441" cy="787.402" r="27.5591"/>
</n1:g>

<n1:g fill="#ff0000" fill-opacity="1" stroke="none" transform="matrix(1,0,0,1,-284.961,-622.638)" font-family="Ubuntu" font-size="152.778" font-weight="400" font-style="normal">
<n1:circle cx="393.701" cy="787.402" r="27.5591"/>
</n1:g>

<n1:g fill="#000000" fill-opacity="1" stroke="none" transform="matrix(1,0,0,1,-284.961,-622.638)" font-family="Ubuntu" font-size="152.778" font-weight="400" font-style="normal">
<n1:circle cx="708.661" cy="787.402" r="17.7165"/>
</n1:g>

<n1:g fill="#000000" fill-opacity="1" stroke="none" transform="matrix(1,0,0,1,-284.961,-622.638)" font-family="Ubuntu" font-size="152.778" font-weight="400" font-style="normal">
<n1:circle cx="629.921" cy="787.402" r="17.7165"/>
</n1:g>

<n1:g fill="#000000" fill-opacity="1" stroke="none" transform="matrix(1,0,0,1,-284.961,-622.638)" font-family="Ubuntu" font-size="152.778" font-weight="400" font-style="normal">
<n1:circle cx="551.181" cy="787.402" r="17.7165"/>
</n1:g>

<n1:g fill="#000000" fill-opacity="1" stroke="none" transform="matrix(1,0,0,1,-284.961,-622.638)" font-family="Ubuntu" font-size="152.778" font-weight="400" font-style="normal">
<n1:circle cx="472.441" cy="787.402" r="17.7165"/>
</n1:g>

<n1:g fill="#000000" fill-opacity="1" stroke="none" transform="matrix(1,0,0,1,-284.961,-622.638)" font-family="Ubuntu" font-size="152.778" font-weight="400" font-style="normal">
<n1:circle cx="393.701" cy="787.402" r="17.7165"/>
</n1:g>

<n1:g fill="#000000" fill-opacity="1" stroke="#f0f000" stroke-opacity="1" stroke-width="10" stroke-linecap="round" stroke-linejoin="bevel" transform="matrix(1,0,0,1,-284.961,-622.638)" font-family="Ubuntu" font-size="152.778" font-weight="400" font-style="normal">
<n1:polyline fill="none" vector-effect="none" points="787.402,679.134 787.402,866.142 "/>
<n1:polyline fill="none" vector-effect="none" points="787.402,866.142 748.031,866.142 "/>
<n1:polyline fill="none" vector-effect="none" points="314.961,866.142 354.331,866.142 "/>
<n1:polyline fill="none" vector-effect="none" points="314.961,708.661 787.402,708.661 "/>
<n1:polyline fill="none" vector-effect="none" points="314.961,679.134 787.402,679.134 "/>
<n1:polyline fill="none" vector-effect="none" points="314.961,866.142 314.961,679.134 "/>
</n1:g>
</n1:g>
</svg>
