<?xml version="1.0" encoding="UTF-8"?>
<svg width="12.7mm" height="12.7mm" viewBox="0 0 500 500" version="1.2" baseProfile="tiny" xmlns:n1="http://www.w3.org/2000/svg" xmlns:xlink="http://www.w3.org/1999/xlink" xmlns:cpcb="http://www.danielwagenaar.net/cpcb-ns.html">
  <cpcb:part pkg="DPAK" xmlns="http://www.danielwagenaar.net/cpcb-ns.html">
    <group ref="Q?">
      <hole p="383540 609600" id="11430" od="19050" sq="1" ref="1"/>
      <hole p="429260 609600" id="11430" od="17780" ref="3"/>
      <hole p="406400 609600" id="11430" od="17780" ref="2"/>
      <trace p1="368300 622300" p2="444500 622300" w="2540" l="1"/>
      <trace p1="374650 590550" p2="368300 596900" w="2540" l="1"/>
      <trace p1="368300 596900" p2="368300 622300" w="2540" l="1"/>
      <trace p1="368300 596900" p2="444500 596900" w="2540" l="1"/>
      <trace p1="371602 594360" p2="440944 594614" w="2540" l="1"/>
      <trace p1="375412 592328" p2="437896 592074" w="2540" l="1"/>
      <trace p1="444500 622300" p2="444500 596900" w="2540" l="1"/>
      <trace p1="374650 590550" p2="438150 590550" w="2540" l="1"/>
      <trace p1="438150 590550" p2="444500 596900" w="2540" l="1"/>
    </group>
    <text p="373380 557530" fs="12700" l="1" rot="0" text="Q?"/>
  </cpcb:part>
<n1:title>PCB Component</n1:title>
<n1:desc>Generated by CPCB</n1:desc>
<n1:defs>
</n1:defs>
<n1:g fill="none" stroke="black" stroke-width="1" fill-rule="evenodd" stroke-linecap="square" stroke-linejoin="bevel">

<n1:g fill="#000000" fill-opacity="1" stroke="none" transform="matrix(1,0,0,1,-1350,-2137.5)" font-family="Sans" font-size="125" font-weight="400" font-style="normal">
<n1:rect x="1350" y="2137.5" width="500" height="500"/>
</n1:g>

<n1:g fill="#000000" fill-opacity="1" stroke="#00b400" stroke-opacity="1" stroke-width="75" stroke-linecap="butt" stroke-linejoin="bevel" transform="matrix(1,0,0,1,-1350,-2137.5)" font-family="Sans" font-size="125" font-weight="400" font-style="normal">
<n1:polyline fill="none" vector-effect="none" points="1473,2400 1547,2400 "/>
</n1:g>

<n1:g fill="#00b400" fill-opacity="1" stroke="none" transform="matrix(1,0,0,1,-1350,-2137.5)" font-family="Sans" font-size="125" font-weight="400" font-style="normal">
<n1:circle cx="1690" cy="2400" r="35"/>
</n1:g>

<n1:g fill="#00b400" fill-opacity="1" stroke="none" transform="matrix(1,0,0,1,-1350,-2137.5)" font-family="Sans" font-size="125" font-weight="400" font-style="normal">
<n1:circle cx="1600" cy="2400" r="35"/>
</n1:g>

<n1:g fill="#00b400" fill-opacity="1" stroke="#ff0000" stroke-opacity="1" stroke-width="75" stroke-linecap="butt" stroke-linejoin="bevel" transform="matrix(1,0,0,1,-1350,-2137.5)" font-family="Sans" font-size="125" font-weight="400" font-style="normal">
<n1:polyline fill="none" vector-effect="none" points="1473,2400 1547,2400 "/>
</n1:g>

<n1:g fill="#ff0000" fill-opacity="1" stroke="none" transform="matrix(1,0,0,1,-1350,-2137.5)" font-family="Sans" font-size="125" font-weight="400" font-style="normal">
<n1:circle cx="1690" cy="2400" r="35"/>
</n1:g>

<n1:g fill="#ff0000" fill-opacity="1" stroke="none" transform="matrix(1,0,0,1,-1350,-2137.5)" font-family="Sans" font-size="125" font-weight="400" font-style="normal">
<n1:circle cx="1600" cy="2400" r="35"/>
</n1:g>

<n1:g fill="#ffffff" fill-opacity="1" stroke="none" transform="matrix(1,0,0,1,-1350,-2137.5)" font-family="Sans" font-size="125" font-weight="400" font-style="normal">
<n1:circle cx="1510" cy="2400" r="22.5"/>
</n1:g>

<n1:g fill="#ffffff" fill-opacity="1" stroke="none" transform="matrix(1,0,0,1,-1350,-2137.5)" font-family="Sans" font-size="125" font-weight="400" font-style="normal">
<n1:circle cx="1690" cy="2400" r="22.5"/>
</n1:g>

<n1:g fill="#ffffff" fill-opacity="1" stroke="none" transform="matrix(1,0,0,1,-1350,-2137.5)" font-family="Sans" font-size="125" font-weight="400" font-style="normal">
<n1:circle cx="1600" cy="2400" r="22.5"/>
</n1:g>

<n1:g fill="#ffffff" fill-opacity="1" stroke="#f0f000" stroke-opacity="1" stroke-width="10" stroke-linecap="round" stroke-linejoin="bevel" transform="matrix(1,0,0,1,-1350,-2137.5)" font-family="Sans" font-size="125" font-weight="400" font-style="normal">
<n1:polyline fill="none" vector-effect="none" points="1450,2450 1750,2450 "/>
<n1:polyline fill="none" vector-effect="none" points="1475,2325 1450,2350 "/>
<n1:polyline fill="none" vector-effect="none" points="1450,2350 1450,2450 "/>
<n1:polyline fill="none" vector-effect="none" points="1450,2350 1750,2350 "/>
<n1:polyline fill="none" vector-effect="none" points="1463,2340 1736,2341 "/>
<n1:polyline fill="none" vector-effect="none" points="1478,2332 1724,2331 "/>
<n1:polyline fill="none" vector-effect="none" points="1750,2450 1750,2350 "/>
<n1:polyline fill="none" vector-effect="none" points="1475,2325 1725,2325 "/>
<n1:polyline fill="none" vector-effect="none" points="1725,2325 1750,2350 "/>
</n1:g>
</n1:g>
</svg>
