<?xml version="1.0" encoding="UTF-8"?>
<svg width="12.7mm" height="12.7mm" viewBox="0 0 500 500" version="1.2" baseProfile="tiny" xmlns:n1="http://www.w3.org/2000/svg" xmlns:xlink="http://www.w3.org/1999/xlink" xmlns:cpcb="http://www.danielwagenaar.net/cpcb-ns.html">
  <cpcb:part pkg="TO-92" xmlns="http://www.danielwagenaar.net/cpcb-ns.html">
    <group ref="Q?" pkg="TO-92">
      <hole p="361950 482600" id="8890" od="16510" ref="3"/>
      <hole p="336550 482600" id="8890" od="16510" ref="2"/>
      <trace p1="361442 497840" p2="311150 497840" w="2540" l="1"/>
      <hole p="311150 482600" id="8890" od="16510" sq="1" ref="1"/>
      <arc p="336296 483108" r="29210" lw="2540" l="1" ang="240" rota="240"/>
    </group>
    <text p="297180 457962" fs="12700" l="1" rot="0" text="Q?"/>
  </cpcb:part>
<n1:title>PCB Component</n1:title>
<n1:desc>Generated by CPCB</n1:desc>
<n1:defs>
</n1:defs>
<n1:g fill="none" stroke="black" stroke-width="1" fill-rule="evenodd" stroke-linecap="square" stroke-linejoin="bevel">

<n1:g fill="#000000" fill-opacity="1" stroke="none" transform="matrix(1,0,0,1,-1075,-1623.5)" font-family="Sans" font-size="125" font-weight="400" font-style="normal">
<n1:rect x="1075" y="1623.5" width="500" height="500"/>
</n1:g>

<n1:g fill="#00b400" fill-opacity="1" stroke="none" transform="matrix(1,0,0,1,-1075,-1623.5)" font-family="Sans" font-size="125" font-weight="400" font-style="normal">
<n1:circle cx="1425" cy="1900" r="32.5"/>
</n1:g>

<n1:g fill="#00b400" fill-opacity="1" stroke="none" transform="matrix(1,0,0,1,-1075,-1623.5)" font-family="Sans" font-size="125" font-weight="400" font-style="normal">
<n1:circle cx="1325" cy="1900" r="32.5"/>
</n1:g>

<n1:g fill="#00b400" fill-opacity="1" stroke="#00b400" stroke-opacity="1" stroke-width="65" stroke-linecap="butt" stroke-linejoin="bevel" transform="matrix(1,0,0,1,-1075,-1623.5)" font-family="Sans" font-size="125" font-weight="400" font-style="normal">
<n1:polyline fill="none" vector-effect="none" points="1193,1900 1257,1900 "/>
</n1:g>

<n1:g fill="#ff0000" fill-opacity="1" stroke="none" transform="matrix(1,0,0,1,-1075,-1623.5)" font-family="Sans" font-size="125" font-weight="400" font-style="normal">
<n1:circle cx="1425" cy="1900" r="32.5"/>
</n1:g>

<n1:g fill="#ff0000" fill-opacity="1" stroke="none" transform="matrix(1,0,0,1,-1075,-1623.5)" font-family="Sans" font-size="125" font-weight="400" font-style="normal">
<n1:circle cx="1325" cy="1900" r="32.5"/>
</n1:g>

<n1:g fill="#ff0000" fill-opacity="1" stroke="#ff0000" stroke-opacity="1" stroke-width="65" stroke-linecap="butt" stroke-linejoin="bevel" transform="matrix(1,0,0,1,-1075,-1623.5)" font-family="Sans" font-size="125" font-weight="400" font-style="normal">
<n1:polyline fill="none" vector-effect="none" points="1193,1900 1257,1900 "/>
</n1:g>

<n1:g fill="#ffffff" fill-opacity="1" stroke="none" transform="matrix(1,0,0,1,-1075,-1623.5)" font-family="Sans" font-size="125" font-weight="400" font-style="normal">
<n1:circle cx="1425" cy="1900" r="17.5"/>
</n1:g>

<n1:g fill="#ffffff" fill-opacity="1" stroke="none" transform="matrix(1,0,0,1,-1075,-1623.5)" font-family="Sans" font-size="125" font-weight="400" font-style="normal">
<n1:circle cx="1325" cy="1900" r="17.5"/>
</n1:g>

<n1:g fill="#ffffff" fill-opacity="1" stroke="none" transform="matrix(1,0,0,1,-1075,-1623.5)" font-family="Sans" font-size="125" font-weight="400" font-style="normal">
<n1:circle cx="1225" cy="1900" r="17.5"/>
</n1:g>

<n1:g fill="#ffffff" fill-opacity="1" stroke="#f0f000" stroke-opacity="1" stroke-width="10" stroke-linecap="round" stroke-linejoin="bevel" transform="matrix(1,0,0,1,-1075,-1623.5)" font-family="Sans" font-size="125" font-weight="400" font-style="normal">
<n1:polyline fill="none" vector-effect="none" points="1423,1960 1225,1960 "/>
</n1:g>

<n1:g fill="none" stroke="#f0f000" stroke-opacity="1" stroke-width="10" stroke-linecap="round" stroke-linejoin="bevel" transform="matrix(1,0,0,1,-1075,-1623.5)" font-family="Sans" font-size="125" font-weight="400" font-style="normal">
<n1:path vector-effect="none" fill-rule="evenodd" d="M1423.61,1959.51 C1433.4,1942.6 1439,1922.95 1439,1902 C1439,1838.49 1387.51,1787 1324,1787 C1260.49,1787 1209,1838.49 1209,1902 C1209,1922.95 1214.6,1942.6 1224.4,1959.52 "/>
</n1:g>
</n1:g>
</svg>
