<?xml version="1.0" encoding="UTF-8"?>
<svg width="107.239mm" height="269.697mm" viewBox="0 0 422.205 1061.79" version="1.2" baseProfile="tiny" xmlns:n1="http://www.w3.org/2000/svg" xmlns:xlink="http://www.w3.org/1999/xlink" xmlns:cpcb="http://www.danielwagenaar.net/cpcb-ns.html">
  <cpcb:part pkg="Header-7x2" notes="" xmlns="http://www.danielwagenaar.net/cpcb-ns.html">
    <group ref="J?" pkg="Header-7x2" notes="">
      <hole p="1708150 425450" id="10160" od="16510" ref="3"/>
      <hole p="1708150 400050" id="10160" od="16510" sq="1" ref="1"/>
      <hole p="1733550 400050" id="10160" od="16510" ref="2"/>
      <trace p1="1766850 603504" p2="1766850 349050" w="2540" l="1"/>
      <trace p1="1674850 603504" p2="1766850 603504" w="2540" l="1"/>
      <trace p1="1766850 349050" p2="1674850 349050" w="2540" l="1"/>
      <hole p="1733550 425450" id="10160" od="16510" ref="4"/>
      <hole p="1708150 450850" id="10160" od="16510" ref="5"/>
      <hole p="1733550 476250" id="10160" od="16510" ref="8"/>
      <hole p="1733550 450850" id="10160" od="16510" ref="6"/>
      <hole p="1708150 476250" id="10160" od="16510" ref="7"/>
      <hole p="1708150 501650" id="10160" od="16510" ref="9"/>
      <hole p="1733550 552450" id="10160" od="16510" ref="14"/>
      <hole p="1733550 501650" id="10160" od="16510" ref="10"/>
      <hole p="1708150 527050" id="10160" od="16510" ref="11"/>
      <hole p="1708150 552450" id="10160" od="16510" ref="13"/>
      <hole p="1733550 527050" id="10160" od="16510" ref="12"/>
      <trace p1="1674850 349050" p2="1674850 457205" w="2540" l="1"/>
      <trace p1="1674850 603504" p2="1674850 495305" w="2540" l="1"/>
    </group>
    <text p="1707930 329030" fs="12700" l="1" rot="0" text="J?"/>
  </cpcb:part>
<n1:title>PCB Component</n1:title>
<n1:desc>Generated by CPCB</n1:desc>
<n1:defs>
</n1:defs>
<n1:g fill="none" stroke="black" stroke-width="1" fill-rule="evenodd" stroke-linecap="square" stroke-linejoin="bevel">

<n1:g fill="#000000" fill-opacity="1" stroke="none" transform="matrix(1,0,0,1,-6563.9,-1344.21)" font-family="Noto Sans" font-size="152.778" font-weight="400" font-style="normal">
<n1:rect x="6563.9" y="1344.21" width="422.205" height="1061.79"/>
</n1:g>

<n1:g fill="#00b400" fill-opacity="1" stroke="none" transform="matrix(1,0,0,1,-6563.9,-1344.21)" font-family="Noto Sans" font-size="152.778" font-weight="400" font-style="normal">
<n1:circle cx="6725" cy="1675" r="32.5"/>
</n1:g>

<n1:g fill="#00b400" fill-opacity="1" stroke="#00b400" stroke-opacity="1" stroke-width="65" stroke-linecap="butt" stroke-linejoin="bevel" transform="matrix(1,0,0,1,-6563.9,-1344.21)" font-family="Noto Sans" font-size="152.778" font-weight="400" font-style="normal">
<n1:polyline fill="none" vector-effect="none" points="6692.5,1575 6757.5,1575 "/>
</n1:g>

<n1:g fill="#00b400" fill-opacity="1" stroke="none" transform="matrix(1,0,0,1,-6563.9,-1344.21)" font-family="Noto Sans" font-size="152.778" font-weight="400" font-style="normal">
<n1:circle cx="6825" cy="1575" r="32.5"/>
</n1:g>

<n1:g fill="#00b400" fill-opacity="1" stroke="none" transform="matrix(1,0,0,1,-6563.9,-1344.21)" font-family="Noto Sans" font-size="152.778" font-weight="400" font-style="normal">
<n1:circle cx="6825" cy="1675" r="32.5"/>
</n1:g>

<n1:g fill="#00b400" fill-opacity="1" stroke="none" transform="matrix(1,0,0,1,-6563.9,-1344.21)" font-family="Noto Sans" font-size="152.778" font-weight="400" font-style="normal">
<n1:circle cx="6725" cy="1775" r="32.5"/>
</n1:g>

<n1:g fill="#00b400" fill-opacity="1" stroke="none" transform="matrix(1,0,0,1,-6563.9,-1344.21)" font-family="Noto Sans" font-size="152.778" font-weight="400" font-style="normal">
<n1:circle cx="6825" cy="1875" r="32.5"/>
</n1:g>

<n1:g fill="#00b400" fill-opacity="1" stroke="none" transform="matrix(1,0,0,1,-6563.9,-1344.21)" font-family="Noto Sans" font-size="152.778" font-weight="400" font-style="normal">
<n1:circle cx="6825" cy="1775" r="32.5"/>
</n1:g>

<n1:g fill="#00b400" fill-opacity="1" stroke="none" transform="matrix(1,0,0,1,-6563.9,-1344.21)" font-family="Noto Sans" font-size="152.778" font-weight="400" font-style="normal">
<n1:circle cx="6725" cy="1875" r="32.5"/>
</n1:g>

<n1:g fill="#00b400" fill-opacity="1" stroke="none" transform="matrix(1,0,0,1,-6563.9,-1344.21)" font-family="Noto Sans" font-size="152.778" font-weight="400" font-style="normal">
<n1:circle cx="6725" cy="1975" r="32.5"/>
</n1:g>

<n1:g fill="#00b400" fill-opacity="1" stroke="none" transform="matrix(1,0,0,1,-6563.9,-1344.21)" font-family="Noto Sans" font-size="152.778" font-weight="400" font-style="normal">
<n1:circle cx="6825" cy="2175" r="32.5"/>
</n1:g>

<n1:g fill="#00b400" fill-opacity="1" stroke="none" transform="matrix(1,0,0,1,-6563.9,-1344.21)" font-family="Noto Sans" font-size="152.778" font-weight="400" font-style="normal">
<n1:circle cx="6825" cy="1975" r="32.5"/>
</n1:g>

<n1:g fill="#00b400" fill-opacity="1" stroke="none" transform="matrix(1,0,0,1,-6563.9,-1344.21)" font-family="Noto Sans" font-size="152.778" font-weight="400" font-style="normal">
<n1:circle cx="6725" cy="2075" r="32.5"/>
</n1:g>

<n1:g fill="#00b400" fill-opacity="1" stroke="none" transform="matrix(1,0,0,1,-6563.9,-1344.21)" font-family="Noto Sans" font-size="152.778" font-weight="400" font-style="normal">
<n1:circle cx="6725" cy="2175" r="32.5"/>
</n1:g>

<n1:g fill="#00b400" fill-opacity="1" stroke="none" transform="matrix(1,0,0,1,-6563.9,-1344.21)" font-family="Noto Sans" font-size="152.778" font-weight="400" font-style="normal">
<n1:circle cx="6825" cy="2075" r="32.5"/>
</n1:g>

<n1:g fill="#ff0000" fill-opacity="1" stroke="none" transform="matrix(1,0,0,1,-6563.9,-1344.21)" font-family="Noto Sans" font-size="152.778" font-weight="400" font-style="normal">
<n1:circle cx="6725" cy="1675" r="32.5"/>
</n1:g>

<n1:g fill="#ff0000" fill-opacity="1" stroke="#ff0000" stroke-opacity="1" stroke-width="65" stroke-linecap="butt" stroke-linejoin="bevel" transform="matrix(1,0,0,1,-6563.9,-1344.21)" font-family="Noto Sans" font-size="152.778" font-weight="400" font-style="normal">
<n1:polyline fill="none" vector-effect="none" points="6692.5,1575 6757.5,1575 "/>
</n1:g>

<n1:g fill="#ff0000" fill-opacity="1" stroke="none" transform="matrix(1,0,0,1,-6563.9,-1344.21)" font-family="Noto Sans" font-size="152.778" font-weight="400" font-style="normal">
<n1:circle cx="6825" cy="1575" r="32.5"/>
</n1:g>

<n1:g fill="#ff0000" fill-opacity="1" stroke="none" transform="matrix(1,0,0,1,-6563.9,-1344.21)" font-family="Noto Sans" font-size="152.778" font-weight="400" font-style="normal">
<n1:circle cx="6825" cy="1675" r="32.5"/>
</n1:g>

<n1:g fill="#ff0000" fill-opacity="1" stroke="none" transform="matrix(1,0,0,1,-6563.9,-1344.21)" font-family="Noto Sans" font-size="152.778" font-weight="400" font-style="normal">
<n1:circle cx="6725" cy="1775" r="32.5"/>
</n1:g>

<n1:g fill="#ff0000" fill-opacity="1" stroke="none" transform="matrix(1,0,0,1,-6563.9,-1344.21)" font-family="Noto Sans" font-size="152.778" font-weight="400" font-style="normal">
<n1:circle cx="6825" cy="1875" r="32.5"/>
</n1:g>

<n1:g fill="#ff0000" fill-opacity="1" stroke="none" transform="matrix(1,0,0,1,-6563.9,-1344.21)" font-family="Noto Sans" font-size="152.778" font-weight="400" font-style="normal">
<n1:circle cx="6825" cy="1775" r="32.5"/>
</n1:g>

<n1:g fill="#ff0000" fill-opacity="1" stroke="none" transform="matrix(1,0,0,1,-6563.9,-1344.21)" font-family="Noto Sans" font-size="152.778" font-weight="400" font-style="normal">
<n1:circle cx="6725" cy="1875" r="32.5"/>
</n1:g>

<n1:g fill="#ff0000" fill-opacity="1" stroke="none" transform="matrix(1,0,0,1,-6563.9,-1344.21)" font-family="Noto Sans" font-size="152.778" font-weight="400" font-style="normal">
<n1:circle cx="6725" cy="1975" r="32.5"/>
</n1:g>

<n1:g fill="#ff0000" fill-opacity="1" stroke="none" transform="matrix(1,0,0,1,-6563.9,-1344.21)" font-family="Noto Sans" font-size="152.778" font-weight="400" font-style="normal">
<n1:circle cx="6825" cy="2175" r="32.5"/>
</n1:g>

<n1:g fill="#ff0000" fill-opacity="1" stroke="none" transform="matrix(1,0,0,1,-6563.9,-1344.21)" font-family="Noto Sans" font-size="152.778" font-weight="400" font-style="normal">
<n1:circle cx="6825" cy="1975" r="32.5"/>
</n1:g>

<n1:g fill="#ff0000" fill-opacity="1" stroke="none" transform="matrix(1,0,0,1,-6563.9,-1344.21)" font-family="Noto Sans" font-size="152.778" font-weight="400" font-style="normal">
<n1:circle cx="6725" cy="2075" r="32.5"/>
</n1:g>

<n1:g fill="#ff0000" fill-opacity="1" stroke="none" transform="matrix(1,0,0,1,-6563.9,-1344.21)" font-family="Noto Sans" font-size="152.778" font-weight="400" font-style="normal">
<n1:circle cx="6725" cy="2175" r="32.5"/>
</n1:g>

<n1:g fill="#ff0000" fill-opacity="1" stroke="none" transform="matrix(1,0,0,1,-6563.9,-1344.21)" font-family="Noto Sans" font-size="152.778" font-weight="400" font-style="normal">
<n1:circle cx="6825" cy="2075" r="32.5"/>
</n1:g>

<n1:g fill="#000000" fill-opacity="1" stroke="none" transform="matrix(1,0,0,1,-6563.9,-1344.21)" font-family="Noto Sans" font-size="152.778" font-weight="400" font-style="normal">
<n1:circle cx="6725" cy="1675" r="20"/>
<n1:circle cx="6725" cy="1575" r="20"/>
<n1:circle cx="6825" cy="1575" r="20"/>
<n1:circle cx="6825" cy="1675" r="20"/>
<n1:circle cx="6725" cy="1775" r="20"/>
<n1:circle cx="6825" cy="1875" r="20"/>
<n1:circle cx="6825" cy="1775" r="20"/>
<n1:circle cx="6725" cy="1875" r="20"/>
<n1:circle cx="6725" cy="1975" r="20"/>
<n1:circle cx="6825" cy="2175" r="20"/>
<n1:circle cx="6825" cy="1975" r="20"/>
<n1:circle cx="6725" cy="2075" r="20"/>
<n1:circle cx="6725" cy="2175" r="20"/>
<n1:circle cx="6825" cy="2075" r="20"/>
</n1:g>

<n1:g fill="#000000" fill-opacity="1" stroke="#f0f000" stroke-opacity="1" stroke-width="10" stroke-linecap="round" stroke-linejoin="bevel" transform="matrix(1,0,0,1,-6563.9,-1344.21)" font-family="Noto Sans" font-size="152.778" font-weight="400" font-style="normal">
<n1:polyline fill="none" vector-effect="none" points="6956.1,2376 6956.1,1374.21 "/>
<n1:polyline fill="none" vector-effect="none" points="6593.9,2376 6956.1,2376 "/>
<n1:polyline fill="none" vector-effect="none" points="6956.1,1374.21 6593.9,1374.21 "/>
<n1:polyline fill="none" vector-effect="none" points="6593.9,1374.21 6593.9,1800.02 "/>
<n1:polyline fill="none" vector-effect="none" points="6593.9,2376 6593.9,1950.02 "/>
</n1:g>
</n1:g>
</svg>
