<?xml version="1.0" encoding="UTF-8"?>
<svg width="12.7mm" height="14.224mm" viewBox="0 0 500 560" version="1.2" baseProfile="tiny" xmlns:n1="http://www.w3.org/2000/svg" xmlns:xlink="http://www.w3.org/1999/xlink" xmlns:cpcb="http://www.danielwagenaar.net/cpcb-ns.html">
  <cpcb:part pkg="Header-5" xmlns="http://www.danielwagenaar.net/cpcb-ns.html">
    <group ref="J?" pkg="Header-5">
      <hole p="139700 317500" id="10160" od="16510" ref="3"/>
      <trace p1="127000 254000" p2="127000 381000" w="2540" l="1"/>
      <hole p="139700 266700" id="10160" od="16510" sq="1" ref="1"/>
      <hole p="139700 292100" id="10160" od="16510" ref="2"/>
      <trace p1="152400 381000" p2="152400 254000" w="2540" l="1"/>
      <trace p1="127000 381000" p2="152400 381000" w="2540" l="1"/>
      <trace p1="152400 254000" p2="127000 254000" w="2540" l="1"/>
      <hole p="139700 342900" id="10160" od="16510" ref="4"/>
      <hole p="139700 368300" id="10160" od="16510" ref="5"/>
    </group>
    <text p="125730 240030" fs="12700" l="1" rot="0" text="J?"/>
  </cpcb:part>
<n1:title>PCB Component</n1:title>
<n1:desc>Generated by CPCB</n1:desc>
<n1:defs>
</n1:defs>
<n1:g fill="none" stroke="black" stroke-width="1" fill-rule="evenodd" stroke-linecap="square" stroke-linejoin="bevel">

<n1:g fill="#000000" fill-opacity="1" stroke="none" transform="matrix(1,0,0,1,-300,-970)" font-family="Sans" font-size="125" font-weight="400" font-style="normal">
<n1:rect x="300" y="970" width="500" height="560"/>
</n1:g>

<n1:g fill="#00b400" fill-opacity="1" stroke="none" transform="matrix(1,0,0,1,-300,-970)" font-family="Sans" font-size="125" font-weight="400" font-style="normal">
<n1:circle cx="550" cy="1250" r="32.5"/>
</n1:g>

<n1:g fill="#00b400" fill-opacity="1" stroke="#00b400" stroke-opacity="1" stroke-width="65" stroke-linecap="butt" stroke-linejoin="bevel" transform="matrix(1,0,0,1,-300,-970)" font-family="Sans" font-size="125" font-weight="400" font-style="normal">
<n1:polyline fill="none" vector-effect="none" points="518,1050 582,1050 "/>
</n1:g>

<n1:g fill="#00b400" fill-opacity="1" stroke="none" transform="matrix(1,0,0,1,-300,-970)" font-family="Sans" font-size="125" font-weight="400" font-style="normal">
<n1:circle cx="550" cy="1150" r="32.5"/>
</n1:g>

<n1:g fill="#00b400" fill-opacity="1" stroke="none" transform="matrix(1,0,0,1,-300,-970)" font-family="Sans" font-size="125" font-weight="400" font-style="normal">
<n1:circle cx="550" cy="1350" r="32.5"/>
</n1:g>

<n1:g fill="#00b400" fill-opacity="1" stroke="none" transform="matrix(1,0,0,1,-300,-970)" font-family="Sans" font-size="125" font-weight="400" font-style="normal">
<n1:circle cx="550" cy="1450" r="32.5"/>
</n1:g>

<n1:g fill="#ff0000" fill-opacity="1" stroke="none" transform="matrix(1,0,0,1,-300,-970)" font-family="Sans" font-size="125" font-weight="400" font-style="normal">
<n1:circle cx="550" cy="1250" r="32.5"/>
</n1:g>

<n1:g fill="#ff0000" fill-opacity="1" stroke="#ff0000" stroke-opacity="1" stroke-width="65" stroke-linecap="butt" stroke-linejoin="bevel" transform="matrix(1,0,0,1,-300,-970)" font-family="Sans" font-size="125" font-weight="400" font-style="normal">
<n1:polyline fill="none" vector-effect="none" points="518,1050 582,1050 "/>
</n1:g>

<n1:g fill="#ff0000" fill-opacity="1" stroke="none" transform="matrix(1,0,0,1,-300,-970)" font-family="Sans" font-size="125" font-weight="400" font-style="normal">
<n1:circle cx="550" cy="1150" r="32.5"/>
</n1:g>

<n1:g fill="#ff0000" fill-opacity="1" stroke="none" transform="matrix(1,0,0,1,-300,-970)" font-family="Sans" font-size="125" font-weight="400" font-style="normal">
<n1:circle cx="550" cy="1350" r="32.5"/>
</n1:g>

<n1:g fill="#ff0000" fill-opacity="1" stroke="none" transform="matrix(1,0,0,1,-300,-970)" font-family="Sans" font-size="125" font-weight="400" font-style="normal">
<n1:circle cx="550" cy="1450" r="32.5"/>
</n1:g>

<n1:g fill="#ffffff" fill-opacity="1" stroke="none" transform="matrix(1,0,0,1,-300,-970)" font-family="Sans" font-size="125" font-weight="400" font-style="normal">
<n1:circle cx="550" cy="1250" r="20"/>
</n1:g>

<n1:g fill="#ffffff" fill-opacity="1" stroke="none" transform="matrix(1,0,0,1,-300,-970)" font-family="Sans" font-size="125" font-weight="400" font-style="normal">
<n1:circle cx="550" cy="1050" r="20"/>
</n1:g>

<n1:g fill="#ffffff" fill-opacity="1" stroke="none" transform="matrix(1,0,0,1,-300,-970)" font-family="Sans" font-size="125" font-weight="400" font-style="normal">
<n1:circle cx="550" cy="1150" r="20"/>
</n1:g>

<n1:g fill="#ffffff" fill-opacity="1" stroke="none" transform="matrix(1,0,0,1,-300,-970)" font-family="Sans" font-size="125" font-weight="400" font-style="normal">
<n1:circle cx="550" cy="1350" r="20"/>
</n1:g>

<n1:g fill="#ffffff" fill-opacity="1" stroke="none" transform="matrix(1,0,0,1,-300,-970)" font-family="Sans" font-size="125" font-weight="400" font-style="normal">
<n1:circle cx="550" cy="1450" r="20"/>
</n1:g>

<n1:g fill="#ffffff" fill-opacity="1" stroke="#f0f000" stroke-opacity="1" stroke-width="10" stroke-linecap="round" stroke-linejoin="bevel" transform="matrix(1,0,0,1,-300,-970)" font-family="Sans" font-size="125" font-weight="400" font-style="normal">
<n1:polyline fill="none" vector-effect="none" points="500,1000 500,1500 "/>
<n1:polyline fill="none" vector-effect="none" points="600,1500 600,1000 "/>
<n1:polyline fill="none" vector-effect="none" points="500,1500 600,1500 "/>
<n1:polyline fill="none" vector-effect="none" points="600,1000 500,1000 "/>
</n1:g>
</n1:g>
</svg>
