<?xml version="1.0" encoding="UTF-8"?>
<svg width="76.2mm" height="421.64mm" viewBox="0 0 300 1660" version="1.2" baseProfile="tiny" xmlns:n1="http://www.w3.org/2000/svg" xmlns:xlink="http://www.w3.org/1999/xlink" xmlns:cpcb="http://www.danielwagenaar.net/cpcb-ns.html">
  <cpcb:part pkg="Header-16" xmlns="http://www.danielwagenaar.net/cpcb-ns.html">
    <group ref="J?" pkg="Header-16">
      <hole p="711200 254000" id="10160" od="16510" ref="3"/>
      <trace p1="698500 190500" p2="698500 596900" w="2540" l="1"/>
      <hole p="711200 203200" id="10160" od="16510" sq="1" ref="1"/>
      <hole p="711200 228600" id="10160" od="16510" ref="2"/>
      <trace p1="723900 596900" p2="723900 190500" w="2540" l="1"/>
      <trace p1="698500 596900" p2="723900 596900" w="2540" l="1"/>
      <trace p1="723900 190500" p2="698500 190500" w="2540" l="1"/>
      <hole p="711200 279400" id="10160" od="16510" ref="4"/>
      <hole p="711200 304800" id="10160" od="16510" ref="5"/>
      <hole p="711200 381000" id="10160" od="16510" ref="8"/>
      <hole p="711200 330200" id="10160" od="16510" ref="6"/>
      <hole p="711200 355600" id="10160" od="16510" ref="7"/>
      <hole p="711200 406400" id="10160" od="16510" ref="9"/>
      <hole p="711200 533400" id="10160" od="16510" ref="14"/>
      <hole p="711200 431800" id="10160" od="16510" ref="10"/>
      <hole p="711200 457200" id="10160" od="16510" ref="11"/>
      <hole p="711200 508000" id="10160" od="16510" ref="13"/>
      <hole p="711200 482600" id="10160" od="16510" ref="12"/>
      <hole p="711200 558800" id="10160" od="16510" ref="15"/>
      <hole p="711200 584200" id="10160" od="16510" ref="16"/>
    </group>
    <text p="730030 189330" fs="12700" l="1" rot="0" text="J?"/>
  </cpcb:part>
<n1:title>PCB Component</n1:title>
<n1:desc>Generated by CPCB</n1:desc>
<n1:defs>
</n1:defs>
<n1:g fill="none" stroke="black" stroke-width="1" fill-rule="evenodd" stroke-linecap="square" stroke-linejoin="bevel">

<n1:g fill="#000000" fill-opacity="1" stroke="none" transform="matrix(1,0,0,1,-2650,-720)" font-family="Noto Sans" font-size="152.778" font-weight="400" font-style="normal">
<n1:rect x="2650" y="720" width="300" height="1660"/>
</n1:g>

<n1:g fill="#00b400" fill-opacity="1" stroke="none" transform="matrix(1,0,0,1,-2650,-720)" font-family="Noto Sans" font-size="152.778" font-weight="400" font-style="normal">
<n1:circle cx="2800" cy="1000" r="32.5"/>
</n1:g>

<n1:g fill="#00b400" fill-opacity="1" stroke="#00b400" stroke-opacity="1" stroke-width="65" stroke-linecap="butt" stroke-linejoin="bevel" transform="matrix(1,0,0,1,-2650,-720)" font-family="Noto Sans" font-size="152.778" font-weight="400" font-style="normal">
<n1:polyline fill="none" vector-effect="none" points="2767.5,800 2832.5,800 "/>
</n1:g>

<n1:g fill="#00b400" fill-opacity="1" stroke="none" transform="matrix(1,0,0,1,-2650,-720)" font-family="Noto Sans" font-size="152.778" font-weight="400" font-style="normal">
<n1:circle cx="2800" cy="900" r="32.5"/>
</n1:g>

<n1:g fill="#00b400" fill-opacity="1" stroke="none" transform="matrix(1,0,0,1,-2650,-720)" font-family="Noto Sans" font-size="152.778" font-weight="400" font-style="normal">
<n1:circle cx="2800" cy="1100" r="32.5"/>
</n1:g>

<n1:g fill="#00b400" fill-opacity="1" stroke="none" transform="matrix(1,0,0,1,-2650,-720)" font-family="Noto Sans" font-size="152.778" font-weight="400" font-style="normal">
<n1:circle cx="2800" cy="1200" r="32.5"/>
</n1:g>

<n1:g fill="#00b400" fill-opacity="1" stroke="none" transform="matrix(1,0,0,1,-2650,-720)" font-family="Noto Sans" font-size="152.778" font-weight="400" font-style="normal">
<n1:circle cx="2800" cy="1500" r="32.5"/>
</n1:g>

<n1:g fill="#00b400" fill-opacity="1" stroke="none" transform="matrix(1,0,0,1,-2650,-720)" font-family="Noto Sans" font-size="152.778" font-weight="400" font-style="normal">
<n1:circle cx="2800" cy="1300" r="32.5"/>
</n1:g>

<n1:g fill="#00b400" fill-opacity="1" stroke="none" transform="matrix(1,0,0,1,-2650,-720)" font-family="Noto Sans" font-size="152.778" font-weight="400" font-style="normal">
<n1:circle cx="2800" cy="1400" r="32.5"/>
</n1:g>

<n1:g fill="#00b400" fill-opacity="1" stroke="none" transform="matrix(1,0,0,1,-2650,-720)" font-family="Noto Sans" font-size="152.778" font-weight="400" font-style="normal">
<n1:circle cx="2800" cy="1600" r="32.5"/>
</n1:g>

<n1:g fill="#00b400" fill-opacity="1" stroke="none" transform="matrix(1,0,0,1,-2650,-720)" font-family="Noto Sans" font-size="152.778" font-weight="400" font-style="normal">
<n1:circle cx="2800" cy="2100" r="32.5"/>
</n1:g>

<n1:g fill="#00b400" fill-opacity="1" stroke="none" transform="matrix(1,0,0,1,-2650,-720)" font-family="Noto Sans" font-size="152.778" font-weight="400" font-style="normal">
<n1:circle cx="2800" cy="1700" r="32.5"/>
</n1:g>

<n1:g fill="#00b400" fill-opacity="1" stroke="none" transform="matrix(1,0,0,1,-2650,-720)" font-family="Noto Sans" font-size="152.778" font-weight="400" font-style="normal">
<n1:circle cx="2800" cy="1800" r="32.5"/>
</n1:g>

<n1:g fill="#00b400" fill-opacity="1" stroke="none" transform="matrix(1,0,0,1,-2650,-720)" font-family="Noto Sans" font-size="152.778" font-weight="400" font-style="normal">
<n1:circle cx="2800" cy="2000" r="32.5"/>
</n1:g>

<n1:g fill="#00b400" fill-opacity="1" stroke="none" transform="matrix(1,0,0,1,-2650,-720)" font-family="Noto Sans" font-size="152.778" font-weight="400" font-style="normal">
<n1:circle cx="2800" cy="1900" r="32.5"/>
</n1:g>

<n1:g fill="#00b400" fill-opacity="1" stroke="none" transform="matrix(1,0,0,1,-2650,-720)" font-family="Noto Sans" font-size="152.778" font-weight="400" font-style="normal">
<n1:circle cx="2800" cy="2200" r="32.5"/>
</n1:g>

<n1:g fill="#00b400" fill-opacity="1" stroke="none" transform="matrix(1,0,0,1,-2650,-720)" font-family="Noto Sans" font-size="152.778" font-weight="400" font-style="normal">
<n1:circle cx="2800" cy="2300" r="32.5"/>
</n1:g>

<n1:g fill="#ff0000" fill-opacity="1" stroke="none" transform="matrix(1,0,0,1,-2650,-720)" font-family="Noto Sans" font-size="152.778" font-weight="400" font-style="normal">
<n1:circle cx="2800" cy="1000" r="32.5"/>
</n1:g>

<n1:g fill="#ff0000" fill-opacity="1" stroke="#ff0000" stroke-opacity="1" stroke-width="65" stroke-linecap="butt" stroke-linejoin="bevel" transform="matrix(1,0,0,1,-2650,-720)" font-family="Noto Sans" font-size="152.778" font-weight="400" font-style="normal">
<n1:polyline fill="none" vector-effect="none" points="2767.5,800 2832.5,800 "/>
</n1:g>

<n1:g fill="#ff0000" fill-opacity="1" stroke="none" transform="matrix(1,0,0,1,-2650,-720)" font-family="Noto Sans" font-size="152.778" font-weight="400" font-style="normal">
<n1:circle cx="2800" cy="900" r="32.5"/>
</n1:g>

<n1:g fill="#ff0000" fill-opacity="1" stroke="none" transform="matrix(1,0,0,1,-2650,-720)" font-family="Noto Sans" font-size="152.778" font-weight="400" font-style="normal">
<n1:circle cx="2800" cy="1100" r="32.5"/>
</n1:g>

<n1:g fill="#ff0000" fill-opacity="1" stroke="none" transform="matrix(1,0,0,1,-2650,-720)" font-family="Noto Sans" font-size="152.778" font-weight="400" font-style="normal">
<n1:circle cx="2800" cy="1200" r="32.5"/>
</n1:g>

<n1:g fill="#ff0000" fill-opacity="1" stroke="none" transform="matrix(1,0,0,1,-2650,-720)" font-family="Noto Sans" font-size="152.778" font-weight="400" font-style="normal">
<n1:circle cx="2800" cy="1500" r="32.5"/>
</n1:g>

<n1:g fill="#ff0000" fill-opacity="1" stroke="none" transform="matrix(1,0,0,1,-2650,-720)" font-family="Noto Sans" font-size="152.778" font-weight="400" font-style="normal">
<n1:circle cx="2800" cy="1300" r="32.5"/>
</n1:g>

<n1:g fill="#ff0000" fill-opacity="1" stroke="none" transform="matrix(1,0,0,1,-2650,-720)" font-family="Noto Sans" font-size="152.778" font-weight="400" font-style="normal">
<n1:circle cx="2800" cy="1400" r="32.5"/>
</n1:g>

<n1:g fill="#ff0000" fill-opacity="1" stroke="none" transform="matrix(1,0,0,1,-2650,-720)" font-family="Noto Sans" font-size="152.778" font-weight="400" font-style="normal">
<n1:circle cx="2800" cy="1600" r="32.5"/>
</n1:g>

<n1:g fill="#ff0000" fill-opacity="1" stroke="none" transform="matrix(1,0,0,1,-2650,-720)" font-family="Noto Sans" font-size="152.778" font-weight="400" font-style="normal">
<n1:circle cx="2800" cy="2100" r="32.5"/>
</n1:g>

<n1:g fill="#ff0000" fill-opacity="1" stroke="none" transform="matrix(1,0,0,1,-2650,-720)" font-family="Noto Sans" font-size="152.778" font-weight="400" font-style="normal">
<n1:circle cx="2800" cy="1700" r="32.5"/>
</n1:g>

<n1:g fill="#ff0000" fill-opacity="1" stroke="none" transform="matrix(1,0,0,1,-2650,-720)" font-family="Noto Sans" font-size="152.778" font-weight="400" font-style="normal">
<n1:circle cx="2800" cy="1800" r="32.5"/>
</n1:g>

<n1:g fill="#ff0000" fill-opacity="1" stroke="none" transform="matrix(1,0,0,1,-2650,-720)" font-family="Noto Sans" font-size="152.778" font-weight="400" font-style="normal">
<n1:circle cx="2800" cy="2000" r="32.5"/>
</n1:g>

<n1:g fill="#ff0000" fill-opacity="1" stroke="none" transform="matrix(1,0,0,1,-2650,-720)" font-family="Noto Sans" font-size="152.778" font-weight="400" font-style="normal">
<n1:circle cx="2800" cy="1900" r="32.5"/>
</n1:g>

<n1:g fill="#ff0000" fill-opacity="1" stroke="none" transform="matrix(1,0,0,1,-2650,-720)" font-family="Noto Sans" font-size="152.778" font-weight="400" font-style="normal">
<n1:circle cx="2800" cy="2200" r="32.5"/>
</n1:g>

<n1:g fill="#ff0000" fill-opacity="1" stroke="none" transform="matrix(1,0,0,1,-2650,-720)" font-family="Noto Sans" font-size="152.778" font-weight="400" font-style="normal">
<n1:circle cx="2800" cy="2300" r="32.5"/>
</n1:g>

<n1:g fill="#000000" fill-opacity="1" stroke="none" transform="matrix(1,0,0,1,-2650,-720)" font-family="Noto Sans" font-size="152.778" font-weight="400" font-style="normal">
<n1:circle cx="2800" cy="1000" r="20"/>
</n1:g>

<n1:g fill="#000000" fill-opacity="1" stroke="none" transform="matrix(1,0,0,1,-2650,-720)" font-family="Noto Sans" font-size="152.778" font-weight="400" font-style="normal">
<n1:circle cx="2800" cy="800" r="20"/>
</n1:g>

<n1:g fill="#000000" fill-opacity="1" stroke="none" transform="matrix(1,0,0,1,-2650,-720)" font-family="Noto Sans" font-size="152.778" font-weight="400" font-style="normal">
<n1:circle cx="2800" cy="900" r="20"/>
</n1:g>

<n1:g fill="#000000" fill-opacity="1" stroke="none" transform="matrix(1,0,0,1,-2650,-720)" font-family="Noto Sans" font-size="152.778" font-weight="400" font-style="normal">
<n1:circle cx="2800" cy="1100" r="20"/>
</n1:g>

<n1:g fill="#000000" fill-opacity="1" stroke="none" transform="matrix(1,0,0,1,-2650,-720)" font-family="Noto Sans" font-size="152.778" font-weight="400" font-style="normal">
<n1:circle cx="2800" cy="1200" r="20"/>
</n1:g>

<n1:g fill="#000000" fill-opacity="1" stroke="none" transform="matrix(1,0,0,1,-2650,-720)" font-family="Noto Sans" font-size="152.778" font-weight="400" font-style="normal">
<n1:circle cx="2800" cy="1500" r="20"/>
</n1:g>

<n1:g fill="#000000" fill-opacity="1" stroke="none" transform="matrix(1,0,0,1,-2650,-720)" font-family="Noto Sans" font-size="152.778" font-weight="400" font-style="normal">
<n1:circle cx="2800" cy="1300" r="20"/>
</n1:g>

<n1:g fill="#000000" fill-opacity="1" stroke="none" transform="matrix(1,0,0,1,-2650,-720)" font-family="Noto Sans" font-size="152.778" font-weight="400" font-style="normal">
<n1:circle cx="2800" cy="1400" r="20"/>
</n1:g>

<n1:g fill="#000000" fill-opacity="1" stroke="none" transform="matrix(1,0,0,1,-2650,-720)" font-family="Noto Sans" font-size="152.778" font-weight="400" font-style="normal">
<n1:circle cx="2800" cy="1600" r="20"/>
</n1:g>

<n1:g fill="#000000" fill-opacity="1" stroke="none" transform="matrix(1,0,0,1,-2650,-720)" font-family="Noto Sans" font-size="152.778" font-weight="400" font-style="normal">
<n1:circle cx="2800" cy="2100" r="20"/>
</n1:g>

<n1:g fill="#000000" fill-opacity="1" stroke="none" transform="matrix(1,0,0,1,-2650,-720)" font-family="Noto Sans" font-size="152.778" font-weight="400" font-style="normal">
<n1:circle cx="2800" cy="1700" r="20"/>
</n1:g>

<n1:g fill="#000000" fill-opacity="1" stroke="none" transform="matrix(1,0,0,1,-2650,-720)" font-family="Noto Sans" font-size="152.778" font-weight="400" font-style="normal">
<n1:circle cx="2800" cy="1800" r="20"/>
</n1:g>

<n1:g fill="#000000" fill-opacity="1" stroke="none" transform="matrix(1,0,0,1,-2650,-720)" font-family="Noto Sans" font-size="152.778" font-weight="400" font-style="normal">
<n1:circle cx="2800" cy="2000" r="20"/>
</n1:g>

<n1:g fill="#000000" fill-opacity="1" stroke="none" transform="matrix(1,0,0,1,-2650,-720)" font-family="Noto Sans" font-size="152.778" font-weight="400" font-style="normal">
<n1:circle cx="2800" cy="1900" r="20"/>
</n1:g>

<n1:g fill="#000000" fill-opacity="1" stroke="none" transform="matrix(1,0,0,1,-2650,-720)" font-family="Noto Sans" font-size="152.778" font-weight="400" font-style="normal">
<n1:circle cx="2800" cy="2200" r="20"/>
</n1:g>

<n1:g fill="#000000" fill-opacity="1" stroke="none" transform="matrix(1,0,0,1,-2650,-720)" font-family="Noto Sans" font-size="152.778" font-weight="400" font-style="normal">
<n1:circle cx="2800" cy="2300" r="20"/>
</n1:g>

<n1:g fill="#000000" fill-opacity="1" stroke="#f0f000" stroke-opacity="1" stroke-width="10" stroke-linecap="round" stroke-linejoin="bevel" transform="matrix(1,0,0,1,-2650,-720)" font-family="Noto Sans" font-size="152.778" font-weight="400" font-style="normal">
<n1:polyline fill="none" vector-effect="none" points="2750,750 2750,2350 "/>
<n1:polyline fill="none" vector-effect="none" points="2850,2350 2850,750 "/>
<n1:polyline fill="none" vector-effect="none" points="2750,2350 2850,2350 "/>
<n1:polyline fill="none" vector-effect="none" points="2850,750 2750,750 "/>
</n1:g>
</n1:g>
</svg>
