<?xml version="1.0" encoding="UTF-8" standalone="no"?>
<svg
   width="48"
   height="48"
   viewBox="0 0 500.00001 500.00001"
   version="1.2"
   id="svg2622"
   sodipodi:docname="cpcb.svg"
   inkscape:version="1.2.2 (b0a8486541, 2022-12-01)"
   inkscape:export-filename="/home/wagenaar/progs/cschem/cschem/cpcb/cpcb.png"
   inkscape:export-xdpi="256"
   inkscape:export-ydpi="256"
   xmlns:inkscape="http://www.inkscape.org/namespaces/inkscape"
   xmlns:sodipodi="http://sodipodi.sourceforge.net/DTD/sodipodi-0.dtd"
   xmlns="http://www.w3.org/2000/svg"
   xmlns:svg="http://www.w3.org/2000/svg"
   xmlns:rdf="http://www.w3.org/1999/02/22-rdf-syntax-ns#"
   xmlns:cc="http://creativecommons.org/ns#"
   xmlns:dc="http://purl.org/dc/elements/1.1/">
  <metadata
     id="metadata2626">
    <rdf:RDF>
      <cc:Work
         rdf:about="">
        <dc:format>image/svg+xml</dc:format>
        <dc:type
           rdf:resource="http://purl.org/dc/dcmitype/StillImage" />
        <dc:title>PCB Component</dc:title>
      </cc:Work>
    </rdf:RDF>
  </metadata>
  <sodipodi:namedview
     pagecolor="#ffffff"
     bordercolor="#666666"
     borderopacity="1"
     objecttolerance="10"
     gridtolerance="10"
     guidetolerance="10"
     inkscape:pageopacity="0"
     inkscape:pageshadow="2"
     inkscape:window-width="1902"
     inkscape:window-height="894"
     id="namedview2624"
     showgrid="false"
     inkscape:zoom="13.916667"
     inkscape:cx="8.9461076"
     inkscape:cy="24.682634"
     inkscape:window-x="199"
     inkscape:window-y="66"
     inkscape:window-maximized="0"
     inkscape:current-layer="layer1"
     inkscape:showpageshadow="2"
     inkscape:pagecheckerboard="0"
     inkscape:deskcolor="#d1d1d1"
     inkscape:document-units="mm"
     showguides="true">
    <sodipodi:guide
       position="-133.23353,207.33534"
       orientation="1,0"
       id="guide3088"
       inkscape:locked="false" />
  </sodipodi:namedview>
  <title
     id="title2500">PCB Component</title>
  <desc
     id="desc2502">Generated by CPCB</desc>
  <defs
     id="defs2504">
    <filter
       style="color-interpolation-filters:sRGB"
       inkscape:label="Drop Shadow"
       id="filter6347"
       x="-0.024000977"
       y="-0.024000977"
       width="1.0605025"
       height="1.0605025">
      <feFlood
         flood-opacity="0.407843"
         flood-color="rgb(0,0,0)"
         result="flood"
         id="feFlood6337" />
      <feComposite
         in="flood"
         in2="SourceGraphic"
         operator="in"
         result="composite1"
         id="feComposite6339" />
      <feGaussianBlur
         in="composite1"
         stdDeviation="4"
         result="blur"
         id="feGaussianBlur6341" />
      <feOffset
         dx="5"
         dy="5"
         result="offset"
         id="feOffset6343" />
      <feComposite
         in="SourceGraphic"
         in2="offset"
         operator="over"
         result="composite2"
         id="feComposite6345" />
    </filter>
    <filter
       style="color-interpolation-filters:sRGB;"
       inkscape:label="Drop Shadow"
       id="filter5118"
       x="-0.03008155"
       y="-0.03008155"
       width="1.0758306"
       height="1.0758306">
      <feFlood
         flood-opacity="0.407843"
         flood-color="rgb(0,0,0)"
         result="flood"
         id="feFlood5108" />
      <feComposite
         in="flood"
         in2="SourceGraphic"
         operator="in"
         result="composite1"
         id="feComposite5110" />
      <feGaussianBlur
         in="composite1"
         stdDeviation="4"
         result="blur"
         id="feGaussianBlur5112" />
      <feOffset
         dx="5"
         dy="5"
         result="offset"
         id="feOffset5114" />
      <feComposite
         in="SourceGraphic"
         in2="offset"
         operator="over"
         result="composite2"
         id="feComposite5116" />
    </filter>
  </defs>
  <g
     inkscape:groupmode="layer"
     id="layer1"
     inkscape:label="Layer 1"
     style="display:inline">
    <path
       id="path3960-3-6-73"
       style="display:none;fill:#640000;fill-opacity:1;stroke:none;stroke-width:5.09399;stroke-linecap:round;stroke-linejoin:round;stroke-miterlimit:6;stroke-dasharray:none;stroke-opacity:1"
       d="M 50.008138,50.008138 V 449.99186 l 399.991852,-10e-6 -0.008,-399.983712 H 300.00814 c 0,27.613972 -22.39817,49.987793 -50.00814,49.987793 -27.60997,0 -50.00814,-22.373821 -50.00814,-49.987793 z m 49.987793,29.988607 c 11.045049,4.43e-4 19.998739,8.954133 19.999189,19.999186 -4.5e-4,11.045059 -8.95414,19.998749 -19.999189,19.999189 -11.045048,-4.5e-4 -19.998738,-8.95414 -19.999186,-19.999189 4.5e-4,-11.045051 8.954139,-19.998741 19.999186,-19.999186 z m 300.008139,0 c 11.04505,4.43e-4 19.99874,8.954135 19.99919,19.999186 -4.5e-4,11.045059 -8.95414,19.998749 -19.99919,19.999189 -11.04505,-4.4e-4 -19.99874,-8.95413 -19.99919,-19.999189 4.5e-4,-11.045051 8.95414,-19.998743 19.99919,-19.999186 z M 99.995931,179.99268 c 11.045049,4.4e-4 19.998739,8.95413 19.999189,19.99918 -4.5e-4,11.04506 -8.95414,19.99875 -19.999189,19.99919 -11.045048,-4.5e-4 -19.998739,-8.95414 -19.999186,-19.99919 4.53e-4,-11.04505 8.954141,-19.99873 19.999186,-19.99918 z m 300.008139,0 c 11.04504,4.4e-4 19.99873,8.95413 19.99919,19.99918 -4.5e-4,11.04506 -8.95414,19.99875 -19.99919,19.99919 -11.04505,-4.4e-4 -19.99874,-8.95413 -19.99919,-19.99919 4.6e-4,-11.04505 8.95415,-19.99874 19.99919,-19.99918 z m 0,100.01627 c 11.04505,4.4e-4 19.99874,8.95414 19.99919,19.99919 -4.5e-4,11.04506 -8.95414,19.99874 -19.99919,19.99918 -11.04505,-4.5e-4 -19.99874,-8.95413 -19.99919,-19.99918 4.5e-4,-11.04505 8.95415,-19.99874 19.99919,-19.99919 z m -300.008139,0.18311 c 11.045049,4.4e-4 19.998739,8.95413 19.999189,19.99918 -4.5e-4,11.04506 -8.95414,19.99875 -19.999189,19.99919 -11.045048,-4.5e-4 -19.998739,-8.95414 -19.999186,-19.99919 4.53e-4,-11.04505 8.954141,-19.99873 19.999186,-19.99918 z m 0,99.81282 c 11.045049,4.4e-4 19.998739,8.95414 19.999189,19.99919 -4.5e-4,11.04506 -8.95414,19.99875 -19.999189,19.99919 -11.045048,-4.5e-4 -19.998739,-8.95414 -19.999186,-19.99919 4.53e-4,-11.04505 8.954141,-19.99874 19.999186,-19.99919 z m 300.008139,0 c 11.04505,4.4e-4 19.99874,8.95414 19.99919,19.99919 -4.5e-4,11.04506 -8.95414,19.99875 -19.99919,19.99919 -11.04505,-4.5e-4 -19.99874,-8.95414 -19.99919,-19.99919 4.5e-4,-11.04505 8.95415,-19.99874 19.99919,-19.99919 z"
       transform="matrix(0.77287398,0,0,0.77287398,54.849315,54.849315)"
       sodipodi:nodetypes="cccccscccccccccccccccccccccccccccccccccccccccccc" />
    <path
       id="polyline2616-0-6"
       style="color:#000000;display:inline;fill:#7c0000;fill-opacity:1;fill-rule:evenodd;stroke-width:0.813153;stroke-linecap:round;stroke-linejoin:round;-inkscape-stroke:none;filter:url(#filter5118)"
       d="m 93.485516,88.500978 c -2.761306,2.76e-4 -4.984262,2.223232 -4.984538,4.984538 V 402.62859 c 2.76e-4,2.76131 2.223232,5.0046 4.984538,5.00488 H 402.64893 c 2.76131,-2.8e-4 4.98426,-2.24357 4.98454,-5.00488 V 93.485516 c -2.8e-4,-2.761306 -2.22323,-4.984262 -4.98454,-4.984538 H 286.70248 c -2.76131,2.76e-4 -4.98426,2.223232 -4.98454,4.984538 0,18.638894 -15.0143,33.650714 -33.65071,33.650714 -18.63645,0 -33.65072,-15.01182 -33.65072,-33.650714 -2.8e-4,-2.761306 -2.22323,-4.984262 -4.98454,-4.984538 z m 38.655604,28.177902 c 8.53643,3.4e-4 15.44154,6.9258 15.44189,15.46224 -3.5e-4,8.53643 -6.90546,15.44155 -15.44189,15.44189 -8.53644,-3.4e-4 -15.46189,-6.90546 -15.46224,-15.44189 3.5e-4,-8.53644 6.9258,-15.4619 15.46224,-15.46224 z m 231.85221,0 c 8.53644,3.4e-4 15.46189,6.92579 15.46224,15.46224 -3.5e-4,8.53644 -6.9258,15.4619 -15.46224,15.46224 -8.53643,-3.4e-4 -15.44154,-6.92581 -15.44189,-15.46224 3.5e-4,-8.53644 6.90546,-15.4619 15.44189,-15.46224 z m -231.85221,77.29085 c 8.53643,3.4e-4 15.44154,6.90546 15.44189,15.4419 -3.5e-4,8.53643 -6.90546,15.4619 -15.44189,15.46224 -8.53644,-3.4e-4 -15.46189,-6.92581 -15.46224,-15.46224 3.5e-4,-8.53644 6.9258,-15.44156 15.46224,-15.4419 z m 231.85221,0 c 8.53644,3.4e-4 15.46189,6.92581 15.46224,15.46224 -3.4e-4,8.53644 -6.92579,15.44156 -15.46224,15.4419 -8.53643,-3.4e-4 -15.44155,-6.90546 -15.44189,-15.4419 3.5e-4,-8.53643 6.90547,-15.4619 15.44189,-15.46224 z m 0,77.29085 c 8.53644,3.4e-4 15.46189,6.90547 15.46224,15.4419 -3.5e-4,8.53644 -6.9258,15.4619 -15.46224,15.46224 -8.53642,-3.5e-4 -15.44154,-6.92581 -15.44189,-15.46224 3.5e-4,-8.53642 6.90547,-15.44155 15.44189,-15.4419 z M 132.14112,271.403 c 8.53642,3.4e-4 15.46189,6.92581 15.46224,15.46224 -3.4e-4,8.53644 -6.92581,15.44155 -15.46224,15.44189 -8.53644,-3.4e-4 -15.4619,-6.90545 -15.46224,-15.44189 3.5e-4,-8.53643 6.92581,-15.4619 15.46224,-15.46224 z m 0,77.14844 c 8.53643,3.4e-4 15.46189,6.90546 15.46224,15.44189 -3.5e-4,8.53644 -6.92581,15.4619 -15.46224,15.46224 -8.53644,-3.4e-4 -15.46189,-6.9258 -15.46224,-15.46224 3.5e-4,-8.53643 6.9258,-15.44155 15.46224,-15.44189 z m 231.85221,0 c 8.53644,3.4e-4 15.46189,6.90545 15.46224,15.44189 -3.5e-4,8.53645 -6.9258,15.4619 -15.46224,15.46224 -8.53642,-3.5e-4 -15.44154,-6.9258 -15.44189,-15.46224 3.5e-4,-8.53643 6.90547,-15.44154 15.44189,-15.44189 z"
       transform="matrix(1.2297794,0,0,1.2297836,-58.142406,-58.143459)" />
  </g>
  <g
     inkscape:groupmode="layer"
     id="layer3"
     inkscape:label="Layer 3"
     style="display:inline">
    <path
       style="color:#000000;fill:#ffc505;fill-rule:evenodd;stroke-width:1;stroke-linecap:round;stroke-linejoin:round;-inkscape-stroke:none"
       d="m 56.83236,50.682781 a 6.1495119,6.1495329 0 0 0 -6.148897,6.148918 V 437.01258 a 6.1495119,6.1495329 0 0 0 6.148897,6.14892 h 380.18678 a 6.1495119,6.1495329 0 0 0 6.1489,-6.14892 V 56.831699 a 6.1495119,6.1495329 0 0 0 -6.1489,-6.148918 H 294.4488 a 6.1495119,6.1495329 0 0 0 -6.1489,6.148918 c 0,22.921826 -18.45425,41.375496 -41.37295,41.375496 -22.91874,0 -41.37535,-18.45367 -41.37535,-41.375496 a 6.1495119,6.1495329 0 0 0 -6.1489,-6.148918 z m 6.148894,12.297834 H 193.8759 c 3.10012,26.65367 25.58995,47.524425 53.05105,47.524425 27.46108,0 49.94853,-20.870755 53.04865,-47.524425 H 430.87024 V 430.86366 H 62.981254 Z"
       id="polyline2616-0" />
  </g>
  <g
     inkscape:groupmode="layer"
     id="layer2"
     inkscape:label="Layer 2"
     style="display:inline">
    <path
       id="path3960-3-6"
       style="fill:#f10000;fill-opacity:1;stroke:none;stroke-width:3.93701;stroke-linecap:round;stroke-linejoin:round;stroke-miterlimit:6;stroke-dasharray:none;stroke-opacity:1"
       d="m 104.35273,168.70682 a 29.494348,30.69691 0 0 0 -29.489306,30.68833 29.494348,30.69691 0 0 0 29.489306,30.70764 29.494348,30.69691 0 0 0 29.4893,-30.70764 29.494348,30.69691 0 0 0 -29.4893,-30.68833 z m 0,11.67975 a 19.009282,19.009355 0 0 1 19.00852,19.00858 19.009282,19.009355 0 0 1 -19.00852,19.00858 19.009282,19.009355 0 0 1 -19.008506,-19.00858 19.009282,19.009355 0 0 1 19.008506,-19.00858 z" />
    <path
       id="path3960-3-6-7"
       style="fill:#f10000;fill-opacity:1;stroke:none;stroke-width:3.93701;stroke-linecap:round;stroke-linejoin:round;stroke-miterlimit:6;stroke-dasharray:none;stroke-opacity:1"
       d="M 104.35659,263.94388 A 29.494348,30.69691 0 0 0 74.867304,294.6322 29.494348,30.69691 0 0 0 104.35659,325.33986 29.494348,30.69691 0 0 0 133.8459,294.6322 29.494348,30.69691 0 0 0 104.35659,263.94388 Z m 0,11.67975 a 19.009282,19.009355 0 0 1 19.00852,19.00857 19.009282,19.009355 0 0 1 -19.00852,19.00859 19.009282,19.009355 0 0 1 -19.008506,-19.00859 19.009282,19.009355 0 0 1 19.008506,-19.00857 z" />
    <path
       id="path3960-3-6-5"
       style="fill:#f10000;fill-opacity:1;stroke:none;stroke-width:3.93701;stroke-linecap:round;stroke-linejoin:round;stroke-miterlimit:6;stroke-dasharray:none;stroke-opacity:1"
       d="M 104.35659,358.80887 A 29.494348,30.69691 0 0 0 74.867304,389.4972 29.494348,30.69691 0 0 0 104.35659,420.20486 29.494348,30.69691 0 0 0 133.8459,389.4972 29.494348,30.69691 0 0 0 104.35659,358.80887 Z m 0,11.67975 a 19.009282,19.009355 0 0 1 19.00852,19.00858 19.009282,19.009355 0 0 1 -19.00852,19.00858 19.009282,19.009355 0 0 1 -19.008506,-19.00858 19.009282,19.009355 0 0 1 19.008506,-19.00858 z" />
    <path
       id="path3960-3-6-3"
       style="fill:#f10000;fill-opacity:1;stroke:none;stroke-width:3.93701;stroke-linecap:round;stroke-linejoin:round;stroke-miterlimit:6;stroke-dasharray:none;stroke-opacity:1"
       d="m 389.49594,358.80887 a 29.494348,30.69691 0 0 0 -29.4893,30.68833 29.494348,30.69691 0 0 0 29.4893,30.70766 29.494348,30.69691 0 0 0 29.48931,-30.70766 29.494348,30.69691 0 0 0 -29.48931,-30.68833 z m 0,11.67975 a 19.009282,19.009355 0 0 1 19.00853,19.00858 19.009282,19.009355 0 0 1 -19.00853,19.00858 19.009282,19.009355 0 0 1 -19.0085,-19.00858 19.009282,19.009355 0 0 1 19.0085,-19.00858 z" />
    <path
       id="path3960-3-6-56"
       style="fill:#f10000;fill-opacity:1;stroke:none;stroke-width:3.93701;stroke-linecap:round;stroke-linejoin:round;stroke-miterlimit:6;stroke-dasharray:none;stroke-opacity:1"
       d="m 389.49594,263.76211 a 29.494348,30.69691 0 0 0 -29.4893,30.68831 29.494348,30.69691 0 0 0 29.4893,30.70766 29.494348,30.69691 0 0 0 29.48931,-30.70766 29.494348,30.69691 0 0 0 -29.48931,-30.68831 z m 0,11.67974 a 19.009282,19.009355 0 0 1 19.00853,19.00857 19.009282,19.009355 0 0 1 -19.00853,19.00858 19.009282,19.009355 0 0 1 -19.0085,-19.00858 19.009282,19.009355 0 0 1 19.0085,-19.00857 z" />
    <path
       id="path3960-3-6-2"
       style="fill:#f10000;fill-opacity:1;stroke:none;stroke-width:3.93701;stroke-linecap:round;stroke-linejoin:round;stroke-miterlimit:6;stroke-dasharray:none;stroke-opacity:1"
       d="m 389.49594,168.71533 a 29.494348,30.69691 0 0 0 -29.4893,30.68831 29.494348,30.69691 0 0 0 29.4893,30.70766 29.494348,30.69691 0 0 0 29.48931,-30.70766 29.494348,30.69691 0 0 0 -29.48931,-30.68831 z m 0,11.67975 a 19.009282,19.009355 0 0 1 19.00853,19.00856 19.009282,19.009355 0 0 1 -19.00853,19.0086 19.009282,19.009355 0 0 1 -19.00852,-19.0086 19.009282,19.009355 0 0 1 19.00852,-19.00856 z" />
    <path
       id="path3960-3-6-9"
       style="fill:#f10000;fill-opacity:1;stroke:none;stroke-width:3.93701;stroke-linecap:round;stroke-linejoin:round;stroke-miterlimit:6;stroke-dasharray:none;stroke-opacity:1"
       d="m 389.49594,73.668545 a 29.494348,30.69691 0 0 0 -29.4893,30.688335 29.494348,30.69691 0 0 0 29.4893,30.70765 29.494348,30.69691 0 0 0 29.48931,-30.70765 29.494348,30.69691 0 0 0 -29.48931,-30.688335 z m 0,11.67975 a 19.009282,19.009355 0 0 1 19.00853,19.008585 19.009282,19.009355 0 0 1 -19.00853,19.00858 19.009282,19.009355 0 0 1 -19.00852,-19.00858 19.009282,19.009355 0 0 1 19.00852,-19.008585 z" />
    <path
       id="rect3904"
       style="fill:#f10000;fill-opacity:1;stroke:none;stroke-width:15.625;stroke-linecap:round;stroke-linejoin:round;stroke-miterlimit:6;stroke-opacity:1"
       d="M 73.471144,73.470535 V 135.25326 H 135.25365 V 73.470535 Z m 30.881586,11.87312 a 19.009282,19.009355 0 0 1 19.00852,19.008585 19.009282,19.009355 0 0 1 -19.00852,19.00858 19.009282,19.009355 0 0 1 -19.008506,-19.00858 19.009282,19.009355 0 0 1 19.008506,-19.008585 z" />
  </g>
</svg>
