<?xml version="1.0" encoding="UTF-8"?>
<svg width="12.7mm" height="12.7mm" viewBox="0 0 500 500" version="1.2" baseProfile="tiny" xmlns:n1="http://www.w3.org/2000/svg" xmlns:xlink="http://www.w3.org/1999/xlink" xmlns:cpcb="http://www.danielwagenaar.net/cpcb-ns.html">
  <cpcb:part pkg="TO-220" xmlns="http://www.danielwagenaar.net/cpcb-ns.html">
    <group o="0 0" ref="Q?">
      <trace p1="673100 241300" p2="673100 266700" w="2540" l="1"/>
      <hole p="685800 254000" id="8890" od="16510" sq="1" ref="1"/>
      <hole p="736600 254000" id="8890" od="16510" sq="0" ref="3"/>
      <hole p="711200 254000" id="8890" od="16510" sq="0" ref="2"/>
      <trace p1="749300 234950" p2="673100 234950" w="2540" l="1"/>
      <trace p1="673100 241300" p2="749300 241300" w="2540" l="1"/>
      <trace p1="749300 266700" p2="749300 241300" w="2540" l="1"/>
      <trace p1="673100 266700" p2="749300 266700" w="2540" l="1"/>
    </group>
    <text p="671830 220980" fs="12700" l="1" ori="0 0" text="Q?"/>
  </cpcb:part>
<n1:title>PCB Component</n1:title>
<n1:desc>Generated by CPCB</n1:desc>
<n1:defs>
</n1:defs>
<n1:g fill="none" stroke="black" stroke-width="1" fill-rule="evenodd" stroke-linecap="square" stroke-linejoin="bevel">

<n1:g fill="#000000" fill-opacity="1" stroke="none" transform="matrix(1,0,0,1,-2550,-737.5)" font-family="Sans" font-size="152.778" font-weight="400" font-style="normal">
<n1:rect x="2550" y="737.5" width="500" height="500"/>
</n1:g>

<n1:g fill="#00b400" fill-opacity="1" stroke="none" transform="matrix(1,0,0,1,-2550,-737.5)" font-family="Sans" font-size="152.778" font-weight="400" font-style="normal">
<n1:rect x="2667.5" y="967.5" width="65" height="65"/>
</n1:g>

<n1:g fill="#00b400" fill-opacity="1" stroke="none" transform="matrix(1,0,0,1,-2550,-737.5)" font-family="Sans" font-size="152.778" font-weight="400" font-style="normal">
<n1:circle cx="2900" cy="1000" r="32.5"/>
</n1:g>

<n1:g fill="#00b400" fill-opacity="1" stroke="none" transform="matrix(1,0,0,1,-2550,-737.5)" font-family="Sans" font-size="152.778" font-weight="400" font-style="normal">
<n1:circle cx="2800" cy="1000" r="32.5"/>
</n1:g>

<n1:g fill="#ff0000" fill-opacity="1" stroke="none" transform="matrix(1,0,0,1,-2550,-737.5)" font-family="Sans" font-size="152.778" font-weight="400" font-style="normal">
<n1:rect x="2667.5" y="967.5" width="65" height="65"/>
</n1:g>

<n1:g fill="#ff0000" fill-opacity="1" stroke="none" transform="matrix(1,0,0,1,-2550,-737.5)" font-family="Sans" font-size="152.778" font-weight="400" font-style="normal">
<n1:circle cx="2900" cy="1000" r="32.5"/>
</n1:g>

<n1:g fill="#ff0000" fill-opacity="1" stroke="none" transform="matrix(1,0,0,1,-2550,-737.5)" font-family="Sans" font-size="152.778" font-weight="400" font-style="normal">
<n1:circle cx="2800" cy="1000" r="32.5"/>
</n1:g>

<n1:g fill="#000000" fill-opacity="1" stroke="none" transform="matrix(1,0,0,1,-2550,-737.5)" font-family="Sans" font-size="152.778" font-weight="400" font-style="normal">
<n1:circle cx="2700" cy="1000" r="17.5"/>
</n1:g>

<n1:g fill="#000000" fill-opacity="1" stroke="none" transform="matrix(1,0,0,1,-2550,-737.5)" font-family="Sans" font-size="152.778" font-weight="400" font-style="normal">
<n1:circle cx="2900" cy="1000" r="17.5"/>
</n1:g>

<n1:g fill="#000000" fill-opacity="1" stroke="none" transform="matrix(1,0,0,1,-2550,-737.5)" font-family="Sans" font-size="152.778" font-weight="400" font-style="normal">
<n1:circle cx="2800" cy="1000" r="17.5"/>
</n1:g>

<n1:g fill="#000000" fill-opacity="1" stroke="#f0f000" stroke-opacity="1" stroke-width="10" stroke-linecap="round" stroke-linejoin="bevel" transform="matrix(1,0,0,1,-2550,-737.5)" font-family="Sans" font-size="152.778" font-weight="400" font-style="normal">
<n1:polyline fill="none" vector-effect="none" points="2650,950 2650,1050 "/>
<n1:polyline fill="none" vector-effect="none" points="2950,925 2650,925 "/>
<n1:polyline fill="none" vector-effect="none" points="2650,950 2950,950 "/>
<n1:polyline fill="none" vector-effect="none" points="2950,1050 2950,950 "/>
<n1:polyline fill="none" vector-effect="none" points="2650,1050 2950,1050 "/>
</n1:g>
</n1:g>
</svg>
