<?xml version="1.0" encoding="UTF-8"?>
<svg width="12.7mm" height="12.7mm" viewBox="0 0 500 500" version="1.2" baseProfile="tiny" xmlns:n1="http://www.w3.org/2000/svg" xmlns:xlink="http://www.w3.org/1999/xlink" xmlns:cpcb="http://www.danielwagenaar.net/cpcb-ns.html">
  <cpcb:part pkg="TO-92" xmlns="http://www.danielwagenaar.net/cpcb-ns.html">
    <group o="0 0" ref="Q?">
      <trace p1="514350 273050" p2="552450 273050" w="2540" l="1"/>
      <arc p="514350 254000" r="19050" lw="2540" l="1" ext="9"/>
      <arc p="552450 254000" r="19050" lw="2540" l="1" ext="8"/>
      <hole p="552450 254000" id="8890" od="16510" sq="0" ref="3"/>
      <hole p="533400 254000" id="8890" od="16510" sq="0" ref="2"/>
      <trace p1="495300 234950" p2="495300 254000" w="2540" l="1"/>
      <trace p1="495300 234950" p2="571500 234950" w="2540" l="1"/>
      <hole p="514350 254000" id="8890" od="16510" sq="1" ref="1"/>
      <trace p1="571500 254000" p2="571500 234950" w="2540" l="1"/>
    </group>
    <text p="494030 220980" fs="12700" l="1" ori="0 0" text="Q?"/>
  </cpcb:part>
<n1:title>PCB Component</n1:title>
<n1:desc>Generated by CPCB</n1:desc>
<n1:defs>
</n1:defs>
<n1:g fill="none" stroke="black" stroke-width="1" fill-rule="evenodd" stroke-linecap="square" stroke-linejoin="bevel">

<n1:g fill="#000000" fill-opacity="1" stroke="none" transform="matrix(1,0,0,1,-1850,-750)" font-family="Sans" font-size="152.778" font-weight="400" font-style="normal">
<n1:rect x="1850" y="750" width="500" height="500"/>
</n1:g>

<n1:g fill="#00b400" fill-opacity="1" stroke="none" transform="matrix(1,0,0,1,-1850,-750)" font-family="Sans" font-size="152.778" font-weight="400" font-style="normal">
<n1:circle cx="2175" cy="1000" r="32.5"/>
</n1:g>

<n1:g fill="#00b400" fill-opacity="1" stroke="none" transform="matrix(1,0,0,1,-1850,-750)" font-family="Sans" font-size="152.778" font-weight="400" font-style="normal">
<n1:circle cx="2100" cy="1000" r="32.5"/>
</n1:g>

<n1:g fill="#00b400" fill-opacity="1" stroke="none" transform="matrix(1,0,0,1,-1850,-750)" font-family="Sans" font-size="152.778" font-weight="400" font-style="normal">
<n1:rect x="1992.5" y="967.5" width="65" height="65"/>
</n1:g>

<n1:g fill="#ff0000" fill-opacity="1" stroke="none" transform="matrix(1,0,0,1,-1850,-750)" font-family="Sans" font-size="152.778" font-weight="400" font-style="normal">
<n1:circle cx="2175" cy="1000" r="32.5"/>
</n1:g>

<n1:g fill="#ff0000" fill-opacity="1" stroke="none" transform="matrix(1,0,0,1,-1850,-750)" font-family="Sans" font-size="152.778" font-weight="400" font-style="normal">
<n1:circle cx="2100" cy="1000" r="32.5"/>
</n1:g>

<n1:g fill="#ff0000" fill-opacity="1" stroke="none" transform="matrix(1,0,0,1,-1850,-750)" font-family="Sans" font-size="152.778" font-weight="400" font-style="normal">
<n1:rect x="1992.5" y="967.5" width="65" height="65"/>
</n1:g>

<n1:g fill="#000000" fill-opacity="1" stroke="none" transform="matrix(1,0,0,1,-1850,-750)" font-family="Sans" font-size="152.778" font-weight="400" font-style="normal">
<n1:circle cx="2175" cy="1000" r="17.5"/>
</n1:g>

<n1:g fill="#000000" fill-opacity="1" stroke="none" transform="matrix(1,0,0,1,-1850,-750)" font-family="Sans" font-size="152.778" font-weight="400" font-style="normal">
<n1:circle cx="2100" cy="1000" r="17.5"/>
</n1:g>

<n1:g fill="#000000" fill-opacity="1" stroke="none" transform="matrix(1,0,0,1,-1850,-750)" font-family="Sans" font-size="152.778" font-weight="400" font-style="normal">
<n1:circle cx="2025" cy="1000" r="17.5"/>
</n1:g>

<n1:g fill="#000000" fill-opacity="1" stroke="#f0f000" stroke-opacity="1" stroke-width="10" stroke-linecap="round" stroke-linejoin="bevel" transform="matrix(1,0,0,1,-1850,-750)" font-family="Sans" font-size="152.778" font-weight="400" font-style="normal">
<n1:polyline fill="none" vector-effect="none" points="2025,1075 2175,1075 "/>
</n1:g>

<n1:g fill="none" stroke="#f0f000" stroke-opacity="1" stroke-width="10" stroke-linecap="round" stroke-linejoin="bevel" transform="matrix(1,0,0,1,-1850,-750)" font-family="Sans" font-size="152.778" font-weight="400" font-style="normal">
<n1:path vector-effect="none" fill-rule="evenodd" d="M1950,1000 C1950,1041.42 1983.58,1075 2025,1075 "/>
<n1:path vector-effect="none" fill-rule="evenodd" d="M2175,1075 C2216.42,1075 2250,1041.42 2250,1000 "/>
<n1:polyline fill="none" vector-effect="none" points="1950,925 1950,1000 "/>
<n1:polyline fill="none" vector-effect="none" points="1950,925 2250,925 "/>
<n1:polyline fill="none" vector-effect="none" points="2250,1000 2250,925 "/>
</n1:g>
</n1:g>
</svg>
