<?xml version="1.0" encoding="UTF-8"?>
<svg width="12.7mm" height="12.7mm" viewBox="0 0 500 500" version="1.2" baseProfile="tiny" xmlns:n1="http://www.w3.org/2000/svg" xmlns:xlink="http://www.w3.org/1999/xlink" xmlns:cpcb="http://www.danielwagenaar.net/cpcb-ns.html">
  <cpcb:part pkg="TO-92" xmlns="http://www.danielwagenaar.net/cpcb-ns.html">
    <group o="107950 63500" ref="Q?">
      <hole p="552450 254000" id="8890" od="16510" sq="0" ref="3"/>
      <hole p="533400 254000" id="8890" od="16510" sq="0" ref="2"/>
      <trace p1="558292 269240" p2="508000 269240" w="2540" l="1"/>
      <hole p="514350 254000" id="8890" od="16510" sq="1" ref="1"/>
      <arc p="533146 254508" r="29210" lw="2540" l="1" ang="240" rot="0"/>
    </group>
    <text p="601980 292862" fs="12700" l="1" ori="0 0" text="Q?"/>
  </cpcb:part>
<n1:title>PCB Component</n1:title>
<n1:desc>Generated by CPCB</n1:desc>
<n1:defs>
</n1:defs>
<n1:g fill="none" stroke="black" stroke-width="1" fill-rule="evenodd" stroke-linecap="square" stroke-linejoin="bevel">

<n1:g fill="#000000" fill-opacity="1" stroke="none" transform="matrix(1,0,0,1,-2274,-1002)" font-family="Sans" font-size="152.778" font-weight="400" font-style="normal">
<n1:rect x="2274" y="1002" width="500" height="500"/>
</n1:g>

<n1:g fill="#00b400" fill-opacity="1" stroke="none" transform="matrix(1,0,0,1,-2274,-1002)" font-family="Sans" font-size="152.778" font-weight="400" font-style="normal">
<n1:circle cx="2600" cy="1250" r="32.5"/>
</n1:g>

<n1:g fill="#00b400" fill-opacity="1" stroke="none" transform="matrix(1,0,0,1,-2274,-1002)" font-family="Sans" font-size="152.778" font-weight="400" font-style="normal">
<n1:circle cx="2525" cy="1250" r="32.5"/>
</n1:g>

<n1:g fill="#00b400" fill-opacity="1" stroke="none" transform="matrix(1,0,0,1,-2274,-1002)" font-family="Sans" font-size="152.778" font-weight="400" font-style="normal">
<n1:rect x="2417.5" y="1217.5" width="65" height="65"/>
</n1:g>

<n1:g fill="#ff0000" fill-opacity="1" stroke="none" transform="matrix(1,0,0,1,-2274,-1002)" font-family="Sans" font-size="152.778" font-weight="400" font-style="normal">
<n1:circle cx="2600" cy="1250" r="32.5"/>
</n1:g>

<n1:g fill="#ff0000" fill-opacity="1" stroke="none" transform="matrix(1,0,0,1,-2274,-1002)" font-family="Sans" font-size="152.778" font-weight="400" font-style="normal">
<n1:circle cx="2525" cy="1250" r="32.5"/>
</n1:g>

<n1:g fill="#ff0000" fill-opacity="1" stroke="none" transform="matrix(1,0,0,1,-2274,-1002)" font-family="Sans" font-size="152.778" font-weight="400" font-style="normal">
<n1:rect x="2417.5" y="1217.5" width="65" height="65"/>
</n1:g>

<n1:g fill="#000000" fill-opacity="1" stroke="none" transform="matrix(1,0,0,1,-2274,-1002)" font-family="Sans" font-size="152.778" font-weight="400" font-style="normal">
<n1:circle cx="2600" cy="1250" r="17.5"/>
</n1:g>

<n1:g fill="#000000" fill-opacity="1" stroke="none" transform="matrix(1,0,0,1,-2274,-1002)" font-family="Sans" font-size="152.778" font-weight="400" font-style="normal">
<n1:circle cx="2525" cy="1250" r="17.5"/>
</n1:g>

<n1:g fill="#000000" fill-opacity="1" stroke="none" transform="matrix(1,0,0,1,-2274,-1002)" font-family="Sans" font-size="152.778" font-weight="400" font-style="normal">
<n1:circle cx="2450" cy="1250" r="17.5"/>
</n1:g>

<n1:g fill="#000000" fill-opacity="1" stroke="#f0f000" stroke-opacity="1" stroke-width="10" stroke-linecap="round" stroke-linejoin="bevel" transform="matrix(1,0,0,1,-2274,-1002)" font-family="Sans" font-size="152.778" font-weight="400" font-style="normal">
<n1:polyline fill="none" vector-effect="none" points="2623,1310 2425,1310 "/>
</n1:g>

<n1:g fill="none" stroke="#f0f000" stroke-opacity="1" stroke-width="10" stroke-linecap="round" stroke-linejoin="bevel" transform="matrix(1,0,0,1,-2274,-1002)" font-family="Sans" font-size="152.778" font-weight="400" font-style="normal">
<n1:path vector-effect="none" fill-rule="evenodd" d="M2623.61,1309.51 C2633.4,1292.6 2639,1272.95 2639,1252 C2639,1188.49 2587.51,1137 2524,1137 C2460.49,1137 2409,1188.49 2409,1252 C2409,1272.95 2414.6,1292.6 2424.4,1309.52 "/>
</n1:g>
</n1:g>
</svg>
