<?xml version="1.0" encoding="UTF-8"?>
<svg width="76.2mm" height="76.2mm" viewBox="0 0 300 300" version="1.2" baseProfile="tiny" xmlns:n1="http://www.w3.org/2000/svg" xmlns:xlink="http://www.w3.org/1999/xlink" xmlns:cpcb="http://www.danielwagenaar.net/cpcb-ns.html">
  <cpcb:part pkg="MSOP-8" xmlns="http://www.danielwagenaar.net/cpcb-ns.html">
    <group ref="U?" pkg="MSOP-8">
      <pad p="1541500 1155500" w="4000" h="11000" l="2" ref="2"/>
      <pad p="1535000 1155500" w="4000" h="11000" l="2" ref="1"/>
      <arc p="1525600 1134000" r="6350" lw="2540" l="1" ang="180" rota="0"/>
      <trace p1="1525600 1118530" p2="1525602 1126806" w="2540" l="1"/>
      <trace p1="1525602 1149658" p2="1525602 1142000" w="2540" l="1"/>
      <trace p1="1561500 1149658" p2="1525602 1149658" w="2540" l="1"/>
      <trace p1="1561500 1118530" p2="1561500 1149658" w="2540" l="1"/>
      <trace p1="1525600 1118530" p2="1561500 1118530" w="2540" l="1"/>
      <pad p="1554500 1113030" w="4000" h="11000" l="2" ref="5"/>
      <pad p="1541500 1113030" w="4000" h="11000" l="2" ref="7"/>
      <pad p="1548000 1113030" w="4000" h="11000" l="2" ref="6"/>
      <pad p="1535000 1113030" w="4000" h="11000" l="2" ref="8"/>
      <pad p="1554500 1155500" w="4000" h="11000" l="2" ref="4"/>
      <pad p="1548000 1155500" w="4000" h="11000" l="2" ref="3"/>
    </group>
    <text p="1514761 1143585" fs="12700" l="1" rot="270" text="U?"/>
  </cpcb:part>
<n1:title>PCB Component</n1:title>
<n1:desc>Generated by CPCB</n1:desc>
<n1:defs>
</n1:defs>
<n1:g fill="none" stroke="black" stroke-width="1" fill-rule="evenodd" stroke-linecap="square" stroke-linejoin="bevel">

<n1:g fill="#000000" fill-opacity="1" stroke="none" transform="matrix(1,0,0,1,-5926.95,-4315.61)" font-family="Noto Sans" font-size="152.778" font-weight="400" font-style="normal">
<n1:rect x="5926.95" y="4315.61" width="300" height="300"/>
</n1:g>

<n1:g fill="#ff0000" fill-opacity="1" stroke="none" transform="matrix(1,0,0,1,-5926.95,-4315.61)" font-family="Noto Sans" font-size="152.778" font-weight="400" font-style="normal">
<n1:rect x="6061.02" y="4527.56" width="15.748" height="43.3071"/>
<n1:rect x="6035.43" y="4527.56" width="15.748" height="43.3071"/>
<n1:rect x="6112.2" y="4360.35" width="15.748" height="43.3071"/>
<n1:rect x="6061.02" y="4360.35" width="15.748" height="43.3071"/>
<n1:rect x="6086.61" y="4360.35" width="15.748" height="43.3071"/>
<n1:rect x="6035.43" y="4360.35" width="15.748" height="43.3071"/>
<n1:rect x="6112.2" y="4527.56" width="15.748" height="43.3071"/>
<n1:rect x="6086.61" y="4527.56" width="15.748" height="43.3071"/>
</n1:g>

<n1:g fill="none" stroke="#f0f000" stroke-opacity="1" stroke-width="10" stroke-linecap="round" stroke-linejoin="bevel" transform="matrix(1,0,0,1,-5926.95,-4315.61)" font-family="Noto Sans" font-size="152.778" font-weight="400" font-style="normal">
<n1:path vector-effect="none" fill-rule="evenodd" d="M6006.3,4489.57 C6020.11,4489.57 6031.3,4478.37 6031.3,4464.57 C6031.3,4450.76 6020.11,4439.57 6006.3,4439.57 "/>
<n1:polyline fill="none" vector-effect="none" points="6006.3,4403.66 6006.31,4436.24 "/>
<n1:polyline fill="none" vector-effect="none" points="6006.31,4526.21 6006.31,4496.06 "/>
<n1:polyline fill="none" vector-effect="none" points="6147.64,4526.21 6006.31,4526.21 "/>
<n1:polyline fill="none" vector-effect="none" points="6147.64,4403.66 6147.64,4526.21 "/>
<n1:polyline fill="none" vector-effect="none" points="6006.3,4403.66 6147.64,4403.66 "/>
</n1:g>
</n1:g>
</svg>
