<?xml version="1.0" encoding="UTF-8"?>
<svg width="19.304mm" height="44.704mm" viewBox="0 0 760 1760" version="1.2" baseProfile="tiny" xmlns:n1="http://www.w3.org/2000/svg" xmlns:xlink="http://www.w3.org/1999/xlink" xmlns:cpcb="http://www.danielwagenaar.net/cpcb-ns.html">
  <cpcb:part pkg="Arduino-nano" xmlns="http://www.danielwagenaar.net/cpcb-ns.html">
    <group ref="U1" pkg="Arduino-nano">
      <hole p="50800 368300" id="10160" od="16510" ref="Gnd" fp="3" rot="270"/>
      <hole p="101600 393700" id="10160" od="16510" ref="3.3V2" rot="270"/>
      <hole p="127000 393700" id="10160" od="16510" ref="Gnd2" rot="270"/>
      <hole p="152400 393700" id="10160" od="16510" ref="Program" rot="270"/>
      <hole p="203200 368300" id="10160" od="16510" ref="D0" rot="270"/>
      <hole p="50800 342900" id="10160" od="16510" ref="Reset" rot="270"/>
      <hole p="50800 317500" id="10160" od="16510" ref="V5" fp="2" rot="270"/>
      <hole p="50800 292100" id="10160" od="16510" ref="A7" rot="270"/>
      <hole p="50800 266700" id="10160" od="16510" ref="A6" rot="270"/>
      <hole p="50800 241300" id="10160" od="16510" ref="A5" rot="270"/>
      <hole p="50800 215900" id="10160" od="16510" ref="A4" rot="270"/>
      <hole p="50800 190500" id="10160" od="16510" ref="A3" rot="270"/>
      <hole p="50800 165100" id="10160" od="16510" ref="A2" rot="270"/>
      <hole p="50800 139700" id="10160" od="16510" ref="A1" rot="270"/>
      <hole p="50800 114300" id="10160" od="16510" ref="A0" rot="270"/>
      <hole p="50800 88900" id="10160" od="16510" ref="Aref" rot="270"/>
      <hole p="50800 63500" id="10160" od="16510" ref="V33" rot="270"/>
      <hole p="50800 38100" id="10160" od="16510" ref="D13" rot="270"/>
      <hole p="203200 342900" id="10160" od="16510" ref="Reset" rot="270"/>
      <hole p="203200 317500" id="10160" od="16510" ref="Gnd" fp="3" rot="270"/>
      <hole p="203200 292100" id="10160" od="16510" ref="D2" rot="270"/>
      <hole p="203200 266700" id="10160" od="16510" ref="D3" rot="270"/>
      <hole p="203200 241300" id="10160" od="16510" ref="D4" rot="270"/>
      <hole p="203200 215900" id="10160" od="16510" ref="D5" rot="270"/>
      <hole p="203200 190500" id="10160" od="16510" ref="D6" rot="270"/>
      <hole p="203200 165100" id="10160" od="16510" ref="D7" rot="270"/>
      <hole p="203200 139700" id="10160" od="16510" ref="D8" rot="270"/>
      <hole p="203200 114300" id="10160" od="16510" ref="D9" rot="270"/>
      <hole p="203200 88900" id="10160" od="16510" ref="D10" rot="270"/>
      <hole p="203200 63500" id="10160" od="16510" ref="D11" rot="270"/>
      <hole p="203200 38100" id="10160" od="16510" ref="D12" rot="270"/>
      <trace p1="38100 0" p2="215900 0" w="2540" l="1"/>
      <trace p1="215900 0" p2="215900 431800" w="2540" l="1"/>
      <trace p1="215900 431800" p2="38100 431800" w="2540" l="1"/>
      <trace p1="38100 431800" p2="38100 0" w="2540" l="1"/>
      <trace p1="152400 0" p2="152400 50800" w="2540" l="1"/>
      <trace p1="152400 50800" p2="101600 50800" w="2540" l="1"/>
      <trace p1="101600 50800" p2="101600 0" w="2540" l="1"/>
      <text p="126996 139705" fs="12700" l="1" rot="90" text="Arduino Nano"/>
      <hole p="152400 419100" id="10160" od="16510" ref="Program1" rot="270"/>
      <hole p="127000 419100" id="10160" od="16510" ref="Gnd3" rot="270"/>
      <hole p="101600 419100" id="10160" od="16510" ref="3.3V2" rot="270"/>
      <nphole p="50800 12700" d="10160"/>
      <nphole p="203200 12700" d="10160"/>
      <nphole p="203200 419100" d="10160"/>
      <nphole p="50800 419100" d="10160"/>
      <hole p="203200 393700" id="10160" od="16510" ref="D1" rot="270"/>
      <hole p="50800 393700" id="10160" od="16510" ref="Vin" rot="270"/>
    </group>
    <text p="37783 445453" fs="12700" l="1" rot="0" text="U1"/>
  </cpcb:part>
<n1:title>PCB Component</n1:title>
<n1:desc>Generated by CPCB</n1:desc>
<n1:defs>
</n1:defs>
<n1:g fill="none" stroke="black" stroke-width="1" fill-rule="evenodd" stroke-linecap="square" stroke-linejoin="bevel">

<n1:g fill="#000000" fill-opacity="1" stroke="none" transform="matrix(1,0,0,1,-120,30)" font-family="Sans" font-size="125" font-weight="400" font-style="normal">
<n1:rect x="120" y="-30" width="760" height="1760"/>
</n1:g>

<n1:g fill="#00b400" fill-opacity="1" stroke="none" transform="matrix(1,0,0,1,-120,30)" font-family="Sans" font-size="125" font-weight="400" font-style="normal">
<n1:circle cx="200" cy="1450" r="32.5"/>
</n1:g>

<n1:g fill="#00b400" fill-opacity="1" stroke="#00b400" stroke-opacity="1" stroke-width="12" stroke-linecap="butt" stroke-linejoin="bevel" transform="matrix(1,0,0,1,-120,30)" font-family="Sans" font-size="125" font-weight="400" font-style="normal">
<n1:polyline fill="none" vector-effect="none" points="200,1499.5 200,1400.5 "/>
<n1:polyline fill="none" vector-effect="none" points="150.5,1450 249.5,1450 "/>
</n1:g>

<n1:g fill="#00b400" fill-opacity="1" stroke="none" transform="matrix(1,0,0,1,-120,30)" font-family="Sans" font-size="125" font-weight="400" font-style="normal">
<n1:circle cx="400" cy="1550" r="32.5"/>
</n1:g>

<n1:g fill="#00b400" fill-opacity="1" stroke="none" transform="matrix(1,0,0,1,-120,30)" font-family="Sans" font-size="125" font-weight="400" font-style="normal">
<n1:circle cx="500" cy="1550" r="32.5"/>
</n1:g>

<n1:g fill="#00b400" fill-opacity="1" stroke="none" transform="matrix(1,0,0,1,-120,30)" font-family="Sans" font-size="125" font-weight="400" font-style="normal">
<n1:circle cx="600" cy="1550" r="32.5"/>
</n1:g>

<n1:g fill="#00b400" fill-opacity="1" stroke="none" transform="matrix(1,0,0,1,-120,30)" font-family="Sans" font-size="125" font-weight="400" font-style="normal">
<n1:circle cx="800" cy="1450" r="32.5"/>
</n1:g>

<n1:g fill="#00b400" fill-opacity="1" stroke="none" transform="matrix(1,0,0,1,-120,30)" font-family="Sans" font-size="125" font-weight="400" font-style="normal">
<n1:circle cx="200" cy="1350" r="32.5"/>
</n1:g>

<n1:g fill="#00b400" fill-opacity="1" stroke="none" transform="matrix(1,0,0,1,-120,30)" font-family="Sans" font-size="125" font-weight="400" font-style="normal">
<n1:circle cx="200" cy="1250" r="32.5"/>
</n1:g>

<n1:g fill="#00b400" fill-opacity="1" stroke="none" transform="matrix(1,0,0,1,-120,30)" font-family="Sans" font-size="125" font-weight="400" font-style="normal">
<n1:circle cx="200" cy="1150" r="32.5"/>
</n1:g>

<n1:g fill="#00b400" fill-opacity="1" stroke="none" transform="matrix(1,0,0,1,-120,30)" font-family="Sans" font-size="125" font-weight="400" font-style="normal">
<n1:circle cx="200" cy="1050" r="32.5"/>
</n1:g>

<n1:g fill="#00b400" fill-opacity="1" stroke="none" transform="matrix(1,0,0,1,-120,30)" font-family="Sans" font-size="125" font-weight="400" font-style="normal">
<n1:circle cx="200" cy="950" r="32.5"/>
</n1:g>

<n1:g fill="#00b400" fill-opacity="1" stroke="none" transform="matrix(1,0,0,1,-120,30)" font-family="Sans" font-size="125" font-weight="400" font-style="normal">
<n1:circle cx="200" cy="850" r="32.5"/>
</n1:g>

<n1:g fill="#00b400" fill-opacity="1" stroke="none" transform="matrix(1,0,0,1,-120,30)" font-family="Sans" font-size="125" font-weight="400" font-style="normal">
<n1:circle cx="200" cy="750" r="32.5"/>
</n1:g>

<n1:g fill="#00b400" fill-opacity="1" stroke="none" transform="matrix(1,0,0,1,-120,30)" font-family="Sans" font-size="125" font-weight="400" font-style="normal">
<n1:circle cx="200" cy="650" r="32.5"/>
</n1:g>

<n1:g fill="#00b400" fill-opacity="1" stroke="none" transform="matrix(1,0,0,1,-120,30)" font-family="Sans" font-size="125" font-weight="400" font-style="normal">
<n1:circle cx="200" cy="550" r="32.5"/>
</n1:g>

<n1:g fill="#00b400" fill-opacity="1" stroke="none" transform="matrix(1,0,0,1,-120,30)" font-family="Sans" font-size="125" font-weight="400" font-style="normal">
<n1:circle cx="200" cy="450" r="32.5"/>
</n1:g>

<n1:g fill="#00b400" fill-opacity="1" stroke="none" transform="matrix(1,0,0,1,-120,30)" font-family="Sans" font-size="125" font-weight="400" font-style="normal">
<n1:circle cx="200" cy="350" r="32.5"/>
</n1:g>

<n1:g fill="#00b400" fill-opacity="1" stroke="none" transform="matrix(1,0,0,1,-120,30)" font-family="Sans" font-size="125" font-weight="400" font-style="normal">
<n1:circle cx="200" cy="250" r="32.5"/>
</n1:g>

<n1:g fill="#00b400" fill-opacity="1" stroke="none" transform="matrix(1,0,0,1,-120,30)" font-family="Sans" font-size="125" font-weight="400" font-style="normal">
<n1:circle cx="200" cy="150" r="32.5"/>
</n1:g>

<n1:g fill="#00b400" fill-opacity="1" stroke="none" transform="matrix(1,0,0,1,-120,30)" font-family="Sans" font-size="125" font-weight="400" font-style="normal">
<n1:circle cx="800" cy="1350" r="32.5"/>
</n1:g>

<n1:g fill="#00b400" fill-opacity="1" stroke="none" transform="matrix(1,0,0,1,-120,30)" font-family="Sans" font-size="125" font-weight="400" font-style="normal">
<n1:circle cx="800" cy="1250" r="32.5"/>
</n1:g>

<n1:g fill="#00b400" fill-opacity="1" stroke="#00b400" stroke-opacity="1" stroke-width="12" stroke-linecap="butt" stroke-linejoin="bevel" transform="matrix(1,0,0,1,-120,30)" font-family="Sans" font-size="125" font-weight="400" font-style="normal">
<n1:polyline fill="none" vector-effect="none" points="800,1299.5 800,1200.5 "/>
<n1:polyline fill="none" vector-effect="none" points="750.5,1250 849.5,1250 "/>
</n1:g>

<n1:g fill="#00b400" fill-opacity="1" stroke="none" transform="matrix(1,0,0,1,-120,30)" font-family="Sans" font-size="125" font-weight="400" font-style="normal">
<n1:circle cx="800" cy="1150" r="32.5"/>
</n1:g>

<n1:g fill="#00b400" fill-opacity="1" stroke="none" transform="matrix(1,0,0,1,-120,30)" font-family="Sans" font-size="125" font-weight="400" font-style="normal">
<n1:circle cx="800" cy="1050" r="32.5"/>
</n1:g>

<n1:g fill="#00b400" fill-opacity="1" stroke="none" transform="matrix(1,0,0,1,-120,30)" font-family="Sans" font-size="125" font-weight="400" font-style="normal">
<n1:circle cx="800" cy="950" r="32.5"/>
</n1:g>

<n1:g fill="#00b400" fill-opacity="1" stroke="none" transform="matrix(1,0,0,1,-120,30)" font-family="Sans" font-size="125" font-weight="400" font-style="normal">
<n1:circle cx="800" cy="850" r="32.5"/>
</n1:g>

<n1:g fill="#00b400" fill-opacity="1" stroke="none" transform="matrix(1,0,0,1,-120,30)" font-family="Sans" font-size="125" font-weight="400" font-style="normal">
<n1:circle cx="800" cy="750" r="32.5"/>
</n1:g>

<n1:g fill="#00b400" fill-opacity="1" stroke="none" transform="matrix(1,0,0,1,-120,30)" font-family="Sans" font-size="125" font-weight="400" font-style="normal">
<n1:circle cx="800" cy="650" r="32.5"/>
</n1:g>

<n1:g fill="#00b400" fill-opacity="1" stroke="none" transform="matrix(1,0,0,1,-120,30)" font-family="Sans" font-size="125" font-weight="400" font-style="normal">
<n1:circle cx="800" cy="550" r="32.5"/>
</n1:g>

<n1:g fill="#00b400" fill-opacity="1" stroke="none" transform="matrix(1,0,0,1,-120,30)" font-family="Sans" font-size="125" font-weight="400" font-style="normal">
<n1:circle cx="800" cy="450" r="32.5"/>
</n1:g>

<n1:g fill="#00b400" fill-opacity="1" stroke="none" transform="matrix(1,0,0,1,-120,30)" font-family="Sans" font-size="125" font-weight="400" font-style="normal">
<n1:circle cx="800" cy="350" r="32.5"/>
</n1:g>

<n1:g fill="#00b400" fill-opacity="1" stroke="none" transform="matrix(1,0,0,1,-120,30)" font-family="Sans" font-size="125" font-weight="400" font-style="normal">
<n1:circle cx="800" cy="250" r="32.5"/>
</n1:g>

<n1:g fill="#00b400" fill-opacity="1" stroke="none" transform="matrix(1,0,0,1,-120,30)" font-family="Sans" font-size="125" font-weight="400" font-style="normal">
<n1:circle cx="800" cy="150" r="32.5"/>
</n1:g>

<n1:g fill="#00b400" fill-opacity="1" stroke="none" transform="matrix(1,0,0,1,-120,30)" font-family="Sans" font-size="125" font-weight="400" font-style="normal">
<n1:circle cx="600" cy="1650" r="32.5"/>
</n1:g>

<n1:g fill="#00b400" fill-opacity="1" stroke="none" transform="matrix(1,0,0,1,-120,30)" font-family="Sans" font-size="125" font-weight="400" font-style="normal">
<n1:circle cx="500" cy="1650" r="32.5"/>
</n1:g>

<n1:g fill="#00b400" fill-opacity="1" stroke="none" transform="matrix(1,0,0,1,-120,30)" font-family="Sans" font-size="125" font-weight="400" font-style="normal">
<n1:circle cx="400" cy="1650" r="32.5"/>
</n1:g>

<n1:g fill="#00b400" fill-opacity="1" stroke="none" transform="matrix(1,0,0,1,-120,30)" font-family="Sans" font-size="125" font-weight="400" font-style="normal">
<n1:circle cx="800" cy="1550" r="32.5"/>
</n1:g>

<n1:g fill="#00b400" fill-opacity="1" stroke="none" transform="matrix(1,0,0,1,-120,30)" font-family="Sans" font-size="125" font-weight="400" font-style="normal">
<n1:circle cx="200" cy="1550" r="32.5"/>
</n1:g>

<n1:g fill="#ff0000" fill-opacity="1" stroke="none" transform="matrix(1,0,0,1,-120,30)" font-family="Sans" font-size="125" font-weight="400" font-style="normal">
<n1:circle cx="200" cy="1450" r="32.5"/>
</n1:g>

<n1:g fill="#ff0000" fill-opacity="1" stroke="none" transform="matrix(1,0,0,1,-120,30)" font-family="Sans" font-size="125" font-weight="400" font-style="normal">
<n1:circle cx="400" cy="1550" r="32.5"/>
</n1:g>

<n1:g fill="#ff0000" fill-opacity="1" stroke="none" transform="matrix(1,0,0,1,-120,30)" font-family="Sans" font-size="125" font-weight="400" font-style="normal">
<n1:circle cx="500" cy="1550" r="32.5"/>
</n1:g>

<n1:g fill="#ff0000" fill-opacity="1" stroke="none" transform="matrix(1,0,0,1,-120,30)" font-family="Sans" font-size="125" font-weight="400" font-style="normal">
<n1:circle cx="600" cy="1550" r="32.5"/>
</n1:g>

<n1:g fill="#ff0000" fill-opacity="1" stroke="none" transform="matrix(1,0,0,1,-120,30)" font-family="Sans" font-size="125" font-weight="400" font-style="normal">
<n1:circle cx="800" cy="1450" r="32.5"/>
</n1:g>

<n1:g fill="#ff0000" fill-opacity="1" stroke="none" transform="matrix(1,0,0,1,-120,30)" font-family="Sans" font-size="125" font-weight="400" font-style="normal">
<n1:circle cx="200" cy="1350" r="32.5"/>
</n1:g>

<n1:g fill="#ff0000" fill-opacity="1" stroke="none" transform="matrix(1,0,0,1,-120,30)" font-family="Sans" font-size="125" font-weight="400" font-style="normal">
<n1:circle cx="200" cy="1250" r="32.5"/>
</n1:g>

<n1:g fill="#ff0000" fill-opacity="1" stroke="#ff0000" stroke-opacity="1" stroke-width="12" stroke-linecap="butt" stroke-linejoin="bevel" transform="matrix(1,0,0,1,-120,30)" font-family="Sans" font-size="125" font-weight="400" font-style="normal">
<n1:polyline fill="none" vector-effect="none" points="200,1299.5 200,1200.5 "/>
<n1:polyline fill="none" vector-effect="none" points="150.5,1250 249.5,1250 "/>
</n1:g>

<n1:g fill="#ff0000" fill-opacity="1" stroke="none" transform="matrix(1,0,0,1,-120,30)" font-family="Sans" font-size="125" font-weight="400" font-style="normal">
<n1:circle cx="200" cy="1150" r="32.5"/>
</n1:g>

<n1:g fill="#ff0000" fill-opacity="1" stroke="none" transform="matrix(1,0,0,1,-120,30)" font-family="Sans" font-size="125" font-weight="400" font-style="normal">
<n1:circle cx="200" cy="1050" r="32.5"/>
</n1:g>

<n1:g fill="#ff0000" fill-opacity="1" stroke="none" transform="matrix(1,0,0,1,-120,30)" font-family="Sans" font-size="125" font-weight="400" font-style="normal">
<n1:circle cx="200" cy="950" r="32.5"/>
</n1:g>

<n1:g fill="#ff0000" fill-opacity="1" stroke="none" transform="matrix(1,0,0,1,-120,30)" font-family="Sans" font-size="125" font-weight="400" font-style="normal">
<n1:circle cx="200" cy="850" r="32.5"/>
</n1:g>

<n1:g fill="#ff0000" fill-opacity="1" stroke="none" transform="matrix(1,0,0,1,-120,30)" font-family="Sans" font-size="125" font-weight="400" font-style="normal">
<n1:circle cx="200" cy="750" r="32.5"/>
</n1:g>

<n1:g fill="#ff0000" fill-opacity="1" stroke="none" transform="matrix(1,0,0,1,-120,30)" font-family="Sans" font-size="125" font-weight="400" font-style="normal">
<n1:circle cx="200" cy="650" r="32.5"/>
</n1:g>

<n1:g fill="#ff0000" fill-opacity="1" stroke="none" transform="matrix(1,0,0,1,-120,30)" font-family="Sans" font-size="125" font-weight="400" font-style="normal">
<n1:circle cx="200" cy="550" r="32.5"/>
</n1:g>

<n1:g fill="#ff0000" fill-opacity="1" stroke="none" transform="matrix(1,0,0,1,-120,30)" font-family="Sans" font-size="125" font-weight="400" font-style="normal">
<n1:circle cx="200" cy="450" r="32.5"/>
</n1:g>

<n1:g fill="#ff0000" fill-opacity="1" stroke="none" transform="matrix(1,0,0,1,-120,30)" font-family="Sans" font-size="125" font-weight="400" font-style="normal">
<n1:circle cx="200" cy="350" r="32.5"/>
</n1:g>

<n1:g fill="#ff0000" fill-opacity="1" stroke="none" transform="matrix(1,0,0,1,-120,30)" font-family="Sans" font-size="125" font-weight="400" font-style="normal">
<n1:circle cx="200" cy="250" r="32.5"/>
</n1:g>

<n1:g fill="#ff0000" fill-opacity="1" stroke="none" transform="matrix(1,0,0,1,-120,30)" font-family="Sans" font-size="125" font-weight="400" font-style="normal">
<n1:circle cx="200" cy="150" r="32.5"/>
</n1:g>

<n1:g fill="#ff0000" fill-opacity="1" stroke="none" transform="matrix(1,0,0,1,-120,30)" font-family="Sans" font-size="125" font-weight="400" font-style="normal">
<n1:circle cx="800" cy="1350" r="32.5"/>
</n1:g>

<n1:g fill="#ff0000" fill-opacity="1" stroke="none" transform="matrix(1,0,0,1,-120,30)" font-family="Sans" font-size="125" font-weight="400" font-style="normal">
<n1:circle cx="800" cy="1250" r="32.5"/>
</n1:g>

<n1:g fill="#ff0000" fill-opacity="1" stroke="none" transform="matrix(1,0,0,1,-120,30)" font-family="Sans" font-size="125" font-weight="400" font-style="normal">
<n1:circle cx="800" cy="1150" r="32.5"/>
</n1:g>

<n1:g fill="#ff0000" fill-opacity="1" stroke="none" transform="matrix(1,0,0,1,-120,30)" font-family="Sans" font-size="125" font-weight="400" font-style="normal">
<n1:circle cx="800" cy="1050" r="32.5"/>
</n1:g>

<n1:g fill="#ff0000" fill-opacity="1" stroke="none" transform="matrix(1,0,0,1,-120,30)" font-family="Sans" font-size="125" font-weight="400" font-style="normal">
<n1:circle cx="800" cy="950" r="32.5"/>
</n1:g>

<n1:g fill="#ff0000" fill-opacity="1" stroke="none" transform="matrix(1,0,0,1,-120,30)" font-family="Sans" font-size="125" font-weight="400" font-style="normal">
<n1:circle cx="800" cy="850" r="32.5"/>
</n1:g>

<n1:g fill="#ff0000" fill-opacity="1" stroke="none" transform="matrix(1,0,0,1,-120,30)" font-family="Sans" font-size="125" font-weight="400" font-style="normal">
<n1:circle cx="800" cy="750" r="32.5"/>
</n1:g>

<n1:g fill="#ff0000" fill-opacity="1" stroke="none" transform="matrix(1,0,0,1,-120,30)" font-family="Sans" font-size="125" font-weight="400" font-style="normal">
<n1:circle cx="800" cy="650" r="32.5"/>
</n1:g>

<n1:g fill="#ff0000" fill-opacity="1" stroke="none" transform="matrix(1,0,0,1,-120,30)" font-family="Sans" font-size="125" font-weight="400" font-style="normal">
<n1:circle cx="800" cy="550" r="32.5"/>
</n1:g>

<n1:g fill="#ff0000" fill-opacity="1" stroke="none" transform="matrix(1,0,0,1,-120,30)" font-family="Sans" font-size="125" font-weight="400" font-style="normal">
<n1:circle cx="800" cy="450" r="32.5"/>
</n1:g>

<n1:g fill="#ff0000" fill-opacity="1" stroke="none" transform="matrix(1,0,0,1,-120,30)" font-family="Sans" font-size="125" font-weight="400" font-style="normal">
<n1:circle cx="800" cy="350" r="32.5"/>
</n1:g>

<n1:g fill="#ff0000" fill-opacity="1" stroke="none" transform="matrix(1,0,0,1,-120,30)" font-family="Sans" font-size="125" font-weight="400" font-style="normal">
<n1:circle cx="800" cy="250" r="32.5"/>
</n1:g>

<n1:g fill="#ff0000" fill-opacity="1" stroke="none" transform="matrix(1,0,0,1,-120,30)" font-family="Sans" font-size="125" font-weight="400" font-style="normal">
<n1:circle cx="800" cy="150" r="32.5"/>
</n1:g>

<n1:g fill="#ff0000" fill-opacity="1" stroke="none" transform="matrix(1,0,0,1,-120,30)" font-family="Sans" font-size="125" font-weight="400" font-style="normal">
<n1:circle cx="600" cy="1650" r="32.5"/>
</n1:g>

<n1:g fill="#ff0000" fill-opacity="1" stroke="none" transform="matrix(1,0,0,1,-120,30)" font-family="Sans" font-size="125" font-weight="400" font-style="normal">
<n1:circle cx="500" cy="1650" r="32.5"/>
</n1:g>

<n1:g fill="#ff0000" fill-opacity="1" stroke="none" transform="matrix(1,0,0,1,-120,30)" font-family="Sans" font-size="125" font-weight="400" font-style="normal">
<n1:circle cx="400" cy="1650" r="32.5"/>
</n1:g>

<n1:g fill="#ff0000" fill-opacity="1" stroke="none" transform="matrix(1,0,0,1,-120,30)" font-family="Sans" font-size="125" font-weight="400" font-style="normal">
<n1:circle cx="800" cy="1550" r="32.5"/>
</n1:g>

<n1:g fill="#ff0000" fill-opacity="1" stroke="none" transform="matrix(1,0,0,1,-120,30)" font-family="Sans" font-size="125" font-weight="400" font-style="normal">
<n1:circle cx="200" cy="1550" r="32.5"/>
</n1:g>

<n1:g fill="#ffffff" fill-opacity="1" stroke="none" transform="matrix(1,0,0,1,-120,30)" font-family="Sans" font-size="125" font-weight="400" font-style="normal">
<n1:circle cx="200" cy="1450" r="20"/>
</n1:g>

<n1:g fill="#ffffff" fill-opacity="1" stroke="none" transform="matrix(1,0,0,1,-120,30)" font-family="Sans" font-size="125" font-weight="400" font-style="normal">
<n1:circle cx="400" cy="1550" r="20"/>
</n1:g>

<n1:g fill="#ffffff" fill-opacity="1" stroke="none" transform="matrix(1,0,0,1,-120,30)" font-family="Sans" font-size="125" font-weight="400" font-style="normal">
<n1:circle cx="500" cy="1550" r="20"/>
</n1:g>

<n1:g fill="#ffffff" fill-opacity="1" stroke="none" transform="matrix(1,0,0,1,-120,30)" font-family="Sans" font-size="125" font-weight="400" font-style="normal">
<n1:circle cx="600" cy="1550" r="20"/>
</n1:g>

<n1:g fill="#ffffff" fill-opacity="1" stroke="none" transform="matrix(1,0,0,1,-120,30)" font-family="Sans" font-size="125" font-weight="400" font-style="normal">
<n1:circle cx="800" cy="1450" r="20"/>
</n1:g>

<n1:g fill="#ffffff" fill-opacity="1" stroke="none" transform="matrix(1,0,0,1,-120,30)" font-family="Sans" font-size="125" font-weight="400" font-style="normal">
<n1:circle cx="200" cy="1350" r="20"/>
</n1:g>

<n1:g fill="#ffffff" fill-opacity="1" stroke="none" transform="matrix(1,0,0,1,-120,30)" font-family="Sans" font-size="125" font-weight="400" font-style="normal">
<n1:circle cx="200" cy="1250" r="20"/>
</n1:g>

<n1:g fill="#ffffff" fill-opacity="1" stroke="none" transform="matrix(1,0,0,1,-120,30)" font-family="Sans" font-size="125" font-weight="400" font-style="normal">
<n1:circle cx="200" cy="1150" r="20"/>
</n1:g>

<n1:g fill="#ffffff" fill-opacity="1" stroke="none" transform="matrix(1,0,0,1,-120,30)" font-family="Sans" font-size="125" font-weight="400" font-style="normal">
<n1:circle cx="200" cy="1050" r="20"/>
</n1:g>

<n1:g fill="#ffffff" fill-opacity="1" stroke="none" transform="matrix(1,0,0,1,-120,30)" font-family="Sans" font-size="125" font-weight="400" font-style="normal">
<n1:circle cx="200" cy="950" r="20"/>
</n1:g>

<n1:g fill="#ffffff" fill-opacity="1" stroke="none" transform="matrix(1,0,0,1,-120,30)" font-family="Sans" font-size="125" font-weight="400" font-style="normal">
<n1:circle cx="200" cy="850" r="20"/>
</n1:g>

<n1:g fill="#ffffff" fill-opacity="1" stroke="none" transform="matrix(1,0,0,1,-120,30)" font-family="Sans" font-size="125" font-weight="400" font-style="normal">
<n1:circle cx="200" cy="750" r="20"/>
</n1:g>

<n1:g fill="#ffffff" fill-opacity="1" stroke="none" transform="matrix(1,0,0,1,-120,30)" font-family="Sans" font-size="125" font-weight="400" font-style="normal">
<n1:circle cx="200" cy="650" r="20"/>
</n1:g>

<n1:g fill="#ffffff" fill-opacity="1" stroke="none" transform="matrix(1,0,0,1,-120,30)" font-family="Sans" font-size="125" font-weight="400" font-style="normal">
<n1:circle cx="200" cy="550" r="20"/>
</n1:g>

<n1:g fill="#ffffff" fill-opacity="1" stroke="none" transform="matrix(1,0,0,1,-120,30)" font-family="Sans" font-size="125" font-weight="400" font-style="normal">
<n1:circle cx="200" cy="450" r="20"/>
</n1:g>

<n1:g fill="#ffffff" fill-opacity="1" stroke="none" transform="matrix(1,0,0,1,-120,30)" font-family="Sans" font-size="125" font-weight="400" font-style="normal">
<n1:circle cx="200" cy="350" r="20"/>
</n1:g>

<n1:g fill="#ffffff" fill-opacity="1" stroke="none" transform="matrix(1,0,0,1,-120,30)" font-family="Sans" font-size="125" font-weight="400" font-style="normal">
<n1:circle cx="200" cy="250" r="20"/>
</n1:g>

<n1:g fill="#ffffff" fill-opacity="1" stroke="none" transform="matrix(1,0,0,1,-120,30)" font-family="Sans" font-size="125" font-weight="400" font-style="normal">
<n1:circle cx="200" cy="150" r="20"/>
</n1:g>

<n1:g fill="#ffffff" fill-opacity="1" stroke="none" transform="matrix(1,0,0,1,-120,30)" font-family="Sans" font-size="125" font-weight="400" font-style="normal">
<n1:circle cx="800" cy="1350" r="20"/>
</n1:g>

<n1:g fill="#ffffff" fill-opacity="1" stroke="none" transform="matrix(1,0,0,1,-120,30)" font-family="Sans" font-size="125" font-weight="400" font-style="normal">
<n1:circle cx="800" cy="1250" r="20"/>
</n1:g>

<n1:g fill="#ffffff" fill-opacity="1" stroke="none" transform="matrix(1,0,0,1,-120,30)" font-family="Sans" font-size="125" font-weight="400" font-style="normal">
<n1:circle cx="800" cy="1150" r="20"/>
</n1:g>

<n1:g fill="#ffffff" fill-opacity="1" stroke="none" transform="matrix(1,0,0,1,-120,30)" font-family="Sans" font-size="125" font-weight="400" font-style="normal">
<n1:circle cx="800" cy="1050" r="20"/>
</n1:g>

<n1:g fill="#ffffff" fill-opacity="1" stroke="none" transform="matrix(1,0,0,1,-120,30)" font-family="Sans" font-size="125" font-weight="400" font-style="normal">
<n1:circle cx="800" cy="950" r="20"/>
</n1:g>

<n1:g fill="#ffffff" fill-opacity="1" stroke="none" transform="matrix(1,0,0,1,-120,30)" font-family="Sans" font-size="125" font-weight="400" font-style="normal">
<n1:circle cx="800" cy="850" r="20"/>
</n1:g>

<n1:g fill="#ffffff" fill-opacity="1" stroke="none" transform="matrix(1,0,0,1,-120,30)" font-family="Sans" font-size="125" font-weight="400" font-style="normal">
<n1:circle cx="800" cy="750" r="20"/>
</n1:g>

<n1:g fill="#ffffff" fill-opacity="1" stroke="none" transform="matrix(1,0,0,1,-120,30)" font-family="Sans" font-size="125" font-weight="400" font-style="normal">
<n1:circle cx="800" cy="650" r="20"/>
</n1:g>

<n1:g fill="#ffffff" fill-opacity="1" stroke="none" transform="matrix(1,0,0,1,-120,30)" font-family="Sans" font-size="125" font-weight="400" font-style="normal">
<n1:circle cx="800" cy="550" r="20"/>
</n1:g>

<n1:g fill="#ffffff" fill-opacity="1" stroke="none" transform="matrix(1,0,0,1,-120,30)" font-family="Sans" font-size="125" font-weight="400" font-style="normal">
<n1:circle cx="800" cy="450" r="20"/>
</n1:g>

<n1:g fill="#ffffff" fill-opacity="1" stroke="none" transform="matrix(1,0,0,1,-120,30)" font-family="Sans" font-size="125" font-weight="400" font-style="normal">
<n1:circle cx="800" cy="350" r="20"/>
</n1:g>

<n1:g fill="#ffffff" fill-opacity="1" stroke="none" transform="matrix(1,0,0,1,-120,30)" font-family="Sans" font-size="125" font-weight="400" font-style="normal">
<n1:circle cx="800" cy="250" r="20"/>
</n1:g>

<n1:g fill="#ffffff" fill-opacity="1" stroke="none" transform="matrix(1,0,0,1,-120,30)" font-family="Sans" font-size="125" font-weight="400" font-style="normal">
<n1:circle cx="800" cy="150" r="20"/>
</n1:g>

<n1:g fill="#ffffff" fill-opacity="1" stroke="none" transform="matrix(1,0,0,1,-120,30)" font-family="Sans" font-size="125" font-weight="400" font-style="normal">
<n1:circle cx="600" cy="1650" r="20"/>
</n1:g>

<n1:g fill="#ffffff" fill-opacity="1" stroke="none" transform="matrix(1,0,0,1,-120,30)" font-family="Sans" font-size="125" font-weight="400" font-style="normal">
<n1:circle cx="500" cy="1650" r="20"/>
</n1:g>

<n1:g fill="#ffffff" fill-opacity="1" stroke="none" transform="matrix(1,0,0,1,-120,30)" font-family="Sans" font-size="125" font-weight="400" font-style="normal">
<n1:circle cx="400" cy="1650" r="20"/>
</n1:g>

<n1:g fill="#ffffff" fill-opacity="1" stroke="none" transform="matrix(1,0,0,1,-120,30)" font-family="Sans" font-size="125" font-weight="400" font-style="normal">
<n1:circle cx="200" cy="50" r="20"/>
</n1:g>

<n1:g fill="#ffffff" fill-opacity="1" stroke="#787878" stroke-opacity="1" stroke-width="8" stroke-linecap="butt" stroke-linejoin="bevel" transform="matrix(1,0,0,1,-120,30)" font-family="Sans" font-size="125" font-weight="400" font-style="normal">
<n1:polyline fill="none" vector-effect="none" points="201.414,51.4142 212.728,62.7279 "/>
<n1:polyline fill="none" vector-effect="none" points="198.586,51.4142 187.272,62.7279 "/>
<n1:polyline fill="none" vector-effect="none" points="198.586,48.5858 187.272,37.2721 "/>
<n1:polyline fill="none" vector-effect="none" points="201.414,48.5858 212.728,37.2721 "/>
</n1:g>

<n1:g fill="#ffffff" fill-opacity="1" stroke="none" transform="matrix(1,0,0,1,-120,30)" font-family="Sans" font-size="125" font-weight="400" font-style="normal">
<n1:circle cx="800" cy="50" r="20"/>
</n1:g>

<n1:g fill="#ffffff" fill-opacity="1" stroke="#787878" stroke-opacity="1" stroke-width="8" stroke-linecap="butt" stroke-linejoin="bevel" transform="matrix(1,0,0,1,-120,30)" font-family="Sans" font-size="125" font-weight="400" font-style="normal">
<n1:polyline fill="none" vector-effect="none" points="801.414,51.4142 812.728,62.7279 "/>
<n1:polyline fill="none" vector-effect="none" points="798.586,51.4142 787.272,62.7279 "/>
<n1:polyline fill="none" vector-effect="none" points="798.586,48.5858 787.272,37.2721 "/>
<n1:polyline fill="none" vector-effect="none" points="801.414,48.5858 812.728,37.2721 "/>
</n1:g>

<n1:g fill="#ffffff" fill-opacity="1" stroke="none" transform="matrix(1,0,0,1,-120,30)" font-family="Sans" font-size="125" font-weight="400" font-style="normal">
<n1:circle cx="800" cy="1650" r="20"/>
</n1:g>

<n1:g fill="#ffffff" fill-opacity="1" stroke="#787878" stroke-opacity="1" stroke-width="8" stroke-linecap="butt" stroke-linejoin="bevel" transform="matrix(1,0,0,1,-120,30)" font-family="Sans" font-size="125" font-weight="400" font-style="normal">
<n1:polyline fill="none" vector-effect="none" points="801.414,1651.41 812.728,1662.73 "/>
<n1:polyline fill="none" vector-effect="none" points="798.586,1651.41 787.272,1662.73 "/>
<n1:polyline fill="none" vector-effect="none" points="798.586,1648.59 787.272,1637.27 "/>
<n1:polyline fill="none" vector-effect="none" points="801.414,1648.59 812.728,1637.27 "/>
</n1:g>

<n1:g fill="#ffffff" fill-opacity="1" stroke="none" transform="matrix(1,0,0,1,-120,30)" font-family="Sans" font-size="125" font-weight="400" font-style="normal">
<n1:circle cx="200" cy="1650" r="20"/>
</n1:g>

<n1:g fill="#ffffff" fill-opacity="1" stroke="#787878" stroke-opacity="1" stroke-width="8" stroke-linecap="butt" stroke-linejoin="bevel" transform="matrix(1,0,0,1,-120,30)" font-family="Sans" font-size="125" font-weight="400" font-style="normal">
<n1:polyline fill="none" vector-effect="none" points="201.414,1651.41 212.728,1662.73 "/>
<n1:polyline fill="none" vector-effect="none" points="198.586,1651.41 187.272,1662.73 "/>
<n1:polyline fill="none" vector-effect="none" points="198.586,1648.59 187.272,1637.27 "/>
<n1:polyline fill="none" vector-effect="none" points="201.414,1648.59 212.728,1637.27 "/>
</n1:g>

<n1:g fill="#ffffff" fill-opacity="1" stroke="none" transform="matrix(1,0,0,1,-120,30)" font-family="Sans" font-size="125" font-weight="400" font-style="normal">
<n1:circle cx="800" cy="1550" r="20"/>
</n1:g>

<n1:g fill="#ffffff" fill-opacity="1" stroke="none" transform="matrix(1,0,0,1,-120,30)" font-family="Sans" font-size="125" font-weight="400" font-style="normal">
<n1:circle cx="200" cy="1550" r="20"/>
</n1:g>

<n1:g fill="#ffffff" fill-opacity="1" stroke="#f0f000" stroke-opacity="1" stroke-width="10" stroke-linecap="round" stroke-linejoin="bevel" transform="matrix(1,0,0,1,-120,30)" font-family="Sans" font-size="125" font-weight="400" font-style="normal">
<n1:polyline fill="none" vector-effect="none" points="150,0 850,0 "/>
<n1:polyline fill="none" vector-effect="none" points="850,0 850,1700 "/>
<n1:polyline fill="none" vector-effect="none" points="850,1700 150,1700 "/>
<n1:polyline fill="none" vector-effect="none" points="150,1700 150,0 "/>
<n1:polyline fill="none" vector-effect="none" points="600,0 600,200 "/>
<n1:polyline fill="none" vector-effect="none" points="600,200 400,200 "/>
<n1:polyline fill="none" vector-effect="none" points="400,200 400,0 "/>
</n1:g>

<n1:g fill="#ffffff" fill-opacity="1" stroke="#f0f000" stroke-opacity="1" stroke-width="3" stroke-linecap="round" stroke-linejoin="round" transform="matrix(0,2.5,2.5,0,379.984,580.02)" font-family="Sans" font-size="125" font-weight="400" font-style="normal">
<n1:polyline fill="none" vector-effect="none" points="0,-10 0,2 4,8 8,8 12,2 12,-10 "/>
<n1:polyline fill="none" vector-effect="none" points="0,-2 12,-2 "/>
</n1:g>

<n1:g fill="#ffffff" fill-opacity="1" stroke="#f0f000" stroke-opacity="1" stroke-width="3" stroke-linecap="round" stroke-linejoin="round" transform="matrix(0,2.5,2.5,0,379.984,625.02)" font-family="Sans" font-size="125" font-weight="400" font-style="normal">
<n1:polyline fill="none" vector-effect="none" points="0,-10 0,1 "/>
<n1:polyline fill="none" vector-effect="none" points="0,-2 6,1 12,-2 "/>
</n1:g>

<n1:g fill="#ffffff" fill-opacity="1" stroke="#f0f000" stroke-opacity="1" stroke-width="3" stroke-linecap="round" stroke-linejoin="round" transform="matrix(0,2.5,2.5,0,379.984,670.02)" font-family="Sans" font-size="125" font-weight="400" font-style="normal">
<n1:polyline fill="none" vector-effect="none" points="12,-8 6,-10 0,-8 0,-1 6,1 12,-1 "/>
<n1:polyline fill="none" vector-effect="none" points="12,8 12,-10 "/>
</n1:g>

<n1:g fill="#ffffff" fill-opacity="1" stroke="#f0f000" stroke-opacity="1" stroke-width="3" stroke-linecap="round" stroke-linejoin="round" transform="matrix(0,2.5,2.5,0,379.984,715.02)" font-family="Sans" font-size="125" font-weight="400" font-style="normal">
<n1:polyline fill="none" vector-effect="none" points="0,1 0,-8 6,-10 12,-8 12,1 "/>
</n1:g>

<n1:g fill="#ffffff" fill-opacity="1" stroke="#f0f000" stroke-opacity="1" stroke-width="3" stroke-linecap="round" stroke-linejoin="round" transform="matrix(0,2.5,2.5,0,379.984,760.02)" font-family="Sans" font-size="125" font-weight="400" font-style="normal">
<n1:polyline fill="none" vector-effect="none" points="7,-10 7,1 4,1 "/>
</n1:g>

<n1:g fill="#f0f000" fill-opacity="1" stroke="none" transform="matrix(0,2.5,2.5,0,379.984,760.02)" font-family="Sans" font-size="125" font-weight="400" font-style="normal">
<n1:circle cx="7" cy="8" r="1.5"/>
</n1:g>

<n1:g fill="#ffffff" fill-opacity="1" stroke="#f0f000" stroke-opacity="1" stroke-width="3" stroke-linecap="round" stroke-linejoin="round" transform="matrix(0,2.5,2.5,0,379.984,760.02)" font-family="Sans" font-size="125" font-weight="400" font-style="normal">
</n1:g>

<n1:g fill="#ffffff" fill-opacity="1" stroke="#f0f000" stroke-opacity="1" stroke-width="3" stroke-linecap="round" stroke-linejoin="round" transform="matrix(0,2.5,2.5,0,379.984,805.02)" font-family="Sans" font-size="125" font-weight="400" font-style="normal">
<n1:polyline fill="none" vector-effect="none" points="0,-10 0,1 "/>
<n1:polyline fill="none" vector-effect="none" points="0,-2 6,1 12,-2 12,-10 "/>
</n1:g>

<n1:g fill="#ffffff" fill-opacity="1" stroke="#f0f000" stroke-opacity="1" stroke-width="3" stroke-linecap="round" stroke-linejoin="round" transform="matrix(0,2.5,2.5,0,379.984,850.02)" font-family="Sans" font-size="125" font-weight="400" font-style="normal">
<n1:polyline fill="none" vector-effect="none" points="6,-10 0,-8 0,-1 6,1 12,-1 12,-8 6,-10 "/>
</n1:g>

<n1:g fill="#ffffff" fill-opacity="1" stroke="#f0f000" stroke-opacity="1" stroke-width="3" stroke-linecap="round" stroke-linejoin="round" transform="matrix(0,2.5,2.5,0,379.984,940.02)" font-family="Sans" font-size="125" font-weight="400" font-style="normal">
<n1:polyline fill="none" vector-effect="none" points="0,-10 0,8 12,-10 12,8 "/>
</n1:g>

<n1:g fill="#ffffff" fill-opacity="1" stroke="#f0f000" stroke-opacity="1" stroke-width="3" stroke-linecap="round" stroke-linejoin="round" transform="matrix(0,2.5,2.5,0,379.984,985.02)" font-family="Sans" font-size="125" font-weight="400" font-style="normal">
<n1:polyline fill="none" vector-effect="none" points="0,0 5,2 11,0 11,-8 8,-10 4,-10 0,-8 0,-5 11,-4 "/>
<n1:polyline fill="none" vector-effect="none" points="11,-8 13,-10 "/>
</n1:g>

<n1:g fill="#ffffff" fill-opacity="1" stroke="#f0f000" stroke-opacity="1" stroke-width="3" stroke-linecap="round" stroke-linejoin="round" transform="matrix(0,2.5,2.5,0,379.984,1030.02)" font-family="Sans" font-size="125" font-weight="400" font-style="normal">
<n1:polyline fill="none" vector-effect="none" points="0,-10 0,1 "/>
<n1:polyline fill="none" vector-effect="none" points="0,-2 6,1 12,-2 12,-10 "/>
</n1:g>

<n1:g fill="#ffffff" fill-opacity="1" stroke="#f0f000" stroke-opacity="1" stroke-width="3" stroke-linecap="round" stroke-linejoin="round" transform="matrix(0,2.5,2.5,0,379.984,1075.02)" font-family="Sans" font-size="125" font-weight="400" font-style="normal">
<n1:polyline fill="none" vector-effect="none" points="6,-10 0,-8 0,-1 6,1 12,-1 12,-8 6,-10 "/>
</n1:g>

<n1:g fill="#ffffff" fill-opacity="1" stroke="#f0f000" stroke-opacity="1" stroke-width="10" stroke-linecap="round" stroke-linejoin="bevel" transform="matrix(1,0,0,1,-120,30)" font-family="Sans" font-size="125" font-weight="400" font-style="normal">
</n1:g>
</n1:g>
</svg>
