<?xml version="1.0" encoding="UTF-8"?>
<svg width="23.622mm" height="53.594mm" viewBox="0 0 930 2110" version="1.2" baseProfile="tiny" xmlns:n1="http://www.w3.org/2000/svg" xmlns:xlink="http://www.w3.org/1999/xlink" xmlns:cpcb="http://www.danielwagenaar.net/cpcb-ns.html">
  <cpcb:part pkg="Raspberry-Pi-Pico" xmlns="http://www.danielwagenaar.net/cpcb-ns.html">
    <group ref="U?" pkg="Raspberry-Pi-Pico">
      <pad p="127000 152400" w="20320" h="10160" l="2" ref="6"/>
      <pad p="127000 177800" w="20320" h="10160" l="2" ref="7"/>
      <pad p="127000 203200" w="20320" h="10160" l="2" ref="8"/>
      <pad p="127000 228600" w="20320" h="10160" l="2" ref="9"/>
      <pad p="127000 254000" w="20320" h="10160" l="2" ref="10"/>
      <pad p="127000 279400" w="20320" h="10160" l="2" ref="11"/>
      <pad p="127000 304800" w="20320" h="10160" l="2" ref="12"/>
      <pad p="127000 330200" w="20320" h="10160" l="2" ref="13"/>
      <pad p="127000 25400" w="20320" h="10160" l="2" ref="1"/>
      <pad p="127000 50800" w="20320" h="10160" l="2" ref="2"/>
      <pad p="127000 76200" w="20320" h="10160" l="2" ref="3"/>
      <pad p="127000 101600" w="20320" h="10160" l="2" ref="4"/>
      <pad p="127000 127000" w="20320" h="10160" l="2" ref="5"/>
      <pad p="330200 381000" w="20320" h="10160" l="2" ref="26"/>
      <pad p="330200 406400" w="20320" h="10160" l="2" ref="25"/>
      <pad p="330200 431800" w="20320" h="10160" l="2" ref="24"/>
      <pad p="330200 457200" w="20320" h="10160" l="2" ref="23"/>
      <pad p="330200 482600" w="20320" h="10160" l="2" ref="22"/>
      <pad p="330200 508000" w="20320" h="10160" l="2" ref="21"/>
      <pad p="330200 152400" w="20320" h="10160" l="2" ref="35"/>
      <pad p="330200 177800" w="20320" h="10160" l="2" ref="34"/>
      <pad p="127000 355600" w="20320" h="10160" l="2" ref="14"/>
      <pad p="127000 381000" w="20320" h="10160" l="2" ref="15"/>
      <pad p="127000 406400" w="20320" h="10160" l="2" ref="16"/>
      <pad p="127000 431800" w="20320" h="10160" l="2" ref="17"/>
      <pad p="127000 457200" w="20320" h="10160" l="2" ref="18"/>
      <pad p="127000 482600" w="20320" h="10160" l="2" ref="19"/>
      <pad p="127000 508000" w="20320" h="10160" l="2" ref="20"/>
      <pad p="330200 355600" w="20320" h="10160" l="2" ref="27"/>
      <pad p="330200 76200" w="20320" h="10160" l="2" ref="38"/>
      <pad p="330200 101600" w="20320" h="10160" l="2" ref="37"/>
      <pad p="330200 127000" w="20320" h="10160" l="2" ref="36"/>
      <trace p1="133350 6350" p2="133350 527050" w="2540" l="1"/>
      <trace p1="133350 527050" p2="323850 527050" w="2540" l="1"/>
      <trace p1="323850 527050" p2="323850 6350" w="2540" l="1"/>
      <trace p1="323850 6350" p2="133350 6350" w="2540" l="1"/>
      <pad p="330200 203200" w="20320" h="10160" l="2" ref="33"/>
      <pad p="330200 228600" w="20320" h="10160" l="2" ref="32"/>
      <pad p="330200 254000" w="20320" h="10160" l="2" ref="31"/>
      <pad p="330200 279400" w="20320" h="10160" l="2" ref="30"/>
      <pad p="330200 304800" w="20320" h="10160" l="2" ref="29"/>
      <pad p="330200 330200" w="20320" h="10160" l="2" ref="28"/>
      <pad p="330200 25400" w="20320" h="10160" l="2" ref="40"/>
      <pad p="330200 50800" w="20320" h="10160" l="2" ref="39"/>
    </group>
    <text p="116840 -7620" fs="12700" l="1" rot="0" text="U?"/>
  </cpcb:part>
<n1:title>PCB Component</n1:title>
<n1:desc>Generated by CPCB</n1:desc>
<n1:defs>
</n1:defs>
<n1:g fill="none" stroke="black" stroke-width="1" fill-rule="evenodd" stroke-linecap="square" stroke-linejoin="bevel">

<n1:g fill="#000000" fill-opacity="1" stroke="none" transform="matrix(1,0,0,1,-435,5)" font-family="Sans" font-size="152.778" font-weight="400" font-style="normal">
<n1:rect x="435" y="-5" width="930" height="2110"/>
</n1:g>

<n1:g fill="#ff0000" fill-opacity="1" stroke="none" transform="matrix(1,0,0,1,-435,5)" font-family="Sans" font-size="152.778" font-weight="400" font-style="normal">
<n1:rect x="460" y="580" width="80" height="40"/>
</n1:g>

<n1:g fill="#ff0000" fill-opacity="1" stroke="none" transform="matrix(1,0,0,1,-435,5)" font-family="Sans" font-size="152.778" font-weight="400" font-style="normal">
<n1:rect x="460" y="680" width="80" height="40"/>
</n1:g>

<n1:g fill="#ff0000" fill-opacity="1" stroke="none" transform="matrix(1,0,0,1,-435,5)" font-family="Sans" font-size="152.778" font-weight="400" font-style="normal">
<n1:rect x="460" y="780" width="80" height="40"/>
</n1:g>

<n1:g fill="#ff0000" fill-opacity="1" stroke="none" transform="matrix(1,0,0,1,-435,5)" font-family="Sans" font-size="152.778" font-weight="400" font-style="normal">
<n1:rect x="460" y="880" width="80" height="40"/>
</n1:g>

<n1:g fill="#ff0000" fill-opacity="1" stroke="none" transform="matrix(1,0,0,1,-435,5)" font-family="Sans" font-size="152.778" font-weight="400" font-style="normal">
<n1:rect x="460" y="980" width="80" height="40"/>
</n1:g>

<n1:g fill="#ff0000" fill-opacity="1" stroke="none" transform="matrix(1,0,0,1,-435,5)" font-family="Sans" font-size="152.778" font-weight="400" font-style="normal">
<n1:rect x="460" y="1080" width="80" height="40"/>
</n1:g>

<n1:g fill="#ff0000" fill-opacity="1" stroke="none" transform="matrix(1,0,0,1,-435,5)" font-family="Sans" font-size="152.778" font-weight="400" font-style="normal">
<n1:rect x="460" y="1180" width="80" height="40"/>
</n1:g>

<n1:g fill="#ff0000" fill-opacity="1" stroke="none" transform="matrix(1,0,0,1,-435,5)" font-family="Sans" font-size="152.778" font-weight="400" font-style="normal">
<n1:rect x="460" y="1280" width="80" height="40"/>
</n1:g>

<n1:g fill="#ff0000" fill-opacity="1" stroke="none" transform="matrix(1,0,0,1,-435,5)" font-family="Sans" font-size="152.778" font-weight="400" font-style="normal">
<n1:rect x="460" y="80" width="80" height="40"/>
</n1:g>

<n1:g fill="#ff0000" fill-opacity="1" stroke="none" transform="matrix(1,0,0,1,-435,5)" font-family="Sans" font-size="152.778" font-weight="400" font-style="normal">
<n1:rect x="460" y="180" width="80" height="40"/>
</n1:g>

<n1:g fill="#ff0000" fill-opacity="1" stroke="none" transform="matrix(1,0,0,1,-435,5)" font-family="Sans" font-size="152.778" font-weight="400" font-style="normal">
<n1:rect x="460" y="280" width="80" height="40"/>
</n1:g>

<n1:g fill="#ff0000" fill-opacity="1" stroke="none" transform="matrix(1,0,0,1,-435,5)" font-family="Sans" font-size="152.778" font-weight="400" font-style="normal">
<n1:rect x="460" y="380" width="80" height="40"/>
</n1:g>

<n1:g fill="#ff0000" fill-opacity="1" stroke="none" transform="matrix(1,0,0,1,-435,5)" font-family="Sans" font-size="152.778" font-weight="400" font-style="normal">
<n1:rect x="460" y="480" width="80" height="40"/>
</n1:g>

<n1:g fill="#ff0000" fill-opacity="1" stroke="none" transform="matrix(1,0,0,1,-435,5)" font-family="Sans" font-size="152.778" font-weight="400" font-style="normal">
<n1:rect x="1260" y="1480" width="80" height="40"/>
</n1:g>

<n1:g fill="#ff0000" fill-opacity="1" stroke="none" transform="matrix(1,0,0,1,-435,5)" font-family="Sans" font-size="152.778" font-weight="400" font-style="normal">
<n1:rect x="1260" y="1580" width="80" height="40"/>
</n1:g>

<n1:g fill="#ff0000" fill-opacity="1" stroke="none" transform="matrix(1,0,0,1,-435,5)" font-family="Sans" font-size="152.778" font-weight="400" font-style="normal">
<n1:rect x="1260" y="1680" width="80" height="40"/>
</n1:g>

<n1:g fill="#ff0000" fill-opacity="1" stroke="none" transform="matrix(1,0,0,1,-435,5)" font-family="Sans" font-size="152.778" font-weight="400" font-style="normal">
<n1:rect x="1260" y="1780" width="80" height="40"/>
</n1:g>

<n1:g fill="#ff0000" fill-opacity="1" stroke="none" transform="matrix(1,0,0,1,-435,5)" font-family="Sans" font-size="152.778" font-weight="400" font-style="normal">
<n1:rect x="1260" y="1880" width="80" height="40"/>
</n1:g>

<n1:g fill="#ff0000" fill-opacity="1" stroke="none" transform="matrix(1,0,0,1,-435,5)" font-family="Sans" font-size="152.778" font-weight="400" font-style="normal">
<n1:rect x="1260" y="1980" width="80" height="40"/>
</n1:g>

<n1:g fill="#ff0000" fill-opacity="1" stroke="none" transform="matrix(1,0,0,1,-435,5)" font-family="Sans" font-size="152.778" font-weight="400" font-style="normal">
<n1:rect x="1260" y="580" width="80" height="40"/>
</n1:g>

<n1:g fill="#ff0000" fill-opacity="1" stroke="none" transform="matrix(1,0,0,1,-435,5)" font-family="Sans" font-size="152.778" font-weight="400" font-style="normal">
<n1:rect x="1260" y="680" width="80" height="40"/>
</n1:g>

<n1:g fill="#ff0000" fill-opacity="1" stroke="none" transform="matrix(1,0,0,1,-435,5)" font-family="Sans" font-size="152.778" font-weight="400" font-style="normal">
<n1:rect x="460" y="1380" width="80" height="40"/>
</n1:g>

<n1:g fill="#ff0000" fill-opacity="1" stroke="none" transform="matrix(1,0,0,1,-435,5)" font-family="Sans" font-size="152.778" font-weight="400" font-style="normal">
<n1:rect x="460" y="1480" width="80" height="40"/>
</n1:g>

<n1:g fill="#ff0000" fill-opacity="1" stroke="none" transform="matrix(1,0,0,1,-435,5)" font-family="Sans" font-size="152.778" font-weight="400" font-style="normal">
<n1:rect x="460" y="1580" width="80" height="40"/>
</n1:g>

<n1:g fill="#ff0000" fill-opacity="1" stroke="none" transform="matrix(1,0,0,1,-435,5)" font-family="Sans" font-size="152.778" font-weight="400" font-style="normal">
<n1:rect x="460" y="1680" width="80" height="40"/>
</n1:g>

<n1:g fill="#ff0000" fill-opacity="1" stroke="none" transform="matrix(1,0,0,1,-435,5)" font-family="Sans" font-size="152.778" font-weight="400" font-style="normal">
<n1:rect x="460" y="1780" width="80" height="40"/>
</n1:g>

<n1:g fill="#ff0000" fill-opacity="1" stroke="none" transform="matrix(1,0,0,1,-435,5)" font-family="Sans" font-size="152.778" font-weight="400" font-style="normal">
<n1:rect x="460" y="1880" width="80" height="40"/>
</n1:g>

<n1:g fill="#ff0000" fill-opacity="1" stroke="none" transform="matrix(1,0,0,1,-435,5)" font-family="Sans" font-size="152.778" font-weight="400" font-style="normal">
<n1:rect x="460" y="1980" width="80" height="40"/>
</n1:g>

<n1:g fill="#ff0000" fill-opacity="1" stroke="none" transform="matrix(1,0,0,1,-435,5)" font-family="Sans" font-size="152.778" font-weight="400" font-style="normal">
<n1:rect x="1260" y="1380" width="80" height="40"/>
</n1:g>

<n1:g fill="#ff0000" fill-opacity="1" stroke="none" transform="matrix(1,0,0,1,-435,5)" font-family="Sans" font-size="152.778" font-weight="400" font-style="normal">
<n1:rect x="1260" y="280" width="80" height="40"/>
</n1:g>

<n1:g fill="#ff0000" fill-opacity="1" stroke="none" transform="matrix(1,0,0,1,-435,5)" font-family="Sans" font-size="152.778" font-weight="400" font-style="normal">
<n1:rect x="1260" y="380" width="80" height="40"/>
</n1:g>

<n1:g fill="#ff0000" fill-opacity="1" stroke="none" transform="matrix(1,0,0,1,-435,5)" font-family="Sans" font-size="152.778" font-weight="400" font-style="normal">
<n1:rect x="1260" y="480" width="80" height="40"/>
</n1:g>

<n1:g fill="#ff0000" fill-opacity="1" stroke="none" transform="matrix(1,0,0,1,-435,5)" font-family="Sans" font-size="152.778" font-weight="400" font-style="normal">
<n1:rect x="1260" y="780" width="80" height="40"/>
</n1:g>

<n1:g fill="#ff0000" fill-opacity="1" stroke="none" transform="matrix(1,0,0,1,-435,5)" font-family="Sans" font-size="152.778" font-weight="400" font-style="normal">
<n1:rect x="1260" y="880" width="80" height="40"/>
</n1:g>

<n1:g fill="#ff0000" fill-opacity="1" stroke="none" transform="matrix(1,0,0,1,-435,5)" font-family="Sans" font-size="152.778" font-weight="400" font-style="normal">
<n1:rect x="1260" y="980" width="80" height="40"/>
</n1:g>

<n1:g fill="#ff0000" fill-opacity="1" stroke="none" transform="matrix(1,0,0,1,-435,5)" font-family="Sans" font-size="152.778" font-weight="400" font-style="normal">
<n1:rect x="1260" y="1080" width="80" height="40"/>
</n1:g>

<n1:g fill="#ff0000" fill-opacity="1" stroke="none" transform="matrix(1,0,0,1,-435,5)" font-family="Sans" font-size="152.778" font-weight="400" font-style="normal">
<n1:rect x="1260" y="1180" width="80" height="40"/>
</n1:g>

<n1:g fill="#ff0000" fill-opacity="1" stroke="none" transform="matrix(1,0,0,1,-435,5)" font-family="Sans" font-size="152.778" font-weight="400" font-style="normal">
<n1:rect x="1260" y="1280" width="80" height="40"/>
</n1:g>

<n1:g fill="#ff0000" fill-opacity="1" stroke="none" transform="matrix(1,0,0,1,-435,5)" font-family="Sans" font-size="152.778" font-weight="400" font-style="normal">
<n1:rect x="1260" y="80" width="80" height="40"/>
</n1:g>

<n1:g fill="#ff0000" fill-opacity="1" stroke="none" transform="matrix(1,0,0,1,-435,5)" font-family="Sans" font-size="152.778" font-weight="400" font-style="normal">
<n1:rect x="1260" y="180" width="80" height="40"/>
</n1:g>

<n1:g fill="#ff0000" fill-opacity="1" stroke="#f0f000" stroke-opacity="1" stroke-width="10" stroke-linecap="round" stroke-linejoin="bevel" transform="matrix(1,0,0,1,-435,5)" font-family="Sans" font-size="152.778" font-weight="400" font-style="normal">
<n1:polyline fill="none" vector-effect="none" points="525,25 525,2075 "/>
<n1:polyline fill="none" vector-effect="none" points="525,2075 1275,2075 "/>
<n1:polyline fill="none" vector-effect="none" points="1275,2075 1275,25 "/>
<n1:polyline fill="none" vector-effect="none" points="1275,25 525,25 "/>
</n1:g>
</n1:g>
</svg>
