<?xml version="1.0" encoding="UTF-8"?>
<svg width="12.7mm" height="12.7mm" viewBox="0 0 500 500" version="1.2" baseProfile="tiny" xmlns:n1="http://www.w3.org/2000/svg" xmlns:xlink="http://www.w3.org/1999/xlink" xmlns:cpcb="http://www.danielwagenaar.net/cpcb-ns.html">
  <cpcb:part pkg="Diode" xmlns="http://www.danielwagenaar.net/cpcb-ns.html">
    <group ref="D?">
      <hole p="406400 330200" id="10160" od="16510" sq="0" ref="2"/>
      <hole p="406400 254000" id="10160" od="16510" sq="0" ref="1"/>
      <trace p1="393700 271018" p2="393700 273050" w="2540" l="1"/>
      <trace p1="419100 268986" p2="419100 271018" w="2540" l="1"/>
      <trace p1="419100 317500" p2="419100 266700" w="2540" l="1"/>
      <trace p1="393700 266700" p2="406400 266700" w="2540" l="1"/>
      <trace p1="406400 266700" p2="419100 266700" w="2540" l="1"/>
      <trace p1="406400 266700" p2="406400 260350" w="2540" l="1"/>
      <trace p1="393700 317500" p2="406400 317500" w="2540" l="1"/>
      <trace p1="406400 317500" p2="419100 317500" w="2540" l="1"/>
      <trace p1="406400 317500" p2="406400 323850" w="2540" l="1"/>
      <trace p1="393700 273050" p2="406400 273050" w="2540" l="1"/>
      <trace p1="406400 273050" p2="419100 273050" w="2540" l="1"/>
      <trace p1="393700 317500" p2="393700 277876" w="2540" l="1"/>
      <trace p1="393700 277876" p2="393700 266700" w="2540" l="1"/>
      <trace p1="419100 277876" p2="393700 277876" w="2540" l="1"/>
      <trace p1="419100 277876" p2="393700 277876" w="2540" l="1"/>
      <trace p1="419100 275336" p2="393700 275336" w="2540" l="1"/>
    </group>
    <text p="392430 231648" fs="12700" l="1" ori="0 0" text="D?"/>
  </cpcb:part>
<n1:title>PCB Component</n1:title>
<n1:desc>Generated by CPCB</n1:desc>
<n1:defs>
</n1:defs>
<n1:g fill="none" stroke="black" stroke-width="1" fill-rule="evenodd" stroke-linecap="square" stroke-linejoin="bevel">

<n1:g fill="#000000" fill-opacity="1" stroke="none" transform="matrix(1,0,0,1,-1350,-900)" font-family="Sans" font-size="152.778" font-weight="400" font-style="normal">
<n1:rect x="1350" y="900" width="500" height="500"/>
</n1:g>

<n1:g fill="#00b400" fill-opacity="1" stroke="none" transform="matrix(1,0,0,1,-1350,-900)" font-family="Sans" font-size="152.778" font-weight="400" font-style="normal">
<n1:circle cx="1600" cy="1300" r="32.5"/>
</n1:g>

<n1:g fill="#00b400" fill-opacity="1" stroke="none" transform="matrix(1,0,0,1,-1350,-900)" font-family="Sans" font-size="152.778" font-weight="400" font-style="normal">
<n1:circle cx="1600" cy="1000" r="32.5"/>
</n1:g>

<n1:g fill="#ff0000" fill-opacity="1" stroke="none" transform="matrix(1,0,0,1,-1350,-900)" font-family="Sans" font-size="152.778" font-weight="400" font-style="normal">
<n1:circle cx="1600" cy="1300" r="32.5"/>
</n1:g>

<n1:g fill="#ff0000" fill-opacity="1" stroke="none" transform="matrix(1,0,0,1,-1350,-900)" font-family="Sans" font-size="152.778" font-weight="400" font-style="normal">
<n1:circle cx="1600" cy="1000" r="32.5"/>
</n1:g>

<n1:g fill="#000000" fill-opacity="1" stroke="none" transform="matrix(1,0,0,1,-1350,-900)" font-family="Sans" font-size="152.778" font-weight="400" font-style="normal">
<n1:circle cx="1600" cy="1300" r="20"/>
</n1:g>

<n1:g fill="#000000" fill-opacity="1" stroke="none" transform="matrix(1,0,0,1,-1350,-900)" font-family="Sans" font-size="152.778" font-weight="400" font-style="normal">
<n1:circle cx="1600" cy="1000" r="20"/>
</n1:g>

<n1:g fill="#000000" fill-opacity="1" stroke="#f0f000" stroke-opacity="1" stroke-width="10" stroke-linecap="round" stroke-linejoin="bevel" transform="matrix(1,0,0,1,-1350,-900)" font-family="Sans" font-size="152.778" font-weight="400" font-style="normal">
<n1:polyline fill="none" vector-effect="none" points="1550,1067 1550,1075 "/>
<n1:polyline fill="none" vector-effect="none" points="1650,1059 1650,1067 "/>
<n1:polyline fill="none" vector-effect="none" points="1650,1250 1650,1050 "/>
<n1:polyline fill="none" vector-effect="none" points="1550,1050 1600,1050 "/>
<n1:polyline fill="none" vector-effect="none" points="1600,1050 1650,1050 "/>
<n1:polyline fill="none" vector-effect="none" points="1600,1050 1600,1025 "/>
<n1:polyline fill="none" vector-effect="none" points="1550,1250 1600,1250 "/>
<n1:polyline fill="none" vector-effect="none" points="1600,1250 1650,1250 "/>
<n1:polyline fill="none" vector-effect="none" points="1600,1250 1600,1275 "/>
<n1:polyline fill="none" vector-effect="none" points="1550,1075 1600,1075 "/>
<n1:polyline fill="none" vector-effect="none" points="1600,1075 1650,1075 "/>
<n1:polyline fill="none" vector-effect="none" points="1550,1250 1550,1094 "/>
<n1:polyline fill="none" vector-effect="none" points="1550,1094 1550,1050 "/>
<n1:polyline fill="none" vector-effect="none" points="1650,1094 1550,1094 "/>
<n1:polyline fill="none" vector-effect="none" points="1650,1094 1550,1094 "/>
<n1:polyline fill="none" vector-effect="none" points="1650,1084 1550,1084 "/>
</n1:g>
</n1:g>
</svg>
