<?xml version="1.0" encoding="UTF-8"?>
<svg width="12.7mm" height="12.7mm" viewBox="0 0 500 500" version="1.2" baseProfile="tiny" xmlns:n1="http://www.w3.org/2000/svg" xmlns:xlink="http://www.w3.org/1999/xlink" xmlns:cpcb="http://www.danielwagenaar.net/cpcb-ns.html">
  <cpcb:part pkg="LED-IR-T1¾" xmlns="http://www.danielwagenaar.net/cpcb-ns.html">
    <group o="0 0" ref="D?">
      <trace p1="342900 95250" p2="342900 101600" w="2540" l="1"/>
      <trace p1="349250 114300" p2="349250 139700" w="2540" l="1"/>
      <arc p="368300 127000" r="22860" lw="2540" l="1" ext="1"/>
      <hole p="355600 127000" id="8890" od="16510" sq="1" ref="A"/>
      <trace p1="342900 101600" p2="336550 101600" w="2540" l="1"/>
      <hole p="381000 127000" id="8890" od="16510" sq="0" ref="K"/>
      <trace p1="349250 101600" p2="342900 101600" w="2540" l="1"/>
      <trace p1="342900 101600" p2="342900 107950" w="2540" l="1"/>
    </group>
    <text p="394970 106680" fs="12700" l="1" ori="0 0" text="D?"/>
  </cpcb:part>
<n1:title>PCB Component</n1:title>
<n1:desc>Generated by CPCB</n1:desc>
<n1:defs>
</n1:defs>
<n1:g fill="none" stroke="black" stroke-width="1" fill-rule="evenodd" stroke-linecap="square" stroke-linejoin="bevel">

<n1:g fill="#000000" fill-opacity="1" stroke="none" transform="matrix(1,0,0,1,-1182.5,-232.5)" font-family="Sans" font-size="152.778" font-weight="400" font-style="normal">
<n1:rect x="1182.5" y="232.5" width="500" height="500"/>
</n1:g>

<n1:g fill="#00b400" fill-opacity="1" stroke="none" transform="matrix(1,0,0,1,-1182.5,-232.5)" font-family="Sans" font-size="152.778" font-weight="400" font-style="normal">
<n1:rect x="1367.5" y="467.5" width="65" height="65"/>
</n1:g>

<n1:g fill="#00b400" fill-opacity="1" stroke="none" transform="matrix(1,0,0,1,-1182.5,-232.5)" font-family="Sans" font-size="152.778" font-weight="400" font-style="normal">
<n1:circle cx="1500" cy="500" r="32.5"/>
</n1:g>

<n1:g fill="#ff0000" fill-opacity="1" stroke="none" transform="matrix(1,0,0,1,-1182.5,-232.5)" font-family="Sans" font-size="152.778" font-weight="400" font-style="normal">
<n1:rect x="1367.5" y="467.5" width="65" height="65"/>
</n1:g>

<n1:g fill="#ff0000" fill-opacity="1" stroke="none" transform="matrix(1,0,0,1,-1182.5,-232.5)" font-family="Sans" font-size="152.778" font-weight="400" font-style="normal">
<n1:circle cx="1500" cy="500" r="32.5"/>
</n1:g>

<n1:g fill="#000000" fill-opacity="1" stroke="none" transform="matrix(1,0,0,1,-1182.5,-232.5)" font-family="Sans" font-size="152.778" font-weight="400" font-style="normal">
<n1:circle cx="1400" cy="500" r="17.5"/>
</n1:g>

<n1:g fill="#000000" fill-opacity="1" stroke="none" transform="matrix(1,0,0,1,-1182.5,-232.5)" font-family="Sans" font-size="152.778" font-weight="400" font-style="normal">
<n1:circle cx="1500" cy="500" r="17.5"/>
</n1:g>

<n1:g fill="#000000" fill-opacity="1" stroke="#f0f000" stroke-opacity="1" stroke-width="10" stroke-linecap="round" stroke-linejoin="bevel" transform="matrix(1,0,0,1,-1182.5,-232.5)" font-family="Sans" font-size="152.778" font-weight="400" font-style="normal">
<n1:polyline fill="none" vector-effect="none" points="1350,375 1350,400 "/>
<n1:polyline fill="none" vector-effect="none" points="1375,450 1375,550 "/>
</n1:g>

<n1:g fill="none" stroke="#f0f000" stroke-opacity="1" stroke-width="10" stroke-linecap="round" stroke-linejoin="bevel" transform="matrix(1,0,0,1,-1182.5,-232.5)" font-family="Sans" font-size="152.778" font-weight="400" font-style="normal">
<n1:path vector-effect="none" fill-rule="evenodd" d="M1540,500 C1540,450.294 1499.71,410 1450,410 C1400.29,410 1360,450.294 1360,500 C1360,549.706 1400.29,590 1450,590 C1499.71,590 1540,549.706 1540,500 "/>
<n1:polyline fill="none" vector-effect="none" points="1350,400 1325,400 "/>
<n1:polyline fill="none" vector-effect="none" points="1375,400 1350,400 "/>
<n1:polyline fill="none" vector-effect="none" points="1350,400 1350,425 "/>
</n1:g>
</n1:g>
</svg>
