<?xml version="1.0" encoding="UTF-8"?>
<svg width="12.7mm" height="12.7mm" viewBox="0 0 500 500" version="1.2" baseProfile="tiny" xmlns:n1="http://www.w3.org/2000/svg" xmlns:xlink="http://www.w3.org/1999/xlink" xmlns:cpcb="http://www.danielwagenaar.net/cpcb-ns.html">
  <cpcb:part pkg="SOIC-8-Powerpad" xmlns="http://www.danielwagenaar.net/cpcb-ns.html">
    <group ref="U?" pkg="SOIC-8-Powerpad" nomrot="0">
      <pad p="239330 436780" w="6000" h="15500" l="2" ref="2"/>
      <pad p="226630 436780" w="6000" h="15500" l="2" ref="1"/>
      <arc p="217230 409380" r="6350" lw="2540" l="1" ang="180" rota="0"/>
      <trace p1="217230 370780" p2="217230 403080" w="2540" l="1"/>
      <trace p1="217230 449380" p2="217230 415680" w="2540" l="1"/>
      <hole p="264730 415730" id="2000" od="8890" via="1" ref="" rot="90"/>
      <trace p1="273130 449380" p2="217230 449380" w="2540" l="1"/>
      <trace p1="273130 370780" p2="273130 449380" w="2540" l="1"/>
      <trace p1="217230 370780" p2="273130 370780" w="2540" l="1"/>
      <pad p="264730 382780" w="6000" h="15500" l="2" ref="5"/>
      <pad p="239330 382780" w="6000" h="15500" l="2" ref="7"/>
      <pad p="252030 382780" w="6000" h="15500" l="2" ref="6"/>
      <pad p="226630 382780" w="6000" h="15500" l="2" ref="8"/>
      <pad p="264730 436780" w="6000" h="15500" l="2" ref="4"/>
      <pad p="252030 436780" w="6000" h="15500" l="2" ref="3"/>
      <pad p="245680 409380" w="45000" h="63500" l="3" ref=""/>
      <hole p="252030 415730" id="2000" od="8890" via="1" ref="" rot="90"/>
      <pad p="245680 409380" w="45000" h="25000" l="2" ref=""/>
      <hole p="226630 415730" id="2000" od="8890" via="1" ref="" rot="90"/>
      <hole p="239330 415730" id="2000" od="8890" via="1" ref="" rot="90"/>
      <hole p="252030 403030" id="2000" od="8890" via="1" ref="" rot="90"/>
      <hole p="264730 403030" id="2000" od="8890" via="1" ref="" rot="90"/>
      <hole p="226630 403030" id="2000" od="8890" via="1" ref="" rot="90"/>
      <hole p="239330 403030" id="2000" od="8890" via="1" ref="" rot="90"/>
    </group>
    <text p="285513 390783" fs="12700" l="1" rot="0" text="U?"/>
  </cpcb:part>
<n1:title>PCB Component</n1:title>
<n1:desc>Generated by CPCB</n1:desc>
<n1:defs>
<n1:mask id="patternmask4" x="0" y="0" width="8" height="8" stroke="none" fill="#ffffff" patternUnits="userSpaceOnUse">
<n1:rect x="0" y="0" width="1" height="1"/>
<n1:rect x="2" y="0" width="1" height="1"/>
<n1:rect x="4" y="0" width="1" height="1"/>
<n1:rect x="6" y="0" width="1" height="1"/>
<n1:rect x="0" y="1" width="2" height="1"/>
<n1:rect x="3" y="1" width="3" height="1"/>
<n1:rect x="7" y="1" width="1" height="1"/>
<n1:rect x="0" y="2" width="1" height="1"/>
<n1:rect x="2" y="2" width="1" height="1"/>
<n1:rect x="4" y="2" width="1" height="1"/>
<n1:rect x="6" y="2" width="1" height="1"/>
<n1:rect x="1" y="3" width="3" height="1"/>
<n1:rect x="5" y="3" width="3" height="1"/>
<n1:rect x="0" y="4" width="1" height="1"/>
<n1:rect x="2" y="4" width="1" height="1"/>
<n1:rect x="4" y="4" width="1" height="1"/>
<n1:rect x="6" y="4" width="1" height="1"/>
<n1:rect x="0" y="5" width="2" height="1"/>
<n1:rect x="3" y="5" width="3" height="1"/>
<n1:rect x="7" y="5" width="1" height="1"/>
<n1:rect x="0" y="6" width="1" height="1"/>
<n1:rect x="2" y="6" width="1" height="1"/>
<n1:rect x="4" y="6" width="1" height="1"/>
<n1:rect x="6" y="6" width="1" height="1"/>
<n1:rect x="1" y="7" width="3" height="1"/>
<n1:rect x="5" y="7" width="3" height="1"/>
</n1:mask>

<n1:pattern id="fillpattern4_00b400" x="0" y="0" width="8" height="8" patternUnits="userSpaceOnUse">
<n1:rect x="0" y="0" width="8" height="8" stroke="none" fill="#00b400" mask="url(#patternmask4)"/>
</n1:pattern>

<n1:mask id="patternmask6" x="0" y="0" width="8" height="8" stroke="none" fill="#ffffff" patternUnits="userSpaceOnUse">
<n1:rect x="1" y="0" width="1" height="1"/>
<n1:rect x="3" y="0" width="1" height="1"/>
<n1:rect x="5" y="0" width="1" height="1"/>
<n1:rect x="7" y="0" width="1" height="1"/>
<n1:rect x="2" y="1" width="1" height="1"/>
<n1:rect x="6" y="1" width="1" height="1"/>
<n1:rect x="1" y="2" width="1" height="1"/>
<n1:rect x="3" y="2" width="1" height="1"/>
<n1:rect x="5" y="2" width="1" height="1"/>
<n1:rect x="7" y="2" width="1" height="1"/>
<n1:rect x="0" y="3" width="1" height="1"/>
<n1:rect x="4" y="3" width="1" height="1"/>
<n1:rect x="1" y="4" width="1" height="1"/>
<n1:rect x="3" y="4" width="1" height="1"/>
<n1:rect x="5" y="4" width="1" height="1"/>
<n1:rect x="7" y="4" width="1" height="1"/>
<n1:rect x="2" y="5" width="1" height="1"/>
<n1:rect x="6" y="5" width="1" height="1"/>
<n1:rect x="1" y="6" width="1" height="1"/>
<n1:rect x="3" y="6" width="1" height="1"/>
<n1:rect x="5" y="6" width="1" height="1"/>
<n1:rect x="7" y="6" width="1" height="1"/>
<n1:rect x="0" y="7" width="1" height="1"/>
<n1:rect x="4" y="7" width="1" height="1"/>
</n1:mask>

<n1:pattern id="fillpattern6_ff0000" x="0" y="0" width="8" height="8" patternUnits="userSpaceOnUse">
<n1:rect x="0" y="0" width="8" height="8" stroke="none" fill="#ff0000" mask="url(#patternmask6)"/>
</n1:pattern>

</n1:defs>
<n1:g fill="none" stroke="black" stroke-width="1" fill-rule="evenodd" stroke-linecap="square" stroke-linejoin="bevel">

<n1:g fill="#000000" fill-opacity="1" stroke="none" transform="matrix(1,0,0,1,-715.256,-1364.49)" font-family="Ubuntu" font-size="152.778" font-weight="400" font-style="normal">
<n1:rect x="715.256" y="1364.49" width="500" height="500"/>
</n1:g>

<n1:g fill="url(#fillpattern4_00b400)" fill-opacity="1" stroke="none" transform="matrix(1,0,0,1,-715.256,-1364.49)" font-family="Ubuntu" font-size="152.778" font-weight="400" font-style="normal">
<n1:circle cx="1042.24" cy="1636.73" r="17.5"/>
</n1:g>

<n1:g fill="#00b400" fill-opacity="1" stroke="none" transform="matrix(1,0,0,1,-715.256,-1364.49)" font-family="Ubuntu" font-size="152.778" font-weight="400" font-style="normal">
<n1:rect x="878.661" y="1486.73" width="177.165" height="250"/>
</n1:g>

<n1:g fill="url(#fillpattern4_00b400)" fill-opacity="1" stroke="none" transform="matrix(1,0,0,1,-715.256,-1364.49)" font-family="Ubuntu" font-size="152.778" font-weight="400" font-style="normal">
<n1:circle cx="992.244" cy="1636.73" r="17.5"/>
</n1:g>

<n1:g fill="url(#fillpattern4_00b400)" fill-opacity="1" stroke="none" transform="matrix(1,0,0,1,-715.256,-1364.49)" font-family="Ubuntu" font-size="152.778" font-weight="400" font-style="normal">
<n1:circle cx="892.244" cy="1636.73" r="17.5"/>
</n1:g>

<n1:g fill="url(#fillpattern4_00b400)" fill-opacity="1" stroke="none" transform="matrix(1,0,0,1,-715.256,-1364.49)" font-family="Ubuntu" font-size="152.778" font-weight="400" font-style="normal">
<n1:circle cx="942.244" cy="1636.73" r="17.5"/>
</n1:g>

<n1:g fill="url(#fillpattern4_00b400)" fill-opacity="1" stroke="none" transform="matrix(1,0,0,1,-715.256,-1364.49)" font-family="Ubuntu" font-size="152.778" font-weight="400" font-style="normal">
<n1:circle cx="992.244" cy="1586.73" r="17.5"/>
</n1:g>

<n1:g fill="url(#fillpattern4_00b400)" fill-opacity="1" stroke="none" transform="matrix(1,0,0,1,-715.256,-1364.49)" font-family="Ubuntu" font-size="152.778" font-weight="400" font-style="normal">
<n1:circle cx="1042.24" cy="1586.73" r="17.5"/>
</n1:g>

<n1:g fill="url(#fillpattern4_00b400)" fill-opacity="1" stroke="none" transform="matrix(1,0,0,1,-715.256,-1364.49)" font-family="Ubuntu" font-size="152.778" font-weight="400" font-style="normal">
<n1:circle cx="892.244" cy="1586.73" r="17.5"/>
</n1:g>

<n1:g fill="url(#fillpattern4_00b400)" fill-opacity="1" stroke="none" transform="matrix(1,0,0,1,-715.256,-1364.49)" font-family="Ubuntu" font-size="152.778" font-weight="400" font-style="normal">
<n1:circle cx="942.244" cy="1586.73" r="17.5"/>
</n1:g>

<n1:g fill="#ff0000" fill-opacity="1" stroke="none" transform="matrix(1,0,0,1,-715.256,-1364.49)" font-family="Ubuntu" font-size="152.778" font-weight="400" font-style="normal">
<n1:rect x="930.433" y="1689.09" width="23.622" height="61.0236"/>
</n1:g>

<n1:g fill="#ff0000" fill-opacity="1" stroke="none" transform="matrix(1,0,0,1,-715.256,-1364.49)" font-family="Ubuntu" font-size="152.778" font-weight="400" font-style="normal">
<n1:rect x="880.433" y="1689.09" width="23.622" height="61.0236"/>
</n1:g>

<n1:g fill="url(#fillpattern6_ff0000)" fill-opacity="1" stroke="none" transform="matrix(1,0,0,1,-715.256,-1364.49)" font-family="Ubuntu" font-size="152.778" font-weight="400" font-style="normal">
<n1:circle cx="1042.24" cy="1636.73" r="17.5"/>
</n1:g>

<n1:g fill="#ff0000" fill-opacity="1" stroke="none" transform="matrix(1,0,0,1,-715.256,-1364.49)" font-family="Ubuntu" font-size="152.778" font-weight="400" font-style="normal">
<n1:rect x="1030.43" y="1476.5" width="23.622" height="61.0236"/>
</n1:g>

<n1:g fill="#ff0000" fill-opacity="1" stroke="none" transform="matrix(1,0,0,1,-715.256,-1364.49)" font-family="Ubuntu" font-size="152.778" font-weight="400" font-style="normal">
<n1:rect x="930.433" y="1476.5" width="23.622" height="61.0236"/>
</n1:g>

<n1:g fill="#ff0000" fill-opacity="1" stroke="none" transform="matrix(1,0,0,1,-715.256,-1364.49)" font-family="Ubuntu" font-size="152.778" font-weight="400" font-style="normal">
<n1:rect x="980.433" y="1476.5" width="23.622" height="61.0236"/>
</n1:g>

<n1:g fill="#ff0000" fill-opacity="1" stroke="none" transform="matrix(1,0,0,1,-715.256,-1364.49)" font-family="Ubuntu" font-size="152.778" font-weight="400" font-style="normal">
<n1:rect x="880.433" y="1476.5" width="23.622" height="61.0236"/>
</n1:g>

<n1:g fill="#ff0000" fill-opacity="1" stroke="none" transform="matrix(1,0,0,1,-715.256,-1364.49)" font-family="Ubuntu" font-size="152.778" font-weight="400" font-style="normal">
<n1:rect x="1030.43" y="1689.09" width="23.622" height="61.0236"/>
</n1:g>

<n1:g fill="#ff0000" fill-opacity="1" stroke="none" transform="matrix(1,0,0,1,-715.256,-1364.49)" font-family="Ubuntu" font-size="152.778" font-weight="400" font-style="normal">
<n1:rect x="980.433" y="1689.09" width="23.622" height="61.0236"/>
</n1:g>

<n1:g fill="url(#fillpattern6_ff0000)" fill-opacity="1" stroke="none" transform="matrix(1,0,0,1,-715.256,-1364.49)" font-family="Ubuntu" font-size="152.778" font-weight="400" font-style="normal">
<n1:circle cx="992.244" cy="1636.73" r="17.5"/>
</n1:g>

<n1:g fill="#ff0000" fill-opacity="1" stroke="none" transform="matrix(1,0,0,1,-715.256,-1364.49)" font-family="Ubuntu" font-size="152.778" font-weight="400" font-style="normal">
<n1:rect x="878.661" y="1562.52" width="177.165" height="98.4252"/>
</n1:g>

<n1:g fill="url(#fillpattern6_ff0000)" fill-opacity="1" stroke="none" transform="matrix(1,0,0,1,-715.256,-1364.49)" font-family="Ubuntu" font-size="152.778" font-weight="400" font-style="normal">
<n1:circle cx="892.244" cy="1636.73" r="17.5"/>
</n1:g>

<n1:g fill="url(#fillpattern6_ff0000)" fill-opacity="1" stroke="none" transform="matrix(1,0,0,1,-715.256,-1364.49)" font-family="Ubuntu" font-size="152.778" font-weight="400" font-style="normal">
<n1:circle cx="942.244" cy="1636.73" r="17.5"/>
</n1:g>

<n1:g fill="url(#fillpattern6_ff0000)" fill-opacity="1" stroke="none" transform="matrix(1,0,0,1,-715.256,-1364.49)" font-family="Ubuntu" font-size="152.778" font-weight="400" font-style="normal">
<n1:circle cx="992.244" cy="1586.73" r="17.5"/>
</n1:g>

<n1:g fill="url(#fillpattern6_ff0000)" fill-opacity="1" stroke="none" transform="matrix(1,0,0,1,-715.256,-1364.49)" font-family="Ubuntu" font-size="152.778" font-weight="400" font-style="normal">
<n1:circle cx="1042.24" cy="1586.73" r="17.5"/>
</n1:g>

<n1:g fill="url(#fillpattern6_ff0000)" fill-opacity="1" stroke="none" transform="matrix(1,0,0,1,-715.256,-1364.49)" font-family="Ubuntu" font-size="152.778" font-weight="400" font-style="normal">
<n1:circle cx="892.244" cy="1586.73" r="17.5"/>
</n1:g>

<n1:g fill="url(#fillpattern6_ff0000)" fill-opacity="1" stroke="none" transform="matrix(1,0,0,1,-715.256,-1364.49)" font-family="Ubuntu" font-size="152.778" font-weight="400" font-style="normal">
<n1:circle cx="942.244" cy="1586.73" r="17.5"/>
</n1:g>

<n1:g fill="#ffffff" fill-opacity="1" stroke="none" transform="matrix(1,0,0,1,-715.256,-1364.49)" font-family="Ubuntu" font-size="152.778" font-weight="400" font-style="normal">
<n1:circle cx="1042.24" cy="1636.73" r="3.93701"/>
</n1:g>

<n1:g fill="#ffffff" fill-opacity="1" stroke="none" transform="matrix(1,0,0,1,-715.256,-1364.49)" font-family="Ubuntu" font-size="152.778" font-weight="400" font-style="normal">
<n1:circle cx="992.244" cy="1636.73" r="3.93701"/>
</n1:g>

<n1:g fill="#ffffff" fill-opacity="1" stroke="none" transform="matrix(1,0,0,1,-715.256,-1364.49)" font-family="Ubuntu" font-size="152.778" font-weight="400" font-style="normal">
<n1:circle cx="892.244" cy="1636.73" r="3.93701"/>
</n1:g>

<n1:g fill="#ffffff" fill-opacity="1" stroke="none" transform="matrix(1,0,0,1,-715.256,-1364.49)" font-family="Ubuntu" font-size="152.778" font-weight="400" font-style="normal">
<n1:circle cx="942.244" cy="1636.73" r="3.93701"/>
</n1:g>

<n1:g fill="#ffffff" fill-opacity="1" stroke="none" transform="matrix(1,0,0,1,-715.256,-1364.49)" font-family="Ubuntu" font-size="152.778" font-weight="400" font-style="normal">
<n1:circle cx="992.244" cy="1586.73" r="3.93701"/>
</n1:g>

<n1:g fill="#ffffff" fill-opacity="1" stroke="none" transform="matrix(1,0,0,1,-715.256,-1364.49)" font-family="Ubuntu" font-size="152.778" font-weight="400" font-style="normal">
<n1:circle cx="1042.24" cy="1586.73" r="3.93701"/>
</n1:g>

<n1:g fill="#ffffff" fill-opacity="1" stroke="none" transform="matrix(1,0,0,1,-715.256,-1364.49)" font-family="Ubuntu" font-size="152.778" font-weight="400" font-style="normal">
<n1:circle cx="892.244" cy="1586.73" r="3.93701"/>
</n1:g>

<n1:g fill="#ffffff" fill-opacity="1" stroke="none" transform="matrix(1,0,0,1,-715.256,-1364.49)" font-family="Ubuntu" font-size="152.778" font-weight="400" font-style="normal">
<n1:circle cx="942.244" cy="1586.73" r="3.93701"/>
</n1:g>

<n1:g fill="none" stroke="#f0f000" stroke-opacity="1" stroke-width="10" stroke-linecap="round" stroke-linejoin="bevel" transform="matrix(1,0,0,1,-715.256,-1364.49)" font-family="Ubuntu" font-size="152.778" font-weight="400" font-style="normal">
<n1:path vector-effect="none" fill-rule="evenodd" d="M855.236,1636.73 C869.043,1636.73 880.236,1625.54 880.236,1611.73 C880.236,1597.93 869.043,1586.73 855.236,1586.73 "/>
<n1:polyline fill="none" vector-effect="none" points="855.236,1459.76 855.236,1586.93 "/>
<n1:polyline fill="none" vector-effect="none" points="855.236,1769.21 855.236,1636.54 "/>
<n1:polyline fill="none" vector-effect="none" points="1075.31,1769.21 855.236,1769.21 "/>
<n1:polyline fill="none" vector-effect="none" points="1075.31,1459.76 1075.31,1769.21 "/>
<n1:polyline fill="none" vector-effect="none" points="855.236,1459.76 1075.31,1459.76 "/>
</n1:g>
</n1:g>
</svg>
