<?xml version="1.0" encoding="UTF-8"?>
<svg width="126.238mm" height="198.145mm" viewBox="0 0 497 780.118" version="1.2" baseProfile="tiny" xmlns:n1="http://www.w3.org/2000/svg" xmlns:xlink="http://www.w3.org/1999/xlink" xmlns:cpcb="http://www.danielwagenaar.net/cpcb-ns.html">
  <cpcb:part pkg="SOIC-28W" xmlns="http://www.danielwagenaar.net/cpcb-ns.html">
    <group ref="U?" pkg="SOIC-28W" nomrot="-90">
      <pad p="614426 203200" w="19812" h="6000" l="2" ref="24"/>
      <pad p="614426 165100" w="19812" h="6000" l="2" ref="27"/>
      <pad p="614426 190500" w="19812" h="6000" l="2" ref="25"/>
      <pad p="614426 152400" w="19812" h="6000" l="2" ref="28"/>
      <pad p="614426 215900" w="19812" h="6000" l="2" ref="23"/>
      <pad p="614426 177800" w="19812" h="6000" l="2" ref="26"/>
      <pad p="520700 228600" w="19812" h="6000" l="2" ref="7"/>
      <pad p="614426 228600" w="19812" h="6000" l="2" ref="22"/>
      <pad p="520700 203200" w="19812" h="6000" l="2" ref="5"/>
      <pad p="520700 215900" w="19812" h="6000" l="2" ref="6"/>
      <pad p="520700 177800" w="19812" h="6000" l="2" ref="3"/>
      <pad p="520700 190500" w="19812" h="6000" l="2" ref="4"/>
      <pad p="520700 152400" w="19812" h="6000" l="2" ref="1"/>
      <pad p="520700 165100" w="19812" h="6000" l="2" ref="2"/>
      <trace p1="605282 143000" p2="573532 143000" w="2540" l="1"/>
      <arc p="567150 143000" r="6350" lw="2540" l="1" ang="180" rota="90"/>
      <trace p1="529590 325900" p2="529590 143000" w="2540" l="1"/>
      <trace p1="529590 143000" p2="560832 143000" w="2540" l="1"/>
      <trace p1="605282 143000" p2="605282 325900" w="2540" l="1"/>
      <trace p1="605282 325900" p2="529590 325900" w="2540" l="1"/>
      <pad p="520700 317500" w="19812" h="6000" l="2" ref="14"/>
      <pad p="520700 254000" w="19812" h="6000" l="2" ref="9"/>
      <pad p="520700 266700" w="19812" h="6000" l="2" ref="10"/>
      <pad p="520700 241300" w="19812" h="6000" l="2" ref="8"/>
      <pad p="520700 304800" w="19812" h="6000" l="2" ref="13"/>
      <pad p="520700 292100" w="19812" h="6000" l="2" ref="12"/>
      <pad p="520700 279400" w="19812" h="6000" l="2" ref="11"/>
      <pad p="614426 241300" w="19812" h="6000" l="2" ref="21"/>
      <pad p="614426 304800" w="19812" h="6000" l="2" ref="16"/>
      <pad p="614426 292100" w="19812" h="6000" l="2" ref="17"/>
      <pad p="614426 317500" w="19812" h="6000" l="2" ref="15"/>
      <pad p="614426 254000" w="19812" h="6000" l="2" ref="20"/>
      <pad p="614426 266700" w="19812" h="6000" l="2" ref="19"/>
      <pad p="614426 279400" w="19812" h="6000" l="2" ref="18"/>
    </group>
    <text p="584913 134293" fs="12700" l="1" rot="0" text="U?"/>
  </cpcb:part>
<n1:title>PCB Component</n1:title>
<n1:desc>Generated by CPCB</n1:desc>
<n1:defs>
</n1:defs>
<n1:g fill="none" stroke="black" stroke-width="1" fill-rule="evenodd" stroke-linecap="square" stroke-linejoin="bevel">

<n1:g fill="#000000" fill-opacity="1" stroke="none" transform="matrix(1,0,0,1,-1986,-532.953)" font-family="Noto Sans" font-size="152.778" font-weight="400" font-style="normal">
<n1:rect x="1986" y="532.953" width="497" height="780.118"/>
</n1:g>

<n1:g fill="#ff0000" fill-opacity="1" stroke="none" transform="matrix(1,0,0,1,-1986,-532.953)" font-family="Noto Sans" font-size="152.778" font-weight="400" font-style="normal">
<n1:rect x="2380" y="788.189" width="78" height="23.622"/>
</n1:g>

<n1:g fill="#ff0000" fill-opacity="1" stroke="none" transform="matrix(1,0,0,1,-1986,-532.953)" font-family="Noto Sans" font-size="152.778" font-weight="400" font-style="normal">
<n1:rect x="2380" y="638.189" width="78" height="23.622"/>
</n1:g>

<n1:g fill="#ff0000" fill-opacity="1" stroke="none" transform="matrix(1,0,0,1,-1986,-532.953)" font-family="Noto Sans" font-size="152.778" font-weight="400" font-style="normal">
<n1:rect x="2380" y="738.189" width="78" height="23.622"/>
</n1:g>

<n1:g fill="#ff0000" fill-opacity="1" stroke="none" transform="matrix(1,0,0,1,-1986,-532.953)" font-family="Noto Sans" font-size="152.778" font-weight="400" font-style="normal">
<n1:rect x="2380" y="588.189" width="78" height="23.622"/>
</n1:g>

<n1:g fill="#ff0000" fill-opacity="1" stroke="none" transform="matrix(1,0,0,1,-1986,-532.953)" font-family="Noto Sans" font-size="152.778" font-weight="400" font-style="normal">
<n1:rect x="2380" y="838.189" width="78" height="23.622"/>
</n1:g>

<n1:g fill="#ff0000" fill-opacity="1" stroke="none" transform="matrix(1,0,0,1,-1986,-532.953)" font-family="Noto Sans" font-size="152.778" font-weight="400" font-style="normal">
<n1:rect x="2380" y="688.189" width="78" height="23.622"/>
</n1:g>

<n1:g fill="#ff0000" fill-opacity="1" stroke="none" transform="matrix(1,0,0,1,-1986,-532.953)" font-family="Noto Sans" font-size="152.778" font-weight="400" font-style="normal">
<n1:rect x="2011" y="888.189" width="78" height="23.622"/>
</n1:g>

<n1:g fill="#ff0000" fill-opacity="1" stroke="none" transform="matrix(1,0,0,1,-1986,-532.953)" font-family="Noto Sans" font-size="152.778" font-weight="400" font-style="normal">
<n1:rect x="2380" y="888.189" width="78" height="23.622"/>
</n1:g>

<n1:g fill="#ff0000" fill-opacity="1" stroke="none" transform="matrix(1,0,0,1,-1986,-532.953)" font-family="Noto Sans" font-size="152.778" font-weight="400" font-style="normal">
<n1:rect x="2011" y="788.189" width="78" height="23.622"/>
</n1:g>

<n1:g fill="#ff0000" fill-opacity="1" stroke="none" transform="matrix(1,0,0,1,-1986,-532.953)" font-family="Noto Sans" font-size="152.778" font-weight="400" font-style="normal">
<n1:rect x="2011" y="838.189" width="78" height="23.622"/>
</n1:g>

<n1:g fill="#ff0000" fill-opacity="1" stroke="none" transform="matrix(1,0,0,1,-1986,-532.953)" font-family="Noto Sans" font-size="152.778" font-weight="400" font-style="normal">
<n1:rect x="2011" y="688.189" width="78" height="23.622"/>
</n1:g>

<n1:g fill="#ff0000" fill-opacity="1" stroke="none" transform="matrix(1,0,0,1,-1986,-532.953)" font-family="Noto Sans" font-size="152.778" font-weight="400" font-style="normal">
<n1:rect x="2011" y="738.189" width="78" height="23.622"/>
</n1:g>

<n1:g fill="#ff0000" fill-opacity="1" stroke="none" transform="matrix(1,0,0,1,-1986,-532.953)" font-family="Noto Sans" font-size="152.778" font-weight="400" font-style="normal">
<n1:rect x="2011" y="588.189" width="78" height="23.622"/>
</n1:g>

<n1:g fill="#ff0000" fill-opacity="1" stroke="none" transform="matrix(1,0,0,1,-1986,-532.953)" font-family="Noto Sans" font-size="152.778" font-weight="400" font-style="normal">
<n1:rect x="2011" y="638.189" width="78" height="23.622"/>
</n1:g>

<n1:g fill="#ff0000" fill-opacity="1" stroke="none" transform="matrix(1,0,0,1,-1986,-532.953)" font-family="Noto Sans" font-size="152.778" font-weight="400" font-style="normal">
<n1:rect x="2011" y="1238.19" width="78" height="23.622"/>
</n1:g>

<n1:g fill="#ff0000" fill-opacity="1" stroke="none" transform="matrix(1,0,0,1,-1986,-532.953)" font-family="Noto Sans" font-size="152.778" font-weight="400" font-style="normal">
<n1:rect x="2011" y="988.189" width="78" height="23.622"/>
</n1:g>

<n1:g fill="#ff0000" fill-opacity="1" stroke="none" transform="matrix(1,0,0,1,-1986,-532.953)" font-family="Noto Sans" font-size="152.778" font-weight="400" font-style="normal">
<n1:rect x="2011" y="1038.19" width="78" height="23.622"/>
</n1:g>

<n1:g fill="#ff0000" fill-opacity="1" stroke="none" transform="matrix(1,0,0,1,-1986,-532.953)" font-family="Noto Sans" font-size="152.778" font-weight="400" font-style="normal">
<n1:rect x="2011" y="938.189" width="78" height="23.622"/>
</n1:g>

<n1:g fill="#ff0000" fill-opacity="1" stroke="none" transform="matrix(1,0,0,1,-1986,-532.953)" font-family="Noto Sans" font-size="152.778" font-weight="400" font-style="normal">
<n1:rect x="2011" y="1188.19" width="78" height="23.622"/>
</n1:g>

<n1:g fill="#ff0000" fill-opacity="1" stroke="none" transform="matrix(1,0,0,1,-1986,-532.953)" font-family="Noto Sans" font-size="152.778" font-weight="400" font-style="normal">
<n1:rect x="2011" y="1138.19" width="78" height="23.622"/>
</n1:g>

<n1:g fill="#ff0000" fill-opacity="1" stroke="none" transform="matrix(1,0,0,1,-1986,-532.953)" font-family="Noto Sans" font-size="152.778" font-weight="400" font-style="normal">
<n1:rect x="2011" y="1088.19" width="78" height="23.622"/>
</n1:g>

<n1:g fill="#ff0000" fill-opacity="1" stroke="none" transform="matrix(1,0,0,1,-1986,-532.953)" font-family="Noto Sans" font-size="152.778" font-weight="400" font-style="normal">
<n1:rect x="2380" y="938.189" width="78" height="23.622"/>
</n1:g>

<n1:g fill="#ff0000" fill-opacity="1" stroke="none" transform="matrix(1,0,0,1,-1986,-532.953)" font-family="Noto Sans" font-size="152.778" font-weight="400" font-style="normal">
<n1:rect x="2380" y="1188.19" width="78" height="23.622"/>
</n1:g>

<n1:g fill="#ff0000" fill-opacity="1" stroke="none" transform="matrix(1,0,0,1,-1986,-532.953)" font-family="Noto Sans" font-size="152.778" font-weight="400" font-style="normal">
<n1:rect x="2380" y="1138.19" width="78" height="23.622"/>
</n1:g>

<n1:g fill="#ff0000" fill-opacity="1" stroke="none" transform="matrix(1,0,0,1,-1986,-532.953)" font-family="Noto Sans" font-size="152.778" font-weight="400" font-style="normal">
<n1:rect x="2380" y="1238.19" width="78" height="23.622"/>
</n1:g>

<n1:g fill="#ff0000" fill-opacity="1" stroke="none" transform="matrix(1,0,0,1,-1986,-532.953)" font-family="Noto Sans" font-size="152.778" font-weight="400" font-style="normal">
<n1:rect x="2380" y="988.189" width="78" height="23.622"/>
</n1:g>

<n1:g fill="#ff0000" fill-opacity="1" stroke="none" transform="matrix(1,0,0,1,-1986,-532.953)" font-family="Noto Sans" font-size="152.778" font-weight="400" font-style="normal">
<n1:rect x="2380" y="1038.19" width="78" height="23.622"/>
</n1:g>

<n1:g fill="#ff0000" fill-opacity="1" stroke="none" transform="matrix(1,0,0,1,-1986,-532.953)" font-family="Noto Sans" font-size="152.778" font-weight="400" font-style="normal">
<n1:rect x="2380" y="1088.19" width="78" height="23.622"/>
</n1:g>

<n1:g fill="#ff0000" fill-opacity="1" stroke="#f0f000" stroke-opacity="1" stroke-width="10" stroke-linecap="round" stroke-linejoin="bevel" transform="matrix(1,0,0,1,-1986,-532.953)" font-family="Noto Sans" font-size="152.778" font-weight="400" font-style="normal">
<n1:polyline fill="none" vector-effect="none" points="2383,562.992 2258,562.992 "/>
</n1:g>

<n1:g fill="none" stroke="#f0f000" stroke-opacity="1" stroke-width="10" stroke-linecap="round" stroke-linejoin="bevel" transform="matrix(1,0,0,1,-1986,-532.953)" font-family="Noto Sans" font-size="152.778" font-weight="400" font-style="normal">
<n1:path vector-effect="none" fill-rule="evenodd" d="M2207.87,562.992 C2207.87,576.799 2219.07,587.992 2232.87,587.992 C2246.68,587.992 2257.87,576.799 2257.87,562.992 "/>
<n1:polyline fill="none" vector-effect="none" points="2085,1283.07 2085,562.992 "/>
<n1:polyline fill="none" vector-effect="none" points="2085,562.992 2208,562.992 "/>
<n1:polyline fill="none" vector-effect="none" points="2383,562.992 2383,1283.07 "/>
<n1:polyline fill="none" vector-effect="none" points="2383,1283.07 2085,1283.07 "/>
</n1:g>
</n1:g>
</svg>
