<?xml version="1.0" encoding="UTF-8"?>
<svg width="147.32mm" height="125.501mm" viewBox="0 0 580.047 494.142" version="1.2" baseProfile="tiny" xmlns:n1="http://www.w3.org/2000/svg" xmlns:xlink="http://www.w3.org/1999/xlink" xmlns:cpcb="http://www.danielwagenaar.net/cpcb-ns.html">
  <cpcb:part pkg="SOIC-20W" xmlns="http://www.danielwagenaar.net/cpcb-ns.html">
    <group ref="U9" pkg="SOIC-20W" nomrot="-540">
      <pad p="685800 131100" w="6000" h="19812" l="2" ref="16"/>
      <pad p="723900 131100" w="6000" h="19812" l="2" ref="19"/>
      <pad p="698500 131100" w="6000" h="19812" l="2" ref="17"/>
      <pad p="736600 131100" w="6000" h="19812" l="2" ref="20"/>
      <pad p="673100 131100" w="6000" h="19812" l="2" ref="15"/>
      <pad p="711200 131100" w="6000" h="19812" l="2" ref="18"/>
      <pad p="660400 38100" w="6000" h="19812" l="2" ref="7"/>
      <pad p="660400 131100" w="6000" h="19812" l="2" ref="14"/>
      <pad p="685800 38100" w="6000" h="19812" l="2" ref="5"/>
      <pad p="673100 38100" w="6000" h="19812" l="2" ref="6"/>
      <pad p="711200 38100" w="6000" h="19812" l="2" ref="3"/>
      <pad p="698500 38100" w="6000" h="19812" l="2" ref="4"/>
      <pad p="736600 38100" w="6000" h="19812" l="2" ref="1"/>
      <pad p="723900 38100" w="6000" h="19812" l="2" ref="2"/>
      <trace p1="746000 122682" p2="746000 90932" w="2540" l="1"/>
      <arc p="746000 84550" r="6350" lw="2540" l="1" ang="180" rota="180"/>
      <trace p1="613918 46990" p2="746000 46990" w="2540" l="1"/>
      <trace p1="746000 46990" p2="746000 78232" w="2540" l="1"/>
      <trace p1="746000 122682" p2="613918 122682" w="2540" l="1"/>
      <trace p1="613918 122682" p2="613918 46990" w="2540" l="1"/>
      <pad p="635000 38100" w="6000" h="19812" l="2" ref="9"/>
      <pad p="622300 38100" w="6000" h="19812" l="2" ref="10"/>
      <pad p="647700 38100" w="6000" h="19812" l="2" ref="8"/>
      <pad p="647700 131100" w="6000" h="19812" l="2" ref="13"/>
      <pad p="635000 131100" w="6000" h="19812" l="2" ref="12"/>
      <pad p="622300 131100" w="6000" h="19812" l="2" ref="11"/>
    </group>
    <text p="748220 81466" fs="12700" l="1" rot="0" text="U9"/>
  </cpcb:part>
<n1:title>PCB Component</n1:title>
<n1:desc>Generated by CPCB</n1:desc>
<n1:defs>
</n1:defs>
<n1:g fill="none" stroke="black" stroke-width="1" fill-rule="evenodd" stroke-linecap="square" stroke-linejoin="bevel">

<n1:g fill="#000000" fill-opacity="1" stroke="none" transform="matrix(1,0,0,1,-2387,-86)" font-family="Noto Sans" font-size="152.778" font-weight="400" font-style="normal">
<n1:rect x="2387" y="86" width="580.047" height="494.142"/>
</n1:g>

<n1:g fill="#ff0000" fill-opacity="1" stroke="none" transform="matrix(1,0,0,1,-2387,-86)" font-family="Noto Sans" font-size="152.778" font-weight="400" font-style="normal">
<n1:rect x="2688.19" y="477.142" width="23.622" height="78"/>
<n1:rect x="2838.19" y="477.142" width="23.622" height="78"/>
<n1:rect x="2738.19" y="477.142" width="23.622" height="78"/>
<n1:rect x="2888.19" y="477.142" width="23.622" height="78"/>
<n1:rect x="2638.19" y="477.142" width="23.622" height="78"/>
<n1:rect x="2788.19" y="477.142" width="23.622" height="78"/>
<n1:rect x="2588.19" y="111" width="23.622" height="78"/>
<n1:rect x="2588.19" y="477.142" width="23.622" height="78"/>
<n1:rect x="2688.19" y="111" width="23.622" height="78"/>
<n1:rect x="2638.19" y="111" width="23.622" height="78"/>
<n1:rect x="2788.19" y="111" width="23.622" height="78"/>
<n1:rect x="2738.19" y="111" width="23.622" height="78"/>
<n1:rect x="2888.19" y="111" width="23.622" height="78"/>
<n1:rect x="2838.19" y="111" width="23.622" height="78"/>
<n1:rect x="2488.19" y="111" width="23.622" height="78"/>
<n1:rect x="2438.19" y="111" width="23.622" height="78"/>
<n1:rect x="2538.19" y="111" width="23.622" height="78"/>
<n1:rect x="2538.19" y="477.142" width="23.622" height="78"/>
<n1:rect x="2488.19" y="477.142" width="23.622" height="78"/>
<n1:rect x="2438.19" y="477.142" width="23.622" height="78"/>
</n1:g>

<n1:g fill="#ff0000" fill-opacity="1" stroke="#f0f000" stroke-opacity="1" stroke-width="10" stroke-linecap="round" stroke-linejoin="bevel" transform="matrix(1,0,0,1,-2387,-86)" font-family="Noto Sans" font-size="152.778" font-weight="400" font-style="normal">
<n1:polyline fill="none" vector-effect="none" points="2937.01,483 2937.01,358 "/>
</n1:g>

<n1:g fill="none" stroke="#f0f000" stroke-opacity="1" stroke-width="10" stroke-linecap="round" stroke-linejoin="bevel" transform="matrix(1,0,0,1,-2387,-86)" font-family="Noto Sans" font-size="152.778" font-weight="400" font-style="normal">
<n1:path vector-effect="none" fill-rule="evenodd" d="M2937.01,307.874 C2923.2,307.874 2912.01,319.067 2912.01,332.874 C2912.01,346.681 2923.2,357.874 2937.01,357.874 "/>
<n1:polyline fill="none" vector-effect="none" points="2417,185 2937.01,185 "/>
<n1:polyline fill="none" vector-effect="none" points="2937.01,185 2937.01,308 "/>
<n1:polyline fill="none" vector-effect="none" points="2937.01,483 2417,483 "/>
<n1:polyline fill="none" vector-effect="none" points="2417,483 2417,185 "/>
</n1:g>
</n1:g>
</svg>
