<?xml version="1.0" encoding="UTF-8"?>
<svg width="12.7mm" height="12.7mm" viewBox="0 0 500 500" version="1.2" baseProfile="tiny" xmlns:n1="http://www.w3.org/2000/svg" xmlns:xlink="http://www.w3.org/1999/xlink" xmlns:cpcb="http://www.danielwagenaar.net/cpcb-ns.html">
  <cpcb:part pkg="SOIC-16" xmlns="http://www.danielwagenaar.net/cpcb-ns.html">
    <group ref="U?">
      <pad p="406400 288900" w="6000" h="15500" l="2" ref="10" ell="1"/>
      <pad p="368300 288900" w="6000" h="15500" l="2" ref="13" ell="1"/>
      <pad p="393700 288900" w="6000" h="15500" l="2" ref="11" ell="1"/>
      <pad p="355600 288900" w="6000" h="15500" l="2" ref="14" ell="1"/>
      <pad p="419100 288900" w="6000" h="15500" l="2" ref="9" ell="1"/>
      <pad p="381000 288900" w="6000" h="15500" l="2" ref="12" ell="1"/>
      <pad p="406400 342900" w="6000" h="15500" l="2" ref="7" ell="1"/>
      <pad p="419100 342900" w="6000" h="15500" l="2" ref="8" ell="1"/>
      <pad p="381000 342900" w="6000" h="15500" l="2" ref="5" ell="1"/>
      <pad p="393700 342900" w="6000" h="15500" l="2" ref="6" ell="1"/>
      <pad p="355600 342900" w="6000" h="15500" l="2" ref="3" ell="1"/>
      <pad p="368300 342900" w="6000" h="15500" l="2" ref="4" ell="1"/>
      <pad p="330200 342900" w="6000" h="15500" l="2" ref="1" ell="1"/>
      <pad p="342900 342900" w="6000" h="15500" l="2" ref="2" ell="1"/>
      <trace p1="320800 276900" p2="320800 309200" w="2540" l="1"/>
      <arc p="320800 315500" r="6350" lw="2540" l="1" ang="180" rota="0"/>
      <trace p1="427500 355500" p2="320800 355500" w="2540" l="1"/>
      <trace p1="320800 355500" p2="320800 321800" w="2540" l="1"/>
      <trace p1="320800 276900" p2="427500 276900" w="2540" l="1"/>
      <trace p1="427500 276900" p2="427500 355500" w="2540" l="1"/>
      <pad p="330200 288900" w="6000" h="15500" l="2" ref="16" ell="1"/>
      <pad p="342900 288900" w="6000" h="15500" l="2" ref="15" ell="1"/>
    </group>
    <text p="322570 264400" fs="12700" l="1" rot="0" text="U?"/>
  </cpcb:part>
<n1:title>PCB Component</n1:title>
<n1:desc>Generated by CPCB</n1:desc>
<n1:defs>
</n1:defs>
<n1:g fill="none" stroke="black" stroke-width="1" fill-rule="evenodd" stroke-linecap="square" stroke-linejoin="bevel">

<n1:g fill="#000000" fill-opacity="1" stroke="none" transform="matrix(1,0,0,1,-1223.01,-994.882)" font-family="Sans" font-size="152.778" font-weight="400" font-style="normal">
<n1:rect x="1223.01" y="994.882" width="500" height="500"/>
</n1:g>

<n1:g fill="#ff0000" fill-opacity="1" stroke="none" transform="matrix(1,0,0,1,-1223.01,-994.882)" font-family="Sans" font-size="152.778" font-weight="400" font-style="normal">
<n1:rect x="1588.19" y="1106.89" width="23.622" height="61.0236"/>
</n1:g>

<n1:g fill="#ff0000" fill-opacity="1" stroke="none" transform="matrix(1,0,0,1,-1223.01,-994.882)" font-family="Sans" font-size="152.778" font-weight="400" font-style="normal">
<n1:rect x="1438.19" y="1106.89" width="23.622" height="61.0236"/>
</n1:g>

<n1:g fill="#ff0000" fill-opacity="1" stroke="none" transform="matrix(1,0,0,1,-1223.01,-994.882)" font-family="Sans" font-size="152.778" font-weight="400" font-style="normal">
<n1:rect x="1538.19" y="1106.89" width="23.622" height="61.0236"/>
</n1:g>

<n1:g fill="#ff0000" fill-opacity="1" stroke="none" transform="matrix(1,0,0,1,-1223.01,-994.882)" font-family="Sans" font-size="152.778" font-weight="400" font-style="normal">
<n1:rect x="1388.19" y="1106.89" width="23.622" height="61.0236"/>
</n1:g>

<n1:g fill="#ff0000" fill-opacity="1" stroke="none" transform="matrix(1,0,0,1,-1223.01,-994.882)" font-family="Sans" font-size="152.778" font-weight="400" font-style="normal">
<n1:rect x="1638.19" y="1106.89" width="23.622" height="61.0236"/>
</n1:g>

<n1:g fill="#ff0000" fill-opacity="1" stroke="none" transform="matrix(1,0,0,1,-1223.01,-994.882)" font-family="Sans" font-size="152.778" font-weight="400" font-style="normal">
<n1:rect x="1488.19" y="1106.89" width="23.622" height="61.0236"/>
</n1:g>

<n1:g fill="#ff0000" fill-opacity="1" stroke="none" transform="matrix(1,0,0,1,-1223.01,-994.882)" font-family="Sans" font-size="152.778" font-weight="400" font-style="normal">
<n1:rect x="1588.19" y="1319.49" width="23.622" height="61.0236"/>
</n1:g>

<n1:g fill="#ff0000" fill-opacity="1" stroke="none" transform="matrix(1,0,0,1,-1223.01,-994.882)" font-family="Sans" font-size="152.778" font-weight="400" font-style="normal">
<n1:rect x="1638.19" y="1319.49" width="23.622" height="61.0236"/>
</n1:g>

<n1:g fill="#ff0000" fill-opacity="1" stroke="none" transform="matrix(1,0,0,1,-1223.01,-994.882)" font-family="Sans" font-size="152.778" font-weight="400" font-style="normal">
<n1:rect x="1488.19" y="1319.49" width="23.622" height="61.0236"/>
</n1:g>

<n1:g fill="#ff0000" fill-opacity="1" stroke="none" transform="matrix(1,0,0,1,-1223.01,-994.882)" font-family="Sans" font-size="152.778" font-weight="400" font-style="normal">
<n1:rect x="1538.19" y="1319.49" width="23.622" height="61.0236"/>
</n1:g>

<n1:g fill="#ff0000" fill-opacity="1" stroke="none" transform="matrix(1,0,0,1,-1223.01,-994.882)" font-family="Sans" font-size="152.778" font-weight="400" font-style="normal">
<n1:rect x="1388.19" y="1319.49" width="23.622" height="61.0236"/>
</n1:g>

<n1:g fill="#ff0000" fill-opacity="1" stroke="none" transform="matrix(1,0,0,1,-1223.01,-994.882)" font-family="Sans" font-size="152.778" font-weight="400" font-style="normal">
<n1:rect x="1438.19" y="1319.49" width="23.622" height="61.0236"/>
</n1:g>

<n1:g fill="#ff0000" fill-opacity="1" stroke="none" transform="matrix(1,0,0,1,-1223.01,-994.882)" font-family="Sans" font-size="152.778" font-weight="400" font-style="normal">
<n1:rect x="1288.19" y="1319.49" width="23.622" height="61.0236"/>
</n1:g>

<n1:g fill="#ff0000" fill-opacity="1" stroke="none" transform="matrix(1,0,0,1,-1223.01,-994.882)" font-family="Sans" font-size="152.778" font-weight="400" font-style="normal">
<n1:rect x="1338.19" y="1319.49" width="23.622" height="61.0236"/>
</n1:g>

<n1:g fill="#ff0000" fill-opacity="1" stroke="none" transform="matrix(1,0,0,1,-1223.01,-994.882)" font-family="Sans" font-size="152.778" font-weight="400" font-style="normal">
<n1:rect x="1288.19" y="1106.89" width="23.622" height="61.0236"/>
</n1:g>

<n1:g fill="#ff0000" fill-opacity="1" stroke="none" transform="matrix(1,0,0,1,-1223.01,-994.882)" font-family="Sans" font-size="152.778" font-weight="400" font-style="normal">
<n1:rect x="1338.19" y="1106.89" width="23.622" height="61.0236"/>
</n1:g>

<n1:g fill="#ff0000" fill-opacity="1" stroke="#f0f000" stroke-opacity="1" stroke-width="10" stroke-linecap="round" stroke-linejoin="bevel" transform="matrix(1,0,0,1,-1223.01,-994.882)" font-family="Sans" font-size="152.778" font-weight="400" font-style="normal">
<n1:polyline fill="none" vector-effect="none" points="1262.99,1090.16 1262.99,1217.32 "/>
</n1:g>

<n1:g fill="none" stroke="#f0f000" stroke-opacity="1" stroke-width="10" stroke-linecap="round" stroke-linejoin="bevel" transform="matrix(1,0,0,1,-1223.01,-994.882)" font-family="Sans" font-size="152.778" font-weight="400" font-style="normal">
<n1:path vector-effect="none" fill-rule="evenodd" d="M1262.99,1267.13 C1276.8,1267.13 1287.99,1255.93 1287.99,1242.13 C1287.99,1228.32 1276.8,1217.13 1262.99,1217.13 "/>
<n1:polyline fill="none" vector-effect="none" points="1683.07,1399.61 1262.99,1399.61 "/>
<n1:polyline fill="none" vector-effect="none" points="1262.99,1399.61 1262.99,1266.93 "/>
<n1:polyline fill="none" vector-effect="none" points="1262.99,1090.16 1683.07,1090.16 "/>
<n1:polyline fill="none" vector-effect="none" points="1683.07,1090.16 1683.07,1399.61 "/>
</n1:g>
</n1:g>
</svg>
