<?xml version="1.0" encoding="UTF-8" standalone="no"?>
<!-- Created with Inkscape (http://www.inkscape.org/) -->

<svg
   xmlns:dc="http://purl.org/dc/elements/1.1/"
   xmlns:cc="http://creativecommons.org/ns#"
   xmlns:rdf="http://www.w3.org/1999/02/22-rdf-syntax-ns#"
   xmlns:svg="http://www.w3.org/2000/svg"
   xmlns="http://www.w3.org/2000/svg"
   xmlns:sodipodi="http://sodipodi.sourceforge.net/DTD/sodipodi-0.dtd"
   xmlns:inkscape="http://www.inkscape.org/namespaces/inkscape"
   width="64"
   height="64"
   viewBox="0 0 16.933333 16.933334"
   version="1.1"
   id="svg8"
   inkscape:version="0.92.3 (2405546, 2018-03-11)"
   sodipodi:docname="IncOrigin.svg">
  <defs
     id="defs2" />
  <sodipodi:namedview
     id="base"
     pagecolor="#ffffff"
     bordercolor="#666666"
     borderopacity="1.0"
     inkscape:pageopacity="0.0"
     inkscape:pageshadow="2"
     inkscape:zoom="7.0489707"
     inkscape:cx="-17.085181"
     inkscape:cy="32"
     inkscape:document-units="px"
     inkscape:current-layer="layer1"
     showgrid="false"
     units="px"
     inkscape:window-width="2146"
     inkscape:window-height="1540"
     inkscape:window-x="1049"
     inkscape:window-y="52"
     inkscape:window-maximized="0"
     inkscape:snap-bbox="true"
     inkscape:snap-bbox-midpoints="true">
    <inkscape:grid
       type="xygrid"
       id="grid815"
       empspacing="4" />
  </sodipodi:namedview>
  <metadata
     id="metadata5">
    <rdf:RDF>
      <cc:Work
         rdf:about="">
        <dc:format>image/svg+xml</dc:format>
        <dc:type
           rdf:resource="http://purl.org/dc/dcmitype/StillImage" />
        <dc:title />
      </cc:Work>
    </rdf:RDF>
  </metadata>
  <g
     inkscape:label="Layer 1"
     inkscape:groupmode="layer"
     id="layer1"
     transform="translate(0,-280.06665)">
    <path
       style="fill:none;fill-rule:evenodd;stroke:#000000;stroke-width:1.0583334;stroke-linecap:butt;stroke-linejoin:miter;stroke-miterlimit:4;stroke-dasharray:none;stroke-opacity:1"
       d="m 15.875,288.53332 h -5.291667 m -2.1166663,2.11666 0,5.29167"
       id="path3866"
       inkscape:connector-curvature="0"
       sodipodi:nodetypes="cccc" />
    <path
       style="fill:none;fill-rule:evenodd;stroke:#000000;stroke-width:1.0583334;stroke-linecap:butt;stroke-linejoin:miter;stroke-miterlimit:4;stroke-dasharray:none;stroke-opacity:1"
       d="m 1.0583333,288.53332 h 5.2916699 m 2.11666,-2.11666 v -5.29167"
       id="path3866-3"
       inkscape:connector-curvature="0"
       sodipodi:nodetypes="cccc" />
    <rect
       style="opacity:1;fill:#000600;fill-opacity:1;stroke:none;stroke-width:0.26458335;stroke-linecap:butt;stroke-miterlimit:4;stroke-dasharray:none;stroke-dashoffset:0;stroke-opacity:1"
       id="rect2059"
       width="1.0583333"
       height="1.0583334"
       x="7.9375"
       y="288.00415" />
    <g
       aria-label="0"
       style="font-style:normal;font-variant:normal;font-weight:bold;font-stretch:normal;font-size:7.05555534px;line-height:125%;font-family:Lato;-inkscape-font-specification:'Lato Bold';font-variant-ligatures:normal;font-variant-caps:normal;font-variant-numeric:normal;font-feature-settings:normal;text-align:start;letter-spacing:0px;word-spacing:0px;writing-mode:lr-tb;text-anchor:start;fill:#000000;fill-opacity:1;stroke:none;stroke-width:0.26458335px;stroke-linecap:butt;stroke-linejoin:miter;stroke-opacity:1"
       id="text3173"
       transform="translate(1.0583333,0.52916667)">
      <path
         d="m 14.197918,292.92781 q 0,0.66675 -0.144639,1.16064 -0.141111,0.49036 -0.395111,0.81139 -0.250473,0.32103 -0.596195,0.47978 -0.342194,0.15522 -0.740833,0.15522 -0.398639,0 -0.740833,-0.15522 -0.338667,-0.15875 -0.589139,-0.47978 -0.250472,-0.32103 -0.391584,-0.81139 -0.141111,-0.49389 -0.141111,-1.16064 0,-0.67028 0.141111,-1.16064 0.141112,-0.49036 0.391584,-0.81139 0.250472,-0.32103 0.589139,-0.47625 0.342194,-0.15875 0.740833,-0.15875 0.398639,0 0.740833,0.15875 0.345722,0.15522 0.596195,0.47625 0.254,0.32103 0.395111,0.81139 0.144639,0.49036 0.144639,1.16064 z m -0.899584,0 q 0,-0.55386 -0.08114,-0.91722 -0.08114,-0.36336 -0.218722,-0.57856 -0.134055,-0.21519 -0.310444,-0.29986 -0.176389,-0.0882 -0.366889,-0.0882 -0.186972,0 -0.363361,0.0882 -0.172861,0.0847 -0.306917,0.29986 -0.134055,0.2152 -0.215194,0.57856 -0.07761,0.36336 -0.07761,0.91722 0,0.55386 0.07761,0.91722 0.08114,0.36336 0.215194,0.57856 0.134056,0.21519 0.306917,0.30339 0.176389,0.0847 0.363361,0.0847 0.1905,0 0.366889,-0.0847 0.176389,-0.0882 0.310444,-0.30339 0.137584,-0.2152 0.218722,-0.57856 0.08114,-0.36336 0.08114,-0.91722 z"
         style="font-style:normal;font-variant:normal;font-weight:bold;font-stretch:normal;font-family:Lato;-inkscape-font-specification:'Lato Bold';stroke-width:0.26458335px"
         id="path3185"
         inkscape:connector-curvature="0" />
    </g>
  </g>
</svg>
