<?xml version="1.0" encoding="UTF-8" standalone="no"?>
<svg
   width="48"
   height="48"
   viewBox="0 0 500.00001 500.00001"
   version="1.2"
   id="svg2622"
   sodipodi:docname="cpcb.svg"
   inkscape:version="1.2.2 (b0a8486541, 2022-12-01)"
   inkscape:export-filename="/home/wagenaar/progs/cschem/cschem/cpcb/cpcb.png"
   inkscape:export-xdpi="256"
   inkscape:export-ydpi="256"
   xmlns:inkscape="http://www.inkscape.org/namespaces/inkscape"
   xmlns:sodipodi="http://sodipodi.sourceforge.net/DTD/sodipodi-0.dtd"
   xmlns="http://www.w3.org/2000/svg"
   xmlns:svg="http://www.w3.org/2000/svg"
   xmlns:rdf="http://www.w3.org/1999/02/22-rdf-syntax-ns#"
   xmlns:cc="http://creativecommons.org/ns#"
   xmlns:dc="http://purl.org/dc/elements/1.1/">
  <metadata
     id="metadata2626">
    <rdf:RDF>
      <cc:Work
         rdf:about="">
        <dc:format>image/svg+xml</dc:format>
        <dc:type
           rdf:resource="http://purl.org/dc/dcmitype/StillImage" />
        <dc:title>PCB Component</dc:title>
      </cc:Work>
    </rdf:RDF>
  </metadata>
  <sodipodi:namedview
     pagecolor="#ffffff"
     bordercolor="#666666"
     borderopacity="1"
     objecttolerance="10"
     gridtolerance="10"
     guidetolerance="10"
     inkscape:pageopacity="0"
     inkscape:pageshadow="2"
     inkscape:window-width="1902"
     inkscape:window-height="894"
     id="namedview2624"
     showgrid="false"
     inkscape:zoom="13.916667"
     inkscape:cx="21.305389"
     inkscape:cy="24.75449"
     inkscape:window-x="0"
     inkscape:window-y="0"
     inkscape:window-maximized="0"
     inkscape:current-layer="layer1"
     inkscape:showpageshadow="2"
     inkscape:pagecheckerboard="0"
     inkscape:deskcolor="#d1d1d1"
     inkscape:document-units="mm"
     showguides="true">
    <sodipodi:guide
       position="-133.23353,207.33534"
       orientation="1,0"
       id="guide3088"
       inkscape:locked="false" />
  </sodipodi:namedview>
  <title
     id="title2500">PCB Component</title>
  <desc
     id="desc2502">Generated by CPCB</desc>
  <defs
     id="defs2504">
    <filter
       style="color-interpolation-filters:sRGB"
       inkscape:label="Drop Shadow"
       id="filter6347"
       x="-0.024000977"
       y="-0.024000977"
       width="1.0605025"
       height="1.0605025">
      <feFlood
         flood-opacity="0.407843"
         flood-color="rgb(0,0,0)"
         result="flood"
         id="feFlood6337" />
      <feComposite
         in="flood"
         in2="SourceGraphic"
         operator="in"
         result="composite1"
         id="feComposite6339" />
      <feGaussianBlur
         in="composite1"
         stdDeviation="4"
         result="blur"
         id="feGaussianBlur6341" />
      <feOffset
         dx="5"
         dy="5"
         result="offset"
         id="feOffset6343" />
      <feComposite
         in="SourceGraphic"
         in2="offset"
         operator="over"
         result="composite2"
         id="feComposite6345" />
    </filter>
    <filter
       style="color-interpolation-filters:sRGB;"
       inkscape:label="Drop Shadow"
       id="filter5118"
       x="-0.03008155"
       y="-0.03008155"
       width="1.0758306"
       height="1.0758306">
      <feFlood
         flood-opacity="0.407843"
         flood-color="rgb(0,0,0)"
         result="flood"
         id="feFlood5108" />
      <feComposite
         in="flood"
         in2="SourceGraphic"
         operator="in"
         result="composite1"
         id="feComposite5110" />
      <feGaussianBlur
         in="composite1"
         stdDeviation="4"
         result="blur"
         id="feGaussianBlur5112" />
      <feOffset
         dx="5"
         dy="5"
         result="offset"
         id="feOffset5114" />
      <feComposite
         in="SourceGraphic"
         in2="offset"
         operator="over"
         result="composite2"
         id="feComposite5116" />
    </filter>
  </defs>
  <g
     inkscape:groupmode="layer"
     id="layer1"
     inkscape:label="Layer 1"
     style="display:inline">
    <path
       id="path3960-3-6-73"
       style="display:none;fill:#640000;fill-opacity:1;stroke:none;stroke-width:5.09399;stroke-linecap:round;stroke-linejoin:round;stroke-miterlimit:6;stroke-dasharray:none;stroke-opacity:1"
       d="M 50.008138,50.008138 V 449.99186 l 399.991852,-10e-6 -0.008,-399.983712 H 300.00814 c 0,27.613972 -22.39817,49.987793 -50.00814,49.987793 -27.60997,0 -50.00814,-22.373821 -50.00814,-49.987793 z m 49.987793,29.988607 c 11.045049,4.43e-4 19.998739,8.954133 19.999189,19.999186 -4.5e-4,11.045059 -8.95414,19.998749 -19.999189,19.999189 -11.045048,-4.5e-4 -19.998738,-8.95414 -19.999186,-19.999189 4.5e-4,-11.045051 8.954139,-19.998741 19.999186,-19.999186 z m 300.008139,0 c 11.04505,4.43e-4 19.99874,8.954135 19.99919,19.999186 -4.5e-4,11.045059 -8.95414,19.998749 -19.99919,19.999189 -11.04505,-4.4e-4 -19.99874,-8.95413 -19.99919,-19.999189 4.5e-4,-11.045051 8.95414,-19.998743 19.99919,-19.999186 z M 99.995931,179.99268 c 11.045049,4.4e-4 19.998739,8.95413 19.999189,19.99918 -4.5e-4,11.04506 -8.95414,19.99875 -19.999189,19.99919 -11.045048,-4.5e-4 -19.998739,-8.95414 -19.999186,-19.99919 4.53e-4,-11.04505 8.954141,-19.99873 19.999186,-19.99918 z m 300.008139,0 c 11.04504,4.4e-4 19.99873,8.95413 19.99919,19.99918 -4.5e-4,11.04506 -8.95414,19.99875 -19.99919,19.99919 -11.04505,-4.4e-4 -19.99874,-8.95413 -19.99919,-19.99919 4.6e-4,-11.04505 8.95415,-19.99874 19.99919,-19.99918 z m 0,100.01627 c 11.04505,4.4e-4 19.99874,8.95414 19.99919,19.99919 -4.5e-4,11.04506 -8.95414,19.99874 -19.99919,19.99918 -11.04505,-4.5e-4 -19.99874,-8.95413 -19.99919,-19.99918 4.5e-4,-11.04505 8.95415,-19.99874 19.99919,-19.99919 z m -300.008139,0.18311 c 11.045049,4.4e-4 19.998739,8.95413 19.999189,19.99918 -4.5e-4,11.04506 -8.95414,19.99875 -19.999189,19.99919 -11.045048,-4.5e-4 -19.998739,-8.95414 -19.999186,-19.99919 4.53e-4,-11.04505 8.954141,-19.99873 19.999186,-19.99918 z m 0,99.81282 c 11.045049,4.4e-4 19.998739,8.95414 19.999189,19.99919 -4.5e-4,11.04506 -8.95414,19.99875 -19.999189,19.99919 -11.045048,-4.5e-4 -19.998739,-8.95414 -19.999186,-19.99919 4.53e-4,-11.04505 8.954141,-19.99874 19.999186,-19.99919 z m 300.008139,0 c 11.04505,4.4e-4 19.99874,8.95414 19.99919,19.99919 -4.5e-4,11.04506 -8.95414,19.99875 -19.99919,19.99919 -11.04505,-4.5e-4 -19.99874,-8.95414 -19.99919,-19.99919 4.5e-4,-11.04505 8.95415,-19.99874 19.99919,-19.99919 z"
       transform="matrix(0.77287398,0,0,0.77287398,54.849315,54.849315)"
       sodipodi:nodetypes="cccccscccccccccccccccccccccccccccccccccccccccccc" />
    <path
       id="polyline2616-0-6"
       style="color:#000000;display:inline;fill:#7c0000;fill-rule:evenodd;stroke-linecap:round;stroke-linejoin:round;-inkscape-stroke:none;fill-opacity:1;filter:url(#filter5118)"
       d="M 93.485516 88.500978 C 90.72421 88.501254 88.501254 90.72421 88.500978 93.485516 L 88.500978 402.62859 C 88.501254 405.3899 90.72421 407.63319 93.485516 407.63347 L 402.64893 407.63347 C 405.41024 407.63319 407.63319 405.3899 407.63347 402.62859 L 407.63347 93.485516 C 407.63319 90.72421 405.41024 88.501254 402.64893 88.500978 L 286.70248 88.500978 C 283.94117 88.501254 281.71822 90.72421 281.71794 93.485516 C 281.71794 112.12441 266.70364 127.13623 248.06723 127.13623 C 229.43078 127.13623 214.41651 112.12441 214.41651 93.485516 C 214.41623 90.72421 212.19328 88.501254 209.43197 88.500978 L 93.485516 88.500978 z M 132.14112 116.67888 C 140.67755 116.67922 147.58266 123.60468 147.58301 132.14112 C 147.58266 140.67755 140.67755 147.58267 132.14112 147.58301 C 123.60468 147.58267 116.67923 140.67755 116.67888 132.14112 C 116.67923 123.60468 123.60468 116.67922 132.14112 116.67888 z M 363.99333 116.67888 C 372.52977 116.67922 379.45522 123.60467 379.45557 132.14112 C 379.45522 140.67756 372.52977 147.60302 363.99333 147.60336 C 355.4569 147.60302 348.55179 140.67755 348.55144 132.14112 C 348.55179 123.60468 355.4569 116.67922 363.99333 116.67888 z M 132.14112 193.96973 C 140.67755 193.97007 147.58266 200.87519 147.58301 209.41163 C 147.58266 217.94806 140.67755 224.87353 132.14112 224.87387 C 123.60468 224.87353 116.67923 217.94806 116.67888 209.41163 C 116.67923 200.87519 123.60468 193.97007 132.14112 193.96973 z M 363.99333 193.96973 C 372.52977 193.97007 379.45522 200.89554 379.45557 209.43197 C 379.45523 217.96841 372.52978 224.87353 363.99333 224.87387 C 355.4569 224.87353 348.55178 217.96841 348.55144 209.43197 C 348.55179 200.89554 355.45691 193.97007 363.99333 193.96973 z M 363.99333 271.26058 C 372.52977 271.26092 379.45522 278.16605 379.45557 286.70248 C 379.45522 295.23892 372.52977 302.16438 363.99333 302.16472 C 355.45691 302.16437 348.55179 295.23891 348.55144 286.70248 C 348.55179 278.16606 355.45691 271.26093 363.99333 271.26058 z M 132.14112 271.403 C 140.67754 271.40334 147.60301 278.32881 147.60336 286.86524 C 147.60302 295.40168 140.67755 302.30679 132.14112 302.30713 C 123.60468 302.30679 116.67922 295.40168 116.67888 286.86524 C 116.67923 278.32881 123.60469 271.40334 132.14112 271.403 z M 132.14112 348.55144 C 140.67755 348.55178 147.60301 355.4569 147.60336 363.99333 C 147.60301 372.52977 140.67755 379.45523 132.14112 379.45557 C 123.60468 379.45523 116.67923 372.52977 116.67888 363.99333 C 116.67923 355.4569 123.60468 348.55178 132.14112 348.55144 z M 363.99333 348.55144 C 372.52977 348.55178 379.45522 355.45689 379.45557 363.99333 C 379.45522 372.52978 372.52977 379.45523 363.99333 379.45557 C 355.45691 379.45522 348.55179 372.52977 348.55144 363.99333 C 348.55179 355.4569 355.45691 348.55179 363.99333 348.55144 z " />
  </g>
  <g
     inkscape:groupmode="layer"
     id="layer3"
     inkscape:label="Layer 3"
     style="display:inline">
    <path
       style="color:#000000;fill:#ffc505;fill-rule:evenodd;stroke-linecap:round;stroke-linejoin:round;-inkscape-stroke:none"
       d="m 93.492187,88.492187 a 5.0005,5.0005 0 0 0 -5,5 V 402.63672 a 5.0005,5.0005 0 0 0 5,5 H 402.64258 a 5.0005,5.0005 0 0 0 5,-5 V 93.492187 a 5.0005,5.0005 0 0 0 -5,-5 H 286.71094 a 5.0005,5.0005 0 0 0 -5,5 c 0,18.638913 -15.00615,33.644533 -33.64258,33.644533 -18.63646,0 -33.64453,-15.00562 -33.64453,-33.644533 a 5.0005,5.0005 0 0 0 -5,-5 z m 5,10 H 204.92969 c 2.52087,21.673463 20.80857,38.644533 43.13867,38.644533 22.33009,0 40.61585,-16.97107 43.13672,-38.644533 h 106.4375 V 397.63672 H 98.492187 Z"
       id="polyline2616-0" />
  </g>
  <g
     inkscape:groupmode="layer"
     id="layer2"
     inkscape:label="Layer 2"
     style="display:inline">
    <path
       id="path3960-3-6"
       style="fill:#f10000;fill-opacity:1;stroke:none;stroke-width:3.93701;stroke-linecap:round;stroke-linejoin:round;stroke-miterlimit:6;stroke-dasharray:none;stroke-opacity:1"
       d="m 132.13357,184.46357 a 23.983446,24.961229 0 0 0 -23.97935,24.95425 23.983446,24.961229 0 0 0 23.97935,24.96996 23.983446,24.961229 0 0 0 23.97934,-24.96996 23.983446,24.961229 0 0 0 -23.97934,-24.95425 z m 0,9.4974 a 15.457473,15.45748 0 0 1 15.45685,15.45685 15.457473,15.45748 0 0 1 -15.45685,15.45685 15.457473,15.45748 0 0 1 -15.45685,-15.45685 15.457473,15.45748 0 0 1 15.45685,-15.45685 z" />
    <path
       id="path3960-3-6-7"
       style="fill:#f10000;fill-opacity:1;stroke:none;stroke-width:3.93701;stroke-linecap:round;stroke-linejoin:round;stroke-miterlimit:6;stroke-dasharray:none;stroke-opacity:1"
       d="m 132.13671,261.9057 a 23.983446,24.961229 0 0 0 -23.97934,24.95424 23.983446,24.961229 0 0 0 23.97934,24.96997 23.983446,24.961229 0 0 0 23.97935,-24.96997 23.983446,24.961229 0 0 0 -23.97935,-24.95424 z m 0,9.4974 a 15.457473,15.45748 0 0 1 15.45685,15.45684 15.457473,15.45748 0 0 1 -15.45685,15.45686 15.457473,15.45748 0 0 1 -15.45685,-15.45686 15.457473,15.45748 0 0 1 15.45685,-15.45684 z" />
    <path
       id="path3960-3-6-5"
       style="fill:#f10000;fill-opacity:1;stroke:none;stroke-width:3.93701;stroke-linecap:round;stroke-linejoin:round;stroke-miterlimit:6;stroke-dasharray:none;stroke-opacity:1"
       d="m 132.13671,339.04528 a 23.983446,24.961229 0 0 0 -23.97934,24.95425 23.983446,24.961229 0 0 0 23.97934,24.96997 23.983446,24.961229 0 0 0 23.97935,-24.96997 23.983446,24.961229 0 0 0 -23.97935,-24.95425 z m 0,9.4974 a 15.457473,15.45748 0 0 1 15.45685,15.45685 15.457473,15.45748 0 0 1 -15.45685,15.45685 15.457473,15.45748 0 0 1 -15.45685,-15.45685 15.457473,15.45748 0 0 1 15.45685,-15.45685 z" />
    <path
       id="path3960-3-6-3"
       style="fill:#f10000;fill-opacity:1;stroke:none;stroke-width:3.93701;stroke-linecap:round;stroke-linejoin:round;stroke-miterlimit:6;stroke-dasharray:none;stroke-opacity:1"
       d="m 363.9989,339.04528 a 23.983446,24.961229 0 0 0 -23.97934,24.95425 23.983446,24.961229 0 0 0 23.97934,24.96997 23.983446,24.961229 0 0 0 23.97935,-24.96997 23.983446,24.961229 0 0 0 -23.97935,-24.95425 z m 0,9.4974 a 15.457473,15.45748 0 0 1 15.45686,15.45685 15.457473,15.45748 0 0 1 -15.45686,15.45685 15.457473,15.45748 0 0 1 -15.45684,-15.45685 15.457473,15.45748 0 0 1 15.45684,-15.45685 z" />
    <path
       id="path3960-3-6-56"
       style="fill:#f10000;fill-opacity:1;stroke:none;stroke-width:3.93701;stroke-linecap:round;stroke-linejoin:round;stroke-miterlimit:6;stroke-dasharray:none;stroke-opacity:1"
       d="m 363.9989,261.75789 a 23.983446,24.961229 0 0 0 -23.97934,24.95424 23.983446,24.961229 0 0 0 23.97934,24.96997 23.983446,24.961229 0 0 0 23.97935,-24.96997 23.983446,24.961229 0 0 0 -23.97935,-24.95424 z m 0,9.4974 a 15.457473,15.45748 0 0 1 15.45686,15.45684 15.457473,15.45748 0 0 1 -15.45686,15.45685 15.457473,15.45748 0 0 1 -15.45684,-15.45685 15.457473,15.45748 0 0 1 15.45684,-15.45684 z" />
    <path
       id="path3960-3-6-2"
       style="fill:#f10000;fill-opacity:1;stroke:none;stroke-width:3.93701;stroke-linecap:round;stroke-linejoin:round;stroke-miterlimit:6;stroke-dasharray:none;stroke-opacity:1"
       d="m 363.9989,184.47049 a 23.983446,24.961229 0 0 0 -23.97934,24.95424 23.983446,24.961229 0 0 0 23.97934,24.96997 23.983446,24.961229 0 0 0 23.97935,-24.96997 23.983446,24.961229 0 0 0 -23.97935,-24.95424 z m 0,9.4974 a 15.457473,15.45748 0 0 1 15.45686,15.45684 15.457473,15.45748 0 0 1 -15.45686,15.45686 15.457473,15.45748 0 0 1 -15.45685,-15.45686 15.457473,15.45748 0 0 1 15.45685,-15.45684 z" />
    <path
       id="path3960-3-6-9"
       style="fill:#f10000;fill-opacity:1;stroke:none;stroke-width:3.93701;stroke-linecap:round;stroke-linejoin:round;stroke-miterlimit:6;stroke-dasharray:none;stroke-opacity:1"
       d="m 363.9989,107.18309 a 23.983446,24.961229 0 0 0 -23.97934,24.95425 23.983446,24.961229 0 0 0 23.97934,24.96996 23.983446,24.961229 0 0 0 23.97935,-24.96996 23.983446,24.961229 0 0 0 -23.97935,-24.95425 z m 0,9.4974 a 15.457473,15.45748 0 0 1 15.45686,15.45685 15.457473,15.45748 0 0 1 -15.45686,15.45685 15.457473,15.45748 0 0 1 -15.45685,-15.45685 15.457473,15.45748 0 0 1 15.45685,-15.45685 z" />
    <path
       id="rect3904"
       style="fill:#f10000;fill-opacity:1;stroke:none;stroke-width:15.625;stroke-linecap:round;stroke-linejoin:round;stroke-miterlimit:6;stroke-opacity:1"
       d="m 107.02208,107.02208 v 50.23869 h 50.23869 v -50.23869 z m 25.11149,9.65464 a 15.457473,15.45748 0 0 1 15.45685,15.45685 15.457473,15.45748 0 0 1 -15.45685,15.45685 15.457473,15.45748 0 0 1 -15.45685,-15.45685 15.457473,15.45748 0 0 1 15.45685,-15.45685 z" />
  </g>
</svg>
