<?xml version="1.0" encoding="UTF-8" standalone="no"?>
<svg
   width="12.7mm"
   height="12.7mm"
   viewBox="0 0 500 500"
   version="1.2"
   id="svg2622"
   sodipodi:docname="cpcb.svg"
   inkscape:version="1.2.2 (b0a8486541, 2022-12-01)"
   inkscape:export-filename="/home/wagenaar/progs/cschem/cschem/cpcb/cpcb.png"
   inkscape:export-xdpi="256"
   inkscape:export-ydpi="256"
   xmlns:inkscape="http://www.inkscape.org/namespaces/inkscape"
   xmlns:sodipodi="http://sodipodi.sourceforge.net/DTD/sodipodi-0.dtd"
   xmlns="http://www.w3.org/2000/svg"
   xmlns:svg="http://www.w3.org/2000/svg"
   xmlns:rdf="http://www.w3.org/1999/02/22-rdf-syntax-ns#"
   xmlns:cc="http://creativecommons.org/ns#"
   xmlns:dc="http://purl.org/dc/elements/1.1/">
  <metadata
     id="metadata2626">
    <rdf:RDF>
      <cc:Work
         rdf:about="">
        <dc:format>image/svg+xml</dc:format>
        <dc:type
           rdf:resource="http://purl.org/dc/dcmitype/StillImage" />
        <dc:title>PCB Component</dc:title>
      </cc:Work>
    </rdf:RDF>
  </metadata>
  <sodipodi:namedview
     pagecolor="#ffffff"
     bordercolor="#666666"
     borderopacity="1"
     objecttolerance="10"
     gridtolerance="10"
     guidetolerance="10"
     inkscape:pageopacity="0"
     inkscape:pageshadow="2"
     inkscape:window-width="1902"
     inkscape:window-height="894"
     id="namedview2624"
     showgrid="false"
     inkscape:zoom="13.916667"
     inkscape:cx="11.748503"
     inkscape:cy="24.035928"
     inkscape:window-x="0"
     inkscape:window-y="0"
     inkscape:window-maximized="0"
     inkscape:current-layer="layer3"
     inkscape:showpageshadow="2"
     inkscape:pagecheckerboard="0"
     inkscape:deskcolor="#d1d1d1"
     inkscape:document-units="mm" />
  <title
     id="title2500">PCB Component</title>
  <desc
     id="desc2502">Generated by CPCB</desc>
  <defs
     id="defs2504">
    <filter
       style="color-interpolation-filters:sRGB;"
       inkscape:label="Drop Shadow"
       id="filter6347"
       x="-0.024000977"
       y="-0.024000977"
       width="1.0605025"
       height="1.0605025">
      <feFlood
         flood-opacity="0.407843"
         flood-color="rgb(0,0,0)"
         result="flood"
         id="feFlood6337" />
      <feComposite
         in="flood"
         in2="SourceGraphic"
         operator="in"
         result="composite1"
         id="feComposite6339" />
      <feGaussianBlur
         in="composite1"
         stdDeviation="4"
         result="blur"
         id="feGaussianBlur6341" />
      <feOffset
         dx="5"
         dy="5"
         result="offset"
         id="feOffset6343" />
      <feComposite
         in="SourceGraphic"
         in2="offset"
         operator="over"
         result="composite2"
         id="feComposite6345" />
    </filter>
  </defs>
  <g
     inkscape:groupmode="layer"
     id="layer1"
     inkscape:label="Layer 1"
     style="display:inline">
    <path
       id="polyline2616"
       style="font-style:normal;font-weight:400;font-size:152.778px;font-family:Sans;display:none;vector-effect:none;fill:#77250c;fill-opacity:1;fill-rule:evenodd;stroke:none;stroke-width:10;stroke-linecap:round;stroke-linejoin:bevel;stroke-opacity:1"
       d="M 50.008138,50.008138 V 449.99186 H 449.99186 V 50.008138 H 300.00814 c 0,27.613972 -22.39817,49.987793 -50.00814,49.987793 -27.60997,0 -50.00814,-22.373821 -50.00814,-49.987793 z M 67.504883,67.504883 H 132.50732 V 132.50732 H 67.504883 Z m 332.499187,0.20345 c 17.13275,0.003 31.02141,14.456359 31.0262,32.287598 0.006,17.839179 -13.88582,32.304939 -31.0262,32.307939 -17.14038,-0.003 -31.03221,-14.46876 -31.02621,-32.307939 0.005,-17.831235 13.89346,-32.284498 31.02621,-32.287598 z M 99.995931,167.70426 c 17.132749,0.003 31.021209,14.45636 31.026209,32.2876 0.006,17.83918 -13.88583,32.30494 -31.026209,32.30794 -17.140383,-0.003 -31.032204,-14.46876 -31.026204,-32.30794 0.0048,-17.83123 13.893453,-32.2846 31.026204,-32.2876 z m 300.008139,0 c 17.13275,0.003 31.0214,14.45637 31.0262,32.2876 0.006,17.83918 -13.88582,32.30494 -31.0262,32.30794 -17.14038,-0.003 -31.03221,-14.46876 -31.02621,-32.30794 0.005,-17.83123 13.89347,-32.2846 31.02621,-32.2876 z m 0,100.01628 c 17.13275,0.003 31.0212,14.45636 31.0262,32.2876 0.006,17.83918 -13.88582,32.30494 -31.0262,32.30794 -17.14038,-0.003 -31.03221,-14.46876 -31.02621,-32.30794 0.005,-17.83123 13.89346,-32.2846 31.02621,-32.2876 z m -300.008139,0.18311 c 17.132749,0.003 31.021419,14.45635 31.026209,32.28759 0.006,17.83919 -13.88583,32.30495 -31.026209,32.30795 -17.140383,-0.003 -31.032204,-14.46876 -31.026204,-32.30795 0.0048,-17.83123 13.893453,-32.28459 31.026204,-32.28759 z m 0,99.81282 c 17.132749,0.003 31.021209,14.45636 31.026209,32.2876 0.006,17.83918 -13.88583,32.30494 -31.026209,32.30794 -17.140383,-0.003 -31.032204,-14.46876 -31.026204,-32.30794 0.0048,-17.83123 13.893453,-32.2846 31.026204,-32.2876 z m 300.008139,0 c 17.13275,0.003 31.0212,14.45636 31.0262,32.2876 0.006,17.83918 -13.88582,32.30494 -31.0262,32.30794 -17.14038,-0.003 -31.03221,-14.46876 -31.02621,-32.30794 0.005,-17.83123 13.89346,-32.2846 31.02621,-32.2876 z" />
    <path
       id="path3960-3-6-73"
       style="display:inline;fill:#640000;fill-opacity:1;stroke:none;stroke-width:3.93701;stroke-linecap:round;stroke-linejoin:round;stroke-miterlimit:6;stroke-dasharray:none;stroke-opacity:1;filter:url(#filter6347)"
       d="M 50.008138 50.008138 L 50.008138 449.99186 L 449.99186 449.99186 L 449.99186 50.008138 L 300.00814 50.008138 C 300.00814 77.62211 277.60997 99.995931 250 99.995931 C 222.39003 99.995931 199.99186 77.62211 199.99186 50.008138 L 50.008138 50.008138 z M 99.995931 79.996745 C 111.04098 79.997188 119.99467 88.950878 119.99512 99.995931 C 119.99467 111.04099 111.04098 119.99468 99.995931 119.99512 C 88.950883 119.99467 79.997193 111.04098 79.996745 99.995931 C 79.997195 88.95088 88.950884 79.99719 99.995931 79.996745 z M 400.00407 79.996745 C 411.04912 79.997188 420.00281 88.95088 420.00326 99.995931 C 420.00281 111.04099 411.04912 119.99468 400.00407 119.99512 C 388.95902 119.99468 380.00533 111.04099 380.00488 99.995931 C 380.00533 88.95088 388.95902 79.997188 400.00407 79.996745 z M 99.995931 179.99268 C 111.04098 179.99312 119.99467 188.94681 119.99512 199.99186 C 119.99467 211.03692 111.04098 219.99061 99.995931 219.99105 C 88.950883 219.9906 79.997192 211.03691 79.996745 199.99186 C 79.997198 188.94681 88.950886 179.99313 99.995931 179.99268 z M 400.00407 179.99268 C 411.04911 179.99312 420.0028 188.94681 420.00326 199.99186 C 420.00281 211.03692 411.04912 219.99061 400.00407 219.99105 C 388.95902 219.99061 380.00533 211.03692 380.00488 199.99186 C 380.00534 188.94681 388.95903 179.99312 400.00407 179.99268 z M 400.00407 280.00895 C 411.04912 280.00939 420.00281 288.96309 420.00326 300.00814 C 420.00281 311.0532 411.04912 320.00688 400.00407 320.00732 C 388.95902 320.00687 380.00533 311.05319 380.00488 300.00814 C 380.00533 288.96309 388.95903 280.0094 400.00407 280.00895 z M 99.995931 280.19206 C 111.04098 280.1925 119.99467 289.14619 119.99512 300.19124 C 119.99467 311.2363 111.04098 320.18999 99.995931 320.19043 C 88.950883 320.18998 79.997192 311.23629 79.996745 300.19124 C 79.997198 289.14619 88.950886 280.19251 99.995931 280.19206 z M 99.995931 380.00488 C 111.04098 380.00532 119.99467 388.95902 119.99512 400.00407 C 119.99467 411.04913 111.04098 420.00282 99.995931 420.00326 C 88.950883 420.00281 79.997192 411.04912 79.996745 400.00407 C 79.997198 388.95902 88.950886 380.00533 99.995931 380.00488 z M 400.00407 380.00488 C 411.04912 380.00532 420.00281 388.95902 420.00326 400.00407 C 420.00281 411.04913 411.04912 420.00282 400.00407 420.00326 C 388.95902 420.00281 380.00533 411.04912 380.00488 400.00407 C 380.00533 388.95902 388.95903 380.00533 400.00407 380.00488 z " />
  </g>
  <g
     inkscape:groupmode="layer"
     id="layer3"
     inkscape:label="Layer 3"
     style="display:inline">
    <path
       id="polyline2616-0"
       style="font-style:normal;font-weight:400;font-size:152.778px;font-family:Sans;display:inline;vector-effect:none;fill:none;fill-opacity:0.511319;fill-rule:evenodd;stroke:#f0f000;stroke-width:10;stroke-linecap:round;stroke-linejoin:round;stroke-opacity:1"
       d="M 450,50 H 300 c 0,27.614 -22.39,50 -50,50 -27.61,0 -50,-22.386 -50,-50 H 50 v 400 h 400 z"
       sodipodi:nodetypes="ccsccccc"
       sodipodi:insensitive="true" />
  </g>
  <g
     inkscape:groupmode="layer"
     id="layer2"
     inkscape:label="Layer 2"
     sodipodi:insensitive="true"
     style="display:inline">
    <path
       id="path3960-3-6"
       style="fill:#f10000;fill-opacity:1;stroke:none;stroke-width:3.93701;stroke-linecap:round;stroke-linejoin:round;stroke-miterlimit:6;stroke-dasharray:none;stroke-opacity:1"
       d="m 99.995931,167.70426 a 31.031509,32.296635 0 0 0 -31.026204,32.2876 31.031509,32.296635 0 0 0 31.026204,32.30794 31.031509,32.296635 0 0 0 31.026209,-32.30794 31.031509,32.296635 0 0 0 -31.026209,-32.2876 z m 0,12.28842 a 19.999992,20 0 0 1 19.999189,19.99918 19.999992,20 0 0 1 -19.999189,19.99919 19.999992,20 0 0 1 -19.999186,-19.99919 19.999992,20 0 0 1 19.999186,-19.99918 z" />
    <path
       id="path3960-3-6-7"
       style="fill:#f10000;fill-opacity:1;stroke:none;stroke-width:3.93701;stroke-linecap:round;stroke-linejoin:round;stroke-miterlimit:6;stroke-dasharray:none;stroke-opacity:1"
       d="M 100,267.90446 A 31.031509,32.296635 0 0 0 68.973796,300.19206 31.031509,32.296635 0 0 0 100,332.5 31.031509,32.296635 0 0 0 131.02621,300.19206 31.031509,32.296635 0 0 0 100,267.90446 Z m 0,12.28842 A 19.999992,20 0 0 1 119.99919,300.19206 19.999992,20 0 0 1 100,320.19125 19.999992,20 0 0 1 80.000814,300.19206 19.999992,20 0 0 1 100,280.19288 Z" />
    <path
       id="path3960-3-6-5"
       style="fill:#f10000;fill-opacity:1;stroke:none;stroke-width:3.93701;stroke-linecap:round;stroke-linejoin:round;stroke-miterlimit:6;stroke-dasharray:none;stroke-opacity:1"
       d="M 100,367.71321 A 31.031509,32.296635 0 0 0 68.973796,400.00081 31.031509,32.296635 0 0 0 100,432.30875 31.031509,32.296635 0 0 0 131.02621,400.00081 31.031509,32.296635 0 0 0 100,367.71321 Z m 0,12.28842 A 19.999992,20 0 0 1 119.99919,400.00081 19.999992,20 0 0 1 100,420 19.999992,20 0 0 1 80.000814,400.00081 19.999992,20 0 0 1 100,380.00163 Z" />
    <path
       id="path3960-3-6-3"
       style="fill:#f10000;fill-opacity:1;stroke:none;stroke-width:3.93701;stroke-linecap:round;stroke-linejoin:round;stroke-miterlimit:6;stroke-dasharray:none;stroke-opacity:1"
       d="M 400,367.71321 A 31.031509,32.296635 0 0 0 368.9738,400.00081 31.031509,32.296635 0 0 0 400,432.30875 31.031509,32.296635 0 0 0 431.02621,400.00081 31.031509,32.296635 0 0 0 400,367.71321 Z m 0,12.28842 A 19.999992,20 0 0 1 419.99919,400.00081 19.999992,20 0 0 1 400,420 19.999992,20 0 0 1 380.00082,400.00081 19.999992,20 0 0 1 400,380.00163 Z" />
    <path
       id="path3960-3-6-56"
       style="fill:#f10000;fill-opacity:1;stroke:none;stroke-width:3.93701;stroke-linecap:round;stroke-linejoin:round;stroke-miterlimit:6;stroke-dasharray:none;stroke-opacity:1"
       d="M 400,267.71321 A 31.031509,32.296635 0 0 0 368.9738,300.00081 31.031509,32.296635 0 0 0 400,332.30875 31.031509,32.296635 0 0 0 431.02621,300.00081 31.031509,32.296635 0 0 0 400,267.71321 Z m 0,12.28842 A 19.999992,20 0 0 1 419.99919,300.00081 19.999992,20 0 0 1 400,320 19.999992,20 0 0 1 380.00082,300.00081 19.999992,20 0 0 1 400,280.00163 Z" />
    <path
       id="path3960-3-6-2"
       style="fill:#f10000;fill-opacity:1;stroke:none;stroke-width:3.93701;stroke-linecap:round;stroke-linejoin:round;stroke-miterlimit:6;stroke-dasharray:none;stroke-opacity:1"
       d="M 400,167.71322 A 31.031509,32.296635 0 0 0 368.9738,200.00081 31.031509,32.296635 0 0 0 400,232.30875 31.031509,32.296635 0 0 0 431.02621,200.00081 31.031509,32.296635 0 0 0 400,167.71322 Z m 0,12.28842 A 19.999992,20 0 0 1 419.99919,200.00081 19.999992,20 0 0 1 400,220 19.999992,20 0 0 1 380.00081,200.00081 19.999992,20 0 0 1 400,180.00164 Z" />
    <path
       id="path3960-3-6-9"
       style="fill:#f10000;fill-opacity:1;stroke:none;stroke-width:3.93701;stroke-linecap:round;stroke-linejoin:round;stroke-miterlimit:6;stroke-dasharray:none;stroke-opacity:1"
       d="M 400,67.71321 A 31.031509,32.296635 0 0 0 368.9738,100.00081 31.031509,32.296635 0 0 0 400,132.30875 31.031509,32.296635 0 0 0 431.02621,100.00081 31.031509,32.296635 0 0 0 400,67.71321 Z m 0,12.28842 A 19.999992,20 0 0 1 419.99919,100.00081 19.999992,20 0 0 1 400,120 19.999992,20 0 0 1 380.00081,100.00081 19.999992,20 0 0 1 400,80.00163 Z" />
    <path
       id="rect3904"
       style="fill:#f10000;fill-opacity:1;stroke:none;stroke-width:15.625;stroke-linecap:round;stroke-linejoin:round;stroke-miterlimit:6;stroke-opacity:1"
       d="M 67.504883,67.504883 V 132.50732 H 132.50732 V 67.504883 Z M 99.995931,79.996745 A 19.999992,20 0 0 1 119.99512,99.995931 19.999992,20 0 0 1 99.995931,119.99512 19.999992,20 0 0 1 79.996745,99.995931 19.999992,20 0 0 1 99.995931,79.996745 Z" />
  </g>
</svg>
