<?xml version="1.0" encoding="UTF-8"?>
<svg width="12.7mm" height="12.7mm" viewBox="0 0 500 500" version="1.2" baseProfile="tiny" xmlns:n1="http://www.w3.org/2000/svg" xmlns:xlink="http://www.w3.org/1999/xlink" xmlns:cpcb="http://www.danielwagenaar.net/cpcb-ns.html">
  <cpcb:part pkg="Capacitor-Polarized-0100" xmlns="http://www.danielwagenaar.net/cpcb-ns.html">
    <group o="0 0" ref="C?">
      <trace p1="628650 139700" p2="641350 139700" w="2540" l="1"/>
      <trace p1="622300 146050" p2="628650 139700" w="2540" l="1"/>
      <trace p1="622300 184150" p2="622300 146050" w="2540" l="1"/>
      <trace p1="654050 133350" p2="660400 133350" w="2540" l="1"/>
      <trace p1="628650 190500" p2="622300 184150" w="2540" l="1"/>
      <hole p="635000 152400" id="8890" od="16510" sq="1" ref="1"/>
      <hole p="635000 177800" id="8890" od="16510" sq="0" ref="2"/>
      <trace p1="647700 133350" p2="654050 133350" w="2540" l="1"/>
      <trace p1="641350 190500" p2="628650 190500" w="2540" l="1"/>
      <trace p1="654050 133350" p2="654050 139700" w="2540" l="1"/>
      <trace p1="647700 184150" p2="641350 190500" w="2540" l="1"/>
      <trace p1="654050 127000" p2="654050 133350" w="2540" l="1"/>
      <trace p1="647700 146050" p2="647700 184150" w="2540" l="1"/>
      <trace p1="641350 139700" p2="647700 146050" w="2540" l="1"/>
    </group>
    <text p="608330 132080" fs="12700" l="1" ori="0 0" text="C?"/>
  </cpcb:part>
<n1:title>PCB Component</n1:title>
<n1:desc>Generated by CPCB</n1:desc>
<n1:defs>
</n1:defs>
<n1:g fill="none" stroke="black" stroke-width="1" fill-rule="evenodd" stroke-linecap="square" stroke-linejoin="bevel">

<n1:g fill="#000000" fill-opacity="1" stroke="none" transform="matrix(1,0,0,1,-2275,-375)" font-family="Sans" font-size="152.778" font-weight="400" font-style="normal">
<n1:rect x="2275" y="375" width="500" height="500"/>
</n1:g>

<n1:g fill="#00b400" fill-opacity="1" stroke="none" transform="matrix(1,0,0,1,-2275,-375)" font-family="Sans" font-size="152.778" font-weight="400" font-style="normal">
<n1:rect x="2467.5" y="567.5" width="65" height="65"/>
</n1:g>

<n1:g fill="#00b400" fill-opacity="1" stroke="none" transform="matrix(1,0,0,1,-2275,-375)" font-family="Sans" font-size="152.778" font-weight="400" font-style="normal">
<n1:circle cx="2500" cy="700" r="32.5"/>
</n1:g>

<n1:g fill="#ff0000" fill-opacity="1" stroke="none" transform="matrix(1,0,0,1,-2275,-375)" font-family="Sans" font-size="152.778" font-weight="400" font-style="normal">
<n1:rect x="2467.5" y="567.5" width="65" height="65"/>
</n1:g>

<n1:g fill="#ff0000" fill-opacity="1" stroke="none" transform="matrix(1,0,0,1,-2275,-375)" font-family="Sans" font-size="152.778" font-weight="400" font-style="normal">
<n1:circle cx="2500" cy="700" r="32.5"/>
</n1:g>

<n1:g fill="#000000" fill-opacity="1" stroke="none" transform="matrix(1,0,0,1,-2275,-375)" font-family="Sans" font-size="152.778" font-weight="400" font-style="normal">
<n1:circle cx="2500" cy="600" r="17.5"/>
</n1:g>

<n1:g fill="#000000" fill-opacity="1" stroke="none" transform="matrix(1,0,0,1,-2275,-375)" font-family="Sans" font-size="152.778" font-weight="400" font-style="normal">
<n1:circle cx="2500" cy="700" r="17.5"/>
</n1:g>

<n1:g fill="#000000" fill-opacity="1" stroke="#f0f000" stroke-opacity="1" stroke-width="10" stroke-linecap="round" stroke-linejoin="bevel" transform="matrix(1,0,0,1,-2275,-375)" font-family="Sans" font-size="152.778" font-weight="400" font-style="normal">
<n1:polyline fill="none" vector-effect="none" points="2475,550 2525,550 "/>
<n1:polyline fill="none" vector-effect="none" points="2450,575 2475,550 "/>
<n1:polyline fill="none" vector-effect="none" points="2450,725 2450,575 "/>
<n1:polyline fill="none" vector-effect="none" points="2575,525 2600,525 "/>
<n1:polyline fill="none" vector-effect="none" points="2475,750 2450,725 "/>
<n1:polyline fill="none" vector-effect="none" points="2550,525 2575,525 "/>
<n1:polyline fill="none" vector-effect="none" points="2525,750 2475,750 "/>
<n1:polyline fill="none" vector-effect="none" points="2575,525 2575,550 "/>
<n1:polyline fill="none" vector-effect="none" points="2550,725 2525,750 "/>
<n1:polyline fill="none" vector-effect="none" points="2575,500 2575,525 "/>
<n1:polyline fill="none" vector-effect="none" points="2550,575 2550,725 "/>
<n1:polyline fill="none" vector-effect="none" points="2525,550 2550,575 "/>
</n1:g>
</n1:g>
</svg>
