<?xml version="1.0" encoding="UTF-8"?>
<svg width="12.7mm" height="12.7mm" viewBox="0 0 500 500" version="1.2" baseProfile="tiny" xmlns:n1="http://www.w3.org/2000/svg" xmlns:xlink="http://www.w3.org/1999/xlink" xmlns:cpcb="http://www.danielwagenaar.net/cpcb-ns.html">
  <cpcb:part pkg="Resistor-¼W-0350" xmlns="http://www.danielwagenaar.net/cpcb-ns.html">
    <group ref="R?" pkg="Resistor-¼W-0350">
      <hole p="406400 508000" id="8890" od="16510" sq="0" ref="2"/>
      <hole p="317500 508000" id="8890" od="16510" sq="0" ref="1"/>
      <trace p1="393700 495300" p2="330200 495300" w="2540" l="1"/>
      <trace p1="330200 520700" p2="393700 520700" w="2540" l="1"/>
      <trace p1="393700 520700" p2="393700 508000" w="2540" l="1"/>
      <trace p1="330200 508000" p2="323850 508000" w="2540" l="1"/>
      <trace p1="330200 508000" p2="330200 520700" w="2540" l="1"/>
      <trace p1="330200 495300" p2="330200 508000" w="2540" l="1"/>
      <trace p1="393700 508000" p2="400050 508000" w="2540" l="1"/>
      <trace p1="393700 508000" p2="393700 495300" w="2540" l="1"/>
    </group>
    <text p="347345 506730" fs="12700" l="1" rot="0" text="R?"/>
  </cpcb:part>
<n1:title>PCB Component</n1:title>
<n1:desc>Generated by CPCB</n1:desc>
<n1:defs>
</n1:defs>
<n1:g fill="none" stroke="black" stroke-width="1" fill-rule="evenodd" stroke-linecap="square" stroke-linejoin="bevel">

<n1:g fill="#000000" fill-opacity="1" stroke="none" transform="matrix(1,0,0,1,-1175,-1750)" font-family="Sans" font-size="152.778" font-weight="400" font-style="normal">
<n1:rect x="1175" y="1750" width="500" height="500"/>
</n1:g>

<n1:g fill="#00b400" fill-opacity="1" stroke="none" transform="matrix(1,0,0,1,-1175,-1750)" font-family="Sans" font-size="152.778" font-weight="400" font-style="normal">
<n1:circle cx="1600" cy="2000" r="32.5"/>
</n1:g>

<n1:g fill="#00b400" fill-opacity="1" stroke="none" transform="matrix(1,0,0,1,-1175,-1750)" font-family="Sans" font-size="152.778" font-weight="400" font-style="normal">
<n1:circle cx="1250" cy="2000" r="32.5"/>
</n1:g>

<n1:g fill="#ff0000" fill-opacity="1" stroke="none" transform="matrix(1,0,0,1,-1175,-1750)" font-family="Sans" font-size="152.778" font-weight="400" font-style="normal">
<n1:circle cx="1600" cy="2000" r="32.5"/>
</n1:g>

<n1:g fill="#ff0000" fill-opacity="1" stroke="none" transform="matrix(1,0,0,1,-1175,-1750)" font-family="Sans" font-size="152.778" font-weight="400" font-style="normal">
<n1:circle cx="1250" cy="2000" r="32.5"/>
</n1:g>

<n1:g fill="#000000" fill-opacity="1" stroke="none" transform="matrix(1,0,0,1,-1175,-1750)" font-family="Sans" font-size="152.778" font-weight="400" font-style="normal">
<n1:circle cx="1600" cy="2000" r="17.5"/>
</n1:g>

<n1:g fill="#000000" fill-opacity="1" stroke="none" transform="matrix(1,0,0,1,-1175,-1750)" font-family="Sans" font-size="152.778" font-weight="400" font-style="normal">
<n1:circle cx="1250" cy="2000" r="17.5"/>
</n1:g>

<n1:g fill="#000000" fill-opacity="1" stroke="#f0f000" stroke-opacity="1" stroke-width="10" stroke-linecap="round" stroke-linejoin="bevel" transform="matrix(1,0,0,1,-1175,-1750)" font-family="Sans" font-size="152.778" font-weight="400" font-style="normal">
<n1:polyline fill="none" vector-effect="none" points="1550,1950 1300,1950 "/>
<n1:polyline fill="none" vector-effect="none" points="1300,2050 1550,2050 "/>
<n1:polyline fill="none" vector-effect="none" points="1550,2050 1550,2000 "/>
<n1:polyline fill="none" vector-effect="none" points="1300,2000 1275,2000 "/>
<n1:polyline fill="none" vector-effect="none" points="1300,2000 1300,2050 "/>
<n1:polyline fill="none" vector-effect="none" points="1300,1950 1300,2000 "/>
<n1:polyline fill="none" vector-effect="none" points="1550,2000 1575,2000 "/>
<n1:polyline fill="none" vector-effect="none" points="1550,2000 1550,1950 "/>
</n1:g>
</n1:g>
</svg>
