<?xml version="1.0" encoding="UTF-8"?>
<svg width="110.744mm" height="76.2mm" viewBox="0 0 436 300" version="1.2" baseProfile="tiny" xmlns:n1="http://www.w3.org/2000/svg" xmlns:xlink="http://www.w3.org/1999/xlink" xmlns:cpcb="http://www.danielwagenaar.net/cpcb-ns.html">
  <cpcb:part pkg="Trimpot3" xmlns="http://www.danielwagenaar.net/cpcb-ns.html">
    <group ref="R1" pkg="Trimpot3" nomrot="0">
      <hole p="260350 831850" id="10160" od="15240" sq="1" ref="1"/>
      <hole p="311150 831850" id="10160" od="15240" ref="3"/>
      <hole p="285750 831850" id="10160" od="15240" ref="2"/>
      <trace p1="237998 809498" p2="237998 854202" w="2540" l="1"/>
      <trace p1="237998 854202" p2="333502 854202" w="2540" l="1"/>
      <trace p1="333502 854202" p2="333502 809498" w="2540" l="1"/>
      <trace p1="333502 809498" p2="237998 809498" w="2540" l="1"/>
    </group>
    <text p="214122 822198" fs="12700" l="1" rot="0" text="R1"/>
  </cpcb:part>
<n1:title>PCB Component</n1:title>
<n1:desc>Generated by CPCB</n1:desc>
<n1:defs>
</n1:defs>
<n1:g fill="none" stroke="black" stroke-width="1" fill-rule="evenodd" stroke-linecap="square" stroke-linejoin="bevel">

<n1:g fill="#000000" fill-opacity="1" stroke="none" transform="matrix(1,0,0,1,-907,-3125)" font-family="Sans" font-size="152.778" font-weight="400" font-style="normal">
<n1:rect x="907" y="3125" width="436" height="300"/>
</n1:g>

<n1:g fill="#000000" fill-opacity="1" stroke="#00b400" stroke-opacity="1" stroke-width="60" stroke-linecap="butt" stroke-linejoin="bevel" transform="matrix(1,0,0,1,-907,-3125)" font-family="Sans" font-size="152.778" font-weight="400" font-style="normal">
<n1:polyline fill="none" vector-effect="none" points="995,3275 1055,3275 "/>
</n1:g>

<n1:g fill="#00b400" fill-opacity="1" stroke="none" transform="matrix(1,0,0,1,-907,-3125)" font-family="Sans" font-size="152.778" font-weight="400" font-style="normal">
<n1:circle cx="1225" cy="3275" r="30"/>
</n1:g>

<n1:g fill="#00b400" fill-opacity="1" stroke="none" transform="matrix(1,0,0,1,-907,-3125)" font-family="Sans" font-size="152.778" font-weight="400" font-style="normal">
<n1:circle cx="1125" cy="3275" r="30"/>
</n1:g>

<n1:g fill="#00b400" fill-opacity="1" stroke="#ff0000" stroke-opacity="1" stroke-width="60" stroke-linecap="butt" stroke-linejoin="bevel" transform="matrix(1,0,0,1,-907,-3125)" font-family="Sans" font-size="152.778" font-weight="400" font-style="normal">
<n1:polyline fill="none" vector-effect="none" points="995,3275 1055,3275 "/>
</n1:g>

<n1:g fill="#ff0000" fill-opacity="1" stroke="none" transform="matrix(1,0,0,1,-907,-3125)" font-family="Sans" font-size="152.778" font-weight="400" font-style="normal">
<n1:circle cx="1225" cy="3275" r="30"/>
</n1:g>

<n1:g fill="#ff0000" fill-opacity="1" stroke="none" transform="matrix(1,0,0,1,-907,-3125)" font-family="Sans" font-size="152.778" font-weight="400" font-style="normal">
<n1:circle cx="1125" cy="3275" r="30"/>
</n1:g>

<n1:g fill="#ffffff" fill-opacity="1" stroke="none" transform="matrix(1,0,0,1,-907,-3125)" font-family="Sans" font-size="152.778" font-weight="400" font-style="normal">
<n1:circle cx="1025" cy="3275" r="20"/>
</n1:g>

<n1:g fill="#ffffff" fill-opacity="1" stroke="none" transform="matrix(1,0,0,1,-907,-3125)" font-family="Sans" font-size="152.778" font-weight="400" font-style="normal">
<n1:circle cx="1225" cy="3275" r="20"/>
</n1:g>

<n1:g fill="#ffffff" fill-opacity="1" stroke="none" transform="matrix(1,0,0,1,-907,-3125)" font-family="Sans" font-size="152.778" font-weight="400" font-style="normal">
<n1:circle cx="1125" cy="3275" r="20"/>
</n1:g>

<n1:g fill="#ffffff" fill-opacity="1" stroke="#f0f000" stroke-opacity="1" stroke-width="10" stroke-linecap="round" stroke-linejoin="bevel" transform="matrix(1,0,0,1,-907,-3125)" font-family="Sans" font-size="152.778" font-weight="400" font-style="normal">
<n1:polyline fill="none" vector-effect="none" points="937,3187 937,3363 "/>
<n1:polyline fill="none" vector-effect="none" points="937,3363 1313,3363 "/>
<n1:polyline fill="none" vector-effect="none" points="1313,3363 1313,3187 "/>
<n1:polyline fill="none" vector-effect="none" points="1313,3187 937,3187 "/>
</n1:g>
</n1:g>
</svg>
